<svg width="271" height="294" viewBox="0 0 271 294" fill="none" xmlns="http://www.w3.org/2000/svg">
<path d="M21.4 7.456C26.728 7.456 31.384 8.512 35.368 10.624C39.352 12.736 42.424 15.712 44.584 19.552C46.792 23.344 47.896 27.736 47.896 32.728C47.896 37.672 46.792 42.064 44.584 45.904C42.424 49.744 39.328 52.72 35.296 54.832C31.312 56.944 26.68 58 21.4 58H2.464V7.456H21.4ZM20.608 47.344C25.264 47.344 28.888 46.072 31.48 43.528C34.072 40.984 35.368 37.384 35.368 32.728C35.368 28.072 34.072 24.448 31.48 21.856C28.888 19.264 25.264 17.968 20.608 17.968H14.776V47.344H20.608ZM92.6485 37.264C92.6485 38.416 92.5765 39.616 92.4325 40.864H64.5685C64.7605 43.36 65.5525 45.28 66.9445 46.624C68.3845 47.92 70.1365 48.568 72.2005 48.568C75.2725 48.568 77.4085 47.272 78.6085 44.68H91.7125C91.0405 47.32 89.8165 49.696 88.0405 51.808C86.3125 53.92 84.1285 55.576 81.4885 56.776C78.8485 57.976 75.8965 58.576 72.6325 58.576C68.6965 58.576 65.1925 57.736 62.1205 56.056C59.0485 54.376 56.6485 51.976 54.9205 48.856C53.1925 45.736 52.3285 42.088 52.3285 37.912C52.3285 33.736 53.1685 30.088 54.8485 26.968C56.5765 23.848 58.9765 21.448 62.0485 19.768C65.1205 18.088 68.6485 17.248 72.6325 17.248C76.5205 17.248 79.9765 18.064 83.0005 19.696C86.0245 21.328 88.3765 23.656 90.0565 26.68C91.7845 29.704 92.6485 33.232 92.6485 37.264ZM80.0485 34.024C80.0485 31.912 79.3285 30.232 77.8885 28.984C76.4485 27.736 74.6485 27.112 72.4885 27.112C70.4245 27.112 68.6725 27.712 67.2325 28.912C65.8405 30.112 64.9765 31.816 64.6405 34.024H80.0485ZM115.488 58.576C111.984 58.576 108.864 57.976 106.128 56.776C103.392 55.576 101.232 53.944 99.6477 51.88C98.0637 49.768 97.1757 47.416 96.9837 44.824H109.152C109.296 46.216 109.944 47.344 111.096 48.208C112.248 49.072 113.664 49.504 115.344 49.504C116.88 49.504 118.056 49.216 118.872 48.64C119.736 48.016 120.168 47.224 120.168 46.264C120.168 45.112 119.568 44.272 118.368 43.744C117.168 43.168 115.224 42.544 112.536 41.872C109.656 41.2 107.256 40.504 105.336 39.784C103.416 39.016 101.76 37.84 100.368 36.256C98.9757 34.624 98.2797 32.44 98.2797 29.704C98.2797 27.4 98.9037 25.312 100.152 23.44C101.448 21.52 103.32 20.008 105.768 18.904C108.264 17.8 111.216 17.248 114.624 17.248C119.664 17.248 123.624 18.496 126.504 20.992C129.432 23.488 131.112 26.8 131.544 30.928H120.168C119.976 29.536 119.352 28.432 118.296 27.616C117.288 26.8 115.944 26.392 114.264 26.392C112.824 26.392 111.72 26.68 110.952 27.256C110.184 27.784 109.8 28.528 109.8 29.488C109.8 30.64 110.4 31.504 111.6 32.08C112.848 32.656 114.768 33.232 117.36 33.808C120.336 34.576 122.76 35.344 124.632 36.112C126.504 36.832 128.136 38.032 129.528 39.712C130.968 41.344 131.712 43.552 131.76 46.336C131.76 48.688 131.088 50.8 129.744 52.672C128.448 54.496 126.552 55.936 124.056 56.992C121.608 58.048 118.752 58.576 115.488 58.576ZM145.484 13.648C143.324 13.648 141.548 13.024 140.156 11.776C138.812 10.48 138.14 8.896 138.14 7.024C138.14 5.104 138.812 3.52 140.156 2.272C141.548 0.975996 143.324 0.327996 145.484 0.327996C147.596 0.327996 149.324 0.975996 150.668 2.272C152.06 3.52 152.756 5.104 152.756 7.024C152.756 8.896 152.06 10.48 150.668 11.776C149.324 13.024 147.596 13.648 145.484 13.648ZM151.604 17.824V58H139.292V17.824H151.604ZM175.791 17.248C178.623 17.248 181.095 17.824 183.207 18.976C185.367 20.128 187.023 21.64 188.175 23.512V17.824H200.487V57.928C200.487 61.624 199.743 64.96 198.255 67.936C196.815 70.96 194.583 73.36 191.559 75.136C188.583 76.912 184.863 77.8 180.399 77.8C174.447 77.8 169.623 76.384 165.927 73.552C162.231 70.768 160.119 66.976 159.591 62.176H171.759C172.143 63.712 173.055 64.912 174.495 65.776C175.935 66.688 177.711 67.144 179.823 67.144C182.367 67.144 184.383 66.4 185.871 64.912C187.407 63.472 188.175 61.144 188.175 57.928V52.24C186.975 54.112 185.319 55.648 183.207 56.848C181.095 58 178.623 58.576 175.791 58.576C172.479 58.576 169.479 57.736 166.791 56.056C164.103 54.328 161.967 51.904 160.383 48.784C158.847 45.616 158.079 41.968 158.079 37.84C158.079 33.712 158.847 30.088 160.383 26.968C161.967 23.848 164.103 21.448 166.791 19.768C169.479 18.088 172.479 17.248 175.791 17.248ZM188.175 37.912C188.175 34.84 187.311 32.416 185.583 30.64C183.903 28.864 181.839 27.976 179.391 27.976C176.943 27.976 174.855 28.864 173.127 30.64C171.447 32.368 170.607 34.768 170.607 37.84C170.607 40.912 171.447 43.36 173.127 45.184C174.855 46.96 176.943 47.848 179.391 47.848C181.839 47.848 183.903 46.96 185.583 45.184C187.311 43.408 188.175 40.984 188.175 37.912ZM233.874 17.392C238.578 17.392 242.322 18.928 245.106 22C247.938 25.024 249.354 29.2 249.354 34.528V58H237.114V36.184C237.114 33.496 236.418 31.408 235.026 29.92C233.634 28.432 231.762 27.688 229.41 27.688C227.058 27.688 225.186 28.432 223.794 29.92C222.402 31.408 221.706 33.496 221.706 36.184V58H209.394V17.824H221.706V23.152C222.954 21.376 224.634 19.984 226.746 18.976C228.858 17.92 231.234 17.392 233.874 17.392ZM263.669 58.576C261.509 58.576 259.733 57.952 258.341 56.704C256.997 55.408 256.325 53.824 256.325 51.952C256.325 50.032 256.997 48.424 258.341 47.128C259.733 45.832 261.509 45.184 263.669 45.184C265.781 45.184 267.509 45.832 268.853 47.128C270.245 48.424 270.941 50.032 270.941 51.952C270.941 53.824 270.245 55.408 268.853 56.704C267.509 57.952 265.781 58.576 263.669 58.576Z" fill="#FEC3C7"/>
<path d="M0.376 140.656C0.376 135.664 1.456 131.224 3.616 127.336C5.776 123.4 8.776 120.352 12.616 118.192C16.504 115.984 20.896 114.88 25.792 114.88C31.792 114.88 36.928 116.464 41.2 119.632C45.472 122.8 48.328 127.12 49.768 132.592H36.232C35.224 130.48 33.784 128.872 31.912 127.768C30.088 126.664 28 126.112 25.648 126.112C21.856 126.112 18.784 127.432 16.432 130.072C14.08 132.712 12.904 136.24 12.904 140.656C12.904 145.072 14.08 148.6 16.432 151.24C18.784 153.88 21.856 155.2 25.648 155.2C28 155.2 30.088 154.648 31.912 153.544C33.784 152.44 35.224 150.832 36.232 148.72H49.768C48.328 154.192 45.472 158.512 41.2 161.68C36.928 164.8 31.792 166.36 25.792 166.36C20.896 166.36 16.504 165.28 12.616 163.12C8.776 160.912 5.776 157.864 3.616 153.976C1.456 150.088 0.376 145.648 0.376 140.656ZM69.6198 132.52C71.0598 130.312 72.8598 128.584 75.0198 127.336C77.1798 126.04 79.5798 125.392 82.2198 125.392V138.424H78.8358C75.7638 138.424 73.4598 139.096 71.9238 140.44C70.3878 141.736 69.6198 144.04 69.6198 147.352V166H57.3078V125.824H69.6198V132.52ZM125.977 145.264C125.977 146.416 125.905 147.616 125.761 148.864H97.8966C98.0886 151.36 98.8806 153.28 100.273 154.624C101.713 155.92 103.465 156.568 105.529 156.568C108.601 156.568 110.737 155.272 111.937 152.68H125.041C124.369 155.32 123.145 157.696 121.369 159.808C119.641 161.92 117.457 163.576 114.817 164.776C112.177 165.976 109.225 166.576 105.961 166.576C102.025 166.576 98.5206 165.736 95.4486 164.056C92.3766 162.376 89.9766 159.976 88.2486 156.856C86.5206 153.736 85.6566 150.088 85.6566 145.912C85.6566 141.736 86.4966 138.088 88.1766 134.968C89.9046 131.848 92.3046 129.448 95.3766 127.768C98.4486 126.088 101.977 125.248 105.961 125.248C109.849 125.248 113.305 126.064 116.329 127.696C119.353 129.328 121.705 131.656 123.385 134.68C125.113 137.704 125.977 141.232 125.977 145.264ZM113.377 142.024C113.377 139.912 112.657 138.232 111.217 136.984C109.777 135.736 107.977 135.112 105.817 135.112C103.753 135.112 102.001 135.712 100.561 136.912C99.1686 138.112 98.3046 139.816 97.9686 142.024H113.377ZM130.024 145.84C130.024 141.712 130.792 138.088 132.328 134.968C133.912 131.848 136.048 129.448 138.736 127.768C141.424 126.088 144.424 125.248 147.736 125.248C150.568 125.248 153.04 125.824 155.152 126.976C157.312 128.128 158.968 129.64 160.12 131.512V125.824H172.432V166H160.12V160.312C158.92 162.184 157.24 163.696 155.08 164.848C152.968 166 150.496 166.576 147.664 166.576C144.4 166.576 141.424 165.736 138.736 164.056C136.048 162.328 133.912 159.904 132.328 156.784C130.792 153.616 130.024 149.968 130.024 145.84ZM160.12 145.912C160.12 142.84 159.256 140.416 157.528 138.64C155.848 136.864 153.784 135.976 151.336 135.976C148.888 135.976 146.8 136.864 145.072 138.64C143.392 140.368 142.552 142.768 142.552 145.84C142.552 148.912 143.392 151.36 145.072 153.184C146.8 154.96 148.888 155.848 151.336 155.848C153.784 155.848 155.848 154.96 157.528 153.184C159.256 151.408 160.12 148.984 160.12 145.912ZM203.731 155.56V166H197.467C193.003 166 189.523 164.92 187.027 162.76C184.531 160.552 183.283 156.976 183.283 152.032V136.048H178.387V125.824H183.283V116.032H195.595V125.824H203.659V136.048H195.595V152.176C195.595 153.376 195.883 154.24 196.459 154.768C197.035 155.296 197.995 155.56 199.339 155.56H203.731ZM248.461 145.264C248.461 146.416 248.389 147.616 248.245 148.864H220.381C220.573 151.36 221.365 153.28 222.757 154.624C224.197 155.92 225.949 156.568 228.013 156.568C231.085 156.568 233.221 155.272 234.421 152.68H247.525C246.853 155.32 245.629 157.696 243.853 159.808C242.125 161.92 239.941 163.576 237.301 164.776C234.661 165.976 231.709 166.576 228.445 166.576C224.509 166.576 221.005 165.736 217.933 164.056C214.861 162.376 212.461 159.976 210.733 156.856C209.005 153.736 208.141 150.088 208.141 145.912C208.141 141.736 208.981 138.088 210.661 134.968C212.389 131.848 214.789 129.448 217.861 127.768C220.933 126.088 224.461 125.248 228.445 125.248C232.333 125.248 235.789 126.064 238.813 127.696C241.837 129.328 244.189 131.656 245.869 134.68C247.597 137.704 248.461 141.232 248.461 145.264ZM235.861 142.024C235.861 139.912 235.141 138.232 233.701 136.984C232.261 135.736 230.461 135.112 228.301 135.112C226.237 135.112 224.485 135.712 223.045 136.912C221.653 138.112 220.789 139.816 220.453 142.024H235.861ZM260.716 166.576C258.556 166.576 256.78 165.952 255.388 164.704C254.044 163.408 253.372 161.824 253.372 159.952C253.372 158.032 254.044 156.424 255.388 155.128C256.78 153.832 258.556 153.184 260.716 153.184C262.828 153.184 264.556 153.832 265.9 155.128C267.292 156.424 267.988 158.032 267.988 159.952C267.988 161.824 267.292 163.408 265.9 164.704C264.556 165.952 262.828 166.576 260.716 166.576Z" fill="#9AD7F3"/>
<path d="M14.776 223.456V274H2.464V223.456H14.776ZM48.1784 233.392C52.8824 233.392 56.6264 234.928 59.4104 238C62.2424 241.024 63.6584 245.2 63.6584 250.528V274H51.4184V252.184C51.4184 249.496 50.7224 247.408 49.3304 245.92C47.9384 244.432 46.0664 243.688 43.7144 243.688C41.3624 243.688 39.4904 244.432 38.0984 245.92C36.7064 247.408 36.0104 249.496 36.0104 252.184V274H23.6984V233.824H36.0104V239.152C37.2584 237.376 38.9384 235.984 41.0504 234.976C43.1624 233.92 45.5384 233.392 48.1784 233.392ZM88.558 274.576C85.054 274.576 81.934 273.976 79.198 272.776C76.462 271.576 74.302 269.944 72.718 267.88C71.134 265.768 70.246 263.416 70.054 260.824H82.222C82.366 262.216 83.014 263.344 84.166 264.208C85.318 265.072 86.734 265.504 88.414 265.504C89.95 265.504 91.126 265.216 91.942 264.64C92.806 264.016 93.238 263.224 93.238 262.264C93.238 261.112 92.638 260.272 91.438 259.744C90.238 259.168 88.294 258.544 85.606 257.872C82.726 257.2 80.326 256.504 78.406 255.784C76.486 255.016 74.83 253.84 73.438 252.256C72.046 250.624 71.35 248.44 71.35 245.704C71.35 243.4 71.974 241.312 73.222 239.44C74.518 237.52 76.39 236.008 78.838 234.904C81.334 233.8 84.286 233.248 87.694 233.248C92.734 233.248 96.694 234.496 99.574 236.992C102.502 239.488 104.182 242.8 104.614 246.928H93.238C93.046 245.536 92.422 244.432 91.366 243.616C90.358 242.8 89.014 242.392 87.334 242.392C85.894 242.392 84.79 242.68 84.022 243.256C83.254 243.784 82.87 244.528 82.87 245.488C82.87 246.64 83.47 247.504 84.67 248.08C85.918 248.656 87.838 249.232 90.43 249.808C93.406 250.576 95.83 251.344 97.702 252.112C99.574 252.832 101.206 254.032 102.598 255.712C104.038 257.344 104.782 259.552 104.83 262.336C104.83 264.688 104.158 266.8 102.814 268.672C101.518 270.496 99.622 271.936 97.126 272.992C94.678 274.048 91.822 274.576 88.558 274.576ZM124.674 239.512C125.874 237.64 127.53 236.128 129.642 234.976C131.754 233.824 134.226 233.248 137.058 233.248C140.37 233.248 143.37 234.088 146.058 235.768C148.746 237.448 150.858 239.848 152.394 242.968C153.978 246.088 154.77 249.712 154.77 253.84C154.77 257.968 153.978 261.616 152.394 264.784C150.858 267.904 148.746 270.328 146.058 272.056C143.37 273.736 140.37 274.576 137.058 274.576C134.274 274.576 131.802 274 129.642 272.848C127.53 271.696 125.874 270.208 124.674 268.384V293.152H112.362V233.824H124.674V239.512ZM142.242 253.84C142.242 250.768 141.378 248.368 139.65 246.64C137.97 244.864 135.882 243.976 133.386 243.976C130.938 243.976 128.85 244.864 127.122 246.64C125.442 248.416 124.602 250.84 124.602 253.912C124.602 256.984 125.442 259.408 127.122 261.184C128.85 262.96 130.938 263.848 133.386 263.848C135.834 263.848 137.922 262.96 139.65 261.184C141.378 259.36 142.242 256.912 142.242 253.84ZM167.422 229.648C165.262 229.648 163.486 229.024 162.094 227.776C160.75 226.48 160.078 224.896 160.078 223.024C160.078 221.104 160.75 219.52 162.094 218.272C163.486 216.976 165.262 216.328 167.422 216.328C169.534 216.328 171.262 216.976 172.606 218.272C173.998 219.52 174.694 221.104 174.694 223.024C174.694 224.896 173.998 226.48 172.606 227.776C171.262 229.024 169.534 229.648 167.422 229.648ZM173.542 233.824V274H161.23V233.824H173.542ZM194.776 240.52C196.216 238.312 198.016 236.584 200.176 235.336C202.336 234.04 204.736 233.392 207.376 233.392V246.424H203.992C200.92 246.424 198.616 247.096 197.08 248.44C195.544 249.736 194.776 252.04 194.776 255.352V274H182.464V233.824H194.776V240.52ZM251.133 253.264C251.133 254.416 251.061 255.616 250.917 256.864H223.053C223.245 259.36 224.037 261.28 225.429 262.624C226.869 263.92 228.621 264.568 230.685 264.568C233.757 264.568 235.893 263.272 237.093 260.68H250.197C249.525 263.32 248.301 265.696 246.525 267.808C244.797 269.92 242.613 271.576 239.973 272.776C237.333 273.976 234.381 274.576 231.117 274.576C227.181 274.576 223.677 273.736 220.605 272.056C217.533 270.376 215.133 267.976 213.405 264.856C211.677 261.736 210.813 258.088 210.813 253.912C210.813 249.736 211.653 246.088 213.333 242.968C215.061 239.848 217.461 237.448 220.533 235.768C223.605 234.088 227.133 233.248 231.117 233.248C235.005 233.248 238.461 234.064 241.485 235.696C244.509 237.328 246.861 239.656 248.541 242.68C250.269 245.704 251.133 249.232 251.133 253.264ZM238.533 250.024C238.533 247.912 237.813 246.232 236.373 244.984C234.933 243.736 233.133 243.112 230.973 243.112C228.909 243.112 227.157 243.712 225.717 244.912C224.325 246.112 223.461 247.816 223.125 250.024H238.533ZM263.388 274.576C261.228 274.576 259.452 273.952 258.06 272.704C256.716 271.408 256.044 269.824 256.044 267.952C256.044 266.032 256.716 264.424 258.06 263.128C259.452 261.832 261.228 261.184 263.388 261.184C265.5 261.184 267.228 261.832 268.572 263.128C269.964 264.424 270.66 266.032 270.66 267.952C270.66 269.824 269.964 271.408 268.572 272.704C267.228 273.952 265.5 274.576 263.388 274.576Z" fill="#6BDFDA"/>
</svg>
