<svg width="435" height="134" viewBox="0 0 435 134" fill="none" xmlns="http://www.w3.org/2000/svg">
<path d="M3.032 17.224H8.888V19H0.848V2.272H3.032V17.224ZM16.9434 19.216C15.7114 19.216 14.5914 18.936 13.5834 18.376C12.5914 17.816 11.8074 17.024 11.2314 16C10.6714 14.96 10.3914 13.76 10.3914 12.4C10.3914 11.056 10.6794 9.872 11.2554 8.848C11.8474 7.808 12.6474 7.016 13.6554 6.472C14.6634 5.912 15.7914 5.632 17.0394 5.632C18.2874 5.632 19.4154 5.912 20.4234 6.472C21.4314 7.016 22.2234 7.8 22.7994 8.824C23.3914 9.848 23.6874 11.04 23.6874 12.4C23.6874 13.76 23.3834 14.96 22.7754 16C22.1834 17.024 21.3754 17.816 20.3514 18.376C19.3274 18.936 18.1914 19.216 16.9434 19.216ZM16.9434 17.296C17.7274 17.296 18.4634 17.112 19.1514 16.744C19.8394 16.376 20.3914 15.824 20.8074 15.088C21.2394 14.352 21.4554 13.456 21.4554 12.4C21.4554 11.344 21.2474 10.448 20.8314 9.712C20.4154 8.976 19.8714 8.432 19.1994 8.08C18.5274 7.712 17.7994 7.528 17.0154 7.528C16.2154 7.528 15.4794 7.712 14.8074 8.08C14.1514 8.432 13.6234 8.976 13.2234 9.712C12.8234 10.448 12.6234 11.344 12.6234 12.4C12.6234 13.472 12.8154 14.376 13.1994 15.112C13.5994 15.848 14.1274 16.4 14.7834 16.768C15.4394 17.12 16.1594 17.296 16.9434 17.296ZM28.7429 7.984C29.1269 7.232 29.6709 6.648 30.3749 6.232C31.0949 5.816 31.9669 5.608 32.9909 5.608V7.864H32.4149C29.9669 7.864 28.7429 9.192 28.7429 11.848V19H26.5589V5.848H28.7429V7.984ZM47.5121 11.92C47.5121 12.336 47.4881 12.776 47.4401 13.24H36.9281C37.0081 14.536 37.4481 15.552 38.2481 16.288C39.0641 17.008 40.0481 17.368 41.2001 17.368C42.1441 17.368 42.9281 17.152 43.5521 16.72C44.1921 16.272 44.6401 15.68 44.8961 14.944H47.2481C46.8961 16.208 46.1921 17.24 45.1361 18.04C44.0801 18.824 42.7681 19.216 41.2001 19.216C39.9521 19.216 38.8321 18.936 37.8401 18.376C36.8641 17.816 36.0961 17.024 35.5361 16C34.9761 14.96 34.6961 13.76 34.6961 12.4C34.6961 11.04 34.9681 9.848 35.5121 8.824C36.0561 7.8 36.8161 7.016 37.7921 6.472C38.7841 5.912 39.9201 5.632 41.2001 5.632C42.4481 5.632 43.5521 5.904 44.5121 6.448C45.4721 6.992 46.2081 7.744 46.7201 8.704C47.2481 9.648 47.5121 10.72 47.5121 11.92ZM45.2561 11.464C45.2561 10.632 45.0721 9.92 44.7041 9.328C44.3361 8.72 43.8321 8.264 43.1921 7.96C42.5681 7.64 41.8721 7.48 41.1041 7.48C40.0001 7.48 39.0561 7.832 38.2721 8.536C37.5041 9.24 37.0641 10.216 36.9521 11.464H45.2561ZM66.2109 5.608C67.2349 5.608 68.1469 5.824 68.9469 6.256C69.7469 6.672 70.3789 7.304 70.8429 8.152C71.3069 9 71.5389 10.032 71.5389 11.248V19H69.3789V11.56C69.3789 10.248 69.0509 9.248 68.3949 8.56C67.7549 7.856 66.8829 7.504 65.7789 7.504C64.6429 7.504 63.7389 7.872 63.0669 8.608C62.3949 9.328 62.0589 10.376 62.0589 11.752V19H59.8989V11.56C59.8989 10.248 59.5709 9.248 58.9149 8.56C58.2749 7.856 57.4029 7.504 56.2989 7.504C55.1629 7.504 54.2589 7.872 53.5869 8.608C52.9149 9.328 52.5789 10.376 52.5789 11.752V19H50.3949V5.848H52.5789V7.744C53.0109 7.056 53.5869 6.528 54.3069 6.16C55.0429 5.792 55.8509 5.608 56.7309 5.608C57.8349 5.608 58.8109 5.856 59.6589 6.352C60.5069 6.848 61.1389 7.576 61.5549 8.536C61.9229 7.608 62.5309 6.888 63.3789 6.376C64.2269 5.864 65.1709 5.608 66.2109 5.608ZM82.6479 3.712C82.2319 3.712 81.8799 3.568 81.5919 3.28C81.3039 2.992 81.1599 2.64 81.1599 2.224C81.1599 1.808 81.3039 1.456 81.5919 1.168C81.8799 0.879999 82.2319 0.735999 82.6479 0.735999C83.0479 0.735999 83.3839 0.879999 83.6559 1.168C83.9439 1.456 84.0879 1.808 84.0879 2.224C84.0879 2.64 83.9439 2.992 83.6559 3.28C83.3839 3.568 83.0479 3.712 82.6479 3.712ZM83.7039 5.848V19H81.5199V5.848H83.7039ZM89.6101 8.272C90.0421 7.52 90.6821 6.896 91.5301 6.4C92.3941 5.888 93.3941 5.632 94.5301 5.632C95.6981 5.632 96.7541 5.912 97.6981 6.472C98.6581 7.032 99.4101 7.824 99.9541 8.848C100.498 9.856 100.77 11.032 100.77 12.376C100.77 13.704 100.498 14.888 99.9541 15.928C99.4101 16.968 98.6581 17.776 97.6981 18.352C96.7541 18.928 95.6981 19.216 94.5301 19.216C93.4101 19.216 92.4181 18.968 91.5541 18.472C90.7061 17.96 90.0581 17.328 89.6101 16.576V25.24H87.4261V5.848H89.6101V8.272ZM98.5381 12.376C98.5381 11.384 98.3381 10.52 97.9381 9.784C97.5381 9.048 96.9941 8.488 96.3061 8.104C95.6341 7.72 94.8901 7.528 94.0741 7.528C93.2741 7.528 92.5301 7.728 91.8421 8.128C91.1701 8.512 90.6261 9.08 90.2101 9.832C89.8101 10.568 89.6101 11.424 89.6101 12.4C89.6101 13.392 89.8101 14.264 90.2101 15.016C90.6261 15.752 91.1701 16.32 91.8421 16.72C92.5301 17.104 93.2741 17.296 94.0741 17.296C94.8901 17.296 95.6341 17.104 96.3061 16.72C96.9941 16.32 97.5381 15.752 97.9381 15.016C98.3381 14.264 98.5381 13.384 98.5381 12.376ZM108.301 19.216C107.293 19.216 106.389 19.048 105.589 18.712C104.789 18.36 104.157 17.88 103.693 17.272C103.229 16.648 102.973 15.936 102.925 15.136H105.181C105.245 15.792 105.549 16.328 106.093 16.744C106.653 17.16 107.381 17.368 108.277 17.368C109.109 17.368 109.765 17.184 110.245 16.816C110.725 16.448 110.965 15.984 110.965 15.424C110.965 14.848 110.709 14.424 110.197 14.152C109.685 13.864 108.893 13.584 107.821 13.312C106.845 13.056 106.045 12.8 105.421 12.544C104.813 12.272 104.285 11.88 103.837 11.368C103.405 10.84 103.189 10.152 103.189 9.304C103.189 8.632 103.389 8.016 103.789 7.456C104.189 6.896 104.757 6.456 105.493 6.136C106.229 5.8 107.069 5.632 108.013 5.632C109.469 5.632 110.645 6 111.541 6.736C112.437 7.472 112.917 8.48 112.981 9.76H110.797C110.749 9.072 110.469 8.52 109.957 8.104C109.461 7.688 108.789 7.48 107.941 7.48C107.157 7.48 106.533 7.648 106.069 7.984C105.605 8.32 105.373 8.76 105.373 9.304C105.373 9.736 105.509 10.096 105.781 10.384C106.069 10.656 106.421 10.88 106.837 11.056C107.269 11.216 107.861 11.4 108.613 11.608C109.557 11.864 110.325 12.12 110.917 12.376C111.509 12.616 112.013 12.984 112.429 13.48C112.861 13.976 113.085 14.624 113.101 15.424C113.101 16.144 112.901 16.792 112.501 17.368C112.101 17.944 111.533 18.4 110.797 18.736C110.077 19.056 109.245 19.216 108.301 19.216ZM127.848 5.848V19H125.664V17.056C125.248 17.728 124.664 18.256 123.912 18.64C123.176 19.008 122.36 19.192 121.464 19.192C120.44 19.192 119.52 18.984 118.704 18.568C117.888 18.136 117.24 17.496 116.76 16.648C116.296 15.8 116.064 14.768 116.064 13.552V5.848H118.224V13.264C118.224 14.56 118.552 15.56 119.208 16.264C119.864 16.952 120.76 17.296 121.896 17.296C123.064 17.296 123.984 16.936 124.656 16.216C125.328 15.496 125.664 14.448 125.664 13.072V5.848H127.848ZM147.352 5.608C148.376 5.608 149.288 5.824 150.088 6.256C150.888 6.672 151.52 7.304 151.984 8.152C152.448 9 152.68 10.032 152.68 11.248V19H150.52V11.56C150.52 10.248 150.192 9.248 149.536 8.56C148.896 7.856 148.024 7.504 146.92 7.504C145.784 7.504 144.88 7.872 144.208 8.608C143.536 9.328 143.2 10.376 143.2 11.752V19H141.04V11.56C141.04 10.248 140.712 9.248 140.056 8.56C139.416 7.856 138.544 7.504 137.44 7.504C136.304 7.504 135.4 7.872 134.728 8.608C134.056 9.328 133.72 10.376 133.72 11.752V19H131.536V5.848H133.72V7.744C134.152 7.056 134.728 6.528 135.448 6.16C136.184 5.792 136.992 5.608 137.872 5.608C138.976 5.608 139.952 5.856 140.8 6.352C141.648 6.848 142.28 7.576 142.696 8.536C143.064 7.608 143.672 6.888 144.52 6.376C145.368 5.864 146.312 5.608 147.352 5.608ZM161.845 12.376C161.845 11.032 162.117 9.856 162.661 8.848C163.205 7.824 163.949 7.032 164.893 6.472C165.853 5.912 166.925 5.632 168.109 5.632C169.133 5.632 170.085 5.872 170.965 6.352C171.845 6.816 172.517 7.432 172.981 8.2V1.24H175.189V19H172.981V16.528C172.549 17.312 171.909 17.96 171.061 18.472C170.213 18.968 169.221 19.216 168.085 19.216C166.917 19.216 165.853 18.928 164.893 18.352C163.949 17.776 163.205 16.968 162.661 15.928C162.117 14.888 161.845 13.704 161.845 12.376ZM172.981 12.4C172.981 11.408 172.781 10.544 172.381 9.808C171.981 9.072 171.437 8.512 170.749 8.128C170.077 7.728 169.333 7.528 168.517 7.528C167.701 7.528 166.957 7.72 166.285 8.104C165.613 8.488 165.077 9.048 164.677 9.784C164.277 10.52 164.077 11.384 164.077 12.376C164.077 13.384 164.277 14.264 164.677 15.016C165.077 15.752 165.613 16.32 166.285 16.72C166.957 17.104 167.701 17.296 168.517 17.296C169.333 17.296 170.077 17.104 170.749 16.72C171.437 16.32 171.981 15.752 172.381 15.016C172.781 14.264 172.981 13.392 172.981 12.4ZM184.615 19.216C183.383 19.216 182.263 18.936 181.255 18.376C180.263 17.816 179.479 17.024 178.903 16C178.343 14.96 178.063 13.76 178.063 12.4C178.063 11.056 178.351 9.872 178.927 8.848C179.519 7.808 180.319 7.016 181.327 6.472C182.335 5.912 183.463 5.632 184.711 5.632C185.959 5.632 187.087 5.912 188.095 6.472C189.103 7.016 189.895 7.8 190.471 8.824C191.063 9.848 191.359 11.04 191.359 12.4C191.359 13.76 191.055 14.96 190.447 16C189.855 17.024 189.047 17.816 188.023 18.376C186.999 18.936 185.863 19.216 184.615 19.216ZM184.615 17.296C185.399 17.296 186.135 17.112 186.823 16.744C187.511 16.376 188.063 15.824 188.479 15.088C188.911 14.352 189.127 13.456 189.127 12.4C189.127 11.344 188.919 10.448 188.503 9.712C188.087 8.976 187.543 8.432 186.871 8.08C186.199 7.712 185.471 7.528 184.687 7.528C183.887 7.528 183.151 7.712 182.479 8.08C181.823 8.432 181.295 8.976 180.895 9.712C180.495 10.448 180.295 11.344 180.295 12.4C180.295 13.472 180.487 14.376 180.871 15.112C181.271 15.848 181.799 16.4 182.455 16.768C183.111 17.12 183.831 17.296 184.615 17.296ZM196.415 1.24V19H194.231V1.24H196.415ZM205.873 19.216C204.641 19.216 203.521 18.936 202.513 18.376C201.521 17.816 200.737 17.024 200.161 16C199.601 14.96 199.321 13.76 199.321 12.4C199.321 11.056 199.609 9.872 200.185 8.848C200.777 7.808 201.577 7.016 202.585 6.472C203.593 5.912 204.721 5.632 205.969 5.632C207.217 5.632 208.345 5.912 209.353 6.472C210.361 7.016 211.153 7.8 211.729 8.824C212.321 9.848 212.617 11.04 212.617 12.4C212.617 13.76 212.313 14.96 211.705 16C211.113 17.024 210.305 17.816 209.281 18.376C208.257 18.936 207.121 19.216 205.873 19.216ZM205.873 17.296C206.657 17.296 207.393 17.112 208.081 16.744C208.769 16.376 209.321 15.824 209.737 15.088C210.169 14.352 210.385 13.456 210.385 12.4C210.385 11.344 210.177 10.448 209.761 9.712C209.345 8.976 208.801 8.432 208.129 8.08C207.457 7.712 206.729 7.528 205.945 7.528C205.145 7.528 204.409 7.712 203.737 8.08C203.081 8.432 202.553 8.976 202.153 9.712C201.753 10.448 201.553 11.344 201.553 12.4C201.553 13.472 201.745 14.376 202.129 15.112C202.529 15.848 203.057 16.4 203.713 16.768C204.369 17.12 205.089 17.296 205.873 17.296ZM217.673 7.984C218.057 7.232 218.601 6.648 219.305 6.232C220.025 5.816 220.897 5.608 221.921 5.608V7.864H221.345C218.897 7.864 217.673 9.192 217.673 11.848V19H215.489V5.848H217.673V7.984ZM235.496 19.216C234.488 19.216 233.584 19.048 232.784 18.712C231.984 18.36 231.352 17.88 230.888 17.272C230.424 16.648 230.168 15.936 230.12 15.136H232.376C232.44 15.792 232.744 16.328 233.288 16.744C233.848 17.16 234.576 17.368 235.472 17.368C236.304 17.368 236.96 17.184 237.44 16.816C237.92 16.448 238.16 15.984 238.16 15.424C238.16 14.848 237.904 14.424 237.392 14.152C236.88 13.864 236.088 13.584 235.016 13.312C234.04 13.056 233.24 12.8 232.616 12.544C232.008 12.272 231.48 11.88 231.032 11.368C230.6 10.84 230.384 10.152 230.384 9.304C230.384 8.632 230.584 8.016 230.984 7.456C231.384 6.896 231.952 6.456 232.688 6.136C233.424 5.8 234.264 5.632 235.208 5.632C236.664 5.632 237.84 6 238.736 6.736C239.632 7.472 240.112 8.48 240.176 9.76H237.992C237.944 9.072 237.664 8.52 237.152 8.104C236.656 7.688 235.984 7.48 235.136 7.48C234.352 7.48 233.728 7.648 233.264 7.984C232.8 8.32 232.568 8.76 232.568 9.304C232.568 9.736 232.704 10.096 232.976 10.384C233.264 10.656 233.616 10.88 234.032 11.056C234.464 11.216 235.056 11.4 235.808 11.608C236.752 11.864 237.52 12.12 238.112 12.376C238.704 12.616 239.208 12.984 239.624 13.48C240.056 13.976 240.28 14.624 240.296 15.424C240.296 16.144 240.096 16.792 239.696 17.368C239.296 17.944 238.728 18.4 237.992 18.736C237.272 19.056 236.44 19.216 235.496 19.216ZM244.507 3.712C244.091 3.712 243.739 3.568 243.451 3.28C243.163 2.992 243.019 2.64 243.019 2.224C243.019 1.808 243.163 1.456 243.451 1.168C243.739 0.879999 244.091 0.735999 244.507 0.735999C244.907 0.735999 245.243 0.879999 245.515 1.168C245.803 1.456 245.947 1.808 245.947 2.224C245.947 2.64 245.803 2.992 245.515 3.28C245.243 3.568 244.907 3.712 244.507 3.712ZM245.563 5.848V19H243.379V5.848H245.563ZM251.95 7.648V15.4C251.95 16.04 252.086 16.496 252.358 16.768C252.63 17.024 253.102 17.152 253.773 17.152H255.382V19H253.414C252.198 19 251.286 18.72 250.678 18.16C250.07 17.6 249.766 16.68 249.766 15.4V7.648H248.062V5.848H249.766V2.536H251.95V5.848H255.382V7.648H251.95ZM263.61 12.376C263.61 11.032 263.882 9.856 264.426 8.848C264.97 7.824 265.714 7.032 266.658 6.472C267.618 5.912 268.682 5.632 269.85 5.632C271.002 5.632 272.002 5.88 272.85 6.376C273.698 6.872 274.33 7.496 274.746 8.248V5.848H276.954V19H274.746V16.552C274.314 17.32 273.666 17.96 272.802 18.472C271.954 18.968 270.962 19.216 269.826 19.216C268.658 19.216 267.602 18.928 266.658 18.352C265.714 17.776 264.97 16.968 264.426 15.928C263.882 14.888 263.61 13.704 263.61 12.376ZM274.746 12.4C274.746 11.408 274.546 10.544 274.146 9.808C273.746 9.072 273.202 8.512 272.514 8.128C271.842 7.728 271.098 7.528 270.282 7.528C269.466 7.528 268.722 7.72 268.05 8.104C267.378 8.488 266.842 9.048 266.442 9.784C266.042 10.52 265.842 11.384 265.842 12.376C265.842 13.384 266.042 14.264 266.442 15.016C266.842 15.752 267.378 16.32 268.05 16.72C268.722 17.104 269.466 17.296 270.282 17.296C271.098 17.296 271.842 17.104 272.514 16.72C273.202 16.32 273.746 15.752 274.146 15.016C274.546 14.264 274.746 13.392 274.746 12.4ZM296.461 5.608C297.485 5.608 298.397 5.824 299.197 6.256C299.997 6.672 300.629 7.304 301.093 8.152C301.557 9 301.789 10.032 301.789 11.248V19H299.629V11.56C299.629 10.248 299.301 9.248 298.645 8.56C298.005 7.856 297.133 7.504 296.029 7.504C294.893 7.504 293.989 7.872 293.317 8.608C292.645 9.328 292.309 10.376 292.309 11.752V19H290.149V11.56C290.149 10.248 289.821 9.248 289.165 8.56C288.525 7.856 287.653 7.504 286.549 7.504C285.413 7.504 284.509 7.872 283.837 8.608C283.165 9.328 282.829 10.376 282.829 11.752V19H280.645V5.848H282.829V7.744C283.261 7.056 283.837 6.528 284.557 6.16C285.293 5.792 286.101 5.608 286.981 5.608C288.085 5.608 289.061 5.856 289.909 6.352C290.757 6.848 291.389 7.576 291.805 8.536C292.173 7.608 292.781 6.888 293.629 6.376C294.477 5.864 295.421 5.608 296.461 5.608ZM317.371 11.92C317.371 12.336 317.347 12.776 317.299 13.24H306.787C306.867 14.536 307.307 15.552 308.107 16.288C308.923 17.008 309.907 17.368 311.059 17.368C312.003 17.368 312.787 17.152 313.411 16.72C314.051 16.272 314.499 15.68 314.755 14.944H317.107C316.755 16.208 316.051 17.24 314.995 18.04C313.939 18.824 312.627 19.216 311.059 19.216C309.811 19.216 308.691 18.936 307.699 18.376C306.723 17.816 305.955 17.024 305.395 16C304.835 14.96 304.555 13.76 304.555 12.4C304.555 11.04 304.827 9.848 305.371 8.824C305.915 7.8 306.675 7.016 307.651 6.472C308.643 5.912 309.779 5.632 311.059 5.632C312.307 5.632 313.411 5.904 314.371 6.448C315.331 6.992 316.067 7.744 316.579 8.704C317.107 9.648 317.371 10.72 317.371 11.92ZM315.115 11.464C315.115 10.632 314.931 9.92 314.563 9.328C314.195 8.72 313.691 8.264 313.051 7.96C312.427 7.64 311.731 7.48 310.963 7.48C309.859 7.48 308.915 7.832 308.131 8.536C307.363 9.24 306.923 10.216 306.811 11.464H315.115ZM322.918 7.648V15.4C322.918 16.04 323.054 16.496 323.326 16.768C323.598 17.024 324.07 17.152 324.742 17.152H326.35V19H324.382C323.166 19 322.254 18.72 321.646 18.16C321.038 17.6 320.734 16.68 320.734 15.4V7.648H319.03V5.848H320.734V2.536H322.918V5.848H326.35V7.648H322.918ZM331.252 15.976L328.564 22.432H327.1L328.852 15.976H331.252ZM0.032 48.4C0.032 47.04 0.304 45.856 0.848 44.848C1.392 43.824 2.144 43.032 3.104 42.472C4.08 41.912 5.192 41.632 6.44 41.632C8.056 41.632 9.384 42.024 10.424 42.808C11.48 43.592 12.176 44.68 12.512 46.072H10.16C9.936 45.272 9.496 44.64 8.84 44.176C8.2 43.712 7.4 43.48 6.44 43.48C5.192 43.48 4.184 43.912 3.416 44.776C2.648 45.624 2.264 46.832 2.264 48.4C2.264 49.984 2.648 51.208 3.416 52.072C4.184 52.936 5.192 53.368 6.44 53.368C7.4 53.368 8.2 53.144 8.84 52.696C9.48 52.248 9.92 51.608 10.16 50.776H12.512C12.16 52.12 11.456 53.2 10.4 54.016C9.344 54.816 8.024 55.216 6.44 55.216C5.192 55.216 4.08 54.936 3.104 54.376C2.144 53.816 1.392 53.024 0.848 52C0.304 50.976 0.032 49.776 0.032 48.4ZM21.1621 55.216C19.9301 55.216 18.8101 54.936 17.8021 54.376C16.8101 53.816 16.0261 53.024 15.4501 52C14.8901 50.96 14.6101 49.76 14.6101 48.4C14.6101 47.056 14.8981 45.872 15.4741 44.848C16.0661 43.808 16.8661 43.016 17.8741 42.472C18.8821 41.912 20.0101 41.632 21.2581 41.632C22.5061 41.632 23.6341 41.912 24.6421 42.472C25.6501 43.016 26.4421 43.8 27.0181 44.824C27.6101 45.848 27.9061 47.04 27.9061 48.4C27.9061 49.76 27.6021 50.96 26.9941 52C26.4021 53.024 25.5941 53.816 24.5701 54.376C23.5461 54.936 22.4101 55.216 21.1621 55.216ZM21.1621 53.296C21.9461 53.296 22.6821 53.112 23.3701 52.744C24.0581 52.376 24.6101 51.824 25.0261 51.088C25.4581 50.352 25.6741 49.456 25.6741 48.4C25.6741 47.344 25.4661 46.448 25.0501 45.712C24.6341 44.976 24.0901 44.432 23.4181 44.08C22.7461 43.712 22.0181 43.528 21.2341 43.528C20.4341 43.528 19.6981 43.712 19.0261 44.08C18.3701 44.432 17.8421 44.976 17.4421 45.712C17.0421 46.448 16.8421 47.344 16.8421 48.4C16.8421 49.472 17.0341 50.376 17.4181 51.112C17.8181 51.848 18.3461 52.4 19.0021 52.768C19.6581 53.12 20.3781 53.296 21.1621 53.296ZM37.1857 41.608C38.7857 41.608 40.0817 42.096 41.0737 43.072C42.0657 44.032 42.5617 45.424 42.5617 47.248V55H40.4017V47.56C40.4017 46.248 40.0737 45.248 39.4177 44.56C38.7617 43.856 37.8657 43.504 36.7297 43.504C35.5777 43.504 34.6577 43.864 33.9697 44.584C33.2977 45.304 32.9617 46.352 32.9617 47.728V55H30.7777V41.848H32.9617V43.72C33.3937 43.048 33.9777 42.528 34.7137 42.16C35.4657 41.792 36.2897 41.608 37.1857 41.608ZM50.7853 55.216C49.7773 55.216 48.8733 55.048 48.0733 54.712C47.2733 54.36 46.6413 53.88 46.1773 53.272C45.7133 52.648 45.4573 51.936 45.4093 51.136H47.6653C47.7293 51.792 48.0333 52.328 48.5773 52.744C49.1373 53.16 49.8653 53.368 50.7613 53.368C51.5933 53.368 52.2493 53.184 52.7293 52.816C53.2093 52.448 53.4493 51.984 53.4493 51.424C53.4493 50.848 53.1933 50.424 52.6813 50.152C52.1693 49.864 51.3773 49.584 50.3053 49.312C49.3293 49.056 48.5293 48.8 47.9053 48.544C47.2973 48.272 46.7693 47.88 46.3213 47.368C45.8893 46.84 45.6733 46.152 45.6733 45.304C45.6733 44.632 45.8733 44.016 46.2733 43.456C46.6733 42.896 47.2413 42.456 47.9773 42.136C48.7133 41.8 49.5533 41.632 50.4973 41.632C51.9533 41.632 53.1293 42 54.0253 42.736C54.9213 43.472 55.4013 44.48 55.4653 45.76H53.2813C53.2333 45.072 52.9533 44.52 52.4413 44.104C51.9453 43.688 51.2733 43.48 50.4253 43.48C49.6413 43.48 49.0173 43.648 48.5533 43.984C48.0893 44.32 47.8573 44.76 47.8573 45.304C47.8573 45.736 47.9933 46.096 48.2653 46.384C48.5533 46.656 48.9053 46.88 49.3213 47.056C49.7533 47.216 50.3453 47.4 51.0973 47.608C52.0413 47.864 52.8093 48.12 53.4013 48.376C53.9933 48.616 54.4973 48.984 54.9133 49.48C55.3453 49.976 55.5693 50.624 55.5853 51.424C55.5853 52.144 55.3853 52.792 54.9853 53.368C54.5853 53.944 54.0173 54.4 53.2813 54.736C52.5613 55.056 51.7293 55.216 50.7853 55.216ZM70.6683 47.92C70.6683 48.336 70.6443 48.776 70.5963 49.24H60.0843C60.1643 50.536 60.6043 51.552 61.4043 52.288C62.2203 53.008 63.2043 53.368 64.3563 53.368C65.3003 53.368 66.0843 53.152 66.7083 52.72C67.3483 52.272 67.7963 51.68 68.0523 50.944H70.4043C70.0523 52.208 69.3483 53.24 68.2923 54.04C67.2363 54.824 65.9243 55.216 64.3563 55.216C63.1083 55.216 61.9883 54.936 60.9963 54.376C60.0203 53.816 59.2523 53.024 58.6923 52C58.1323 50.96 57.8523 49.76 57.8523 48.4C57.8523 47.04 58.1243 45.848 58.6683 44.824C59.2123 43.8 59.9723 43.016 60.9483 42.472C61.9403 41.912 63.0763 41.632 64.3563 41.632C65.6043 41.632 66.7083 41.904 67.6683 42.448C68.6283 42.992 69.3643 43.744 69.8763 44.704C70.4043 45.648 70.6683 46.72 70.6683 47.92ZM68.4123 47.464C68.4123 46.632 68.2283 45.92 67.8603 45.328C67.4923 44.72 66.9883 44.264 66.3483 43.96C65.7243 43.64 65.0283 43.48 64.2603 43.48C63.1563 43.48 62.2123 43.832 61.4283 44.536C60.6603 45.24 60.2203 46.216 60.1083 47.464H68.4123ZM72.7351 48.4C72.7351 47.04 73.0071 45.856 73.5511 44.848C74.0951 43.824 74.8471 43.032 75.8071 42.472C76.7831 41.912 77.8951 41.632 79.1431 41.632C80.7591 41.632 82.0871 42.024 83.1271 42.808C84.1831 43.592 84.8791 44.68 85.2151 46.072H82.8631C82.6391 45.272 82.1991 44.64 81.5431 44.176C80.9031 43.712 80.1031 43.48 79.1431 43.48C77.8951 43.48 76.8871 43.912 76.1191 44.776C75.3511 45.624 74.9671 46.832 74.9671 48.4C74.9671 49.984 75.3511 51.208 76.1191 52.072C76.8871 52.936 77.8951 53.368 79.1431 53.368C80.1031 53.368 80.9031 53.144 81.5431 52.696C82.1831 52.248 82.6231 51.608 82.8631 50.776H85.2151C84.8631 52.12 84.1591 53.2 83.1031 54.016C82.0471 54.816 80.7271 55.216 79.1431 55.216C77.8951 55.216 76.7831 54.936 75.8071 54.376C74.8471 53.816 74.0951 53.024 73.5511 52C73.0071 50.976 72.7351 49.776 72.7351 48.4ZM90.7933 43.648V51.4C90.7933 52.04 90.9293 52.496 91.2013 52.768C91.4733 53.024 91.9453 53.152 92.6172 53.152H94.2253V55H92.2573C91.0413 55 90.1293 54.72 89.5213 54.16C88.9133 53.6 88.6093 52.68 88.6093 51.4V43.648H86.9053V41.848H88.6093V38.536H90.7933V41.848H94.2253V43.648H90.7933ZM108.871 47.92C108.871 48.336 108.847 48.776 108.799 49.24H98.2874C98.3674 50.536 98.8074 51.552 99.6074 52.288C100.423 53.008 101.407 53.368 102.559 53.368C103.503 53.368 104.287 53.152 104.911 52.72C105.551 52.272 105.999 51.68 106.255 50.944H108.607C108.255 52.208 107.551 53.24 106.495 54.04C105.439 54.824 104.127 55.216 102.559 55.216C101.311 55.216 100.191 54.936 99.1994 54.376C98.2234 53.816 97.4554 53.024 96.8954 52C96.3354 50.96 96.0554 49.76 96.0554 48.4C96.0554 47.04 96.3274 45.848 96.8714 44.824C97.4154 43.8 98.1754 43.016 99.1514 42.472C100.143 41.912 101.279 41.632 102.559 41.632C103.807 41.632 104.911 41.904 105.871 42.448C106.831 42.992 107.567 43.744 108.079 44.704C108.607 45.648 108.871 46.72 108.871 47.92ZM106.615 47.464C106.615 46.632 106.431 45.92 106.063 45.328C105.695 44.72 105.191 44.264 104.551 43.96C103.927 43.64 103.231 43.48 102.463 43.48C101.359 43.48 100.415 43.832 99.6314 44.536C98.8634 45.24 98.4234 46.216 98.3114 47.464H106.615ZM114.418 43.648V51.4C114.418 52.04 114.554 52.496 114.826 52.768C115.098 53.024 115.57 53.152 116.242 53.152H117.85V55H115.882C114.666 55 113.754 54.72 113.146 54.16C112.538 53.6 112.234 52.68 112.234 51.4V43.648H110.53V41.848H112.234V38.536H114.418V41.848H117.85V43.648H114.418ZM132.16 41.848V55H129.976V53.056C129.56 53.728 128.976 54.256 128.224 54.64C127.488 55.008 126.672 55.192 125.776 55.192C124.752 55.192 123.832 54.984 123.016 54.568C122.2 54.136 121.552 53.496 121.072 52.648C120.608 51.8 120.376 50.768 120.376 49.552V41.848H122.536V49.264C122.536 50.56 122.864 51.56 123.52 52.264C124.176 52.952 125.072 53.296 126.208 53.296C127.376 53.296 128.296 52.936 128.968 52.216C129.64 51.496 129.976 50.448 129.976 49.072V41.848H132.16ZM138.032 43.984C138.416 43.232 138.96 42.648 139.664 42.232C140.384 41.816 141.256 41.608 142.28 41.608V43.864H141.704C139.256 43.864 138.032 45.192 138.032 47.848V55H135.848V41.848H138.032V43.984ZM150.384 48.376C150.384 47.032 150.656 45.856 151.2 44.848C151.744 43.824 152.488 43.032 153.432 42.472C154.392 41.912 155.456 41.632 156.624 41.632C157.776 41.632 158.776 41.88 159.624 42.376C160.472 42.872 161.104 43.496 161.52 44.248V41.848H163.728V55H161.52V52.552C161.088 53.32 160.44 53.96 159.576 54.472C158.728 54.968 157.736 55.216 156.6 55.216C155.432 55.216 154.376 54.928 153.432 54.352C152.488 53.776 151.744 52.968 151.2 51.928C150.656 50.888 150.384 49.704 150.384 48.376ZM161.52 48.4C161.52 47.408 161.32 46.544 160.92 45.808C160.52 45.072 159.976 44.512 159.288 44.128C158.616 43.728 157.872 43.528 157.056 43.528C156.24 43.528 155.496 43.72 154.824 44.104C154.152 44.488 153.616 45.048 153.216 45.784C152.816 46.52 152.616 47.384 152.616 48.376C152.616 49.384 152.816 50.264 153.216 51.016C153.616 51.752 154.152 52.32 154.824 52.72C155.496 53.104 156.24 53.296 157.056 53.296C157.872 53.296 158.616 53.104 159.288 52.72C159.976 52.32 160.52 51.752 160.92 51.016C161.32 50.264 161.52 49.392 161.52 48.4ZM166.602 48.376C166.602 47.032 166.874 45.856 167.418 44.848C167.962 43.824 168.706 43.032 169.65 42.472C170.61 41.912 171.682 41.632 172.866 41.632C173.89 41.632 174.842 41.872 175.722 42.352C176.602 42.816 177.274 43.432 177.738 44.2V37.24H179.946V55H177.738V52.528C177.306 53.312 176.666 53.96 175.818 54.472C174.97 54.968 173.978 55.216 172.842 55.216C171.674 55.216 170.61 54.928 169.65 54.352C168.706 53.776 167.962 52.968 167.418 51.928C166.874 50.888 166.602 49.704 166.602 48.376ZM177.738 48.4C177.738 47.408 177.538 46.544 177.138 45.808C176.738 45.072 176.194 44.512 175.506 44.128C174.834 43.728 174.09 43.528 173.274 43.528C172.458 43.528 171.714 43.72 171.042 44.104C170.37 44.488 169.834 45.048 169.434 45.784C169.034 46.52 168.834 47.384 168.834 48.376C168.834 49.384 169.034 50.264 169.434 51.016C169.834 51.752 170.37 52.32 171.042 52.72C171.714 53.104 172.458 53.296 173.274 53.296C174.09 53.296 174.834 53.104 175.506 52.72C176.194 52.32 176.738 51.752 177.138 51.016C177.538 50.264 177.738 49.392 177.738 48.4ZM184.765 39.712C184.349 39.712 183.997 39.568 183.709 39.28C183.421 38.992 183.277 38.64 183.277 38.224C183.277 37.808 183.421 37.456 183.709 37.168C183.997 36.88 184.349 36.736 184.765 36.736C185.165 36.736 185.501 36.88 185.773 37.168C186.061 37.456 186.205 37.808 186.205 38.224C186.205 38.64 186.061 38.992 185.773 39.28C185.501 39.568 185.165 39.712 184.765 39.712ZM185.821 41.848V55H183.637V41.848H185.821ZM191.727 44.272C192.159 43.52 192.799 42.896 193.647 42.4C194.511 41.888 195.511 41.632 196.647 41.632C197.815 41.632 198.871 41.912 199.815 42.472C200.775 43.032 201.527 43.824 202.071 44.848C202.615 45.856 202.887 47.032 202.887 48.376C202.887 49.704 202.615 50.888 202.071 51.928C201.527 52.968 200.775 53.776 199.815 54.352C198.871 54.928 197.815 55.216 196.647 55.216C195.527 55.216 194.535 54.968 193.671 54.472C192.823 53.96 192.175 53.328 191.727 52.576V61.24H189.543V41.848H191.727V44.272ZM200.655 48.376C200.655 47.384 200.455 46.52 200.055 45.784C199.655 45.048 199.111 44.488 198.423 44.104C197.751 43.72 197.007 43.528 196.191 43.528C195.391 43.528 194.647 43.728 193.959 44.128C193.287 44.512 192.743 45.08 192.327 45.832C191.927 46.568 191.727 47.424 191.727 48.4C191.727 49.392 191.927 50.264 192.327 51.016C192.743 51.752 193.287 52.32 193.959 52.72C194.647 53.104 195.391 53.296 196.191 53.296C197.007 53.296 197.751 53.104 198.423 52.72C199.111 52.32 199.655 51.752 200.055 51.016C200.455 50.264 200.655 49.384 200.655 48.376ZM206.89 39.712C206.474 39.712 206.122 39.568 205.834 39.28C205.546 38.992 205.402 38.64 205.402 38.224C205.402 37.808 205.546 37.456 205.834 37.168C206.122 36.88 206.474 36.736 206.89 36.736C207.29 36.736 207.626 36.88 207.898 37.168C208.186 37.456 208.33 37.808 208.33 38.224C208.33 38.64 208.186 38.992 207.898 39.28C207.626 39.568 207.29 39.712 206.89 39.712ZM207.946 41.848V55H205.762V41.848H207.946ZM216.324 55.216C215.316 55.216 214.412 55.048 213.612 54.712C212.812 54.36 212.18 53.88 211.716 53.272C211.252 52.648 210.996 51.936 210.948 51.136H213.204C213.268 51.792 213.572 52.328 214.116 52.744C214.676 53.16 215.404 53.368 216.3 53.368C217.132 53.368 217.788 53.184 218.268 52.816C218.748 52.448 218.988 51.984 218.988 51.424C218.988 50.848 218.732 50.424 218.22 50.152C217.708 49.864 216.916 49.584 215.844 49.312C214.868 49.056 214.068 48.8 213.444 48.544C212.836 48.272 212.308 47.88 211.86 47.368C211.428 46.84 211.212 46.152 211.212 45.304C211.212 44.632 211.412 44.016 211.812 43.456C212.212 42.896 212.78 42.456 213.516 42.136C214.252 41.8 215.092 41.632 216.036 41.632C217.492 41.632 218.668 42 219.564 42.736C220.46 43.472 220.94 44.48 221.004 45.76H218.82C218.772 45.072 218.492 44.52 217.98 44.104C217.484 43.688 216.812 43.48 215.964 43.48C215.18 43.48 214.556 43.648 214.092 43.984C213.628 44.32 213.396 44.76 213.396 45.304C213.396 45.736 213.532 46.096 213.804 46.384C214.092 46.656 214.444 46.88 214.86 47.056C215.292 47.216 215.884 47.4 216.636 47.608C217.58 47.864 218.348 48.12 218.94 48.376C219.532 48.616 220.036 48.984 220.452 49.48C220.884 49.976 221.108 50.624 221.124 51.424C221.124 52.144 220.924 52.792 220.524 53.368C220.124 53.944 219.556 54.4 218.82 54.736C218.1 55.056 217.268 55.216 216.324 55.216ZM223.391 48.4C223.391 47.04 223.663 45.856 224.207 44.848C224.751 43.824 225.503 43.032 226.463 42.472C227.439 41.912 228.551 41.632 229.799 41.632C231.415 41.632 232.743 42.024 233.783 42.808C234.839 43.592 235.535 44.68 235.871 46.072H233.519C233.295 45.272 232.855 44.64 232.199 44.176C231.559 43.712 230.759 43.48 229.799 43.48C228.551 43.48 227.543 43.912 226.775 44.776C226.007 45.624 225.623 46.832 225.623 48.4C225.623 49.984 226.007 51.208 226.775 52.072C227.543 52.936 228.551 53.368 229.799 53.368C230.759 53.368 231.559 53.144 232.199 52.696C232.839 52.248 233.279 51.608 233.519 50.776H235.871C235.519 52.12 234.815 53.2 233.759 54.016C232.703 54.816 231.383 55.216 229.799 55.216C228.551 55.216 227.439 54.936 226.463 54.376C225.503 53.816 224.751 53.024 224.207 52C223.663 50.976 223.391 49.776 223.391 48.4ZM239.914 39.712C239.498 39.712 239.146 39.568 238.858 39.28C238.57 38.992 238.426 38.64 238.426 38.224C238.426 37.808 238.57 37.456 238.858 37.168C239.146 36.88 239.498 36.736 239.914 36.736C240.314 36.736 240.65 36.88 240.922 37.168C241.21 37.456 241.354 37.808 241.354 38.224C241.354 38.64 241.21 38.992 240.922 39.28C240.65 39.568 240.314 39.712 239.914 39.712ZM240.97 41.848V55H238.786V41.848H240.97ZM251.1 41.608C252.7 41.608 253.996 42.096 254.988 43.072C255.98 44.032 256.476 45.424 256.476 47.248V55H254.316V47.56C254.316 46.248 253.988 45.248 253.332 44.56C252.676 43.856 251.78 43.504 250.644 43.504C249.492 43.504 248.572 43.864 247.884 44.584C247.212 45.304 246.876 46.352 246.876 47.728V55H244.692V41.848H246.876V43.72C247.308 43.048 247.892 42.528 248.628 42.16C249.38 41.792 250.204 41.608 251.1 41.608ZM265.467 41.632C266.603 41.632 267.595 41.88 268.443 42.376C269.307 42.872 269.947 43.496 270.363 44.248V41.848H272.571V55.288C272.571 56.488 272.315 57.552 271.803 58.48C271.291 59.424 270.555 60.16 269.595 60.688C268.651 61.216 267.547 61.48 266.283 61.48C264.555 61.48 263.115 61.072 261.963 60.256C260.811 59.44 260.131 58.328 259.923 56.92H262.083C262.323 57.72 262.819 58.36 263.571 58.84C264.323 59.336 265.227 59.584 266.283 59.584C267.483 59.584 268.459 59.208 269.211 58.456C269.979 57.704 270.363 56.648 270.363 55.288V52.528C269.931 53.296 269.291 53.936 268.443 54.448C267.595 54.96 266.603 55.216 265.467 55.216C264.299 55.216 263.235 54.928 262.275 54.352C261.331 53.776 260.587 52.968 260.043 51.928C259.499 50.888 259.227 49.704 259.227 48.376C259.227 47.032 259.499 45.856 260.043 44.848C260.587 43.824 261.331 43.032 262.275 42.472C263.235 41.912 264.299 41.632 265.467 41.632ZM270.363 48.4C270.363 47.408 270.163 46.544 269.763 45.808C269.363 45.072 268.819 44.512 268.131 44.128C267.459 43.728 266.715 43.528 265.899 43.528C265.083 43.528 264.339 43.72 263.667 44.104C262.995 44.488 262.459 45.048 262.059 45.784C261.659 46.52 261.459 47.384 261.459 48.376C261.459 49.384 261.659 50.264 262.059 51.016C262.459 51.752 262.995 52.32 263.667 52.72C264.339 53.104 265.083 53.296 265.899 53.296C266.715 53.296 267.459 53.104 268.131 52.72C268.819 52.32 269.363 51.752 269.763 51.016C270.163 50.264 270.363 49.392 270.363 48.4ZM294.661 47.92C294.661 48.336 294.637 48.776 294.589 49.24H284.077C284.157 50.536 284.597 51.552 285.397 52.288C286.213 53.008 287.197 53.368 288.349 53.368C289.293 53.368 290.077 53.152 290.701 52.72C291.341 52.272 291.789 51.68 292.045 50.944H294.397C294.045 52.208 293.341 53.24 292.285 54.04C291.229 54.824 289.917 55.216 288.349 55.216C287.101 55.216 285.981 54.936 284.989 54.376C284.013 53.816 283.245 53.024 282.685 52C282.125 50.96 281.845 49.76 281.845 48.4C281.845 47.04 282.117 45.848 282.661 44.824C283.205 43.8 283.965 43.016 284.941 42.472C285.933 41.912 287.069 41.632 288.349 41.632C289.597 41.632 290.701 41.904 291.661 42.448C292.621 42.992 293.357 43.744 293.869 44.704C294.397 45.648 294.661 46.72 294.661 47.92ZM292.405 47.464C292.405 46.632 292.221 45.92 291.853 45.328C291.485 44.72 290.981 44.264 290.341 43.96C289.717 43.64 289.021 43.48 288.253 43.48C287.149 43.48 286.205 43.832 285.421 44.536C284.653 45.24 284.213 46.216 284.101 47.464H292.405ZM299.727 37.24V55H297.543V37.24H299.727ZM304.578 39.712C304.162 39.712 303.81 39.568 303.522 39.28C303.234 38.992 303.09 38.64 303.09 38.224C303.09 37.808 303.234 37.456 303.522 37.168C303.81 36.88 304.162 36.736 304.578 36.736C304.978 36.736 305.314 36.88 305.586 37.168C305.874 37.456 306.018 37.808 306.018 38.224C306.018 38.64 305.874 38.992 305.586 39.28C305.314 39.568 304.978 39.712 304.578 39.712ZM305.634 41.848V55H303.45V41.848H305.634ZM312.02 43.648V51.4C312.02 52.04 312.156 52.496 312.428 52.768C312.7 53.024 313.172 53.152 313.844 53.152H315.452V55H313.484C312.268 55 311.356 54.72 310.748 54.16C310.14 53.6 309.836 52.68 309.836 51.4V43.648H308.132V41.848H309.836V38.536H312.02V41.848H315.452V43.648H312.02ZM318.794 55.144C318.378 55.144 318.026 55 317.738 54.712C317.45 54.424 317.306 54.072 317.306 53.656C317.306 53.24 317.45 52.888 317.738 52.6C318.026 52.312 318.378 52.168 318.794 52.168C319.194 52.168 319.53 52.312 319.802 52.6C320.09 52.888 320.234 53.24 320.234 53.656C320.234 54.072 320.09 54.424 319.802 54.712C319.53 55 319.194 55.144 318.794 55.144ZM338.992 38.272V40.048H331.72V45.688H337.624V47.464H331.72V55H329.536V38.272H338.992ZM340.813 48.376C340.813 47.032 341.085 45.856 341.629 44.848C342.173 43.824 342.917 43.032 343.861 42.472C344.821 41.912 345.885 41.632 347.053 41.632C348.205 41.632 349.205 41.88 350.053 42.376C350.901 42.872 351.533 43.496 351.949 44.248V41.848H354.157V55H351.949V52.552C351.517 53.32 350.869 53.96 350.005 54.472C349.157 54.968 348.165 55.216 347.029 55.216C345.861 55.216 344.805 54.928 343.861 54.352C342.917 53.776 342.173 52.968 341.629 51.928C341.085 50.888 340.813 49.704 340.813 48.376ZM351.949 48.4C351.949 47.408 351.749 46.544 351.349 45.808C350.949 45.072 350.405 44.512 349.717 44.128C349.045 43.728 348.301 43.528 347.485 43.528C346.669 43.528 345.925 43.72 345.253 44.104C344.581 44.488 344.045 45.048 343.645 45.784C343.245 46.52 343.045 47.384 343.045 48.376C343.045 49.384 343.245 50.264 343.645 51.016C344.045 51.752 344.581 52.32 345.253 52.72C345.925 53.104 346.669 53.296 347.485 53.296C348.301 53.296 349.045 53.104 349.717 52.72C350.405 52.32 350.949 51.752 351.349 51.016C351.749 50.264 351.949 49.392 351.949 48.4ZM369.512 41.848V55H367.328V53.056C366.912 53.728 366.328 54.256 365.576 54.64C364.84 55.008 364.024 55.192 363.128 55.192C362.104 55.192 361.184 54.984 360.368 54.568C359.552 54.136 358.904 53.496 358.424 52.648C357.96 51.8 357.728 50.768 357.728 49.552V41.848H359.888V49.264C359.888 50.56 360.216 51.56 360.872 52.264C361.528 52.952 362.424 53.296 363.56 53.296C364.728 53.296 365.648 52.936 366.32 52.216C366.992 51.496 367.328 50.448 367.328 49.072V41.848H369.512ZM372.384 48.4C372.384 47.04 372.656 45.856 373.2 44.848C373.744 43.824 374.496 43.032 375.456 42.472C376.432 41.912 377.544 41.632 378.792 41.632C380.408 41.632 381.736 42.024 382.776 42.808C383.832 43.592 384.528 44.68 384.864 46.072H382.512C382.288 45.272 381.848 44.64 381.192 44.176C380.552 43.712 379.752 43.48 378.792 43.48C377.544 43.48 376.536 43.912 375.768 44.776C375 45.624 374.616 46.832 374.616 48.4C374.616 49.984 375 51.208 375.768 52.072C376.536 52.936 377.544 53.368 378.792 53.368C379.752 53.368 380.552 53.144 381.192 52.696C381.832 52.248 382.272 51.608 382.512 50.776H384.864C384.512 52.12 383.808 53.2 382.752 54.016C381.696 54.816 380.376 55.216 378.792 55.216C377.544 55.216 376.432 54.936 375.456 54.376C374.496 53.816 373.744 53.024 373.2 52C372.656 50.976 372.384 49.776 372.384 48.4ZM388.906 39.712C388.49 39.712 388.138 39.568 387.85 39.28C387.562 38.992 387.418 38.64 387.418 38.224C387.418 37.808 387.562 37.456 387.85 37.168C388.138 36.88 388.49 36.736 388.906 36.736C389.306 36.736 389.642 36.88 389.914 37.168C390.202 37.456 390.346 37.808 390.346 38.224C390.346 38.64 390.202 38.992 389.914 39.28C389.642 39.568 389.306 39.712 388.906 39.712ZM389.962 41.848V55H387.778V41.848H389.962ZM395.868 44.296C396.316 43.512 396.972 42.872 397.836 42.376C398.7 41.88 399.684 41.632 400.788 41.632C401.972 41.632 403.036 41.912 403.98 42.472C404.924 43.032 405.668 43.824 406.212 44.848C406.756 45.856 407.028 47.032 407.028 48.376C407.028 49.704 406.756 50.888 406.212 51.928C405.668 52.968 404.916 53.776 403.956 54.352C403.012 54.928 401.956 55.216 400.788 55.216C399.652 55.216 398.652 54.968 397.788 54.472C396.94 53.976 396.3 53.344 395.868 52.576V55H393.684V37.24H395.868V44.296ZM404.796 48.376C404.796 47.384 404.596 46.52 404.196 45.784C403.796 45.048 403.252 44.488 402.564 44.104C401.892 43.72 401.148 43.528 400.332 43.528C399.532 43.528 398.788 43.728 398.1 44.128C397.428 44.512 396.884 45.08 396.468 45.832C396.068 46.568 395.868 47.424 395.868 48.4C395.868 49.392 396.068 50.264 396.468 51.016C396.884 51.752 397.428 52.32 398.1 52.72C398.788 53.104 399.532 53.296 400.332 53.296C401.148 53.296 401.892 53.104 402.564 52.72C403.252 52.32 403.796 51.752 404.196 51.016C404.596 50.264 404.796 49.384 404.796 48.376ZM421.567 41.848V55H419.383V53.056C418.967 53.728 418.383 54.256 417.631 54.64C416.895 55.008 416.079 55.192 415.183 55.192C414.159 55.192 413.239 54.984 412.423 54.568C411.607 54.136 410.959 53.496 410.479 52.648C410.015 51.8 409.783 50.768 409.783 49.552V41.848H411.943V49.264C411.943 50.56 412.271 51.56 412.927 52.264C413.583 52.952 414.479 53.296 415.615 53.296C416.783 53.296 417.703 52.936 418.375 52.216C419.047 51.496 419.383 50.448 419.383 49.072V41.848H421.567ZM429.91 55.216C428.902 55.216 427.998 55.048 427.198 54.712C426.398 54.36 425.766 53.88 425.302 53.272C424.838 52.648 424.582 51.936 424.534 51.136H426.79C426.854 51.792 427.158 52.328 427.702 52.744C428.262 53.16 428.99 53.368 429.886 53.368C430.718 53.368 431.374 53.184 431.854 52.816C432.334 52.448 432.574 51.984 432.574 51.424C432.574 50.848 432.318 50.424 431.806 50.152C431.294 49.864 430.502 49.584 429.43 49.312C428.454 49.056 427.654 48.8 427.03 48.544C426.422 48.272 425.894 47.88 425.446 47.368C425.014 46.84 424.798 46.152 424.798 45.304C424.798 44.632 424.998 44.016 425.398 43.456C425.798 42.896 426.366 42.456 427.102 42.136C427.838 41.8 428.678 41.632 429.622 41.632C431.078 41.632 432.254 42 433.15 42.736C434.046 43.472 434.526 44.48 434.59 45.76H432.406C432.358 45.072 432.078 44.52 431.566 44.104C431.07 43.688 430.398 43.48 429.55 43.48C428.766 43.48 428.142 43.648 427.678 43.984C427.214 44.32 426.982 44.76 426.982 45.304C426.982 45.736 427.118 46.096 427.39 46.384C427.678 46.656 428.03 46.88 428.446 47.056C428.878 47.216 429.47 47.4 430.222 47.608C431.166 47.864 431.934 48.12 432.526 48.376C433.118 48.616 433.622 48.984 434.038 49.48C434.47 49.976 434.694 50.624 434.71 51.424C434.71 52.144 434.51 52.792 434.11 53.368C433.71 53.944 433.142 54.4 432.406 54.736C431.686 55.056 430.854 55.216 429.91 55.216ZM1.976 75.712C1.56 75.712 1.208 75.568 0.92 75.28C0.632 74.992 0.488 74.64 0.488 74.224C0.488 73.808 0.632 73.456 0.92 73.168C1.208 72.88 1.56 72.736 1.976 72.736C2.376 72.736 2.712 72.88 2.984 73.168C3.272 73.456 3.416 73.808 3.416 74.224C3.416 74.64 3.272 74.992 2.984 75.28C2.712 75.568 2.376 75.712 1.976 75.712ZM3.032 77.848V91H0.848V77.848H3.032ZM13.1623 77.608C14.7623 77.608 16.0583 78.096 17.0503 79.072C18.0423 80.032 18.5383 81.424 18.5383 83.248V91H16.3783V83.56C16.3783 82.248 16.0503 81.248 15.3943 80.56C14.7383 79.856 13.8423 79.504 12.7063 79.504C11.5543 79.504 10.6343 79.864 9.94625 80.584C9.27425 81.304 8.93825 82.352 8.93825 83.728V91H6.75425V77.848H8.93825V79.72C9.37025 79.048 9.95425 78.528 10.6903 78.16C11.4423 77.792 12.2663 77.608 13.1623 77.608ZM30.6883 73.24V91H28.5043V73.24H30.6883ZM35.5385 75.712C35.1225 75.712 34.7705 75.568 34.4825 75.28C34.1945 74.992 34.0505 74.64 34.0505 74.224C34.0505 73.808 34.1945 73.456 34.4825 73.168C34.7705 72.88 35.1225 72.736 35.5385 72.736C35.9385 72.736 36.2745 72.88 36.5465 73.168C36.8345 73.456 36.9785 73.808 36.9785 74.224C36.9785 74.64 36.8345 74.992 36.5465 75.28C36.2745 75.568 35.9385 75.712 35.5385 75.712ZM36.5945 77.848V91H34.4105V77.848H36.5945ZM42.5008 80.296C42.9488 79.512 43.6048 78.872 44.4688 78.376C45.3328 77.88 46.3168 77.632 47.4208 77.632C48.6048 77.632 49.6688 77.912 50.6128 78.472C51.5568 79.032 52.3008 79.824 52.8448 80.848C53.3888 81.856 53.6608 83.032 53.6608 84.376C53.6608 85.704 53.3888 86.888 52.8448 87.928C52.3008 88.968 51.5487 89.776 50.5887 90.352C49.6448 90.928 48.5888 91.216 47.4208 91.216C46.2848 91.216 45.2848 90.968 44.4208 90.472C43.5728 89.976 42.9328 89.344 42.5008 88.576V91H40.3168V73.24H42.5008V80.296ZM51.4288 84.376C51.4288 83.384 51.2288 82.52 50.8288 81.784C50.4288 81.048 49.8848 80.488 49.1968 80.104C48.5248 79.72 47.7808 79.528 46.9648 79.528C46.1648 79.528 45.4208 79.728 44.7328 80.128C44.0608 80.512 43.5168 81.08 43.1008 81.832C42.7008 82.568 42.5008 83.424 42.5008 84.4C42.5008 85.392 42.7008 86.264 43.1008 87.016C43.5168 87.752 44.0608 88.32 44.7328 88.72C45.4208 89.104 46.1648 89.296 46.9648 89.296C47.7808 89.296 48.5248 89.104 49.1968 88.72C49.8848 88.32 50.4288 87.752 50.8288 87.016C51.2288 86.264 51.4288 85.384 51.4288 84.376ZM68.5355 83.92C68.5355 84.336 68.5115 84.776 68.4635 85.24H57.9515C58.0315 86.536 58.4715 87.552 59.2715 88.288C60.0875 89.008 61.0715 89.368 62.2235 89.368C63.1675 89.368 63.9515 89.152 64.5755 88.72C65.2155 88.272 65.6635 87.68 65.9195 86.944H68.2715C67.9195 88.208 67.2155 89.24 66.1595 90.04C65.1035 90.824 63.7915 91.216 62.2235 91.216C60.9755 91.216 59.8555 90.936 58.8635 90.376C57.8875 89.816 57.1195 89.024 56.5595 88C55.9995 86.96 55.7195 85.76 55.7195 84.4C55.7195 83.04 55.9915 81.848 56.5355 80.824C57.0795 79.8 57.8395 79.016 58.8155 78.472C59.8075 77.912 60.9435 77.632 62.2235 77.632C63.4715 77.632 64.5755 77.904 65.5355 78.448C66.4955 78.992 67.2315 79.744 67.7435 80.704C68.2715 81.648 68.5355 82.72 68.5355 83.92ZM66.2795 83.464C66.2795 82.632 66.0955 81.92 65.7275 81.328C65.3595 80.72 64.8555 80.264 64.2155 79.96C63.5915 79.64 62.8955 79.48 62.1275 79.48C61.0235 79.48 60.0795 79.832 59.2955 80.536C58.5275 81.24 58.0875 82.216 57.9755 83.464H66.2795ZM73.6023 79.984C73.9863 79.232 74.5303 78.648 75.2343 78.232C75.9543 77.816 76.8263 77.608 77.8503 77.608V79.864H77.2743C74.8263 79.864 73.6023 81.192 73.6023 83.848V91H71.4183V77.848H73.6023V79.984ZM86.1074 91.216C84.8754 91.216 83.7554 90.936 82.7474 90.376C81.7554 89.816 80.9714 89.024 80.3954 88C79.8354 86.96 79.5554 85.76 79.5554 84.4C79.5554 83.056 79.8434 81.872 80.4194 80.848C81.0114 79.808 81.8114 79.016 82.8194 78.472C83.8274 77.912 84.9554 77.632 86.2034 77.632C87.4514 77.632 88.5794 77.912 89.5874 78.472C90.5954 79.016 91.3874 79.8 91.9634 80.824C92.5554 81.848 92.8514 83.04 92.8514 84.4C92.8514 85.76 92.5474 86.96 91.9394 88C91.3474 89.024 90.5394 89.816 89.5154 90.376C88.4914 90.936 87.3554 91.216 86.1074 91.216ZM86.1074 89.296C86.8914 89.296 87.6274 89.112 88.3154 88.744C89.0034 88.376 89.5554 87.824 89.9714 87.088C90.4034 86.352 90.6194 85.456 90.6194 84.4C90.6194 83.344 90.4114 82.448 89.9954 81.712C89.5794 80.976 89.0354 80.432 88.3634 80.08C87.6914 79.712 86.9634 79.528 86.1794 79.528C85.3794 79.528 84.6434 79.712 83.9714 80.08C83.3154 80.432 82.7874 80.976 82.3874 81.712C81.9874 82.448 81.7874 83.344 81.7874 84.4C81.7874 85.472 81.9794 86.376 82.3634 87.112C82.7634 87.848 83.2914 88.4 83.9474 88.768C84.6034 89.12 85.3234 89.296 86.1074 89.296ZM104.305 79.984C104.689 79.232 105.233 78.648 105.937 78.232C106.657 77.816 107.529 77.608 108.553 77.608V79.864H107.977C105.529 79.864 104.305 81.192 104.305 83.848V91H102.121V77.848H104.305V79.984ZM112.203 75.712C111.787 75.712 111.435 75.568 111.147 75.28C110.859 74.992 110.715 74.64 110.715 74.224C110.715 73.808 110.859 73.456 111.147 73.168C111.435 72.88 111.787 72.736 112.203 72.736C112.603 72.736 112.939 72.88 113.211 73.168C113.499 73.456 113.643 73.808 113.643 74.224C113.643 74.64 113.499 74.992 113.211 75.28C112.939 75.568 112.603 75.712 112.203 75.712ZM113.259 77.848V91H111.075V77.848H113.259ZM121.637 91.216C120.629 91.216 119.725 91.048 118.925 90.712C118.125 90.36 117.493 89.88 117.029 89.272C116.565 88.648 116.309 87.936 116.261 87.136H118.517C118.581 87.792 118.885 88.328 119.429 88.744C119.989 89.16 120.717 89.368 121.613 89.368C122.445 89.368 123.101 89.184 123.581 88.816C124.061 88.448 124.301 87.984 124.301 87.424C124.301 86.848 124.045 86.424 123.533 86.152C123.021 85.864 122.229 85.584 121.157 85.312C120.181 85.056 119.381 84.8 118.757 84.544C118.149 84.272 117.621 83.88 117.173 83.368C116.741 82.84 116.525 82.152 116.525 81.304C116.525 80.632 116.725 80.016 117.125 79.456C117.525 78.896 118.093 78.456 118.829 78.136C119.565 77.8 120.405 77.632 121.349 77.632C122.805 77.632 123.981 78 124.877 78.736C125.773 79.472 126.253 80.48 126.317 81.76H124.133C124.085 81.072 123.805 80.52 123.293 80.104C122.797 79.688 122.125 79.48 121.277 79.48C120.493 79.48 119.869 79.648 119.405 79.984C118.941 80.32 118.709 80.76 118.709 81.304C118.709 81.736 118.845 82.096 119.117 82.384C119.405 82.656 119.757 82.88 120.173 83.056C120.605 83.216 121.197 83.4 121.949 83.608C122.893 83.864 123.661 84.12 124.253 84.376C124.845 84.616 125.349 84.984 125.765 85.48C126.197 85.976 126.421 86.624 126.437 87.424C126.437 88.144 126.237 88.792 125.837 89.368C125.437 89.944 124.869 90.4 124.133 90.736C123.413 91.056 122.581 91.216 121.637 91.216ZM141.184 77.848V91H139V89.056C138.584 89.728 138 90.256 137.248 90.64C136.512 91.008 135.696 91.192 134.8 91.192C133.776 91.192 132.856 90.984 132.04 90.568C131.224 90.136 130.576 89.496 130.096 88.648C129.632 87.8 129.4 86.768 129.4 85.552V77.848H131.56V85.264C131.56 86.56 131.888 87.56 132.544 88.264C133.2 88.952 134.096 89.296 135.232 89.296C136.4 89.296 137.32 88.936 137.992 88.216C138.664 87.496 139 86.448 139 85.072V77.848H141.184ZM149.527 91.216C148.519 91.216 147.615 91.048 146.815 90.712C146.015 90.36 145.383 89.88 144.919 89.272C144.455 88.648 144.199 87.936 144.151 87.136H146.407C146.471 87.792 146.775 88.328 147.319 88.744C147.879 89.16 148.607 89.368 149.503 89.368C150.335 89.368 150.991 89.184 151.471 88.816C151.951 88.448 152.191 87.984 152.191 87.424C152.191 86.848 151.935 86.424 151.423 86.152C150.911 85.864 150.119 85.584 149.047 85.312C148.071 85.056 147.271 84.8 146.647 84.544C146.039 84.272 145.511 83.88 145.063 83.368C144.631 82.84 144.415 82.152 144.415 81.304C144.415 80.632 144.615 80.016 145.015 79.456C145.415 78.896 145.983 78.456 146.719 78.136C147.455 77.8 148.295 77.632 149.239 77.632C150.695 77.632 151.871 78 152.767 78.736C153.663 79.472 154.143 80.48 154.207 81.76H152.023C151.975 81.072 151.695 80.52 151.183 80.104C150.687 79.688 150.015 79.48 149.167 79.48C148.383 79.48 147.759 79.648 147.295 79.984C146.831 80.32 146.599 80.76 146.599 81.304C146.599 81.736 146.735 82.096 147.007 82.384C147.295 82.656 147.647 82.88 148.063 83.056C148.495 83.216 149.087 83.4 149.839 83.608C150.783 83.864 151.551 84.12 152.143 84.376C152.735 84.616 153.239 84.984 153.655 85.48C154.087 85.976 154.311 86.624 154.327 87.424C154.327 88.144 154.127 88.792 153.727 89.368C153.327 89.944 152.759 90.4 152.023 90.736C151.303 91.056 150.471 91.216 149.527 91.216ZM168.465 91.216C167.457 91.216 166.553 91.048 165.753 90.712C164.953 90.36 164.321 89.88 163.857 89.272C163.393 88.648 163.137 87.936 163.089 87.136H165.345C165.409 87.792 165.713 88.328 166.257 88.744C166.817 89.16 167.545 89.368 168.441 89.368C169.273 89.368 169.929 89.184 170.409 88.816C170.889 88.448 171.129 87.984 171.129 87.424C171.129 86.848 170.873 86.424 170.361 86.152C169.849 85.864 169.057 85.584 167.985 85.312C167.009 85.056 166.209 84.8 165.585 84.544C164.977 84.272 164.449 83.88 164.001 83.368C163.569 82.84 163.353 82.152 163.353 81.304C163.353 80.632 163.553 80.016 163.953 79.456C164.353 78.896 164.921 78.456 165.657 78.136C166.393 77.8 167.233 77.632 168.177 77.632C169.633 77.632 170.809 78 171.705 78.736C172.601 79.472 173.081 80.48 173.145 81.76H170.961C170.913 81.072 170.633 80.52 170.121 80.104C169.625 79.688 168.953 79.48 168.105 79.48C167.321 79.48 166.697 79.648 166.233 79.984C165.769 80.32 165.537 80.76 165.537 81.304C165.537 81.736 165.673 82.096 165.945 82.384C166.233 82.656 166.585 82.88 167.001 83.056C167.433 83.216 168.025 83.4 168.777 83.608C169.721 83.864 170.489 84.12 171.081 84.376C171.673 84.616 172.177 84.984 172.593 85.48C173.025 85.976 173.249 86.624 173.265 87.424C173.265 88.144 173.065 88.792 172.665 89.368C172.265 89.944 171.697 90.4 170.961 90.736C170.241 91.056 169.409 91.216 168.465 91.216ZM188.348 83.92C188.348 84.336 188.324 84.776 188.276 85.24H177.764C177.844 86.536 178.284 87.552 179.084 88.288C179.9 89.008 180.884 89.368 182.036 89.368C182.98 89.368 183.764 89.152 184.388 88.72C185.028 88.272 185.476 87.68 185.732 86.944H188.084C187.732 88.208 187.028 89.24 185.972 90.04C184.916 90.824 183.604 91.216 182.036 91.216C180.788 91.216 179.668 90.936 178.676 90.376C177.7 89.816 176.932 89.024 176.372 88C175.812 86.96 175.532 85.76 175.532 84.4C175.532 83.04 175.804 81.848 176.348 80.824C176.892 79.8 177.652 79.016 178.628 78.472C179.62 77.912 180.756 77.632 182.036 77.632C183.284 77.632 184.388 77.904 185.348 78.448C186.308 78.992 187.044 79.744 187.556 80.704C188.084 81.648 188.348 82.72 188.348 83.92ZM186.092 83.464C186.092 82.632 185.908 81.92 185.54 81.328C185.172 80.72 184.668 80.264 184.028 79.96C183.404 79.64 182.708 79.48 181.94 79.48C180.836 79.48 179.892 79.832 179.108 80.536C178.34 81.24 177.9 82.216 177.788 83.464H186.092ZM207.047 77.608C208.071 77.608 208.983 77.824 209.783 78.256C210.583 78.672 211.215 79.304 211.679 80.152C212.143 81 212.375 82.032 212.375 83.248V91H210.215V83.56C210.215 82.248 209.887 81.248 209.231 80.56C208.591 79.856 207.719 79.504 206.615 79.504C205.479 79.504 204.575 79.872 203.903 80.608C203.231 81.328 202.895 82.376 202.895 83.752V91H200.735V83.56C200.735 82.248 200.407 81.248 199.751 80.56C199.111 79.856 198.239 79.504 197.135 79.504C195.999 79.504 195.095 79.872 194.423 80.608C193.751 81.328 193.415 82.376 193.415 83.752V91H191.231V77.848H193.415V79.744C193.847 79.056 194.423 78.528 195.143 78.16C195.879 77.792 196.687 77.608 197.567 77.608C198.671 77.608 199.647 77.856 200.495 78.352C201.343 78.848 201.975 79.576 202.391 80.536C202.759 79.608 203.367 78.888 204.215 78.376C205.063 77.864 206.007 77.608 207.047 77.608ZM218.141 80.272C218.573 79.52 219.213 78.896 220.061 78.4C220.925 77.888 221.925 77.632 223.061 77.632C224.229 77.632 225.285 77.912 226.229 78.472C227.189 79.032 227.941 79.824 228.485 80.848C229.029 81.856 229.301 83.032 229.301 84.376C229.301 85.704 229.029 86.888 228.485 87.928C227.941 88.968 227.189 89.776 226.229 90.352C225.285 90.928 224.229 91.216 223.061 91.216C221.941 91.216 220.949 90.968 220.085 90.472C219.237 89.96 218.589 89.328 218.141 88.576V97.24H215.957V77.848H218.141V80.272ZM227.069 84.376C227.069 83.384 226.869 82.52 226.469 81.784C226.069 81.048 225.525 80.488 224.837 80.104C224.165 79.72 223.421 79.528 222.605 79.528C221.805 79.528 221.061 79.728 220.373 80.128C219.701 80.512 219.157 81.08 218.741 81.832C218.341 82.568 218.141 83.424 218.141 84.4C218.141 85.392 218.341 86.264 218.741 87.016C219.157 87.752 219.701 88.32 220.373 88.72C221.061 89.104 221.805 89.296 222.605 89.296C223.421 89.296 224.165 89.104 224.837 88.72C225.525 88.32 226.069 87.752 226.469 87.016C226.869 86.264 227.069 85.384 227.069 84.376ZM244.176 83.92C244.176 84.336 244.152 84.776 244.104 85.24H233.592C233.672 86.536 234.112 87.552 234.912 88.288C235.728 89.008 236.712 89.368 237.864 89.368C238.808 89.368 239.592 89.152 240.216 88.72C240.856 88.272 241.304 87.68 241.56 86.944H243.912C243.56 88.208 242.856 89.24 241.8 90.04C240.744 90.824 239.432 91.216 237.864 91.216C236.616 91.216 235.496 90.936 234.504 90.376C233.528 89.816 232.76 89.024 232.2 88C231.64 86.96 231.36 85.76 231.36 84.4C231.36 83.04 231.632 81.848 232.176 80.824C232.72 79.8 233.48 79.016 234.456 78.472C235.448 77.912 236.584 77.632 237.864 77.632C239.112 77.632 240.216 77.904 241.176 78.448C242.136 78.992 242.872 79.744 243.384 80.704C243.912 81.648 244.176 82.72 244.176 83.92ZM241.92 83.464C241.92 82.632 241.736 81.92 241.368 81.328C241 80.72 240.496 80.264 239.856 79.96C239.232 79.64 238.536 79.48 237.768 79.48C236.664 79.48 235.72 79.832 234.936 80.536C234.168 81.24 233.728 82.216 233.616 83.464H241.92ZM249.243 79.984C249.627 79.232 250.171 78.648 250.875 78.232C251.595 77.816 252.467 77.608 253.491 77.608V79.864H252.915C250.467 79.864 249.243 81.192 249.243 83.848V91H247.059V77.848H249.243V79.984ZM268.939 77.608C269.931 77.608 270.827 77.824 271.627 78.256C272.427 78.672 273.051 79.304 273.499 80.152C273.963 81 274.195 82.032 274.195 83.248V91H272.035V83.56C272.035 82.248 271.707 81.248 271.051 80.56C270.395 79.856 269.499 79.504 268.363 79.504C267.211 79.504 266.291 79.864 265.603 80.584C264.931 81.304 264.595 82.352 264.595 83.728V91H262.411V73.24H264.595V79.72C265.027 79.048 265.619 78.528 266.371 78.16C267.139 77.792 267.995 77.608 268.939 77.608ZM276.946 84.376C276.946 83.032 277.218 81.856 277.762 80.848C278.306 79.824 279.05 79.032 279.994 78.472C280.954 77.912 282.018 77.632 283.186 77.632C284.338 77.632 285.338 77.88 286.186 78.376C287.034 78.872 287.666 79.496 288.082 80.248V77.848H290.29V91H288.082V88.552C287.65 89.32 287.002 89.96 286.138 90.472C285.29 90.968 284.298 91.216 283.162 91.216C281.994 91.216 280.938 90.928 279.994 90.352C279.05 89.776 278.306 88.968 277.762 87.928C277.218 86.888 276.946 85.704 276.946 84.376ZM288.082 84.4C288.082 83.408 287.882 82.544 287.482 81.808C287.082 81.072 286.538 80.512 285.85 80.128C285.178 79.728 284.434 79.528 283.618 79.528C282.802 79.528 282.058 79.72 281.386 80.104C280.714 80.488 280.178 81.048 279.778 81.784C279.378 82.52 279.178 83.384 279.178 84.376C279.178 85.384 279.378 86.264 279.778 87.016C280.178 87.752 280.714 88.32 281.386 88.72C282.058 89.104 282.802 89.296 283.618 89.296C284.434 89.296 285.178 89.104 285.85 88.72C286.538 88.32 287.082 87.752 287.482 87.016C287.882 86.264 288.082 85.392 288.082 84.4ZM296.165 80.296C296.613 79.512 297.269 78.872 298.133 78.376C298.997 77.88 299.981 77.632 301.085 77.632C302.269 77.632 303.333 77.912 304.277 78.472C305.221 79.032 305.965 79.824 306.509 80.848C307.053 81.856 307.325 83.032 307.325 84.376C307.325 85.704 307.053 86.888 306.509 87.928C305.965 88.968 305.213 89.776 304.253 90.352C303.309 90.928 302.253 91.216 301.085 91.216C299.949 91.216 298.949 90.968 298.085 90.472C297.237 89.976 296.597 89.344 296.165 88.576V91H293.981V73.24H296.165V80.296ZM305.093 84.376C305.093 83.384 304.893 82.52 304.493 81.784C304.093 81.048 303.549 80.488 302.861 80.104C302.189 79.72 301.445 79.528 300.629 79.528C299.829 79.528 299.085 79.728 298.397 80.128C297.725 80.512 297.181 81.08 296.765 81.832C296.365 82.568 296.165 83.424 296.165 84.4C296.165 85.392 296.365 86.264 296.765 87.016C297.181 87.752 297.725 88.32 298.397 88.72C299.085 89.104 299.829 89.296 300.629 89.296C301.445 89.296 302.189 89.104 302.861 88.72C303.549 88.32 304.093 87.752 304.493 87.016C304.893 86.264 305.093 85.384 305.093 84.376ZM311.328 75.712C310.912 75.712 310.56 75.568 310.272 75.28C309.984 74.992 309.84 74.64 309.84 74.224C309.84 73.808 309.984 73.456 310.272 73.168C310.56 72.88 310.912 72.736 311.328 72.736C311.728 72.736 312.064 72.88 312.336 73.168C312.624 73.456 312.768 73.808 312.768 74.224C312.768 74.64 312.624 74.992 312.336 75.28C312.064 75.568 311.728 75.712 311.328 75.712ZM312.384 77.848V91H310.2V77.848H312.384ZM318.77 79.648V87.4C318.77 88.04 318.906 88.496 319.178 88.768C319.45 89.024 319.922 89.152 320.594 89.152H322.202V91H320.234C319.018 91 318.106 90.72 317.498 90.16C316.89 89.6 316.586 88.68 316.586 87.4V79.648H314.882V77.848H316.586V74.536H318.77V77.848H322.202V79.648H318.77ZM324.032 84.376C324.032 83.032 324.304 81.856 324.848 80.848C325.392 79.824 326.136 79.032 327.08 78.472C328.04 77.912 329.104 77.632 330.272 77.632C331.424 77.632 332.424 77.88 333.272 78.376C334.12 78.872 334.752 79.496 335.168 80.248V77.848H337.376V91H335.168V88.552C334.736 89.32 334.088 89.96 333.224 90.472C332.376 90.968 331.384 91.216 330.248 91.216C329.08 91.216 328.024 90.928 327.08 90.352C326.136 89.776 325.392 88.968 324.848 87.928C324.304 86.888 324.032 85.704 324.032 84.376ZM335.168 84.4C335.168 83.408 334.968 82.544 334.568 81.808C334.168 81.072 333.624 80.512 332.936 80.128C332.264 79.728 331.52 79.528 330.704 79.528C329.888 79.528 329.144 79.72 328.472 80.104C327.8 80.488 327.264 81.048 326.864 81.784C326.464 82.52 326.264 83.384 326.264 84.376C326.264 85.384 326.464 86.264 326.864 87.016C327.264 87.752 327.8 88.32 328.472 88.72C329.144 89.104 329.888 89.296 330.704 89.296C331.52 89.296 332.264 89.104 332.936 88.72C333.624 88.32 334.168 87.752 334.568 87.016C334.968 86.264 335.168 85.392 335.168 84.4ZM347.475 77.608C349.075 77.608 350.371 78.096 351.363 79.072C352.355 80.032 352.851 81.424 352.851 83.248V91H350.691V83.56C350.691 82.248 350.363 81.248 349.707 80.56C349.051 79.856 348.155 79.504 347.019 79.504C345.867 79.504 344.947 79.864 344.259 80.584C343.587 81.304 343.251 82.352 343.251 83.728V91H341.067V77.848H343.251V79.72C343.683 79.048 344.267 78.528 345.003 78.16C345.755 77.792 346.579 77.608 347.475 77.608ZM359.082 79.648V87.4C359.082 88.04 359.218 88.496 359.49 88.768C359.762 89.024 360.234 89.152 360.906 89.152H362.514V91H360.546C359.33 91 358.418 90.72 357.81 90.16C357.202 89.6 356.898 88.68 356.898 87.4V79.648H355.194V77.848H356.898V74.536H359.082V77.848H362.514V79.648H359.082ZM370.743 84.376C370.743 83.032 371.015 81.856 371.559 80.848C372.103 79.824 372.847 79.032 373.791 78.472C374.751 77.912 375.815 77.632 376.983 77.632C378.135 77.632 379.135 77.88 379.983 78.376C380.831 78.872 381.463 79.496 381.879 80.248V77.848H384.087V91H381.879V88.552C381.447 89.32 380.799 89.96 379.935 90.472C379.087 90.968 378.095 91.216 376.959 91.216C375.791 91.216 374.735 90.928 373.791 90.352C372.847 89.776 372.103 88.968 371.559 87.928C371.015 86.888 370.743 85.704 370.743 84.376ZM381.879 84.4C381.879 83.408 381.679 82.544 381.279 81.808C380.879 81.072 380.335 80.512 379.647 80.128C378.975 79.728 378.231 79.528 377.415 79.528C376.599 79.528 375.855 79.72 375.183 80.104C374.511 80.488 373.975 81.048 373.575 81.784C373.175 82.52 372.975 83.384 372.975 84.376C372.975 85.384 373.175 86.264 373.575 87.016C373.975 87.752 374.511 88.32 375.183 88.72C375.855 89.104 376.599 89.296 377.415 89.296C378.231 89.296 378.975 89.104 379.647 88.72C380.335 88.32 380.879 87.752 381.279 87.016C381.679 86.264 381.879 85.392 381.879 84.4ZM389.962 79.984C390.346 79.232 390.89 78.648 391.594 78.232C392.314 77.816 393.186 77.608 394.21 77.608V79.864H393.634C391.186 79.864 389.962 81.192 389.962 83.848V91H387.778V77.848H389.962V79.984ZM395.915 84.4C395.915 83.04 396.187 81.856 396.731 80.848C397.275 79.824 398.027 79.032 398.987 78.472C399.963 77.912 401.075 77.632 402.323 77.632C403.939 77.632 405.267 78.024 406.307 78.808C407.363 79.592 408.059 80.68 408.395 82.072H406.043C405.819 81.272 405.379 80.64 404.723 80.176C404.083 79.712 403.283 79.48 402.323 79.48C401.075 79.48 400.067 79.912 399.299 80.776C398.531 81.624 398.147 82.832 398.147 84.4C398.147 85.984 398.531 87.208 399.299 88.072C400.067 88.936 401.075 89.368 402.323 89.368C403.283 89.368 404.083 89.144 404.723 88.696C405.363 88.248 405.803 87.608 406.043 86.776H408.395C408.043 88.12 407.339 89.2 406.283 90.016C405.227 90.816 403.907 91.216 402.323 91.216C401.075 91.216 399.963 90.936 398.987 90.376C398.027 89.816 397.275 89.024 396.731 88C396.187 86.976 395.915 85.776 395.915 84.4ZM422.973 77.848V91H420.789V89.056C420.373 89.728 419.789 90.256 419.037 90.64C418.301 91.008 417.485 91.192 416.589 91.192C415.565 91.192 414.645 90.984 413.829 90.568C413.013 90.136 412.365 89.496 411.885 88.648C411.421 87.8 411.189 86.768 411.189 85.552V77.848H413.349V85.264C413.349 86.56 413.677 87.56 414.333 88.264C414.989 88.952 415.885 89.296 417.021 89.296C418.189 89.296 419.109 88.936 419.781 88.216C420.453 87.496 420.789 86.448 420.789 85.072V77.848H422.973ZM12.848 119.92C12.848 120.336 12.824 120.776 12.776 121.24H2.264C2.344 122.536 2.784 123.552 3.584 124.288C4.4 125.008 5.384 125.368 6.536 125.368C7.48 125.368 8.264 125.152 8.888 124.72C9.528 124.272 9.976 123.68 10.232 122.944H12.584C12.232 124.208 11.528 125.24 10.472 126.04C9.416 126.824 8.104 127.216 6.536 127.216C5.288 127.216 4.168 126.936 3.176 126.376C2.2 125.816 1.432 125.024 0.872 124C0.312 122.96 0.032 121.76 0.032 120.4C0.032 119.04 0.304 117.848 0.848 116.824C1.392 115.8 2.152 115.016 3.128 114.472C4.12 113.912 5.256 113.632 6.536 113.632C7.784 113.632 8.888 113.904 9.848 114.448C10.808 114.992 11.544 115.744 12.056 116.704C12.584 117.648 12.848 118.72 12.848 119.92ZM10.592 119.464C10.592 118.632 10.408 117.92 10.04 117.328C9.672 116.72 9.168 116.264 8.528 115.96C7.904 115.64 7.208 115.48 6.44 115.48C5.336 115.48 4.392 115.832 3.608 116.536C2.84 117.24 2.4 118.216 2.288 119.464H10.592ZM21.1548 113.632C22.2908 113.632 23.2828 113.88 24.1308 114.376C24.9948 114.872 25.6348 115.496 26.0508 116.248V113.848H28.2588V127.288C28.2588 128.488 28.0028 129.552 27.4908 130.48C26.9788 131.424 26.2428 132.16 25.2828 132.688C24.3388 133.216 23.2348 133.48 21.9708 133.48C20.2428 133.48 18.8028 133.072 17.6508 132.256C16.4988 131.44 15.8188 130.328 15.6108 128.92H17.7708C18.0108 129.72 18.5068 130.36 19.2588 130.84C20.0108 131.336 20.9148 131.584 21.9708 131.584C23.1708 131.584 24.1468 131.208 24.8988 130.456C25.6668 129.704 26.0508 128.648 26.0508 127.288V124.528C25.6188 125.296 24.9788 125.936 24.1308 126.448C23.2828 126.96 22.2908 127.216 21.1548 127.216C19.9868 127.216 18.9228 126.928 17.9628 126.352C17.0188 125.776 16.2748 124.968 15.7308 123.928C15.1868 122.888 14.9148 121.704 14.9148 120.376C14.9148 119.032 15.1868 117.856 15.7308 116.848C16.2748 115.824 17.0188 115.032 17.9628 114.472C18.9228 113.912 19.9868 113.632 21.1548 113.632ZM26.0508 120.4C26.0508 119.408 25.8508 118.544 25.4508 117.808C25.0508 117.072 24.5068 116.512 23.8188 116.128C23.1468 115.728 22.4028 115.528 21.5868 115.528C20.7708 115.528 20.0268 115.72 19.3548 116.104C18.6828 116.488 18.1468 117.048 17.7468 117.784C17.3468 118.52 17.1468 119.384 17.1468 120.376C17.1468 121.384 17.3468 122.264 17.7468 123.016C18.1468 123.752 18.6828 124.32 19.3548 124.72C20.0268 125.104 20.7708 125.296 21.5868 125.296C22.4028 125.296 23.1468 125.104 23.8188 124.72C24.5068 124.32 25.0508 123.752 25.4508 123.016C25.8508 122.264 26.0508 121.392 26.0508 120.4ZM43.9496 119.92C43.9496 120.336 43.9256 120.776 43.8776 121.24H33.3656C33.4456 122.536 33.8856 123.552 34.6856 124.288C35.5016 125.008 36.4856 125.368 37.6376 125.368C38.5816 125.368 39.3656 125.152 39.9896 124.72C40.6296 124.272 41.0776 123.68 41.3336 122.944H43.6856C43.3336 124.208 42.6296 125.24 41.5736 126.04C40.5176 126.824 39.2056 127.216 37.6376 127.216C36.3896 127.216 35.2696 126.936 34.2776 126.376C33.3016 125.816 32.5336 125.024 31.9736 124C31.4136 122.96 31.1336 121.76 31.1336 120.4C31.1336 119.04 31.4056 117.848 31.9496 116.824C32.4936 115.8 33.2536 115.016 34.2296 114.472C35.2216 113.912 36.3576 113.632 37.6376 113.632C38.8856 113.632 39.9896 113.904 40.9496 114.448C41.9096 114.992 42.6456 115.744 43.1576 116.704C43.6856 117.648 43.9496 118.72 43.9496 119.92ZM41.6936 119.464C41.6936 118.632 41.5096 117.92 41.1416 117.328C40.7736 116.72 40.2696 116.264 39.6296 115.96C39.0056 115.64 38.3096 115.48 37.5416 115.48C36.4376 115.48 35.4936 115.832 34.7096 116.536C33.9416 117.24 33.5016 118.216 33.3896 119.464H41.6936ZM49.4964 115.648V123.4C49.4964 124.04 49.6324 124.496 49.9044 124.768C50.1764 125.024 50.6484 125.152 51.3204 125.152H52.9284V127H50.9604C49.7444 127 48.8324 126.72 48.2244 126.16C47.6164 125.6 47.3124 124.68 47.3124 123.4V115.648H45.6084V113.848H47.3124V110.536H49.4964V113.848H52.9284V115.648H49.4964ZM56.2706 127.144C55.8546 127.144 55.5026 127 55.2146 126.712C54.9266 126.424 54.7826 126.072 54.7826 125.656C54.7826 125.24 54.9266 124.888 55.2146 124.6C55.5026 124.312 55.8546 124.168 56.2706 124.168C56.6706 124.168 57.0066 124.312 57.2786 124.6C57.5666 124.888 57.7106 125.24 57.7106 125.656C57.7106 126.072 57.5666 126.424 57.2786 126.712C57.0066 127 56.6706 127.144 56.2706 127.144ZM69.1961 112.048V117.64H75.2921V119.44H69.1961V125.2H76.0121V127H67.0121V110.248H76.0121V112.048H69.1961ZM81.9808 115.648V123.4C81.9808 124.04 82.1168 124.496 82.3888 124.768C82.6608 125.024 83.1328 125.152 83.8047 125.152H85.4128V127H83.4448C82.2288 127 81.3168 126.72 80.7088 126.16C80.1008 125.6 79.7968 124.68 79.7968 123.4V115.648H78.0928V113.848H79.7968V110.536H81.9808V113.848H85.4128V115.648H81.9808ZM95.5854 111.712C95.1694 111.712 94.8174 111.568 94.5294 111.28C94.2414 110.992 94.0974 110.64 94.0974 110.224C94.0974 109.808 94.2414 109.456 94.5294 109.168C94.8174 108.88 95.1694 108.736 95.5854 108.736C95.9854 108.736 96.3214 108.88 96.5934 109.168C96.8814 109.456 97.0254 109.808 97.0254 110.224C97.0254 110.64 96.8814 110.992 96.5934 111.28C96.3214 111.568 95.9854 111.712 95.5854 111.712ZM96.6414 113.848V127H94.4574V113.848H96.6414ZM106.772 113.608C108.372 113.608 109.668 114.096 110.66 115.072C111.652 116.032 112.148 117.424 112.148 119.248V127H109.988V119.56C109.988 118.248 109.66 117.248 109.004 116.56C108.348 115.856 107.452 115.504 106.316 115.504C105.164 115.504 104.244 115.864 103.556 116.584C102.884 117.304 102.548 118.352 102.548 119.728V127H100.364V113.848H102.548V115.72C102.98 115.048 103.564 114.528 104.3 114.16C105.052 113.792 105.876 113.608 106.772 113.608ZM118.379 115.648V123.4C118.379 124.04 118.515 124.496 118.787 124.768C119.059 125.024 119.531 125.152 120.203 125.152H121.811V127H119.843C118.627 127 117.715 126.72 117.107 126.16C116.499 125.6 116.195 124.68 116.195 123.4V115.648H114.491V113.848H116.195V110.536H118.379V113.848H121.811V115.648H118.379ZM136.457 119.92C136.457 120.336 136.433 120.776 136.385 121.24H125.873C125.953 122.536 126.393 123.552 127.193 124.288C128.009 125.008 128.993 125.368 130.145 125.368C131.089 125.368 131.873 125.152 132.497 124.72C133.137 124.272 133.585 123.68 133.841 122.944H136.193C135.841 124.208 135.137 125.24 134.081 126.04C133.025 126.824 131.713 127.216 130.145 127.216C128.897 127.216 127.777 126.936 126.785 126.376C125.809 125.816 125.041 125.024 124.481 124C123.921 122.96 123.641 121.76 123.641 120.4C123.641 119.04 123.913 117.848 124.457 116.824C125.001 115.8 125.761 115.016 126.737 114.472C127.729 113.912 128.865 113.632 130.145 113.632C131.393 113.632 132.497 113.904 133.457 114.448C134.417 114.992 135.153 115.744 135.665 116.704C136.193 117.648 136.457 118.72 136.457 119.92ZM134.201 119.464C134.201 118.632 134.017 117.92 133.649 117.328C133.281 116.72 132.777 116.264 132.137 115.96C131.513 115.64 130.817 115.48 130.049 115.48C128.945 115.48 128.001 115.832 127.217 116.536C126.449 117.24 126.009 118.216 125.897 119.464H134.201ZM144.764 113.632C145.9 113.632 146.892 113.88 147.74 114.376C148.604 114.872 149.244 115.496 149.66 116.248V113.848H151.868V127.288C151.868 128.488 151.612 129.552 151.1 130.48C150.588 131.424 149.852 132.16 148.892 132.688C147.948 133.216 146.844 133.48 145.58 133.48C143.852 133.48 142.412 133.072 141.26 132.256C140.108 131.44 139.428 130.328 139.22 128.92H141.38C141.62 129.72 142.116 130.36 142.868 130.84C143.62 131.336 144.524 131.584 145.58 131.584C146.78 131.584 147.756 131.208 148.508 130.456C149.276 129.704 149.66 128.648 149.66 127.288V124.528C149.228 125.296 148.588 125.936 147.74 126.448C146.892 126.96 145.9 127.216 144.764 127.216C143.596 127.216 142.532 126.928 141.572 126.352C140.628 125.776 139.884 124.968 139.34 123.928C138.796 122.888 138.524 121.704 138.524 120.376C138.524 119.032 138.796 117.856 139.34 116.848C139.884 115.824 140.628 115.032 141.572 114.472C142.532 113.912 143.596 113.632 144.764 113.632ZM149.66 120.4C149.66 119.408 149.46 118.544 149.06 117.808C148.66 117.072 148.116 116.512 147.428 116.128C146.756 115.728 146.012 115.528 145.196 115.528C144.38 115.528 143.636 115.72 142.964 116.104C142.292 116.488 141.756 117.048 141.356 117.784C140.956 118.52 140.756 119.384 140.756 120.376C140.756 121.384 140.956 122.264 141.356 123.016C141.756 123.752 142.292 124.32 142.964 124.72C143.636 125.104 144.38 125.296 145.196 125.296C146.012 125.296 146.756 125.104 147.428 124.72C148.116 124.32 148.66 123.752 149.06 123.016C149.46 122.264 149.66 121.392 149.66 120.4ZM167.559 119.92C167.559 120.336 167.535 120.776 167.487 121.24H156.975C157.055 122.536 157.495 123.552 158.295 124.288C159.111 125.008 160.095 125.368 161.247 125.368C162.191 125.368 162.975 125.152 163.599 124.72C164.239 124.272 164.687 123.68 164.943 122.944H167.295C166.943 124.208 166.239 125.24 165.183 126.04C164.127 126.824 162.815 127.216 161.247 127.216C159.999 127.216 158.879 126.936 157.887 126.376C156.911 125.816 156.143 125.024 155.583 124C155.023 122.96 154.743 121.76 154.743 120.4C154.743 119.04 155.015 117.848 155.559 116.824C156.103 115.8 156.863 115.016 157.839 114.472C158.831 113.912 159.967 113.632 161.247 113.632C162.495 113.632 163.599 113.904 164.559 114.448C165.519 114.992 166.255 115.744 166.767 116.704C167.295 117.648 167.559 118.72 167.559 119.92ZM165.303 119.464C165.303 118.632 165.119 117.92 164.751 117.328C164.383 116.72 163.879 116.264 163.239 115.96C162.615 115.64 161.919 115.48 161.151 115.48C160.047 115.48 159.103 115.832 158.319 116.536C157.551 117.24 157.111 118.216 156.999 119.464H165.303ZM172.626 115.984C173.01 115.232 173.554 114.648 174.258 114.232C174.978 113.816 175.85 113.608 176.874 113.608V115.864H176.298C173.85 115.864 172.626 117.192 172.626 119.848V127H170.442V113.848H172.626V115.984ZM191.145 115.648H188.385V127H186.201V115.648H184.497V113.848H186.201V112.912C186.201 111.44 186.577 110.368 187.329 109.696C188.097 109.008 189.321 108.664 191.001 108.664V110.488C190.041 110.488 189.361 110.68 188.961 111.064C188.577 111.432 188.385 112.048 188.385 112.912V113.848H191.145V115.648ZM192.876 120.376C192.876 119.032 193.148 117.856 193.692 116.848C194.236 115.824 194.98 115.032 195.924 114.472C196.884 113.912 197.948 113.632 199.116 113.632C200.268 113.632 201.268 113.88 202.116 114.376C202.964 114.872 203.596 115.496 204.012 116.248V113.848H206.22V127H204.012V124.552C203.58 125.32 202.932 125.96 202.068 126.472C201.22 126.968 200.228 127.216 199.092 127.216C197.924 127.216 196.868 126.928 195.924 126.352C194.98 125.776 194.236 124.968 193.692 123.928C193.148 122.888 192.876 121.704 192.876 120.376ZM204.012 120.4C204.012 119.408 203.812 118.544 203.412 117.808C203.012 117.072 202.468 116.512 201.78 116.128C201.108 115.728 200.364 115.528 199.548 115.528C198.732 115.528 197.988 115.72 197.316 116.104C196.644 116.488 196.108 117.048 195.708 117.784C195.308 118.52 195.108 119.384 195.108 120.376C195.108 121.384 195.308 122.264 195.708 123.016C196.108 123.752 196.644 124.32 197.316 124.72C197.988 125.104 198.732 125.296 199.548 125.296C200.364 125.296 201.108 125.104 201.78 124.72C202.468 124.32 203.012 123.752 203.412 123.016C203.812 122.264 204.012 121.392 204.012 120.4ZM209.095 120.4C209.095 119.04 209.367 117.856 209.911 116.848C210.455 115.824 211.207 115.032 212.167 114.472C213.143 113.912 214.255 113.632 215.503 113.632C217.119 113.632 218.447 114.024 219.487 114.808C220.543 115.592 221.239 116.68 221.575 118.072H219.223C218.999 117.272 218.559 116.64 217.903 116.176C217.263 115.712 216.463 115.48 215.503 115.48C214.255 115.48 213.247 115.912 212.479 116.776C211.711 117.624 211.327 118.832 211.327 120.4C211.327 121.984 211.711 123.208 212.479 124.072C213.247 124.936 214.255 125.368 215.503 125.368C216.463 125.368 217.263 125.144 217.903 124.696C218.543 124.248 218.983 123.608 219.223 122.776H221.575C221.223 124.12 220.519 125.2 219.463 126.016C218.407 126.816 217.087 127.216 215.503 127.216C214.255 127.216 213.143 126.936 212.167 126.376C211.207 125.816 210.455 125.024 209.911 124C209.367 122.976 209.095 121.776 209.095 120.4ZM225.617 111.712C225.201 111.712 224.849 111.568 224.561 111.28C224.273 110.992 224.129 110.64 224.129 110.224C224.129 109.808 224.273 109.456 224.561 109.168C224.849 108.88 225.201 108.736 225.617 108.736C226.017 108.736 226.353 108.88 226.625 109.168C226.913 109.456 227.057 109.808 227.057 110.224C227.057 110.64 226.913 110.992 226.625 111.28C226.353 111.568 226.017 111.712 225.617 111.712ZM226.673 113.848V127H224.489V113.848H226.673ZM232.579 109.24V127H230.395V109.24H232.579ZM237.429 111.712C237.013 111.712 236.661 111.568 236.373 111.28C236.085 110.992 235.941 110.64 235.941 110.224C235.941 109.808 236.085 109.456 236.373 109.168C236.661 108.88 237.013 108.736 237.429 108.736C237.829 108.736 238.165 108.88 238.437 109.168C238.725 109.456 238.869 109.808 238.869 110.224C238.869 110.64 238.725 110.992 238.437 111.28C238.165 111.568 237.829 111.712 237.429 111.712ZM238.485 113.848V127H236.301V113.848H238.485ZM246.863 127.216C245.855 127.216 244.951 127.048 244.151 126.712C243.351 126.36 242.719 125.88 242.255 125.272C241.791 124.648 241.535 123.936 241.487 123.136H243.743C243.807 123.792 244.111 124.328 244.655 124.744C245.215 125.16 245.943 125.368 246.839 125.368C247.671 125.368 248.327 125.184 248.807 124.816C249.287 124.448 249.527 123.984 249.527 123.424C249.527 122.848 249.271 122.424 248.759 122.152C248.247 121.864 247.455 121.584 246.383 121.312C245.407 121.056 244.607 120.8 243.983 120.544C243.375 120.272 242.847 119.88 242.399 119.368C241.967 118.84 241.751 118.152 241.751 117.304C241.751 116.632 241.951 116.016 242.351 115.456C242.751 114.896 243.319 114.456 244.055 114.136C244.791 113.8 245.631 113.632 246.575 113.632C248.031 113.632 249.207 114 250.103 114.736C250.999 115.472 251.479 116.48 251.543 117.76H249.359C249.311 117.072 249.031 116.52 248.519 116.104C248.023 115.688 247.351 115.48 246.503 115.48C245.719 115.48 245.095 115.648 244.631 115.984C244.167 116.32 243.935 116.76 243.935 117.304C243.935 117.736 244.071 118.096 244.343 118.384C244.631 118.656 244.983 118.88 245.399 119.056C245.831 119.216 246.423 119.4 247.175 119.608C248.119 119.864 248.887 120.12 249.479 120.376C250.071 120.616 250.575 120.984 250.991 121.48C251.423 121.976 251.647 122.624 251.663 123.424C251.663 124.144 251.463 124.792 251.063 125.368C250.663 125.944 250.095 126.4 249.359 126.736C248.639 127.056 247.807 127.216 246.863 127.216ZM255.874 111.712C255.458 111.712 255.106 111.568 254.818 111.28C254.53 110.992 254.386 110.64 254.386 110.224C254.386 109.808 254.53 109.456 254.818 109.168C255.106 108.88 255.458 108.736 255.874 108.736C256.274 108.736 256.61 108.88 256.882 109.168C257.17 109.456 257.314 109.808 257.314 110.224C257.314 110.64 257.17 110.992 256.882 111.28C256.61 111.568 256.274 111.712 255.874 111.712ZM256.93 113.848V127H254.746V113.848H256.93ZM279.051 119.92C279.051 120.336 279.027 120.776 278.979 121.24H268.467C268.547 122.536 268.987 123.552 269.787 124.288C270.603 125.008 271.587 125.368 272.739 125.368C273.683 125.368 274.467 125.152 275.091 124.72C275.731 124.272 276.179 123.68 276.435 122.944H278.787C278.435 124.208 277.731 125.24 276.675 126.04C275.619 126.824 274.307 127.216 272.739 127.216C271.491 127.216 270.371 126.936 269.379 126.376C268.403 125.816 267.635 125.024 267.075 124C266.515 122.96 266.235 121.76 266.235 120.4C266.235 119.04 266.507 117.848 267.051 116.824C267.595 115.8 268.355 115.016 269.331 114.472C270.323 113.912 271.459 113.632 272.739 113.632C273.987 113.632 275.091 113.904 276.051 114.448C277.011 114.992 277.747 115.744 278.259 116.704C278.787 117.648 279.051 118.72 279.051 119.92ZM276.795 119.464C276.795 118.632 276.611 117.92 276.243 117.328C275.875 116.72 275.371 116.264 274.731 115.96C274.107 115.64 273.411 115.48 272.643 115.48C271.539 115.48 270.595 115.832 269.811 116.536C269.043 117.24 268.603 118.216 268.491 119.464H276.795ZM287.358 113.632C288.494 113.632 289.486 113.88 290.334 114.376C291.198 114.872 291.838 115.496 292.254 116.248V113.848H294.462V127.288C294.462 128.488 294.206 129.552 293.694 130.48C293.182 131.424 292.446 132.16 291.486 132.688C290.542 133.216 289.438 133.48 288.174 133.48C286.446 133.48 285.006 133.072 283.854 132.256C282.702 131.44 282.022 130.328 281.814 128.92H283.974C284.214 129.72 284.71 130.36 285.462 130.84C286.214 131.336 287.118 131.584 288.174 131.584C289.374 131.584 290.35 131.208 291.102 130.456C291.87 129.704 292.254 128.648 292.254 127.288V124.528C291.822 125.296 291.182 125.936 290.334 126.448C289.486 126.96 288.494 127.216 287.358 127.216C286.19 127.216 285.126 126.928 284.166 126.352C283.222 125.776 282.478 124.968 281.934 123.928C281.39 122.888 281.118 121.704 281.118 120.376C281.118 119.032 281.39 117.856 281.934 116.848C282.478 115.824 283.222 115.032 284.166 114.472C285.126 113.912 286.19 113.632 287.358 113.632ZM292.254 120.4C292.254 119.408 292.054 118.544 291.654 117.808C291.254 117.072 290.71 116.512 290.022 116.128C289.35 115.728 288.606 115.528 287.79 115.528C286.974 115.528 286.23 115.72 285.558 116.104C284.886 116.488 284.35 117.048 283.95 117.784C283.55 118.52 283.35 119.384 283.35 120.376C283.35 121.384 283.55 122.264 283.95 123.016C284.35 123.752 284.886 124.32 285.558 124.72C286.23 125.104 286.974 125.296 287.79 125.296C288.606 125.296 289.35 125.104 290.022 124.72C290.71 124.32 291.254 123.752 291.654 123.016C292.054 122.264 292.254 121.392 292.254 120.4ZM310.153 119.92C310.153 120.336 310.129 120.776 310.081 121.24H299.569C299.649 122.536 300.089 123.552 300.889 124.288C301.705 125.008 302.689 125.368 303.841 125.368C304.785 125.368 305.569 125.152 306.193 124.72C306.833 124.272 307.281 123.68 307.537 122.944H309.889C309.537 124.208 308.833 125.24 307.777 126.04C306.721 126.824 305.409 127.216 303.841 127.216C302.593 127.216 301.473 126.936 300.481 126.376C299.505 125.816 298.737 125.024 298.177 124C297.617 122.96 297.337 121.76 297.337 120.4C297.337 119.04 297.609 117.848 298.153 116.824C298.697 115.8 299.457 115.016 300.433 114.472C301.425 113.912 302.561 113.632 303.841 113.632C305.089 113.632 306.193 113.904 307.153 114.448C308.113 114.992 308.849 115.744 309.361 116.704C309.889 117.648 310.153 118.72 310.153 119.92ZM307.897 119.464C307.897 118.632 307.713 117.92 307.345 117.328C306.977 116.72 306.473 116.264 305.833 115.96C305.209 115.64 304.513 115.48 303.745 115.48C302.641 115.48 301.697 115.832 300.913 116.536C300.145 117.24 299.705 118.216 299.593 119.464H307.897ZM315.7 115.648V123.4C315.7 124.04 315.836 124.496 316.108 124.768C316.38 125.024 316.852 125.152 317.523 125.152H319.132V127H317.164C315.948 127 315.036 126.72 314.428 126.16C313.82 125.6 313.516 124.68 313.516 123.4V115.648H311.812V113.848H313.516V110.536H315.7V113.848H319.132V115.648H315.7ZM322.474 127.144C322.058 127.144 321.706 127 321.418 126.712C321.13 126.424 320.986 126.072 320.986 125.656C320.986 125.24 321.13 124.888 321.418 124.6C321.706 124.312 322.058 124.168 322.474 124.168C322.874 124.168 323.21 124.312 323.482 124.6C323.77 124.888 323.914 125.24 323.914 125.656C323.914 126.072 323.77 126.424 323.482 126.712C323.21 127 322.874 127.144 322.474 127.144Z" fill="white"/>
</svg>
