<svg width="182" height="66" viewBox="0 0 182 66" fill="none" xmlns="http://www.w3.org/2000/svg">
<rect width="182" height="66" rx="33" fill="white"/>
<path d="M52.032 26.048V31.64H58.128V33.44H52.032V39.2H58.848V41H49.848V24.248H58.848V26.048H52.032ZM69.0167 41L65.8967 36.104L62.8967 41H60.6167L64.8647 34.472L60.6167 27.848H63.0887L66.2087 32.72L69.1847 27.848H71.4647L67.2407 34.352L71.4887 41H69.0167ZM75.8211 30.272C76.2531 29.52 76.8931 28.896 77.7411 28.4C78.6051 27.888 79.6051 27.632 80.7411 27.632C81.9091 27.632 82.9651 27.912 83.9091 28.472C84.8691 29.032 85.6211 29.824 86.1651 30.848C86.7091 31.856 86.9811 33.032 86.9811 34.376C86.9811 35.704 86.7091 36.888 86.1651 37.928C85.6211 38.968 84.8691 39.776 83.9091 40.352C82.9651 40.928 81.9091 41.216 80.7411 41.216C79.6211 41.216 78.6291 40.968 77.7651 40.472C76.9171 39.96 76.2691 39.328 75.8211 38.576V47.24H73.6371V27.848H75.8211V30.272ZM84.7491 34.376C84.7491 33.384 84.5491 32.52 84.1491 31.784C83.7491 31.048 83.2051 30.488 82.5171 30.104C81.8451 29.72 81.1011 29.528 80.2851 29.528C79.4851 29.528 78.7411 29.728 78.0531 30.128C77.3811 30.512 76.8371 31.08 76.4211 31.832C76.0211 32.568 75.8211 33.424 75.8211 34.4C75.8211 35.392 76.0211 36.264 76.4211 37.016C76.8371 37.752 77.3811 38.32 78.0531 38.72C78.7411 39.104 79.4851 39.296 80.2851 39.296C81.1011 39.296 81.8451 39.104 82.5171 38.72C83.2051 38.32 83.7491 37.752 84.1491 37.016C84.5491 36.264 84.7491 35.384 84.7491 34.376ZM92.0398 23.24V41H89.8558V23.24H92.0398ZM101.498 41.216C100.266 41.216 99.1461 40.936 98.1381 40.376C97.1461 39.816 96.3621 39.024 95.7861 38C95.2261 36.96 94.9461 35.76 94.9461 34.4C94.9461 33.056 95.2341 31.872 95.8101 30.848C96.4021 29.808 97.2021 29.016 98.2101 28.472C99.2181 27.912 100.346 27.632 101.594 27.632C102.842 27.632 103.97 27.912 104.978 28.472C105.986 29.016 106.778 29.8 107.354 30.824C107.946 31.848 108.242 33.04 108.242 34.4C108.242 35.76 107.938 36.96 107.33 38C106.738 39.024 105.93 39.816 104.906 40.376C103.882 40.936 102.746 41.216 101.498 41.216ZM101.498 39.296C102.282 39.296 103.018 39.112 103.706 38.744C104.394 38.376 104.946 37.824 105.362 37.088C105.794 36.352 106.01 35.456 106.01 34.4C106.01 33.344 105.802 32.448 105.386 31.712C104.97 30.976 104.426 30.432 103.754 30.08C103.082 29.712 102.354 29.528 101.57 29.528C100.77 29.528 100.034 29.712 99.3621 30.08C98.7061 30.432 98.1781 30.976 97.7781 31.712C97.3781 32.448 97.1781 33.344 97.1781 34.4C97.1781 35.472 97.3701 36.376 97.7541 37.112C98.1541 37.848 98.6821 38.4 99.3381 38.768C99.9941 39.12 100.714 39.296 101.498 39.296ZM113.298 29.984C113.682 29.232 114.226 28.648 114.93 28.232C115.65 27.816 116.522 27.608 117.546 27.608V29.864H116.97C114.522 29.864 113.298 31.192 113.298 33.848V41H111.114V27.848H113.298V29.984ZM132.067 33.92C132.067 34.336 132.043 34.776 131.995 35.24H121.483C121.563 36.536 122.003 37.552 122.803 38.288C123.619 39.008 124.603 39.368 125.755 39.368C126.699 39.368 127.483 39.152 128.107 38.72C128.747 38.272 129.195 37.68 129.451 36.944H131.803C131.451 38.208 130.747 39.24 129.691 40.04C128.635 40.824 127.323 41.216 125.755 41.216C124.507 41.216 123.387 40.936 122.395 40.376C121.419 39.816 120.651 39.024 120.091 38C119.531 36.96 119.251 35.76 119.251 34.4C119.251 33.04 119.523 31.848 120.067 30.824C120.611 29.8 121.371 29.016 122.347 28.472C123.339 27.912 124.475 27.632 125.755 27.632C127.003 27.632 128.107 27.904 129.067 28.448C130.027 28.992 130.763 29.744 131.275 30.704C131.803 31.648 132.067 32.72 132.067 33.92ZM129.811 33.464C129.811 32.632 129.627 31.92 129.259 31.328C128.891 30.72 128.387 30.264 127.747 29.96C127.123 29.64 126.427 29.48 125.659 29.48C124.555 29.48 123.611 29.832 122.827 30.536C122.059 31.24 121.619 32.216 121.507 33.464H129.811Z" fill="#232323"/>
</svg>
