<svg width="231" height="82" viewBox="0 0 231 82" fill="none" xmlns="http://www.w3.org/2000/svg">
<rect width="231" height="82" rx="36" fill="#E5B94B"/>
<path d="M59.136 52V30.88H74.432V33.824H62.56V39.904H71.84V42.784H62.56V49.056H74.88V52H59.136ZM81.4958 36L86.0078 42.848L86.6478 42.944L93.1438 52H89.0798L84.3758 44.96L83.6398 44.704L77.3678 36H81.4958ZM93.0478 36L86.7758 44.576L86.0718 44.544L80.9518 52H77.0478L83.8638 42.88L84.5358 42.944L89.1118 36H93.0478ZM96.5935 58.72V36H99.6335L99.8895 40.48L99.4415 39.936C99.6975 39.104 100.092 38.368 100.626 37.728C101.159 37.088 101.82 36.5867 102.61 36.224C103.42 35.8613 104.306 35.68 105.266 35.68C106.567 35.68 107.751 36.0107 108.818 36.672C109.884 37.3333 110.727 38.2827 111.346 39.52C111.964 40.736 112.274 42.2187 112.274 43.968C112.274 45.7173 111.954 47.2213 111.314 48.48C110.695 49.7173 109.842 50.6667 108.754 51.328C107.687 51.9893 106.492 52.32 105.17 52.32C103.804 52.32 102.642 51.968 101.682 51.264C100.722 50.5387 100.039 49.6213 99.6335 48.512L100.018 47.968V58.72H96.5935ZM104.434 49.536C105.82 49.536 106.898 49.0453 107.666 48.064C108.455 47.0827 108.85 45.728 108.85 44C108.85 42.272 108.466 40.9173 107.698 39.936C106.93 38.9333 105.863 38.432 104.498 38.432C103.602 38.432 102.812 38.6667 102.13 39.136C101.468 39.584 100.946 40.224 100.562 41.056C100.199 41.8667 100.018 42.848 100.018 44C100.018 45.1307 100.199 46.112 100.562 46.944C100.924 47.776 101.436 48.416 102.098 48.864C102.759 49.312 103.538 49.536 104.434 49.536ZM119.984 28.8V47.52C119.984 48.3093 120.123 48.8533 120.4 49.152C120.677 49.4507 121.136 49.6 121.776 49.6C122.16 49.6 122.48 49.5787 122.736 49.536C123.013 49.472 123.355 49.3653 123.76 49.216L123.376 51.776C123.013 51.9467 122.597 52.0747 122.128 52.16C121.659 52.2667 121.189 52.32 120.72 52.32C119.291 52.32 118.235 51.9573 117.552 51.232C116.891 50.4853 116.56 49.344 116.56 47.808V28.8H119.984ZM133.569 35.68C135.126 35.68 136.502 36.0107 137.697 36.672C138.891 37.3333 139.819 38.2933 140.481 39.552C141.163 40.7893 141.505 42.272 141.505 44C141.505 45.728 141.163 47.2213 140.481 48.48C139.819 49.7173 138.891 50.6667 137.697 51.328C136.502 51.9893 135.126 52.32 133.569 52.32C132.011 52.32 130.635 51.9893 129.441 51.328C128.246 50.6667 127.307 49.7173 126.625 48.48C125.942 47.2213 125.601 45.728 125.601 44C125.601 42.272 125.942 40.7893 126.625 39.552C127.307 38.2933 128.246 37.3333 129.441 36.672C130.635 36.0107 132.011 35.68 133.569 35.68ZM133.569 38.368C132.609 38.368 131.787 38.592 131.105 39.04C130.443 39.4667 129.931 40.096 129.569 40.928C129.206 41.76 129.025 42.784 129.025 44C129.025 45.1947 129.206 46.2187 129.569 47.072C129.931 47.904 130.443 48.544 131.105 48.992C131.787 49.4187 132.609 49.632 133.569 49.632C134.529 49.632 135.339 49.4187 136.001 48.992C136.662 48.544 137.174 47.904 137.537 47.072C137.899 46.2187 138.081 45.1947 138.081 44C138.081 42.784 137.899 41.76 137.537 40.928C137.174 40.096 136.662 39.4667 136.001 39.04C135.339 38.592 134.529 38.368 133.569 38.368ZM145.812 52V36H148.724L149.044 38.88C149.471 37.8347 150.1 37.0453 150.932 36.512C151.786 35.9573 152.831 35.68 154.068 35.68C154.388 35.68 154.708 35.712 155.028 35.776C155.348 35.8187 155.615 35.8933 155.828 36L155.348 39.008C155.114 38.9227 154.847 38.8587 154.548 38.816C154.271 38.752 153.887 38.72 153.396 38.72C152.735 38.72 152.084 38.9013 151.444 39.264C150.804 39.6053 150.271 40.128 149.844 40.832C149.439 41.536 149.236 42.432 149.236 43.52V52H145.812ZM165.696 52.32C164.096 52.32 162.688 51.9893 161.472 51.328C160.256 50.6667 159.307 49.7173 158.624 48.48C157.963 47.2213 157.632 45.728 157.632 44C157.632 42.272 157.963 40.7893 158.624 39.552C159.307 38.2933 160.245 37.3333 161.44 36.672C162.635 36.0107 163.989 35.68 165.504 35.68C167.061 35.68 168.384 36 169.472 36.64C170.56 37.28 171.392 38.1547 171.968 39.264C172.544 40.3733 172.832 41.632 172.832 43.04C172.832 43.424 172.821 43.7867 172.8 44.128C172.779 44.4693 172.747 44.768 172.704 45.024H159.84V42.4H171.2L169.504 42.912C169.504 41.4613 169.141 40.352 168.416 39.584C167.691 38.7947 166.699 38.4 165.44 38.4C164.523 38.4 163.723 38.6133 163.04 39.04C162.357 39.4667 161.835 40.1067 161.472 40.96C161.109 41.792 160.928 42.816 160.928 44.032C160.928 45.2267 161.12 46.24 161.504 47.072C161.888 47.904 162.432 48.5333 163.136 48.96C163.84 49.3867 164.672 49.6 165.632 49.6C166.699 49.6 167.563 49.3973 168.224 48.992C168.885 48.5867 169.408 48.0213 169.792 47.296L172.512 48.576C172.128 49.344 171.605 50.016 170.944 50.592C170.304 51.1467 169.536 51.5733 168.64 51.872C167.744 52.1707 166.763 52.32 165.696 52.32Z" fill="#080808"/>
</svg>
