<svg width="441" height="376" viewBox="0 0 441 376" fill="none" xmlns="http://www.w3.org/2000/svg">
<path d="M54.264 4.92V16.624H35.344V63H20.208V16.624H1.2V4.92H54.264ZM78.6778 35.104C78.6778 33.0507 78.0911 31.4373 76.9178 30.264C75.8031 29.032 74.2778 28.416 72.3418 28.416C70.4058 28.416 68.7338 28.9147 67.3258 29.912C65.9765 30.8507 65.0378 32.552 64.5098 35.016L51.8378 32.024C52.6591 27.8 54.8298 24.4267 58.3498 21.904C61.8698 19.3813 66.8271 18.12 73.2218 18.12C77.5045 18.12 81.1418 18.7653 84.1338 20.056C87.1845 21.288 89.5018 23.1653 91.0858 25.688C92.7285 28.152 93.5498 31.2027 93.5498 34.84V50.944C93.5498 53.232 94.5765 54.376 96.6298 54.376C97.6858 54.376 98.5365 54.2587 99.1818 54.024L98.3018 62.56C96.5418 63.3813 94.4005 63.792 91.8778 63.792C89.5898 63.792 87.5658 63.44 85.8058 62.736C84.0458 61.9733 82.6671 60.8587 81.6698 59.392C80.6725 57.8667 80.1738 55.96 80.1738 53.672V53.144L81.8458 52.528C81.8458 55.0507 81.0831 57.1627 79.5578 58.864C78.0911 60.5653 76.1551 61.8267 73.7498 62.648C71.4031 63.4693 68.9391 63.88 66.3578 63.88C63.3658 63.88 60.7551 63.4107 58.5258 62.472C56.2965 61.5333 54.5658 60.184 53.3338 58.424C52.1605 56.6053 51.5738 54.376 51.5738 51.736C51.5738 48.568 52.5125 45.9573 54.3898 43.904C56.3258 41.792 59.3471 40.3253 63.4538 39.504L80.0858 36.072L79.9978 43.992L71.5498 45.752C69.7898 46.104 68.4698 46.632 67.5898 47.336C66.7685 47.9813 66.3578 48.9787 66.3578 50.328C66.3578 51.6187 66.8271 52.5867 67.7658 53.232C68.7045 53.8773 69.8191 54.2 71.1098 54.2C72.1071 54.2 73.0458 54.0533 73.9258 53.76C74.8645 53.4667 75.6858 53.0267 76.3898 52.44C77.0938 51.7947 77.6511 51.0027 78.0618 50.064C78.4725 49.1253 78.6778 48.0107 78.6778 46.72V35.104ZM153.399 19L132.279 41.528L129.463 42.32L116.879 56.4L116.791 41.088L136.767 19H153.399ZM120.047 0.343999V63H105.087V0.343999H120.047ZM134.567 32.2L154.367 63H137.823L124.799 41L134.567 32.2ZM178.981 63.88C174.111 63.88 169.887 62.9707 166.309 61.152C162.789 59.3333 160.061 56.7227 158.125 53.32C156.189 49.9173 155.221 45.8107 155.221 41C155.221 36.1893 156.189 32.0827 158.125 28.68C160.061 25.2773 162.759 22.6667 166.221 20.848C169.741 19.0293 173.759 18.12 178.277 18.12C182.911 18.12 186.842 19.0293 190.069 20.848C193.354 22.608 195.847 25.072 197.549 28.24C199.25 31.3493 200.101 34.928 200.101 38.976C200.101 40.032 200.071 41.088 200.013 42.144C199.954 43.2 199.866 44.08 199.749 44.784H164.901V36.776H193.149L186.021 39.504C186.021 35.984 185.375 33.2853 184.085 31.408C182.853 29.5307 180.917 28.592 178.277 28.592C176.399 28.592 174.786 29.032 173.437 29.912C172.146 30.792 171.149 32.1707 170.445 34.048C169.799 35.9253 169.477 38.3307 169.477 41.264C169.477 44.1387 169.858 46.4853 170.621 48.304C171.383 50.064 172.469 51.3547 173.877 52.176C175.285 52.9387 176.986 53.32 178.981 53.32C181.21 53.32 182.97 52.88 184.261 52C185.61 51.12 186.607 49.888 187.253 48.304L199.221 52.264C198.399 54.7867 196.962 56.928 194.909 58.688C192.914 60.3893 190.509 61.68 187.693 62.56C184.935 63.44 182.031 63.88 178.981 63.88ZM276.968 19L260.952 63C259.309 67.6347 257.52 71.3307 255.584 74.088C253.648 76.8453 251.36 78.84 248.72 80.072C246.08 81.304 242.912 81.92 239.216 81.92C236.752 81.92 234.493 81.656 232.44 81.128C230.387 80.6 228.597 79.8667 227.072 78.928L230.064 68.808C231.12 69.5707 232.235 70.0987 233.408 70.392C234.581 70.744 236.077 70.92 237.896 70.92C239.597 70.92 240.976 70.6267 242.032 70.04C243.147 69.4533 244.027 68.3387 244.672 66.696L245.816 63.968L240.712 52L227.512 19H243.968L250.744 44.08L252.856 53.408L255.32 43.728L262.096 19H276.968ZM302.46 18.12C307.095 18.12 311.143 19.0293 314.604 20.848C318.124 22.608 320.852 25.2187 322.788 28.68C324.783 32.0827 325.78 36.1893 325.78 41C325.78 45.8107 324.783 49.9467 322.788 53.408C320.852 56.8107 318.124 59.4213 314.604 61.24C311.143 63 307.095 63.88 302.46 63.88C297.943 63.88 293.924 63 290.404 61.24C286.884 59.4213 284.127 56.8107 282.132 53.408C280.196 49.9467 279.228 45.8107 279.228 41C279.228 36.1893 280.196 32.0827 282.132 28.68C284.127 25.2187 286.884 22.608 290.404 20.848C293.924 19.0293 297.943 18.12 302.46 18.12ZM302.46 28.768C300.759 28.768 299.292 29.1787 298.06 30C296.828 30.8213 295.89 32.1413 295.244 33.96C294.599 35.7787 294.276 38.1253 294.276 41C294.276 43.8747 294.599 46.2213 295.244 48.04C295.89 49.8 296.828 51.12 298.06 52C299.292 52.8213 300.759 53.232 302.46 53.232C304.22 53.232 305.716 52.8213 306.948 52C308.18 51.12 309.119 49.8 309.764 48.04C310.41 46.2213 310.732 43.8747 310.732 41C310.732 38.1253 310.41 35.7787 309.764 33.96C309.119 32.1413 308.18 30.8213 306.948 30C305.716 29.1787 304.22 28.768 302.46 28.768ZM349.068 63.88C346.076 63.88 343.436 63.3813 341.148 62.384C338.919 61.328 337.159 59.656 335.868 57.368C334.577 55.08 333.932 52.088 333.932 48.392V19H348.892V44.872C348.892 47.688 349.449 49.6533 350.564 50.768C351.679 51.8827 353.263 52.44 355.316 52.44C356.372 52.44 357.369 52.264 358.308 51.912C359.247 51.5013 360.068 50.9147 360.772 50.152C361.476 49.3307 362.004 48.304 362.356 47.072C362.767 45.7813 362.972 44.2853 362.972 42.584V19H377.932V63H364.556L364.116 54.728C362.708 57.8373 360.743 60.1547 358.22 61.68C355.697 63.1467 352.647 63.88 349.068 63.88ZM388.681 63V19H401.881L402.497 28.504C403.611 25.2187 405.254 22.6667 407.425 20.848C409.654 19.0293 412.47 18.12 415.873 18.12C416.987 18.12 417.926 18.208 418.689 18.384C419.51 18.56 420.155 18.7947 420.625 19.088L419.129 31.408C418.542 31.1733 417.779 30.9973 416.841 30.88C415.961 30.704 414.875 30.616 413.585 30.616C411.825 30.616 410.182 30.9973 408.657 31.76C407.131 32.5227 405.899 33.6667 404.961 35.192C404.081 36.6587 403.641 38.536 403.641 40.824V63H388.681ZM20.56 167.88C16.9227 167.88 13.7253 167 10.968 165.24C8.26933 163.421 6.15733 160.811 4.632 157.408C3.16533 154.005 2.432 149.928 2.432 145.176C2.432 140.248 3.19467 136.083 4.72 132.68C6.304 129.277 8.47467 126.667 11.232 124.848C14.048 123.029 17.2747 122.12 20.912 122.12C24.9013 122.12 28.0987 123.352 30.504 125.816C32.968 128.221 34.552 131.301 35.256 135.056L33.848 136.904V104.344H48.808V167H35.432L34.464 152.04L36.224 153.36C35.872 156.293 34.9627 158.845 33.496 161.016C32.088 163.187 30.2693 164.888 28.04 166.12C25.8693 167.293 23.376 167.88 20.56 167.88ZM25.752 156.88C27.4533 156.88 28.8907 156.44 30.064 155.56C31.296 154.621 32.2347 153.243 32.88 151.424C33.5253 149.605 33.848 147.376 33.848 144.736C33.848 142.272 33.5253 140.189 32.88 138.488C32.2933 136.728 31.384 135.408 30.152 134.528C28.9787 133.589 27.5413 133.12 25.84 133.12C23.2587 133.12 21.2053 134.088 19.68 136.024C18.2133 137.901 17.48 140.893 17.48 145C17.48 149.107 18.2133 152.128 19.68 154.064C21.1467 155.941 23.1707 156.88 25.752 156.88ZM81.0119 167.88C76.1425 167.88 71.9185 166.971 68.3399 165.152C64.8199 163.333 62.0919 160.723 60.1559 157.32C58.2199 153.917 57.2519 149.811 57.2519 145C57.2519 140.189 58.2199 136.083 60.1559 132.68C62.0919 129.277 64.7905 126.667 68.2519 124.848C71.7719 123.029 75.7905 122.12 80.3079 122.12C84.9425 122.12 88.8732 123.029 92.0999 124.848C95.3852 126.608 97.8785 129.072 99.5799 132.24C101.281 135.349 102.132 138.928 102.132 142.976C102.132 144.032 102.103 145.088 102.044 146.144C101.985 147.2 101.897 148.08 101.78 148.784H66.9319V140.776H95.1799L88.0519 143.504C88.0519 139.984 87.4065 137.285 86.1159 135.408C84.8839 133.531 82.9479 132.592 80.3079 132.592C78.4305 132.592 76.8172 133.032 75.4679 133.912C74.1772 134.792 73.1799 136.171 72.4759 138.048C71.8305 139.925 71.5079 142.331 71.5079 145.264C71.5079 148.139 71.8892 150.485 72.6519 152.304C73.4145 154.064 74.4999 155.355 75.9079 156.176C77.3159 156.939 79.0172 157.32 81.0119 157.32C83.2412 157.32 85.0012 156.88 86.2919 156C87.6412 155.12 88.6385 153.888 89.2839 152.304L101.252 156.264C100.431 158.787 98.9932 160.928 96.9399 162.688C94.9452 164.389 92.5399 165.68 89.7239 166.56C86.9665 167.44 84.0625 167.88 81.0119 167.88ZM128.981 167.88C124.581 167.88 120.474 167.176 116.661 165.768C112.906 164.301 109.797 162.219 107.333 159.52L114.373 151.248C115.839 153.125 117.775 154.709 120.181 156C122.645 157.232 125.373 157.848 128.365 157.848C130.183 157.848 131.679 157.584 132.853 157.056C134.026 156.528 134.613 155.707 134.613 154.592C134.613 153.771 134.319 153.125 133.733 152.656C133.146 152.128 131.973 151.688 130.213 151.336L124.053 150.104C118.538 148.989 114.607 147.347 112.261 145.176C109.973 142.947 108.829 140.043 108.829 136.464C108.829 134.059 109.562 131.771 111.029 129.6C112.495 127.371 114.754 125.581 117.805 124.232C120.855 122.824 124.757 122.12 129.509 122.12C133.967 122.12 137.898 122.765 141.301 124.056C144.703 125.347 147.402 127.224 149.397 129.688L142.269 137.784C140.861 136.024 139.042 134.645 136.813 133.648C134.583 132.651 132.354 132.152 130.125 132.152C128.717 132.152 127.514 132.299 126.517 132.592C125.578 132.827 124.874 133.179 124.405 133.648C123.935 134.117 123.701 134.704 123.701 135.408C123.701 136.171 124.053 136.845 124.757 137.432C125.519 137.96 126.898 138.429 128.893 138.84L136.901 140.424C141.418 141.245 144.674 142.741 146.669 144.912C148.663 147.083 149.661 149.693 149.661 152.744C149.661 155.619 148.898 158.2 147.373 160.488C145.847 162.776 143.559 164.595 140.509 165.944C137.458 167.235 133.615 167.88 128.981 167.88ZM164.903 117.896C161.852 117.896 159.623 117.339 158.215 116.224C156.865 115.051 156.191 113.232 156.191 110.768C156.191 108.245 156.865 106.427 158.215 105.312C159.623 104.139 161.852 103.552 164.903 103.552C167.895 103.552 170.095 104.139 171.503 105.312C172.911 106.427 173.615 108.245 173.615 110.768C173.615 113.232 172.911 115.051 171.503 116.224C170.095 117.339 167.895 117.896 164.903 117.896ZM172.383 123V167H157.423V123H172.383ZM225.624 111.208L226.856 121.24C226.504 121.123 226.152 121.064 225.8 121.064C225.448 121.005 225.096 120.976 224.744 120.976C222.163 120.976 220.227 121.621 218.936 122.912C217.704 124.144 217.088 125.699 217.088 127.576L211.808 125.64C211.808 123.235 212.248 120.917 213.128 118.688C214.008 116.459 215.357 114.64 217.176 113.232C219.053 111.824 221.4 111.12 224.216 111.12C224.392 111.12 224.597 111.12 224.832 111.12C225.125 111.12 225.389 111.149 225.624 111.208ZM210.488 157.232C215.592 157.232 219.493 158.317 222.192 160.488C224.949 162.6 226.328 165.651 226.328 169.64C226.328 173.277 225.331 176.299 223.336 178.704C221.341 181.109 218.525 182.899 214.888 184.072C211.309 185.304 207.056 185.92 202.128 185.92C194.149 185.92 188.4 184.923 184.88 182.928C181.36 180.933 179.6 178.235 179.6 174.832C179.6 172.368 180.597 170.373 182.592 168.848C184.587 167.323 187.901 166.501 192.536 166.384L192.184 167.792C188.605 167.323 185.936 166.267 184.176 164.624C182.416 162.981 181.536 160.752 181.536 157.936C181.536 155.12 182.651 152.832 184.88 151.072C187.109 149.312 190.072 148.344 193.768 148.168L199.224 150.72H197.816C195.528 150.837 193.915 151.219 192.976 151.864C192.037 152.509 191.568 153.301 191.568 154.24C191.568 155.237 191.979 156 192.8 156.528C193.621 156.997 194.853 157.232 196.496 157.232H210.488ZM202.216 176.24C205.032 176.24 207.349 176.035 209.168 175.624C211.045 175.272 212.453 174.744 213.392 174.04C214.331 173.395 214.8 172.632 214.8 171.752C214.8 170.872 214.477 170.168 213.832 169.64C213.187 169.171 212.013 168.936 210.312 168.936H194.56C193.445 168.936 192.536 169.229 191.832 169.816C191.187 170.403 190.864 171.136 190.864 172.016C190.864 173.365 191.861 174.392 193.856 175.096C195.851 175.859 198.637 176.24 202.216 176.24ZM202.744 122.12C207.203 122.12 211.016 122.707 214.184 123.88C217.352 125.053 219.757 126.755 221.4 128.984C223.101 131.155 223.952 133.853 223.952 137.08C223.952 140.248 223.101 142.947 221.4 145.176C219.757 147.405 217.352 149.107 214.184 150.28C211.016 151.395 207.203 151.952 202.744 151.952C195.763 151.952 190.453 150.661 186.816 148.08C183.237 145.499 181.448 141.832 181.448 137.08C181.448 133.853 182.269 131.155 183.912 128.984C185.613 126.755 188.048 125.053 191.216 123.88C194.384 122.707 198.227 122.12 202.744 122.12ZM202.744 130.656C200.808 130.656 199.224 131.213 197.992 132.328C196.819 133.443 196.232 135.027 196.232 137.08C196.232 139.075 196.819 140.629 197.992 141.744C199.224 142.859 200.808 143.416 202.744 143.416C204.621 143.416 206.176 142.859 207.408 141.744C208.64 140.629 209.256 139.075 209.256 137.08C209.256 135.027 208.64 133.443 207.408 132.328C206.176 131.213 204.621 130.656 202.744 130.656ZM232.274 167V123H245.65L246.442 138.136L244.77 136.464C245.357 133.296 246.384 130.656 247.85 128.544C249.376 126.432 251.253 124.848 253.482 123.792C255.77 122.677 258.322 122.12 261.138 122.12C264.189 122.12 266.829 122.707 269.058 123.88C271.346 125.053 273.136 126.784 274.426 129.072C275.717 131.36 276.362 134.235 276.362 137.696V167H261.402V141.656C261.402 138.605 260.816 136.493 259.642 135.32C258.469 134.147 256.973 133.56 255.154 133.56C253.746 133.56 252.426 133.912 251.194 134.616C249.962 135.261 248.994 136.317 248.29 137.784C247.586 139.251 247.234 141.216 247.234 143.68V167H232.274ZM305.325 167.88C300.925 167.88 296.818 167.176 293.005 165.768C289.25 164.301 286.141 162.219 283.677 159.52L290.717 151.248C292.183 153.125 294.119 154.709 296.525 156C298.989 157.232 301.717 157.848 304.709 157.848C306.527 157.848 308.023 157.584 309.197 157.056C310.37 156.528 310.957 155.707 310.957 154.592C310.957 153.771 310.663 153.125 310.077 152.656C309.49 152.128 308.317 151.688 306.557 151.336L300.397 150.104C294.882 148.989 290.951 147.347 288.605 145.176C286.317 142.947 285.173 140.043 285.173 136.464C285.173 134.059 285.906 131.771 287.373 129.6C288.839 127.371 291.098 125.581 294.149 124.232C297.199 122.824 301.101 122.12 305.853 122.12C310.311 122.12 314.242 122.765 317.645 124.056C321.047 125.347 323.746 127.224 325.741 129.688L318.613 137.784C317.205 136.024 315.386 134.645 313.157 133.648C310.927 132.651 308.698 132.152 306.469 132.152C305.061 132.152 303.858 132.299 302.861 132.592C301.922 132.827 301.218 133.179 300.749 133.648C300.279 134.117 300.045 134.704 300.045 135.408C300.045 136.171 300.397 136.845 301.101 137.432C301.863 137.96 303.242 138.429 305.237 138.84L313.245 140.424C317.762 141.245 321.018 142.741 323.013 144.912C325.007 147.083 326.005 149.693 326.005 152.744C326.005 155.619 325.242 158.2 323.717 160.488C322.191 162.776 319.903 164.595 316.853 165.944C313.802 167.235 309.959 167.88 305.325 167.88ZM376.651 109.008V151.336C376.651 153.448 377.149 154.973 378.147 155.912C379.203 156.792 380.64 157.232 382.459 157.232C383.867 157.232 385.069 157.085 386.067 156.792C387.123 156.44 388.061 155.941 388.883 155.296L390.467 164.536C389 165.592 387.152 166.413 384.923 167C382.693 167.587 380.405 167.88 378.059 167.88C374.715 167.88 371.811 167.411 369.347 166.472C366.941 165.533 365.064 164.037 363.715 161.984C362.424 159.931 361.749 157.203 361.691 153.8V113.144L376.651 109.008ZM389.763 123V133.648H354.123V123H389.763ZM417.617 122.12C422.251 122.12 426.299 123.029 429.761 124.848C433.281 126.608 436.009 129.219 437.945 132.68C439.939 136.083 440.937 140.189 440.937 145C440.937 149.811 439.939 153.947 437.945 157.408C436.009 160.811 433.281 163.421 429.761 165.24C426.299 167 422.251 167.88 417.617 167.88C413.099 167.88 409.081 167 405.561 165.24C402.041 163.421 399.283 160.811 397.289 157.408C395.353 153.947 394.385 149.811 394.385 145C394.385 140.189 395.353 136.083 397.289 132.68C399.283 129.219 402.041 126.608 405.561 124.848C409.081 123.029 413.099 122.12 417.617 122.12ZM417.617 132.768C415.915 132.768 414.449 133.179 413.217 134C411.985 134.821 411.046 136.141 410.401 137.96C409.755 139.779 409.433 142.125 409.433 145C409.433 147.875 409.755 150.221 410.401 152.04C411.046 153.8 411.985 155.12 413.217 156C414.449 156.821 415.915 157.232 417.617 157.232C419.377 157.232 420.873 156.821 422.105 156C423.337 155.12 424.275 153.8 424.921 152.04C425.566 150.221 425.889 147.875 425.889 145C425.889 142.125 425.566 139.779 424.921 137.96C424.275 136.141 423.337 134.821 422.105 134C420.873 133.179 419.377 132.768 417.617 132.768ZM22.76 213.008V255.336C22.76 257.448 23.2587 258.973 24.256 259.912C25.312 260.792 26.7493 261.232 28.568 261.232C29.976 261.232 31.1787 261.085 32.176 260.792C33.232 260.44 34.1707 259.941 34.992 259.296L36.576 268.536C35.1093 269.592 33.2613 270.413 31.032 271C28.8027 271.587 26.5147 271.88 24.168 271.88C20.824 271.88 17.92 271.411 15.456 270.472C13.0507 269.533 11.1733 268.037 9.824 265.984C8.53333 263.931 7.85867 261.203 7.8 257.8V217.144L22.76 213.008ZM35.872 227V237.648H0.232V227H35.872ZM43.8133 271V208.344H58.7733V235.008C60.064 232.075 61.912 229.875 64.3173 228.408C66.7226 226.883 69.5093 226.12 72.6773 226.12C75.728 226.12 78.368 226.707 80.5973 227.88C82.8853 229.053 84.6746 230.784 85.9653 233.072C87.256 235.36 87.9013 238.235 87.9013 241.696V271H72.9413V245.832C72.9413 242.664 72.3546 240.493 71.1813 239.32C70.0666 238.088 68.5706 237.472 66.6933 237.472C65.2853 237.472 63.9653 237.824 62.7333 238.528C61.5013 239.232 60.5333 240.347 59.8293 241.872C59.1253 243.397 58.7733 245.392 58.7733 247.856V271H43.8133ZM119.856 271.88C114.986 271.88 110.762 270.971 107.184 269.152C103.664 267.333 100.936 264.723 98.9996 261.32C97.0636 257.917 96.0956 253.811 96.0956 249C96.0956 244.189 97.0636 240.083 98.9996 236.68C100.936 233.277 103.634 230.667 107.096 228.848C110.616 227.029 114.634 226.12 119.152 226.12C123.786 226.12 127.717 227.029 130.944 228.848C134.229 230.608 136.722 233.072 138.424 236.24C140.125 239.349 140.976 242.928 140.976 246.976C140.976 248.032 140.946 249.088 140.888 250.144C140.829 251.2 140.741 252.08 140.624 252.784H105.776V244.776H134.024L126.896 247.504C126.896 243.984 126.25 241.285 124.96 239.408C123.728 237.531 121.792 236.592 119.152 236.592C117.274 236.592 115.661 237.032 114.312 237.912C113.021 238.792 112.024 240.171 111.32 242.048C110.674 243.925 110.352 246.331 110.352 249.264C110.352 252.139 110.733 254.485 111.496 256.304C112.258 258.064 113.344 259.355 114.752 260.176C116.16 260.939 117.861 261.32 119.856 261.32C122.085 261.32 123.845 260.88 125.136 260C126.485 259.12 127.482 257.888 128.128 256.304L140.096 260.264C139.274 262.787 137.837 264.928 135.784 266.688C133.789 268.389 131.384 269.68 128.568 270.56C125.81 271.44 122.906 271.88 119.856 271.88ZM174.524 271V227H187.9L188.692 242.136L187.02 240.464C187.607 237.296 188.634 234.656 190.1 232.544C191.626 230.432 193.503 228.848 195.732 227.792C198.02 226.677 200.572 226.12 203.388 226.12C206.439 226.12 209.079 226.707 211.308 227.88C213.596 229.053 215.386 230.784 216.676 233.072C217.967 235.36 218.612 238.235 218.612 241.696V271H203.652V245.656C203.652 242.605 203.066 240.493 201.892 239.32C200.719 238.147 199.223 237.56 197.404 237.56C195.996 237.56 194.676 237.912 193.444 238.616C192.212 239.261 191.244 240.317 190.54 241.784C189.836 243.251 189.484 245.216 189.484 247.68V271H174.524ZM250.567 271.88C245.697 271.88 241.473 270.971 237.895 269.152C234.375 267.333 231.647 264.723 229.711 261.32C227.775 257.917 226.807 253.811 226.807 249C226.807 244.189 227.775 240.083 229.711 236.68C231.647 233.277 234.345 230.667 237.807 228.848C241.327 227.029 245.345 226.12 249.863 226.12C254.497 226.12 258.428 227.029 261.655 228.848C264.94 230.608 267.433 233.072 269.135 236.24C270.836 239.349 271.687 242.928 271.687 246.976C271.687 248.032 271.657 249.088 271.599 250.144C271.54 251.2 271.452 252.08 271.335 252.784H236.487V244.776H264.735L257.607 247.504C257.607 243.984 256.961 241.285 255.671 239.408C254.439 237.531 252.503 236.592 249.863 236.592C247.985 236.592 246.372 237.032 245.023 237.912C243.732 238.792 242.735 240.171 242.031 242.048C241.385 243.925 241.063 246.331 241.063 249.264C241.063 252.139 241.444 254.485 242.207 256.304C242.969 258.064 244.055 259.355 245.463 260.176C246.871 260.939 248.572 261.32 250.567 261.32C252.796 261.32 254.556 260.88 255.847 260C257.196 259.12 258.193 257.888 258.839 256.304L270.807 260.264C269.985 262.787 268.548 264.928 266.495 266.688C264.5 268.389 262.095 269.68 259.279 270.56C256.521 271.44 253.617 271.88 250.567 271.88ZM290.757 227L301.493 246.8L306.421 246.36L323.757 271H306.597L295.509 250.936H290.317L273.509 227H290.757ZM323.405 227L306.773 250.76L301.229 250.408L289.701 271H272.893L290.581 246.184L295.685 246.888L306.597 227H323.405ZM348.033 213.008V255.336C348.033 257.448 348.532 258.973 349.529 259.912C350.585 260.792 352.023 261.232 353.841 261.232C355.249 261.232 356.452 261.085 357.449 260.792C358.505 260.44 359.444 259.941 360.265 259.296L361.849 268.536C360.383 269.592 358.535 270.413 356.305 271C354.076 271.587 351.788 271.88 349.441 271.88C346.097 271.88 343.193 271.411 340.729 270.472C338.324 269.533 336.447 268.037 335.097 265.984C333.807 263.931 333.132 261.203 333.073 257.8V217.144L348.033 213.008ZM361.145 227V237.648H325.505V227H361.145ZM19.152 312.344V360.04C19.152 361.976 19.4747 363.355 20.12 364.176C20.7653 364.997 21.8507 365.408 23.376 365.408C24.256 365.408 24.9893 365.349 25.576 365.232C26.1627 365.115 26.8667 364.939 27.688 364.704L26.72 373.68C25.664 374.325 24.2853 374.853 22.584 375.264C20.8827 375.675 19.2107 375.88 17.568 375.88C12.8747 375.88 9.472 374.795 7.36 372.624C5.248 370.453 4.192 366.904 4.192 361.976V312.344H19.152ZM54.6291 375.88C49.7597 375.88 45.5357 374.971 41.9571 373.152C38.4371 371.333 35.7091 368.723 33.7731 365.32C31.8371 361.917 30.8691 357.811 30.8691 353C30.8691 348.189 31.8371 344.083 33.7731 340.68C35.7091 337.277 38.4077 334.667 41.8691 332.848C45.3891 331.029 49.4077 330.12 53.9251 330.12C58.5597 330.12 62.4904 331.029 65.7171 332.848C69.0024 334.608 71.4957 337.072 73.1971 340.24C74.8984 343.349 75.7491 346.928 75.7491 350.976C75.7491 352.032 75.7197 353.088 75.6611 354.144C75.6024 355.2 75.5144 356.08 75.3971 356.784H40.5491V348.776H68.7971L61.6691 351.504C61.6691 347.984 61.0237 345.285 59.7331 343.408C58.5011 341.531 56.5651 340.592 53.9251 340.592C52.0477 340.592 50.4344 341.032 49.0851 341.912C47.7944 342.792 46.7971 344.171 46.0931 346.048C45.4477 347.925 45.1251 350.331 45.1251 353.264C45.1251 356.139 45.5064 358.485 46.2691 360.304C47.0317 362.064 48.1171 363.355 49.5251 364.176C50.9331 364.939 52.6344 365.32 54.6291 365.32C56.8584 365.32 58.6184 364.88 59.9091 364C61.2584 363.12 62.2557 361.888 62.9011 360.304L74.8691 364.264C74.0477 366.787 72.6104 368.928 70.5571 370.688C68.5624 372.389 66.1571 373.68 63.3411 374.56C60.5837 375.44 57.6797 375.88 54.6291 375.88ZM111.343 331H126.831L110.991 375H93.127L77.287 331H93.039L102.103 364.528L111.343 331ZM152.77 375.88C147.9 375.88 143.676 374.971 140.098 373.152C136.578 371.333 133.85 368.723 131.914 365.32C129.978 361.917 129.01 357.811 129.01 353C129.01 348.189 129.978 344.083 131.914 340.68C133.85 337.277 136.548 334.667 140.01 332.848C143.53 331.029 147.548 330.12 152.066 330.12C156.7 330.12 160.631 331.029 163.858 332.848C167.143 334.608 169.636 337.072 171.338 340.24C173.039 343.349 173.89 346.928 173.89 350.976C173.89 352.032 173.86 353.088 173.802 354.144C173.743 355.2 173.655 356.08 173.538 356.784H138.69V348.776H166.938L159.81 351.504C159.81 347.984 159.164 345.285 157.874 343.408C156.642 341.531 154.706 340.592 152.066 340.592C150.188 340.592 148.575 341.032 147.226 341.912C145.935 342.792 144.938 344.171 144.234 346.048C143.588 347.925 143.266 350.331 143.266 353.264C143.266 356.139 143.647 358.485 144.41 360.304C145.172 362.064 146.258 363.355 147.666 364.176C149.074 364.939 150.775 365.32 152.77 365.32C154.999 365.32 156.759 364.88 158.05 364C159.399 363.12 160.396 361.888 161.042 360.304L173.01 364.264C172.188 366.787 170.751 368.928 168.698 370.688C166.703 372.389 164.298 373.68 161.482 374.56C158.724 375.44 155.82 375.88 152.77 375.88ZM197.043 312.344V360.04C197.043 361.976 197.365 363.355 198.011 364.176C198.656 364.997 199.741 365.408 201.267 365.408C202.147 365.408 202.88 365.349 203.467 365.232C204.053 365.115 204.757 364.939 205.579 364.704L204.611 373.68C203.555 374.325 202.176 374.853 200.475 375.264C198.773 375.675 197.101 375.88 195.459 375.88C190.765 375.88 187.363 374.795 185.251 372.624C183.139 370.453 182.083 366.904 182.083 361.976V312.344H197.043Z" fill="white"/>
</svg>
