<svg width="136" height="136" viewBox="0 0 136 136" fill="none" xmlns="http://www.w3.org/2000/svg">
<path d="M80.2451 36.2675L80.6201 37.2822L81.6016 36.8291L113.915 21.9375L99.0234 54.2509L98.5713 55.2334L99.5859 55.6074L132.965 67.9258L99.5859 80.2451L98.5713 80.6201L99.0234 81.6015L113.916 113.916L81.6016 99.0234L80.6201 98.5713L80.2451 99.5859L67.9258 132.965L55.6074 99.5859L55.2334 98.5713L54.251 99.0234L21.9375 113.915L36.8291 81.6015L37.2822 80.6201L36.2676 80.2451L2.8877 67.9258L36.2676 55.6074L37.2822 55.2334L36.8291 54.2509L21.9375 21.9375L54.251 36.8291L55.2334 37.2822L55.6074 36.2675L67.9258 2.88766L80.2451 36.2675Z" fill="white" stroke="#020202" stroke-width="2"/>
</svg>
