<svg width="256" height="60" viewBox="0 0 256 60" fill="none" xmlns="http://www.w3.org/2000/svg">
<rect y="-0.000732422" width="256" height="60" rx="16" fill="#685FD4"/>
<path d="M26.592 37.9993V22.1593H37.704V23.9593H28.512V29.0713H35.664V30.8713H28.512V36.1993H38.064V37.9993H26.592ZM41.5367 37.9993V25.9993H43.0967L43.3607 27.9673C43.6967 27.2313 44.1847 26.6793 44.8247 26.3113C45.4807 25.9433 46.2727 25.7593 47.2007 25.7593C47.4087 25.7593 47.6327 25.7753 47.8727 25.8073C48.1287 25.8393 48.3447 25.9033 48.5207 25.9993L48.1847 27.7513C48.0087 27.6873 47.8167 27.6393 47.6087 27.6073C47.4007 27.5753 47.1047 27.5593 46.7207 27.5593C46.2247 27.5593 45.7207 27.7033 45.2087 27.9913C44.7127 28.2793 44.2967 28.7193 43.9607 29.3113C43.6247 29.8873 43.4567 30.6233 43.4567 31.5193V37.9993H41.5367ZM60.8282 23.7913L61.2602 25.4953C61.2442 25.4953 61.2202 25.4953 61.1882 25.4953C61.1562 25.4953 61.1242 25.4953 61.0922 25.4953C60.3082 25.4953 59.7002 25.6553 59.2682 25.9753C58.8522 26.2793 58.6442 26.7753 58.6442 27.4633L57.4682 26.8633C57.4682 26.2393 57.6122 25.6953 57.9002 25.2313C58.1882 24.7673 58.5802 24.4153 59.0762 24.1753C59.5722 23.9193 60.1162 23.7913 60.7082 23.7913C60.7242 23.7913 60.7402 23.7913 60.7562 23.7913C60.7882 23.7913 60.8122 23.7913 60.8282 23.7913ZM57.1802 36.4633C58.3162 36.4633 59.2042 36.7273 59.8442 37.2553C60.4842 37.7673 60.8042 38.4553 60.8042 39.3193C60.8042 40.1033 60.5402 40.7833 60.0122 41.3593C59.5002 41.9353 58.8042 42.3753 57.9242 42.6793C57.0602 42.9993 56.0842 43.1593 54.9962 43.1593C53.1082 43.1593 51.6922 42.8393 50.7482 42.1993C49.8202 41.5593 49.3562 40.7913 49.3562 39.8953C49.3562 39.2553 49.5642 38.6793 49.9802 38.1673C50.4122 37.6713 51.1322 37.3913 52.1402 37.3273L51.9722 37.6873C51.4282 37.5433 50.9642 37.3033 50.5802 36.9673C50.2122 36.6153 50.0282 36.1113 50.0282 35.4553C50.0282 34.7993 50.2682 34.2393 50.7482 33.7753C51.2442 33.2953 51.9722 32.9993 52.9322 32.8873L54.2042 33.5353H53.9642C53.1802 33.6153 52.6202 33.8153 52.2842 34.1353C51.9642 34.4393 51.8042 34.7753 51.8042 35.1433C51.8042 35.5913 51.9642 35.9273 52.2842 36.1513C52.6202 36.3593 53.0842 36.4633 53.6762 36.4633H57.1802ZM54.9722 41.5513C55.9002 41.5513 56.6602 41.4553 57.2522 41.2633C57.8602 41.0713 58.3082 40.8233 58.5962 40.5193C58.8842 40.2153 59.0282 39.8873 59.0282 39.5353C59.0282 39.1033 58.8522 38.7593 58.5002 38.5033C58.1642 38.2473 57.5482 38.1193 56.6522 38.1193H52.9562C52.4442 38.1193 52.0122 38.2473 51.6602 38.5033C51.3082 38.7753 51.1322 39.1433 51.1322 39.6073C51.1322 40.1993 51.4682 40.6713 52.1402 41.0233C52.8282 41.3753 53.7722 41.5513 54.9722 41.5513ZM54.8042 25.7593C55.7642 25.7593 56.6122 25.9353 57.3482 26.2873C58.1002 26.6233 58.6842 27.0953 59.1002 27.7033C59.5162 28.3113 59.7242 29.0153 59.7242 29.8153C59.7242 30.5993 59.5162 31.3033 59.1002 31.9273C58.6842 32.5353 58.1002 33.0153 57.3482 33.3673C56.6122 33.7033 55.7642 33.8713 54.8042 33.8713C53.2202 33.8713 52.0042 33.4953 51.1562 32.7433C50.3082 31.9753 49.8842 30.9993 49.8842 29.8153C49.8842 29.0153 50.0922 28.3113 50.5082 27.7033C50.9402 27.0953 51.5242 26.6233 52.2602 26.2873C52.9962 25.9353 53.8442 25.7593 54.8042 25.7593ZM54.8042 27.3193C53.9722 27.3193 53.2762 27.5513 52.7162 28.0153C52.1562 28.4633 51.8762 29.0633 51.8762 29.8153C51.8762 30.5513 52.1562 31.1513 52.7162 31.6153C53.2762 32.0793 53.9722 32.3113 54.8042 32.3113C55.6362 32.3113 56.3322 32.0793 56.8922 31.6153C57.4522 31.1513 57.7322 30.5513 57.7322 29.8153C57.7322 29.0633 57.4522 28.4633 56.8922 28.0153C56.3322 27.5513 55.6362 27.3193 54.8042 27.3193ZM68.4656 25.7593C69.6016 25.7593 70.6016 26.0073 71.4656 26.5033C72.3456 26.9993 73.0336 27.7193 73.5296 28.6633C74.0256 29.5913 74.2736 30.7033 74.2736 31.9993C74.2736 33.2953 74.0256 34.4153 73.5296 35.3593C73.0336 36.2873 72.3456 36.9993 71.4656 37.4953C70.6016 37.9913 69.6016 38.2393 68.4656 38.2393C67.3456 38.2393 66.3456 37.9913 65.4656 37.4953C64.5856 36.9993 63.8976 36.2873 63.4016 35.3593C62.9056 34.4153 62.6576 33.2953 62.6576 31.9993C62.6576 30.7033 62.9056 29.5913 63.4016 28.6633C63.8976 27.7193 64.5856 26.9993 65.4656 26.5033C66.3456 26.0073 67.3456 25.7593 68.4656 25.7593ZM68.4656 27.4153C67.6496 27.4153 66.9536 27.5993 66.3776 27.9673C65.8016 28.3353 65.3536 28.8633 65.0336 29.5513C64.7296 30.2233 64.5776 31.0393 64.5776 31.9993C64.5776 32.9433 64.7296 33.7593 65.0336 34.4473C65.3536 35.1353 65.8016 35.6633 66.3776 36.0313C66.9536 36.3993 67.6496 36.5833 68.4656 36.5833C69.2816 36.5833 69.9776 36.3993 70.5536 36.0313C71.1296 35.6633 71.5696 35.1353 71.8736 34.4473C72.1936 33.7593 72.3536 32.9433 72.3536 31.9993C72.3536 31.0393 72.1936 30.2233 71.8736 29.5513C71.5696 28.8633 71.1296 28.3353 70.5536 27.9673C69.9776 27.5993 69.2816 27.4153 68.4656 27.4153ZM77.8883 37.9993V25.9993H79.5683L79.7363 28.6873L79.4243 28.4233C79.6803 27.7833 80.0243 27.2713 80.4563 26.8873C80.8883 26.4873 81.3843 26.1993 81.9443 26.0233C82.5203 25.8473 83.1123 25.7593 83.7203 25.7593C84.5843 25.7593 85.3683 25.9273 86.0723 26.2633C86.7763 26.5833 87.3363 27.0793 87.7523 27.7513C88.1843 28.4233 88.4003 29.2793 88.4003 30.3193V37.9993H86.4803V30.9913C86.4803 29.6633 86.1923 28.7433 85.6163 28.2313C85.0563 27.7033 84.3603 27.4393 83.5283 27.4393C82.9523 27.4393 82.3763 27.5753 81.8003 27.8473C81.2243 28.1193 80.7443 28.5593 80.3603 29.1673C79.9923 29.7753 79.8083 30.5913 79.8083 31.6153V37.9993H77.8883ZM97.7156 25.7593C98.8516 25.7593 99.8516 26.0073 100.716 26.5033C101.596 26.9993 102.284 27.7193 102.78 28.6633C103.276 29.5913 103.524 30.7033 103.524 31.9993C103.524 33.2953 103.276 34.4153 102.78 35.3593C102.284 36.2873 101.596 36.9993 100.716 37.4953C99.8516 37.9913 98.8516 38.2393 97.7156 38.2393C96.5956 38.2393 95.5956 37.9913 94.7156 37.4953C93.8356 36.9993 93.1476 36.2873 92.6516 35.3593C92.1556 34.4153 91.9076 33.2953 91.9076 31.9993C91.9076 30.7033 92.1556 29.5913 92.6516 28.6633C93.1476 27.7193 93.8356 26.9993 94.7156 26.5033C95.5956 26.0073 96.5956 25.7593 97.7156 25.7593ZM97.7156 27.4153C96.8996 27.4153 96.2036 27.5993 95.6276 27.9673C95.0516 28.3353 94.6036 28.8633 94.2836 29.5513C93.9796 30.2233 93.8276 31.0393 93.8276 31.9993C93.8276 32.9433 93.9796 33.7593 94.2836 34.4473C94.6036 35.1353 95.0516 35.6633 95.6276 36.0313C96.2036 36.3993 96.8996 36.5833 97.7156 36.5833C98.5316 36.5833 99.2276 36.3993 99.8036 36.0313C100.38 35.6633 100.82 35.1353 101.124 34.4473C101.444 33.7593 101.604 32.9433 101.604 31.9993C101.604 31.0393 101.444 30.2233 101.124 29.5513C100.82 28.8633 100.38 28.3353 99.8036 27.9673C99.2276 27.5993 98.5316 27.4153 97.7156 27.4153ZM107.138 37.9993V25.9993H108.818L108.938 27.8713C109.37 27.1353 109.93 26.5993 110.618 26.2633C111.322 25.9273 112.042 25.7593 112.778 25.7593C113.626 25.7593 114.426 25.9513 115.178 26.3353C115.93 26.7193 116.506 27.3113 116.906 28.1113C117.162 27.5673 117.522 27.1273 117.986 26.7913C118.45 26.4393 118.954 26.1833 119.498 26.0233C120.058 25.8473 120.586 25.7593 121.082 25.7593C121.85 25.7593 122.578 25.9193 123.266 26.2393C123.97 26.5593 124.546 27.0553 124.994 27.7273C125.442 28.3993 125.666 29.2633 125.666 30.3193V37.9993H123.746V30.5113C123.746 29.4233 123.474 28.6393 122.93 28.1593C122.386 27.6793 121.714 27.4393 120.914 27.4393C120.29 27.4393 119.706 27.5913 119.162 27.8953C118.618 28.1993 118.178 28.6473 117.842 29.2393C117.522 29.8313 117.362 30.5593 117.362 31.4233V37.9993H115.442V30.5113C115.442 29.4233 115.17 28.6393 114.626 28.1593C114.082 27.6793 113.41 27.4393 112.61 27.4393C112.082 27.4393 111.538 27.5833 110.978 27.8713C110.434 28.1433 109.978 28.5833 109.61 29.1913C109.242 29.7993 109.058 30.5993 109.058 31.5913V37.9993H107.138ZM130.973 23.6953C130.541 23.6953 130.189 23.5673 129.917 23.3113C129.661 23.0393 129.533 22.6873 129.533 22.2553C129.533 21.8233 129.661 21.4793 129.917 21.2233C130.189 20.9513 130.541 20.8153 130.973 20.8153C131.405 20.8153 131.749 20.9513 132.005 21.2233C132.277 21.4793 132.413 21.8233 132.413 22.2553C132.413 22.6873 132.277 23.0393 132.005 23.3113C131.749 23.5673 131.405 23.6953 130.973 23.6953ZM131.933 25.9993V37.9993H130.013V25.9993H131.933ZM141.356 25.7593C142.188 25.7593 142.916 25.8873 143.54 26.1433C144.18 26.3993 144.732 26.7673 145.196 27.2473C145.66 27.7273 146.036 28.2953 146.324 28.9513L144.5 29.8153C144.244 29.0473 143.852 28.4633 143.324 28.0633C142.812 27.6473 142.14 27.4393 141.308 27.4393C140.508 27.4393 139.82 27.6233 139.244 27.9913C138.668 28.3433 138.228 28.8633 137.924 29.5513C137.62 30.2233 137.468 31.0393 137.468 31.9993C137.468 32.9433 137.62 33.7593 137.924 34.4473C138.228 35.1353 138.668 35.6633 139.244 36.0313C139.82 36.3833 140.508 36.5593 141.308 36.5593C141.932 36.5593 142.468 36.4633 142.916 36.2713C143.38 36.0793 143.756 35.7993 144.044 35.4313C144.348 35.0633 144.556 34.6153 144.668 34.0873L146.444 34.7113C146.172 35.4473 145.796 36.0793 145.316 36.6073C144.852 37.1353 144.284 37.5433 143.612 37.8313C142.956 38.1033 142.204 38.2393 141.356 38.2393C140.236 38.2393 139.236 37.9913 138.356 37.4953C137.476 36.9993 136.788 36.2873 136.292 35.3593C135.796 34.4153 135.548 33.2953 135.548 31.9993C135.548 30.7033 135.796 29.5913 136.292 28.6633C136.788 27.7193 137.476 26.9993 138.356 26.5033C139.236 26.0073 140.236 25.7593 141.356 25.7593ZM162.678 38.2393C161.686 38.2393 160.774 37.9913 159.942 37.4953C159.11 36.9993 158.446 36.2873 157.95 35.3593C157.454 34.4153 157.206 33.2953 157.206 31.9993C157.206 30.6713 157.47 29.5433 157.998 28.6153C158.526 27.6873 159.222 26.9833 160.086 26.5033C160.95 26.0073 161.878 25.7593 162.87 25.7593C163.862 25.7593 164.718 26.0153 165.438 26.5273C166.174 27.0393 166.662 27.7193 166.902 28.5673L166.662 28.7353V20.4793H168.582V37.9993H166.902L166.734 35.0953L166.998 34.9513C166.886 35.6553 166.614 36.2553 166.182 36.7513C165.766 37.2313 165.246 37.5993 164.622 37.8553C164.014 38.1113 163.366 38.2393 162.678 38.2393ZM162.87 36.5593C163.638 36.5593 164.302 36.3673 164.862 35.9833C165.438 35.5993 165.878 35.0553 166.182 34.3513C166.502 33.6313 166.662 32.7913 166.662 31.8313C166.662 30.9193 166.502 30.1353 166.182 29.4793C165.878 28.8233 165.446 28.3193 164.886 27.9673C164.342 27.6153 163.702 27.4393 162.966 27.4393C161.75 27.4393 160.806 27.8553 160.134 28.6873C159.462 29.5193 159.126 30.6233 159.126 31.9993C159.126 33.3753 159.454 34.4793 160.11 35.3113C160.766 36.1433 161.686 36.5593 162.87 36.5593ZM178.061 38.2393C176.925 38.2393 175.909 37.9913 175.013 37.4953C174.133 36.9993 173.445 36.2873 172.949 35.3593C172.453 34.4153 172.205 33.2953 172.205 31.9993C172.205 30.7033 172.453 29.5913 172.949 28.6633C173.445 27.7193 174.125 26.9993 174.989 26.5033C175.853 26.0073 176.837 25.7593 177.941 25.7593C179.061 25.7593 180.013 25.9993 180.797 26.4793C181.597 26.9593 182.205 27.6153 182.621 28.4473C183.037 29.2633 183.245 30.1833 183.245 31.2073C183.245 31.4793 183.237 31.7273 183.221 31.9513C183.205 32.1753 183.181 32.3753 183.148 32.5513H173.453V30.8473H182.309L181.325 31.0393C181.325 29.8873 181.005 28.9993 180.365 28.3753C179.741 27.7513 178.917 27.4393 177.893 27.4393C177.109 27.4393 176.429 27.6233 175.853 27.9913C175.293 28.3433 174.853 28.8633 174.533 29.5513C174.229 30.2233 174.077 31.0393 174.077 31.9993C174.077 32.9433 174.237 33.7593 174.557 34.4473C174.877 35.1353 175.325 35.6633 175.901 36.0313C176.493 36.3833 177.197 36.5593 178.013 36.5593C178.893 36.5593 179.605 36.3913 180.149 36.0553C180.709 35.7193 181.157 35.2633 181.493 34.6873L183.005 35.5753C182.701 36.1193 182.309 36.5913 181.829 36.9913C181.365 37.3913 180.813 37.7033 180.173 37.9273C179.549 38.1353 178.845 38.2393 178.061 38.2393ZM191.216 38.2393C190.048 38.2393 188.968 37.9913 187.976 37.4953C187 36.9993 186.248 36.2953 185.72 35.3833L187.352 34.2073C187.704 34.9433 188.216 35.5193 188.888 35.9353C189.576 36.3513 190.4 36.5593 191.36 36.5593C192.208 36.5593 192.872 36.3993 193.352 36.0793C193.832 35.7433 194.072 35.3113 194.072 34.7833C194.072 34.4473 193.96 34.1433 193.736 33.8713C193.528 33.5833 193.12 33.3753 192.512 33.2473L189.632 32.6473C188.464 32.4073 187.624 32.0073 187.112 31.4473C186.616 30.8873 186.368 30.1913 186.368 29.3593C186.368 28.7033 186.552 28.1033 186.92 27.5593C187.304 27.0153 187.84 26.5833 188.528 26.2633C189.232 25.9273 190.056 25.7593 191 25.7593C192.184 25.7593 193.184 25.9913 194 26.4553C194.816 26.9193 195.424 27.5753 195.824 28.4233L194.216 29.4793C193.944 28.7753 193.504 28.2633 192.896 27.9433C192.288 27.6073 191.656 27.4393 191 27.4393C190.424 27.4393 189.928 27.5193 189.512 27.6793C189.112 27.8393 188.8 28.0633 188.576 28.3513C188.368 28.6233 188.264 28.9353 188.264 29.2873C188.264 29.6393 188.384 29.9673 188.624 30.2713C188.864 30.5593 189.312 30.7673 189.968 30.8953L192.968 31.5193C194.088 31.7433 194.872 32.1113 195.32 32.6233C195.768 33.1353 195.992 33.7593 195.992 34.4953C195.992 35.2473 195.792 35.9113 195.392 36.4873C194.992 37.0473 194.432 37.4793 193.712 37.7833C192.992 38.0873 192.16 38.2393 191.216 38.2393ZM200.512 23.6953C200.08 23.6953 199.728 23.5673 199.456 23.3113C199.2 23.0393 199.072 22.6873 199.072 22.2553C199.072 21.8233 199.2 21.4793 199.456 21.2233C199.728 20.9513 200.08 20.8153 200.512 20.8153C200.944 20.8153 201.288 20.9513 201.544 21.2233C201.816 21.4793 201.952 21.8233 201.952 22.2553C201.952 22.6873 201.816 23.0393 201.544 23.3113C201.288 23.5673 200.944 23.6953 200.512 23.6953ZM201.472 25.9993V37.9993H199.552V25.9993H201.472ZM216.031 23.7913L216.463 25.4953C216.447 25.4953 216.423 25.4953 216.391 25.4953C216.359 25.4953 216.327 25.4953 216.295 25.4953C215.511 25.4953 214.903 25.6553 214.471 25.9753C214.055 26.2793 213.847 26.7753 213.847 27.4633L212.671 26.8633C212.671 26.2393 212.815 25.6953 213.103 25.2313C213.391 24.7673 213.783 24.4153 214.279 24.1753C214.775 23.9193 215.319 23.7913 215.911 23.7913C215.927 23.7913 215.943 23.7913 215.959 23.7913C215.991 23.7913 216.015 23.7913 216.031 23.7913ZM212.383 36.4633C213.519 36.4633 214.407 36.7273 215.047 37.2553C215.687 37.7673 216.007 38.4553 216.007 39.3193C216.007 40.1033 215.743 40.7833 215.215 41.3593C214.703 41.9353 214.007 42.3753 213.127 42.6793C212.263 42.9993 211.287 43.1593 210.199 43.1593C208.311 43.1593 206.895 42.8393 205.951 42.1993C205.023 41.5593 204.559 40.7913 204.559 39.8953C204.559 39.2553 204.767 38.6793 205.183 38.1673C205.615 37.6713 206.335 37.3913 207.343 37.3273L207.175 37.6873C206.631 37.5433 206.167 37.3033 205.783 36.9673C205.415 36.6153 205.231 36.1113 205.231 35.4553C205.231 34.7993 205.471 34.2393 205.951 33.7753C206.447 33.2953 207.175 32.9993 208.135 32.8873L209.407 33.5353H209.167C208.383 33.6153 207.823 33.8153 207.487 34.1353C207.167 34.4393 207.007 34.7753 207.007 35.1433C207.007 35.5913 207.167 35.9273 207.487 36.1513C207.823 36.3593 208.287 36.4633 208.879 36.4633H212.383ZM210.175 41.5513C211.103 41.5513 211.863 41.4553 212.455 41.2633C213.063 41.0713 213.511 40.8233 213.799 40.5193C214.087 40.2153 214.231 39.8873 214.231 39.5353C214.231 39.1033 214.055 38.7593 213.703 38.5033C213.367 38.2473 212.751 38.1193 211.855 38.1193H208.159C207.647 38.1193 207.215 38.2473 206.863 38.5033C206.511 38.7753 206.335 39.1433 206.335 39.6073C206.335 40.1993 206.671 40.6713 207.343 41.0233C208.031 41.3753 208.975 41.5513 210.175 41.5513ZM210.007 25.7593C210.967 25.7593 211.815 25.9353 212.551 26.2873C213.303 26.6233 213.887 27.0953 214.303 27.7033C214.719 28.3113 214.927 29.0153 214.927 29.8153C214.927 30.5993 214.719 31.3033 214.303 31.9273C213.887 32.5353 213.303 33.0153 212.551 33.3673C211.815 33.7033 210.967 33.8713 210.007 33.8713C208.423 33.8713 207.207 33.4953 206.359 32.7433C205.511 31.9753 205.087 30.9993 205.087 29.8153C205.087 29.0153 205.295 28.3113 205.711 27.7033C206.143 27.0953 206.727 26.6233 207.463 26.2873C208.199 25.9353 209.047 25.7593 210.007 25.7593ZM210.007 27.3193C209.175 27.3193 208.479 27.5513 207.919 28.0153C207.359 28.4633 207.079 29.0633 207.079 29.8153C207.079 30.5513 207.359 31.1513 207.919 31.6153C208.479 32.0793 209.175 32.3113 210.007 32.3113C210.839 32.3113 211.535 32.0793 212.095 31.6153C212.655 31.1513 212.935 30.5513 212.935 29.8153C212.935 29.0633 212.655 28.4633 212.095 28.0153C211.535 27.5513 210.839 27.3193 210.007 27.3193ZM218.701 37.9993V25.9993H220.381L220.549 28.6873L220.237 28.4233C220.493 27.7833 220.837 27.2713 221.269 26.8873C221.701 26.4873 222.197 26.1993 222.757 26.0233C223.333 25.8473 223.925 25.7593 224.533 25.7593C225.397 25.7593 226.181 25.9273 226.885 26.2633C227.589 26.5833 228.149 27.0793 228.565 27.7513C228.997 28.4233 229.213 29.2793 229.213 30.3193V37.9993H227.293V30.9913C227.293 29.6633 227.005 28.7433 226.429 28.2313C225.869 27.7033 225.173 27.4393 224.341 27.4393C223.765 27.4393 223.189 27.5753 222.613 27.8473C222.037 28.1193 221.557 28.5593 221.173 29.1673C220.805 29.7753 220.621 30.5913 220.621 31.6153V37.9993H218.701Z" fill="white"/>
</svg>
