<svg width="252" height="53" viewBox="0 0 252 53" fill="none" xmlns="http://www.w3.org/2000/svg">
<rect y="0.000183105" width="252" height="53" rx="16" fill="#685FD4"/>
<path d="M35.412 33.0002H33.882L32.622 29.7062H27.24L25.98 33.0002H24.468L29.094 21.1202H30.804L35.412 33.0002ZM27.762 28.3562H32.1L29.922 22.5062L27.762 28.3562ZM48.3682 24.0002H49.9702L46.8382 33.0002H45.3982L42.8602 25.8362L40.4662 33.0002H39.0262L35.8942 24.0002H37.4962L39.7642 31.3262L42.2122 24.0002H43.6522L46.1002 31.3262L48.3682 24.0002ZM57.1917 27.1862C57.1917 26.5142 57.0117 25.9982 56.6517 25.6382C56.2917 25.2662 55.7817 25.0802 55.1217 25.0802C54.4977 25.0802 53.9697 25.2182 53.5377 25.4942C53.1057 25.7582 52.7877 26.1902 52.5837 26.7902L51.4137 26.0702C51.6537 25.3982 52.0977 24.8582 52.7457 24.4502C53.3937 24.0302 54.1977 23.8202 55.1577 23.8202C55.8057 23.8202 56.3937 23.9342 56.9217 24.1622C57.4497 24.3782 57.8637 24.7142 58.1637 25.1702C58.4757 25.6142 58.6317 26.1902 58.6317 26.8982V31.2542C58.6317 31.6862 58.8597 31.9022 59.3157 31.9022C59.5437 31.9022 59.7657 31.8722 59.9817 31.8122L59.9097 32.9462C59.6697 33.0662 59.3577 33.1262 58.9737 33.1262C58.6257 33.1262 58.3137 33.0602 58.0377 32.9282C57.7617 32.7962 57.5457 32.5982 57.3897 32.3342C57.2337 32.0582 57.1557 31.7162 57.1557 31.3082V31.1282L57.5157 31.1822C57.3717 31.6502 57.1257 32.0342 56.7777 32.3342C56.4297 32.6222 56.0397 32.8382 55.6077 32.9822C55.1757 33.1142 54.7497 33.1802 54.3297 33.1802C53.8017 33.1802 53.3097 33.0902 52.8537 32.9102C52.3977 32.7302 52.0317 32.4602 51.7557 32.1002C51.4917 31.7282 51.3597 31.2722 51.3597 30.7322C51.3597 30.0602 51.5817 29.5082 52.0257 29.0762C52.4817 28.6322 53.1117 28.3322 53.9157 28.1762L57.4797 27.4742V28.6622L54.5817 29.2562C53.9937 29.3762 53.5557 29.5442 53.2677 29.7602C52.9797 29.9762 52.8357 30.2762 52.8357 30.6602C52.8357 31.0322 52.9797 31.3382 53.2677 31.5782C53.5677 31.8062 53.9877 31.9202 54.5277 31.9202C54.8757 31.9202 55.2057 31.8782 55.5177 31.7942C55.8417 31.6982 56.1297 31.5602 56.3817 31.3802C56.6337 31.1882 56.8317 30.9542 56.9757 30.6782C57.1197 30.3902 57.1917 30.0542 57.1917 29.6702V27.1862ZM62.131 33.0002V24.0002H63.301L63.499 25.4762C63.751 24.9242 64.117 24.5102 64.597 24.2342C65.089 23.9582 65.683 23.8202 66.379 23.8202C66.535 23.8202 66.703 23.8322 66.883 23.8562C67.075 23.8802 67.237 23.9282 67.369 24.0002L67.117 25.3142C66.985 25.2662 66.841 25.2302 66.685 25.2062C66.529 25.1822 66.307 25.1702 66.019 25.1702C65.647 25.1702 65.269 25.2782 64.885 25.4942C64.513 25.7102 64.201 26.0402 63.949 26.4842C63.697 26.9162 63.571 27.4682 63.571 28.1402V33.0002H62.131ZM72.7074 33.1802C71.9634 33.1802 71.2794 32.9942 70.6554 32.6222C70.0314 32.2502 69.5334 31.7162 69.1614 31.0202C68.7894 30.3122 68.6034 29.4722 68.6034 28.5002C68.6034 27.5042 68.8014 26.6582 69.1974 25.9622C69.5934 25.2662 70.1154 24.7382 70.7634 24.3782C71.4114 24.0062 72.1074 23.8202 72.8514 23.8202C73.5954 23.8202 74.2374 24.0122 74.7774 24.3962C75.3294 24.7802 75.6954 25.2902 75.8754 25.9262L75.6954 26.0522V19.8602H77.1354V33.0002H75.8754L75.7494 30.8222L75.9474 30.7142C75.8634 31.2422 75.6594 31.6922 75.3354 32.0642C75.0234 32.4242 74.6334 32.7002 74.1654 32.8922C73.7094 33.0842 73.2234 33.1802 72.7074 33.1802ZM72.8514 31.9202C73.4274 31.9202 73.9254 31.7762 74.3454 31.4882C74.7774 31.2002 75.1074 30.7922 75.3354 30.2642C75.5754 29.7242 75.6954 29.0942 75.6954 28.3742C75.6954 27.6902 75.5754 27.1022 75.3354 26.6102C75.1074 26.1182 74.7834 25.7402 74.3634 25.4762C73.9554 25.2122 73.4754 25.0802 72.9234 25.0802C72.0114 25.0802 71.3034 25.3922 70.7994 26.0162C70.2954 26.6402 70.0434 27.4682 70.0434 28.5002C70.0434 29.5322 70.2894 30.3602 70.7814 30.9842C71.2734 31.6082 71.9634 31.9202 72.8514 31.9202ZM97.4991 24.0002H99.1011L95.9691 33.0002H94.5291L91.9911 25.8362L89.5971 33.0002H88.1571L85.0251 24.0002H86.6271L88.8951 31.3262L91.3431 24.0002H92.7831L95.2311 31.3262L97.4991 24.0002ZM101.98 22.2722C101.656 22.2722 101.392 22.1762 101.188 21.9842C100.996 21.7802 100.9 21.5162 100.9 21.1922C100.9 20.8682 100.996 20.6102 101.188 20.4182C101.392 20.2142 101.656 20.1122 101.98 20.1122C102.304 20.1122 102.562 20.2142 102.754 20.4182C102.958 20.6102 103.06 20.8682 103.06 21.1922C103.06 21.5162 102.958 21.7802 102.754 21.9842C102.562 22.1762 102.304 22.2722 101.98 22.2722ZM102.7 24.0002V33.0002H101.26V24.0002H102.7ZM106.041 33.0002V24.0002H107.301L107.427 26.0162L107.193 25.8182C107.385 25.3382 107.643 24.9542 107.967 24.6662C108.291 24.3662 108.663 24.1502 109.083 24.0182C109.515 23.8862 109.959 23.8202 110.415 23.8202C111.063 23.8202 111.651 23.9462 112.179 24.1982C112.707 24.4382 113.127 24.8102 113.439 25.3142C113.763 25.8182 113.925 26.4602 113.925 27.2402V33.0002H112.485V27.7442C112.485 26.7482 112.269 26.0582 111.837 25.6742C111.417 25.2782 110.895 25.0802 110.271 25.0802C109.839 25.0802 109.407 25.1822 108.975 25.3862C108.543 25.5902 108.183 25.9202 107.895 26.3762C107.619 26.8322 107.481 27.4442 107.481 28.2122V33.0002H106.041ZM117.186 33.0002V24.0002H118.446L118.572 26.0162L118.338 25.8182C118.53 25.3382 118.788 24.9542 119.112 24.6662C119.436 24.3662 119.808 24.1502 120.228 24.0182C120.66 23.8862 121.104 23.8202 121.56 23.8202C122.208 23.8202 122.796 23.9462 123.324 24.1982C123.852 24.4382 124.272 24.8102 124.584 25.3142C124.908 25.8182 125.07 26.4602 125.07 27.2402V33.0002H123.63V27.7442C123.63 26.7482 123.414 26.0582 122.982 25.6742C122.562 25.2782 122.04 25.0802 121.416 25.0802C120.984 25.0802 120.552 25.1822 120.12 25.3862C119.688 25.5902 119.328 25.9202 119.04 26.3762C118.764 26.8322 118.626 27.4442 118.626 28.2122V33.0002H117.186ZM129.05 22.2722C128.726 22.2722 128.462 22.1762 128.258 21.9842C128.066 21.7802 127.97 21.5162 127.97 21.1922C127.97 20.8682 128.066 20.6102 128.258 20.4182C128.462 20.2142 128.726 20.1122 129.05 20.1122C129.374 20.1122 129.632 20.2142 129.824 20.4182C130.028 20.6102 130.13 20.8682 130.13 21.1922C130.13 21.5162 130.028 21.7802 129.824 21.9842C129.632 22.1762 129.374 22.2722 129.05 22.2722ZM129.77 24.0002V33.0002H128.33V24.0002H129.77ZM133.112 33.0002V24.0002H134.372L134.498 26.0162L134.264 25.8182C134.456 25.3382 134.714 24.9542 135.038 24.6662C135.362 24.3662 135.734 24.1502 136.154 24.0182C136.586 23.8862 137.03 23.8202 137.486 23.8202C138.134 23.8202 138.722 23.9462 139.25 24.1982C139.778 24.4382 140.198 24.8102 140.51 25.3142C140.834 25.8182 140.996 26.4602 140.996 27.2402V33.0002H139.556V27.7442C139.556 26.7482 139.34 26.0582 138.908 25.6742C138.488 25.2782 137.966 25.0802 137.342 25.0802C136.91 25.0802 136.478 25.1822 136.046 25.3862C135.614 25.5902 135.254 25.9202 134.966 26.3762C134.69 26.8322 134.552 27.4442 134.552 28.2122V33.0002H133.112ZM151.834 22.3442L152.158 23.6222C152.146 23.6222 152.128 23.6222 152.104 23.6222C152.08 23.6222 152.056 23.6222 152.032 23.6222C151.444 23.6222 150.988 23.7422 150.664 23.9822C150.352 24.2102 150.196 24.5822 150.196 25.0982L149.314 24.6482C149.314 24.1802 149.422 23.7722 149.638 23.4242C149.854 23.0762 150.148 22.8122 150.52 22.6322C150.892 22.4402 151.3 22.3442 151.744 22.3442C151.756 22.3442 151.768 22.3442 151.78 22.3442C151.804 22.3442 151.822 22.3442 151.834 22.3442ZM149.098 31.8482C149.95 31.8482 150.616 32.0462 151.096 32.4422C151.576 32.8262 151.816 33.3422 151.816 33.9902C151.816 34.5782 151.618 35.0882 151.222 35.5202C150.838 35.9522 150.316 36.2822 149.656 36.5102C149.008 36.7502 148.276 36.8702 147.46 36.8702C146.044 36.8702 144.982 36.6302 144.274 36.1502C143.578 35.6702 143.23 35.0942 143.23 34.4222C143.23 33.9422 143.386 33.5102 143.698 33.1262C144.022 32.7542 144.562 32.5442 145.318 32.4962L145.192 32.7662C144.784 32.6582 144.436 32.4782 144.148 32.2262C143.872 31.9622 143.734 31.5842 143.734 31.0922C143.734 30.6002 143.914 30.1802 144.274 29.8322C144.646 29.4722 145.192 29.2502 145.912 29.1662L146.866 29.6522H146.686C146.098 29.7122 145.678 29.8622 145.426 30.1022C145.186 30.3302 145.066 30.5822 145.066 30.8582C145.066 31.1942 145.186 31.4462 145.426 31.6142C145.678 31.7702 146.026 31.8482 146.47 31.8482H149.098ZM147.442 35.6642C148.138 35.6642 148.708 35.5922 149.152 35.4482C149.608 35.3042 149.944 35.1182 150.16 34.8902C150.376 34.6622 150.484 34.4162 150.484 34.1522C150.484 33.8282 150.352 33.5702 150.088 33.3782C149.836 33.1862 149.374 33.0902 148.702 33.0902H145.93C145.546 33.0902 145.222 33.1862 144.958 33.3782C144.694 33.5822 144.562 33.8582 144.562 34.2062C144.562 34.6502 144.814 35.0042 145.318 35.2682C145.834 35.5322 146.542 35.6642 147.442 35.6642ZM147.316 23.8202C148.036 23.8202 148.672 23.9522 149.224 24.2162C149.788 24.4682 150.226 24.8222 150.538 25.2782C150.85 25.7342 151.006 26.2622 151.006 26.8622C151.006 27.4502 150.85 27.9782 150.538 28.4462C150.226 28.9022 149.788 29.2622 149.224 29.5262C148.672 29.7782 148.036 29.9042 147.316 29.9042C146.128 29.9042 145.216 29.6222 144.58 29.0582C143.944 28.4822 143.626 27.7502 143.626 26.8622C143.626 26.2622 143.782 25.7342 144.094 25.2782C144.418 24.8222 144.856 24.4682 145.408 24.2162C145.96 23.9522 146.596 23.8202 147.316 23.8202ZM147.316 24.9902C146.692 24.9902 146.17 25.1642 145.75 25.5122C145.33 25.8482 145.12 26.2982 145.12 26.8622C145.12 27.4142 145.33 27.8642 145.75 28.2122C146.17 28.5602 146.692 28.7342 147.316 28.7342C147.94 28.7342 148.462 28.5602 148.882 28.2122C149.302 27.8642 149.512 27.4142 149.512 26.8622C149.512 26.2982 149.302 25.8482 148.882 25.5122C148.462 25.1642 147.94 24.9902 147.316 24.9902ZM159.971 36.7802V24.0002H161.231L161.357 26.1962L161.159 25.9442C161.315 25.5242 161.549 25.1582 161.861 24.8462C162.173 24.5222 162.551 24.2702 162.995 24.0902C163.439 23.9102 163.919 23.8202 164.435 23.8202C165.167 23.8202 165.839 24.0062 166.451 24.3782C167.075 24.7502 167.573 25.2842 167.945 25.9802C168.317 26.6762 168.503 27.5162 168.503 28.5002C168.503 29.4722 168.311 30.3122 167.927 31.0202C167.555 31.7162 167.057 32.2502 166.433 32.6222C165.809 32.9942 165.125 33.1802 164.381 33.1802C163.637 33.1802 162.983 33.0002 162.419 32.6402C161.867 32.2682 161.471 31.8002 161.231 31.2362L161.411 30.9662V36.7802H159.971ZM164.237 31.9202C165.125 31.9202 165.815 31.6082 166.307 30.9842C166.811 30.3602 167.063 29.5322 167.063 28.5002C167.063 27.4682 166.817 26.6402 166.325 26.0162C165.845 25.3922 165.167 25.0802 164.291 25.0802C163.715 25.0802 163.211 25.2242 162.779 25.5122C162.347 25.7882 162.011 26.1842 161.771 26.7002C161.531 27.2042 161.411 27.8042 161.411 28.5002C161.411 29.1842 161.525 29.7842 161.753 30.3002C161.993 30.8162 162.323 31.2182 162.743 31.5062C163.175 31.7822 163.673 31.9202 164.237 31.9202ZM171.256 33.0002V24.0002H172.426L172.624 25.4762C172.876 24.9242 173.242 24.5102 173.722 24.2342C174.214 23.9582 174.808 23.8202 175.504 23.8202C175.66 23.8202 175.828 23.8322 176.008 23.8562C176.2 23.8802 176.362 23.9282 176.494 24.0002L176.242 25.3142C176.11 25.2662 175.966 25.2302 175.81 25.2062C175.654 25.1822 175.432 25.1702 175.144 25.1702C174.772 25.1702 174.394 25.2782 174.01 25.4942C173.638 25.7102 173.326 26.0402 173.074 26.4842C172.822 26.9162 172.696 27.4682 172.696 28.1402V33.0002H171.256ZM182.048 23.8202C182.9 23.8202 183.65 24.0062 184.298 24.3782C184.958 24.7502 185.474 25.2902 185.846 25.9982C186.218 26.6942 186.404 27.5282 186.404 28.5002C186.404 29.4722 186.218 30.3122 185.846 31.0202C185.474 31.7162 184.958 32.2502 184.298 32.6222C183.65 32.9942 182.9 33.1802 182.048 33.1802C181.208 33.1802 180.458 32.9942 179.798 32.6222C179.138 32.2502 178.622 31.7162 178.25 31.0202C177.878 30.3122 177.692 29.4722 177.692 28.5002C177.692 27.5282 177.878 26.6942 178.25 25.9982C178.622 25.2902 179.138 24.7502 179.798 24.3782C180.458 24.0062 181.208 23.8202 182.048 23.8202ZM182.048 25.0622C181.436 25.0622 180.914 25.2002 180.482 25.4762C180.05 25.7522 179.714 26.1482 179.474 26.6642C179.246 27.1682 179.132 27.7802 179.132 28.5002C179.132 29.2082 179.246 29.8202 179.474 30.3362C179.714 30.8522 180.05 31.2482 180.482 31.5242C180.914 31.8002 181.436 31.9382 182.048 31.9382C182.66 31.9382 183.182 31.8002 183.614 31.5242C184.046 31.2482 184.376 30.8522 184.604 30.3362C184.844 29.8202 184.964 29.2082 184.964 28.5002C184.964 27.7802 184.844 27.1682 184.604 26.6642C184.376 26.1482 184.046 25.7522 183.614 25.4762C183.182 25.2002 182.66 25.0622 182.048 25.0622ZM192.625 33.1802C191.881 33.1802 191.197 32.9942 190.573 32.6222C189.949 32.2502 189.451 31.7162 189.079 31.0202C188.707 30.3122 188.521 29.4722 188.521 28.5002C188.521 27.5042 188.719 26.6582 189.115 25.9622C189.511 25.2662 190.033 24.7382 190.681 24.3782C191.329 24.0062 192.025 23.8202 192.769 23.8202C193.513 23.8202 194.155 24.0122 194.695 24.3962C195.247 24.7802 195.613 25.2902 195.793 25.9262L195.613 26.0522V19.8602H197.053V33.0002H195.793L195.667 30.8222L195.865 30.7142C195.781 31.2422 195.577 31.6922 195.253 32.0642C194.941 32.4242 194.551 32.7002 194.083 32.8922C193.627 33.0842 193.141 33.1802 192.625 33.1802ZM192.769 31.9202C193.345 31.9202 193.843 31.7762 194.263 31.4882C194.695 31.2002 195.025 30.7922 195.253 30.2642C195.493 29.7242 195.613 29.0942 195.613 28.3742C195.613 27.6902 195.493 27.1022 195.253 26.6102C195.025 26.1182 194.701 25.7402 194.281 25.4762C193.873 25.2122 193.393 25.0802 192.841 25.0802C191.929 25.0802 191.221 25.3922 190.717 26.0162C190.213 26.6402 189.961 27.4682 189.961 28.5002C189.961 29.5322 190.207 30.3602 190.699 30.9842C191.191 31.6082 191.881 31.9202 192.769 31.9202ZM203.659 33.1802C203.083 33.1802 202.537 33.0722 202.021 32.8562C201.517 32.6402 201.103 32.2922 200.779 31.8122C200.467 31.3202 200.311 30.6842 200.311 29.9042V24.0002H201.751V29.5262C201.751 30.4382 201.949 31.0682 202.345 31.4162C202.741 31.7522 203.299 31.9202 204.019 31.9202C204.355 31.9202 204.685 31.8662 205.009 31.7582C205.333 31.6382 205.621 31.4582 205.873 31.2182C206.137 30.9662 206.341 30.6482 206.485 30.2642C206.641 29.8802 206.719 29.4242 206.719 28.8962V24.0002H208.159V33.0002H206.899L206.809 31.6322C206.497 32.1722 206.071 32.5682 205.531 32.8202C205.003 33.0602 204.379 33.1802 203.659 33.1802ZM215.236 23.8202C215.86 23.8202 216.406 23.9162 216.874 24.1082C217.354 24.3002 217.768 24.5762 218.116 24.9362C218.464 25.2962 218.746 25.7222 218.962 26.2142L217.594 26.8622C217.402 26.2862 217.108 25.8482 216.712 25.5482C216.328 25.2362 215.824 25.0802 215.2 25.0802C214.6 25.0802 214.084 25.2182 213.652 25.4942C213.22 25.7582 212.89 26.1482 212.662 26.6642C212.434 27.1682 212.32 27.7802 212.32 28.5002C212.32 29.2082 212.434 29.8202 212.662 30.3362C212.89 30.8522 213.22 31.2482 213.652 31.5242C214.084 31.7882 214.6 31.9202 215.2 31.9202C215.668 31.9202 216.07 31.8482 216.406 31.7042C216.754 31.5602 217.036 31.3502 217.252 31.0742C217.48 30.7982 217.636 30.4622 217.72 30.0662L219.052 30.5342C218.848 31.0862 218.566 31.5602 218.206 31.9562C217.858 32.3522 217.432 32.6582 216.928 32.8742C216.436 33.0782 215.872 33.1802 215.236 33.1802C214.396 33.1802 213.646 32.9942 212.986 32.6222C212.326 32.2502 211.81 31.7162 211.438 31.0202C211.066 30.3122 210.88 29.4722 210.88 28.5002C210.88 27.5282 211.066 26.6942 211.438 25.9982C211.81 25.2902 212.326 24.7502 212.986 24.3782C213.646 24.0062 214.396 23.8202 215.236 23.8202ZM223.706 21.4442V30.5162C223.706 30.9602 223.832 31.2902 224.084 31.5062C224.336 31.7222 224.66 31.8302 225.056 31.8302C225.404 31.8302 225.704 31.7702 225.956 31.6502C226.208 31.5302 226.436 31.3682 226.64 31.1642L227.144 32.3702C226.868 32.6222 226.538 32.8202 226.154 32.9642C225.782 33.1082 225.35 33.1802 224.858 33.1802C224.402 33.1802 223.976 33.1022 223.58 32.9462C223.184 32.7782 222.866 32.5202 222.626 32.1722C222.398 31.8122 222.278 31.3442 222.266 30.7682V21.8402L223.706 21.4442ZM226.982 24.0002V25.2422H220.466V24.0002H226.982Z" fill="white"/>
</svg>
