<svg width="378" height="204" viewBox="0 0 378 204" fill="none" xmlns="http://www.w3.org/2000/svg">
<path d="M4.424 3.352H20.048C22.6613 3.352 25.1813 3.76267 27.608 4.584C30.0347 5.368 32.1813 6.58133 34.048 8.224C35.9147 9.86666 37.408 11.9387 38.528 14.44C39.648 16.904 40.208 19.816 40.208 23.176C40.208 26.5733 39.5547 29.5227 38.248 32.024C36.9787 34.488 35.3173 36.5413 33.264 38.184C31.248 39.7893 28.9893 41.0027 26.488 41.824C24.024 42.608 21.5973 43 19.208 43H4.424V3.352ZM16.744 36.616C18.9467 36.616 21.0187 36.3733 22.96 35.888C24.9387 35.3653 26.656 34.5813 28.112 33.536C29.568 32.4533 30.7067 31.072 31.528 29.392C32.3867 27.6747 32.816 25.6027 32.816 23.176C32.816 20.7867 32.4427 18.7333 31.696 17.016C30.9493 15.2987 29.904 13.9173 28.56 12.872C27.2533 11.7893 25.6853 11.0053 23.856 10.52C22.064 9.99733 20.0853 9.736 17.92 9.736H11.48V36.616H16.744ZM46.4122 16.12H53.1322V43H46.4122V16.12ZM45.4602 6.992C45.4602 5.90933 45.8522 4.976 46.6362 4.192C47.4575 3.37067 48.4842 2.96 49.7162 2.96C50.9482 2.96 51.9749 3.352 52.7962 4.136C53.6549 4.88267 54.0842 5.83467 54.0842 6.992C54.0842 8.14933 53.6549 9.12 52.7962 9.904C51.9749 10.6507 50.9482 11.024 49.7162 11.024C48.4842 11.024 47.4575 10.632 46.6362 9.848C45.8522 9.02667 45.4602 8.07467 45.4602 6.992ZM75.1831 23.568C73.8764 21.7387 72.1217 20.824 69.9191 20.824C69.0231 20.824 68.1457 21.048 67.2871 21.496C66.4284 21.944 65.9991 22.672 65.9991 23.68C65.9991 24.5013 66.3537 25.0987 67.0631 25.472C67.7724 25.8453 68.6684 26.1627 69.7511 26.424C70.8337 26.6853 71.9911 26.9653 73.2231 27.264C74.4924 27.5253 75.6684 27.9547 76.7511 28.552C77.8337 29.112 78.7297 29.896 79.4391 30.904C80.1484 31.912 80.5031 33.2933 80.5031 35.048C80.5031 36.6533 80.1484 38.016 79.4391 39.136C78.7671 40.2187 77.8711 41.096 76.7511 41.768C75.6684 42.44 74.4364 42.9253 73.0551 43.224C71.6737 43.5227 70.2924 43.672 68.9111 43.672C66.8204 43.672 64.8977 43.3733 63.1431 42.776C61.3884 42.1787 59.8204 41.096 58.4391 39.528L62.9191 35.328C63.7777 36.2987 64.6924 37.1013 65.6631 37.736C66.6711 38.3333 67.8844 38.632 69.3031 38.632C69.7884 38.632 70.2924 38.576 70.8151 38.464C71.3377 38.352 71.8231 38.1653 72.2711 37.904C72.7191 37.6427 73.0737 37.3253 73.3351 36.952C73.6337 36.5413 73.7831 36.0747 73.7831 35.552C73.7831 34.6187 73.4284 33.928 72.7191 33.48C72.0097 33.032 71.1137 32.6773 70.0311 32.416C68.9484 32.1173 67.7724 31.856 66.5031 31.632C65.2711 31.3707 64.1137 30.9787 63.0311 30.456C61.9484 29.896 61.0524 29.1307 60.3431 28.16C59.6337 27.1893 59.2791 25.8453 59.2791 24.128C59.2791 22.6347 59.5777 21.3467 60.1751 20.264C60.8097 19.144 61.6311 18.2293 62.6391 17.52C63.6471 16.8107 64.8044 16.288 66.1111 15.952C67.4177 15.616 68.7431 15.448 70.0871 15.448C71.8791 15.448 73.6524 15.7653 75.4071 16.4C77.1617 16.9973 78.5804 18.0427 79.6631 19.536L75.1831 23.568ZM104.098 24.184C103.314 23.3627 102.493 22.7093 101.634 22.224C100.775 21.7387 99.8979 21.496 99.0019 21.496C97.7699 21.496 96.6685 21.72 95.6979 22.168C94.7272 22.616 93.8872 23.2133 93.1779 23.96C92.5059 24.7067 91.9832 25.5653 91.6099 26.536C91.2739 27.5067 91.1059 28.5147 91.1059 29.56C91.1059 30.6053 91.2739 31.6133 91.6099 32.584C91.9832 33.5547 92.5059 34.4133 93.1779 35.16C93.8872 35.9067 94.7272 36.504 95.6979 36.952C96.6685 37.4 97.7699 37.624 99.0019 37.624C100.047 37.624 101.018 37.4187 101.914 37.008C102.81 36.56 103.575 35.9253 104.21 35.104L108.69 39.92C108.018 40.592 107.234 41.1707 106.338 41.656C105.479 42.1413 104.602 42.5333 103.706 42.832C102.81 43.1307 101.951 43.336 101.13 43.448C100.309 43.5973 99.5992 43.672 99.0019 43.672C96.9859 43.672 95.0819 43.336 93.2899 42.664C91.4979 41.992 89.9485 41.04 88.6419 39.808C87.3352 38.576 86.2899 37.1013 85.5059 35.384C84.7592 33.6293 84.3859 31.688 84.3859 29.56C84.3859 27.432 84.7592 25.5093 85.5059 23.792C86.2899 22.0373 87.3352 20.544 88.6419 19.312C89.9485 18.08 91.4979 17.128 93.2899 16.456C95.0819 15.784 96.9859 15.448 99.0019 15.448C100.719 15.448 102.437 15.784 104.154 16.456C105.909 17.0907 107.439 18.1173 108.746 19.536L104.098 24.184ZM111.402 29.56C111.402 27.432 111.775 25.5093 112.522 23.792C113.306 22.0373 114.351 20.544 115.658 19.312C116.964 18.08 118.514 17.128 120.306 16.456C122.098 15.784 124.002 15.448 126.018 15.448C128.034 15.448 129.938 15.784 131.73 16.456C133.522 17.128 135.071 18.08 136.378 19.312C137.684 20.544 138.711 22.0373 139.458 23.792C140.242 25.5093 140.634 27.432 140.634 29.56C140.634 31.688 140.242 33.6293 139.458 35.384C138.711 37.1013 137.684 38.576 136.378 39.808C135.071 41.04 133.522 41.992 131.73 42.664C129.938 43.336 128.034 43.672 126.018 43.672C124.002 43.672 122.098 43.336 120.306 42.664C118.514 41.992 116.964 41.04 115.658 39.808C114.351 38.576 113.306 37.1013 112.522 35.384C111.775 33.6293 111.402 31.688 111.402 29.56ZM118.122 29.56C118.122 30.6053 118.29 31.6133 118.626 32.584C118.999 33.5547 119.522 34.4133 120.194 35.16C120.903 35.9067 121.743 36.504 122.714 36.952C123.684 37.4 124.786 37.624 126.018 37.624C127.25 37.624 128.351 37.4 129.322 36.952C130.292 36.504 131.114 35.9067 131.786 35.16C132.495 34.4133 133.018 33.5547 133.354 32.584C133.727 31.6133 133.914 30.6053 133.914 29.56C133.914 28.5147 133.727 27.5067 133.354 26.536C133.018 25.5653 132.495 24.7067 131.786 23.96C131.114 23.2133 130.292 22.616 129.322 22.168C128.351 21.72 127.25 21.496 126.018 21.496C124.786 21.496 123.684 21.72 122.714 22.168C121.743 22.616 120.903 23.2133 120.194 23.96C119.522 24.7067 118.999 25.5653 118.626 26.536C118.29 27.5067 118.122 28.5147 118.122 29.56ZM143.285 16.12H150.621L157.789 34.936H157.901L165.125 16.12H172.013L161.429 43H154.261L143.285 16.12ZM181.34 31.912C181.564 33.928 182.348 35.496 183.692 36.616C185.036 37.736 186.66 38.296 188.564 38.296C190.244 38.296 191.644 37.96 192.764 37.288C193.922 36.5787 194.93 35.7013 195.788 34.656L200.604 38.296C199.036 40.2373 197.282 41.6187 195.34 42.44C193.399 43.2613 191.364 43.672 189.236 43.672C187.22 43.672 185.316 43.336 183.524 42.664C181.732 41.992 180.183 41.04 178.876 39.808C177.57 38.576 176.524 37.1013 175.74 35.384C174.994 33.6293 174.62 31.688 174.62 29.56C174.62 27.432 174.994 25.5093 175.74 23.792C176.524 22.0373 177.57 20.544 178.876 19.312C180.183 18.08 181.732 17.128 183.524 16.456C185.316 15.784 187.22 15.448 189.236 15.448C191.103 15.448 192.802 15.784 194.332 16.456C195.9 17.0907 197.226 18.024 198.308 19.256C199.428 20.488 200.287 22.0187 200.884 23.848C201.519 25.64 201.836 27.712 201.836 30.064V31.912H181.34ZM195.116 26.872C195.079 24.8933 194.463 23.344 193.268 22.224C192.074 21.0667 190.412 20.488 188.284 20.488C186.268 20.488 184.663 21.0667 183.468 22.224C182.311 23.3813 181.602 24.9307 181.34 26.872H195.116ZM208.121 16.12H214.841V20.376H214.953C215.699 18.808 216.763 17.5947 218.145 16.736C219.526 15.8773 221.113 15.448 222.905 15.448C223.315 15.448 223.707 15.4853 224.081 15.56C224.491 15.6347 224.902 15.728 225.313 15.84V22.336C224.753 22.1867 224.193 22.0747 223.633 22C223.11 21.888 222.587 21.832 222.065 21.832C220.497 21.832 219.227 22.1307 218.257 22.728C217.323 23.288 216.595 23.9413 216.073 24.688C215.587 25.4347 215.251 26.1813 215.065 26.928C214.915 27.6747 214.841 28.2347 214.841 28.608V43H208.121V16.12ZM243.32 21.832V16.12H248.864V8.336H255.584V16.12H262.976V21.832H255.584V33.592C255.584 34.936 255.827 36 256.312 36.784C256.835 37.568 257.843 37.96 259.336 37.96C259.934 37.96 260.587 37.904 261.296 37.792C262.006 37.6427 262.566 37.4187 262.976 37.12V42.776C262.267 43.112 261.39 43.336 260.344 43.448C259.336 43.5973 258.44 43.672 257.656 43.672C255.864 43.672 254.39 43.4667 253.232 43.056C252.112 42.6827 251.216 42.104 250.544 41.32C249.91 40.4987 249.462 39.4907 249.2 38.296C248.976 37.1013 248.864 35.72 248.864 34.152V21.832H243.32ZM274.997 19.872H275.109C275.631 18.752 276.546 17.744 277.853 16.848C279.197 15.9147 280.914 15.448 283.005 15.448C284.797 15.448 286.309 15.7467 287.541 16.344C288.81 16.9413 289.837 17.7253 290.621 18.696C291.405 19.6667 291.965 20.7867 292.301 22.056C292.637 23.3253 292.805 24.6507 292.805 26.032V43H286.085V29.392C286.085 28.6453 286.047 27.824 285.973 26.928C285.898 25.9947 285.693 25.136 285.357 24.352C285.058 23.5307 284.573 22.8587 283.901 22.336C283.229 21.776 282.314 21.496 281.157 21.496C280.037 21.496 279.085 21.6827 278.301 22.056C277.554 22.4293 276.919 22.9333 276.397 23.568C275.911 24.2027 275.557 24.9307 275.333 25.752C275.109 26.5733 274.997 27.432 274.997 28.328V43H268.277V0.663998H274.997V19.872ZM305.809 31.912C306.033 33.928 306.817 35.496 308.161 36.616C309.505 37.736 311.129 38.296 313.033 38.296C314.713 38.296 316.113 37.96 317.233 37.288C318.39 36.5787 319.398 35.7013 320.257 34.656L325.073 38.296C323.505 40.2373 321.75 41.6187 319.809 42.44C317.868 43.2613 315.833 43.672 313.705 43.672C311.689 43.672 309.785 43.336 307.993 42.664C306.201 41.992 304.652 41.04 303.345 39.808C302.038 38.576 300.993 37.1013 300.209 35.384C299.462 33.6293 299.089 31.688 299.089 29.56C299.089 27.432 299.462 25.5093 300.209 23.792C300.993 22.0373 302.038 20.544 303.345 19.312C304.652 18.08 306.201 17.128 307.993 16.456C309.785 15.784 311.689 15.448 313.705 15.448C315.572 15.448 317.27 15.784 318.801 16.456C320.369 17.0907 321.694 18.024 322.777 19.256C323.897 20.488 324.756 22.0187 325.353 23.848C325.988 25.64 326.305 27.712 326.305 30.064V31.912H305.809ZM319.585 26.872C319.548 24.8933 318.932 23.344 317.737 22.224C316.542 21.0667 314.881 20.488 312.753 20.488C310.737 20.488 309.132 21.0667 307.937 22.224C306.78 23.3813 306.07 24.9307 305.809 26.872H319.585ZM3.808 80.664H10.528V99.536H10.696C11.032 99.088 11.4613 98.64 11.984 98.192C12.5067 97.7067 13.1413 97.2587 13.888 96.848C14.6347 96.4373 15.4933 96.1013 16.464 95.84C17.4347 95.5787 18.5547 95.448 19.824 95.448C21.728 95.448 23.4827 95.8213 25.088 96.568C26.6933 97.2773 28.056 98.2667 29.176 99.536C30.3333 100.805 31.2293 102.299 31.864 104.016C32.4987 105.733 32.816 107.581 32.816 109.56C32.816 111.539 32.5173 113.387 31.92 115.104C31.3227 116.821 30.4453 118.315 29.288 119.584C28.1307 120.853 26.7307 121.861 25.088 122.608C23.4453 123.317 21.5973 123.672 19.544 123.672C17.64 123.672 15.8667 123.299 14.224 122.552C12.5813 121.805 11.2747 120.611 10.304 118.968H10.192V123H3.808V80.664ZM26.096 109.56C26.096 108.515 25.9093 107.507 25.536 106.536C25.2 105.565 24.6773 104.707 23.968 103.96C23.296 103.213 22.4747 102.616 21.504 102.168C20.5333 101.72 19.432 101.496 18.2 101.496C16.968 101.496 15.8667 101.72 14.896 102.168C13.9253 102.616 13.0853 103.213 12.376 103.96C11.704 104.707 11.1813 105.565 10.808 106.536C10.472 107.507 10.304 108.515 10.304 109.56C10.304 110.605 10.472 111.613 10.808 112.584C11.1813 113.555 11.704 114.413 12.376 115.16C13.0853 115.907 13.9253 116.504 14.896 116.952C15.8667 117.4 16.968 117.624 18.2 117.624C19.432 117.624 20.5333 117.4 21.504 116.952C22.4747 116.504 23.296 115.907 23.968 115.16C24.6773 114.413 25.2 113.555 25.536 112.584C25.9093 111.613 26.096 110.605 26.096 109.56ZM44.4574 111.912C44.6814 113.928 45.4654 115.496 46.8094 116.616C48.1534 117.736 49.7774 118.296 51.6814 118.296C53.3614 118.296 54.7614 117.96 55.8814 117.288C57.0388 116.579 58.0468 115.701 58.9054 114.656L63.7214 118.296C62.1534 120.237 60.3988 121.619 58.4574 122.44C56.5161 123.261 54.4814 123.672 52.3534 123.672C50.3374 123.672 48.4334 123.336 46.6414 122.664C44.8494 121.992 43.3001 121.04 41.9934 119.808C40.6868 118.576 39.6414 117.101 38.8574 115.384C38.1108 113.629 37.7374 111.688 37.7374 109.56C37.7374 107.432 38.1108 105.509 38.8574 103.792C39.6414 102.037 40.6868 100.544 41.9934 99.312C43.3001 98.08 44.8494 97.128 46.6414 96.456C48.4334 95.784 50.3374 95.448 52.3534 95.448C54.2201 95.448 55.9188 95.784 57.4494 96.456C59.0174 97.0907 60.3428 98.024 61.4254 99.256C62.5454 100.488 63.4041 102.019 64.0014 103.848C64.6361 105.64 64.9534 107.712 64.9534 110.064V111.912H44.4574ZM58.2334 106.872C58.1961 104.893 57.5801 103.344 56.3854 102.224C55.1908 101.067 53.5294 100.488 51.4014 100.488C49.3854 100.488 47.7801 101.067 46.5854 102.224C45.4281 103.381 44.7188 104.931 44.4574 106.872H58.2334ZM88.0377 119.304H87.8697C86.899 120.835 85.667 121.955 84.1737 122.664C82.6804 123.336 81.0377 123.672 79.2457 123.672C78.0137 123.672 76.8004 123.504 75.6057 123.168C74.4484 122.832 73.403 122.328 72.4697 121.656C71.5737 120.984 70.8457 120.144 70.2857 119.136C69.7257 118.128 69.4457 116.952 69.4457 115.608C69.4457 114.152 69.707 112.92 70.2297 111.912C70.7524 110.867 71.443 110.008 72.3017 109.336C73.1977 108.627 74.2244 108.067 75.3817 107.656C76.539 107.245 77.7337 106.947 78.9657 106.76C80.235 106.536 81.5044 106.405 82.7737 106.368C84.043 106.293 85.2377 106.256 86.3577 106.256H88.0377V105.528C88.0377 103.848 87.459 102.597 86.3017 101.776C85.1444 100.917 83.6697 100.488 81.8777 100.488C80.459 100.488 79.1337 100.749 77.9017 101.272C76.6697 101.757 75.6057 102.429 74.7097 103.288L71.1817 99.76C72.675 98.2293 74.411 97.128 76.3897 96.456C78.4057 95.784 80.4777 95.448 82.6057 95.448C84.5097 95.448 86.115 95.672 87.4217 96.12C88.7284 96.5307 89.811 97.072 90.6697 97.744C91.5284 98.416 92.1817 99.2 92.6297 100.096C93.115 100.955 93.451 101.832 93.6377 102.728C93.8617 103.624 93.9924 104.501 94.0297 105.36C94.067 106.181 94.0857 106.909 94.0857 107.544V123H88.0377V119.304ZM87.6457 110.96H86.2457C85.3124 110.96 84.267 110.997 83.1097 111.072C81.9524 111.147 80.851 111.333 79.8057 111.632C78.7977 111.893 77.939 112.304 77.2297 112.864C76.5204 113.387 76.1657 114.133 76.1657 115.104C76.1657 115.739 76.2964 116.28 76.5577 116.728C76.8564 117.139 77.2297 117.493 77.6777 117.792C78.1257 118.091 78.6297 118.315 79.1897 118.464C79.7497 118.576 80.3097 118.632 80.8697 118.632C83.1844 118.632 84.883 118.091 85.9657 117.008C87.0857 115.888 87.6457 114.376 87.6457 112.472V110.96ZM125.844 123H119.46V118.688H119.348C118.713 120.032 117.742 121.208 116.436 122.216C115.129 123.187 113.356 123.672 111.116 123.672C109.324 123.672 107.793 123.392 106.524 122.832C105.292 122.235 104.284 121.451 103.5 120.48C102.716 119.472 102.156 118.333 101.82 117.064C101.484 115.795 101.316 114.469 101.316 113.088V96.12H108.036V109.728C108.036 110.475 108.073 111.315 108.148 112.248C108.222 113.144 108.409 114.003 108.708 114.824C109.044 115.608 109.529 116.28 110.164 116.84C110.836 117.363 111.769 117.624 112.964 117.624C114.084 117.624 115.017 117.437 115.764 117.064C116.548 116.691 117.182 116.187 117.668 115.552C118.19 114.917 118.564 114.189 118.788 113.368C119.012 112.547 119.124 111.688 119.124 110.792V96.12H125.844V123ZM130.336 101.832V96.12H135.88V88.336H142.6V96.12H149.992V101.832H142.6V113.592C142.6 114.936 142.843 116 143.328 116.784C143.851 117.568 144.859 117.96 146.352 117.96C146.949 117.96 147.603 117.904 148.312 117.792C149.021 117.643 149.581 117.419 149.992 117.12V122.776C149.283 123.112 148.405 123.336 147.36 123.448C146.352 123.597 145.456 123.672 144.672 123.672C142.88 123.672 141.405 123.467 140.248 123.056C139.128 122.683 138.232 122.104 137.56 121.32C136.925 120.499 136.477 119.491 136.216 118.296C135.992 117.101 135.88 115.72 135.88 114.152V101.832H130.336ZM151.598 96.12H158.99L166.494 114.768H166.606L173.326 96.12H180.326L167.614 128.768C167.128 130.037 166.587 131.139 165.99 132.072C165.43 133.043 164.758 133.845 163.974 134.48C163.19 135.152 162.256 135.637 161.174 135.936C160.128 136.272 158.859 136.44 157.366 136.44C155.611 136.44 153.894 136.216 152.214 135.768L153.054 129.72C153.576 129.907 154.118 130.056 154.678 130.168C155.275 130.317 155.872 130.392 156.47 130.392C157.291 130.392 157.982 130.317 158.542 130.168C159.102 130.019 159.568 129.776 159.942 129.44C160.352 129.141 160.688 128.731 160.95 128.208C161.211 127.723 161.491 127.125 161.79 126.416L163.078 123.224L151.598 96.12ZM217.647 119.304H217.479C216.508 120.835 215.276 121.955 213.783 122.664C212.29 123.336 210.647 123.672 208.855 123.672C207.623 123.672 206.41 123.504 205.215 123.168C204.058 122.832 203.012 122.328 202.079 121.656C201.183 120.984 200.455 120.144 199.895 119.136C199.335 118.128 199.055 116.952 199.055 115.608C199.055 114.152 199.316 112.92 199.839 111.912C200.362 110.867 201.052 110.008 201.911 109.336C202.807 108.627 203.834 108.067 204.991 107.656C206.148 107.245 207.343 106.947 208.575 106.76C209.844 106.536 211.114 106.405 212.383 106.368C213.652 106.293 214.847 106.256 215.967 106.256H217.647V105.528C217.647 103.848 217.068 102.597 215.911 101.776C214.754 100.917 213.279 100.488 211.487 100.488C210.068 100.488 208.743 100.749 207.511 101.272C206.279 101.757 205.215 102.429 204.319 103.288L200.791 99.76C202.284 98.2293 204.02 97.128 205.999 96.456C208.015 95.784 210.087 95.448 212.215 95.448C214.119 95.448 215.724 95.672 217.031 96.12C218.338 96.5307 219.42 97.072 220.279 97.744C221.138 98.416 221.791 99.2 222.239 100.096C222.724 100.955 223.06 101.832 223.247 102.728C223.471 103.624 223.602 104.501 223.639 105.36C223.676 106.181 223.695 106.909 223.695 107.544V123H217.647V119.304ZM217.255 110.96H215.855C214.922 110.96 213.876 110.997 212.719 111.072C211.562 111.147 210.46 111.333 209.415 111.632C208.407 111.893 207.548 112.304 206.839 112.864C206.13 113.387 205.775 114.133 205.775 115.104C205.775 115.739 205.906 116.28 206.167 116.728C206.466 117.139 206.839 117.493 207.287 117.792C207.735 118.091 208.239 118.315 208.799 118.464C209.359 118.576 209.919 118.632 210.479 118.632C212.794 118.632 214.492 118.091 215.575 117.008C216.695 115.888 217.255 114.376 217.255 112.472V110.96ZM230.925 96.12H237.645V100.376H237.757C238.504 98.808 239.568 97.5947 240.949 96.736C242.331 95.8773 243.917 95.448 245.709 95.448C246.12 95.448 246.512 95.4853 246.885 95.56C247.296 95.6347 247.707 95.728 248.117 95.84V102.336C247.557 102.187 246.997 102.075 246.437 102C245.915 101.888 245.392 101.832 244.869 101.832C243.301 101.832 242.032 102.131 241.061 102.728C240.128 103.288 239.4 103.941 238.877 104.688C238.392 105.435 238.056 106.181 237.869 106.928C237.72 107.675 237.645 108.235 237.645 108.608V123H230.925V96.12ZM250.362 109.56C250.362 107.432 250.736 105.509 251.482 103.792C252.266 102.037 253.312 100.544 254.618 99.312C255.925 98.08 257.474 97.128 259.266 96.456C261.058 95.784 262.962 95.448 264.978 95.448C266.994 95.448 268.898 95.784 270.69 96.456C272.482 97.128 274.032 98.08 275.338 99.312C276.645 100.544 277.672 102.037 278.418 103.792C279.202 105.509 279.594 107.432 279.594 109.56C279.594 111.688 279.202 113.629 278.418 115.384C277.672 117.101 276.645 118.576 275.338 119.808C274.032 121.04 272.482 121.992 270.69 122.664C268.898 123.336 266.994 123.672 264.978 123.672C262.962 123.672 261.058 123.336 259.266 122.664C257.474 121.992 255.925 121.04 254.618 119.808C253.312 118.576 252.266 117.101 251.482 115.384C250.736 113.629 250.362 111.688 250.362 109.56ZM257.082 109.56C257.082 110.605 257.25 111.613 257.586 112.584C257.96 113.555 258.482 114.413 259.154 115.16C259.864 115.907 260.704 116.504 261.674 116.952C262.645 117.4 263.746 117.624 264.978 117.624C266.21 117.624 267.312 117.4 268.282 116.952C269.253 116.504 270.074 115.907 270.746 115.16C271.456 114.413 271.978 113.555 272.314 112.584C272.688 111.613 272.874 110.605 272.874 109.56C272.874 108.515 272.688 107.507 272.314 106.536C271.978 105.565 271.456 104.707 270.746 103.96C270.074 103.213 269.253 102.616 268.282 102.168C267.312 101.72 266.21 101.496 264.978 101.496C263.746 101.496 262.645 101.72 261.674 102.168C260.704 102.616 259.864 103.213 259.154 103.96C258.482 104.707 257.96 105.565 257.586 106.536C257.25 107.507 257.082 108.515 257.082 109.56ZM310.414 123H304.03V118.688H303.918C303.283 120.032 302.313 121.208 301.006 122.216C299.699 123.187 297.926 123.672 295.686 123.672C293.894 123.672 292.363 123.392 291.094 122.832C289.862 122.235 288.854 121.451 288.07 120.48C287.286 119.472 286.726 118.333 286.39 117.064C286.054 115.795 285.886 114.469 285.886 113.088V96.12H292.606V109.728C292.606 110.475 292.643 111.315 292.718 112.248C292.793 113.144 292.979 114.003 293.278 114.824C293.614 115.608 294.099 116.28 294.734 116.84C295.406 117.363 296.339 117.624 297.534 117.624C298.654 117.624 299.587 117.437 300.334 117.064C301.118 116.691 301.753 116.187 302.238 115.552C302.761 114.917 303.134 114.189 303.358 113.368C303.582 112.547 303.694 111.688 303.694 110.792V96.12H310.414V123ZM318.042 96.12H324.426V100.432H324.538C325.173 99.088 326.144 97.9307 327.45 96.96C328.757 95.952 330.53 95.448 332.77 95.448C334.562 95.448 336.074 95.7467 337.306 96.344C338.576 96.9413 339.602 97.7253 340.386 98.696C341.17 99.6667 341.73 100.787 342.066 102.056C342.402 103.325 342.57 104.651 342.57 106.032V123H335.85V109.392C335.85 108.645 335.813 107.824 335.738 106.928C335.664 105.995 335.458 105.136 335.122 104.352C334.824 103.531 334.338 102.859 333.666 102.336C332.994 101.776 332.08 101.496 330.922 101.496C329.802 101.496 328.85 101.683 328.066 102.056C327.32 102.429 326.685 102.933 326.162 103.568C325.677 104.203 325.322 104.931 325.098 105.752C324.874 106.573 324.762 107.432 324.762 108.328V123H318.042V96.12ZM371.479 118.968H371.367C370.396 120.611 369.089 121.805 367.447 122.552C365.804 123.299 364.031 123.672 362.127 123.672C360.036 123.672 358.169 123.317 356.527 122.608C354.921 121.861 353.54 120.853 352.383 119.584C351.225 118.315 350.348 116.821 349.751 115.104C349.153 113.387 348.855 111.539 348.855 109.56C348.855 107.581 349.172 105.733 349.807 104.016C350.441 102.299 351.319 100.805 352.439 99.536C353.596 98.2667 354.977 97.2773 356.583 96.568C358.188 95.8213 359.943 95.448 361.847 95.448C363.116 95.448 364.236 95.5787 365.207 95.84C366.177 96.1013 367.036 96.4373 367.783 96.848C368.529 97.2587 369.164 97.7067 369.687 98.192C370.209 98.64 370.639 99.088 370.975 99.536H371.143V80.664H377.863V123H371.479V118.968ZM355.575 109.56C355.575 110.605 355.743 111.613 356.079 112.584C356.452 113.555 356.975 114.413 357.647 115.16C358.356 115.907 359.196 116.504 360.167 116.952C361.137 117.4 362.239 117.624 363.471 117.624C364.703 117.624 365.804 117.4 366.775 116.952C367.745 116.504 368.567 115.907 369.239 115.16C369.948 114.413 370.471 113.555 370.807 112.584C371.18 111.613 371.367 110.605 371.367 109.56C371.367 108.515 371.18 107.507 370.807 106.536C370.471 105.565 369.948 104.707 369.239 103.96C368.567 103.213 367.745 102.616 366.775 102.168C365.804 101.72 364.703 101.496 363.471 101.496C362.239 101.496 361.137 101.72 360.167 102.168C359.196 102.616 358.356 103.213 357.647 103.96C356.975 104.707 356.452 105.565 356.079 106.536C355.743 107.507 355.575 108.515 355.575 109.56ZM0.672 181.832V176.12H6.216V168.336H12.936V176.12H20.328V181.832H12.936V193.592C12.936 194.936 13.1787 196 13.664 196.784C14.1867 197.568 15.1947 197.96 16.688 197.96C17.2853 197.96 17.9387 197.904 18.648 197.792C19.3573 197.643 19.9173 197.419 20.328 197.12V202.776C19.6187 203.112 18.7413 203.336 17.696 203.448C16.688 203.597 15.792 203.672 15.008 203.672C13.216 203.672 11.7413 203.467 10.584 203.056C9.464 202.683 8.568 202.104 7.896 201.32C7.26133 200.499 6.81333 199.491 6.552 198.296C6.328 197.101 6.216 195.72 6.216 194.152V181.832H0.672ZM32.3483 179.872H32.4603C32.983 178.752 33.8976 177.744 35.2043 176.848C36.5483 175.915 38.2656 175.448 40.3563 175.448C42.1483 175.448 43.6603 175.747 44.8923 176.344C46.1616 176.941 47.1883 177.725 47.9723 178.696C48.7563 179.667 49.3163 180.787 49.6523 182.056C49.9883 183.325 50.1563 184.651 50.1563 186.032V203H43.4363V189.392C43.4363 188.645 43.399 187.824 43.3243 186.928C43.2496 185.995 43.0443 185.136 42.7083 184.352C42.4096 183.531 41.9243 182.859 41.2523 182.336C40.5803 181.776 39.6656 181.496 38.5083 181.496C37.3883 181.496 36.4363 181.683 35.6523 182.056C34.9056 182.429 34.271 182.933 33.7483 183.568C33.263 184.203 32.9083 184.931 32.6843 185.752C32.4603 186.573 32.3483 187.432 32.3483 188.328V203H25.6283V160.664H32.3483V179.872ZM63.1606 191.912C63.3846 193.928 64.1686 195.496 65.5126 196.616C66.8566 197.736 68.4806 198.296 70.3846 198.296C72.0646 198.296 73.4646 197.96 74.5846 197.288C75.7419 196.579 76.7499 195.701 77.6086 194.656L82.4246 198.296C80.8566 200.237 79.1019 201.619 77.1606 202.44C75.2192 203.261 73.1846 203.672 71.0566 203.672C69.0406 203.672 67.1366 203.336 65.3446 202.664C63.5526 201.992 62.0032 201.04 60.6966 199.808C59.3899 198.576 58.3446 197.101 57.5606 195.384C56.8139 193.629 56.4406 191.688 56.4406 189.56C56.4406 187.432 56.8139 185.509 57.5606 183.792C58.3446 182.037 59.3899 180.544 60.6966 179.312C62.0032 178.08 63.5526 177.128 65.3446 176.456C67.1366 175.784 69.0406 175.448 71.0566 175.448C72.9232 175.448 74.6219 175.784 76.1526 176.456C77.7206 177.091 79.0459 178.024 80.1286 179.256C81.2486 180.488 82.1072 182.019 82.7046 183.848C83.3392 185.64 83.6566 187.712 83.6566 190.064V191.912H63.1606ZM76.9366 186.872C76.8992 184.893 76.2832 183.344 75.0886 182.224C73.8939 181.067 72.2326 180.488 70.1046 180.488C68.0886 180.488 66.4832 181.067 65.2886 182.224C64.1312 183.381 63.4219 184.931 63.1606 186.872H76.9366ZM102.871 176.12H110.151L115.975 194.936H116.087L121.519 176.12H128.799L134.623 194.936H134.735L140.335 176.12H147.111L137.983 203H131.319L124.935 184.632H124.823L119.167 203H112.223L102.871 176.12ZM149.737 189.56C149.737 187.432 150.111 185.509 150.857 183.792C151.641 182.037 152.687 180.544 153.993 179.312C155.3 178.08 156.849 177.128 158.641 176.456C160.433 175.784 162.337 175.448 164.353 175.448C166.369 175.448 168.273 175.784 170.065 176.456C171.857 177.128 173.407 178.08 174.713 179.312C176.02 180.544 177.047 182.037 177.793 183.792C178.577 185.509 178.969 187.432 178.969 189.56C178.969 191.688 178.577 193.629 177.793 195.384C177.047 197.101 176.02 198.576 174.713 199.808C173.407 201.04 171.857 201.992 170.065 202.664C168.273 203.336 166.369 203.672 164.353 203.672C162.337 203.672 160.433 203.336 158.641 202.664C156.849 201.992 155.3 201.04 153.993 199.808C152.687 198.576 151.641 197.101 150.857 195.384C150.111 193.629 149.737 191.688 149.737 189.56ZM156.457 189.56C156.457 190.605 156.625 191.613 156.961 192.584C157.335 193.555 157.857 194.413 158.529 195.16C159.239 195.907 160.079 196.504 161.049 196.952C162.02 197.4 163.121 197.624 164.353 197.624C165.585 197.624 166.687 197.4 167.657 196.952C168.628 196.504 169.449 195.907 170.121 195.16C170.831 194.413 171.353 193.555 171.689 192.584C172.063 191.613 172.249 190.605 172.249 189.56C172.249 188.515 172.063 187.507 171.689 186.536C171.353 185.565 170.831 184.707 170.121 183.96C169.449 183.213 168.628 182.616 167.657 182.168C166.687 181.72 165.585 181.496 164.353 181.496C163.121 181.496 162.02 181.72 161.049 182.168C160.079 182.616 159.239 183.213 158.529 183.96C157.857 184.707 157.335 185.565 156.961 186.536C156.625 187.507 156.457 188.515 156.457 189.56ZM185.261 176.12H191.981V180.376H192.093C192.84 178.808 193.904 177.595 195.285 176.736C196.666 175.877 198.253 175.448 200.045 175.448C200.456 175.448 200.848 175.485 201.221 175.56C201.632 175.635 202.042 175.728 202.453 175.84V182.336C201.893 182.187 201.333 182.075 200.773 182C200.25 181.888 199.728 181.832 199.205 181.832C197.637 181.832 196.368 182.131 195.397 182.728C194.464 183.288 193.736 183.941 193.213 184.688C192.728 185.435 192.392 186.181 192.205 186.928C192.056 187.675 191.981 188.235 191.981 188.608V203H185.261V176.12ZM207.139 160.664H213.859V203H207.139V160.664ZM242.854 198.968H242.742C241.771 200.611 240.464 201.805 238.822 202.552C237.179 203.299 235.406 203.672 233.502 203.672C231.411 203.672 229.544 203.317 227.902 202.608C226.296 201.861 224.915 200.853 223.758 199.584C222.6 198.315 221.723 196.821 221.126 195.104C220.528 193.387 220.23 191.539 220.23 189.56C220.23 187.581 220.547 185.733 221.182 184.016C221.816 182.299 222.694 180.805 223.814 179.536C224.971 178.267 226.352 177.277 227.958 176.568C229.563 175.821 231.318 175.448 233.222 175.448C234.491 175.448 235.611 175.579 236.582 175.84C237.552 176.101 238.411 176.437 239.158 176.848C239.904 177.259 240.539 177.707 241.062 178.192C241.584 178.64 242.014 179.088 242.35 179.536H242.518V160.664H249.238V203H242.854V198.968ZM226.95 189.56C226.95 190.605 227.118 191.613 227.454 192.584C227.827 193.555 228.35 194.413 229.022 195.16C229.731 195.907 230.571 196.504 231.542 196.952C232.512 197.4 233.614 197.624 234.846 197.624C236.078 197.624 237.179 197.4 238.15 196.952C239.12 196.504 239.942 195.907 240.614 195.16C241.323 194.413 241.846 193.555 242.182 192.584C242.555 191.613 242.742 190.605 242.742 189.56C242.742 188.515 242.555 187.507 242.182 186.536C241.846 185.565 241.323 184.707 240.614 183.96C239.942 183.213 239.12 182.616 238.15 182.168C237.179 181.72 236.078 181.496 234.846 181.496C233.614 181.496 232.512 181.72 231.542 182.168C230.571 182.616 229.731 183.213 229.022 183.96C228.35 184.707 227.827 185.565 227.454 186.536C227.118 187.507 226.95 188.515 226.95 189.56Z" fill="#252525"/>
</svg>
