<svg width="357" height="129" viewBox="0 0 357 129" fill="none" xmlns="http://www.w3.org/2000/svg">
<path d="M1.288 1.592H3.472V17.972H11.896V20H1.288V1.592ZM13.222 13.916C13.222 12.9627 13.3867 12.096 13.716 11.316C14.0453 10.536 14.496 9.86867 15.068 9.314C15.64 8.742 16.3247 8.3 17.122 7.988C17.9193 7.676 18.786 7.52 19.722 7.52C20.658 7.52 21.5247 7.676 22.322 7.988C23.1193 8.3 23.804 8.742 24.376 9.314C24.948 9.86867 25.3987 10.536 25.728 11.316C26.0573 12.096 26.222 12.9627 26.222 13.916C26.222 14.8693 26.0573 15.736 25.728 16.516C25.3987 17.296 24.948 17.972 24.376 18.544C23.804 19.0987 23.1193 19.532 22.322 19.844C21.5247 20.156 20.658 20.312 19.722 20.312C18.786 20.312 17.9193 20.156 17.122 19.844C16.3247 19.532 15.64 19.0987 15.068 18.544C14.496 17.972 14.0453 17.296 13.716 16.516C13.3867 15.736 13.222 14.8693 13.222 13.916ZM15.406 13.916C15.406 14.5573 15.5013 15.1553 15.692 15.71C15.9 16.2473 16.1947 16.724 16.576 17.14C16.9573 17.5387 17.408 17.8593 17.928 18.102C18.4653 18.3273 19.0633 18.44 19.722 18.44C20.3807 18.44 20.97 18.3273 21.49 18.102C22.0273 17.8593 22.4867 17.5387 22.868 17.14C23.2493 16.724 23.5353 16.2473 23.726 15.71C23.934 15.1553 24.038 14.5573 24.038 13.916C24.038 13.2747 23.934 12.6853 23.726 12.148C23.5353 11.5933 23.2493 11.1167 22.868 10.718C22.4867 10.302 22.0273 9.98133 21.49 9.756C20.97 9.51333 20.3807 9.392 19.722 9.392C19.0633 9.392 18.4653 9.51333 17.928 9.756C17.408 9.98133 16.9573 10.302 16.576 10.718C16.1947 11.1167 15.9 11.5933 15.692 12.148C15.5013 12.6853 15.406 13.2747 15.406 13.916ZM29.3615 10.718C29.3615 10.1633 29.3442 9.64333 29.3095 9.158C29.2748 8.67267 29.2575 8.23067 29.2575 7.832H31.1815C31.1815 8.16133 31.1902 8.49067 31.2075 8.82C31.2248 9.14933 31.2335 9.48733 31.2335 9.834H31.2855C31.4242 9.53933 31.6148 9.25333 31.8575 8.976C32.1175 8.69867 32.4208 8.456 32.7675 8.248C33.1142 8.02267 33.5042 7.84933 33.9375 7.728C34.3708 7.58933 34.8388 7.52 35.3415 7.52C35.4802 7.52 35.6188 7.52867 35.7575 7.546C35.8962 7.56333 36.0348 7.598 36.1735 7.65L36.0435 9.704C35.6968 9.6 35.3328 9.548 34.9515 9.548C33.7035 9.548 32.7935 9.95533 32.2215 10.77C31.6668 11.5673 31.3895 12.668 31.3895 14.072V20H29.3615V10.718ZM48.9131 17.79C48.1851 18.726 47.3878 19.3847 46.5211 19.766C45.6544 20.13 44.6491 20.312 43.5051 20.312C42.5518 20.312 41.6938 20.1473 40.9311 19.818C40.1684 19.4713 39.5184 19.012 38.9811 18.44C38.4611 17.868 38.0538 17.192 37.7591 16.412C37.4818 15.632 37.3431 14.8 37.3431 13.916C37.3431 12.98 37.4991 12.122 37.8111 11.342C38.1231 10.5447 38.5564 9.86867 39.1111 9.314C39.6658 8.742 40.3244 8.3 41.0871 7.988C41.8498 7.676 42.6818 7.52 43.5831 7.52C44.4324 7.52 45.2124 7.66733 45.9231 7.962C46.6338 8.23933 47.2404 8.65533 47.7431 9.21C48.2631 9.74733 48.6618 10.4147 48.9391 11.212C49.2164 11.992 49.3551 12.8847 49.3551 13.89V14.54H39.5271C39.5618 15.06 39.6831 15.5627 39.8911 16.048C40.1164 16.516 40.4024 16.932 40.7491 17.296C41.0958 17.6427 41.5031 17.92 41.9711 18.128C42.4391 18.336 42.9504 18.44 43.5051 18.44C44.3891 18.44 45.1344 18.284 45.7411 17.972C46.3478 17.66 46.8938 17.2007 47.3791 16.594L48.9131 17.79ZM47.1711 12.824C47.1364 11.784 46.7984 10.952 46.1571 10.328C45.5158 9.704 44.6318 9.392 43.5051 9.392C42.3784 9.392 41.4684 9.704 40.7751 10.328C40.0818 10.952 39.6658 11.784 39.5271 12.824H47.1711ZM52.4924 10.718C52.4924 10.1633 52.475 9.64333 52.4404 9.158C52.4057 8.67267 52.3884 8.23067 52.3884 7.832H54.3124C54.3124 8.16133 54.321 8.49067 54.3384 8.82C54.3557 9.14933 54.3644 9.48733 54.3644 9.834H54.4164C54.555 9.53933 54.7457 9.25333 54.9884 8.976C55.2484 8.69867 55.5517 8.456 55.8984 8.248C56.245 8.02267 56.635 7.84933 57.0684 7.728C57.5017 7.58933 57.9697 7.52 58.4724 7.52C59.131 7.52 59.677 7.60667 60.1104 7.78C60.561 7.936 60.9337 8.13533 61.2284 8.378C61.523 8.60333 61.7484 8.85467 61.9044 9.132C62.0777 9.392 62.2164 9.626 62.3204 9.834C62.771 9.106 63.291 8.54267 63.8804 8.144C64.4697 7.728 65.2324 7.52 66.1684 7.52C67.035 7.52 67.763 7.64133 68.3524 7.884C68.9417 8.10933 69.4184 8.44733 69.7824 8.898C70.1464 9.33133 70.4064 9.86867 70.5624 10.51C70.7184 11.134 70.7964 11.836 70.7964 12.616V20H68.7684V12.72C68.7684 12.304 68.725 11.8967 68.6384 11.498C68.5517 11.0993 68.3957 10.744 68.1704 10.432C67.945 10.12 67.6417 9.86867 67.2604 9.678C66.879 9.48733 66.3937 9.392 65.8044 9.392C65.371 9.392 64.9637 9.47867 64.5824 9.652C64.201 9.82533 63.863 10.068 63.5684 10.38C63.291 10.692 63.0657 11.0733 62.8924 11.524C62.7364 11.9573 62.6584 12.4427 62.6584 12.98V20H60.6304V13.11C60.6304 11.758 60.4484 10.8047 60.0844 10.25C59.7204 9.678 59.1224 9.392 58.2904 9.392C57.6317 9.392 57.0597 9.50467 56.5744 9.73C56.1064 9.95533 55.7164 10.276 55.4044 10.692C55.1097 11.108 54.8844 11.602 54.7284 12.174C54.5897 12.746 54.5204 13.3787 54.5204 14.072V20H52.4924V10.718ZM82.0513 7.832H84.0793V20H82.0513V7.832ZM81.5833 3.074C81.5833 2.67533 81.722 2.32867 81.9993 2.034C82.294 1.73933 82.6493 1.592 83.0653 1.592C83.4813 1.592 83.828 1.73933 84.1053 2.034C84.4 2.32867 84.5473 2.67533 84.5473 3.074C84.5473 3.50733 84.4086 3.86267 84.1313 4.14C83.854 4.41733 83.4986 4.556 83.0653 4.556C82.632 4.556 82.2766 4.41733 81.9993 4.14C81.722 3.86267 81.5833 3.50733 81.5833 3.074ZM88.0114 7.832H90.0394V9.6H90.0914C90.6461 8.94133 91.2874 8.43 92.0154 8.066C92.7607 7.702 93.5754 7.52 94.4594 7.52C95.4127 7.52 96.2794 7.68467 97.0594 8.014C97.8567 8.326 98.5327 8.768 99.0874 9.34C99.6421 9.912 100.075 10.588 100.387 11.368C100.699 12.148 100.855 12.9973 100.855 13.916C100.855 14.8347 100.699 15.684 100.387 16.464C100.075 17.244 99.6421 17.92 99.0874 18.492C98.5501 19.064 97.9087 19.5147 97.1634 19.844C96.4181 20.156 95.6207 20.312 94.7714 20.312C93.6794 20.312 92.7174 20.078 91.8854 19.61C91.0707 19.1247 90.4727 18.5353 90.0914 17.842H90.0394V25.928H88.0114V7.832ZM90.0394 13.916C90.0394 14.5573 90.1347 15.1553 90.3254 15.71C90.5334 16.2473 90.8281 16.724 91.2094 17.14C91.5907 17.5387 92.0414 17.8593 92.5614 18.102C93.0987 18.3273 93.6967 18.44 94.3554 18.44C95.0141 18.44 95.6034 18.3273 96.1234 18.102C96.6607 17.8593 97.1201 17.5387 97.5014 17.14C97.8827 16.724 98.1687 16.2473 98.3594 15.71C98.5674 15.1553 98.6714 14.5573 98.6714 13.916C98.6714 13.2747 98.5674 12.6853 98.3594 12.148C98.1687 11.5933 97.8827 11.1167 97.5014 10.718C97.1201 10.302 96.6607 9.98133 96.1234 9.756C95.6034 9.51333 95.0141 9.392 94.3554 9.392C93.6967 9.392 93.0987 9.51333 92.5614 9.756C92.0414 9.98133 91.5907 10.302 91.2094 10.718C90.8281 11.1167 90.5334 11.5933 90.3254 12.148C90.1347 12.6853 90.0394 13.2747 90.0394 13.916ZM104.27 16.802C104.669 17.3047 105.102 17.7033 105.57 17.998C106.055 18.2927 106.662 18.44 107.39 18.44C107.702 18.44 108.014 18.4053 108.326 18.336C108.655 18.2667 108.95 18.154 109.21 17.998C109.47 17.842 109.678 17.6513 109.834 17.426C109.99 17.1833 110.068 16.8973 110.068 16.568C110.068 16.2387 109.99 15.97 109.834 15.762C109.695 15.554 109.505 15.3807 109.262 15.242C109.019 15.086 108.742 14.9647 108.43 14.878C108.118 14.7913 107.797 14.7133 107.468 14.644C106.896 14.5227 106.35 14.384 105.83 14.228C105.31 14.072 104.851 13.8727 104.452 13.63C104.071 13.37 103.759 13.0407 103.516 12.642C103.291 12.2433 103.178 11.732 103.178 11.108C103.178 10.5187 103.308 9.99867 103.568 9.548C103.828 9.09733 104.175 8.72467 104.608 8.43C105.041 8.13533 105.527 7.91 106.064 7.754C106.601 7.598 107.156 7.52 107.728 7.52C108.595 7.52 109.392 7.69333 110.12 8.04C110.865 8.38667 111.446 8.95 111.862 9.73L110.172 10.848C109.912 10.4147 109.565 10.068 109.132 9.808C108.716 9.53067 108.205 9.392 107.598 9.392C107.321 9.392 107.035 9.42667 106.74 9.496C106.463 9.56533 106.211 9.66933 105.986 9.808C105.761 9.94667 105.57 10.1287 105.414 10.354C105.275 10.562 105.206 10.8047 105.206 11.082C105.206 11.342 105.284 11.5673 105.44 11.758C105.613 11.9313 105.839 12.0873 106.116 12.226C106.411 12.3647 106.74 12.486 107.104 12.59C107.485 12.694 107.875 12.7807 108.274 12.85C108.811 12.954 109.323 13.0927 109.808 13.266C110.293 13.422 110.718 13.6387 111.082 13.916C111.446 14.1933 111.732 14.54 111.94 14.956C112.148 15.372 112.252 15.8833 112.252 16.49C112.252 17.1833 112.113 17.7727 111.836 18.258C111.559 18.7433 111.186 19.142 110.718 19.454C110.267 19.7487 109.747 19.9653 109.158 20.104C108.586 20.2427 107.997 20.312 107.39 20.312C106.35 20.312 105.449 20.156 104.686 19.844C103.941 19.5147 103.265 18.9167 102.658 18.05L104.27 16.802ZM125.688 17.114C125.688 17.6687 125.706 18.1887 125.74 18.674C125.775 19.1593 125.792 19.6013 125.792 20H123.868C123.868 19.6707 123.86 19.3413 123.842 19.012C123.825 18.6827 123.816 18.3447 123.816 17.998H123.764C123.626 18.2927 123.426 18.5787 123.166 18.856C122.924 19.1333 122.629 19.3847 122.282 19.61C121.936 19.818 121.546 19.9827 121.112 20.104C120.679 20.2427 120.211 20.312 119.708 20.312C118.911 20.312 118.218 20.1907 117.628 19.948C117.056 19.7053 116.58 19.3673 116.198 18.934C115.817 18.5007 115.531 17.9807 115.34 17.374C115.167 16.75 115.08 16.074 115.08 15.346V7.832H117.108V15.138C117.108 16.1607 117.334 16.9667 117.784 17.556C118.235 18.1453 118.937 18.44 119.89 18.44C120.549 18.44 121.112 18.3273 121.58 18.102C122.066 17.8767 122.456 17.556 122.75 17.14C123.062 16.724 123.288 16.23 123.426 15.658C123.582 15.086 123.66 14.4533 123.66 13.76V7.832H125.688V17.114ZM129.528 10.718C129.528 10.1633 129.51 9.64333 129.476 9.158C129.441 8.67267 129.424 8.23067 129.424 7.832H131.348C131.348 8.16133 131.356 8.49067 131.374 8.82C131.391 9.14933 131.4 9.48733 131.4 9.834H131.452C131.59 9.53933 131.781 9.25333 132.024 8.976C132.284 8.69867 132.587 8.456 132.934 8.248C133.28 8.02267 133.67 7.84933 134.104 7.728C134.537 7.58933 135.005 7.52 135.508 7.52C136.166 7.52 136.712 7.60667 137.146 7.78C137.596 7.936 137.969 8.13533 138.264 8.378C138.558 8.60333 138.784 8.85467 138.94 9.132C139.113 9.392 139.252 9.626 139.356 9.834C139.806 9.106 140.326 8.54267 140.916 8.144C141.505 7.728 142.268 7.52 143.204 7.52C144.07 7.52 144.798 7.64133 145.388 7.884C145.977 8.10933 146.454 8.44733 146.818 8.898C147.182 9.33133 147.442 9.86867 147.598 10.51C147.754 11.134 147.832 11.836 147.832 12.616V20H145.804V12.72C145.804 12.304 145.76 11.8967 145.674 11.498C145.587 11.0993 145.431 10.744 145.206 10.432C144.98 10.12 144.677 9.86867 144.296 9.678C143.914 9.48733 143.429 9.392 142.84 9.392C142.406 9.392 141.999 9.47867 141.618 9.652C141.236 9.82533 140.898 10.068 140.604 10.38C140.326 10.692 140.101 11.0733 139.928 11.524C139.772 11.9573 139.694 12.4427 139.694 12.98V20H137.666V13.11C137.666 11.758 137.484 10.8047 137.12 10.25C136.756 9.678 136.158 9.392 135.326 9.392C134.667 9.392 134.095 9.50467 133.61 9.73C133.142 9.95533 132.752 10.276 132.44 10.692C132.145 11.108 131.92 11.602 131.764 12.174C131.625 12.746 131.556 13.3787 131.556 14.072V20H129.528V10.718ZM169.018 17.842H168.966C168.585 18.5353 167.978 19.1247 167.146 19.61C166.332 20.078 165.378 20.312 164.286 20.312C163.437 20.312 162.64 20.156 161.894 19.844C161.149 19.5147 160.499 19.064 159.944 18.492C159.407 17.92 158.982 17.244 158.67 16.464C158.358 15.684 158.202 14.8347 158.202 13.916C158.202 12.9973 158.358 12.148 158.67 11.368C158.982 10.588 159.416 9.912 159.97 9.34C160.525 8.768 161.192 8.326 161.972 8.014C162.77 7.68467 163.645 7.52 164.598 7.52C165.482 7.52 166.288 7.702 167.016 8.066C167.762 8.43 168.412 8.94133 168.966 9.6H169.018V0.343999H171.046V20H169.018V17.842ZM169.018 13.916C169.018 13.2747 168.914 12.6853 168.706 12.148C168.516 11.5933 168.23 11.1167 167.848 10.718C167.467 10.302 167.008 9.98133 166.47 9.756C165.95 9.51333 165.361 9.392 164.702 9.392C164.044 9.392 163.446 9.51333 162.908 9.756C162.388 9.98133 161.938 10.302 161.556 10.718C161.175 11.1167 160.88 11.5933 160.672 12.148C160.482 12.6853 160.386 13.2747 160.386 13.916C160.386 14.5573 160.482 15.1553 160.672 15.71C160.88 16.2473 161.175 16.724 161.556 17.14C161.938 17.5387 162.388 17.8593 162.908 18.102C163.446 18.3273 164.044 18.44 164.702 18.44C165.361 18.44 165.95 18.3273 166.47 18.102C167.008 17.8593 167.467 17.5387 167.848 17.14C168.23 16.724 168.516 16.2473 168.706 15.71C168.914 15.1553 169.018 14.5573 169.018 13.916ZM174.097 13.916C174.097 12.9627 174.262 12.096 174.591 11.316C174.92 10.536 175.371 9.86867 175.943 9.314C176.515 8.742 177.2 8.3 177.997 7.988C178.794 7.676 179.661 7.52 180.597 7.52C181.533 7.52 182.4 7.676 183.197 7.988C183.994 8.3 184.679 8.742 185.251 9.314C185.823 9.86867 186.274 10.536 186.603 11.316C186.932 12.096 187.097 12.9627 187.097 13.916C187.097 14.8693 186.932 15.736 186.603 16.516C186.274 17.296 185.823 17.972 185.251 18.544C184.679 19.0987 183.994 19.532 183.197 19.844C182.4 20.156 181.533 20.312 180.597 20.312C179.661 20.312 178.794 20.156 177.997 19.844C177.2 19.532 176.515 19.0987 175.943 18.544C175.371 17.972 174.92 17.296 174.591 16.516C174.262 15.736 174.097 14.8693 174.097 13.916ZM176.281 13.916C176.281 14.5573 176.376 15.1553 176.567 15.71C176.775 16.2473 177.07 16.724 177.451 17.14C177.832 17.5387 178.283 17.8593 178.803 18.102C179.34 18.3273 179.938 18.44 180.597 18.44C181.256 18.44 181.845 18.3273 182.365 18.102C182.902 17.8593 183.362 17.5387 183.743 17.14C184.124 16.724 184.41 16.2473 184.601 15.71C184.809 15.1553 184.913 14.5573 184.913 13.916C184.913 13.2747 184.809 12.6853 184.601 12.148C184.41 11.5933 184.124 11.1167 183.743 10.718C183.362 10.302 182.902 9.98133 182.365 9.756C181.845 9.51333 181.256 9.392 180.597 9.392C179.938 9.392 179.34 9.51333 178.803 9.756C178.283 9.98133 177.832 10.302 177.451 10.718C177.07 11.1167 176.775 11.5933 176.567 12.148C176.376 12.6853 176.281 13.2747 176.281 13.916ZM190.419 0.343999H192.447V20H190.419V0.343999ZM195.781 13.916C195.781 12.9627 195.945 12.096 196.275 11.316C196.604 10.536 197.055 9.86867 197.627 9.314C198.199 8.742 198.883 8.3 199.681 7.988C200.478 7.676 201.345 7.52 202.281 7.52C203.217 7.52 204.083 7.676 204.881 7.988C205.678 8.3 206.363 8.742 206.935 9.314C207.507 9.86867 207.957 10.536 208.287 11.316C208.616 12.096 208.781 12.9627 208.781 13.916C208.781 14.8693 208.616 15.736 208.287 16.516C207.957 17.296 207.507 17.972 206.935 18.544C206.363 19.0987 205.678 19.532 204.881 19.844C204.083 20.156 203.217 20.312 202.281 20.312C201.345 20.312 200.478 20.156 199.681 19.844C198.883 19.532 198.199 19.0987 197.627 18.544C197.055 17.972 196.604 17.296 196.275 16.516C195.945 15.736 195.781 14.8693 195.781 13.916ZM197.965 13.916C197.965 14.5573 198.06 15.1553 198.251 15.71C198.459 16.2473 198.753 16.724 199.135 17.14C199.516 17.5387 199.967 17.8593 200.487 18.102C201.024 18.3273 201.622 18.44 202.281 18.44C202.939 18.44 203.529 18.3273 204.049 18.102C204.586 17.8593 205.045 17.5387 205.427 17.14C205.808 16.724 206.094 16.2473 206.285 15.71C206.493 15.1553 206.597 14.5573 206.597 13.916C206.597 13.2747 206.493 12.6853 206.285 12.148C206.094 11.5933 205.808 11.1167 205.427 10.718C205.045 10.302 204.586 9.98133 204.049 9.756C203.529 9.51333 202.939 9.392 202.281 9.392C201.622 9.392 201.024 9.51333 200.487 9.756C199.967 9.98133 199.516 10.302 199.135 10.718C198.753 11.1167 198.459 11.5933 198.251 12.148C198.06 12.6853 197.965 13.2747 197.965 13.916ZM211.92 10.718C211.92 10.1633 211.903 9.64333 211.868 9.158C211.833 8.67267 211.816 8.23067 211.816 7.832H213.74C213.74 8.16133 213.749 8.49067 213.766 8.82C213.783 9.14933 213.792 9.48733 213.792 9.834H213.844C213.983 9.53933 214.173 9.25333 214.416 8.976C214.676 8.69867 214.979 8.456 215.326 8.248C215.673 8.02267 216.063 7.84933 216.496 7.728C216.929 7.58933 217.397 7.52 217.9 7.52C218.039 7.52 218.177 7.52867 218.316 7.546C218.455 7.56333 218.593 7.598 218.732 7.65L218.602 9.704C218.255 9.6 217.891 9.548 217.51 9.548C216.262 9.548 215.352 9.95533 214.78 10.77C214.225 11.5673 213.948 12.668 213.948 14.072V20H211.92V10.718ZM228.557 16.802C228.956 17.3047 229.389 17.7033 229.857 17.998C230.342 18.2927 230.949 18.44 231.677 18.44C231.989 18.44 232.301 18.4053 232.613 18.336C232.942 18.2667 233.237 18.154 233.497 17.998C233.757 17.842 233.965 17.6513 234.121 17.426C234.277 17.1833 234.355 16.8973 234.355 16.568C234.355 16.2387 234.277 15.97 234.121 15.762C233.982 15.554 233.792 15.3807 233.549 15.242C233.306 15.086 233.029 14.9647 232.717 14.878C232.405 14.7913 232.084 14.7133 231.755 14.644C231.183 14.5227 230.637 14.384 230.117 14.228C229.597 14.072 229.138 13.8727 228.739 13.63C228.358 13.37 228.046 13.0407 227.803 12.642C227.578 12.2433 227.465 11.732 227.465 11.108C227.465 10.5187 227.595 9.99867 227.855 9.548C228.115 9.09733 228.462 8.72467 228.895 8.43C229.328 8.13533 229.814 7.91 230.351 7.754C230.888 7.598 231.443 7.52 232.015 7.52C232.882 7.52 233.679 7.69333 234.407 8.04C235.152 8.38667 235.733 8.95 236.149 9.73L234.459 10.848C234.199 10.4147 233.852 10.068 233.419 9.808C233.003 9.53067 232.492 9.392 231.885 9.392C231.608 9.392 231.322 9.42667 231.027 9.496C230.75 9.56533 230.498 9.66933 230.273 9.808C230.048 9.94667 229.857 10.1287 229.701 10.354C229.562 10.562 229.493 10.8047 229.493 11.082C229.493 11.342 229.571 11.5673 229.727 11.758C229.9 11.9313 230.126 12.0873 230.403 12.226C230.698 12.3647 231.027 12.486 231.391 12.59C231.772 12.694 232.162 12.7807 232.561 12.85C233.098 12.954 233.61 13.0927 234.095 13.266C234.58 13.422 235.005 13.6387 235.369 13.916C235.733 14.1933 236.019 14.54 236.227 14.956C236.435 15.372 236.539 15.8833 236.539 16.49C236.539 17.1833 236.4 17.7727 236.123 18.258C235.846 18.7433 235.473 19.142 235.005 19.454C234.554 19.7487 234.034 19.9653 233.445 20.104C232.873 20.2427 232.284 20.312 231.677 20.312C230.637 20.312 229.736 20.156 228.973 19.844C228.228 19.5147 227.552 18.9167 226.945 18.05L228.557 16.802ZM239.549 7.832H241.577V20H239.549V7.832ZM239.081 3.074C239.081 2.67533 239.22 2.32867 239.497 2.034C239.792 1.73933 240.147 1.592 240.563 1.592C240.979 1.592 241.326 1.73933 241.603 2.034C241.898 2.32867 242.045 2.67533 242.045 3.074C242.045 3.50733 241.907 3.86267 241.629 4.14C241.352 4.41733 240.997 4.556 240.563 4.556C240.13 4.556 239.775 4.41733 239.497 4.14C239.22 3.86267 239.081 3.50733 239.081 3.074ZM252.269 9.548H248.681V15.632C248.681 16.0307 248.69 16.4033 248.707 16.75C248.725 17.0793 248.794 17.374 248.915 17.634C249.037 17.8767 249.219 18.076 249.461 18.232C249.704 18.3707 250.051 18.44 250.501 18.44C250.796 18.44 251.099 18.4053 251.411 18.336C251.723 18.2667 252.018 18.1627 252.295 18.024L252.373 19.87C252.027 20.026 251.637 20.1387 251.203 20.208C250.787 20.2773 250.389 20.312 250.007 20.312C249.279 20.312 248.699 20.2167 248.265 20.026C247.832 19.8353 247.494 19.5667 247.251 19.22C247.009 18.8733 246.844 18.4487 246.757 17.946C246.688 17.426 246.653 16.854 246.653 16.23V9.548H244.001V7.832H246.653V4.374H248.681V7.832H252.269V9.548ZM261.834 9.392C262.458 8.75067 263.195 8.28267 264.044 7.988C264.911 7.676 265.786 7.52 266.67 7.52C268.473 7.52 269.773 7.94467 270.57 8.794C271.368 9.64333 271.766 10.9347 271.766 12.668V17.894C271.766 18.2407 271.784 18.6047 271.818 18.986C271.853 19.35 271.896 19.688 271.948 20H269.998C269.929 19.7227 269.886 19.4193 269.868 19.09C269.868 18.7433 269.868 18.44 269.868 18.18H269.816C269.418 18.804 268.88 19.3153 268.204 19.714C267.546 20.1127 266.748 20.312 265.812 20.312C265.188 20.312 264.599 20.234 264.044 20.078C263.507 19.922 263.03 19.6967 262.614 19.402C262.216 19.09 261.895 18.7087 261.652 18.258C261.41 17.8073 261.288 17.2873 261.288 16.698C261.288 15.6927 261.548 14.904 262.068 14.332C262.588 13.76 263.23 13.3353 263.992 13.058C264.772 12.7807 265.604 12.6073 266.488 12.538C267.39 12.4687 268.213 12.434 268.958 12.434H269.738V12.07C269.738 11.186 269.47 10.5187 268.932 10.068C268.412 9.61733 267.676 9.392 266.722 9.392C266.064 9.392 265.414 9.50467 264.772 9.73C264.148 9.938 263.594 10.2673 263.108 10.718L261.834 9.392ZM267.71 14.15C266.41 14.15 265.379 14.332 264.616 14.696C263.854 15.06 263.472 15.658 263.472 16.49C263.472 17.2527 263.724 17.7987 264.226 18.128C264.746 18.44 265.388 18.596 266.15 18.596C266.74 18.596 267.251 18.5007 267.684 18.31C268.135 18.102 268.508 17.8333 268.802 17.504C269.097 17.1747 269.322 16.7933 269.478 16.36C269.634 15.9093 269.721 15.4327 269.738 14.93V14.15H267.71ZM275.473 10.718C275.473 10.1633 275.455 9.64333 275.421 9.158C275.386 8.67267 275.369 8.23067 275.369 7.832H277.293C277.293 8.16133 277.301 8.49067 277.319 8.82C277.336 9.14933 277.345 9.48733 277.345 9.834H277.397C277.535 9.53933 277.726 9.25333 277.969 8.976C278.229 8.69867 278.532 8.456 278.879 8.248C279.225 8.02267 279.615 7.84933 280.049 7.728C280.482 7.58933 280.95 7.52 281.453 7.52C282.111 7.52 282.657 7.60667 283.091 7.78C283.541 7.936 283.914 8.13533 284.209 8.378C284.503 8.60333 284.729 8.85467 284.885 9.132C285.058 9.392 285.197 9.626 285.301 9.834C285.751 9.106 286.271 8.54267 286.861 8.144C287.45 7.728 288.213 7.52 289.149 7.52C290.015 7.52 290.743 7.64133 291.333 7.884C291.922 8.10933 292.399 8.44733 292.763 8.898C293.127 9.33133 293.387 9.86867 293.543 10.51C293.699 11.134 293.777 11.836 293.777 12.616V20H291.749V12.72C291.749 12.304 291.705 11.8967 291.619 11.498C291.532 11.0993 291.376 10.744 291.151 10.432C290.925 10.12 290.622 9.86867 290.241 9.678C289.859 9.48733 289.374 9.392 288.785 9.392C288.351 9.392 287.944 9.47867 287.563 9.652C287.181 9.82533 286.843 10.068 286.549 10.38C286.271 10.692 286.046 11.0733 285.873 11.524C285.717 11.9573 285.639 12.4427 285.639 12.98V20H283.611V13.11C283.611 11.758 283.429 10.8047 283.065 10.25C282.701 9.678 282.103 9.392 281.271 9.392C280.612 9.392 280.04 9.50467 279.555 9.73C279.087 9.95533 278.697 10.276 278.385 10.692C278.09 11.108 277.865 11.602 277.709 12.174C277.57 12.746 277.501 13.3787 277.501 14.072V20H275.473V10.718ZM308.481 17.79C307.753 18.726 306.956 19.3847 306.089 19.766C305.223 20.13 304.217 20.312 303.073 20.312C302.12 20.312 301.262 20.1473 300.499 19.818C299.737 19.4713 299.087 19.012 298.549 18.44C298.029 17.868 297.622 17.192 297.327 16.412C297.05 15.632 296.911 14.8 296.911 13.916C296.911 12.98 297.067 12.122 297.379 11.342C297.691 10.5447 298.125 9.86867 298.679 9.314C299.234 8.742 299.893 8.3 300.655 7.988C301.418 7.676 302.25 7.52 303.151 7.52C304.001 7.52 304.781 7.66733 305.491 7.962C306.202 8.23933 306.809 8.65533 307.311 9.21C307.831 9.74733 308.23 10.4147 308.507 11.212C308.785 11.992 308.923 12.8847 308.923 13.89V14.54H299.095C299.13 15.06 299.251 15.5627 299.459 16.048C299.685 16.516 299.971 16.932 300.317 17.296C300.664 17.6427 301.071 17.92 301.539 18.128C302.007 18.336 302.519 18.44 303.073 18.44C303.957 18.44 304.703 18.284 305.309 17.972C305.916 17.66 306.462 17.2007 306.947 16.594L308.481 17.79ZM306.739 12.824C306.705 11.784 306.367 10.952 305.725 10.328C305.084 9.704 304.2 9.392 303.073 9.392C301.947 9.392 301.037 9.704 300.343 10.328C299.65 10.952 299.234 11.784 299.095 12.824H306.739ZM318.717 9.548H315.129V15.632C315.129 16.0307 315.137 16.4033 315.155 16.75C315.172 17.0793 315.241 17.374 315.363 17.634C315.484 17.8767 315.666 18.076 315.909 18.232C316.151 18.3707 316.498 18.44 316.949 18.44C317.243 18.44 317.547 18.4053 317.859 18.336C318.171 18.2667 318.465 18.1627 318.743 18.024L318.821 19.87C318.474 20.026 318.084 20.1387 317.651 20.208C317.235 20.2773 316.836 20.312 316.455 20.312C315.727 20.312 315.146 20.2167 314.713 20.026C314.279 19.8353 313.941 19.5667 313.699 19.22C313.456 18.8733 313.291 18.4487 313.205 17.946C313.135 17.426 313.101 16.854 313.101 16.23V9.548H310.449V7.832H313.101V4.374H315.129V7.832H318.717V9.548ZM322.631 23.588H320.629L322.397 17.348H324.763L322.631 23.588ZM9.582 46.874C9.14867 46.354 8.68067 45.9813 8.178 45.756C7.67533 45.5133 7.12067 45.392 6.514 45.392C5.838 45.392 5.24 45.5133 4.72 45.756C4.2 45.9813 3.76667 46.302 3.42 46.718C3.09067 47.134 2.83933 47.6193 2.666 48.174C2.49267 48.7113 2.406 49.292 2.406 49.916C2.406 50.54 2.50133 51.1293 2.692 51.684C2.9 52.2213 3.17733 52.698 3.524 53.114C3.888 53.53 4.32133 53.8593 4.824 54.102C5.32667 54.3273 5.89 54.44 6.514 54.44C7.84867 54.44 8.88 53.9373 9.608 52.932L11.116 54.362C10.5267 55.038 9.83333 55.532 9.036 55.844C8.23867 56.156 7.398 56.312 6.514 56.312C5.578 56.312 4.72 56.156 3.94 55.844C3.16 55.532 2.49267 55.09 1.938 54.518C1.40067 53.946 0.976 53.27 0.664 52.49C0.369333 51.71 0.222 50.852 0.222 49.916C0.222 48.9973 0.369333 48.148 0.664 47.368C0.976 46.588 1.40933 45.912 1.964 45.34C2.51867 44.768 3.17733 44.326 3.94 44.014C4.72 43.6847 5.578 43.52 6.514 43.52C7.41533 43.52 8.26467 43.676 9.062 43.988C9.87667 44.3 10.5873 44.7853 11.194 45.444L9.582 46.874ZM12.765 49.916C12.765 48.9627 12.9296 48.096 13.259 47.316C13.5883 46.536 14.039 45.8687 14.611 45.314C15.183 44.742 15.8676 44.3 16.665 43.988C17.4623 43.676 18.329 43.52 19.265 43.52C20.201 43.52 21.0676 43.676 21.865 43.988C22.6623 44.3 23.347 44.742 23.919 45.314C24.491 45.8687 24.9416 46.536 25.271 47.316C25.6003 48.096 25.765 48.9627 25.765 49.916C25.765 50.8693 25.6003 51.736 25.271 52.516C24.9416 53.296 24.491 53.972 23.919 54.544C23.347 55.0987 22.6623 55.532 21.865 55.844C21.0676 56.156 20.201 56.312 19.265 56.312C18.329 56.312 17.4623 56.156 16.665 55.844C15.8676 55.532 15.183 55.0987 14.611 54.544C14.039 53.972 13.5883 53.296 13.259 52.516C12.9296 51.736 12.765 50.8693 12.765 49.916ZM14.949 49.916C14.949 50.5573 15.0443 51.1553 15.235 51.71C15.443 52.2473 15.7376 52.724 16.119 53.14C16.5003 53.5387 16.951 53.8593 17.471 54.102C18.0083 54.3273 18.6063 54.44 19.265 54.44C19.9236 54.44 20.513 54.3273 21.033 54.102C21.5703 53.8593 22.0296 53.5387 22.411 53.14C22.7923 52.724 23.0783 52.2473 23.269 51.71C23.477 51.1553 23.581 50.5573 23.581 49.916C23.581 49.2747 23.477 48.6853 23.269 48.148C23.0783 47.5933 22.7923 47.1167 22.411 46.718C22.0296 46.302 21.5703 45.9813 21.033 45.756C20.513 45.5133 19.9236 45.392 19.265 45.392C18.6063 45.392 18.0083 45.5133 17.471 45.756C16.951 45.9813 16.5003 46.302 16.119 46.718C15.7376 47.1167 15.443 47.5933 15.235 48.148C15.0443 48.6853 14.949 49.2747 14.949 49.916ZM28.9045 46.718C28.9045 46.1633 28.8871 45.6433 28.8525 45.158C28.8178 44.6727 28.8005 44.2307 28.8005 43.832H30.7245C30.7245 44.1613 30.7331 44.4907 30.7505 44.82C30.7678 45.1493 30.7765 45.4873 30.7765 45.834H30.8285C30.9671 45.5393 31.1578 45.2533 31.4005 44.976C31.6605 44.6987 31.9638 44.456 32.3105 44.248C32.6571 44.0227 33.0471 43.8493 33.4805 43.728C33.9138 43.5893 34.3818 43.52 34.8845 43.52C35.6818 43.52 36.3665 43.6413 36.9385 43.884C37.5278 44.1267 38.0131 44.4647 38.3945 44.898C38.7758 45.3313 39.0531 45.86 39.2265 46.484C39.4171 47.0907 39.5125 47.758 39.5125 48.486V56H37.4845V48.694C37.4845 47.6713 37.2591 46.8653 36.8085 46.276C36.3578 45.6867 35.6558 45.392 34.7025 45.392C34.0438 45.392 33.4718 45.5047 32.9865 45.73C32.5185 45.9553 32.1285 46.276 31.8165 46.692C31.5218 47.108 31.2965 47.602 31.1405 48.174C31.0018 48.746 30.9325 49.3787 30.9325 50.072V56H28.9045V46.718ZM43.6117 52.802C44.0104 53.3047 44.4437 53.7033 44.9117 53.998C45.3971 54.2927 46.0037 54.44 46.7317 54.44C47.0437 54.44 47.3557 54.4053 47.6677 54.336C47.9971 54.2667 48.2917 54.154 48.5517 53.998C48.8117 53.842 49.0197 53.6513 49.1757 53.426C49.3317 53.1833 49.4097 52.8973 49.4097 52.568C49.4097 52.2387 49.3317 51.97 49.1757 51.762C49.0371 51.554 48.8464 51.3807 48.6037 51.242C48.3611 51.086 48.0837 50.9647 47.7717 50.878C47.4597 50.7913 47.1391 50.7133 46.8097 50.644C46.2377 50.5227 45.6917 50.384 45.1717 50.228C44.6517 50.072 44.1924 49.8727 43.7937 49.63C43.4124 49.37 43.1004 49.0407 42.8577 48.642C42.6324 48.2433 42.5197 47.732 42.5197 47.108C42.5197 46.5187 42.6497 45.9987 42.9097 45.548C43.1697 45.0973 43.5164 44.7247 43.9497 44.43C44.3831 44.1353 44.8684 43.91 45.4057 43.754C45.9431 43.598 46.4977 43.52 47.0697 43.52C47.9364 43.52 48.7337 43.6933 49.4617 44.04C50.2071 44.3867 50.7877 44.95 51.2037 45.73L49.5137 46.848C49.2537 46.4147 48.9071 46.068 48.4737 45.808C48.0577 45.5307 47.5464 45.392 46.9397 45.392C46.6624 45.392 46.3764 45.4267 46.0817 45.496C45.8044 45.5653 45.5531 45.6693 45.3277 45.808C45.1024 45.9467 44.9117 46.1287 44.7557 46.354C44.6171 46.562 44.5477 46.8047 44.5477 47.082C44.5477 47.342 44.6257 47.5673 44.7817 47.758C44.9551 47.9313 45.1804 48.0873 45.4577 48.226C45.7524 48.3647 46.0817 48.486 46.4457 48.59C46.8271 48.694 47.2171 48.7807 47.6157 48.85C48.1531 48.954 48.6644 49.0927 49.1497 49.266C49.6351 49.422 50.0597 49.6387 50.4237 49.916C50.7877 50.1933 51.0737 50.54 51.2817 50.956C51.4897 51.372 51.5937 51.8833 51.5937 52.49C51.5937 53.1833 51.4551 53.7727 51.1777 54.258C50.9004 54.7433 50.5277 55.142 50.0597 55.454C49.6091 55.7487 49.0891 55.9653 48.4997 56.104C47.9277 56.2427 47.3384 56.312 46.7317 56.312C45.6917 56.312 44.7904 56.156 44.0277 55.844C43.2824 55.5147 42.6064 54.9167 41.9997 54.05L43.6117 52.802ZM65.29 53.79C64.562 54.726 63.7647 55.3847 62.898 55.766C62.0314 56.13 61.026 56.312 59.882 56.312C58.9287 56.312 58.0707 56.1473 57.308 55.818C56.5454 55.4713 55.8954 55.012 55.358 54.44C54.838 53.868 54.4307 53.192 54.136 52.412C53.8587 51.632 53.72 50.8 53.72 49.916C53.72 48.98 53.876 48.122 54.188 47.342C54.5 46.5447 54.9334 45.8687 55.488 45.314C56.0427 44.742 56.7014 44.3 57.464 43.988C58.2267 43.676 59.0587 43.52 59.96 43.52C60.8094 43.52 61.5894 43.6673 62.3 43.962C63.0107 44.2393 63.6174 44.6553 64.12 45.21C64.64 45.7473 65.0387 46.4147 65.316 47.212C65.5934 47.992 65.732 48.8847 65.732 49.89V50.54H55.904C55.9387 51.06 56.06 51.5627 56.268 52.048C56.4934 52.516 56.7794 52.932 57.126 53.296C57.4727 53.6427 57.88 53.92 58.348 54.128C58.816 54.336 59.3274 54.44 59.882 54.44C60.766 54.44 61.5114 54.284 62.118 53.972C62.7247 53.66 63.2707 53.2007 63.756 52.594L65.29 53.79ZM63.548 48.824C63.5134 47.784 63.1754 46.952 62.534 46.328C61.8927 45.704 61.0087 45.392 59.882 45.392C58.7554 45.392 57.8454 45.704 57.152 46.328C56.4587 46.952 56.0427 47.784 55.904 48.824H63.548ZM77.5273 46.874C77.094 46.354 76.626 45.9813 76.1233 45.756C75.6206 45.5133 75.066 45.392 74.4593 45.392C73.7833 45.392 73.1853 45.5133 72.6653 45.756C72.1453 45.9813 71.712 46.302 71.3653 46.718C71.036 47.134 70.7846 47.6193 70.6113 48.174C70.438 48.7113 70.3513 49.292 70.3513 49.916C70.3513 50.54 70.4466 51.1293 70.6373 51.684C70.8453 52.2213 71.1226 52.698 71.4693 53.114C71.8333 53.53 72.2666 53.8593 72.7693 54.102C73.272 54.3273 73.8353 54.44 74.4593 54.44C75.794 54.44 76.8253 53.9373 77.5533 52.932L79.0613 54.362C78.472 55.038 77.7786 55.532 76.9813 55.844C76.184 56.156 75.3433 56.312 74.4593 56.312C73.5233 56.312 72.6653 56.156 71.8853 55.844C71.1053 55.532 70.438 55.09 69.8833 54.518C69.346 53.946 68.9213 53.27 68.6093 52.49C68.3146 51.71 68.1673 50.852 68.1673 49.916C68.1673 48.9973 68.3146 48.148 68.6093 47.368C68.9213 46.588 69.3546 45.912 69.9093 45.34C70.464 44.768 71.1226 44.326 71.8853 44.014C72.6653 43.6847 73.5233 43.52 74.4593 43.52C75.3606 43.52 76.21 43.676 77.0073 43.988C77.822 44.3 78.5326 44.7853 79.1393 45.444L77.5273 46.874ZM88.0683 45.548H84.4803V51.632C84.4803 52.0307 84.4889 52.4033 84.5063 52.75C84.5236 53.0793 84.5929 53.374 84.7143 53.634C84.8356 53.8767 85.0176 54.076 85.2603 54.232C85.5029 54.3707 85.8496 54.44 86.3003 54.44C86.5949 54.44 86.8983 54.4053 87.2103 54.336C87.5223 54.2667 87.8169 54.1627 88.0943 54.024L88.1723 55.87C87.8256 56.026 87.4356 56.1387 87.0023 56.208C86.5863 56.2773 86.1876 56.312 85.8063 56.312C85.0783 56.312 84.4976 56.2167 84.0643 56.026C83.6309 55.8353 83.2929 55.5667 83.0503 55.22C82.8076 54.8733 82.6429 54.4487 82.5563 53.946C82.4869 53.426 82.4523 52.854 82.4523 52.23V45.548H79.8003V43.832H82.4523V40.374H84.4803V43.832H88.0683V45.548ZM101.421 53.79C100.693 54.726 99.8956 55.3847 99.0289 55.766C98.1622 56.13 97.1569 56.312 96.0129 56.312C95.0596 56.312 94.2016 56.1473 93.4389 55.818C92.6762 55.4713 92.0262 55.012 91.4889 54.44C90.9689 53.868 90.5616 53.192 90.2669 52.412C89.9896 51.632 89.8509 50.8 89.8509 49.916C89.8509 48.98 90.0069 48.122 90.3189 47.342C90.6309 46.5447 91.0642 45.8687 91.6189 45.314C92.1736 44.742 92.8322 44.3 93.5949 43.988C94.3576 43.676 95.1896 43.52 96.0909 43.52C96.9402 43.52 97.7202 43.6673 98.4309 43.962C99.1416 44.2393 99.7482 44.6553 100.251 45.21C100.771 45.7473 101.17 46.4147 101.447 47.212C101.724 47.992 101.863 48.8847 101.863 49.89V50.54H92.0349C92.0696 51.06 92.1909 51.5627 92.3989 52.048C92.6242 52.516 92.9102 52.932 93.2569 53.296C93.6036 53.6427 94.0109 53.92 94.4789 54.128C94.9469 54.336 95.4582 54.44 96.0129 54.44C96.8969 54.44 97.6422 54.284 98.2489 53.972C98.8556 53.66 99.4016 53.2007 99.8869 52.594L101.421 53.79ZM99.6789 48.824C99.6442 47.784 99.3062 46.952 98.6649 46.328C98.0236 45.704 97.1396 45.392 96.0129 45.392C94.8862 45.392 93.9762 45.704 93.2829 46.328C92.5896 46.952 92.1736 47.784 92.0349 48.824H99.6789ZM111.656 45.548H108.068V51.632C108.068 52.0307 108.077 52.4033 108.094 52.75C108.112 53.0793 108.181 53.374 108.302 53.634C108.424 53.8767 108.606 54.076 108.848 54.232C109.091 54.3707 109.438 54.44 109.888 54.44C110.183 54.44 110.486 54.4053 110.798 54.336C111.11 54.2667 111.405 54.1627 111.682 54.024L111.76 55.87C111.414 56.026 111.024 56.1387 110.59 56.208C110.174 56.2773 109.776 56.312 109.394 56.312C108.666 56.312 108.086 56.2167 107.652 56.026C107.219 55.8353 106.881 55.5667 106.638 55.22C106.396 54.8733 106.231 54.4487 106.144 53.946C106.075 53.426 106.04 52.854 106.04 52.23V45.548H103.388V43.832H106.04V40.374H108.068V43.832H111.656V45.548ZM124.749 53.114C124.749 53.6687 124.766 54.1887 124.801 54.674C124.835 55.1593 124.853 55.6013 124.853 56H122.929C122.929 55.6707 122.92 55.3413 122.903 55.012C122.885 54.6827 122.877 54.3447 122.877 53.998H122.825C122.686 54.2927 122.487 54.5787 122.227 54.856C121.984 55.1333 121.689 55.3847 121.343 55.61C120.996 55.818 120.606 55.9827 120.173 56.104C119.739 56.2427 119.271 56.312 118.769 56.312C117.971 56.312 117.278 56.1907 116.689 55.948C116.117 55.7053 115.64 55.3673 115.259 54.934C114.877 54.5007 114.591 53.9807 114.401 53.374C114.227 52.75 114.141 52.074 114.141 51.346V43.832H116.169V51.138C116.169 52.1607 116.394 52.9667 116.845 53.556C117.295 54.1453 117.997 54.44 118.951 54.44C119.609 54.44 120.173 54.3273 120.641 54.102C121.126 53.8767 121.516 53.556 121.811 53.14C122.123 52.724 122.348 52.23 122.487 51.658C122.643 51.086 122.721 50.4533 122.721 49.76V43.832H124.749V53.114ZM128.588 46.718C128.588 46.1633 128.571 45.6433 128.536 45.158C128.501 44.6727 128.484 44.2307 128.484 43.832H130.408C130.408 44.1613 130.417 44.4907 130.434 44.82C130.451 45.1493 130.46 45.4873 130.46 45.834H130.512C130.651 45.5393 130.841 45.2533 131.084 44.976C131.344 44.6987 131.647 44.456 131.994 44.248C132.341 44.0227 132.731 43.8493 133.164 43.728C133.597 43.5893 134.065 43.52 134.568 43.52C134.707 43.52 134.845 43.5287 134.984 43.546C135.123 43.5633 135.261 43.598 135.4 43.65L135.27 45.704C134.923 45.6 134.559 45.548 134.178 45.548C132.93 45.548 132.02 45.9553 131.448 46.77C130.893 47.5673 130.616 48.668 130.616 50.072V56H128.588V46.718ZM144.809 45.392C145.433 44.7507 146.17 44.2827 147.019 43.988C147.886 43.676 148.761 43.52 149.645 43.52C151.448 43.52 152.748 43.9447 153.545 44.794C154.342 45.6433 154.741 46.9347 154.741 48.668V53.894C154.741 54.2407 154.758 54.6047 154.793 54.986C154.828 55.35 154.871 55.688 154.923 56H152.973C152.904 55.7227 152.86 55.4193 152.843 55.09C152.843 54.7433 152.843 54.44 152.843 54.18H152.791C152.392 54.804 151.855 55.3153 151.179 55.714C150.52 56.1127 149.723 56.312 148.787 56.312C148.163 56.312 147.574 56.234 147.019 56.078C146.482 55.922 146.005 55.6967 145.589 55.402C145.19 55.09 144.87 54.7087 144.627 54.258C144.384 53.8073 144.263 53.2873 144.263 52.698C144.263 51.6927 144.523 50.904 145.043 50.332C145.563 49.76 146.204 49.3353 146.967 49.058C147.747 48.7807 148.579 48.6073 149.463 48.538C150.364 48.4687 151.188 48.434 151.933 48.434H152.713V48.07C152.713 47.186 152.444 46.5187 151.907 46.068C151.387 45.6173 150.65 45.392 149.697 45.392C149.038 45.392 148.388 45.5047 147.747 45.73C147.123 45.938 146.568 46.2673 146.083 46.718L144.809 45.392ZM150.685 50.15C149.385 50.15 148.354 50.332 147.591 50.696C146.828 51.06 146.447 51.658 146.447 52.49C146.447 53.2527 146.698 53.7987 147.201 54.128C147.721 54.44 148.362 54.596 149.125 54.596C149.714 54.596 150.226 54.5007 150.659 54.31C151.11 54.102 151.482 53.8333 151.777 53.504C152.072 53.1747 152.297 52.7933 152.453 52.36C152.609 51.9093 152.696 51.4327 152.713 50.93V50.15H150.685ZM168.561 53.842H168.509C168.128 54.5353 167.521 55.1247 166.689 55.61C165.875 56.078 164.921 56.312 163.829 56.312C162.98 56.312 162.183 56.156 161.437 55.844C160.692 55.5147 160.042 55.064 159.487 54.492C158.95 53.92 158.525 53.244 158.213 52.464C157.901 51.684 157.745 50.8347 157.745 49.916C157.745 48.9973 157.901 48.148 158.213 47.368C158.525 46.588 158.959 45.912 159.513 45.34C160.068 44.768 160.735 44.326 161.515 44.014C162.313 43.6847 163.188 43.52 164.141 43.52C165.025 43.52 165.831 43.702 166.559 44.066C167.305 44.43 167.955 44.9413 168.509 45.6H168.561V36.344H170.589V56H168.561V53.842ZM168.561 49.916C168.561 49.2747 168.457 48.6853 168.249 48.148C168.059 47.5933 167.773 47.1167 167.391 46.718C167.01 46.302 166.551 45.9813 166.013 45.756C165.493 45.5133 164.904 45.392 164.245 45.392C163.587 45.392 162.989 45.5133 162.451 45.756C161.931 45.9813 161.481 46.302 161.099 46.718C160.718 47.1167 160.423 47.5933 160.215 48.148C160.025 48.6853 159.929 49.2747 159.929 49.916C159.929 50.5573 160.025 51.1553 160.215 51.71C160.423 52.2473 160.718 52.724 161.099 53.14C161.481 53.5387 161.931 53.8593 162.451 54.102C162.989 54.3273 163.587 54.44 164.245 54.44C164.904 54.44 165.493 54.3273 166.013 54.102C166.551 53.8593 167.01 53.5387 167.391 53.14C167.773 52.724 168.059 52.2473 168.249 51.71C168.457 51.1553 168.561 50.5573 168.561 49.916ZM174.549 43.832H176.577V56H174.549V43.832ZM174.081 39.074C174.081 38.6753 174.22 38.3287 174.497 38.034C174.792 37.7393 175.147 37.592 175.563 37.592C175.979 37.592 176.326 37.7393 176.603 38.034C176.898 38.3287 177.045 38.6753 177.045 39.074C177.045 39.5073 176.907 39.8627 176.629 40.14C176.352 40.4173 175.997 40.556 175.563 40.556C175.13 40.556 174.775 40.4173 174.497 40.14C174.22 39.8627 174.081 39.5073 174.081 39.074ZM180.509 43.832H182.537V45.6H182.589C183.144 44.9413 183.785 44.43 184.513 44.066C185.259 43.702 186.073 43.52 186.957 43.52C187.911 43.52 188.777 43.6847 189.557 44.014C190.355 44.326 191.031 44.768 191.585 45.34C192.14 45.912 192.573 46.588 192.885 47.368C193.197 48.148 193.353 48.9973 193.353 49.916C193.353 50.8347 193.197 51.684 192.885 52.464C192.573 53.244 192.14 53.92 191.585 54.492C191.048 55.064 190.407 55.5147 189.661 55.844C188.916 56.156 188.119 56.312 187.269 56.312C186.177 56.312 185.215 56.078 184.383 55.61C183.569 55.1247 182.971 54.5353 182.589 53.842H182.537V61.928H180.509V43.832ZM182.537 49.916C182.537 50.5573 182.633 51.1553 182.823 51.71C183.031 52.2473 183.326 52.724 183.707 53.14C184.089 53.5387 184.539 53.8593 185.059 54.102C185.597 54.3273 186.195 54.44 186.853 54.44C187.512 54.44 188.101 54.3273 188.621 54.102C189.159 53.8593 189.618 53.5387 189.999 53.14C190.381 52.724 190.667 52.2473 190.857 51.71C191.065 51.1553 191.169 50.5573 191.169 49.916C191.169 49.2747 191.065 48.6853 190.857 48.148C190.667 47.5933 190.381 47.1167 189.999 46.718C189.618 46.302 189.159 45.9813 188.621 45.756C188.101 45.5133 187.512 45.392 186.853 45.392C186.195 45.392 185.597 45.5133 185.059 45.756C184.539 45.9813 184.089 46.302 183.707 46.718C183.326 47.1167 183.031 47.5933 182.823 48.148C182.633 48.6853 182.537 49.2747 182.537 49.916ZM196.69 43.832H198.718V56H196.69V43.832ZM196.222 39.074C196.222 38.6753 196.361 38.3287 196.638 38.034C196.933 37.7393 197.288 37.592 197.704 37.592C198.12 37.592 198.467 37.7393 198.744 38.034C199.039 38.3287 199.186 38.6753 199.186 39.074C199.186 39.5073 199.047 39.8627 198.77 40.14C198.493 40.4173 198.137 40.556 197.704 40.556C197.271 40.556 196.915 40.4173 196.638 40.14C196.361 39.8627 196.222 39.5073 196.222 39.074ZM203.014 52.802C203.413 53.3047 203.846 53.7033 204.314 53.998C204.799 54.2927 205.406 54.44 206.134 54.44C206.446 54.44 206.758 54.4053 207.07 54.336C207.399 54.2667 207.694 54.154 207.954 53.998C208.214 53.842 208.422 53.6513 208.578 53.426C208.734 53.1833 208.812 52.8973 208.812 52.568C208.812 52.2387 208.734 51.97 208.578 51.762C208.439 51.554 208.249 51.3807 208.006 51.242C207.763 51.086 207.486 50.9647 207.174 50.878C206.862 50.7913 206.541 50.7133 206.212 50.644C205.64 50.5227 205.094 50.384 204.574 50.228C204.054 50.072 203.595 49.8727 203.196 49.63C202.815 49.37 202.503 49.0407 202.26 48.642C202.035 48.2433 201.922 47.732 201.922 47.108C201.922 46.5187 202.052 45.9987 202.312 45.548C202.572 45.0973 202.919 44.7247 203.352 44.43C203.785 44.1353 204.271 43.91 204.808 43.754C205.345 43.598 205.9 43.52 206.472 43.52C207.339 43.52 208.136 43.6933 208.864 44.04C209.609 44.3867 210.19 44.95 210.606 45.73L208.916 46.848C208.656 46.4147 208.309 46.068 207.876 45.808C207.46 45.5307 206.949 45.392 206.342 45.392C206.065 45.392 205.779 45.4267 205.484 45.496C205.207 45.5653 204.955 45.6693 204.73 45.808C204.505 45.9467 204.314 46.1287 204.158 46.354C204.019 46.562 203.95 46.8047 203.95 47.082C203.95 47.342 204.028 47.5673 204.184 47.758C204.357 47.9313 204.583 48.0873 204.86 48.226C205.155 48.3647 205.484 48.486 205.848 48.59C206.229 48.694 206.619 48.7807 207.018 48.85C207.555 48.954 208.067 49.0927 208.552 49.266C209.037 49.422 209.462 49.6387 209.826 49.916C210.19 50.1933 210.476 50.54 210.684 50.956C210.892 51.372 210.996 51.8833 210.996 52.49C210.996 53.1833 210.857 53.7727 210.58 54.258C210.303 54.7433 209.93 55.142 209.462 55.454C209.011 55.7487 208.491 55.9653 207.902 56.104C207.33 56.2427 206.741 56.312 206.134 56.312C205.094 56.312 204.193 56.156 203.43 55.844C202.685 55.5147 202.009 54.9167 201.402 54.05L203.014 52.802ZM222.482 46.874C222.049 46.354 221.581 45.9813 221.078 45.756C220.576 45.5133 220.021 45.392 219.414 45.392C218.738 45.392 218.14 45.5133 217.62 45.756C217.1 45.9813 216.667 46.302 216.32 46.718C215.991 47.134 215.74 47.6193 215.566 48.174C215.393 48.7113 215.306 49.292 215.306 49.916C215.306 50.54 215.402 51.1293 215.592 51.684C215.8 52.2213 216.078 52.698 216.424 53.114C216.788 53.53 217.222 53.8593 217.724 54.102C218.227 54.3273 218.79 54.44 219.414 54.44C220.749 54.44 221.78 53.9373 222.508 52.932L224.016 54.362C223.427 55.038 222.734 55.532 221.936 55.844C221.139 56.156 220.298 56.312 219.414 56.312C218.478 56.312 217.62 56.156 216.84 55.844C216.06 55.532 215.393 55.09 214.838 54.518C214.301 53.946 213.876 53.27 213.564 52.49C213.27 51.71 213.122 50.852 213.122 49.916C213.122 48.9973 213.27 48.148 213.564 47.368C213.876 46.588 214.31 45.912 214.864 45.34C215.419 44.768 216.078 44.326 216.84 44.014C217.62 43.6847 218.478 43.52 219.414 43.52C220.316 43.52 221.165 43.676 221.962 43.988C222.777 44.3 223.488 44.7853 224.094 45.444L222.482 46.874ZM226.549 43.832H228.577V56H226.549V43.832ZM226.081 39.074C226.081 38.6753 226.22 38.3287 226.497 38.034C226.792 37.7393 227.147 37.592 227.563 37.592C227.979 37.592 228.326 37.7393 228.603 38.034C228.898 38.3287 229.045 38.6753 229.045 39.074C229.045 39.5073 228.907 39.8627 228.629 40.14C228.352 40.4173 227.997 40.556 227.563 40.556C227.13 40.556 226.775 40.4173 226.497 40.14C226.22 39.8627 226.081 39.5073 226.081 39.074ZM232.613 46.718C232.613 46.1633 232.596 45.6433 232.561 45.158C232.527 44.6727 232.509 44.2307 232.509 43.832H234.433C234.433 44.1613 234.442 44.4907 234.459 44.82C234.477 45.1493 234.485 45.4873 234.485 45.834H234.537C234.676 45.5393 234.867 45.2533 235.109 44.976C235.369 44.6987 235.673 44.456 236.019 44.248C236.366 44.0227 236.756 43.8493 237.189 43.728C237.623 43.5893 238.091 43.52 238.593 43.52C239.391 43.52 240.075 43.6413 240.647 43.884C241.237 44.1267 241.722 44.4647 242.103 44.898C242.485 45.3313 242.762 45.86 242.935 46.484C243.126 47.0907 243.221 47.758 243.221 48.486V56H241.193V48.694C241.193 47.6713 240.968 46.8653 240.517 46.276C240.067 45.6867 239.365 45.392 238.411 45.392C237.753 45.392 237.181 45.5047 236.695 45.73C236.227 45.9553 235.837 46.276 235.525 46.692C235.231 47.108 235.005 47.602 234.849 48.174C234.711 48.746 234.641 49.3787 234.641 50.072V56H232.613V46.718ZM259.203 55.454C259.203 57.6727 258.631 59.354 257.487 60.498C256.36 61.6593 254.722 62.24 252.573 62.24C251.377 62.24 250.293 62.0667 249.323 61.72C248.369 61.3733 247.459 60.7753 246.593 59.926L248.049 58.262C248.69 58.9553 249.366 59.4753 250.077 59.822C250.805 60.186 251.637 60.368 252.573 60.368C253.474 60.368 254.219 60.2293 254.809 59.952C255.415 59.692 255.892 59.328 256.239 58.86C256.585 58.4093 256.828 57.8893 256.967 57.3C257.105 56.7107 257.175 56.0953 257.175 55.454V53.894H257.123C256.637 54.674 256.005 55.246 255.225 55.61C254.445 55.974 253.647 56.156 252.833 56.156C251.879 56.156 251.004 56 250.207 55.688C249.409 55.376 248.725 54.9427 248.153 54.388C247.581 53.8333 247.139 53.1747 246.827 52.412C246.515 51.6493 246.359 50.8173 246.359 49.916C246.359 48.928 246.515 48.0353 246.827 47.238C247.139 46.4407 247.572 45.7733 248.127 45.236C248.699 44.6813 249.383 44.2567 250.181 43.962C250.978 43.6673 251.862 43.52 252.833 43.52C253.249 43.52 253.665 43.572 254.081 43.676C254.497 43.7627 254.895 43.91 255.277 44.118C255.675 44.3087 256.031 44.56 256.343 44.872C256.655 45.1667 256.915 45.5133 257.123 45.912H257.175V43.832H259.203V55.454ZM248.543 49.916C248.543 50.54 248.655 51.1207 248.881 51.658C249.106 52.178 249.409 52.6373 249.791 53.036C250.189 53.4173 250.649 53.7207 251.169 53.946C251.689 54.1713 252.243 54.284 252.833 54.284C253.526 54.284 254.141 54.1627 254.679 53.92C255.216 53.6773 255.667 53.3567 256.031 52.958C256.412 52.542 256.698 52.074 256.889 51.554C257.079 51.0167 257.175 50.4533 257.175 49.864C257.175 49.2053 257.071 48.6073 256.863 48.07C256.655 47.5153 256.36 47.0387 255.979 46.64C255.597 46.2413 255.138 45.938 254.601 45.73C254.063 45.5047 253.474 45.392 252.833 45.392C252.191 45.392 251.602 45.5133 251.065 45.756C250.545 45.9813 250.094 46.302 249.713 46.718C249.349 47.1167 249.063 47.5933 248.855 48.148C248.647 48.6853 248.543 49.2747 248.543 49.916ZM281.06 53.79C280.332 54.726 279.534 55.3847 278.668 55.766C277.801 56.13 276.796 56.312 275.652 56.312C274.698 56.312 273.84 56.1473 273.078 55.818C272.315 55.4713 271.665 55.012 271.128 54.44C270.608 53.868 270.2 53.192 269.906 52.412C269.628 51.632 269.49 50.8 269.49 49.916C269.49 48.98 269.646 48.122 269.958 47.342C270.27 46.5447 270.703 45.8687 271.258 45.314C271.812 44.742 272.471 44.3 273.234 43.988C273.996 43.676 274.828 43.52 275.73 43.52C276.579 43.52 277.359 43.6673 278.07 43.962C278.78 44.2393 279.387 44.6553 279.89 45.21C280.41 45.7473 280.808 46.4147 281.086 47.212C281.363 47.992 281.502 48.8847 281.502 49.89V50.54H271.674C271.708 51.06 271.83 51.5627 272.038 52.048C272.263 52.516 272.549 52.932 272.896 53.296C273.242 53.6427 273.65 53.92 274.118 54.128C274.586 54.336 275.097 54.44 275.652 54.44C276.536 54.44 277.281 54.284 277.888 53.972C278.494 53.66 279.04 53.2007 279.526 52.594L281.06 53.79ZM279.318 48.824C279.283 47.784 278.945 46.952 278.304 46.328C277.662 45.704 276.778 45.392 275.652 45.392C274.525 45.392 273.615 45.704 272.922 46.328C272.228 46.952 271.812 47.784 271.674 48.824H279.318ZM284.821 36.344H286.849V56H284.821V36.344ZM291.092 43.832H293.12V56H291.092V43.832ZM290.624 39.074C290.624 38.6753 290.763 38.3287 291.04 38.034C291.335 37.7393 291.69 37.592 292.106 37.592C292.522 37.592 292.869 37.7393 293.146 38.034C293.441 38.3287 293.588 38.6753 293.588 39.074C293.588 39.5073 293.45 39.8627 293.172 40.14C292.895 40.4173 292.54 40.556 292.106 40.556C291.673 40.556 291.318 40.4173 291.04 40.14C290.763 39.8627 290.624 39.5073 290.624 39.074ZM303.812 45.548H300.224V51.632C300.224 52.0307 300.233 52.4033 300.25 52.75C300.268 53.0793 300.337 53.374 300.458 53.634C300.58 53.8767 300.762 54.076 301.004 54.232C301.247 54.3707 301.594 54.44 302.044 54.44C302.339 54.44 302.642 54.4053 302.954 54.336C303.266 54.2667 303.561 54.1627 303.838 54.024L303.916 55.87C303.57 56.026 303.18 56.1387 302.746 56.208C302.33 56.2773 301.932 56.312 301.55 56.312C300.822 56.312 300.242 56.2167 299.808 56.026C299.375 55.8353 299.037 55.5667 298.794 55.22C298.552 54.8733 298.387 54.4487 298.3 53.946C298.231 53.426 298.196 52.854 298.196 52.23V45.548H295.544V43.832H298.196V40.374H300.224V43.832H303.812V45.548ZM307.987 53.036C308.42 53.036 308.784 53.192 309.079 53.504C309.391 53.7987 309.547 54.1627 309.547 54.596C309.547 55.0293 309.382 55.402 309.053 55.714C308.741 56.0087 308.386 56.156 307.987 56.156C307.588 56.156 307.224 56.0087 306.895 55.714C306.583 55.402 306.427 55.0293 306.427 54.596C306.427 54.1627 306.574 53.7987 306.869 53.504C307.181 53.192 307.554 53.036 307.987 53.036ZM1.288 73.592H12.702V75.62H3.472V81.704H12.052V83.732H3.472V92H1.288V73.592ZM15.2153 81.392C15.8393 80.7507 16.5759 80.2827 17.4253 79.988C18.2919 79.676 19.1673 79.52 20.0513 79.52C21.8539 79.52 23.1539 79.9447 23.9513 80.794C24.7486 81.6433 25.1473 82.9347 25.1473 84.668V89.894C25.1473 90.2407 25.1646 90.6047 25.1993 90.986C25.2339 91.35 25.2773 91.688 25.3293 92H23.3793C23.3099 91.7227 23.2666 91.4193 23.2493 91.09C23.2493 90.7433 23.2493 90.44 23.2493 90.18H23.1973C22.7986 90.804 22.2613 91.3153 21.5853 91.714C20.9266 92.1127 20.1293 92.312 19.1933 92.312C18.5693 92.312 17.9799 92.234 17.4253 92.078C16.8879 91.922 16.4113 91.6967 15.9953 91.402C15.5966 91.09 15.2759 90.7087 15.0333 90.258C14.7906 89.8073 14.6693 89.2873 14.6693 88.698C14.6693 87.6927 14.9293 86.904 15.4493 86.332C15.9693 85.76 16.6106 85.3353 17.3733 85.058C18.1533 84.7807 18.9853 84.6073 19.8693 84.538C20.7706 84.4687 21.5939 84.434 22.3393 84.434H23.1193V84.07C23.1193 83.186 22.8506 82.5187 22.3133 82.068C21.7933 81.6173 21.0566 81.392 20.1033 81.392C19.4446 81.392 18.7946 81.5047 18.1533 81.73C17.5293 81.938 16.9746 82.2673 16.4893 82.718L15.2153 81.392ZM21.0913 86.15C19.7913 86.15 18.7599 86.332 17.9973 86.696C17.2346 87.06 16.8533 87.658 16.8533 88.49C16.8533 89.2527 17.1046 89.7987 17.6073 90.128C18.1273 90.44 18.7686 90.596 19.5313 90.596C20.1206 90.596 20.6319 90.5007 21.0653 90.31C21.5159 90.102 21.8886 89.8333 22.1833 89.504C22.4779 89.1747 22.7033 88.7933 22.8593 88.36C23.0153 87.9093 23.1019 87.4327 23.1193 86.93V86.15H21.0913ZM39.4617 89.114C39.4617 89.6687 39.479 90.1887 39.5137 90.674C39.5484 91.1593 39.5657 91.6013 39.5657 92H37.6417C37.6417 91.6707 37.633 91.3413 37.6157 91.012C37.5984 90.6827 37.5897 90.3447 37.5897 89.998H37.5377C37.399 90.2927 37.1997 90.5787 36.9397 90.856C36.697 91.1333 36.4024 91.3847 36.0557 91.61C35.709 91.818 35.319 91.9827 34.8857 92.104C34.4524 92.2427 33.9844 92.312 33.4817 92.312C32.6844 92.312 31.991 92.1907 31.4017 91.948C30.8297 91.7053 30.353 91.3673 29.9717 90.934C29.5904 90.5007 29.3044 89.9807 29.1137 89.374C28.9404 88.75 28.8537 88.074 28.8537 87.346V79.832H30.8817V87.138C30.8817 88.1607 31.107 88.9667 31.5577 89.556C32.0084 90.1453 32.7104 90.44 33.6637 90.44C34.3224 90.44 34.8857 90.3273 35.3537 90.102C35.839 89.8767 36.229 89.556 36.5237 89.14C36.8357 88.724 37.061 88.23 37.1997 87.658C37.3557 87.086 37.4337 86.4533 37.4337 85.76V79.832H39.4617V89.114ZM51.959 82.874C51.5256 82.354 51.0576 81.9813 50.555 81.756C50.0523 81.5133 49.4976 81.392 48.891 81.392C48.215 81.392 47.617 81.5133 47.097 81.756C46.577 81.9813 46.1436 82.302 45.797 82.718C45.4676 83.134 45.2163 83.6193 45.043 84.174C44.8696 84.7113 44.783 85.292 44.783 85.916C44.783 86.54 44.8783 87.1293 45.069 87.684C45.277 88.2213 45.5543 88.698 45.901 89.114C46.265 89.53 46.6983 89.8593 47.201 90.102C47.7036 90.3273 48.267 90.44 48.891 90.44C50.2256 90.44 51.257 89.9373 51.985 88.932L53.493 90.362C52.9036 91.038 52.2103 91.532 51.413 91.844C50.6156 92.156 49.775 92.312 48.891 92.312C47.955 92.312 47.097 92.156 46.317 91.844C45.537 91.532 44.8696 91.09 44.315 90.518C43.7776 89.946 43.353 89.27 43.041 88.49C42.7463 87.71 42.599 86.852 42.599 85.916C42.599 84.9973 42.7463 84.148 43.041 83.368C43.353 82.588 43.7863 81.912 44.341 81.34C44.8956 80.768 45.5543 80.326 46.317 80.014C47.097 79.6847 47.955 79.52 48.891 79.52C49.7923 79.52 50.6416 79.676 51.439 79.988C52.2536 80.3 52.9643 80.7853 53.571 81.444L51.959 82.874ZM56.0259 79.832H58.0539V92H56.0259V79.832ZM55.5579 75.074C55.5579 74.6753 55.6966 74.3287 55.9739 74.034C56.2686 73.7393 56.6239 73.592 57.0399 73.592C57.4559 73.592 57.8026 73.7393 58.0799 74.034C58.3746 74.3287 58.5219 74.6753 58.5219 75.074C58.5219 75.5073 58.3833 75.8627 58.1059 76.14C57.8286 76.4173 57.4733 76.556 57.0399 76.556C56.6066 76.556 56.2513 76.4173 55.9739 76.14C55.6966 75.8627 55.5579 75.5073 55.5579 75.074ZM61.986 72.344H64.014V81.6H64.066C64.6207 80.9413 65.262 80.43 65.99 80.066C66.7353 79.702 67.55 79.52 68.434 79.52C69.3873 79.52 70.254 79.6847 71.034 80.014C71.8313 80.326 72.5073 80.768 73.062 81.34C73.6167 81.912 74.05 82.588 74.362 83.368C74.674 84.148 74.83 84.9973 74.83 85.916C74.83 86.8347 74.674 87.684 74.362 88.464C74.05 89.244 73.6167 89.92 73.062 90.492C72.5247 91.064 71.8833 91.5147 71.138 91.844C70.3927 92.156 69.5953 92.312 68.746 92.312C67.654 92.312 66.692 92.078 65.86 91.61C65.0453 91.1247 64.4473 90.5353 64.066 89.842H64.014V92H61.986V72.344ZM64.014 85.916C64.014 86.5573 64.1093 87.1553 64.3 87.71C64.508 88.2473 64.8027 88.724 65.184 89.14C65.5653 89.5387 66.016 89.8593 66.536 90.102C67.0733 90.3273 67.6713 90.44 68.33 90.44C68.9887 90.44 69.578 90.3273 70.098 90.102C70.6353 89.8593 71.0947 89.5387 71.476 89.14C71.8573 88.724 72.1433 88.2473 72.334 87.71C72.542 87.1553 72.646 86.5573 72.646 85.916C72.646 85.2747 72.542 84.6853 72.334 84.148C72.1433 83.5933 71.8573 83.1167 71.476 82.718C71.0947 82.302 70.6353 81.9813 70.098 81.756C69.578 81.5133 68.9887 81.392 68.33 81.392C67.6713 81.392 67.0733 81.5133 66.536 81.756C66.016 81.9813 65.5653 82.302 65.184 82.718C64.8027 83.1167 64.508 83.5933 64.3 84.148C64.1093 84.6853 64.014 85.2747 64.014 85.916ZM88.5925 89.114C88.5925 89.6687 88.6099 90.1887 88.6445 90.674C88.6792 91.1593 88.6965 91.6013 88.6965 92H86.7725C86.7725 91.6707 86.7639 91.3413 86.7465 91.012C86.7292 90.6827 86.7205 90.3447 86.7205 89.998H86.6685C86.5299 90.2927 86.3305 90.5787 86.0705 90.856C85.8279 91.1333 85.5332 91.3847 85.1865 91.61C84.8399 91.818 84.4499 91.9827 84.0165 92.104C83.5832 92.2427 83.1152 92.312 82.6125 92.312C81.8152 92.312 81.1219 92.1907 80.5325 91.948C79.9605 91.7053 79.4839 91.3673 79.1025 90.934C78.7212 90.5007 78.4352 89.9807 78.2445 89.374C78.0712 88.75 77.9845 88.074 77.9845 87.346V79.832H80.0125V87.138C80.0125 88.1607 80.2379 88.9667 80.6885 89.556C81.1392 90.1453 81.8412 90.44 82.7945 90.44C83.4532 90.44 84.0165 90.3273 84.4845 90.102C84.9699 89.8767 85.3599 89.556 85.6545 89.14C85.9665 88.724 86.1919 88.23 86.3305 87.658C86.4865 87.086 86.5645 86.4533 86.5645 85.76V79.832H88.5925V89.114ZM92.6918 88.802C93.0905 89.3047 93.5238 89.7033 93.9918 89.998C94.4771 90.2927 95.0838 90.44 95.8118 90.44C96.1238 90.44 96.4358 90.4053 96.7478 90.336C97.0771 90.2667 97.3718 90.154 97.6318 89.998C97.8918 89.842 98.0998 89.6513 98.2558 89.426C98.4118 89.1833 98.4898 88.8973 98.4898 88.568C98.4898 88.2387 98.4118 87.97 98.2558 87.762C98.1171 87.554 97.9265 87.3807 97.6838 87.242C97.4411 87.086 97.1638 86.9647 96.8518 86.878C96.5398 86.7913 96.2191 86.7133 95.8898 86.644C95.3178 86.5227 94.7718 86.384 94.2518 86.228C93.7318 86.072 93.2725 85.8727 92.8738 85.63C92.4925 85.37 92.1805 85.0407 91.9378 84.642C91.7125 84.2433 91.5998 83.732 91.5998 83.108C91.5998 82.5187 91.7298 81.9987 91.9898 81.548C92.2498 81.0973 92.5965 80.7247 93.0298 80.43C93.4631 80.1353 93.9485 79.91 94.4858 79.754C95.0231 79.598 95.5778 79.52 96.1498 79.52C97.0165 79.52 97.8138 79.6933 98.5418 80.04C99.2871 80.3867 99.8678 80.95 100.284 81.73L98.5938 82.848C98.3338 82.4147 97.9871 82.068 97.5538 81.808C97.1378 81.5307 96.6265 81.392 96.0198 81.392C95.7425 81.392 95.4565 81.4267 95.1618 81.496C94.8845 81.5653 94.6331 81.6693 94.4078 81.808C94.1825 81.9467 93.9918 82.1287 93.8358 82.354C93.6971 82.562 93.6278 82.8047 93.6278 83.082C93.6278 83.342 93.7058 83.5673 93.8618 83.758C94.0351 83.9313 94.2605 84.0873 94.5378 84.226C94.8325 84.3647 95.1618 84.486 95.5258 84.59C95.9071 84.694 96.2971 84.7807 96.6958 84.85C97.2331 84.954 97.7445 85.0927 98.2298 85.266C98.7151 85.422 99.1398 85.6387 99.5038 85.916C99.8678 86.1933 100.154 86.54 100.362 86.956C100.57 87.372 100.674 87.8833 100.674 88.49C100.674 89.1833 100.535 89.7727 100.258 90.258C99.9805 90.7433 99.6078 91.142 99.1398 91.454C98.6891 91.7487 98.1691 91.9653 97.5798 92.104C97.0078 92.2427 96.4185 92.312 95.8118 92.312C94.7718 92.312 93.8705 92.156 93.1078 91.844C92.3625 91.5147 91.6865 90.9167 91.0798 90.05L92.6918 88.802ZM110.92 79.832H112.948V92H110.92V79.832ZM110.452 75.074C110.452 74.6753 110.591 74.3287 110.868 74.034C111.163 73.7393 111.518 73.592 111.934 73.592C112.35 73.592 112.697 73.7393 112.974 74.034C113.269 74.3287 113.416 74.6753 113.416 75.074C113.416 75.5073 113.278 75.8627 113 76.14C112.723 76.4173 112.368 76.556 111.934 76.556C111.501 76.556 111.146 76.4173 110.868 76.14C110.591 75.8627 110.452 75.5073 110.452 75.074ZM116.985 82.718C116.985 82.1633 116.967 81.6433 116.933 81.158C116.898 80.6727 116.881 80.2307 116.881 79.832H118.805C118.805 80.1613 118.813 80.4907 118.831 80.82C118.848 81.1493 118.857 81.4873 118.857 81.834H118.909C119.047 81.5393 119.238 81.2533 119.481 80.976C119.741 80.6987 120.044 80.456 120.391 80.248C120.737 80.0227 121.127 79.8493 121.561 79.728C121.994 79.5893 122.462 79.52 122.965 79.52C123.762 79.52 124.447 79.6413 125.019 79.884C125.608 80.1267 126.093 80.4647 126.475 80.898C126.856 81.3313 127.133 81.86 127.307 82.484C127.497 83.0907 127.593 83.758 127.593 84.486V92H125.565V84.694C125.565 83.6713 125.339 82.8653 124.889 82.276C124.438 81.6867 123.736 81.392 122.783 81.392C122.124 81.392 121.552 81.5047 121.067 81.73C120.599 81.9553 120.209 82.276 119.897 82.692C119.602 83.108 119.377 83.602 119.221 84.174C119.082 84.746 119.013 85.3787 119.013 86.072V92H116.985V82.718ZM138.85 72.344H140.878V92H138.85V72.344ZM145.122 79.832H147.15V92H145.122V79.832ZM144.654 75.074C144.654 74.6753 144.792 74.3287 145.07 74.034C145.364 73.7393 145.72 73.592 146.136 73.592C146.552 73.592 146.898 73.7393 147.176 74.034C147.47 74.3287 147.618 74.6753 147.618 75.074C147.618 75.5073 147.479 75.8627 147.202 76.14C146.924 76.4173 146.569 76.556 146.136 76.556C145.702 76.556 145.347 76.4173 145.07 76.14C144.792 75.8627 144.654 75.5073 144.654 75.074ZM151.082 72.344H153.11V81.6H153.162C153.716 80.9413 154.358 80.43 155.086 80.066C155.831 79.702 156.646 79.52 157.53 79.52C158.483 79.52 159.35 79.6847 160.13 80.014C160.927 80.326 161.603 80.768 162.158 81.34C162.712 81.912 163.146 82.588 163.458 83.368C163.77 84.148 163.926 84.9973 163.926 85.916C163.926 86.8347 163.77 87.684 163.458 88.464C163.146 89.244 162.712 89.92 162.158 90.492C161.62 91.064 160.979 91.5147 160.234 91.844C159.488 92.156 158.691 92.312 157.842 92.312C156.75 92.312 155.788 92.078 154.956 91.61C154.141 91.1247 153.543 90.5353 153.162 89.842H153.11V92H151.082V72.344ZM153.11 85.916C153.11 86.5573 153.205 87.1553 153.396 87.71C153.604 88.2473 153.898 88.724 154.28 89.14C154.661 89.5387 155.112 89.8593 155.632 90.102C156.169 90.3273 156.767 90.44 157.426 90.44C158.084 90.44 158.674 90.3273 159.194 90.102C159.731 89.8593 160.19 89.5387 160.572 89.14C160.953 88.724 161.239 88.2473 161.43 87.71C161.638 87.1553 161.742 86.5573 161.742 85.916C161.742 85.2747 161.638 84.6853 161.43 84.148C161.239 83.5933 160.953 83.1167 160.572 82.718C160.19 82.302 159.731 81.9813 159.194 81.756C158.674 81.5133 158.084 81.392 157.426 81.392C156.767 81.392 156.169 81.5133 155.632 81.756C155.112 81.9813 154.661 82.302 154.28 82.718C153.898 83.1167 153.604 83.5933 153.396 84.148C153.205 84.6853 153.11 85.2747 153.11 85.916ZM177.948 89.79C177.22 90.726 176.423 91.3847 175.556 91.766C174.69 92.13 173.684 92.312 172.54 92.312C171.587 92.312 170.729 92.1473 169.966 91.818C169.204 91.4713 168.554 91.012 168.016 90.44C167.496 89.868 167.089 89.192 166.794 88.412C166.517 87.632 166.378 86.8 166.378 85.916C166.378 84.98 166.534 84.122 166.846 83.342C167.158 82.5447 167.592 81.8687 168.146 81.314C168.701 80.742 169.36 80.3 170.122 79.988C170.885 79.676 171.717 79.52 172.618 79.52C173.468 79.52 174.248 79.6673 174.958 79.962C175.669 80.2393 176.276 80.6553 176.778 81.21C177.298 81.7473 177.697 82.4147 177.974 83.212C178.252 83.992 178.39 84.8847 178.39 85.89V86.54H168.562C168.597 87.06 168.718 87.5627 168.926 88.048C169.152 88.516 169.438 88.932 169.784 89.296C170.131 89.6427 170.538 89.92 171.006 90.128C171.474 90.336 171.986 90.44 172.54 90.44C173.424 90.44 174.17 90.284 174.776 89.972C175.383 89.66 175.929 89.2007 176.414 88.594L177.948 89.79ZM176.206 84.824C176.172 83.784 175.834 82.952 175.192 82.328C174.551 81.704 173.667 81.392 172.54 81.392C171.414 81.392 170.504 81.704 169.81 82.328C169.117 82.952 168.701 83.784 168.562 84.824H176.206ZM181.528 82.718C181.528 82.1633 181.51 81.6433 181.476 81.158C181.441 80.6727 181.424 80.2307 181.424 79.832H183.348C183.348 80.1613 183.356 80.4907 183.374 80.82C183.391 81.1493 183.4 81.4873 183.4 81.834H183.452C183.59 81.5393 183.781 81.2533 184.024 80.976C184.284 80.6987 184.587 80.456 184.934 80.248C185.28 80.0227 185.67 79.8493 186.104 79.728C186.537 79.5893 187.005 79.52 187.508 79.52C187.646 79.52 187.785 79.5287 187.924 79.546C188.062 79.5633 188.201 79.598 188.34 79.65L188.21 81.704C187.863 81.6 187.499 81.548 187.118 81.548C185.87 81.548 184.96 81.9553 184.388 82.77C183.833 83.5673 183.556 84.668 183.556 86.072V92H181.528V82.718ZM189.509 85.916C189.509 84.9627 189.674 84.096 190.003 83.316C190.332 82.536 190.783 81.8687 191.355 81.314C191.927 80.742 192.612 80.3 193.409 79.988C194.206 79.676 195.073 79.52 196.009 79.52C196.945 79.52 197.812 79.676 198.609 79.988C199.406 80.3 200.091 80.742 200.663 81.314C201.235 81.8687 201.686 82.536 202.015 83.316C202.344 84.096 202.509 84.9627 202.509 85.916C202.509 86.8693 202.344 87.736 202.015 88.516C201.686 89.296 201.235 89.972 200.663 90.544C200.091 91.0987 199.406 91.532 198.609 91.844C197.812 92.156 196.945 92.312 196.009 92.312C195.073 92.312 194.206 92.156 193.409 91.844C192.612 91.532 191.927 91.0987 191.355 90.544C190.783 89.972 190.332 89.296 190.003 88.516C189.674 87.736 189.509 86.8693 189.509 85.916ZM191.693 85.916C191.693 86.5573 191.788 87.1553 191.979 87.71C192.187 88.2473 192.482 88.724 192.863 89.14C193.244 89.5387 193.695 89.8593 194.215 90.102C194.752 90.3273 195.35 90.44 196.009 90.44C196.668 90.44 197.257 90.3273 197.777 90.102C198.314 89.8593 198.774 89.5387 199.155 89.14C199.536 88.724 199.822 88.2473 200.013 87.71C200.221 87.1553 200.325 86.5573 200.325 85.916C200.325 85.2747 200.221 84.6853 200.013 84.148C199.822 83.5933 199.536 83.1167 199.155 82.718C198.774 82.302 198.314 81.9813 197.777 81.756C197.257 81.5133 196.668 81.392 196.009 81.392C195.35 81.392 194.752 81.5133 194.215 81.756C193.695 81.9813 193.244 82.302 192.863 82.718C192.482 83.1167 192.187 83.5933 191.979 84.148C191.788 84.6853 191.693 85.2747 191.693 85.916ZM212.885 82.718C212.885 82.1633 212.868 81.6433 212.833 81.158C212.798 80.6727 212.781 80.2307 212.781 79.832H214.705C214.705 80.1613 214.714 80.4907 214.731 80.82C214.748 81.1493 214.757 81.4873 214.757 81.834H214.809C214.948 81.5393 215.138 81.2533 215.381 80.976C215.641 80.6987 215.944 80.456 216.291 80.248C216.638 80.0227 217.028 79.8493 217.461 79.728C217.894 79.5893 218.362 79.52 218.865 79.52C219.004 79.52 219.142 79.5287 219.281 79.546C219.42 79.5633 219.558 79.598 219.697 79.65L219.567 81.704C219.22 81.6 218.856 81.548 218.475 81.548C217.227 81.548 216.317 81.9553 215.745 82.77C215.19 83.5673 214.913 84.668 214.913 86.072V92H212.885V82.718ZM222.208 79.832H224.236V92H222.208V79.832ZM221.74 75.074C221.74 74.6753 221.878 74.3287 222.156 74.034C222.45 73.7393 222.806 73.592 223.222 73.592C223.638 73.592 223.984 73.7393 224.262 74.034C224.556 74.3287 224.704 74.6753 224.704 75.074C224.704 75.5073 224.565 75.8627 224.288 76.14C224.01 76.4173 223.655 76.556 223.222 76.556C222.788 76.556 222.433 76.4173 222.156 76.14C221.878 75.8627 221.74 75.5073 221.74 75.074ZM228.532 88.802C228.93 89.3047 229.364 89.7033 229.832 89.998C230.317 90.2927 230.924 90.44 231.652 90.44C231.964 90.44 232.276 90.4053 232.588 90.336C232.917 90.2667 233.212 90.154 233.472 89.998C233.732 89.842 233.94 89.6513 234.096 89.426C234.252 89.1833 234.33 88.8973 234.33 88.568C234.33 88.2387 234.252 87.97 234.096 87.762C233.957 87.554 233.766 87.3807 233.524 87.242C233.281 87.086 233.004 86.9647 232.692 86.878C232.38 86.7913 232.059 86.7133 231.73 86.644C231.158 86.5227 230.612 86.384 230.092 86.228C229.572 86.072 229.112 85.8727 228.714 85.63C228.332 85.37 228.02 85.0407 227.778 84.642C227.552 84.2433 227.44 83.732 227.44 83.108C227.44 82.5187 227.57 81.9987 227.83 81.548C228.09 81.0973 228.436 80.7247 228.87 80.43C229.303 80.1353 229.788 79.91 230.326 79.754C230.863 79.598 231.418 79.52 231.99 79.52C232.856 79.52 233.654 79.6933 234.382 80.04C235.127 80.3867 235.708 80.95 236.124 81.73L234.434 82.848C234.174 82.4147 233.827 82.068 233.394 81.808C232.978 81.5307 232.466 81.392 231.86 81.392C231.582 81.392 231.296 81.4267 231.002 81.496C230.724 81.5653 230.473 81.6693 230.248 81.808C230.022 81.9467 229.832 82.1287 229.676 82.354C229.537 82.562 229.468 82.8047 229.468 83.082C229.468 83.342 229.546 83.5673 229.702 83.758C229.875 83.9313 230.1 84.0873 230.378 84.226C230.672 84.3647 231.002 84.486 231.366 84.59C231.747 84.694 232.137 84.7807 232.536 84.85C233.073 84.954 233.584 85.0927 234.07 85.266C234.555 85.422 234.98 85.6387 235.344 85.916C235.708 86.1933 235.994 86.54 236.202 86.956C236.41 87.372 236.514 87.8833 236.514 88.49C236.514 89.1833 236.375 89.7727 236.098 90.258C235.82 90.7433 235.448 91.142 234.98 91.454C234.529 91.7487 234.009 91.9653 233.42 92.104C232.848 92.2427 232.258 92.312 231.652 92.312C230.612 92.312 229.71 92.156 228.948 91.844C228.202 91.5147 227.526 90.9167 226.92 90.05L228.532 88.802ZM249.95 89.114C249.95 89.6687 249.967 90.1887 250.002 90.674C250.037 91.1593 250.054 91.6013 250.054 92H248.13C248.13 91.6707 248.121 91.3413 248.104 91.012C248.087 90.6827 248.078 90.3447 248.078 89.998H248.026C247.887 90.2927 247.688 90.5787 247.428 90.856C247.185 91.1333 246.891 91.3847 246.544 91.61C246.197 91.818 245.807 91.9827 245.374 92.104C244.941 92.2427 244.473 92.312 243.97 92.312C243.173 92.312 242.479 92.1907 241.89 91.948C241.318 91.7053 240.841 91.3673 240.46 90.934C240.079 90.5007 239.793 89.9807 239.602 89.374C239.429 88.75 239.342 88.074 239.342 87.346V79.832H241.37V87.138C241.37 88.1607 241.595 88.9667 242.046 89.556C242.497 90.1453 243.199 90.44 244.152 90.44C244.811 90.44 245.374 90.3273 245.842 90.102C246.327 89.8767 246.717 89.556 247.012 89.14C247.324 88.724 247.549 88.23 247.688 87.658C247.844 87.086 247.922 86.4533 247.922 85.76V79.832H249.95V89.114ZM254.049 88.802C254.448 89.3047 254.881 89.7033 255.349 89.998C255.835 90.2927 256.441 90.44 257.169 90.44C257.481 90.44 257.793 90.4053 258.105 90.336C258.435 90.2667 258.729 90.154 258.989 89.998C259.249 89.842 259.457 89.6513 259.613 89.426C259.769 89.1833 259.847 88.8973 259.847 88.568C259.847 88.2387 259.769 87.97 259.613 87.762C259.475 87.554 259.284 87.3807 259.041 87.242C258.799 87.086 258.521 86.9647 258.209 86.878C257.897 86.7913 257.577 86.7133 257.247 86.644C256.675 86.5227 256.129 86.384 255.609 86.228C255.089 86.072 254.63 85.8727 254.231 85.63C253.85 85.37 253.538 85.0407 253.295 84.642C253.07 84.2433 252.957 83.732 252.957 83.108C252.957 82.5187 253.087 81.9987 253.347 81.548C253.607 81.0973 253.954 80.7247 254.387 80.43C254.821 80.1353 255.306 79.91 255.843 79.754C256.381 79.598 256.935 79.52 257.507 79.52C258.374 79.52 259.171 79.6933 259.899 80.04C260.645 80.3867 261.225 80.95 261.641 81.73L259.951 82.848C259.691 82.4147 259.345 82.068 258.911 81.808C258.495 81.5307 257.984 81.392 257.377 81.392C257.1 81.392 256.814 81.4267 256.519 81.496C256.242 81.5653 255.991 81.6693 255.765 81.808C255.54 81.9467 255.349 82.1287 255.193 82.354C255.055 82.562 254.985 82.8047 254.985 83.082C254.985 83.342 255.063 83.5673 255.219 83.758C255.393 83.9313 255.618 84.0873 255.895 84.226C256.19 84.3647 256.519 84.486 256.883 84.59C257.265 84.694 257.655 84.7807 258.053 84.85C258.591 84.954 259.102 85.0927 259.587 85.266C260.073 85.422 260.497 85.6387 260.861 85.916C261.225 86.1933 261.511 86.54 261.719 86.956C261.927 87.372 262.031 87.8833 262.031 88.49C262.031 89.1833 261.893 89.7727 261.615 90.258C261.338 90.7433 260.965 91.142 260.497 91.454C260.047 91.7487 259.527 91.9653 258.937 92.104C258.365 92.2427 257.776 92.312 257.169 92.312C256.129 92.312 255.228 92.156 254.465 91.844C253.72 91.5147 253.044 90.9167 252.437 90.05L254.049 88.802ZM272.356 88.802C272.755 89.3047 273.188 89.7033 273.656 89.998C274.141 90.2927 274.748 90.44 275.476 90.44C275.788 90.44 276.1 90.4053 276.412 90.336C276.741 90.2667 277.036 90.154 277.296 89.998C277.556 89.842 277.764 89.6513 277.92 89.426C278.076 89.1833 278.154 88.8973 278.154 88.568C278.154 88.2387 278.076 87.97 277.92 87.762C277.781 87.554 277.591 87.3807 277.348 87.242C277.105 87.086 276.828 86.9647 276.516 86.878C276.204 86.7913 275.883 86.7133 275.554 86.644C274.982 86.5227 274.436 86.384 273.916 86.228C273.396 86.072 272.937 85.8727 272.538 85.63C272.157 85.37 271.845 85.0407 271.602 84.642C271.377 84.2433 271.264 83.732 271.264 83.108C271.264 82.5187 271.394 81.9987 271.654 81.548C271.914 81.0973 272.261 80.7247 272.694 80.43C273.127 80.1353 273.613 79.91 274.15 79.754C274.687 79.598 275.242 79.52 275.814 79.52C276.681 79.52 277.478 79.6933 278.206 80.04C278.951 80.3867 279.532 80.95 279.948 81.73L278.258 82.848C277.998 82.4147 277.651 82.068 277.218 81.808C276.802 81.5307 276.291 81.392 275.684 81.392C275.407 81.392 275.121 81.4267 274.826 81.496C274.549 81.5653 274.297 81.6693 274.072 81.808C273.847 81.9467 273.656 82.1287 273.5 82.354C273.361 82.562 273.292 82.8047 273.292 83.082C273.292 83.342 273.37 83.5673 273.526 83.758C273.699 83.9313 273.925 84.0873 274.202 84.226C274.497 84.3647 274.826 84.486 275.19 84.59C275.571 84.694 275.961 84.7807 276.36 84.85C276.897 84.954 277.409 85.0927 277.894 85.266C278.379 85.422 278.804 85.6387 279.168 85.916C279.532 86.1933 279.818 86.54 280.026 86.956C280.234 87.372 280.338 87.8833 280.338 88.49C280.338 89.1833 280.199 89.7727 279.922 90.258C279.645 90.7433 279.272 91.142 278.804 91.454C278.353 91.7487 277.833 91.9653 277.244 92.104C276.672 92.2427 276.083 92.312 275.476 92.312C274.436 92.312 273.535 92.156 272.772 91.844C272.027 91.5147 271.351 90.9167 270.744 90.05L272.356 88.802ZM294.034 89.79C293.306 90.726 292.509 91.3847 291.642 91.766C290.776 92.13 289.77 92.312 288.626 92.312C287.673 92.312 286.815 92.1473 286.052 91.818C285.29 91.4713 284.64 91.012 284.102 90.44C283.582 89.868 283.175 89.192 282.88 88.412C282.603 87.632 282.464 86.8 282.464 85.916C282.464 84.98 282.62 84.122 282.932 83.342C283.244 82.5447 283.678 81.8687 284.232 81.314C284.787 80.742 285.446 80.3 286.208 79.988C286.971 79.676 287.803 79.52 288.704 79.52C289.554 79.52 290.334 79.6673 291.044 79.962C291.755 80.2393 292.362 80.6553 292.864 81.21C293.384 81.7473 293.783 82.4147 294.06 83.212C294.338 83.992 294.476 84.8847 294.476 85.89V86.54H284.648C284.683 87.06 284.804 87.5627 285.012 88.048C285.238 88.516 285.524 88.932 285.87 89.296C286.217 89.6427 286.624 89.92 287.092 90.128C287.56 90.336 288.072 90.44 288.626 90.44C289.51 90.44 290.256 90.284 290.862 89.972C291.469 89.66 292.015 89.2007 292.5 88.594L294.034 89.79ZM292.292 84.824C292.258 83.784 291.92 82.952 291.278 82.328C290.637 81.704 289.753 81.392 288.626 81.392C287.5 81.392 286.59 81.704 285.896 82.328C285.203 82.952 284.787 83.784 284.648 84.824H292.292ZM297.613 82.718C297.613 82.1633 297.596 81.6433 297.561 81.158C297.527 80.6727 297.509 80.2307 297.509 79.832H299.433C299.433 80.1613 299.442 80.4907 299.459 80.82C299.477 81.1493 299.485 81.4873 299.485 81.834H299.537C299.676 81.5393 299.867 81.2533 300.109 80.976C300.369 80.6987 300.673 80.456 301.019 80.248C301.366 80.0227 301.756 79.8493 302.189 79.728C302.623 79.5893 303.091 79.52 303.593 79.52C304.252 79.52 304.798 79.6067 305.231 79.78C305.682 79.936 306.055 80.1353 306.349 80.378C306.644 80.6033 306.869 80.8547 307.025 81.132C307.199 81.392 307.337 81.626 307.441 81.834C307.892 81.106 308.412 80.5427 309.001 80.144C309.591 79.728 310.353 79.52 311.289 79.52C312.156 79.52 312.884 79.6413 313.473 79.884C314.063 80.1093 314.539 80.4473 314.903 80.898C315.267 81.3313 315.527 81.8687 315.683 82.51C315.839 83.134 315.917 83.836 315.917 84.616V92H313.889V84.72C313.889 84.304 313.846 83.8967 313.759 83.498C313.673 83.0993 313.517 82.744 313.291 82.432C313.066 82.12 312.763 81.8687 312.381 81.678C312 81.4873 311.515 81.392 310.925 81.392C310.492 81.392 310.085 81.4787 309.703 81.652C309.322 81.8253 308.984 82.068 308.689 82.38C308.412 82.692 308.187 83.0733 308.013 83.524C307.857 83.9573 307.779 84.4427 307.779 84.98V92H305.751V85.11C305.751 83.758 305.569 82.8047 305.205 82.25C304.841 81.678 304.243 81.392 303.411 81.392C302.753 81.392 302.181 81.5047 301.695 81.73C301.227 81.9553 300.837 82.276 300.525 82.692C300.231 83.108 300.005 83.602 299.849 84.174C299.711 84.746 299.641 85.3787 299.641 86.072V92H297.613V82.718ZM319.65 79.832H321.678V81.6H321.73C322.285 80.9413 322.926 80.43 323.654 80.066C324.399 79.702 325.214 79.52 326.098 79.52C327.051 79.52 327.918 79.6847 328.698 80.014C329.495 80.326 330.171 80.768 330.726 81.34C331.281 81.912 331.714 82.588 332.026 83.368C332.338 84.148 332.494 84.9973 332.494 85.916C332.494 86.8347 332.338 87.684 332.026 88.464C331.714 89.244 331.281 89.92 330.726 90.492C330.189 91.064 329.547 91.5147 328.802 91.844C328.057 92.156 327.259 92.312 326.41 92.312C325.318 92.312 324.356 92.078 323.524 91.61C322.709 91.1247 322.111 90.5353 321.73 89.842H321.678V97.928H319.65V79.832ZM321.678 85.916C321.678 86.5573 321.773 87.1553 321.964 87.71C322.172 88.2473 322.467 88.724 322.848 89.14C323.229 89.5387 323.68 89.8593 324.2 90.102C324.737 90.3273 325.335 90.44 325.994 90.44C326.653 90.44 327.242 90.3273 327.762 90.102C328.299 89.8593 328.759 89.5387 329.14 89.14C329.521 88.724 329.807 88.2473 329.998 87.71C330.206 87.1553 330.31 86.5573 330.31 85.916C330.31 85.2747 330.206 84.6853 329.998 84.148C329.807 83.5933 329.521 83.1167 329.14 82.718C328.759 82.302 328.299 81.9813 327.762 81.756C327.242 81.5133 326.653 81.392 325.994 81.392C325.335 81.392 324.737 81.5133 324.2 81.756C323.68 81.9813 323.229 82.302 322.848 82.718C322.467 83.1167 322.172 83.5933 321.964 84.148C321.773 84.6853 321.678 85.2747 321.678 85.916ZM346.517 89.79C345.789 90.726 344.991 91.3847 344.125 91.766C343.258 92.13 342.253 92.312 341.109 92.312C340.155 92.312 339.297 92.1473 338.535 91.818C337.772 91.4713 337.122 91.012 336.585 90.44C336.065 89.868 335.657 89.192 335.363 88.412C335.085 87.632 334.947 86.8 334.947 85.916C334.947 84.98 335.103 84.122 335.415 83.342C335.727 82.5447 336.16 81.8687 336.715 81.314C337.269 80.742 337.928 80.3 338.691 79.988C339.453 79.676 340.285 79.52 341.187 79.52C342.036 79.52 342.816 79.6673 343.527 79.962C344.237 80.2393 344.844 80.6553 345.347 81.21C345.867 81.7473 346.265 82.4147 346.543 83.212C346.82 83.992 346.959 84.8847 346.959 85.89V86.54H337.131C337.165 87.06 337.287 87.5627 337.495 88.048C337.72 88.516 338.006 88.932 338.353 89.296C338.699 89.6427 339.107 89.92 339.575 90.128C340.043 90.336 340.554 90.44 341.109 90.44C341.993 90.44 342.738 90.284 343.345 89.972C343.951 89.66 344.497 89.2007 344.983 88.594L346.517 89.79ZM344.775 84.824C344.74 83.784 344.402 82.952 343.761 82.328C343.119 81.704 342.235 81.392 341.109 81.392C339.982 81.392 339.072 81.704 338.379 82.328C337.685 82.952 337.269 83.784 337.131 84.824H344.775ZM350.096 82.718C350.096 82.1633 350.079 81.6433 350.044 81.158C350.009 80.6727 349.992 80.2307 349.992 79.832H351.916C351.916 80.1613 351.925 80.4907 351.942 80.82C351.959 81.1493 351.968 81.4873 351.968 81.834H352.02C352.159 81.5393 352.349 81.2533 352.592 80.976C352.852 80.6987 353.155 80.456 353.502 80.248C353.849 80.0227 354.239 79.8493 354.672 79.728C355.105 79.5893 355.573 79.52 356.076 79.52C356.215 79.52 356.353 79.5287 356.492 79.546C356.631 79.5633 356.769 79.598 356.908 79.65L356.778 81.704C356.431 81.6 356.067 81.548 355.686 81.548C354.438 81.548 353.528 81.9553 352.956 82.77C352.401 83.5673 352.124 84.668 352.124 86.072V92H350.096V82.718ZM0.924 108.344H2.952V117.522H3.004C3.14267 117.279 3.33333 117.045 3.576 116.82C3.81867 116.577 4.10467 116.361 4.434 116.17C4.78067 115.979 5.162 115.823 5.578 115.702C5.994 115.581 6.436 115.52 6.904 115.52C7.70133 115.52 8.386 115.641 8.958 115.884C9.54733 116.127 10.0327 116.465 10.414 116.898C10.7953 117.331 11.0727 117.86 11.246 118.484C11.4367 119.091 11.532 119.758 11.532 120.486V128H9.504V120.694C9.504 119.671 9.27867 118.865 8.828 118.276C8.37733 117.687 7.67533 117.392 6.722 117.392C6.06333 117.392 5.49133 117.505 5.006 117.73C4.538 117.955 4.148 118.276 3.836 118.692C3.54133 119.108 3.316 119.602 3.16 120.174C3.02133 120.746 2.952 121.379 2.952 122.072V128H0.924V108.344ZM15.2153 117.392C15.8393 116.751 16.5759 116.283 17.4253 115.988C18.2919 115.676 19.1673 115.52 20.0513 115.52C21.8539 115.52 23.1539 115.945 23.9513 116.794C24.7486 117.643 25.1473 118.935 25.1473 120.668V125.894C25.1473 126.241 25.1646 126.605 25.1993 126.986C25.2339 127.35 25.2773 127.688 25.3293 128H23.3793C23.3099 127.723 23.2666 127.419 23.2493 127.09C23.2493 126.743 23.2493 126.44 23.2493 126.18H23.1973C22.7986 126.804 22.2613 127.315 21.5853 127.714C20.9266 128.113 20.1293 128.312 19.1933 128.312C18.5693 128.312 17.9799 128.234 17.4253 128.078C16.8879 127.922 16.4113 127.697 15.9953 127.402C15.5966 127.09 15.2759 126.709 15.0333 126.258C14.7906 125.807 14.6693 125.287 14.6693 124.698C14.6693 123.693 14.9293 122.904 15.4493 122.332C15.9693 121.76 16.6106 121.335 17.3733 121.058C18.1533 120.781 18.9853 120.607 19.8693 120.538C20.7706 120.469 21.5939 120.434 22.3393 120.434H23.1193V120.07C23.1193 119.186 22.8506 118.519 22.3133 118.068C21.7933 117.617 21.0566 117.392 20.1033 117.392C19.4446 117.392 18.7946 117.505 18.1533 117.73C17.5293 117.938 16.9746 118.267 16.4893 118.718L15.2153 117.392ZM21.0913 122.15C19.7913 122.15 18.7599 122.332 17.9973 122.696C17.2346 123.06 16.8533 123.658 16.8533 124.49C16.8533 125.253 17.1046 125.799 17.6073 126.128C18.1273 126.44 18.7686 126.596 19.5313 126.596C20.1206 126.596 20.6319 126.501 21.0653 126.31C21.5159 126.102 21.8886 125.833 22.1833 125.504C22.4779 125.175 22.7033 124.793 22.8593 124.36C23.0153 123.909 23.1019 123.433 23.1193 122.93V122.15H21.0913ZM28.7497 108.344H30.7777V117.6H30.8297C31.3844 116.941 32.0257 116.43 32.7537 116.066C33.499 115.702 34.3137 115.52 35.1977 115.52C36.151 115.52 37.0177 115.685 37.7977 116.014C38.595 116.326 39.271 116.768 39.8257 117.34C40.3804 117.912 40.8137 118.588 41.1257 119.368C41.4377 120.148 41.5937 120.997 41.5937 121.916C41.5937 122.835 41.4377 123.684 41.1257 124.464C40.8137 125.244 40.3804 125.92 39.8257 126.492C39.2884 127.064 38.647 127.515 37.9017 127.844C37.1564 128.156 36.359 128.312 35.5097 128.312C34.4177 128.312 33.4557 128.078 32.6237 127.61C31.809 127.125 31.211 126.535 30.8297 125.842H30.7777V128H28.7497V108.344ZM30.7777 121.916C30.7777 122.557 30.873 123.155 31.0637 123.71C31.2717 124.247 31.5664 124.724 31.9477 125.14C32.329 125.539 32.7797 125.859 33.2997 126.102C33.837 126.327 34.435 126.44 35.0937 126.44C35.7524 126.44 36.3417 126.327 36.8617 126.102C37.399 125.859 37.8584 125.539 38.2397 125.14C38.621 124.724 38.907 124.247 39.0977 123.71C39.3057 123.155 39.4097 122.557 39.4097 121.916C39.4097 121.275 39.3057 120.685 39.0977 120.148C38.907 119.593 38.621 119.117 38.2397 118.718C37.8584 118.302 37.399 117.981 36.8617 117.756C36.3417 117.513 35.7524 117.392 35.0937 117.392C34.435 117.392 33.837 117.513 33.2997 117.756C32.7797 117.981 32.329 118.302 31.9477 118.718C31.5664 119.117 31.2717 119.593 31.0637 120.148C30.873 120.685 30.7777 121.275 30.7777 121.916ZM44.9302 115.832H46.9582V128H44.9302V115.832ZM44.4622 111.074C44.4622 110.675 44.6009 110.329 44.8782 110.034C45.1729 109.739 45.5282 109.592 45.9442 109.592C46.3602 109.592 46.7069 109.739 46.9842 110.034C47.2789 110.329 47.4262 110.675 47.4262 111.074C47.4262 111.507 47.2876 111.863 47.0102 112.14C46.7329 112.417 46.3776 112.556 45.9442 112.556C45.5109 112.556 45.1556 112.417 44.8782 112.14C44.6009 111.863 44.4622 111.507 44.4622 111.074ZM57.6503 117.548H54.0623V123.632C54.0623 124.031 54.071 124.403 54.0883 124.75C54.1056 125.079 54.175 125.374 54.2963 125.634C54.4176 125.877 54.5996 126.076 54.8423 126.232C55.085 126.371 55.4316 126.44 55.8823 126.44C56.177 126.44 56.4803 126.405 56.7923 126.336C57.1043 126.267 57.399 126.163 57.6763 126.024L57.7543 127.87C57.4076 128.026 57.0176 128.139 56.5843 128.208C56.1683 128.277 55.7696 128.312 55.3883 128.312C54.6603 128.312 54.0796 128.217 53.6463 128.026C53.213 127.835 52.875 127.567 52.6323 127.22C52.3896 126.873 52.225 126.449 52.1383 125.946C52.069 125.426 52.0343 124.854 52.0343 124.23V117.548H49.3823V115.832H52.0343V112.374H54.0623V115.832H57.6503V117.548ZM59.9789 117.392C60.6029 116.751 61.3396 116.283 62.1889 115.988C63.0556 115.676 63.9309 115.52 64.8149 115.52C66.6176 115.52 67.9176 115.945 68.7149 116.794C69.5123 117.643 69.9109 118.935 69.9109 120.668V125.894C69.9109 126.241 69.9283 126.605 69.9629 126.986C69.9976 127.35 70.0409 127.688 70.0929 128H68.1429C68.0736 127.723 68.0303 127.419 68.0129 127.09C68.0129 126.743 68.0129 126.44 68.0129 126.18H67.9609C67.5623 126.804 67.0249 127.315 66.3489 127.714C65.6903 128.113 64.8929 128.312 63.9569 128.312C63.3329 128.312 62.7436 128.234 62.1889 128.078C61.6516 127.922 61.1749 127.697 60.7589 127.402C60.3603 127.09 60.0396 126.709 59.7969 126.258C59.5543 125.807 59.4329 125.287 59.4329 124.698C59.4329 123.693 59.6929 122.904 60.2129 122.332C60.7329 121.76 61.3743 121.335 62.1369 121.058C62.9169 120.781 63.7489 120.607 64.6329 120.538C65.5343 120.469 66.3576 120.434 67.1029 120.434H67.8829V120.07C67.8829 119.186 67.6143 118.519 67.0769 118.068C66.5569 117.617 65.8203 117.392 64.8669 117.392C64.2083 117.392 63.5583 117.505 62.9169 117.73C62.2929 117.938 61.7383 118.267 61.2529 118.718L59.9789 117.392ZM65.8549 122.15C64.5549 122.15 63.5236 122.332 62.7609 122.696C61.9983 123.06 61.6169 123.658 61.6169 124.49C61.6169 125.253 61.8683 125.799 62.3709 126.128C62.8909 126.44 63.5323 126.596 64.2949 126.596C64.8843 126.596 65.3956 126.501 65.8289 126.31C66.2796 126.102 66.6523 125.833 66.9469 125.504C67.2416 125.175 67.4669 124.793 67.6229 124.36C67.7789 123.909 67.8656 123.433 67.8829 122.93V122.15H65.8549ZM73.6174 118.718C73.6174 118.163 73.6 117.643 73.5654 117.158C73.5307 116.673 73.5134 116.231 73.5134 115.832H75.4374C75.4374 116.161 75.446 116.491 75.4634 116.82C75.4807 117.149 75.4894 117.487 75.4894 117.834H75.5414C75.68 117.539 75.8707 117.253 76.1134 116.976C76.3734 116.699 76.6767 116.456 77.0234 116.248C77.37 116.023 77.76 115.849 78.1934 115.728C78.6267 115.589 79.0947 115.52 79.5974 115.52C80.3947 115.52 81.0794 115.641 81.6514 115.884C82.2407 116.127 82.726 116.465 83.1074 116.898C83.4887 117.331 83.766 117.86 83.9394 118.484C84.13 119.091 84.2254 119.758 84.2254 120.486V128H82.1974V120.694C82.1974 119.671 81.972 118.865 81.5214 118.276C81.0707 117.687 80.3687 117.392 79.4154 117.392C78.7567 117.392 78.1847 117.505 77.6994 117.73C77.2314 117.955 76.8414 118.276 76.5294 118.692C76.2347 119.108 76.0094 119.602 75.8534 120.174C75.7147 120.746 75.6454 121.379 75.6454 122.072V128H73.6174V118.718ZM94.7206 117.548H91.1326V123.632C91.1326 124.031 91.1413 124.403 91.1586 124.75C91.176 125.079 91.2453 125.374 91.3666 125.634C91.488 125.877 91.67 126.076 91.9126 126.232C92.1553 126.371 92.502 126.44 92.9526 126.44C93.2473 126.44 93.5506 126.405 93.8626 126.336C94.1746 126.267 94.4693 126.163 94.7466 126.024L94.8246 127.87C94.478 128.026 94.088 128.139 93.6546 128.208C93.2386 128.277 92.84 128.312 92.4586 128.312C91.7306 128.312 91.15 128.217 90.7166 128.026C90.2833 127.835 89.9453 127.567 89.7026 127.22C89.46 126.873 89.2953 126.449 89.2086 125.946C89.1393 125.426 89.1046 124.854 89.1046 124.23V117.548H86.4526V115.832H89.1046V112.374H91.1326V115.832H94.7206V117.548ZM104.286 117.392C104.91 116.751 105.646 116.283 106.496 115.988C107.362 115.676 108.238 115.52 109.122 115.52C110.924 115.52 112.224 115.945 113.022 116.794C113.819 117.643 114.218 118.935 114.218 120.668V125.894C114.218 126.241 114.235 126.605 114.27 126.986C114.304 127.35 114.348 127.688 114.4 128H112.45C112.38 127.723 112.337 127.419 112.32 127.09C112.32 126.743 112.32 126.44 112.32 126.18H112.268C111.869 126.804 111.332 127.315 110.656 127.714C109.997 128.113 109.2 128.312 108.264 128.312C107.64 128.312 107.05 128.234 106.496 128.078C105.958 127.922 105.482 127.697 105.066 127.402C104.667 127.09 104.346 126.709 104.104 126.258C103.861 125.807 103.74 125.287 103.74 124.698C103.74 123.693 104 122.904 104.52 122.332C105.04 121.76 105.681 121.335 106.444 121.058C107.224 120.781 108.056 120.607 108.94 120.538C109.841 120.469 110.664 120.434 111.41 120.434H112.19V120.07C112.19 119.186 111.921 118.519 111.384 118.068C110.864 117.617 110.127 117.392 109.174 117.392C108.515 117.392 107.865 117.505 107.224 117.73C106.6 117.938 106.045 118.267 105.56 118.718L104.286 117.392ZM110.162 122.15C108.862 122.15 107.83 122.332 107.068 122.696C106.305 123.06 105.924 123.658 105.924 124.49C105.924 125.253 106.175 125.799 106.678 126.128C107.198 126.44 107.839 126.596 108.602 126.596C109.191 126.596 109.702 126.501 110.136 126.31C110.586 126.102 110.959 125.833 111.254 125.504C111.548 125.175 111.774 124.793 111.93 124.36C112.086 123.909 112.172 123.433 112.19 122.93V122.15H110.162ZM117.924 118.718C117.924 118.163 117.907 117.643 117.872 117.158C117.837 116.673 117.82 116.231 117.82 115.832H119.744C119.744 116.161 119.753 116.491 119.77 116.82C119.787 117.149 119.796 117.487 119.796 117.834H119.848C119.987 117.539 120.177 117.253 120.42 116.976C120.68 116.699 120.983 116.456 121.33 116.248C121.677 116.023 122.067 115.849 122.5 115.728C122.933 115.589 123.401 115.52 123.904 115.52C124.043 115.52 124.181 115.529 124.32 115.546C124.459 115.563 124.597 115.598 124.736 115.65L124.606 117.704C124.259 117.6 123.895 117.548 123.514 117.548C122.266 117.548 121.356 117.955 120.784 118.77C120.229 119.567 119.952 120.668 119.952 122.072V128H117.924V118.718ZM135.266 118.874C134.832 118.354 134.364 117.981 133.862 117.756C133.359 117.513 132.804 117.392 132.198 117.392C131.522 117.392 130.924 117.513 130.404 117.756C129.884 117.981 129.45 118.302 129.104 118.718C128.774 119.134 128.523 119.619 128.35 120.174C128.176 120.711 128.09 121.292 128.09 121.916C128.09 122.54 128.185 123.129 128.376 123.684C128.584 124.221 128.861 124.698 129.208 125.114C129.572 125.53 130.005 125.859 130.508 126.102C131.01 126.327 131.574 126.44 132.198 126.44C133.532 126.44 134.564 125.937 135.292 124.932L136.8 126.362C136.21 127.038 135.517 127.532 134.72 127.844C133.922 128.156 133.082 128.312 132.198 128.312C131.262 128.312 130.404 128.156 129.624 127.844C128.844 127.532 128.176 127.09 127.622 126.518C127.084 125.946 126.66 125.27 126.348 124.49C126.053 123.71 125.906 122.852 125.906 121.916C125.906 120.997 126.053 120.148 126.348 119.368C126.66 118.588 127.093 117.912 127.648 117.34C128.202 116.768 128.861 116.326 129.624 116.014C130.404 115.685 131.262 115.52 132.198 115.52C133.099 115.52 133.948 115.676 134.746 115.988C135.56 116.3 136.271 116.785 136.878 117.444L135.266 118.874ZM149.759 125.114C149.759 125.669 149.776 126.189 149.811 126.674C149.845 127.159 149.863 127.601 149.863 128H147.939C147.939 127.671 147.93 127.341 147.913 127.012C147.895 126.683 147.887 126.345 147.887 125.998H147.835C147.696 126.293 147.497 126.579 147.237 126.856C146.994 127.133 146.699 127.385 146.353 127.61C146.006 127.818 145.616 127.983 145.183 128.104C144.749 128.243 144.281 128.312 143.779 128.312C142.981 128.312 142.288 128.191 141.699 127.948C141.127 127.705 140.65 127.367 140.269 126.934C139.887 126.501 139.601 125.981 139.411 125.374C139.237 124.75 139.151 124.074 139.151 123.346V115.832H141.179V123.138C141.179 124.161 141.404 124.967 141.855 125.556C142.305 126.145 143.007 126.44 143.961 126.44C144.619 126.44 145.183 126.327 145.651 126.102C146.136 125.877 146.526 125.556 146.821 125.14C147.133 124.724 147.358 124.23 147.497 123.658C147.653 123.086 147.731 122.453 147.731 121.76V115.832H149.759V125.114ZM155.288 125.036C155.721 125.036 156.085 125.192 156.38 125.504C156.692 125.799 156.848 126.163 156.848 126.596C156.848 127.029 156.683 127.402 156.354 127.714C156.042 128.009 155.686 128.156 155.288 128.156C154.889 128.156 154.525 128.009 154.196 127.714C153.884 127.402 153.728 127.029 153.728 126.596C153.728 126.163 153.875 125.799 154.17 125.504C154.482 125.192 154.854 125.036 155.288 125.036Z" fill="#252525" fill-opacity="0.8"/>
</svg>
