<svg width="650" height="88" viewBox="0 0 650 88" fill="none" xmlns="http://www.w3.org/2000/svg">
<path d="M37.488 49.752C37.488 52.216 37.0773 54.592 36.256 56.88C35.4933 59.168 34.32 61.192 32.736 62.952C31.2107 64.6533 29.2747 66.0027 26.928 67C24.5813 68.056 21.8533 68.584 18.744 68.584C13.816 68.584 9.768 67.44 6.6 65.152C3.49067 62.864 1.43733 59.2267 0.44 54.24L10.824 51.776C11.176 53.8293 11.9973 55.472 13.288 56.704C14.6373 57.936 16.28 58.552 18.216 58.552C21.384 58.552 23.5253 57.496 24.64 55.384C25.8133 53.2133 26.4 50.2507 26.4 46.496V4.696H37.488V49.752ZM88.528 67H78.496V60.224H78.32C77.3227 62.336 75.7973 64.184 73.744 65.768C71.6907 67.2933 68.904 68.056 65.384 68.056C62.568 68.056 60.1627 67.616 58.168 66.736C56.232 65.7973 54.648 64.5653 53.416 63.04C52.184 61.456 51.304 59.6667 50.776 57.672C50.248 55.6773 49.984 53.5947 49.984 51.424V24.76H60.544V46.144C60.544 47.3173 60.6027 48.6373 60.72 50.104C60.8373 51.512 61.1307 52.8613 61.6 54.152C62.128 55.384 62.8907 56.44 63.888 57.32C64.944 58.1413 66.4107 58.552 68.288 58.552C70.048 58.552 71.5147 58.2587 72.688 57.672C73.92 57.0853 74.9173 56.2933 75.68 55.296C76.5013 54.2987 77.088 53.1547 77.44 51.864C77.792 50.5733 77.968 49.224 77.968 47.816V24.76H88.528V67ZM123.043 36.464C120.99 33.5893 118.233 32.152 114.771 32.152C113.363 32.152 111.985 32.504 110.635 33.208C109.286 33.912 108.611 35.056 108.611 36.64C108.611 37.9307 109.169 38.8693 110.283 39.456C111.398 40.0427 112.806 40.5413 114.507 40.952C116.209 41.3627 118.027 41.8027 119.963 42.272C121.958 42.6827 123.806 43.3573 125.507 44.296C127.209 45.176 128.617 46.408 129.731 47.992C130.846 49.576 131.403 51.7467 131.403 54.504C131.403 57.0267 130.846 59.168 129.731 60.928C128.675 62.6293 127.267 64.008 125.507 65.064C123.806 66.12 121.87 66.8827 119.699 67.352C117.529 67.8213 115.358 68.056 113.187 68.056C109.902 68.056 106.881 67.5867 104.123 66.648C101.366 65.7093 98.9019 64.008 96.7313 61.544L103.771 54.944C105.121 56.4693 106.558 57.7307 108.083 58.728C109.667 59.6667 111.574 60.136 113.803 60.136C114.566 60.136 115.358 60.048 116.179 59.872C117.001 59.696 117.763 59.4027 118.467 58.992C119.171 58.5813 119.729 58.0827 120.139 57.496C120.609 56.8507 120.843 56.1173 120.843 55.296C120.843 53.8293 120.286 52.744 119.171 52.04C118.057 51.336 116.649 50.7787 114.947 50.368C113.246 49.8987 111.398 49.488 109.403 49.136C107.467 48.7253 105.649 48.1093 103.947 47.288C102.246 46.408 100.838 45.2053 99.7233 43.68C98.6086 42.1547 98.0513 40.0427 98.0513 37.344C98.0513 34.9973 98.5206 32.9733 99.4593 31.272C100.457 29.512 101.747 28.0747 103.331 26.96C104.915 25.8453 106.734 25.024 108.787 24.496C110.841 23.968 112.923 23.704 115.035 23.704C117.851 23.704 120.638 24.2027 123.395 25.2C126.153 26.1387 128.382 27.7813 130.083 30.128L123.043 36.464ZM134.689 33.736V24.76H143.401V12.528H153.961V24.76H165.577V33.736H153.961V52.216C153.961 54.328 154.342 56 155.105 57.232C155.926 58.464 157.51 59.08 159.857 59.08C160.795 59.08 161.822 58.992 162.937 58.816C164.051 58.5813 164.931 58.2293 165.577 57.76V66.648C164.462 67.176 163.083 67.528 161.441 67.704C159.857 67.9387 158.449 68.056 157.217 68.056C154.401 68.056 152.083 67.7333 150.265 67.088C148.505 66.5013 147.097 65.592 146.041 64.36C145.043 63.0693 144.339 61.4853 143.929 59.608C143.577 57.7307 143.401 55.56 143.401 53.096V33.736H134.689ZM194.931 33.736V24.76H203.643V12.528H214.203V24.76H225.819V33.736H214.203V52.216C214.203 54.328 214.584 56 215.347 57.232C216.168 58.464 217.752 59.08 220.099 59.08C221.038 59.08 222.064 58.992 223.179 58.816C224.294 58.5813 225.174 58.2293 225.819 57.76V66.648C224.704 67.176 223.326 67.528 221.683 67.704C220.099 67.9387 218.691 68.056 217.459 68.056C214.643 68.056 212.326 67.7333 210.507 67.088C208.747 66.5013 207.339 65.592 206.283 64.36C205.286 63.0693 204.582 61.4853 204.171 59.608C203.819 57.7307 203.643 55.56 203.643 53.096V33.736H194.931ZM244.708 30.656H244.884C245.705 28.896 247.143 27.312 249.196 25.904C251.308 24.4373 254.007 23.704 257.292 23.704C260.108 23.704 262.484 24.1733 264.42 25.112C266.415 26.0507 268.028 27.2827 269.26 28.808C270.492 30.3333 271.372 32.0933 271.9 34.088C272.428 36.0827 272.692 38.1653 272.692 40.336V67H262.132V45.616C262.132 44.4427 262.073 43.152 261.956 41.744C261.839 40.2773 261.516 38.928 260.988 37.696C260.519 36.4053 259.756 35.3493 258.7 34.528C257.644 33.648 256.207 33.208 254.388 33.208C252.628 33.208 251.132 33.5013 249.9 34.088C248.727 34.6747 247.729 35.4667 246.908 36.464C246.145 37.4613 245.588 38.6053 245.236 39.896C244.884 41.1867 244.708 42.536 244.708 43.944V67H234.148V0.471996H244.708V30.656ZM311.079 61.192H310.815C309.29 63.5973 307.354 65.3573 305.007 66.472C302.661 67.528 300.079 68.056 297.263 68.056C295.327 68.056 293.421 67.792 291.543 67.264C289.725 66.736 288.082 65.944 286.615 64.888C285.207 63.832 284.063 62.512 283.183 60.928C282.303 59.344 281.863 57.496 281.863 55.384C281.863 53.096 282.274 51.16 283.095 49.576C283.917 47.9333 285.002 46.584 286.351 45.528C287.759 44.4133 289.373 43.5333 291.191 42.888C293.01 42.2427 294.887 41.7733 296.823 41.48C298.818 41.128 300.813 40.9227 302.807 40.864C304.802 40.7467 306.679 40.688 308.439 40.688H311.079V39.544C311.079 36.904 310.17 34.9387 308.351 33.648C306.533 32.2987 304.215 31.624 301.399 31.624C299.17 31.624 297.087 32.0347 295.151 32.856C293.215 33.6187 291.543 34.6747 290.135 36.024L284.591 30.48C286.938 28.0747 289.666 26.344 292.775 25.288C295.943 24.232 299.199 23.704 302.543 23.704C305.535 23.704 308.058 24.056 310.111 24.76C312.165 25.4053 313.866 26.256 315.215 27.312C316.565 28.368 317.591 29.6 318.295 31.008C319.058 32.3573 319.586 33.736 319.879 35.144C320.231 36.552 320.437 37.9307 320.495 39.28C320.554 40.5707 320.583 41.7147 320.583 42.712V67H311.079V61.192ZM310.463 48.08H308.263C306.797 48.08 305.154 48.1387 303.335 48.256C301.517 48.3733 299.786 48.6667 298.143 49.136C296.559 49.5467 295.21 50.192 294.095 51.072C292.981 51.8933 292.423 53.0667 292.423 54.592C292.423 55.5893 292.629 56.44 293.039 57.144C293.509 57.7893 294.095 58.3467 294.799 58.816C295.503 59.2853 296.295 59.6373 297.175 59.872C298.055 60.048 298.935 60.136 299.815 60.136C303.453 60.136 306.122 59.2853 307.823 57.584C309.583 55.824 310.463 53.448 310.463 50.456V48.08ZM327.017 33.736V24.76H335.729V12.528H346.289V24.76H357.905V33.736H346.289V52.216C346.289 54.328 346.67 56 347.433 57.232C348.254 58.464 349.838 59.08 352.185 59.08C353.124 59.08 354.15 58.992 355.265 58.816C356.38 58.5813 357.26 58.2293 357.905 57.76V66.648C356.79 67.176 355.412 67.528 353.769 67.704C352.185 67.9387 350.777 68.056 349.545 68.056C346.729 68.056 344.412 67.7333 342.593 67.088C340.833 66.5013 339.425 65.592 338.369 64.36C337.372 63.0693 336.668 61.4853 336.257 59.608C335.905 57.7307 335.729 55.56 335.729 53.096V33.736H327.017ZM414.715 36.464C412.662 33.5893 409.904 32.152 406.443 32.152C405.035 32.152 403.656 32.504 402.307 33.208C400.958 33.912 400.283 35.056 400.283 36.64C400.283 37.9307 400.84 38.8693 401.955 39.456C403.07 40.0427 404.478 40.5413 406.179 40.952C407.88 41.3627 409.699 41.8027 411.635 42.272C413.63 42.6827 415.478 43.3573 417.179 44.296C418.88 45.176 420.288 46.408 421.403 47.992C422.518 49.576 423.075 51.7467 423.075 54.504C423.075 57.0267 422.518 59.168 421.403 60.928C420.347 62.6293 418.939 64.008 417.179 65.064C415.478 66.12 413.542 66.8827 411.371 67.352C409.2 67.8213 407.03 68.056 404.859 68.056C401.574 68.056 398.552 67.5867 395.795 66.648C393.038 65.7093 390.574 64.008 388.403 61.544L395.443 54.944C396.792 56.4693 398.23 57.7307 399.755 58.728C401.339 59.6667 403.246 60.136 405.475 60.136C406.238 60.136 407.03 60.048 407.851 59.872C408.672 59.696 409.435 59.4027 410.139 58.992C410.843 58.5813 411.4 58.0827 411.811 57.496C412.28 56.8507 412.515 56.1173 412.515 55.296C412.515 53.8293 411.958 52.744 410.843 52.04C409.728 51.336 408.32 50.7787 406.619 50.368C404.918 49.8987 403.07 49.488 401.075 49.136C399.139 48.7253 397.32 48.1093 395.619 47.288C393.918 46.408 392.51 45.2053 391.395 43.68C390.28 42.1547 389.723 40.0427 389.723 37.344C389.723 34.9973 390.192 32.9733 391.131 31.272C392.128 29.512 393.419 28.0747 395.003 26.96C396.587 25.8453 398.406 25.024 400.459 24.496C402.512 23.968 404.595 23.704 406.707 23.704C409.523 23.704 412.31 24.2027 415.067 25.2C417.824 26.1387 420.054 27.7813 421.755 30.128L414.715 36.464ZM431.465 24.76H442.025V67H431.465V24.76ZM429.969 10.416C429.969 8.71466 430.585 7.248 431.817 6.016C433.107 4.72533 434.721 4.08 436.657 4.08C438.593 4.08 440.206 4.696 441.497 5.928C442.846 7.10133 443.521 8.59733 443.521 10.416C443.521 12.2347 442.846 13.76 441.497 14.992C440.206 16.1653 438.593 16.752 436.657 16.752C434.721 16.752 433.107 16.136 431.817 14.904C430.585 13.6133 429.969 12.1173 429.969 10.416ZM453.708 24.76H463.74V31.36H463.916C464.855 29.3653 466.351 27.6053 468.404 26.08C470.516 24.496 473.332 23.704 476.852 23.704C483.481 23.704 487.881 26.3147 490.052 31.536C491.577 28.8373 493.484 26.872 495.772 25.64C498.06 24.3493 500.788 23.704 503.956 23.704C506.772 23.704 509.148 24.1733 511.084 25.112C513.02 26.0507 514.575 27.3413 515.748 28.984C516.98 30.6267 517.86 32.5627 518.388 34.792C518.916 36.9627 519.18 39.3093 519.18 41.832V67H508.62V43.064C508.62 41.7733 508.503 40.5413 508.268 39.368C508.033 38.136 507.623 37.08 507.036 36.2C506.449 35.2613 505.657 34.528 504.66 34C503.663 33.472 502.372 33.208 500.788 33.208C499.145 33.208 497.737 33.5307 496.564 34.176C495.449 34.7627 494.511 35.584 493.748 36.64C493.044 37.6373 492.516 38.8107 492.164 40.16C491.871 41.4507 491.724 42.7707 491.724 44.12V67H481.164V41.832C481.164 39.192 480.607 37.1093 479.492 35.584C478.377 34 476.529 33.208 473.948 33.208C472.188 33.208 470.692 33.5013 469.46 34.088C468.287 34.6747 467.289 35.4667 466.468 36.464C465.705 37.4613 465.148 38.6053 464.796 39.896C464.444 41.1867 464.268 42.536 464.268 43.944V67H453.708V24.76ZM530.718 24.76H540.75V31.096H540.926C542.452 28.5147 544.505 26.6373 547.086 25.464C549.668 24.2907 552.454 23.704 555.446 23.704C558.673 23.704 561.577 24.2907 564.158 25.464C566.74 26.5787 568.94 28.1333 570.758 30.128C572.577 32.1227 573.956 34.4693 574.894 37.168C575.833 39.8667 576.302 42.7707 576.302 45.88C576.302 48.9893 575.804 51.8933 574.806 54.592C573.809 57.2907 572.401 59.6373 570.582 61.632C568.822 63.6267 566.681 65.2107 564.158 66.384C561.636 67.4987 558.878 68.056 555.886 68.056C553.892 68.056 552.132 67.8507 550.606 67.44C549.081 67.0293 547.732 66.5013 546.558 65.856C545.385 65.2107 544.388 64.536 543.566 63.832C542.745 63.0693 542.07 62.336 541.542 61.632H541.278V87.064H530.718V24.76ZM565.742 45.88C565.742 44.2373 565.449 42.6533 564.862 41.128C564.334 39.6027 563.513 38.2533 562.398 37.08C561.342 35.9067 560.052 34.968 558.526 34.264C557.001 33.56 555.27 33.208 553.334 33.208C551.398 33.208 549.668 33.56 548.142 34.264C546.617 34.968 545.297 35.9067 544.182 37.08C543.126 38.2533 542.305 39.6027 541.718 41.128C541.19 42.6533 540.926 44.2373 540.926 45.88C540.926 47.5227 541.19 49.1067 541.718 50.632C542.305 52.1573 543.126 53.5067 544.182 54.68C545.297 55.8533 546.617 56.792 548.142 57.496C549.668 58.2 551.398 58.552 553.334 58.552C555.27 58.552 557.001 58.2 558.526 57.496C560.052 56.792 561.342 55.8533 562.398 54.68C563.513 53.5067 564.334 52.1573 564.862 50.632C565.449 49.1067 565.742 47.5227 565.742 45.88ZM586.324 0.471996H596.884V67H586.324V0.471996ZM617.455 49.576C617.807 52.744 619.039 55.208 621.151 56.968C623.263 58.728 625.815 59.608 628.807 59.608C631.447 59.608 633.647 59.08 635.407 58.024C637.226 56.9093 638.81 55.5307 640.159 53.888L647.727 59.608C645.263 62.6587 642.506 64.8293 639.455 66.12C636.405 67.4107 633.207 68.056 629.863 68.056C626.695 68.056 623.703 67.528 620.887 66.472C618.071 65.416 615.637 63.92 613.583 61.984C611.53 60.048 609.887 57.7307 608.655 55.032C607.482 52.2747 606.895 49.224 606.895 45.88C606.895 42.536 607.482 39.5147 608.655 36.816C609.887 34.0587 611.53 31.712 613.583 29.776C615.637 27.84 618.071 26.344 620.887 25.288C623.703 24.232 626.695 23.704 629.863 23.704C632.797 23.704 635.466 24.232 637.871 25.288C640.335 26.2853 642.418 27.752 644.119 29.688C645.879 31.624 647.229 34.0293 648.167 36.904C649.165 39.72 649.663 42.976 649.663 46.672V49.576H617.455ZM639.103 41.656C639.045 38.5467 638.077 36.112 636.199 34.352C634.322 32.5333 631.711 31.624 628.367 31.624C625.199 31.624 622.677 32.5333 620.799 34.352C618.981 36.1707 617.866 38.6053 617.455 41.656H639.103Z" fill="#252525"/>
</svg>
