<svg width="472" height="99" viewBox="0 0 472 99" fill="none" xmlns="http://www.w3.org/2000/svg">
<path d="M2.288 1.592H4.472V17.972H12.896V20H2.288V1.592ZM14.222 13.916C14.222 12.9627 14.3867 12.096 14.716 11.316C15.0453 10.536 15.496 9.86867 16.068 9.314C16.64 8.742 17.3247 8.3 18.122 7.988C18.9193 7.676 19.786 7.52 20.722 7.52C21.658 7.52 22.5247 7.676 23.322 7.988C24.1193 8.3 24.804 8.742 25.376 9.314C25.948 9.86867 26.3987 10.536 26.728 11.316C27.0573 12.096 27.222 12.9627 27.222 13.916C27.222 14.8693 27.0573 15.736 26.728 16.516C26.3987 17.296 25.948 17.972 25.376 18.544C24.804 19.0987 24.1193 19.532 23.322 19.844C22.5247 20.156 21.658 20.312 20.722 20.312C19.786 20.312 18.9193 20.156 18.122 19.844C17.3247 19.532 16.64 19.0987 16.068 18.544C15.496 17.972 15.0453 17.296 14.716 16.516C14.3867 15.736 14.222 14.8693 14.222 13.916ZM16.406 13.916C16.406 14.5573 16.5013 15.1553 16.692 15.71C16.9 16.2473 17.1947 16.724 17.576 17.14C17.9573 17.5387 18.408 17.8593 18.928 18.102C19.4653 18.3273 20.0633 18.44 20.722 18.44C21.3807 18.44 21.97 18.3273 22.49 18.102C23.0273 17.8593 23.4867 17.5387 23.868 17.14C24.2493 16.724 24.5353 16.2473 24.726 15.71C24.934 15.1553 25.038 14.5573 25.038 13.916C25.038 13.2747 24.934 12.6853 24.726 12.148C24.5353 11.5933 24.2493 11.1167 23.868 10.718C23.4867 10.302 23.0273 9.98133 22.49 9.756C21.97 9.51333 21.3807 9.392 20.722 9.392C20.0633 9.392 19.4653 9.51333 18.928 9.756C18.408 9.98133 17.9573 10.302 17.576 10.718C17.1947 11.1167 16.9 11.5933 16.692 12.148C16.5013 12.6853 16.406 13.2747 16.406 13.916ZM30.3615 10.718C30.3615 10.1633 30.3442 9.64333 30.3095 9.158C30.2748 8.67267 30.2575 8.23067 30.2575 7.832H32.1815C32.1815 8.16133 32.1902 8.49067 32.2075 8.82C32.2248 9.14933 32.2335 9.48733 32.2335 9.834H32.2855C32.4242 9.53933 32.6148 9.25333 32.8575 8.976C33.1175 8.69867 33.4208 8.456 33.7675 8.248C34.1142 8.02267 34.5042 7.84933 34.9375 7.728C35.3708 7.58933 35.8388 7.52 36.3415 7.52C36.4802 7.52 36.6188 7.52867 36.7575 7.546C36.8962 7.56333 37.0348 7.598 37.1735 7.65L37.0435 9.704C36.6968 9.6 36.3328 9.548 35.9515 9.548C34.7035 9.548 33.7935 9.95533 33.2215 10.77C32.6668 11.5673 32.3895 12.668 32.3895 14.072V20H30.3615V10.718ZM49.9131 17.79C49.1851 18.726 48.3878 19.3847 47.5211 19.766C46.6544 20.13 45.6491 20.312 44.5051 20.312C43.5518 20.312 42.6938 20.1473 41.9311 19.818C41.1684 19.4713 40.5184 19.012 39.9811 18.44C39.4611 17.868 39.0538 17.192 38.7591 16.412C38.4818 15.632 38.3431 14.8 38.3431 13.916C38.3431 12.98 38.4991 12.122 38.8111 11.342C39.1231 10.5447 39.5564 9.86867 40.1111 9.314C40.6658 8.742 41.3244 8.3 42.0871 7.988C42.8498 7.676 43.6818 7.52 44.5831 7.52C45.4324 7.52 46.2124 7.66733 46.9231 7.962C47.6338 8.23933 48.2404 8.65533 48.7431 9.21C49.2631 9.74733 49.6618 10.4147 49.9391 11.212C50.2164 11.992 50.3551 12.8847 50.3551 13.89V14.54H40.5271C40.5618 15.06 40.6831 15.5627 40.8911 16.048C41.1164 16.516 41.4024 16.932 41.7491 17.296C42.0958 17.6427 42.5031 17.92 42.9711 18.128C43.4391 18.336 43.9504 18.44 44.5051 18.44C45.3891 18.44 46.1344 18.284 46.7411 17.972C47.3478 17.66 47.8938 17.2007 48.3791 16.594L49.9131 17.79ZM48.1711 12.824C48.1364 11.784 47.7984 10.952 47.1571 10.328C46.5158 9.704 45.6318 9.392 44.5051 9.392C43.3784 9.392 42.4684 9.704 41.7751 10.328C41.0818 10.952 40.6658 11.784 40.5271 12.824H48.1711ZM53.4924 10.718C53.4924 10.1633 53.475 9.64333 53.4404 9.158C53.4057 8.67267 53.3884 8.23067 53.3884 7.832H55.3124C55.3124 8.16133 55.321 8.49067 55.3384 8.82C55.3557 9.14933 55.3644 9.48733 55.3644 9.834H55.4164C55.555 9.53933 55.7457 9.25333 55.9884 8.976C56.2484 8.69867 56.5517 8.456 56.8984 8.248C57.245 8.02267 57.635 7.84933 58.0684 7.728C58.5017 7.58933 58.9697 7.52 59.4724 7.52C60.131 7.52 60.677 7.60667 61.1104 7.78C61.561 7.936 61.9337 8.13533 62.2284 8.378C62.523 8.60333 62.7484 8.85467 62.9044 9.132C63.0777 9.392 63.2164 9.626 63.3204 9.834C63.771 9.106 64.291 8.54267 64.8804 8.144C65.4697 7.728 66.2324 7.52 67.1684 7.52C68.035 7.52 68.763 7.64133 69.3524 7.884C69.9417 8.10933 70.4184 8.44733 70.7824 8.898C71.1464 9.33133 71.4064 9.86867 71.5624 10.51C71.7184 11.134 71.7964 11.836 71.7964 12.616V20H69.7684V12.72C69.7684 12.304 69.725 11.8967 69.6384 11.498C69.5517 11.0993 69.3957 10.744 69.1704 10.432C68.945 10.12 68.6417 9.86867 68.2604 9.678C67.879 9.48733 67.3937 9.392 66.8044 9.392C66.371 9.392 65.9637 9.47867 65.5824 9.652C65.201 9.82533 64.863 10.068 64.5684 10.38C64.291 10.692 64.0657 11.0733 63.8924 11.524C63.7364 11.9573 63.6584 12.4427 63.6584 12.98V20H61.6304V13.11C61.6304 11.758 61.4484 10.8047 61.0844 10.25C60.7204 9.678 60.1224 9.392 59.2904 9.392C58.6317 9.392 58.0597 9.50467 57.5744 9.73C57.1064 9.95533 56.7164 10.276 56.4044 10.692C56.1097 11.108 55.8844 11.602 55.7284 12.174C55.5897 12.746 55.5204 13.3787 55.5204 14.072V20H53.4924V10.718ZM83.0513 7.832H85.0793V20H83.0513V7.832ZM82.5833 3.074C82.5833 2.67533 82.722 2.32867 82.9993 2.034C83.294 1.73933 83.6493 1.592 84.0653 1.592C84.4813 1.592 84.828 1.73933 85.1053 2.034C85.4 2.32867 85.5473 2.67533 85.5473 3.074C85.5473 3.50733 85.4086 3.86267 85.1313 4.14C84.854 4.41733 84.4986 4.556 84.0653 4.556C83.632 4.556 83.2766 4.41733 82.9993 4.14C82.722 3.86267 82.5833 3.50733 82.5833 3.074ZM89.0114 7.832H91.0394V9.6H91.0914C91.6461 8.94133 92.2874 8.43 93.0154 8.066C93.7607 7.702 94.5754 7.52 95.4594 7.52C96.4127 7.52 97.2794 7.68467 98.0594 8.014C98.8567 8.326 99.5327 8.768 100.087 9.34C100.642 9.912 101.075 10.588 101.387 11.368C101.699 12.148 101.855 12.9973 101.855 13.916C101.855 14.8347 101.699 15.684 101.387 16.464C101.075 17.244 100.642 17.92 100.087 18.492C99.5501 19.064 98.9087 19.5147 98.1634 19.844C97.4181 20.156 96.6207 20.312 95.7714 20.312C94.6794 20.312 93.7174 20.078 92.8854 19.61C92.0707 19.1247 91.4727 18.5353 91.0914 17.842H91.0394V25.928H89.0114V7.832ZM91.0394 13.916C91.0394 14.5573 91.1347 15.1553 91.3254 15.71C91.5334 16.2473 91.8281 16.724 92.2094 17.14C92.5907 17.5387 93.0414 17.8593 93.5614 18.102C94.0987 18.3273 94.6967 18.44 95.3554 18.44C96.0141 18.44 96.6034 18.3273 97.1234 18.102C97.6607 17.8593 98.1201 17.5387 98.5014 17.14C98.8827 16.724 99.1687 16.2473 99.3594 15.71C99.5674 15.1553 99.6714 14.5573 99.6714 13.916C99.6714 13.2747 99.5674 12.6853 99.3594 12.148C99.1687 11.5933 98.8827 11.1167 98.5014 10.718C98.1201 10.302 97.6607 9.98133 97.1234 9.756C96.6034 9.51333 96.0141 9.392 95.3554 9.392C94.6967 9.392 94.0987 9.51333 93.5614 9.756C93.0414 9.98133 92.5907 10.302 92.2094 10.718C91.8281 11.1167 91.5334 11.5933 91.3254 12.148C91.1347 12.6853 91.0394 13.2747 91.0394 13.916ZM105.27 16.802C105.669 17.3047 106.102 17.7033 106.57 17.998C107.055 18.2927 107.662 18.44 108.39 18.44C108.702 18.44 109.014 18.4053 109.326 18.336C109.655 18.2667 109.95 18.154 110.21 17.998C110.47 17.842 110.678 17.6513 110.834 17.426C110.99 17.1833 111.068 16.8973 111.068 16.568C111.068 16.2387 110.99 15.97 110.834 15.762C110.695 15.554 110.505 15.3807 110.262 15.242C110.019 15.086 109.742 14.9647 109.43 14.878C109.118 14.7913 108.797 14.7133 108.468 14.644C107.896 14.5227 107.35 14.384 106.83 14.228C106.31 14.072 105.851 13.8727 105.452 13.63C105.071 13.37 104.759 13.0407 104.516 12.642C104.291 12.2433 104.178 11.732 104.178 11.108C104.178 10.5187 104.308 9.99867 104.568 9.548C104.828 9.09733 105.175 8.72467 105.608 8.43C106.041 8.13533 106.527 7.91 107.064 7.754C107.601 7.598 108.156 7.52 108.728 7.52C109.595 7.52 110.392 7.69333 111.12 8.04C111.865 8.38667 112.446 8.95 112.862 9.73L111.172 10.848C110.912 10.4147 110.565 10.068 110.132 9.808C109.716 9.53067 109.205 9.392 108.598 9.392C108.321 9.392 108.035 9.42667 107.74 9.496C107.463 9.56533 107.211 9.66933 106.986 9.808C106.761 9.94667 106.57 10.1287 106.414 10.354C106.275 10.562 106.206 10.8047 106.206 11.082C106.206 11.342 106.284 11.5673 106.44 11.758C106.613 11.9313 106.839 12.0873 107.116 12.226C107.411 12.3647 107.74 12.486 108.104 12.59C108.485 12.694 108.875 12.7807 109.274 12.85C109.811 12.954 110.323 13.0927 110.808 13.266C111.293 13.422 111.718 13.6387 112.082 13.916C112.446 14.1933 112.732 14.54 112.94 14.956C113.148 15.372 113.252 15.8833 113.252 16.49C113.252 17.1833 113.113 17.7727 112.836 18.258C112.559 18.7433 112.186 19.142 111.718 19.454C111.267 19.7487 110.747 19.9653 110.158 20.104C109.586 20.2427 108.997 20.312 108.39 20.312C107.35 20.312 106.449 20.156 105.686 19.844C104.941 19.5147 104.265 18.9167 103.658 18.05L105.27 16.802ZM126.688 17.114C126.688 17.6687 126.706 18.1887 126.74 18.674C126.775 19.1593 126.792 19.6013 126.792 20H124.868C124.868 19.6707 124.86 19.3413 124.842 19.012C124.825 18.6827 124.816 18.3447 124.816 17.998H124.764C124.626 18.2927 124.426 18.5787 124.166 18.856C123.924 19.1333 123.629 19.3847 123.282 19.61C122.936 19.818 122.546 19.9827 122.112 20.104C121.679 20.2427 121.211 20.312 120.708 20.312C119.911 20.312 119.218 20.1907 118.628 19.948C118.056 19.7053 117.58 19.3673 117.198 18.934C116.817 18.5007 116.531 17.9807 116.34 17.374C116.167 16.75 116.08 16.074 116.08 15.346V7.832H118.108V15.138C118.108 16.1607 118.334 16.9667 118.784 17.556C119.235 18.1453 119.937 18.44 120.89 18.44C121.549 18.44 122.112 18.3273 122.58 18.102C123.066 17.8767 123.456 17.556 123.75 17.14C124.062 16.724 124.288 16.23 124.426 15.658C124.582 15.086 124.66 14.4533 124.66 13.76V7.832H126.688V17.114ZM130.528 10.718C130.528 10.1633 130.51 9.64333 130.476 9.158C130.441 8.67267 130.424 8.23067 130.424 7.832H132.348C132.348 8.16133 132.356 8.49067 132.374 8.82C132.391 9.14933 132.4 9.48733 132.4 9.834H132.452C132.59 9.53933 132.781 9.25333 133.024 8.976C133.284 8.69867 133.587 8.456 133.934 8.248C134.28 8.02267 134.67 7.84933 135.104 7.728C135.537 7.58933 136.005 7.52 136.508 7.52C137.166 7.52 137.712 7.60667 138.146 7.78C138.596 7.936 138.969 8.13533 139.264 8.378C139.558 8.60333 139.784 8.85467 139.94 9.132C140.113 9.392 140.252 9.626 140.356 9.834C140.806 9.106 141.326 8.54267 141.916 8.144C142.505 7.728 143.268 7.52 144.204 7.52C145.07 7.52 145.798 7.64133 146.388 7.884C146.977 8.10933 147.454 8.44733 147.818 8.898C148.182 9.33133 148.442 9.86867 148.598 10.51C148.754 11.134 148.832 11.836 148.832 12.616V20H146.804V12.72C146.804 12.304 146.76 11.8967 146.674 11.498C146.587 11.0993 146.431 10.744 146.206 10.432C145.98 10.12 145.677 9.86867 145.296 9.678C144.914 9.48733 144.429 9.392 143.84 9.392C143.406 9.392 142.999 9.47867 142.618 9.652C142.236 9.82533 141.898 10.068 141.604 10.38C141.326 10.692 141.101 11.0733 140.928 11.524C140.772 11.9573 140.694 12.4427 140.694 12.98V20H138.666V13.11C138.666 11.758 138.484 10.8047 138.12 10.25C137.756 9.678 137.158 9.392 136.326 9.392C135.667 9.392 135.095 9.50467 134.61 9.73C134.142 9.95533 133.752 10.276 133.44 10.692C133.145 11.108 132.92 11.602 132.764 12.174C132.625 12.746 132.556 13.3787 132.556 14.072V20H130.528V10.718ZM170.018 17.842H169.966C169.585 18.5353 168.978 19.1247 168.146 19.61C167.332 20.078 166.378 20.312 165.286 20.312C164.437 20.312 163.64 20.156 162.894 19.844C162.149 19.5147 161.499 19.064 160.944 18.492C160.407 17.92 159.982 17.244 159.67 16.464C159.358 15.684 159.202 14.8347 159.202 13.916C159.202 12.9973 159.358 12.148 159.67 11.368C159.982 10.588 160.416 9.912 160.97 9.34C161.525 8.768 162.192 8.326 162.972 8.014C163.77 7.68467 164.645 7.52 165.598 7.52C166.482 7.52 167.288 7.702 168.016 8.066C168.762 8.43 169.412 8.94133 169.966 9.6H170.018V0.343999H172.046V20H170.018V17.842ZM170.018 13.916C170.018 13.2747 169.914 12.6853 169.706 12.148C169.516 11.5933 169.23 11.1167 168.848 10.718C168.467 10.302 168.008 9.98133 167.47 9.756C166.95 9.51333 166.361 9.392 165.702 9.392C165.044 9.392 164.446 9.51333 163.908 9.756C163.388 9.98133 162.938 10.302 162.556 10.718C162.175 11.1167 161.88 11.5933 161.672 12.148C161.482 12.6853 161.386 13.2747 161.386 13.916C161.386 14.5573 161.482 15.1553 161.672 15.71C161.88 16.2473 162.175 16.724 162.556 17.14C162.938 17.5387 163.388 17.8593 163.908 18.102C164.446 18.3273 165.044 18.44 165.702 18.44C166.361 18.44 166.95 18.3273 167.47 18.102C168.008 17.8593 168.467 17.5387 168.848 17.14C169.23 16.724 169.516 16.2473 169.706 15.71C169.914 15.1553 170.018 14.5573 170.018 13.916ZM175.097 13.916C175.097 12.9627 175.262 12.096 175.591 11.316C175.92 10.536 176.371 9.86867 176.943 9.314C177.515 8.742 178.2 8.3 178.997 7.988C179.794 7.676 180.661 7.52 181.597 7.52C182.533 7.52 183.4 7.676 184.197 7.988C184.994 8.3 185.679 8.742 186.251 9.314C186.823 9.86867 187.274 10.536 187.603 11.316C187.932 12.096 188.097 12.9627 188.097 13.916C188.097 14.8693 187.932 15.736 187.603 16.516C187.274 17.296 186.823 17.972 186.251 18.544C185.679 19.0987 184.994 19.532 184.197 19.844C183.4 20.156 182.533 20.312 181.597 20.312C180.661 20.312 179.794 20.156 178.997 19.844C178.2 19.532 177.515 19.0987 176.943 18.544C176.371 17.972 175.92 17.296 175.591 16.516C175.262 15.736 175.097 14.8693 175.097 13.916ZM177.281 13.916C177.281 14.5573 177.376 15.1553 177.567 15.71C177.775 16.2473 178.07 16.724 178.451 17.14C178.832 17.5387 179.283 17.8593 179.803 18.102C180.34 18.3273 180.938 18.44 181.597 18.44C182.256 18.44 182.845 18.3273 183.365 18.102C183.902 17.8593 184.362 17.5387 184.743 17.14C185.124 16.724 185.41 16.2473 185.601 15.71C185.809 15.1553 185.913 14.5573 185.913 13.916C185.913 13.2747 185.809 12.6853 185.601 12.148C185.41 11.5933 185.124 11.1167 184.743 10.718C184.362 10.302 183.902 9.98133 183.365 9.756C182.845 9.51333 182.256 9.392 181.597 9.392C180.938 9.392 180.34 9.51333 179.803 9.756C179.283 9.98133 178.832 10.302 178.451 10.718C178.07 11.1167 177.775 11.5933 177.567 12.148C177.376 12.6853 177.281 13.2747 177.281 13.916ZM191.419 0.343999H193.447V20H191.419V0.343999ZM196.781 13.916C196.781 12.9627 196.945 12.096 197.275 11.316C197.604 10.536 198.055 9.86867 198.627 9.314C199.199 8.742 199.883 8.3 200.681 7.988C201.478 7.676 202.345 7.52 203.281 7.52C204.217 7.52 205.083 7.676 205.881 7.988C206.678 8.3 207.363 8.742 207.935 9.314C208.507 9.86867 208.957 10.536 209.287 11.316C209.616 12.096 209.781 12.9627 209.781 13.916C209.781 14.8693 209.616 15.736 209.287 16.516C208.957 17.296 208.507 17.972 207.935 18.544C207.363 19.0987 206.678 19.532 205.881 19.844C205.083 20.156 204.217 20.312 203.281 20.312C202.345 20.312 201.478 20.156 200.681 19.844C199.883 19.532 199.199 19.0987 198.627 18.544C198.055 17.972 197.604 17.296 197.275 16.516C196.945 15.736 196.781 14.8693 196.781 13.916ZM198.965 13.916C198.965 14.5573 199.06 15.1553 199.251 15.71C199.459 16.2473 199.753 16.724 200.135 17.14C200.516 17.5387 200.967 17.8593 201.487 18.102C202.024 18.3273 202.622 18.44 203.281 18.44C203.939 18.44 204.529 18.3273 205.049 18.102C205.586 17.8593 206.045 17.5387 206.427 17.14C206.808 16.724 207.094 16.2473 207.285 15.71C207.493 15.1553 207.597 14.5573 207.597 13.916C207.597 13.2747 207.493 12.6853 207.285 12.148C207.094 11.5933 206.808 11.1167 206.427 10.718C206.045 10.302 205.586 9.98133 205.049 9.756C204.529 9.51333 203.939 9.392 203.281 9.392C202.622 9.392 202.024 9.51333 201.487 9.756C200.967 9.98133 200.516 10.302 200.135 10.718C199.753 11.1167 199.459 11.5933 199.251 12.148C199.06 12.6853 198.965 13.2747 198.965 13.916ZM212.92 10.718C212.92 10.1633 212.903 9.64333 212.868 9.158C212.833 8.67267 212.816 8.23067 212.816 7.832H214.74C214.74 8.16133 214.749 8.49067 214.766 8.82C214.783 9.14933 214.792 9.48733 214.792 9.834H214.844C214.983 9.53933 215.173 9.25333 215.416 8.976C215.676 8.69867 215.979 8.456 216.326 8.248C216.673 8.02267 217.063 7.84933 217.496 7.728C217.929 7.58933 218.397 7.52 218.9 7.52C219.039 7.52 219.177 7.52867 219.316 7.546C219.455 7.56333 219.593 7.598 219.732 7.65L219.602 9.704C219.255 9.6 218.891 9.548 218.51 9.548C217.262 9.548 216.352 9.95533 215.78 10.77C215.225 11.5673 214.948 12.668 214.948 14.072V20H212.92V10.718ZM229.557 16.802C229.956 17.3047 230.389 17.7033 230.857 17.998C231.342 18.2927 231.949 18.44 232.677 18.44C232.989 18.44 233.301 18.4053 233.613 18.336C233.942 18.2667 234.237 18.154 234.497 17.998C234.757 17.842 234.965 17.6513 235.121 17.426C235.277 17.1833 235.355 16.8973 235.355 16.568C235.355 16.2387 235.277 15.97 235.121 15.762C234.982 15.554 234.792 15.3807 234.549 15.242C234.306 15.086 234.029 14.9647 233.717 14.878C233.405 14.7913 233.084 14.7133 232.755 14.644C232.183 14.5227 231.637 14.384 231.117 14.228C230.597 14.072 230.138 13.8727 229.739 13.63C229.358 13.37 229.046 13.0407 228.803 12.642C228.578 12.2433 228.465 11.732 228.465 11.108C228.465 10.5187 228.595 9.99867 228.855 9.548C229.115 9.09733 229.462 8.72467 229.895 8.43C230.328 8.13533 230.814 7.91 231.351 7.754C231.888 7.598 232.443 7.52 233.015 7.52C233.882 7.52 234.679 7.69333 235.407 8.04C236.152 8.38667 236.733 8.95 237.149 9.73L235.459 10.848C235.199 10.4147 234.852 10.068 234.419 9.808C234.003 9.53067 233.492 9.392 232.885 9.392C232.608 9.392 232.322 9.42667 232.027 9.496C231.75 9.56533 231.498 9.66933 231.273 9.808C231.048 9.94667 230.857 10.1287 230.701 10.354C230.562 10.562 230.493 10.8047 230.493 11.082C230.493 11.342 230.571 11.5673 230.727 11.758C230.9 11.9313 231.126 12.0873 231.403 12.226C231.698 12.3647 232.027 12.486 232.391 12.59C232.772 12.694 233.162 12.7807 233.561 12.85C234.098 12.954 234.61 13.0927 235.095 13.266C235.58 13.422 236.005 13.6387 236.369 13.916C236.733 14.1933 237.019 14.54 237.227 14.956C237.435 15.372 237.539 15.8833 237.539 16.49C237.539 17.1833 237.4 17.7727 237.123 18.258C236.846 18.7433 236.473 19.142 236.005 19.454C235.554 19.7487 235.034 19.9653 234.445 20.104C233.873 20.2427 233.284 20.312 232.677 20.312C231.637 20.312 230.736 20.156 229.973 19.844C229.228 19.5147 228.552 18.9167 227.945 18.05L229.557 16.802ZM240.549 7.832H242.577V20H240.549V7.832ZM240.081 3.074C240.081 2.67533 240.22 2.32867 240.497 2.034C240.792 1.73933 241.147 1.592 241.563 1.592C241.979 1.592 242.326 1.73933 242.603 2.034C242.898 2.32867 243.045 2.67533 243.045 3.074C243.045 3.50733 242.907 3.86267 242.629 4.14C242.352 4.41733 241.997 4.556 241.563 4.556C241.13 4.556 240.775 4.41733 240.497 4.14C240.22 3.86267 240.081 3.50733 240.081 3.074ZM253.269 9.548H249.681V15.632C249.681 16.0307 249.69 16.4033 249.707 16.75C249.725 17.0793 249.794 17.374 249.915 17.634C250.037 17.8767 250.219 18.076 250.461 18.232C250.704 18.3707 251.051 18.44 251.501 18.44C251.796 18.44 252.099 18.4053 252.411 18.336C252.723 18.2667 253.018 18.1627 253.295 18.024L253.373 19.87C253.027 20.026 252.637 20.1387 252.203 20.208C251.787 20.2773 251.389 20.312 251.007 20.312C250.279 20.312 249.699 20.2167 249.265 20.026C248.832 19.8353 248.494 19.5667 248.251 19.22C248.009 18.8733 247.844 18.4487 247.757 17.946C247.688 17.426 247.653 16.854 247.653 16.23V9.548H245.001V7.832H247.653V4.374H249.681V7.832H253.269V9.548ZM262.834 9.392C263.458 8.75067 264.195 8.28267 265.044 7.988C265.911 7.676 266.786 7.52 267.67 7.52C269.473 7.52 270.773 7.94467 271.57 8.794C272.368 9.64333 272.766 10.9347 272.766 12.668V17.894C272.766 18.2407 272.784 18.6047 272.818 18.986C272.853 19.35 272.896 19.688 272.948 20H270.998C270.929 19.7227 270.886 19.4193 270.868 19.09C270.868 18.7433 270.868 18.44 270.868 18.18H270.816C270.418 18.804 269.88 19.3153 269.204 19.714C268.546 20.1127 267.748 20.312 266.812 20.312C266.188 20.312 265.599 20.234 265.044 20.078C264.507 19.922 264.03 19.6967 263.614 19.402C263.216 19.09 262.895 18.7087 262.652 18.258C262.41 17.8073 262.288 17.2873 262.288 16.698C262.288 15.6927 262.548 14.904 263.068 14.332C263.588 13.76 264.23 13.3353 264.992 13.058C265.772 12.7807 266.604 12.6073 267.488 12.538C268.39 12.4687 269.213 12.434 269.958 12.434H270.738V12.07C270.738 11.186 270.47 10.5187 269.932 10.068C269.412 9.61733 268.676 9.392 267.722 9.392C267.064 9.392 266.414 9.50467 265.772 9.73C265.148 9.938 264.594 10.2673 264.108 10.718L262.834 9.392ZM268.71 14.15C267.41 14.15 266.379 14.332 265.616 14.696C264.854 15.06 264.472 15.658 264.472 16.49C264.472 17.2527 264.724 17.7987 265.226 18.128C265.746 18.44 266.388 18.596 267.15 18.596C267.74 18.596 268.251 18.5007 268.684 18.31C269.135 18.102 269.508 17.8333 269.802 17.504C270.097 17.1747 270.322 16.7933 270.478 16.36C270.634 15.9093 270.721 15.4327 270.738 14.93V14.15H268.71ZM276.473 10.718C276.473 10.1633 276.455 9.64333 276.421 9.158C276.386 8.67267 276.369 8.23067 276.369 7.832H278.293C278.293 8.16133 278.301 8.49067 278.319 8.82C278.336 9.14933 278.345 9.48733 278.345 9.834H278.397C278.535 9.53933 278.726 9.25333 278.969 8.976C279.229 8.69867 279.532 8.456 279.879 8.248C280.225 8.02267 280.615 7.84933 281.049 7.728C281.482 7.58933 281.95 7.52 282.453 7.52C283.111 7.52 283.657 7.60667 284.091 7.78C284.541 7.936 284.914 8.13533 285.209 8.378C285.503 8.60333 285.729 8.85467 285.885 9.132C286.058 9.392 286.197 9.626 286.301 9.834C286.751 9.106 287.271 8.54267 287.861 8.144C288.45 7.728 289.213 7.52 290.149 7.52C291.015 7.52 291.743 7.64133 292.333 7.884C292.922 8.10933 293.399 8.44733 293.763 8.898C294.127 9.33133 294.387 9.86867 294.543 10.51C294.699 11.134 294.777 11.836 294.777 12.616V20H292.749V12.72C292.749 12.304 292.705 11.8967 292.619 11.498C292.532 11.0993 292.376 10.744 292.151 10.432C291.925 10.12 291.622 9.86867 291.241 9.678C290.859 9.48733 290.374 9.392 289.785 9.392C289.351 9.392 288.944 9.47867 288.563 9.652C288.181 9.82533 287.843 10.068 287.549 10.38C287.271 10.692 287.046 11.0733 286.873 11.524C286.717 11.9573 286.639 12.4427 286.639 12.98V20H284.611V13.11C284.611 11.758 284.429 10.8047 284.065 10.25C283.701 9.678 283.103 9.392 282.271 9.392C281.612 9.392 281.04 9.50467 280.555 9.73C280.087 9.95533 279.697 10.276 279.385 10.692C279.09 11.108 278.865 11.602 278.709 12.174C278.57 12.746 278.501 13.3787 278.501 14.072V20H276.473V10.718ZM309.481 17.79C308.753 18.726 307.956 19.3847 307.089 19.766C306.223 20.13 305.217 20.312 304.073 20.312C303.12 20.312 302.262 20.1473 301.499 19.818C300.737 19.4713 300.087 19.012 299.549 18.44C299.029 17.868 298.622 17.192 298.327 16.412C298.05 15.632 297.911 14.8 297.911 13.916C297.911 12.98 298.067 12.122 298.379 11.342C298.691 10.5447 299.125 9.86867 299.679 9.314C300.234 8.742 300.893 8.3 301.655 7.988C302.418 7.676 303.25 7.52 304.151 7.52C305.001 7.52 305.781 7.66733 306.491 7.962C307.202 8.23933 307.809 8.65533 308.311 9.21C308.831 9.74733 309.23 10.4147 309.507 11.212C309.785 11.992 309.923 12.8847 309.923 13.89V14.54H300.095C300.13 15.06 300.251 15.5627 300.459 16.048C300.685 16.516 300.971 16.932 301.317 17.296C301.664 17.6427 302.071 17.92 302.539 18.128C303.007 18.336 303.519 18.44 304.073 18.44C304.957 18.44 305.703 18.284 306.309 17.972C306.916 17.66 307.462 17.2007 307.947 16.594L309.481 17.79ZM307.739 12.824C307.705 11.784 307.367 10.952 306.725 10.328C306.084 9.704 305.2 9.392 304.073 9.392C302.947 9.392 302.037 9.704 301.343 10.328C300.65 10.952 300.234 11.784 300.095 12.824H307.739ZM319.717 9.548H316.129V15.632C316.129 16.0307 316.137 16.4033 316.155 16.75C316.172 17.0793 316.241 17.374 316.363 17.634C316.484 17.8767 316.666 18.076 316.909 18.232C317.151 18.3707 317.498 18.44 317.949 18.44C318.243 18.44 318.547 18.4053 318.859 18.336C319.171 18.2667 319.465 18.1627 319.743 18.024L319.821 19.87C319.474 20.026 319.084 20.1387 318.651 20.208C318.235 20.2773 317.836 20.312 317.455 20.312C316.727 20.312 316.146 20.2167 315.713 20.026C315.279 19.8353 314.941 19.5667 314.699 19.22C314.456 18.8733 314.291 18.4487 314.205 17.946C314.135 17.426 314.101 16.854 314.101 16.23V9.548H311.449V7.832H314.101V4.374H316.129V7.832H319.717V9.548ZM323.631 23.588H321.629L323.397 17.348H325.763L323.631 23.588ZM345.332 10.874C344.899 10.354 344.431 9.98133 343.928 9.756C343.425 9.51333 342.871 9.392 342.264 9.392C341.588 9.392 340.99 9.51333 340.47 9.756C339.95 9.98133 339.517 10.302 339.17 10.718C338.841 11.134 338.589 11.6193 338.416 12.174C338.243 12.7113 338.156 13.292 338.156 13.916C338.156 14.54 338.251 15.1293 338.442 15.684C338.65 16.2213 338.927 16.698 339.274 17.114C339.638 17.53 340.071 17.8593 340.574 18.102C341.077 18.3273 341.64 18.44 342.264 18.44C343.599 18.44 344.63 17.9373 345.358 16.932L346.866 18.362C346.277 19.038 345.583 19.532 344.786 19.844C343.989 20.156 343.148 20.312 342.264 20.312C341.328 20.312 340.47 20.156 339.69 19.844C338.91 19.532 338.243 19.09 337.688 18.518C337.151 17.946 336.726 17.27 336.414 16.49C336.119 15.71 335.972 14.852 335.972 13.916C335.972 12.9973 336.119 12.148 336.414 11.368C336.726 10.588 337.159 9.912 337.714 9.34C338.269 8.768 338.927 8.326 339.69 8.014C340.47 7.68467 341.328 7.52 342.264 7.52C343.165 7.52 344.015 7.676 344.812 7.988C345.627 8.3 346.337 8.78533 346.944 9.444L345.332 10.874ZM348.515 13.916C348.515 12.9627 348.68 12.096 349.009 11.316C349.338 10.536 349.789 9.86867 350.361 9.314C350.933 8.742 351.618 8.3 352.415 7.988C353.212 7.676 354.079 7.52 355.015 7.52C355.951 7.52 356.818 7.676 357.615 7.988C358.412 8.3 359.097 8.742 359.669 9.314C360.241 9.86867 360.692 10.536 361.021 11.316C361.35 12.096 361.515 12.9627 361.515 13.916C361.515 14.8693 361.35 15.736 361.021 16.516C360.692 17.296 360.241 17.972 359.669 18.544C359.097 19.0987 358.412 19.532 357.615 19.844C356.818 20.156 355.951 20.312 355.015 20.312C354.079 20.312 353.212 20.156 352.415 19.844C351.618 19.532 350.933 19.0987 350.361 18.544C349.789 17.972 349.338 17.296 349.009 16.516C348.68 15.736 348.515 14.8693 348.515 13.916ZM350.699 13.916C350.699 14.5573 350.794 15.1553 350.985 15.71C351.193 16.2473 351.488 16.724 351.869 17.14C352.25 17.5387 352.701 17.8593 353.221 18.102C353.758 18.3273 354.356 18.44 355.015 18.44C355.674 18.44 356.263 18.3273 356.783 18.102C357.32 17.8593 357.78 17.5387 358.161 17.14C358.542 16.724 358.828 16.2473 359.019 15.71C359.227 15.1553 359.331 14.5573 359.331 13.916C359.331 13.2747 359.227 12.6853 359.019 12.148C358.828 11.5933 358.542 11.1167 358.161 10.718C357.78 10.302 357.32 9.98133 356.783 9.756C356.263 9.51333 355.674 9.392 355.015 9.392C354.356 9.392 353.758 9.51333 353.221 9.756C352.701 9.98133 352.25 10.302 351.869 10.718C351.488 11.1167 351.193 11.5933 350.985 12.148C350.794 12.6853 350.699 13.2747 350.699 13.916ZM364.654 10.718C364.654 10.1633 364.637 9.64333 364.602 9.158C364.568 8.67267 364.55 8.23067 364.55 7.832H366.474C366.474 8.16133 366.483 8.49067 366.5 8.82C366.518 9.14933 366.526 9.48733 366.526 9.834H366.578C366.717 9.53933 366.908 9.25333 367.15 8.976C367.41 8.69867 367.714 8.456 368.06 8.248C368.407 8.02267 368.797 7.84933 369.23 7.728C369.664 7.58933 370.132 7.52 370.634 7.52C371.432 7.52 372.116 7.64133 372.688 7.884C373.278 8.12667 373.763 8.46467 374.144 8.898C374.526 9.33133 374.803 9.86 374.976 10.484C375.167 11.0907 375.262 11.758 375.262 12.486V20H373.234V12.694C373.234 11.6713 373.009 10.8653 372.558 10.276C372.108 9.68667 371.406 9.392 370.452 9.392C369.794 9.392 369.222 9.50467 368.736 9.73C368.268 9.95533 367.878 10.276 367.566 10.692C367.272 11.108 367.046 11.602 366.89 12.174C366.752 12.746 366.682 13.3787 366.682 14.072V20H364.654V10.718ZM379.362 16.802C379.76 17.3047 380.194 17.7033 380.662 17.998C381.147 18.2927 381.754 18.44 382.482 18.44C382.794 18.44 383.106 18.4053 383.418 18.336C383.747 18.2667 384.042 18.154 384.302 17.998C384.562 17.842 384.77 17.6513 384.926 17.426C385.082 17.1833 385.16 16.8973 385.16 16.568C385.16 16.2387 385.082 15.97 384.926 15.762C384.787 15.554 384.596 15.3807 384.354 15.242C384.111 15.086 383.834 14.9647 383.522 14.878C383.21 14.7913 382.889 14.7133 382.56 14.644C381.988 14.5227 381.442 14.384 380.922 14.228C380.402 14.072 379.942 13.8727 379.544 13.63C379.162 13.37 378.85 13.0407 378.608 12.642C378.382 12.2433 378.27 11.732 378.27 11.108C378.27 10.5187 378.4 9.99867 378.66 9.548C378.92 9.09733 379.266 8.72467 379.7 8.43C380.133 8.13533 380.618 7.91 381.156 7.754C381.693 7.598 382.248 7.52 382.82 7.52C383.686 7.52 384.484 7.69333 385.212 8.04C385.957 8.38667 386.538 8.95 386.954 9.73L385.264 10.848C385.004 10.4147 384.657 10.068 384.224 9.808C383.808 9.53067 383.296 9.392 382.69 9.392C382.412 9.392 382.126 9.42667 381.832 9.496C381.554 9.56533 381.303 9.66933 381.078 9.808C380.852 9.94667 380.662 10.1287 380.506 10.354C380.367 10.562 380.298 10.8047 380.298 11.082C380.298 11.342 380.376 11.5673 380.532 11.758C380.705 11.9313 380.93 12.0873 381.208 12.226C381.502 12.3647 381.832 12.486 382.196 12.59C382.577 12.694 382.967 12.7807 383.366 12.85C383.903 12.954 384.414 13.0927 384.9 13.266C385.385 13.422 385.81 13.6387 386.174 13.916C386.538 14.1933 386.824 14.54 387.032 14.956C387.24 15.372 387.344 15.8833 387.344 16.49C387.344 17.1833 387.205 17.7727 386.928 18.258C386.65 18.7433 386.278 19.142 385.81 19.454C385.359 19.7487 384.839 19.9653 384.25 20.104C383.678 20.2427 383.088 20.312 382.482 20.312C381.442 20.312 380.54 20.156 379.778 19.844C379.032 19.5147 378.356 18.9167 377.75 18.05L379.362 16.802ZM401.04 17.79C400.312 18.726 399.515 19.3847 398.648 19.766C397.781 20.13 396.776 20.312 395.632 20.312C394.679 20.312 393.821 20.1473 393.058 19.818C392.295 19.4713 391.645 19.012 391.108 18.44C390.588 17.868 390.181 17.192 389.886 16.412C389.609 15.632 389.47 14.8 389.47 13.916C389.47 12.98 389.626 12.122 389.938 11.342C390.25 10.5447 390.683 9.86867 391.238 9.314C391.793 8.742 392.451 8.3 393.214 7.988C393.977 7.676 394.809 7.52 395.71 7.52C396.559 7.52 397.339 7.66733 398.05 7.962C398.761 8.23933 399.367 8.65533 399.87 9.21C400.39 9.74733 400.789 10.4147 401.066 11.212C401.343 11.992 401.482 12.8847 401.482 13.89V14.54H391.654C391.689 15.06 391.81 15.5627 392.018 16.048C392.243 16.516 392.529 16.932 392.876 17.296C393.223 17.6427 393.63 17.92 394.098 18.128C394.566 18.336 395.077 18.44 395.632 18.44C396.516 18.44 397.261 18.284 397.868 17.972C398.475 17.66 399.021 17.2007 399.506 16.594L401.04 17.79ZM399.298 12.824C399.263 11.784 398.925 10.952 398.284 10.328C397.643 9.704 396.759 9.392 395.632 9.392C394.505 9.392 393.595 9.704 392.902 10.328C392.209 10.952 391.793 11.784 391.654 12.824H399.298ZM413.277 10.874C412.844 10.354 412.376 9.98133 411.873 9.756C411.371 9.51333 410.816 9.392 410.209 9.392C409.533 9.392 408.935 9.51333 408.415 9.756C407.895 9.98133 407.462 10.302 407.115 10.718C406.786 11.134 406.535 11.6193 406.361 12.174C406.188 12.7113 406.101 13.292 406.101 13.916C406.101 14.54 406.197 15.1293 406.387 15.684C406.595 16.2213 406.873 16.698 407.219 17.114C407.583 17.53 408.017 17.8593 408.519 18.102C409.022 18.3273 409.585 18.44 410.209 18.44C411.544 18.44 412.575 17.9373 413.303 16.932L414.811 18.362C414.222 19.038 413.529 19.532 412.731 19.844C411.934 20.156 411.093 20.312 410.209 20.312C409.273 20.312 408.415 20.156 407.635 19.844C406.855 19.532 406.188 19.09 405.633 18.518C405.096 17.946 404.671 17.27 404.359 16.49C404.065 15.71 403.917 14.852 403.917 13.916C403.917 12.9973 404.065 12.148 404.359 11.368C404.671 10.588 405.105 9.912 405.659 9.34C406.214 8.768 406.873 8.326 407.635 8.014C408.415 7.68467 409.273 7.52 410.209 7.52C411.111 7.52 411.96 7.676 412.757 7.988C413.572 8.3 414.283 8.78533 414.889 9.444L413.277 10.874ZM423.818 9.548H420.23V15.632C420.23 16.0307 420.239 16.4033 420.256 16.75C420.274 17.0793 420.343 17.374 420.464 17.634C420.586 17.8767 420.768 18.076 421.01 18.232C421.253 18.3707 421.6 18.44 422.05 18.44C422.345 18.44 422.648 18.4053 422.96 18.336C423.272 18.2667 423.567 18.1627 423.844 18.024L423.922 19.87C423.576 20.026 423.186 20.1387 422.752 20.208C422.336 20.2773 421.938 20.312 421.556 20.312C420.828 20.312 420.248 20.2167 419.814 20.026C419.381 19.8353 419.043 19.5667 418.8 19.22C418.558 18.8733 418.393 18.4487 418.306 17.946C418.237 17.426 418.202 16.854 418.202 16.23V9.548H415.55V7.832H418.202V4.374H420.23V7.832H423.818V9.548ZM437.171 17.79C436.443 18.726 435.646 19.3847 434.779 19.766C433.912 20.13 432.907 20.312 431.763 20.312C430.81 20.312 429.952 20.1473 429.189 19.818C428.426 19.4713 427.776 19.012 427.239 18.44C426.719 17.868 426.312 17.192 426.017 16.412C425.74 15.632 425.601 14.8 425.601 13.916C425.601 12.98 425.757 12.122 426.069 11.342C426.381 10.5447 426.814 9.86867 427.369 9.314C427.924 8.742 428.582 8.3 429.345 7.988C430.108 7.676 430.94 7.52 431.841 7.52C432.69 7.52 433.47 7.66733 434.181 7.962C434.892 8.23933 435.498 8.65533 436.001 9.21C436.521 9.74733 436.92 10.4147 437.197 11.212C437.474 11.992 437.613 12.8847 437.613 13.89V14.54H427.785C427.82 15.06 427.941 15.5627 428.149 16.048C428.374 16.516 428.66 16.932 429.007 17.296C429.354 17.6427 429.761 17.92 430.229 18.128C430.697 18.336 431.208 18.44 431.763 18.44C432.647 18.44 433.392 18.284 433.999 17.972C434.606 17.66 435.152 17.2007 435.637 16.594L437.171 17.79ZM435.429 12.824C435.394 11.784 435.056 10.952 434.415 10.328C433.774 9.704 432.89 9.392 431.763 9.392C430.636 9.392 429.726 9.704 429.033 10.328C428.34 10.952 427.924 11.784 427.785 12.824H435.429ZM447.406 9.548H443.818V15.632C443.818 16.0307 443.827 16.4033 443.844 16.75C443.862 17.0793 443.931 17.374 444.052 17.634C444.174 17.8767 444.356 18.076 444.598 18.232C444.841 18.3707 445.188 18.44 445.638 18.44C445.933 18.44 446.236 18.4053 446.548 18.336C446.86 18.2667 447.155 18.1627 447.432 18.024L447.51 19.87C447.164 20.026 446.774 20.1387 446.34 20.208C445.924 20.2773 445.526 20.312 445.144 20.312C444.416 20.312 443.836 20.2167 443.402 20.026C442.969 19.8353 442.631 19.5667 442.388 19.22C442.146 18.8733 441.981 18.4487 441.894 17.946C441.825 17.426 441.79 16.854 441.79 16.23V9.548H439.138V7.832H441.79V4.374H443.818V7.832H447.406V9.548ZM460.499 17.114C460.499 17.6687 460.516 18.1887 460.551 18.674C460.585 19.1593 460.603 19.6013 460.603 20H458.679C458.679 19.6707 458.67 19.3413 458.653 19.012C458.635 18.6827 458.627 18.3447 458.627 17.998H458.575C458.436 18.2927 458.237 18.5787 457.977 18.856C457.734 19.1333 457.439 19.3847 457.093 19.61C456.746 19.818 456.356 19.9827 455.923 20.104C455.489 20.2427 455.021 20.312 454.519 20.312C453.721 20.312 453.028 20.1907 452.439 19.948C451.867 19.7053 451.39 19.3673 451.009 18.934C450.627 18.5007 450.341 17.9807 450.151 17.374C449.977 16.75 449.891 16.074 449.891 15.346V7.832H451.919V15.138C451.919 16.1607 452.144 16.9667 452.595 17.556C453.045 18.1453 453.747 18.44 454.701 18.44C455.359 18.44 455.923 18.3273 456.391 18.102C456.876 17.8767 457.266 17.556 457.561 17.14C457.873 16.724 458.098 16.23 458.237 15.658C458.393 15.086 458.471 14.4533 458.471 13.76V7.832H460.499V17.114ZM464.338 10.718C464.338 10.1633 464.321 9.64333 464.286 9.158C464.251 8.67267 464.234 8.23067 464.234 7.832H466.158C466.158 8.16133 466.167 8.49067 466.184 8.82C466.201 9.14933 466.21 9.48733 466.21 9.834H466.262C466.401 9.53933 466.591 9.25333 466.834 8.976C467.094 8.69867 467.397 8.456 467.744 8.248C468.091 8.02267 468.481 7.84933 468.914 7.728C469.347 7.58933 469.815 7.52 470.318 7.52C470.457 7.52 470.595 7.52867 470.734 7.546C470.873 7.56333 471.011 7.598 471.15 7.65L471.02 9.704C470.673 9.6 470.309 9.548 469.928 9.548C468.68 9.548 467.77 9.95533 467.198 10.77C466.643 11.5673 466.366 12.668 466.366 14.072V20H464.338V10.718ZM1.768 45.392C2.392 44.7507 3.12867 44.2827 3.978 43.988C4.84467 43.676 5.72 43.52 6.604 43.52C8.40667 43.52 9.70667 43.9447 10.504 44.794C11.3013 45.6433 11.7 46.9347 11.7 48.668V53.894C11.7 54.2407 11.7173 54.6047 11.752 54.986C11.7867 55.35 11.83 55.688 11.882 56H9.932C9.86267 55.7227 9.81933 55.4193 9.802 55.09C9.802 54.7433 9.802 54.44 9.802 54.18H9.75C9.35133 54.804 8.814 55.3153 8.138 55.714C7.47933 56.1127 6.682 56.312 5.746 56.312C5.122 56.312 4.53267 56.234 3.978 56.078C3.44067 55.922 2.964 55.6967 2.548 55.402C2.14933 55.09 1.82867 54.7087 1.586 54.258C1.34333 53.8073 1.222 53.2873 1.222 52.698C1.222 51.6927 1.482 50.904 2.002 50.332C2.522 49.76 3.16333 49.3353 3.926 49.058C4.706 48.7807 5.538 48.6073 6.422 48.538C7.32333 48.4687 8.14667 48.434 8.892 48.434H9.672V48.07C9.672 47.186 9.40333 46.5187 8.866 46.068C8.346 45.6173 7.60933 45.392 6.656 45.392C5.99733 45.392 5.34733 45.5047 4.706 45.73C4.082 45.938 3.52733 46.2673 3.042 46.718L1.768 45.392ZM7.644 50.15C6.344 50.15 5.31267 50.332 4.55 50.696C3.78733 51.06 3.406 51.658 3.406 52.49C3.406 53.2527 3.65733 53.7987 4.16 54.128C4.68 54.44 5.32133 54.596 6.084 54.596C6.67333 54.596 7.18467 54.5007 7.618 54.31C8.06867 54.102 8.44133 53.8333 8.736 53.504C9.03067 53.1747 9.256 52.7933 9.412 52.36C9.568 51.9093 9.65467 51.4327 9.672 50.93V50.15H7.644ZM25.5204 53.842H25.4684C25.0871 54.5353 24.4804 55.1247 23.6484 55.61C22.8338 56.078 21.8804 56.312 20.7884 56.312C19.9391 56.312 19.1418 56.156 18.3964 55.844C17.6511 55.5147 17.0011 55.064 16.4464 54.492C15.9091 53.92 15.4844 53.244 15.1724 52.464C14.8604 51.684 14.7044 50.8347 14.7044 49.916C14.7044 48.9973 14.8604 48.148 15.1724 47.368C15.4844 46.588 15.9178 45.912 16.4724 45.34C17.0271 44.768 17.6944 44.326 18.4744 44.014C19.2718 43.6847 20.1471 43.52 21.1004 43.52C21.9844 43.52 22.7904 43.702 23.5184 44.066C24.2638 44.43 24.9138 44.9413 25.4684 45.6H25.5204V36.344H27.5484V56H25.5204V53.842ZM25.5204 49.916C25.5204 49.2747 25.4164 48.6853 25.2084 48.148C25.0178 47.5933 24.7318 47.1167 24.3504 46.718C23.9691 46.302 23.5098 45.9813 22.9724 45.756C22.4524 45.5133 21.8631 45.392 21.2044 45.392C20.5458 45.392 19.9478 45.5133 19.4104 45.756C18.8904 45.9813 18.4398 46.302 18.0584 46.718C17.6771 47.1167 17.3824 47.5933 17.1744 48.148C16.9838 48.6853 16.8884 49.2747 16.8884 49.916C16.8884 50.5573 16.9838 51.1553 17.1744 51.71C17.3824 52.2473 17.6771 52.724 18.0584 53.14C18.4398 53.5387 18.8904 53.8593 19.4104 54.102C19.9478 54.3273 20.5458 54.44 21.2044 54.44C21.8631 54.44 22.4524 54.3273 22.9724 54.102C23.5098 53.8593 23.9691 53.5387 24.3504 53.14C24.7318 52.724 25.0178 52.2473 25.2084 51.71C25.4164 51.1553 25.5204 50.5573 25.5204 49.916ZM31.5083 43.832H33.5363V56H31.5083V43.832ZM31.0403 39.074C31.0403 38.6753 31.179 38.3287 31.4563 38.034C31.751 37.7393 32.1063 37.592 32.5223 37.592C32.9383 37.592 33.285 37.7393 33.5623 38.034C33.857 38.3287 34.0043 38.6753 34.0043 39.074C34.0043 39.5073 33.8657 39.8627 33.5883 40.14C33.311 40.4173 32.9557 40.556 32.5223 40.556C32.089 40.556 31.7337 40.4173 31.4563 40.14C31.179 39.8627 31.0403 39.5073 31.0403 39.074ZM37.4684 43.832H39.4964V45.6H39.5484C40.1031 44.9413 40.7444 44.43 41.4724 44.066C42.2178 43.702 43.0324 43.52 43.9164 43.52C44.8698 43.52 45.7364 43.6847 46.5164 44.014C47.3138 44.326 47.9898 44.768 48.5444 45.34C49.0991 45.912 49.5324 46.588 49.8444 47.368C50.1564 48.148 50.3124 48.9973 50.3124 49.916C50.3124 50.8347 50.1564 51.684 49.8444 52.464C49.5324 53.244 49.0991 53.92 48.5444 54.492C48.0071 55.064 47.3658 55.5147 46.6204 55.844C45.8751 56.156 45.0778 56.312 44.2284 56.312C43.1364 56.312 42.1744 56.078 41.3424 55.61C40.5278 55.1247 39.9298 54.5353 39.5484 53.842H39.4964V61.928H37.4684V43.832ZM39.4964 49.916C39.4964 50.5573 39.5918 51.1553 39.7824 51.71C39.9904 52.2473 40.2851 52.724 40.6664 53.14C41.0478 53.5387 41.4984 53.8593 42.0184 54.102C42.5558 54.3273 43.1538 54.44 43.8124 54.44C44.4711 54.44 45.0604 54.3273 45.5804 54.102C46.1178 53.8593 46.5771 53.5387 46.9584 53.14C47.3398 52.724 47.6258 52.2473 47.8164 51.71C48.0244 51.1553 48.1284 50.5573 48.1284 49.916C48.1284 49.2747 48.0244 48.6853 47.8164 48.148C47.6258 47.5933 47.3398 47.1167 46.9584 46.718C46.5771 46.302 46.1178 45.9813 45.5804 45.756C45.0604 45.5133 44.4711 45.392 43.8124 45.392C43.1538 45.392 42.5558 45.5133 42.0184 45.756C41.4984 45.9813 41.0478 46.302 40.6664 46.718C40.2851 47.1167 39.9904 47.5933 39.7824 48.148C39.5918 48.6853 39.4964 49.2747 39.4964 49.916ZM53.649 43.832H55.677V56H53.649V43.832ZM53.181 39.074C53.181 38.6753 53.3196 38.3287 53.597 38.034C53.8916 37.7393 54.247 37.592 54.663 37.592C55.079 37.592 55.4256 37.7393 55.703 38.034C55.9976 38.3287 56.145 38.6753 56.145 39.074C56.145 39.5073 56.0063 39.8627 55.729 40.14C55.4516 40.4173 55.0963 40.556 54.663 40.556C54.2296 40.556 53.8743 40.4173 53.597 40.14C53.3196 39.8627 53.181 39.5073 53.181 39.074ZM59.9731 52.802C60.3717 53.3047 60.8051 53.7033 61.2731 53.998C61.7584 54.2927 62.3651 54.44 63.0931 54.44C63.4051 54.44 63.7171 54.4053 64.0291 54.336C64.3584 54.2667 64.6531 54.154 64.9131 53.998C65.1731 53.842 65.3811 53.6513 65.5371 53.426C65.6931 53.1833 65.7711 52.8973 65.7711 52.568C65.7711 52.2387 65.6931 51.97 65.5371 51.762C65.3984 51.554 65.2077 51.3807 64.9651 51.242C64.7224 51.086 64.4451 50.9647 64.1331 50.878C63.8211 50.7913 63.5004 50.7133 63.1711 50.644C62.5991 50.5227 62.0531 50.384 61.5331 50.228C61.0131 50.072 60.5537 49.8727 60.1551 49.63C59.7737 49.37 59.4617 49.0407 59.2191 48.642C58.9937 48.2433 58.8811 47.732 58.8811 47.108C58.8811 46.5187 59.0111 45.9987 59.2711 45.548C59.5311 45.0973 59.8777 44.7247 60.3111 44.43C60.7444 44.1353 61.2297 43.91 61.7671 43.754C62.3044 43.598 62.8591 43.52 63.4311 43.52C64.2977 43.52 65.0951 43.6933 65.8231 44.04C66.5684 44.3867 67.1491 44.95 67.5651 45.73L65.8751 46.848C65.6151 46.4147 65.2684 46.068 64.8351 45.808C64.4191 45.5307 63.9077 45.392 63.3011 45.392C63.0237 45.392 62.7377 45.4267 62.4431 45.496C62.1657 45.5653 61.9144 45.6693 61.6891 45.808C61.4637 45.9467 61.2731 46.1287 61.1171 46.354C60.9784 46.562 60.9091 46.8047 60.9091 47.082C60.9091 47.342 60.9871 47.5673 61.1431 47.758C61.3164 47.9313 61.5417 48.0873 61.8191 48.226C62.1137 48.3647 62.4431 48.486 62.8071 48.59C63.1884 48.694 63.5784 48.7807 63.9771 48.85C64.5144 48.954 65.0257 49.0927 65.5111 49.266C65.9964 49.422 66.4211 49.6387 66.7851 49.916C67.1491 50.1933 67.4351 50.54 67.6431 50.956C67.8511 51.372 67.9551 51.8833 67.9551 52.49C67.9551 53.1833 67.8164 53.7727 67.5391 54.258C67.2617 54.7433 66.8891 55.142 66.4211 55.454C65.9704 55.7487 65.4504 55.9653 64.8611 56.104C64.2891 56.2427 63.6997 56.312 63.0931 56.312C62.0531 56.312 61.1517 56.156 60.3891 55.844C59.6437 55.5147 58.9677 54.9167 58.3611 54.05L59.9731 52.802ZM79.4414 46.874C79.008 46.354 78.54 45.9813 78.0374 45.756C77.5347 45.5133 76.98 45.392 76.3734 45.392C75.6974 45.392 75.0994 45.5133 74.5794 45.756C74.0594 45.9813 73.626 46.302 73.2794 46.718C72.95 47.134 72.6987 47.6193 72.5254 48.174C72.352 48.7113 72.2654 49.292 72.2654 49.916C72.2654 50.54 72.3607 51.1293 72.5514 51.684C72.7594 52.2213 73.0367 52.698 73.3834 53.114C73.7474 53.53 74.1807 53.8593 74.6834 54.102C75.186 54.3273 75.7494 54.44 76.3734 54.44C77.708 54.44 78.7394 53.9373 79.4674 52.932L80.9754 54.362C80.386 55.038 79.6927 55.532 78.8954 55.844C78.098 56.156 77.2574 56.312 76.3734 56.312C75.4374 56.312 74.5794 56.156 73.7994 55.844C73.0194 55.532 72.352 55.09 71.7974 54.518C71.26 53.946 70.8354 53.27 70.5234 52.49C70.2287 51.71 70.0814 50.852 70.0814 49.916C70.0814 48.9973 70.2287 48.148 70.5234 47.368C70.8354 46.588 71.2687 45.912 71.8234 45.34C72.378 44.768 73.0367 44.326 73.7994 44.014C74.5794 43.6847 75.4374 43.52 76.3734 43.52C77.2747 43.52 78.124 43.676 78.9214 43.988C79.736 44.3 80.4467 44.7853 81.0534 45.444L79.4414 46.874ZM83.5083 43.832H85.5363V56H83.5083V43.832ZM83.0403 39.074C83.0403 38.6753 83.179 38.3287 83.4563 38.034C83.751 37.7393 84.1063 37.592 84.5223 37.592C84.9383 37.592 85.285 37.7393 85.5623 38.034C85.857 38.3287 86.0043 38.6753 86.0043 39.074C86.0043 39.5073 85.8657 39.8627 85.5883 40.14C85.311 40.4173 84.9557 40.556 84.5223 40.556C84.089 40.556 83.7337 40.4173 83.4563 40.14C83.179 39.8627 83.0403 39.5073 83.0403 39.074ZM89.5724 46.718C89.5724 46.1633 89.5551 45.6433 89.5204 45.158C89.4858 44.6727 89.4684 44.2307 89.4684 43.832H91.3924C91.3924 44.1613 91.4011 44.4907 91.4184 44.82C91.4358 45.1493 91.4444 45.4873 91.4444 45.834H91.4964C91.6351 45.5393 91.8258 45.2533 92.0684 44.976C92.3284 44.6987 92.6318 44.456 92.9784 44.248C93.3251 44.0227 93.7151 43.8493 94.1484 43.728C94.5818 43.5893 95.0498 43.52 95.5524 43.52C96.3498 43.52 97.0344 43.6413 97.6064 43.884C98.1958 44.1267 98.6811 44.4647 99.0624 44.898C99.4438 45.3313 99.7211 45.86 99.8944 46.484C100.085 47.0907 100.18 47.758 100.18 48.486V56H98.1524V48.694C98.1524 47.6713 97.9271 46.8653 97.4764 46.276C97.0258 45.6867 96.3238 45.392 95.3704 45.392C94.7118 45.392 94.1398 45.5047 93.6544 45.73C93.1864 45.9553 92.7964 46.276 92.4844 46.692C92.1898 47.108 91.9644 47.602 91.8084 48.174C91.6698 48.746 91.6004 49.3787 91.6004 50.072V56H89.5724V46.718ZM116.162 55.454C116.162 57.6727 115.59 59.354 114.446 60.498C113.319 61.6593 111.681 62.24 109.532 62.24C108.336 62.24 107.252 62.0667 106.282 61.72C105.328 61.3733 104.418 60.7753 103.552 59.926L105.008 58.262C105.649 58.9553 106.325 59.4753 107.036 59.822C107.764 60.186 108.596 60.368 109.532 60.368C110.433 60.368 111.178 60.2293 111.768 59.952C112.374 59.692 112.851 59.328 113.198 58.86C113.544 58.4093 113.787 57.8893 113.926 57.3C114.064 56.7107 114.134 56.0953 114.134 55.454V53.894H114.082C113.596 54.674 112.964 55.246 112.184 55.61C111.404 55.974 110.606 56.156 109.792 56.156C108.838 56.156 107.963 56 107.166 55.688C106.368 55.376 105.684 54.9427 105.112 54.388C104.54 53.8333 104.098 53.1747 103.786 52.412C103.474 51.6493 103.318 50.8173 103.318 49.916C103.318 48.928 103.474 48.0353 103.786 47.238C104.098 46.4407 104.531 45.7733 105.086 45.236C105.658 44.6813 106.342 44.2567 107.14 43.962C107.937 43.6673 108.821 43.52 109.792 43.52C110.208 43.52 110.624 43.572 111.04 43.676C111.456 43.7627 111.854 43.91 112.236 44.118C112.634 44.3087 112.99 44.56 113.302 44.872C113.614 45.1667 113.874 45.5133 114.082 45.912H114.134V43.832H116.162V55.454ZM105.502 49.916C105.502 50.54 105.614 51.1207 105.84 51.658C106.065 52.178 106.368 52.6373 106.75 53.036C107.148 53.4173 107.608 53.7207 108.128 53.946C108.648 54.1713 109.202 54.284 109.792 54.284C110.485 54.284 111.1 54.1627 111.638 53.92C112.175 53.6773 112.626 53.3567 112.99 52.958C113.371 52.542 113.657 52.074 113.848 51.554C114.038 51.0167 114.134 50.4533 114.134 49.864C114.134 49.2053 114.03 48.6073 113.822 48.07C113.614 47.5153 113.319 47.0387 112.938 46.64C112.556 46.2413 112.097 45.938 111.56 45.73C111.022 45.5047 110.433 45.392 109.792 45.392C109.15 45.392 108.561 45.5133 108.024 45.756C107.504 45.9813 107.053 46.302 106.672 46.718C106.308 47.1167 106.022 47.5933 105.814 48.148C105.606 48.6853 105.502 49.2747 105.502 49.916ZM138.019 53.79C137.291 54.726 136.493 55.3847 135.627 55.766C134.76 56.13 133.755 56.312 132.611 56.312C131.657 56.312 130.799 56.1473 130.037 55.818C129.274 55.4713 128.624 55.012 128.087 54.44C127.567 53.868 127.159 53.192 126.865 52.412C126.587 51.632 126.449 50.8 126.449 49.916C126.449 48.98 126.605 48.122 126.917 47.342C127.229 46.5447 127.662 45.8687 128.217 45.314C128.771 44.742 129.43 44.3 130.193 43.988C130.955 43.676 131.787 43.52 132.689 43.52C133.538 43.52 134.318 43.6673 135.029 43.962C135.739 44.2393 136.346 44.6553 136.849 45.21C137.369 45.7473 137.767 46.4147 138.045 47.212C138.322 47.992 138.461 48.8847 138.461 49.89V50.54H128.633C128.667 51.06 128.789 51.5627 128.997 52.048C129.222 52.516 129.508 52.932 129.855 53.296C130.201 53.6427 130.609 53.92 131.077 54.128C131.545 54.336 132.056 54.44 132.611 54.44C133.495 54.44 134.24 54.284 134.847 53.972C135.453 53.66 135.999 53.2007 136.485 52.594L138.019 53.79ZM136.277 48.824C136.242 47.784 135.904 46.952 135.263 46.328C134.621 45.704 133.737 45.392 132.611 45.392C131.484 45.392 130.574 45.704 129.881 46.328C129.187 46.952 128.771 47.784 128.633 48.824H136.277ZM141.78 36.344H143.808V56H141.78V36.344ZM148.051 43.832H150.079V56H148.051V43.832ZM147.583 39.074C147.583 38.6753 147.722 38.3287 147.999 38.034C148.294 37.7393 148.649 37.592 149.065 37.592C149.481 37.592 149.828 37.7393 150.105 38.034C150.4 38.3287 150.547 38.6753 150.547 39.074C150.547 39.5073 150.409 39.8627 150.131 40.14C149.854 40.4173 149.499 40.556 149.065 40.556C148.632 40.556 148.277 40.4173 147.999 40.14C147.722 39.8627 147.583 39.5073 147.583 39.074ZM160.771 45.548H157.183V51.632C157.183 52.0307 157.192 52.4033 157.209 52.75C157.227 53.0793 157.296 53.374 157.417 53.634C157.539 53.8767 157.721 54.076 157.963 54.232C158.206 54.3707 158.553 54.44 159.003 54.44C159.298 54.44 159.601 54.4053 159.913 54.336C160.225 54.2667 160.52 54.1627 160.797 54.024L160.875 55.87C160.529 56.026 160.139 56.1387 159.705 56.208C159.289 56.2773 158.891 56.312 158.509 56.312C157.781 56.312 157.201 56.2167 156.767 56.026C156.334 55.8353 155.996 55.5667 155.753 55.22C155.511 54.8733 155.346 54.4487 155.259 53.946C155.19 53.426 155.155 52.854 155.155 52.23V45.548H152.503V43.832H155.155V40.374H157.183V43.832H160.771V45.548ZM164.946 53.036C165.379 53.036 165.743 53.192 166.038 53.504C166.35 53.7987 166.506 54.1627 166.506 54.596C166.506 55.0293 166.341 55.402 166.012 55.714C165.7 56.0087 165.345 56.156 164.946 56.156C164.547 56.156 164.183 56.0087 163.854 55.714C163.542 55.402 163.386 55.0293 163.386 54.596C163.386 54.1627 163.533 53.7987 163.828 53.504C164.14 53.192 164.513 53.036 164.946 53.036ZM178.093 37.592H189.507V39.62H180.277V45.704H188.857V47.732H180.277V56H178.093V37.592ZM192.02 45.392C192.644 44.7507 193.381 44.2827 194.23 43.988C195.097 43.676 195.972 43.52 196.856 43.52C198.659 43.52 199.959 43.9447 200.756 44.794C201.553 45.6433 201.952 46.9347 201.952 48.668V53.894C201.952 54.2407 201.969 54.6047 202.004 54.986C202.039 55.35 202.082 55.688 202.134 56H200.184C200.115 55.7227 200.071 55.4193 200.054 55.09C200.054 54.7433 200.054 54.44 200.054 54.18H200.002C199.603 54.804 199.066 55.3153 198.39 55.714C197.731 56.1127 196.934 56.312 195.998 56.312C195.374 56.312 194.785 56.234 194.23 56.078C193.693 55.922 193.216 55.6967 192.8 55.402C192.401 55.09 192.081 54.7087 191.838 54.258C191.595 53.8073 191.474 53.2873 191.474 52.698C191.474 51.6927 191.734 50.904 192.254 50.332C192.774 49.76 193.415 49.3353 194.178 49.058C194.958 48.7807 195.79 48.6073 196.674 48.538C197.575 48.4687 198.399 48.434 199.144 48.434H199.924V48.07C199.924 47.186 199.655 46.5187 199.118 46.068C198.598 45.6173 197.861 45.392 196.908 45.392C196.249 45.392 195.599 45.5047 194.958 45.73C194.334 45.938 193.779 46.2673 193.294 46.718L192.02 45.392ZM197.896 50.15C196.596 50.15 195.565 50.332 194.802 50.696C194.039 51.06 193.658 51.658 193.658 52.49C193.658 53.2527 193.909 53.7987 194.412 54.128C194.932 54.44 195.573 54.596 196.336 54.596C196.925 54.596 197.437 54.5007 197.87 54.31C198.321 54.102 198.693 53.8333 198.988 53.504C199.283 53.1747 199.508 52.7933 199.664 52.36C199.82 51.9093 199.907 51.4327 199.924 50.93V50.15H197.896ZM216.266 53.114C216.266 53.6687 216.284 54.1887 216.318 54.674C216.353 55.1593 216.37 55.6013 216.37 56H214.446C214.446 55.6707 214.438 55.3413 214.42 55.012C214.403 54.6827 214.394 54.3447 214.394 53.998H214.342C214.204 54.2927 214.004 54.5787 213.744 54.856C213.502 55.1333 213.207 55.3847 212.86 55.61C212.514 55.818 212.124 55.9827 211.69 56.104C211.257 56.2427 210.789 56.312 210.286 56.312C209.489 56.312 208.796 56.1907 208.206 55.948C207.634 55.7053 207.158 55.3673 206.776 54.934C206.395 54.5007 206.109 53.9807 205.918 53.374C205.745 52.75 205.658 52.074 205.658 51.346V43.832H207.686V51.138C207.686 52.1607 207.912 52.9667 208.362 53.556C208.813 54.1453 209.515 54.44 210.468 54.44C211.127 54.44 211.69 54.3273 212.158 54.102C212.644 53.8767 213.034 53.556 213.328 53.14C213.64 52.724 213.866 52.23 214.004 51.658C214.16 51.086 214.238 50.4533 214.238 49.76V43.832H216.266V53.114ZM228.764 46.874C228.33 46.354 227.862 45.9813 227.36 45.756C226.857 45.5133 226.302 45.392 225.696 45.392C225.02 45.392 224.422 45.5133 223.902 45.756C223.382 45.9813 222.948 46.302 222.602 46.718C222.272 47.134 222.021 47.6193 221.848 48.174C221.674 48.7113 221.588 49.292 221.588 49.916C221.588 50.54 221.683 51.1293 221.874 51.684C222.082 52.2213 222.359 52.698 222.706 53.114C223.07 53.53 223.503 53.8593 224.006 54.102C224.508 54.3273 225.072 54.44 225.696 54.44C227.03 54.44 228.062 53.9373 228.79 52.932L230.298 54.362C229.708 55.038 229.015 55.532 228.218 55.844C227.42 56.156 226.58 56.312 225.696 56.312C224.76 56.312 223.902 56.156 223.122 55.844C222.342 55.532 221.674 55.09 221.12 54.518C220.582 53.946 220.158 53.27 219.846 52.49C219.551 51.71 219.404 50.852 219.404 49.916C219.404 48.9973 219.551 48.148 219.846 47.368C220.158 46.588 220.591 45.912 221.146 45.34C221.7 44.768 222.359 44.326 223.122 44.014C223.902 43.6847 224.76 43.52 225.696 43.52C226.597 43.52 227.446 43.676 228.244 43.988C229.058 44.3 229.769 44.7853 230.376 45.444L228.764 46.874ZM232.831 43.832H234.859V56H232.831V43.832ZM232.363 39.074C232.363 38.6753 232.501 38.3287 232.779 38.034C233.073 37.7393 233.429 37.592 233.845 37.592C234.261 37.592 234.607 37.7393 234.885 38.034C235.179 38.3287 235.327 38.6753 235.327 39.074C235.327 39.5073 235.188 39.8627 234.911 40.14C234.633 40.4173 234.278 40.556 233.845 40.556C233.411 40.556 233.056 40.4173 232.779 40.14C232.501 39.8627 232.363 39.5073 232.363 39.074ZM238.791 36.344H240.819V45.6H240.871C241.425 44.9413 242.067 44.43 242.795 44.066C243.54 43.702 244.355 43.52 245.239 43.52C246.192 43.52 247.059 43.6847 247.839 44.014C248.636 44.326 249.312 44.768 249.867 45.34C250.421 45.912 250.855 46.588 251.167 47.368C251.479 48.148 251.635 48.9973 251.635 49.916C251.635 50.8347 251.479 51.684 251.167 52.464C250.855 53.244 250.421 53.92 249.867 54.492C249.329 55.064 248.688 55.5147 247.943 55.844C247.197 56.156 246.4 56.312 245.551 56.312C244.459 56.312 243.497 56.078 242.665 55.61C241.85 55.1247 241.252 54.5353 240.871 53.842H240.819V56H238.791V36.344ZM240.819 49.916C240.819 50.5573 240.914 51.1553 241.105 51.71C241.313 52.2473 241.607 52.724 241.989 53.14C242.37 53.5387 242.821 53.8593 243.341 54.102C243.878 54.3273 244.476 54.44 245.135 54.44C245.793 54.44 246.383 54.3273 246.903 54.102C247.44 53.8593 247.899 53.5387 248.281 53.14C248.662 52.724 248.948 52.2473 249.139 51.71C249.347 51.1553 249.451 50.5573 249.451 49.916C249.451 49.2747 249.347 48.6853 249.139 48.148C248.948 47.5933 248.662 47.1167 248.281 46.718C247.899 46.302 247.44 45.9813 246.903 45.756C246.383 45.5133 245.793 45.392 245.135 45.392C244.476 45.392 243.878 45.5133 243.341 45.756C242.821 45.9813 242.37 46.302 241.989 46.718C241.607 47.1167 241.313 47.5933 241.105 48.148C240.914 48.6853 240.819 49.2747 240.819 49.916ZM265.397 53.114C265.397 53.6687 265.415 54.1887 265.449 54.674C265.484 55.1593 265.501 55.6013 265.501 56H263.577C263.577 55.6707 263.569 55.3413 263.551 55.012C263.534 54.6827 263.525 54.3447 263.525 53.998H263.473C263.335 54.2927 263.135 54.5787 262.875 54.856C262.633 55.1333 262.338 55.3847 261.991 55.61C261.645 55.818 261.255 55.9827 260.821 56.104C260.388 56.2427 259.92 56.312 259.417 56.312C258.62 56.312 257.927 56.1907 257.337 55.948C256.765 55.7053 256.289 55.3673 255.907 54.934C255.526 54.5007 255.24 53.9807 255.049 53.374C254.876 52.75 254.789 52.074 254.789 51.346V43.832H256.817V51.138C256.817 52.1607 257.043 52.9667 257.493 53.556C257.944 54.1453 258.646 54.44 259.599 54.44C260.258 54.44 260.821 54.3273 261.289 54.102C261.775 53.8767 262.165 53.556 262.459 53.14C262.771 52.724 262.997 52.23 263.135 51.658C263.291 51.086 263.369 50.4533 263.369 49.76V43.832H265.397V53.114ZM269.497 52.802C269.895 53.3047 270.329 53.7033 270.797 53.998C271.282 54.2927 271.889 54.44 272.617 54.44C272.929 54.44 273.241 54.4053 273.553 54.336C273.882 54.2667 274.177 54.154 274.437 53.998C274.697 53.842 274.905 53.6513 275.061 53.426C275.217 53.1833 275.295 52.8973 275.295 52.568C275.295 52.2387 275.217 51.97 275.061 51.762C274.922 51.554 274.731 51.3807 274.489 51.242C274.246 51.086 273.969 50.9647 273.657 50.878C273.345 50.7913 273.024 50.7133 272.695 50.644C272.123 50.5227 271.577 50.384 271.057 50.228C270.537 50.072 270.077 49.8727 269.679 49.63C269.297 49.37 268.985 49.0407 268.743 48.642C268.517 48.2433 268.405 47.732 268.405 47.108C268.405 46.5187 268.535 45.9987 268.795 45.548C269.055 45.0973 269.401 44.7247 269.835 44.43C270.268 44.1353 270.753 43.91 271.291 43.754C271.828 43.598 272.383 43.52 272.955 43.52C273.821 43.52 274.619 43.6933 275.347 44.04C276.092 44.3867 276.673 44.95 277.089 45.73L275.399 46.848C275.139 46.4147 274.792 46.068 274.359 45.808C273.943 45.5307 273.431 45.392 272.825 45.392C272.547 45.392 272.261 45.4267 271.967 45.496C271.689 45.5653 271.438 45.6693 271.213 45.808C270.987 45.9467 270.797 46.1287 270.641 46.354C270.502 46.562 270.433 46.8047 270.433 47.082C270.433 47.342 270.511 47.5673 270.667 47.758C270.84 47.9313 271.065 48.0873 271.343 48.226C271.637 48.3647 271.967 48.486 272.331 48.59C272.712 48.694 273.102 48.7807 273.501 48.85C274.038 48.954 274.549 49.0927 275.035 49.266C275.52 49.422 275.945 49.6387 276.309 49.916C276.673 50.1933 276.959 50.54 277.167 50.956C277.375 51.372 277.479 51.8833 277.479 52.49C277.479 53.1833 277.34 53.7727 277.063 54.258C276.785 54.7433 276.413 55.142 275.945 55.454C275.494 55.7487 274.974 55.9653 274.385 56.104C273.813 56.2427 273.223 56.312 272.617 56.312C271.577 56.312 270.675 56.156 269.913 55.844C269.167 55.5147 268.491 54.9167 267.885 54.05L269.497 52.802ZM287.725 43.832H289.753V56H287.725V43.832ZM287.257 39.074C287.257 38.6753 287.396 38.3287 287.673 38.034C287.968 37.7393 288.323 37.592 288.739 37.592C289.155 37.592 289.502 37.7393 289.779 38.034C290.074 38.3287 290.221 38.6753 290.221 39.074C290.221 39.5073 290.082 39.8627 289.805 40.14C289.528 40.4173 289.172 40.556 288.739 40.556C288.306 40.556 287.95 40.4173 287.673 40.14C287.396 39.8627 287.257 39.5073 287.257 39.074ZM293.789 46.718C293.789 46.1633 293.772 45.6433 293.737 45.158C293.703 44.6727 293.685 44.2307 293.685 43.832H295.609C295.609 44.1613 295.618 44.4907 295.635 44.82C295.653 45.1493 295.661 45.4873 295.661 45.834H295.713C295.852 45.5393 296.043 45.2533 296.285 44.976C296.545 44.6987 296.849 44.456 297.195 44.248C297.542 44.0227 297.932 43.8493 298.365 43.728C298.799 43.5893 299.267 43.52 299.769 43.52C300.567 43.52 301.251 43.6413 301.823 43.884C302.413 44.1267 302.898 44.4647 303.279 44.898C303.661 45.3313 303.938 45.86 304.111 46.484C304.302 47.0907 304.397 47.758 304.397 48.486V56H302.369V48.694C302.369 47.6713 302.144 46.8653 301.693 46.276C301.243 45.6867 300.541 45.392 299.587 45.392C298.929 45.392 298.357 45.5047 297.871 45.73C297.403 45.9553 297.013 46.276 296.701 46.692C296.407 47.108 296.181 47.602 296.025 48.174C295.887 48.746 295.817 49.3787 295.817 50.072V56H293.789V46.718ZM315.655 36.344H317.683V56H315.655V36.344ZM321.926 43.832H323.954V56H321.926V43.832ZM321.458 39.074C321.458 38.6753 321.597 38.3287 321.874 38.034C322.169 37.7393 322.524 37.592 322.94 37.592C323.356 37.592 323.703 37.7393 323.98 38.034C324.275 38.3287 324.422 38.6753 324.422 39.074C324.422 39.5073 324.284 39.8627 324.006 40.14C323.729 40.4173 323.374 40.556 322.94 40.556C322.507 40.556 322.152 40.4173 321.874 40.14C321.597 39.8627 321.458 39.5073 321.458 39.074ZM327.886 36.344H329.914V45.6H329.966C330.521 44.9413 331.162 44.43 331.89 44.066C332.636 43.702 333.45 43.52 334.334 43.52C335.288 43.52 336.154 43.6847 336.934 44.014C337.732 44.326 338.408 44.768 338.962 45.34C339.517 45.912 339.95 46.588 340.262 47.368C340.574 48.148 340.73 48.9973 340.73 49.916C340.73 50.8347 340.574 51.684 340.262 52.464C339.95 53.244 339.517 53.92 338.962 54.492C338.425 55.064 337.784 55.5147 337.038 55.844C336.293 56.156 335.496 56.312 334.646 56.312C333.554 56.312 332.592 56.078 331.76 55.61C330.946 55.1247 330.348 54.5353 329.966 53.842H329.914V56H327.886V36.344ZM329.914 49.916C329.914 50.5573 330.01 51.1553 330.2 51.71C330.408 52.2473 330.703 52.724 331.084 53.14C331.466 53.5387 331.916 53.8593 332.436 54.102C332.974 54.3273 333.572 54.44 334.23 54.44C334.889 54.44 335.478 54.3273 335.998 54.102C336.536 53.8593 336.995 53.5387 337.376 53.14C337.758 52.724 338.044 52.2473 338.234 51.71C338.442 51.1553 338.546 50.5573 338.546 49.916C338.546 49.2747 338.442 48.6853 338.234 48.148C338.044 47.5933 337.758 47.1167 337.376 46.718C336.995 46.302 336.536 45.9813 335.998 45.756C335.478 45.5133 334.889 45.392 334.23 45.392C333.572 45.392 332.974 45.5133 332.436 45.756C331.916 45.9813 331.466 46.302 331.084 46.718C330.703 47.1167 330.408 47.5933 330.2 48.148C330.01 48.6853 329.914 49.2747 329.914 49.916ZM354.753 53.79C354.025 54.726 353.228 55.3847 352.361 55.766C351.494 56.13 350.489 56.312 349.345 56.312C348.392 56.312 347.534 56.1473 346.771 55.818C346.008 55.4713 345.358 55.012 344.821 54.44C344.301 53.868 343.894 53.192 343.599 52.412C343.322 51.632 343.183 50.8 343.183 49.916C343.183 48.98 343.339 48.122 343.651 47.342C343.963 46.5447 344.396 45.8687 344.951 45.314C345.506 44.742 346.164 44.3 346.927 43.988C347.69 43.676 348.522 43.52 349.423 43.52C350.272 43.52 351.052 43.6673 351.763 43.962C352.474 44.2393 353.08 44.6553 353.583 45.21C354.103 45.7473 354.502 46.4147 354.779 47.212C355.056 47.992 355.195 48.8847 355.195 49.89V50.54H345.367C345.402 51.06 345.523 51.5627 345.731 52.048C345.956 52.516 346.242 52.932 346.589 53.296C346.936 53.6427 347.343 53.92 347.811 54.128C348.279 54.336 348.79 54.44 349.345 54.44C350.229 54.44 350.974 54.284 351.581 53.972C352.188 53.66 352.734 53.2007 353.219 52.594L354.753 53.79ZM353.011 48.824C352.976 47.784 352.638 46.952 351.997 46.328C351.356 45.704 350.472 45.392 349.345 45.392C348.218 45.392 347.308 45.704 346.615 46.328C345.922 46.952 345.506 47.784 345.367 48.824H353.011ZM358.332 46.718C358.332 46.1633 358.315 45.6433 358.28 45.158C358.246 44.6727 358.228 44.2307 358.228 43.832H360.152C360.152 44.1613 360.161 44.4907 360.178 44.82C360.196 45.1493 360.204 45.4873 360.204 45.834H360.256C360.395 45.5393 360.586 45.2533 360.828 44.976C361.088 44.6987 361.392 44.456 361.738 44.248C362.085 44.0227 362.475 43.8493 362.908 43.728C363.342 43.5893 363.81 43.52 364.312 43.52C364.451 43.52 364.59 43.5287 364.728 43.546C364.867 43.5633 365.006 43.598 365.144 43.65L365.014 45.704C364.668 45.6 364.304 45.548 363.922 45.548C362.674 45.548 361.764 45.9553 361.192 46.77C360.638 47.5673 360.36 48.668 360.36 50.072V56H358.332V46.718ZM366.314 49.916C366.314 48.9627 366.478 48.096 366.808 47.316C367.137 46.536 367.588 45.8687 368.16 45.314C368.732 44.742 369.416 44.3 370.214 43.988C371.011 43.676 371.878 43.52 372.814 43.52C373.75 43.52 374.616 43.676 375.414 43.988C376.211 44.3 376.896 44.742 377.468 45.314C378.04 45.8687 378.49 46.536 378.82 47.316C379.149 48.096 379.314 48.9627 379.314 49.916C379.314 50.8693 379.149 51.736 378.82 52.516C378.49 53.296 378.04 53.972 377.468 54.544C376.896 55.0987 376.211 55.532 375.414 55.844C374.616 56.156 373.75 56.312 372.814 56.312C371.878 56.312 371.011 56.156 370.214 55.844C369.416 55.532 368.732 55.0987 368.16 54.544C367.588 53.972 367.137 53.296 366.808 52.516C366.478 51.736 366.314 50.8693 366.314 49.916ZM368.498 49.916C368.498 50.5573 368.593 51.1553 368.784 51.71C368.992 52.2473 369.286 52.724 369.668 53.14C370.049 53.5387 370.5 53.8593 371.02 54.102C371.557 54.3273 372.155 54.44 372.814 54.44C373.472 54.44 374.062 54.3273 374.582 54.102C375.119 53.8593 375.578 53.5387 375.96 53.14C376.341 52.724 376.627 52.2473 376.818 51.71C377.026 51.1553 377.13 50.5573 377.13 49.916C377.13 49.2747 377.026 48.6853 376.818 48.148C376.627 47.5933 376.341 47.1167 375.96 46.718C375.578 46.302 375.119 45.9813 374.582 45.756C374.062 45.5133 373.472 45.392 372.814 45.392C372.155 45.392 371.557 45.5133 371.02 45.756C370.5 45.9813 370.049 46.302 369.668 46.718C369.286 47.1167 368.992 47.5933 368.784 48.148C368.593 48.6853 368.498 49.2747 368.498 49.916ZM389.69 46.718C389.69 46.1633 389.672 45.6433 389.638 45.158C389.603 44.6727 389.586 44.2307 389.586 43.832H391.51C391.51 44.1613 391.518 44.4907 391.536 44.82C391.553 45.1493 391.562 45.4873 391.562 45.834H391.614C391.752 45.5393 391.943 45.2533 392.186 44.976C392.446 44.6987 392.749 44.456 393.096 44.248C393.442 44.0227 393.832 43.8493 394.266 43.728C394.699 43.5893 395.167 43.52 395.67 43.52C395.808 43.52 395.947 43.5287 396.086 43.546C396.224 43.5633 396.363 43.598 396.502 43.65L396.372 45.704C396.025 45.6 395.661 45.548 395.28 45.548C394.032 45.548 393.122 45.9553 392.55 46.77C391.995 47.5673 391.718 48.668 391.718 50.072V56H389.69V46.718ZM399.012 43.832H401.04V56H399.012V43.832ZM398.544 39.074C398.544 38.6753 398.683 38.3287 398.96 38.034C399.255 37.7393 399.61 37.592 400.026 37.592C400.442 37.592 400.789 37.7393 401.066 38.034C401.361 38.3287 401.508 38.6753 401.508 39.074C401.508 39.5073 401.37 39.8627 401.092 40.14C400.815 40.4173 400.46 40.556 400.026 40.556C399.593 40.556 399.238 40.4173 398.96 40.14C398.683 39.8627 398.544 39.5073 398.544 39.074ZM405.336 52.802C405.735 53.3047 406.168 53.7033 406.636 53.998C407.122 54.2927 407.728 54.44 408.456 54.44C408.768 54.44 409.08 54.4053 409.392 54.336C409.722 54.2667 410.016 54.154 410.276 53.998C410.536 53.842 410.744 53.6513 410.9 53.426C411.056 53.1833 411.134 52.8973 411.134 52.568C411.134 52.2387 411.056 51.97 410.9 51.762C410.762 51.554 410.571 51.3807 410.328 51.242C410.086 51.086 409.808 50.9647 409.496 50.878C409.184 50.7913 408.864 50.7133 408.534 50.644C407.962 50.5227 407.416 50.384 406.896 50.228C406.376 50.072 405.917 49.8727 405.518 49.63C405.137 49.37 404.825 49.0407 404.582 48.642C404.357 48.2433 404.244 47.732 404.244 47.108C404.244 46.5187 404.374 45.9987 404.634 45.548C404.894 45.0973 405.241 44.7247 405.674 44.43C406.108 44.1353 406.593 43.91 407.13 43.754C407.668 43.598 408.222 43.52 408.794 43.52C409.661 43.52 410.458 43.6933 411.186 44.04C411.932 44.3867 412.512 44.95 412.928 45.73L411.238 46.848C410.978 46.4147 410.632 46.068 410.198 45.808C409.782 45.5307 409.271 45.392 408.664 45.392C408.387 45.392 408.101 45.4267 407.806 45.496C407.529 45.5653 407.278 45.6693 407.052 45.808C406.827 45.9467 406.636 46.1287 406.48 46.354C406.342 46.562 406.272 46.8047 406.272 47.082C406.272 47.342 406.35 47.5673 406.506 47.758C406.68 47.9313 406.905 48.0873 407.182 48.226C407.477 48.3647 407.806 48.486 408.17 48.59C408.552 48.694 408.942 48.7807 409.34 48.85C409.878 48.954 410.389 49.0927 410.874 49.266C411.36 49.422 411.784 49.6387 412.148 49.916C412.512 50.1933 412.798 50.54 413.006 50.956C413.214 51.372 413.318 51.8833 413.318 52.49C413.318 53.1833 413.18 53.7727 412.902 54.258C412.625 54.7433 412.252 55.142 411.784 55.454C411.334 55.7487 410.814 55.9653 410.224 56.104C409.652 56.2427 409.063 56.312 408.456 56.312C407.416 56.312 406.515 56.156 405.752 55.844C405.007 55.5147 404.331 54.9167 403.724 54.05L405.336 52.802ZM426.755 53.114C426.755 53.6687 426.772 54.1887 426.807 54.674C426.841 55.1593 426.859 55.6013 426.859 56H424.935C424.935 55.6707 424.926 55.3413 424.909 55.012C424.891 54.6827 424.883 54.3447 424.883 53.998H424.831C424.692 54.2927 424.493 54.5787 424.233 54.856C423.99 55.1333 423.695 55.3847 423.349 55.61C423.002 55.818 422.612 55.9827 422.179 56.104C421.745 56.2427 421.277 56.312 420.775 56.312C419.977 56.312 419.284 56.1907 418.695 55.948C418.123 55.7053 417.646 55.3673 417.265 54.934C416.883 54.5007 416.597 53.9807 416.407 53.374C416.233 52.75 416.147 52.074 416.147 51.346V43.832H418.175V51.138C418.175 52.1607 418.4 52.9667 418.851 53.556C419.301 54.1453 420.003 54.44 420.957 54.44C421.615 54.44 422.179 54.3273 422.647 54.102C423.132 53.8767 423.522 53.556 423.817 53.14C424.129 52.724 424.354 52.23 424.493 51.658C424.649 51.086 424.727 50.4533 424.727 49.76V43.832H426.755V53.114ZM430.854 52.802C431.253 53.3047 431.686 53.7033 432.154 53.998C432.639 54.2927 433.246 54.44 433.974 54.44C434.286 54.44 434.598 54.4053 434.91 54.336C435.239 54.2667 435.534 54.154 435.794 53.998C436.054 53.842 436.262 53.6513 436.418 53.426C436.574 53.1833 436.652 52.8973 436.652 52.568C436.652 52.2387 436.574 51.97 436.418 51.762C436.279 51.554 436.089 51.3807 435.846 51.242C435.603 51.086 435.326 50.9647 435.014 50.878C434.702 50.7913 434.381 50.7133 434.052 50.644C433.48 50.5227 432.934 50.384 432.414 50.228C431.894 50.072 431.435 49.8727 431.036 49.63C430.655 49.37 430.343 49.0407 430.1 48.642C429.875 48.2433 429.762 47.732 429.762 47.108C429.762 46.5187 429.892 45.9987 430.152 45.548C430.412 45.0973 430.759 44.7247 431.192 44.43C431.625 44.1353 432.111 43.91 432.648 43.754C433.185 43.598 433.74 43.52 434.312 43.52C435.179 43.52 435.976 43.6933 436.704 44.04C437.449 44.3867 438.03 44.95 438.446 45.73L436.756 46.848C436.496 46.4147 436.149 46.068 435.716 45.808C435.3 45.5307 434.789 45.392 434.182 45.392C433.905 45.392 433.619 45.4267 433.324 45.496C433.047 45.5653 432.795 45.6693 432.57 45.808C432.345 45.9467 432.154 46.1287 431.998 46.354C431.859 46.562 431.79 46.8047 431.79 47.082C431.79 47.342 431.868 47.5673 432.024 47.758C432.197 47.9313 432.423 48.0873 432.7 48.226C432.995 48.3647 433.324 48.486 433.688 48.59C434.069 48.694 434.459 48.7807 434.858 48.85C435.395 48.954 435.907 49.0927 436.392 49.266C436.877 49.422 437.302 49.6387 437.666 49.916C438.03 50.1933 438.316 50.54 438.524 50.956C438.732 51.372 438.836 51.8833 438.836 52.49C438.836 53.1833 438.697 53.7727 438.42 54.258C438.143 54.7433 437.77 55.142 437.302 55.454C436.851 55.7487 436.331 55.9653 435.742 56.104C435.17 56.2427 434.581 56.312 433.974 56.312C432.934 56.312 432.033 56.156 431.27 55.844C430.525 55.5147 429.849 54.9167 429.242 54.05L430.854 52.802ZM2.184 88.802C2.58267 89.3047 3.016 89.7033 3.484 89.998C3.96933 90.2927 4.576 90.44 5.304 90.44C5.616 90.44 5.928 90.4053 6.24 90.336C6.56933 90.2667 6.864 90.154 7.124 89.998C7.384 89.842 7.592 89.6513 7.748 89.426C7.904 89.1833 7.982 88.8973 7.982 88.568C7.982 88.2387 7.904 87.97 7.748 87.762C7.60933 87.554 7.41867 87.3807 7.176 87.242C6.93333 87.086 6.656 86.9647 6.344 86.878C6.032 86.7913 5.71133 86.7133 5.382 86.644C4.81 86.5227 4.264 86.384 3.744 86.228C3.224 86.072 2.76467 85.8727 2.366 85.63C1.98467 85.37 1.67267 85.0407 1.43 84.642C1.20467 84.2433 1.092 83.732 1.092 83.108C1.092 82.5187 1.222 81.9987 1.482 81.548C1.742 81.0973 2.08867 80.7247 2.522 80.43C2.95533 80.1353 3.44067 79.91 3.978 79.754C4.51533 79.598 5.07 79.52 5.642 79.52C6.50867 79.52 7.306 79.6933 8.034 80.04C8.77933 80.3867 9.36 80.95 9.776 81.73L8.086 82.848C7.826 82.4147 7.47933 82.068 7.046 81.808C6.63 81.5307 6.11867 81.392 5.512 81.392C5.23467 81.392 4.94867 81.4267 4.654 81.496C4.37667 81.5653 4.12533 81.6693 3.9 81.808C3.67467 81.9467 3.484 82.1287 3.328 82.354C3.18933 82.562 3.12 82.8047 3.12 83.082C3.12 83.342 3.198 83.5673 3.354 83.758C3.52733 83.9313 3.75267 84.0873 4.03 84.226C4.32467 84.3647 4.654 84.486 5.018 84.59C5.39933 84.694 5.78933 84.7807 6.188 84.85C6.72533 84.954 7.23667 85.0927 7.722 85.266C8.20733 85.422 8.632 85.6387 8.996 85.916C9.36 86.1933 9.646 86.54 9.854 86.956C10.062 87.372 10.166 87.8833 10.166 88.49C10.166 89.1833 10.0273 89.7727 9.75 90.258C9.47267 90.7433 9.1 91.142 8.632 91.454C8.18133 91.7487 7.66133 91.9653 7.072 92.104C6.5 92.2427 5.91067 92.312 5.304 92.312C4.264 92.312 3.36267 92.156 2.6 91.844C1.85467 91.5147 1.17867 90.9167 0.572 90.05L2.184 88.802ZM23.8623 89.79C23.1343 90.726 22.337 91.3847 21.4703 91.766C20.6036 92.13 19.5983 92.312 18.4543 92.312C17.501 92.312 16.643 92.1473 15.8803 91.818C15.1176 91.4713 14.4676 91.012 13.9303 90.44C13.4103 89.868 13.003 89.192 12.7083 88.412C12.431 87.632 12.2923 86.8 12.2923 85.916C12.2923 84.98 12.4483 84.122 12.7603 83.342C13.0723 82.5447 13.5056 81.8687 14.0603 81.314C14.615 80.742 15.2736 80.3 16.0363 79.988C16.799 79.676 17.631 79.52 18.5323 79.52C19.3816 79.52 20.1616 79.6673 20.8723 79.962C21.583 80.2393 22.1896 80.6553 22.6923 81.21C23.2123 81.7473 23.611 82.4147 23.8883 83.212C24.1656 83.992 24.3043 84.8847 24.3043 85.89V86.54H14.4763C14.511 87.06 14.6323 87.5627 14.8403 88.048C15.0656 88.516 15.3516 88.932 15.6983 89.296C16.045 89.6427 16.4523 89.92 16.9203 90.128C17.3883 90.336 17.8996 90.44 18.4543 90.44C19.3383 90.44 20.0836 90.284 20.6903 89.972C21.297 89.66 21.843 89.2007 22.3283 88.594L23.8623 89.79ZM22.1203 84.824C22.0856 83.784 21.7476 82.952 21.1063 82.328C20.465 81.704 19.581 81.392 18.4543 81.392C17.3276 81.392 16.4176 81.704 15.7243 82.328C15.031 82.952 14.615 83.784 14.4763 84.824H22.1203ZM27.4416 82.718C27.4416 82.1633 27.4242 81.6433 27.3896 81.158C27.3549 80.6727 27.3376 80.2307 27.3376 79.832H29.2616C29.2616 80.1613 29.2702 80.4907 29.2876 80.82C29.3049 81.1493 29.3136 81.4873 29.3136 81.834H29.3656C29.5042 81.5393 29.6949 81.2533 29.9376 80.976C30.1976 80.6987 30.5009 80.456 30.8476 80.248C31.1942 80.0227 31.5842 79.8493 32.0176 79.728C32.4509 79.5893 32.9189 79.52 33.4216 79.52C34.0802 79.52 34.6262 79.6067 35.0596 79.78C35.5102 79.936 35.8829 80.1353 36.1776 80.378C36.4722 80.6033 36.6976 80.8547 36.8536 81.132C37.0269 81.392 37.1656 81.626 37.2696 81.834C37.7202 81.106 38.2402 80.5427 38.8296 80.144C39.4189 79.728 40.1816 79.52 41.1176 79.52C41.9842 79.52 42.7122 79.6413 43.3016 79.884C43.8909 80.1093 44.3676 80.4473 44.7316 80.898C45.0956 81.3313 45.3556 81.8687 45.5116 82.51C45.6676 83.134 45.7456 83.836 45.7456 84.616V92H43.7176V84.72C43.7176 84.304 43.6742 83.8967 43.5876 83.498C43.5009 83.0993 43.3449 82.744 43.1196 82.432C42.8942 82.12 42.5909 81.8687 42.2096 81.678C41.8282 81.4873 41.3429 81.392 40.7536 81.392C40.3202 81.392 39.9129 81.4787 39.5316 81.652C39.1502 81.8253 38.8122 82.068 38.5176 82.38C38.2402 82.692 38.0149 83.0733 37.8416 83.524C37.6856 83.9573 37.6076 84.4427 37.6076 84.98V92H35.5796V85.11C35.5796 83.758 35.3976 82.8047 35.0336 82.25C34.6696 81.678 34.0716 81.392 33.2396 81.392C32.5809 81.392 32.0089 81.5047 31.5236 81.73C31.0556 81.9553 30.6656 82.276 30.3536 82.692C30.0589 83.108 29.8336 83.602 29.6776 84.174C29.5389 84.746 29.4696 85.3787 29.4696 86.072V92H27.4416V82.718ZM49.4782 79.832H51.5062V81.6H51.5582C52.1129 80.9413 52.7542 80.43 53.4822 80.066C54.2275 79.702 55.0422 79.52 55.9262 79.52C56.8795 79.52 57.7462 79.6847 58.5262 80.014C59.3235 80.326 59.9995 80.768 60.5542 81.34C61.1089 81.912 61.5422 82.588 61.8542 83.368C62.1662 84.148 62.3222 84.9973 62.3222 85.916C62.3222 86.8347 62.1662 87.684 61.8542 88.464C61.5422 89.244 61.1089 89.92 60.5542 90.492C60.0169 91.064 59.3755 91.5147 58.6302 91.844C57.8849 92.156 57.0875 92.312 56.2382 92.312C55.1462 92.312 54.1842 92.078 53.3522 91.61C52.5375 91.1247 51.9395 90.5353 51.5582 89.842H51.5062V97.928H49.4782V79.832ZM51.5062 85.916C51.5062 86.5573 51.6015 87.1553 51.7922 87.71C52.0002 88.2473 52.2949 88.724 52.6762 89.14C53.0575 89.5387 53.5082 89.8593 54.0282 90.102C54.5655 90.3273 55.1635 90.44 55.8222 90.44C56.4809 90.44 57.0702 90.3273 57.5902 90.102C58.1275 89.8593 58.5869 89.5387 58.9682 89.14C59.3495 88.724 59.6355 88.2473 59.8262 87.71C60.0342 87.1553 60.1382 86.5573 60.1382 85.916C60.1382 85.2747 60.0342 84.6853 59.8262 84.148C59.6355 83.5933 59.3495 83.1167 58.9682 82.718C58.5869 82.302 58.1275 81.9813 57.5902 81.756C57.0702 81.5133 56.4809 81.392 55.8222 81.392C55.1635 81.392 54.5655 81.5133 54.0282 81.756C53.5082 81.9813 53.0575 82.302 52.6762 82.718C52.2949 83.1167 52.0002 83.5933 51.7922 84.148C51.6015 84.6853 51.5062 85.2747 51.5062 85.916ZM76.3447 89.79C75.6167 90.726 74.8194 91.3847 73.9527 91.766C73.0861 92.13 72.0807 92.312 70.9367 92.312C69.9834 92.312 69.1254 92.1473 68.3627 91.818C67.6001 91.4713 66.9501 91.012 66.4127 90.44C65.8927 89.868 65.4854 89.192 65.1907 88.412C64.9134 87.632 64.7747 86.8 64.7747 85.916C64.7747 84.98 64.9307 84.122 65.2427 83.342C65.5547 82.5447 65.9881 81.8687 66.5427 81.314C67.0974 80.742 67.7561 80.3 68.5187 79.988C69.2814 79.676 70.1134 79.52 71.0147 79.52C71.8641 79.52 72.6441 79.6673 73.3547 79.962C74.0654 80.2393 74.6721 80.6553 75.1747 81.21C75.6947 81.7473 76.0934 82.4147 76.3707 83.212C76.6481 83.992 76.7867 84.8847 76.7867 85.89V86.54H66.9587C66.9934 87.06 67.1147 87.5627 67.3227 88.048C67.5481 88.516 67.8341 88.932 68.1807 89.296C68.5274 89.6427 68.9347 89.92 69.4027 90.128C69.8707 90.336 70.3821 90.44 70.9367 90.44C71.8207 90.44 72.5661 90.284 73.1727 89.972C73.7794 89.66 74.3254 89.2007 74.8107 88.594L76.3447 89.79ZM74.6027 84.824C74.5681 83.784 74.2301 82.952 73.5887 82.328C72.9474 81.704 72.0634 81.392 70.9367 81.392C69.8101 81.392 68.9001 81.704 68.2067 82.328C67.5134 82.952 67.0974 83.784 66.9587 84.824H74.6027ZM79.924 82.718C79.924 82.1633 79.9067 81.6433 79.872 81.158C79.8373 80.6727 79.82 80.2307 79.82 79.832H81.744C81.744 80.1613 81.7527 80.4907 81.77 80.82C81.7873 81.1493 81.796 81.4873 81.796 81.834H81.848C81.9867 81.5393 82.1773 81.2533 82.42 80.976C82.68 80.6987 82.9833 80.456 83.33 80.248C83.6767 80.0227 84.0667 79.8493 84.5 79.728C84.9333 79.5893 85.4013 79.52 85.904 79.52C86.0427 79.52 86.1813 79.5287 86.32 79.546C86.4587 79.5633 86.5973 79.598 86.736 79.65L86.606 81.704C86.2593 81.6 85.8953 81.548 85.514 81.548C84.266 81.548 83.356 81.9553 82.784 82.77C82.2293 83.5673 81.952 84.668 81.952 86.072V92H79.924V82.718ZM96.301 72.344H98.329V81.522H98.381C98.5196 81.2793 98.7103 81.0453 98.953 80.82C99.1956 80.5773 99.4816 80.3607 99.811 80.17C100.158 79.9793 100.539 79.8233 100.955 79.702C101.371 79.5807 101.813 79.52 102.281 79.52C103.078 79.52 103.763 79.6413 104.335 79.884C104.924 80.1267 105.41 80.4647 105.791 80.898C106.172 81.3313 106.45 81.86 106.623 82.484C106.814 83.0907 106.909 83.758 106.909 84.486V92H104.881V84.694C104.881 83.6713 104.656 82.8653 104.205 82.276C103.754 81.6867 103.052 81.392 102.099 81.392C101.44 81.392 100.868 81.5047 100.383 81.73C99.915 81.9553 99.525 82.276 99.213 82.692C98.9183 83.108 98.693 83.602 98.537 84.174C98.3983 84.746 98.329 85.3787 98.329 86.072V92H96.301V72.344ZM110.592 81.392C111.216 80.7507 111.953 80.2827 112.802 79.988C113.669 79.676 114.544 79.52 115.428 79.52C117.231 79.52 118.531 79.9447 119.328 80.794C120.126 81.6433 120.524 82.9347 120.524 84.668V89.894C120.524 90.2407 120.542 90.6047 120.576 90.986C120.611 91.35 120.654 91.688 120.706 92H118.756C118.687 91.7227 118.644 91.4193 118.626 91.09C118.626 90.7433 118.626 90.44 118.626 90.18H118.574C118.176 90.804 117.638 91.3153 116.962 91.714C116.304 92.1127 115.506 92.312 114.57 92.312C113.946 92.312 113.357 92.234 112.802 92.078C112.265 91.922 111.788 91.6967 111.372 91.402C110.974 91.09 110.653 90.7087 110.41 90.258C110.168 89.8073 110.046 89.2873 110.046 88.698C110.046 87.6927 110.306 86.904 110.826 86.332C111.346 85.76 111.988 85.3353 112.75 85.058C113.53 84.7807 114.362 84.6073 115.246 84.538C116.148 84.4687 116.971 84.434 117.716 84.434H118.496V84.07C118.496 83.186 118.228 82.5187 117.69 82.068C117.17 81.6173 116.434 81.392 115.48 81.392C114.822 81.392 114.172 81.5047 113.53 81.73C112.906 81.938 112.352 82.2673 111.866 82.718L110.592 81.392ZM116.468 86.15C115.168 86.15 114.137 86.332 113.374 86.696C112.612 87.06 112.23 87.658 112.23 88.49C112.23 89.2527 112.482 89.7987 112.984 90.128C113.504 90.44 114.146 90.596 114.908 90.596C115.498 90.596 116.009 90.5007 116.442 90.31C116.893 90.102 117.266 89.8333 117.56 89.504C117.855 89.1747 118.08 88.7933 118.236 88.36C118.392 87.9093 118.479 87.4327 118.496 86.93V86.15H116.468ZM124.127 72.344H126.155V81.6H126.207C126.761 80.9413 127.403 80.43 128.131 80.066C128.876 79.702 129.691 79.52 130.575 79.52C131.528 79.52 132.395 79.6847 133.175 80.014C133.972 80.326 134.648 80.768 135.203 81.34C135.757 81.912 136.191 82.588 136.503 83.368C136.815 84.148 136.971 84.9973 136.971 85.916C136.971 86.8347 136.815 87.684 136.503 88.464C136.191 89.244 135.757 89.92 135.203 90.492C134.665 91.064 134.024 91.5147 133.279 91.844C132.533 92.156 131.736 92.312 130.887 92.312C129.795 92.312 128.833 92.078 128.001 91.61C127.186 91.1247 126.588 90.5353 126.207 89.842H126.155V92H124.127V72.344ZM126.155 85.916C126.155 86.5573 126.25 87.1553 126.441 87.71C126.649 88.2473 126.943 88.724 127.325 89.14C127.706 89.5387 128.157 89.8593 128.677 90.102C129.214 90.3273 129.812 90.44 130.471 90.44C131.129 90.44 131.719 90.3273 132.239 90.102C132.776 89.8593 133.235 89.5387 133.617 89.14C133.998 88.724 134.284 88.2473 134.475 87.71C134.683 87.1553 134.787 86.5573 134.787 85.916C134.787 85.2747 134.683 84.6853 134.475 84.148C134.284 83.5933 133.998 83.1167 133.617 82.718C133.235 82.302 132.776 81.9813 132.239 81.756C131.719 81.5133 131.129 81.392 130.471 81.392C129.812 81.392 129.214 81.5133 128.677 81.756C128.157 81.9813 127.706 82.302 127.325 82.718C126.943 83.1167 126.649 83.5933 126.441 84.148C126.25 84.6853 126.155 85.2747 126.155 85.916ZM140.307 79.832H142.335V92H140.307V79.832ZM139.839 75.074C139.839 74.6753 139.978 74.3287 140.255 74.034C140.55 73.7393 140.905 73.592 141.321 73.592C141.737 73.592 142.084 73.7393 142.361 74.034C142.656 74.3287 142.803 74.6753 142.803 75.074C142.803 75.5073 142.665 75.8627 142.387 76.14C142.11 76.4173 141.755 76.556 141.321 76.556C140.888 76.556 140.533 76.4173 140.255 76.14C139.978 75.8627 139.839 75.5073 139.839 75.074ZM153.027 81.548H149.439V87.632C149.439 88.0307 149.448 88.4033 149.465 88.75C149.483 89.0793 149.552 89.374 149.673 89.634C149.795 89.8767 149.977 90.076 150.219 90.232C150.462 90.3707 150.809 90.44 151.259 90.44C151.554 90.44 151.857 90.4053 152.169 90.336C152.481 90.2667 152.776 90.1627 153.053 90.024L153.131 91.87C152.785 92.026 152.395 92.1387 151.961 92.208C151.545 92.2773 151.147 92.312 150.765 92.312C150.037 92.312 149.457 92.2167 149.023 92.026C148.59 91.8353 148.252 91.5667 148.009 91.22C147.767 90.8733 147.602 90.4487 147.515 89.946C147.446 89.426 147.411 88.854 147.411 88.23V81.548H144.759V79.832H147.411V76.374H149.439V79.832H153.027V81.548ZM155.356 81.392C155.98 80.7507 156.717 80.2827 157.566 79.988C158.433 79.676 159.308 79.52 160.192 79.52C161.995 79.52 163.295 79.9447 164.092 80.794C164.889 81.6433 165.288 82.9347 165.288 84.668V89.894C165.288 90.2407 165.305 90.6047 165.34 90.986C165.375 91.35 165.418 91.688 165.47 92H163.52C163.451 91.7227 163.407 91.4193 163.39 91.09C163.39 90.7433 163.39 90.44 163.39 90.18H163.338C162.939 90.804 162.402 91.3153 161.726 91.714C161.067 92.1127 160.27 92.312 159.334 92.312C158.71 92.312 158.121 92.234 157.566 92.078C157.029 91.922 156.552 91.6967 156.136 91.402C155.737 91.09 155.417 90.7087 155.174 90.258C154.931 89.8073 154.81 89.2873 154.81 88.698C154.81 87.6927 155.07 86.904 155.59 86.332C156.11 85.76 156.751 85.3353 157.514 85.058C158.294 84.7807 159.126 84.6073 160.01 84.538C160.911 84.4687 161.735 84.434 162.48 84.434H163.26V84.07C163.26 83.186 162.991 82.5187 162.454 82.068C161.934 81.6173 161.197 81.392 160.244 81.392C159.585 81.392 158.935 81.5047 158.294 81.73C157.67 81.938 157.115 82.2673 156.63 82.718L155.356 81.392ZM161.232 86.15C159.932 86.15 158.901 86.332 158.138 86.696C157.375 87.06 156.994 87.658 156.994 88.49C156.994 89.2527 157.245 89.7987 157.748 90.128C158.268 90.44 158.909 90.596 159.672 90.596C160.261 90.596 160.773 90.5007 161.206 90.31C161.657 90.102 162.029 89.8333 162.324 89.504C162.619 89.1747 162.844 88.7933 163 88.36C163.156 87.9093 163.243 87.4327 163.26 86.93V86.15H161.232ZM168.994 82.718C168.994 82.1633 168.977 81.6433 168.942 81.158C168.908 80.6727 168.89 80.2307 168.89 79.832H170.814C170.814 80.1613 170.823 80.4907 170.84 80.82C170.858 81.1493 170.866 81.4873 170.866 81.834H170.918C171.057 81.5393 171.248 81.2533 171.49 80.976C171.75 80.6987 172.054 80.456 172.4 80.248C172.747 80.0227 173.137 79.8493 173.57 79.728C174.004 79.5893 174.472 79.52 174.974 79.52C175.772 79.52 176.456 79.6413 177.028 79.884C177.618 80.1267 178.103 80.4647 178.484 80.898C178.866 81.3313 179.143 81.86 179.316 82.484C179.507 83.0907 179.602 83.758 179.602 84.486V92H177.574V84.694C177.574 83.6713 177.349 82.8653 176.898 82.276C176.448 81.6867 175.746 81.392 174.792 81.392C174.134 81.392 173.562 81.5047 173.076 81.73C172.608 81.9553 172.218 82.276 171.906 82.692C171.612 83.108 171.386 83.602 171.23 84.174C171.092 84.746 171.022 85.3787 171.022 86.072V92H168.994V82.718ZM190.098 81.548H186.51V87.632C186.51 88.0307 186.518 88.4033 186.536 88.75C186.553 89.0793 186.622 89.374 186.744 89.634C186.865 89.8767 187.047 90.076 187.29 90.232C187.532 90.3707 187.879 90.44 188.33 90.44C188.624 90.44 188.928 90.4053 189.24 90.336C189.552 90.2667 189.846 90.1627 190.124 90.024L190.202 91.87C189.855 92.026 189.465 92.1387 189.032 92.208C188.616 92.2773 188.217 92.312 187.836 92.312C187.108 92.312 186.527 92.2167 186.094 92.026C185.66 91.8353 185.322 91.5667 185.08 91.22C184.837 90.8733 184.672 90.4487 184.586 89.946C184.516 89.426 184.482 88.854 184.482 88.23V81.548H181.83V79.832H184.482V76.374H186.51V79.832H190.098V81.548ZM199.663 81.392C200.287 80.7507 201.023 80.2827 201.873 79.988C202.739 79.676 203.615 79.52 204.499 79.52C206.301 79.52 207.601 79.9447 208.399 80.794C209.196 81.6433 209.595 82.9347 209.595 84.668V89.894C209.595 90.2407 209.612 90.6047 209.647 90.986C209.681 91.35 209.725 91.688 209.777 92H207.827C207.757 91.7227 207.714 91.4193 207.697 91.09C207.697 90.7433 207.697 90.44 207.697 90.18H207.645C207.246 90.804 206.709 91.3153 206.033 91.714C205.374 92.1127 204.577 92.312 203.641 92.312C203.017 92.312 202.427 92.234 201.873 92.078C201.335 91.922 200.859 91.6967 200.443 91.402C200.044 91.09 199.723 90.7087 199.481 90.258C199.238 89.8073 199.117 89.2873 199.117 88.698C199.117 87.6927 199.377 86.904 199.897 86.332C200.417 85.76 201.058 85.3353 201.821 85.058C202.601 84.7807 203.433 84.6073 204.317 84.538C205.218 84.4687 206.041 84.434 206.787 84.434H207.567V84.07C207.567 83.186 207.298 82.5187 206.761 82.068C206.241 81.6173 205.504 81.392 204.551 81.392C203.892 81.392 203.242 81.5047 202.601 81.73C201.977 81.938 201.422 82.2673 200.937 82.718L199.663 81.392ZM205.539 86.15C204.239 86.15 203.207 86.332 202.445 86.696C201.682 87.06 201.301 87.658 201.301 88.49C201.301 89.2527 201.552 89.7987 202.055 90.128C202.575 90.44 203.216 90.596 203.979 90.596C204.568 90.596 205.079 90.5007 205.513 90.31C205.963 90.102 206.336 89.8333 206.631 89.504C206.925 89.1747 207.151 88.7933 207.307 88.36C207.463 87.9093 207.549 87.4327 207.567 86.93V86.15H205.539ZM213.301 82.718C213.301 82.1633 213.284 81.6433 213.249 81.158C213.214 80.6727 213.197 80.2307 213.197 79.832H215.121C215.121 80.1613 215.13 80.4907 215.147 80.82C215.164 81.1493 215.173 81.4873 215.173 81.834H215.225C215.364 81.5393 215.554 81.2533 215.797 80.976C216.057 80.6987 216.36 80.456 216.707 80.248C217.054 80.0227 217.444 79.8493 217.877 79.728C218.31 79.5893 218.778 79.52 219.281 79.52C219.42 79.52 219.558 79.5287 219.697 79.546C219.836 79.5633 219.974 79.598 220.113 79.65L219.983 81.704C219.636 81.6 219.272 81.548 218.891 81.548C217.643 81.548 216.733 81.9553 216.161 82.77C215.606 83.5673 215.329 84.668 215.329 86.072V92H213.301V82.718ZM230.643 82.874C230.209 82.354 229.741 81.9813 229.239 81.756C228.736 81.5133 228.181 81.392 227.575 81.392C226.899 81.392 226.301 81.5133 225.781 81.756C225.261 81.9813 224.827 82.302 224.481 82.718C224.151 83.134 223.9 83.6193 223.727 84.174C223.553 84.7113 223.467 85.292 223.467 85.916C223.467 86.54 223.562 87.1293 223.753 87.684C223.961 88.2213 224.238 88.698 224.585 89.114C224.949 89.53 225.382 89.8593 225.885 90.102C226.387 90.3273 226.951 90.44 227.575 90.44C228.909 90.44 229.941 89.9373 230.669 88.932L232.177 90.362C231.587 91.038 230.894 91.532 230.097 91.844C229.299 92.156 228.459 92.312 227.575 92.312C226.639 92.312 225.781 92.156 225.001 91.844C224.221 91.532 223.553 91.09 222.999 90.518C222.461 89.946 222.037 89.27 221.725 88.49C221.43 87.71 221.283 86.852 221.283 85.916C221.283 84.9973 221.43 84.148 221.725 83.368C222.037 82.588 222.47 81.912 223.025 81.34C223.579 80.768 224.238 80.326 225.001 80.014C225.781 79.6847 226.639 79.52 227.575 79.52C228.476 79.52 229.325 79.676 230.123 79.988C230.937 80.3 231.648 80.7853 232.255 81.444L230.643 82.874ZM245.136 89.114C245.136 89.6687 245.153 90.1887 245.188 90.674C245.222 91.1593 245.24 91.6013 245.24 92H243.316C243.316 91.6707 243.307 91.3413 243.29 91.012C243.272 90.6827 243.264 90.3447 243.264 89.998H243.212C243.073 90.2927 242.874 90.5787 242.614 90.856C242.371 91.1333 242.076 91.3847 241.73 91.61C241.383 91.818 240.993 91.9827 240.56 92.104C240.126 92.2427 239.658 92.312 239.156 92.312C238.358 92.312 237.665 92.1907 237.076 91.948C236.504 91.7053 236.027 91.3673 235.646 90.934C235.264 90.5007 234.978 89.9807 234.788 89.374C234.614 88.75 234.528 88.074 234.528 87.346V79.832H236.556V87.138C236.556 88.1607 236.781 88.9667 237.232 89.556C237.682 90.1453 238.384 90.44 239.338 90.44C239.996 90.44 240.56 90.3273 241.028 90.102C241.513 89.8767 241.903 89.556 242.198 89.14C242.51 88.724 242.735 88.23 242.874 87.658C243.03 87.086 243.108 86.4533 243.108 85.76V79.832H245.136V89.114ZM267.079 89.79C266.351 90.726 265.554 91.3847 264.687 91.766C263.82 92.13 262.815 92.312 261.671 92.312C260.718 92.312 259.86 92.1473 259.097 91.818C258.334 91.4713 257.684 91.012 257.147 90.44C256.627 89.868 256.22 89.192 255.925 88.412C255.648 87.632 255.509 86.8 255.509 85.916C255.509 84.98 255.665 84.122 255.977 83.342C256.289 82.5447 256.722 81.8687 257.277 81.314C257.832 80.742 258.49 80.3 259.253 79.988C260.016 79.676 260.848 79.52 261.749 79.52C262.598 79.52 263.378 79.6673 264.089 79.962C264.8 80.2393 265.406 80.6553 265.909 81.21C266.429 81.7473 266.828 82.4147 267.105 83.212C267.382 83.992 267.521 84.8847 267.521 85.89V86.54H257.693C257.728 87.06 257.849 87.5627 258.057 88.048C258.282 88.516 258.568 88.932 258.915 89.296C259.262 89.6427 259.669 89.92 260.137 90.128C260.605 90.336 261.116 90.44 261.671 90.44C262.555 90.44 263.3 90.284 263.907 89.972C264.514 89.66 265.06 89.2007 265.545 88.594L267.079 89.79ZM265.337 84.824C265.302 83.784 264.964 82.952 264.323 82.328C263.682 81.704 262.798 81.392 261.671 81.392C260.544 81.392 259.634 81.704 258.941 82.328C258.248 82.952 257.832 83.784 257.693 84.824H265.337ZM282.8 91.454C282.8 93.6727 282.228 95.354 281.084 96.498C279.958 97.6593 278.32 98.24 276.17 98.24C274.974 98.24 273.891 98.0667 272.92 97.72C271.967 97.3733 271.057 96.7753 270.19 95.926L271.646 94.262C272.288 94.9553 272.964 95.4753 273.674 95.822C274.402 96.186 275.234 96.368 276.17 96.368C277.072 96.368 277.817 96.2293 278.406 95.952C279.013 95.692 279.49 95.328 279.836 94.86C280.183 94.4093 280.426 93.8893 280.564 93.3C280.703 92.7107 280.772 92.0953 280.772 91.454V89.894H280.72C280.235 90.674 279.602 91.246 278.822 91.61C278.042 91.974 277.245 92.156 276.43 92.156C275.477 92.156 274.602 92 273.804 91.688C273.007 91.376 272.322 90.9427 271.75 90.388C271.178 89.8333 270.736 89.1747 270.424 88.412C270.112 87.6493 269.956 86.8173 269.956 85.916C269.956 84.928 270.112 84.0353 270.424 83.238C270.736 82.4407 271.17 81.7733 271.724 81.236C272.296 80.6813 272.981 80.2567 273.778 79.962C274.576 79.6673 275.46 79.52 276.43 79.52C276.846 79.52 277.262 79.572 277.678 79.676C278.094 79.7627 278.493 79.91 278.874 80.118C279.273 80.3087 279.628 80.56 279.94 80.872C280.252 81.1667 280.512 81.5133 280.72 81.912H280.772V79.832H282.8V91.454ZM272.14 85.916C272.14 86.54 272.253 87.1207 272.478 87.658C272.704 88.178 273.007 88.6373 273.388 89.036C273.787 89.4173 274.246 89.7207 274.766 89.946C275.286 90.1713 275.841 90.284 276.43 90.284C277.124 90.284 277.739 90.1627 278.276 89.92C278.814 89.6773 279.264 89.3567 279.628 88.958C280.01 88.542 280.296 88.074 280.486 87.554C280.677 87.0167 280.772 86.4533 280.772 85.864C280.772 85.2053 280.668 84.6073 280.46 84.07C280.252 83.5153 279.958 83.0387 279.576 82.64C279.195 82.2413 278.736 81.938 278.198 81.73C277.661 81.5047 277.072 81.392 276.43 81.392C275.789 81.392 275.2 81.5133 274.662 81.756C274.142 81.9813 273.692 82.302 273.31 82.718C272.946 83.1167 272.66 83.5933 272.452 84.148C272.244 84.6853 272.14 85.2747 272.14 85.916ZM297.421 89.79C296.693 90.726 295.896 91.3847 295.029 91.766C294.162 92.13 293.157 92.312 292.013 92.312C291.06 92.312 290.202 92.1473 289.439 91.818C288.676 91.4713 288.026 91.012 287.489 90.44C286.969 89.868 286.562 89.192 286.267 88.412C285.99 87.632 285.851 86.8 285.851 85.916C285.851 84.98 286.007 84.122 286.319 83.342C286.631 82.5447 287.064 81.8687 287.619 81.314C288.174 80.742 288.832 80.3 289.595 79.988C290.358 79.676 291.19 79.52 292.091 79.52C292.94 79.52 293.72 79.6673 294.431 79.962C295.142 80.2393 295.748 80.6553 296.251 81.21C296.771 81.7473 297.17 82.4147 297.447 83.212C297.724 83.992 297.863 84.8847 297.863 85.89V86.54H288.035C288.07 87.06 288.191 87.5627 288.399 88.048C288.624 88.516 288.91 88.932 289.257 89.296C289.604 89.6427 290.011 89.92 290.479 90.128C290.947 90.336 291.458 90.44 292.013 90.44C292.897 90.44 293.642 90.284 294.249 89.972C294.856 89.66 295.402 89.2007 295.887 88.594L297.421 89.79ZM295.679 84.824C295.644 83.784 295.306 82.952 294.665 82.328C294.024 81.704 293.14 81.392 292.013 81.392C290.886 81.392 289.976 81.704 289.283 82.328C288.59 82.952 288.174 83.784 288.035 84.824H295.679ZM307.656 81.548H304.068V87.632C304.068 88.0307 304.077 88.4033 304.094 88.75C304.112 89.0793 304.181 89.374 304.302 89.634C304.424 89.8767 304.606 90.076 304.848 90.232C305.091 90.3707 305.438 90.44 305.888 90.44C306.183 90.44 306.486 90.4053 306.798 90.336C307.11 90.2667 307.405 90.1627 307.682 90.024L307.76 91.87C307.414 92.026 307.024 92.1387 306.59 92.208C306.174 92.2773 305.776 92.312 305.394 92.312C304.666 92.312 304.086 92.2167 303.652 92.026C303.219 91.8353 302.881 91.5667 302.638 91.22C302.396 90.8733 302.231 90.4487 302.144 89.946C302.075 89.426 302.04 88.854 302.04 88.23V81.548H299.388V79.832H302.04V76.374H304.068V79.832H307.656V81.548ZM311.831 89.036C312.264 89.036 312.628 89.192 312.923 89.504C313.235 89.7987 313.391 90.1627 313.391 90.596C313.391 91.0293 313.226 91.402 312.897 91.714C312.585 92.0087 312.229 92.156 311.831 92.156C311.432 92.156 311.068 92.0087 310.739 91.714C310.427 91.402 310.271 91.0293 310.271 90.596C310.271 90.1627 310.418 89.7987 310.713 89.504C311.025 89.192 311.397 89.036 311.831 89.036Z" fill="#252525" fill-opacity="0.8"/>
</svg>
