<svg width="157" height="50" viewBox="0 0 157 50" fill="none" xmlns="http://www.w3.org/2000/svg">
<rect width="157" height="50" rx="16" fill="#252525"/>
<path d="M44.42 30.136C43.688 30.544 42.914 30.844 42.098 31.036C41.294 31.228 40.478 31.324 39.65 31.324C38.654 31.324 37.742 31.162 36.914 30.838C36.086 30.514 35.366 30.058 34.754 29.47C34.154 28.882 33.686 28.18 33.35 27.364C33.014 26.536 32.846 25.624 32.846 24.628C32.846 23.62 33.02 22.708 33.368 21.892C33.728 21.064 34.22 20.362 34.844 19.786C35.468 19.198 36.194 18.742 37.022 18.418C37.85 18.094 38.744 17.932 39.704 17.932C40.544 17.932 41.348 18.058 42.116 18.31C42.896 18.562 43.592 18.994 44.204 19.606L43.07 20.794C42.638 20.326 42.11 19.966 41.486 19.714C40.874 19.462 40.244 19.336 39.596 19.336C38.864 19.336 38.186 19.468 37.562 19.732C36.938 19.996 36.392 20.362 35.924 20.83C35.468 21.298 35.108 21.856 34.844 22.504C34.592 23.152 34.466 23.86 34.466 24.628C34.466 25.384 34.592 26.086 34.844 26.734C35.108 27.382 35.468 27.946 35.924 28.426C36.392 28.894 36.95 29.26 37.598 29.524C38.246 29.788 38.96 29.92 39.74 29.92C40.256 29.92 40.796 29.86 41.36 29.74C41.924 29.608 42.44 29.422 42.908 29.182V25.276H39.974V23.872H44.42V30.136ZM54.8658 29.47C54.3618 30.118 53.8098 30.574 53.2098 30.838C52.6098 31.09 51.9138 31.216 51.1218 31.216C50.4618 31.216 49.8678 31.102 49.3398 30.874C48.8118 30.634 48.3618 30.316 47.9898 29.92C47.6298 29.524 47.3478 29.056 47.1438 28.516C46.9518 27.976 46.8558 27.4 46.8558 26.788C46.8558 26.14 46.9638 25.546 47.1798 25.006C47.3958 24.454 47.6958 23.986 48.0798 23.602C48.4638 23.206 48.9198 22.9 49.4478 22.684C49.9758 22.468 50.5518 22.36 51.1758 22.36C51.7638 22.36 52.3038 22.462 52.7958 22.666C53.2878 22.858 53.7078 23.146 54.0558 23.53C54.4158 23.902 54.6918 24.364 54.8838 24.916C55.0758 25.456 55.1718 26.074 55.1718 26.77V27.22H48.3678C48.3918 27.58 48.4758 27.928 48.6198 28.264C48.7758 28.588 48.9738 28.876 49.2138 29.128C49.4538 29.368 49.7358 29.56 50.0598 29.704C50.3838 29.848 50.7378 29.92 51.1218 29.92C51.7338 29.92 52.2498 29.812 52.6698 29.596C53.0898 29.38 53.4678 29.062 53.8038 28.642L54.8658 29.47ZM53.6598 26.032C53.6358 25.312 53.4018 24.736 52.9578 24.304C52.5138 23.872 51.9018 23.656 51.1218 23.656C50.3418 23.656 49.7118 23.872 49.2318 24.304C48.7518 24.736 48.4638 25.312 48.3678 26.032H53.6598ZM61.9517 23.764H59.4677V27.976C59.4677 28.252 59.4737 28.51 59.4857 28.75C59.4977 28.978 59.5457 29.182 59.6297 29.362C59.7137 29.53 59.8397 29.668 60.0077 29.776C60.1757 29.872 60.4157 29.92 60.7277 29.92C60.9317 29.92 61.1417 29.896 61.3577 29.848C61.5737 29.8 61.7777 29.728 61.9697 29.632L62.0237 30.91C61.7837 31.018 61.5137 31.096 61.2137 31.144C60.9257 31.192 60.6497 31.216 60.3857 31.216C59.8817 31.216 59.4797 31.15 59.1797 31.018C58.8797 30.886 58.6457 30.7 58.4777 30.46C58.3097 30.22 58.1957 29.926 58.1357 29.578C58.0877 29.218 58.0637 28.822 58.0637 28.39V23.764H56.2277V22.576H58.0637V20.182H59.4677V22.576H61.9517V23.764ZM68.8616 28.786C69.1376 29.134 69.4376 29.41 69.7616 29.614C70.0976 29.818 70.5176 29.92 71.0216 29.92C71.2376 29.92 71.4536 29.896 71.6696 29.848C71.8976 29.8 72.1016 29.722 72.2816 29.614C72.4616 29.506 72.6056 29.374 72.7136 29.218C72.8216 29.05 72.8756 28.852 72.8756 28.624C72.8756 28.396 72.8216 28.21 72.7136 28.066C72.6176 27.922 72.4856 27.802 72.3176 27.706C72.1496 27.598 71.9576 27.514 71.7416 27.454C71.5256 27.394 71.3036 27.34 71.0756 27.292C70.6796 27.208 70.3016 27.112 69.9416 27.004C69.5816 26.896 69.2636 26.758 68.9876 26.59C68.7236 26.41 68.5076 26.182 68.3396 25.906C68.1836 25.63 68.1056 25.276 68.1056 24.844C68.1056 24.436 68.1956 24.076 68.3756 23.764C68.5556 23.452 68.7956 23.194 69.0956 22.99C69.3956 22.786 69.7316 22.63 70.1036 22.522C70.4756 22.414 70.8596 22.36 71.2556 22.36C71.8556 22.36 72.4076 22.48 72.9116 22.72C73.4276 22.96 73.8296 23.35 74.1176 23.89L72.9476 24.664C72.7676 24.364 72.5276 24.124 72.2276 23.944C71.9396 23.752 71.5856 23.656 71.1656 23.656C70.9736 23.656 70.7756 23.68 70.5716 23.728C70.3796 23.776 70.2056 23.848 70.0496 23.944C69.8936 24.04 69.7616 24.166 69.6536 24.322C69.5576 24.466 69.5096 24.634 69.5096 24.826C69.5096 25.006 69.5636 25.162 69.6716 25.294C69.7916 25.414 69.9476 25.522 70.1396 25.618C70.3436 25.714 70.5716 25.798 70.8236 25.87C71.0876 25.942 71.3576 26.002 71.6336 26.05C72.0056 26.122 72.3596 26.218 72.6956 26.338C73.0316 26.446 73.3256 26.596 73.5776 26.788C73.8296 26.98 74.0276 27.22 74.1716 27.508C74.3156 27.796 74.3876 28.15 74.3876 28.57C74.3876 29.05 74.2916 29.458 74.0996 29.794C73.9076 30.13 73.6496 30.406 73.3256 30.622C73.0136 30.826 72.6536 30.976 72.2456 31.072C71.8496 31.168 71.4416 31.216 71.0216 31.216C70.3016 31.216 69.6776 31.108 69.1496 30.892C68.6336 30.664 68.1656 30.25 67.7456 29.65L68.8616 28.786ZM80.9537 23.764H78.4697V27.976C78.4697 28.252 78.4757 28.51 78.4877 28.75C78.4997 28.978 78.5477 29.182 78.6317 29.362C78.7157 29.53 78.8417 29.668 79.0097 29.776C79.1777 29.872 79.4177 29.92 79.7297 29.92C79.9337 29.92 80.1437 29.896 80.3597 29.848C80.5757 29.8 80.7797 29.728 80.9717 29.632L81.0257 30.91C80.7857 31.018 80.5157 31.096 80.2157 31.144C79.9277 31.192 79.6517 31.216 79.3877 31.216C78.8837 31.216 78.4817 31.15 78.1817 31.018C77.8817 30.886 77.6477 30.7 77.4797 30.46C77.3117 30.22 77.1977 29.926 77.1377 29.578C77.0897 29.218 77.0657 28.822 77.0657 28.39V23.764H75.2297V22.576H77.0657V20.182H78.4697V22.576H80.9537V23.764ZM82.5658 23.656C82.9978 23.212 83.5078 22.888 84.0958 22.684C84.6958 22.468 85.3018 22.36 85.9138 22.36C87.1618 22.36 88.0618 22.654 88.6138 23.242C89.1658 23.83 89.4418 24.724 89.4418 25.924V29.542C89.4418 29.782 89.4538 30.034 89.4778 30.298C89.5018 30.55 89.5318 30.784 89.5678 31H88.2178C88.1698 30.808 88.1398 30.598 88.1278 30.37C88.1278 30.13 88.1278 29.92 88.1278 29.74H88.0918C87.8158 30.172 87.4438 30.526 86.9758 30.802C86.5198 31.078 85.9678 31.216 85.3198 31.216C84.8878 31.216 84.4798 31.162 84.0958 31.054C83.7238 30.946 83.3938 30.79 83.1058 30.586C82.8298 30.37 82.6078 30.106 82.4398 29.794C82.2718 29.482 82.1878 29.122 82.1878 28.714C82.1878 28.018 82.3678 27.472 82.7278 27.076C83.0878 26.68 83.5318 26.386 84.0598 26.194C84.5998 26.002 85.1758 25.882 85.7878 25.834C86.4118 25.786 86.9818 25.762 87.4978 25.762H88.0378V25.51C88.0378 24.898 87.8518 24.436 87.4798 24.124C87.1198 23.812 86.6098 23.656 85.9498 23.656C85.4938 23.656 85.0438 23.734 84.5998 23.89C84.1678 24.034 83.7838 24.262 83.4478 24.574L82.5658 23.656ZM86.6338 26.95C85.7338 26.95 85.0198 27.076 84.4918 27.328C83.9638 27.58 83.6998 27.994 83.6998 28.57C83.6998 29.098 83.8738 29.476 84.2218 29.704C84.5818 29.92 85.0258 30.028 85.5538 30.028C85.9618 30.028 86.3158 29.962 86.6158 29.83C86.9278 29.686 87.1858 29.5 87.3898 29.272C87.5938 29.044 87.7498 28.78 87.8578 28.48C87.9658 28.168 88.0258 27.838 88.0378 27.49V26.95H86.6338ZM92.0078 24.574C92.0078 24.19 91.9958 23.83 91.9718 23.494C91.9478 23.158 91.9358 22.852 91.9358 22.576H93.2678C93.2678 22.804 93.2738 23.032 93.2858 23.26C93.2978 23.488 93.3038 23.722 93.3038 23.962H93.3398C93.4358 23.758 93.5678 23.56 93.7358 23.368C93.9158 23.176 94.1258 23.008 94.3658 22.864C94.6058 22.708 94.8758 22.588 95.1758 22.504C95.4758 22.408 95.7998 22.36 96.1478 22.36C96.2438 22.36 96.3398 22.366 96.4358 22.378C96.5318 22.39 96.6278 22.414 96.7238 22.45L96.6338 23.872C96.3938 23.8 96.1418 23.764 95.8778 23.764C95.0138 23.764 94.3838 24.046 93.9878 24.61C93.6038 25.162 93.4118 25.924 93.4118 26.896V31H92.0078V24.574ZM102.944 23.764H100.46V27.976C100.46 28.252 100.466 28.51 100.478 28.75C100.49 28.978 100.538 29.182 100.622 29.362C100.706 29.53 100.832 29.668 101 29.776C101.168 29.872 101.408 29.92 101.72 29.92C101.924 29.92 102.134 29.896 102.35 29.848C102.566 29.8 102.77 29.728 102.962 29.632L103.016 30.91C102.776 31.018 102.506 31.096 102.206 31.144C101.918 31.192 101.642 31.216 101.378 31.216C100.874 31.216 100.472 31.15 100.172 31.018C99.8719 30.886 99.6379 30.7 99.4699 30.46C99.3019 30.22 99.1879 29.926 99.1279 29.578C99.0799 29.218 99.0559 28.822 99.0559 28.39V23.764H97.2199V22.576H99.0559V20.182H100.46V22.576H102.944V23.764ZM112.188 29.47C111.684 30.118 111.132 30.574 110.532 30.838C109.932 31.09 109.236 31.216 108.444 31.216C107.784 31.216 107.19 31.102 106.662 30.874C106.134 30.634 105.684 30.316 105.312 29.92C104.952 29.524 104.67 29.056 104.466 28.516C104.274 27.976 104.178 27.4 104.178 26.788C104.178 26.14 104.286 25.546 104.502 25.006C104.718 24.454 105.018 23.986 105.402 23.602C105.786 23.206 106.242 22.9 106.77 22.684C107.298 22.468 107.874 22.36 108.498 22.36C109.086 22.36 109.626 22.462 110.118 22.666C110.61 22.858 111.03 23.146 111.378 23.53C111.738 23.902 112.014 24.364 112.206 24.916C112.398 25.456 112.494 26.074 112.494 26.77V27.22H105.69C105.714 27.58 105.798 27.928 105.942 28.264C106.098 28.588 106.296 28.876 106.536 29.128C106.776 29.368 107.058 29.56 107.382 29.704C107.706 29.848 108.06 29.92 108.444 29.92C109.056 29.92 109.572 29.812 109.992 29.596C110.412 29.38 110.79 29.062 111.126 28.642L112.188 29.47ZM110.982 26.032C110.958 25.312 110.724 24.736 110.28 24.304C109.836 23.872 109.224 23.656 108.444 23.656C107.664 23.656 107.034 23.872 106.554 24.304C106.074 24.736 105.786 25.312 105.69 26.032H110.982ZM121.668 29.506H121.632C121.368 29.986 120.948 30.394 120.372 30.73C119.808 31.054 119.148 31.216 118.392 31.216C117.804 31.216 117.252 31.108 116.736 30.892C116.22 30.664 115.77 30.352 115.386 29.956C115.014 29.56 114.72 29.092 114.504 28.552C114.288 28.012 114.18 27.424 114.18 26.788C114.18 26.152 114.288 25.564 114.504 25.024C114.72 24.484 115.02 24.016 115.404 23.62C115.788 23.224 116.25 22.918 116.79 22.702C117.342 22.474 117.948 22.36 118.608 22.36C119.22 22.36 119.778 22.486 120.282 22.738C120.798 22.99 121.248 23.344 121.632 23.8H121.668V17.392H123.072V31H121.668V29.506ZM121.668 26.788C121.668 26.344 121.596 25.936 121.452 25.564C121.32 25.18 121.122 24.85 120.858 24.574C120.594 24.286 120.276 24.064 119.904 23.908C119.544 23.74 119.136 23.656 118.68 23.656C118.224 23.656 117.81 23.74 117.438 23.908C117.078 24.064 116.766 24.286 116.502 24.574C116.238 24.85 116.034 25.18 115.89 25.564C115.758 25.936 115.692 26.344 115.692 26.788C115.692 27.232 115.758 27.646 115.89 28.03C116.034 28.402 116.238 28.732 116.502 29.02C116.766 29.296 117.078 29.518 117.438 29.686C117.81 29.842 118.224 29.92 118.68 29.92C119.136 29.92 119.544 29.842 119.904 29.686C120.276 29.518 120.594 29.296 120.858 29.02C121.122 28.732 121.32 28.402 121.452 28.03C121.596 27.646 121.668 27.232 121.668 26.788Z" fill="white"/>
</svg>
