<svg width="597" height="130" viewBox="0 0 597 130" fill="none" xmlns="http://www.w3.org/2000/svg">
<path d="M0.58725 3.688H18.4433C21.4299 3.688 24.3099 4.15733 27.0833 5.096C29.8566 5.992 32.3099 7.37866 34.4433 9.256C36.5766 11.1333 38.2833 13.5013 39.5633 16.36C40.8433 19.176 41.4833 22.504 41.4833 26.344C41.4833 30.2267 40.7366 33.5973 39.2433 36.456C37.7926 39.272 35.8939 41.6187 33.5473 43.496C31.2433 45.3307 28.6619 46.7173 25.8033 47.656C22.9873 48.552 20.2139 49 17.4833 49H0.58725V3.688ZM14.6673 41.704C17.1846 41.704 19.5526 41.4267 21.7713 40.872C24.0326 40.2747 25.9953 39.3787 27.6593 38.184C29.3233 36.9467 30.6246 35.368 31.5633 33.448C32.5446 31.4853 33.0353 29.1173 33.0353 26.344C33.0353 23.6133 32.6086 21.2667 31.7553 19.304C30.9019 17.3413 29.7073 15.7627 28.1713 14.568C26.6779 13.3307 24.8859 12.4347 22.7953 11.88C20.7473 11.2827 18.4859 10.984 16.0113 10.984H8.65125V41.704H14.6673ZM48.5738 18.28H56.2538V49H48.5738V18.28ZM47.4858 7.848C47.4858 6.61066 47.9338 5.544 48.8298 4.648C49.7684 3.70933 50.9418 3.24 52.3498 3.24C53.7578 3.24 54.9311 3.688 55.8698 4.584C56.8511 5.43733 57.3418 6.52533 57.3418 7.848C57.3418 9.17066 56.8511 10.28 55.8698 11.176C54.9311 12.0293 53.7578 12.456 52.3498 12.456C50.9418 12.456 49.7684 12.008 48.8298 11.112C47.9338 10.1733 47.4858 9.08533 47.4858 7.848ZM81.4548 26.792C79.9614 24.7013 77.9561 23.656 75.4388 23.656C74.4148 23.656 73.4121 23.912 72.4308 24.424C71.4494 24.936 70.9588 25.768 70.9588 26.92C70.9588 27.8587 71.3641 28.5413 72.1748 28.968C72.9854 29.3947 74.0094 29.7573 75.2468 30.056C76.4841 30.3547 77.8068 30.6747 79.2148 31.016C80.6654 31.3147 82.0094 31.8053 83.2468 32.488C84.4841 33.128 85.5081 34.024 86.3188 35.176C87.1294 36.328 87.5348 37.9067 87.5348 39.912C87.5348 41.7467 87.1294 43.304 86.3188 44.584C85.5508 45.8213 84.5268 46.824 83.2468 47.592C82.0094 48.36 80.6014 48.9147 79.0228 49.256C77.4441 49.5973 75.8654 49.768 74.2868 49.768C71.8974 49.768 69.7001 49.4267 67.6948 48.744C65.6894 48.0613 63.8974 46.824 62.3188 45.032L67.4388 40.232C68.4201 41.3413 69.4654 42.2587 70.5748 42.984C71.7268 43.6667 73.1134 44.008 74.7348 44.008C75.2894 44.008 75.8654 43.944 76.4628 43.816C77.0601 43.688 77.6148 43.4747 78.1268 43.176C78.6388 42.8773 79.0441 42.5147 79.3428 42.088C79.6841 41.6187 79.8548 41.0853 79.8548 40.488C79.8548 39.4213 79.4494 38.632 78.6388 38.12C77.8281 37.608 76.8041 37.2027 75.5668 36.904C74.3294 36.5627 72.9854 36.264 71.5348 36.008C70.1268 35.7093 68.8041 35.2613 67.5668 34.664C66.3294 34.024 65.3054 33.1493 64.4948 32.04C63.6841 30.9307 63.2788 29.3947 63.2788 27.432C63.2788 25.7253 63.6201 24.2533 64.3028 23.016C65.0281 21.736 65.9668 20.6907 67.1188 19.88C68.2708 19.0693 69.5934 18.472 71.0868 18.088C72.5801 17.704 74.0948 17.512 75.6308 17.512C77.6788 17.512 79.7054 17.8747 81.7108 18.6C83.7161 19.2827 85.3374 20.4773 86.5748 22.184L81.4548 26.792ZM114.5 27.496C113.604 26.5573 112.666 25.8107 111.684 25.256C110.703 24.7013 109.7 24.424 108.676 24.424C107.268 24.424 106.01 24.68 104.9 25.192C103.791 25.704 102.831 26.3867 102.02 27.24C101.252 28.0933 100.655 29.0747 100.228 30.184C99.8443 31.2933 99.6523 32.4453 99.6523 33.64C99.6523 34.8347 99.8443 35.9867 100.228 37.096C100.655 38.2053 101.252 39.1867 102.02 40.04C102.831 40.8933 103.791 41.576 104.9 42.088C106.01 42.6 107.268 42.856 108.676 42.856C109.871 42.856 110.98 42.6213 112.004 42.152C113.028 41.64 113.903 40.9147 114.628 39.976L119.748 45.48C118.98 46.248 118.084 46.9093 117.06 47.464C116.079 48.0187 115.076 48.4667 114.052 48.808C113.028 49.1493 112.047 49.384 111.108 49.512C110.17 49.6827 109.359 49.768 108.676 49.768C106.372 49.768 104.196 49.384 102.148 48.616C100.1 47.848 98.3296 46.76 96.8363 45.352C95.3429 43.944 94.1483 42.2587 93.2523 40.296C92.3989 38.2907 91.9723 36.072 91.9723 33.64C91.9723 31.208 92.3989 29.0107 93.2523 27.048C94.1483 25.0427 95.3429 23.336 96.8363 21.928C98.3296 20.52 100.1 19.432 102.148 18.664C104.196 17.896 106.372 17.512 108.676 17.512C110.639 17.512 112.602 17.896 114.564 18.664C116.57 19.3893 118.319 20.5627 119.812 22.184L114.5 27.496ZM122.847 33.64C122.847 31.208 123.274 29.0107 124.127 27.048C125.023 25.0427 126.218 23.336 127.711 21.928C129.205 20.52 130.975 19.432 133.023 18.664C135.071 17.896 137.247 17.512 139.551 17.512C141.855 17.512 144.031 17.896 146.079 18.664C148.127 19.432 149.898 20.52 151.391 21.928C152.885 23.336 154.058 25.0427 154.911 27.048C155.807 29.0107 156.255 31.208 156.255 33.64C156.255 36.072 155.807 38.2907 154.911 40.296C154.058 42.2587 152.885 43.944 151.391 45.352C149.898 46.76 148.127 47.848 146.079 48.616C144.031 49.384 141.855 49.768 139.551 49.768C137.247 49.768 135.071 49.384 133.023 48.616C130.975 47.848 129.205 46.76 127.711 45.352C126.218 43.944 125.023 42.2587 124.127 40.296C123.274 38.2907 122.847 36.072 122.847 33.64ZM130.527 33.64C130.527 34.8347 130.719 35.9867 131.103 37.096C131.53 38.2053 132.127 39.1867 132.895 40.04C133.706 40.8933 134.666 41.576 135.775 42.088C136.885 42.6 138.143 42.856 139.551 42.856C140.959 42.856 142.218 42.6 143.327 42.088C144.437 41.576 145.375 40.8933 146.143 40.04C146.954 39.1867 147.551 38.2053 147.935 37.096C148.362 35.9867 148.575 34.8347 148.575 33.64C148.575 32.4453 148.362 31.2933 147.935 30.184C147.551 29.0747 146.954 28.0933 146.143 27.24C145.375 26.3867 144.437 25.704 143.327 25.192C142.218 24.68 140.959 24.424 139.551 24.424C138.143 24.424 136.885 24.68 135.775 25.192C134.666 25.704 133.706 26.3867 132.895 27.24C132.127 28.0933 131.53 29.0747 131.103 30.184C130.719 31.2933 130.527 32.4453 130.527 33.64ZM159.286 18.28H167.67L175.862 39.784H175.99L184.246 18.28H192.118L180.022 49H171.83L159.286 18.28ZM202.777 36.328C203.033 38.632 203.929 40.424 205.465 41.704C207.001 42.984 208.857 43.624 211.033 43.624C212.953 43.624 214.553 43.24 215.833 42.472C217.156 41.6613 218.308 40.6587 219.289 39.464L224.793 43.624C223.001 45.8427 220.996 47.4213 218.777 48.36C216.559 49.2987 214.233 49.768 211.801 49.768C209.497 49.768 207.321 49.384 205.273 48.616C203.225 47.848 201.455 46.76 199.961 45.352C198.468 43.944 197.273 42.2587 196.377 40.296C195.524 38.2907 195.097 36.072 195.097 33.64C195.097 31.208 195.524 29.0107 196.377 27.048C197.273 25.0427 198.468 23.336 199.961 21.928C201.455 20.52 203.225 19.432 205.273 18.664C207.321 17.896 209.497 17.512 211.801 17.512C213.935 17.512 215.876 17.896 217.625 18.664C219.417 19.3893 220.932 20.456 222.169 21.864C223.449 23.272 224.431 25.0213 225.113 27.112C225.839 29.16 226.201 31.528 226.201 34.216V36.328H202.777ZM218.521 30.568C218.479 28.3067 217.775 26.536 216.409 25.256C215.044 23.9333 213.145 23.272 210.713 23.272C208.409 23.272 206.575 23.9333 205.209 25.256C203.887 26.5787 203.076 28.3493 202.777 30.568H218.521ZM233.383 18.28H241.063V23.144H241.191C242.045 21.352 243.261 19.9653 244.839 18.984C246.418 18.0027 248.231 17.512 250.279 17.512C250.749 17.512 251.197 17.5547 251.623 17.64C252.093 17.7253 252.562 17.832 253.031 17.96V25.384C252.391 25.2133 251.751 25.0853 251.111 25C250.514 24.872 249.917 24.808 249.319 24.808C247.527 24.808 246.077 25.1493 244.967 25.832C243.901 26.472 243.069 27.2187 242.471 28.072C241.917 28.9253 241.533 29.7787 241.319 30.632C241.149 31.4853 241.063 32.1253 241.063 32.552V49H233.383V18.28ZM273.612 24.808V18.28H279.948V9.384H287.628V18.28H296.076V24.808H287.628V38.248C287.628 39.784 287.905 41 288.46 41.896C289.057 42.792 290.209 43.24 291.916 43.24C292.598 43.24 293.345 43.176 294.156 43.048C294.966 42.8773 295.606 42.6213 296.076 42.28V48.744C295.265 49.128 294.262 49.384 293.068 49.512C291.916 49.6827 290.892 49.768 289.996 49.768C287.948 49.768 286.262 49.5333 284.94 49.064C283.66 48.6373 282.636 47.976 281.868 47.08C281.142 46.1413 280.63 44.9893 280.332 43.624C280.076 42.2587 279.948 40.68 279.948 38.888V24.808H273.612ZM309.813 22.568H309.941C310.539 21.288 311.584 20.136 313.077 19.112C314.613 18.0453 316.576 17.512 318.965 17.512C321.013 17.512 322.741 17.8533 324.149 18.536C325.6 19.2187 326.773 20.1147 327.669 21.224C328.565 22.3333 329.205 23.6133 329.589 25.064C329.973 26.5147 330.165 28.0293 330.165 29.608V49H322.485V33.448C322.485 32.5947 322.443 31.656 322.357 30.632C322.272 29.5653 322.037 28.584 321.653 27.688C321.312 26.7493 320.757 25.9813 319.989 25.384C319.221 24.744 318.176 24.424 316.853 24.424C315.573 24.424 314.485 24.6373 313.589 25.064C312.736 25.4907 312.011 26.0667 311.413 26.792C310.859 27.5173 310.453 28.3493 310.197 29.288C309.941 30.2267 309.813 31.208 309.813 32.232V49H302.133V0.615997H309.813V22.568ZM345.027 36.328C345.283 38.632 346.179 40.424 347.715 41.704C349.251 42.984 351.107 43.624 353.283 43.624C355.203 43.624 356.803 43.24 358.083 42.472C359.406 41.6613 360.558 40.6587 361.539 39.464L367.043 43.624C365.251 45.8427 363.246 47.4213 361.027 48.36C358.809 49.2987 356.483 49.768 354.051 49.768C351.747 49.768 349.571 49.384 347.523 48.616C345.475 47.848 343.705 46.76 342.211 45.352C340.718 43.944 339.523 42.2587 338.627 40.296C337.774 38.2907 337.347 36.072 337.347 33.64C337.347 31.208 337.774 29.0107 338.627 27.048C339.523 25.0427 340.718 23.336 342.211 21.928C343.705 20.52 345.475 19.432 347.523 18.664C349.571 17.896 351.747 17.512 354.051 17.512C356.185 17.512 358.126 17.896 359.875 18.664C361.667 19.3893 363.182 20.456 364.419 21.864C365.699 23.272 366.681 25.0213 367.363 27.112C368.089 29.16 368.451 31.528 368.451 34.216V36.328H345.027ZM360.771 30.568C360.729 28.3067 360.025 26.536 358.659 25.256C357.294 23.9333 355.395 23.272 352.963 23.272C350.659 23.272 348.825 23.9333 347.459 25.256C346.137 26.5787 345.326 28.3493 345.027 30.568H360.771ZM394.571 0.615997H402.251V22.184H402.443C402.827 21.672 403.317 21.16 403.915 20.648C404.512 20.0933 405.237 19.5813 406.091 19.112C406.944 18.6427 407.925 18.2587 409.035 17.96C410.144 17.6613 411.424 17.512 412.875 17.512C415.051 17.512 417.056 17.9387 418.891 18.792C420.725 19.6027 422.283 20.7333 423.563 22.184C424.885 23.6347 425.909 25.3413 426.635 27.304C427.36 29.2667 427.723 31.3787 427.723 33.64C427.723 35.9013 427.381 38.0133 426.699 39.976C426.016 41.9387 425.013 43.6453 423.691 45.096C422.368 46.5467 420.768 47.6987 418.891 48.552C417.013 49.3627 414.901 49.768 412.555 49.768C410.379 49.768 408.352 49.3413 406.475 48.488C404.597 47.6347 403.104 46.2693 401.995 44.392H401.867V49H394.571V0.615997ZM420.043 33.64C420.043 32.4453 419.829 31.2933 419.403 30.184C419.019 29.0747 418.421 28.0933 417.611 27.24C416.843 26.3867 415.904 25.704 414.795 25.192C413.685 24.68 412.427 24.424 411.019 24.424C409.611 24.424 408.352 24.68 407.243 25.192C406.133 25.704 405.173 26.3867 404.363 27.24C403.595 28.0933 402.997 29.0747 402.571 30.184C402.187 31.2933 401.995 32.4453 401.995 33.64C401.995 34.8347 402.187 35.9867 402.571 37.096C402.997 38.2053 403.595 39.1867 404.363 40.04C405.173 40.8933 406.133 41.576 407.243 42.088C408.352 42.6 409.611 42.856 411.019 42.856C412.427 42.856 413.685 42.6 414.795 42.088C415.904 41.576 416.843 40.8933 417.611 40.04C418.421 39.1867 419.019 38.2053 419.403 37.096C419.829 35.9867 420.043 34.8347 420.043 33.64ZM441.027 36.328C441.283 38.632 442.179 40.424 443.715 41.704C445.251 42.984 447.107 43.624 449.283 43.624C451.203 43.624 452.803 43.24 454.083 42.472C455.406 41.6613 456.558 40.6587 457.539 39.464L463.043 43.624C461.251 45.8427 459.246 47.4213 457.027 48.36C454.809 49.2987 452.483 49.768 450.051 49.768C447.747 49.768 445.571 49.384 443.523 48.616C441.475 47.848 439.705 46.76 438.211 45.352C436.718 43.944 435.523 42.2587 434.627 40.296C433.774 38.2907 433.347 36.072 433.347 33.64C433.347 31.208 433.774 29.0107 434.627 27.048C435.523 25.0427 436.718 23.336 438.211 21.928C439.705 20.52 441.475 19.432 443.523 18.664C445.571 17.896 447.747 17.512 450.051 17.512C452.185 17.512 454.126 17.896 455.875 18.664C457.667 19.3893 459.182 20.456 460.419 21.864C461.699 23.272 462.681 25.0213 463.363 27.112C464.089 29.16 464.451 31.528 464.451 34.216V36.328H441.027ZM456.771 30.568C456.729 28.3067 456.025 26.536 454.659 25.256C453.294 23.9333 451.395 23.272 448.963 23.272C446.659 23.272 444.825 23.9333 443.459 25.256C442.137 26.5787 441.326 28.3493 441.027 30.568H456.771ZM490.833 44.776H490.641C489.532 46.5253 488.124 47.8053 486.417 48.616C484.711 49.384 482.833 49.768 480.785 49.768C479.377 49.768 477.991 49.576 476.625 49.192C475.303 48.808 474.108 48.232 473.041 47.464C472.017 46.696 471.185 45.736 470.545 44.584C469.905 43.432 469.585 42.088 469.585 40.552C469.585 38.888 469.884 37.48 470.481 36.328C471.079 35.1333 471.868 34.152 472.849 33.384C473.873 32.5733 475.047 31.9333 476.369 31.464C477.692 30.9947 479.057 30.6533 480.465 30.44C481.916 30.184 483.367 30.0347 484.817 29.992C486.268 29.9067 487.633 29.864 488.913 29.864H490.833V29.032C490.833 27.112 490.172 25.6827 488.849 24.744C487.527 23.7627 485.841 23.272 483.793 23.272C482.172 23.272 480.657 23.5707 479.249 24.168C477.841 24.7227 476.625 25.4907 475.601 26.472L471.569 22.44C473.276 20.6907 475.26 19.432 477.521 18.664C479.825 17.896 482.193 17.512 484.625 17.512C486.801 17.512 488.636 17.768 490.129 18.28C491.623 18.7493 492.86 19.368 493.841 20.136C494.823 20.904 495.569 21.8 496.081 22.824C496.636 23.8053 497.02 24.808 497.233 25.832C497.489 26.856 497.639 27.8587 497.681 28.84C497.724 29.7787 497.745 30.6107 497.745 31.336V49H490.833V44.776ZM490.385 35.24H488.785C487.719 35.24 486.524 35.2827 485.201 35.368C483.879 35.4533 482.62 35.6667 481.425 36.008C480.273 36.3067 479.292 36.776 478.481 37.416C477.671 38.0133 477.265 38.8667 477.265 39.976C477.265 40.7013 477.415 41.32 477.713 41.832C478.055 42.3013 478.481 42.7067 478.993 43.048C479.505 43.3893 480.081 43.6453 480.721 43.816C481.361 43.944 482.001 44.008 482.641 44.008C485.287 44.008 487.228 43.3893 488.465 42.152C489.745 40.872 490.385 39.144 490.385 36.968V35.24ZM534.04 49H526.744V44.072H526.616C525.891 45.608 524.782 46.952 523.288 48.104C521.795 49.2133 519.768 49.768 517.208 49.768C515.16 49.768 513.411 49.448 511.96 48.808C510.552 48.1253 509.4 47.2293 508.504 46.12C507.608 44.968 506.968 43.6667 506.584 42.216C506.2 40.7653 506.008 39.2507 506.008 37.672V18.28H513.688V33.832C513.688 34.6853 513.731 35.6453 513.816 36.712C513.902 37.736 514.115 38.7173 514.456 39.656C514.84 40.552 515.395 41.32 516.12 41.96C516.888 42.5573 517.955 42.856 519.32 42.856C520.6 42.856 521.667 42.6427 522.52 42.216C523.416 41.7893 524.142 41.2133 524.696 40.488C525.294 39.7627 525.72 38.9307 525.976 37.992C526.232 37.0533 526.36 36.072 526.36 35.048V18.28H534.04V49ZM539.174 24.808V18.28H545.51V9.384H553.19V18.28H561.638V24.808H553.19V38.248C553.19 39.784 553.468 41 554.022 41.896C554.62 42.792 555.772 43.24 557.478 43.24C558.161 43.24 558.908 43.176 559.718 43.048C560.529 42.8773 561.169 42.6213 561.638 42.28V48.744C560.828 49.128 559.825 49.384 558.63 49.512C557.478 49.6827 556.454 49.768 555.558 49.768C553.51 49.768 551.825 49.5333 550.502 49.064C549.222 48.6373 548.198 47.976 547.43 47.08C546.705 46.1413 546.193 44.9893 545.894 43.624C545.638 42.2587 545.51 40.68 545.51 38.888V24.808H539.174ZM563.473 18.28H571.921L580.497 39.592H580.625L588.305 18.28H596.305L581.777 55.592C581.223 57.0427 580.604 58.3013 579.921 59.368C579.281 60.4773 578.513 61.3947 577.617 62.12C576.721 62.888 575.655 63.4427 574.417 63.784C573.223 64.168 571.772 64.36 570.065 64.36C568.06 64.36 566.097 64.104 564.177 63.592L565.137 56.68C565.735 56.8933 566.353 57.064 566.993 57.192C567.676 57.3627 568.359 57.448 569.041 57.448C569.98 57.448 570.769 57.3627 571.409 57.192C572.049 57.0213 572.583 56.744 573.009 56.36C573.479 56.0187 573.863 55.5493 574.161 54.952C574.46 54.3973 574.78 53.7147 575.121 52.904L576.593 49.256L563.473 18.28ZM59.9895 124.776H59.7975C58.6882 126.525 57.2802 127.805 55.5735 128.616C53.8668 129.384 51.9895 129.768 49.9415 129.768C48.5335 129.768 47.1468 129.576 45.7815 129.192C44.4588 128.808 43.2642 128.232 42.1975 127.464C41.1735 126.696 40.3415 125.736 39.7015 124.584C39.0615 123.432 38.7415 122.088 38.7415 120.552C38.7415 118.888 39.0402 117.48 39.6375 116.328C40.2348 115.133 41.0242 114.152 42.0055 113.384C43.0295 112.573 44.2028 111.933 45.5255 111.464C46.8482 110.995 48.2135 110.653 49.6215 110.44C51.0722 110.184 52.5228 110.035 53.9735 109.992C55.4242 109.907 56.7895 109.864 58.0695 109.864H59.9895V109.032C59.9895 107.112 59.3282 105.683 58.0055 104.744C56.6828 103.763 54.9975 103.272 52.9495 103.272C51.3282 103.272 49.8135 103.571 48.4055 104.168C46.9975 104.723 45.7815 105.491 44.7575 106.472L40.7255 102.44C42.4322 100.691 44.4162 99.432 46.6775 98.664C48.9815 97.896 51.3495 97.512 53.7815 97.512C55.9575 97.512 57.7922 97.768 59.2855 98.28C60.7788 98.7493 62.0162 99.368 62.9975 100.136C63.9788 100.904 64.7255 101.8 65.2375 102.824C65.7922 103.805 66.1762 104.808 66.3895 105.832C66.6455 106.856 66.7948 107.859 66.8375 108.84C66.8802 109.779 66.9015 110.611 66.9015 111.336V129H59.9895V124.776ZM59.5415 115.24H57.9415C56.8748 115.24 55.6802 115.283 54.3575 115.368C53.0348 115.453 51.7762 115.667 50.5815 116.008C49.4295 116.307 48.4482 116.776 47.6375 117.416C46.8268 118.013 46.4215 118.867 46.4215 119.976C46.4215 120.701 46.5708 121.32 46.8695 121.832C47.2108 122.301 47.6375 122.707 48.1495 123.048C48.6615 123.389 49.2375 123.645 49.8775 123.816C50.5175 123.944 51.1575 124.008 51.7975 124.008C54.4428 124.008 56.3842 123.389 57.6215 122.152C58.9015 120.872 59.5415 119.144 59.5415 116.968V115.24ZM75.1645 98.28H82.8445V103.144H82.9725C83.8258 101.352 85.0418 99.9653 86.6205 98.984C88.1992 98.0027 90.0125 97.512 92.0605 97.512C92.5298 97.512 92.9778 97.5547 93.4045 97.64C93.8738 97.7253 94.3432 97.832 94.8125 97.96V105.384C94.1725 105.213 93.5325 105.085 92.8925 105C92.2952 104.872 91.6978 104.808 91.1005 104.808C89.3085 104.808 87.8578 105.149 86.7485 105.832C85.6818 106.472 84.8498 107.219 84.2525 108.072C83.6978 108.925 83.3138 109.779 83.1005 110.632C82.9298 111.485 82.8445 112.125 82.8445 112.552V129H75.1645V98.28ZM97.3785 113.64C97.3785 111.208 97.8052 109.011 98.6585 107.048C99.5545 105.043 100.749 103.336 102.243 101.928C103.736 100.52 105.507 99.432 107.555 98.664C109.603 97.896 111.779 97.512 114.083 97.512C116.387 97.512 118.563 97.896 120.611 98.664C122.659 99.432 124.429 100.52 125.923 101.928C127.416 103.336 128.589 105.043 129.443 107.048C130.339 109.011 130.787 111.208 130.787 113.64C130.787 116.072 130.339 118.291 129.443 120.296C128.589 122.259 127.416 123.944 125.923 125.352C124.429 126.76 122.659 127.848 120.611 128.616C118.563 129.384 116.387 129.768 114.083 129.768C111.779 129.768 109.603 129.384 107.555 128.616C105.507 127.848 103.736 126.76 102.243 125.352C100.749 123.944 99.5545 122.259 98.6585 120.296C97.8052 118.291 97.3785 116.072 97.3785 113.64ZM105.059 113.64C105.059 114.835 105.251 115.987 105.635 117.096C106.061 118.205 106.659 119.187 107.427 120.04C108.237 120.893 109.197 121.576 110.307 122.088C111.416 122.6 112.675 122.856 114.083 122.856C115.491 122.856 116.749 122.6 117.859 122.088C118.968 121.576 119.907 120.893 120.675 120.04C121.485 119.187 122.083 118.205 122.467 117.096C122.893 115.987 123.107 114.835 123.107 113.64C123.107 112.445 122.893 111.293 122.467 110.184C122.083 109.075 121.485 108.093 120.675 107.24C119.907 106.387 118.968 105.704 117.859 105.192C116.749 104.68 115.491 104.424 114.083 104.424C112.675 104.424 111.416 104.68 110.307 105.192C109.197 105.704 108.237 106.387 107.427 107.24C106.659 108.093 106.061 109.075 105.635 110.184C105.251 111.293 105.059 112.445 105.059 113.64ZM166.009 129H158.713V124.072H158.585C157.86 125.608 156.75 126.952 155.257 128.104C153.764 129.213 151.737 129.768 149.177 129.768C147.129 129.768 145.38 129.448 143.929 128.808C142.521 128.125 141.369 127.229 140.473 126.12C139.577 124.968 138.937 123.667 138.553 122.216C138.169 120.765 137.977 119.251 137.977 117.672V98.28H145.657V113.832C145.657 114.685 145.7 115.645 145.785 116.712C145.87 117.736 146.084 118.717 146.425 119.656C146.809 120.552 147.364 121.32 148.089 121.96C148.857 122.557 149.924 122.856 151.289 122.856C152.569 122.856 153.636 122.643 154.489 122.216C155.385 121.789 156.11 121.213 156.665 120.488C157.262 119.763 157.689 118.931 157.945 117.992C158.201 117.053 158.329 116.072 158.329 115.048V98.28H166.009V129ZM174.727 98.28H182.023V103.208H182.151C182.876 101.672 183.986 100.349 185.479 99.24C186.972 98.088 188.999 97.512 191.559 97.512C193.607 97.512 195.335 97.8533 196.743 98.536C198.194 99.2187 199.367 100.115 200.263 101.224C201.159 102.333 201.799 103.613 202.183 105.064C202.567 106.515 202.759 108.029 202.759 109.608V129H195.079V113.448C195.079 112.595 195.036 111.656 194.951 110.632C194.866 109.565 194.631 108.584 194.247 107.688C193.906 106.749 193.351 105.981 192.583 105.384C191.815 104.744 190.77 104.424 189.447 104.424C188.167 104.424 187.079 104.637 186.183 105.064C185.33 105.491 184.604 106.067 184.007 106.792C183.452 107.517 183.047 108.349 182.791 109.288C182.535 110.227 182.407 111.208 182.407 112.232V129H174.727V98.28ZM235.797 124.392H235.669C234.56 126.269 233.066 127.635 231.189 128.488C229.312 129.341 227.285 129.768 225.109 129.768C222.72 129.768 220.586 129.363 218.709 128.552C216.874 127.699 215.296 126.547 213.973 125.096C212.65 123.645 211.648 121.939 210.965 119.976C210.282 118.013 209.941 115.901 209.941 113.64C209.941 111.379 210.304 109.267 211.029 107.304C211.754 105.341 212.757 103.635 214.037 102.184C215.36 100.733 216.938 99.6027 218.773 98.792C220.608 97.9387 222.613 97.512 224.789 97.512C226.24 97.512 227.52 97.6613 228.629 97.96C229.738 98.2587 230.72 98.6427 231.573 99.112C232.426 99.5813 233.152 100.093 233.749 100.648C234.346 101.16 234.837 101.672 235.221 102.184H235.413V80.616H243.093V129H235.797V124.392ZM217.621 113.64C217.621 114.835 217.813 115.987 218.197 117.096C218.624 118.205 219.221 119.187 219.989 120.04C220.8 120.893 221.76 121.576 222.869 122.088C223.978 122.6 225.237 122.856 226.645 122.856C228.053 122.856 229.312 122.6 230.421 122.088C231.53 121.576 232.469 120.893 233.237 120.04C234.048 119.187 234.645 118.205 235.029 117.096C235.456 115.987 235.669 114.835 235.669 113.64C235.669 112.445 235.456 111.293 235.029 110.184C234.645 109.075 234.048 108.093 233.237 107.24C232.469 106.387 231.53 105.704 230.421 105.192C229.312 104.68 228.053 104.424 226.645 104.424C225.237 104.424 223.978 104.68 222.869 105.192C221.76 105.704 220.8 106.387 219.989 107.24C219.221 108.093 218.624 109.075 218.197 110.184C217.813 111.293 217.621 112.445 217.621 113.64ZM267.143 104.808V98.28H273.479V89.384H281.159V98.28H289.607V104.808H281.159V118.248C281.159 119.784 281.436 121 281.991 121.896C282.588 122.792 283.74 123.24 285.447 123.24C286.13 123.24 286.876 123.176 287.687 123.048C288.498 122.877 289.138 122.621 289.607 122.28V128.744C288.796 129.128 287.794 129.384 286.599 129.512C285.447 129.683 284.423 129.768 283.527 129.768C281.479 129.768 279.794 129.533 278.471 129.064C277.191 128.637 276.167 127.976 275.399 127.08C274.674 126.141 274.162 124.989 273.863 123.624C273.607 122.259 273.479 120.68 273.479 118.888V104.808H267.143ZM303.345 102.568H303.473C304.07 101.288 305.115 100.136 306.609 99.112C308.145 98.0453 310.107 97.512 312.497 97.512C314.545 97.512 316.273 97.8533 317.681 98.536C319.131 99.2187 320.305 100.115 321.201 101.224C322.097 102.333 322.737 103.613 323.121 105.064C323.505 106.515 323.697 108.029 323.697 109.608V129H316.017V113.448C316.017 112.595 315.974 111.656 315.889 110.632C315.803 109.565 315.569 108.584 315.185 107.688C314.843 106.749 314.289 105.981 313.521 105.384C312.753 104.744 311.707 104.424 310.385 104.424C309.105 104.424 308.017 104.637 307.121 105.064C306.267 105.491 305.542 106.067 304.945 106.792C304.39 107.517 303.985 108.349 303.729 109.288C303.473 110.227 303.345 111.208 303.345 112.232V129H295.665V80.616H303.345V102.568ZM338.559 116.328C338.815 118.632 339.711 120.424 341.247 121.704C342.783 122.984 344.639 123.624 346.815 123.624C348.735 123.624 350.335 123.24 351.615 122.472C352.937 121.661 354.089 120.659 355.071 119.464L360.575 123.624C358.783 125.843 356.777 127.421 354.559 128.36C352.34 129.299 350.015 129.768 347.583 129.768C345.279 129.768 343.103 129.384 341.055 128.616C339.007 127.848 337.236 126.76 335.743 125.352C334.249 123.944 333.055 122.259 332.159 120.296C331.305 118.291 330.879 116.072 330.879 113.64C330.879 111.208 331.305 109.011 332.159 107.048C333.055 105.043 334.249 103.336 335.743 101.928C337.236 100.52 339.007 99.432 341.055 98.664C343.103 97.896 345.279 97.512 347.583 97.512C349.716 97.512 351.657 97.896 353.407 98.664C355.199 99.3893 356.713 100.456 357.951 101.864C359.231 103.272 360.212 105.021 360.895 107.112C361.62 109.16 361.983 111.528 361.983 114.216V116.328H338.559ZM354.303 110.568C354.26 108.307 353.556 106.536 352.191 105.256C350.825 103.933 348.927 103.272 346.495 103.272C344.191 103.272 342.356 103.933 340.991 105.256C339.668 106.579 338.857 108.349 338.559 110.568H354.303ZM383.942 98.28H392.262L398.918 119.784H399.046L405.254 98.28H413.574L420.23 119.784H420.358L426.758 98.28H434.502L424.07 129H416.454L409.158 108.008H409.03L402.566 129H394.63L383.942 98.28ZM437.504 113.64C437.504 111.208 437.93 109.011 438.784 107.048C439.68 105.043 440.874 103.336 442.368 101.928C443.861 100.52 445.632 99.432 447.68 98.664C449.728 97.896 451.904 97.512 454.208 97.512C456.512 97.512 458.688 97.896 460.736 98.664C462.784 99.432 464.554 100.52 466.048 101.928C467.541 103.336 468.714 105.043 469.568 107.048C470.464 109.011 470.912 111.208 470.912 113.64C470.912 116.072 470.464 118.291 469.568 120.296C468.714 122.259 467.541 123.944 466.048 125.352C464.554 126.76 462.784 127.848 460.736 128.616C458.688 129.384 456.512 129.768 454.208 129.768C451.904 129.768 449.728 129.384 447.68 128.616C445.632 127.848 443.861 126.76 442.368 125.352C440.874 123.944 439.68 122.259 438.784 120.296C437.93 118.291 437.504 116.072 437.504 113.64ZM445.184 113.64C445.184 114.835 445.376 115.987 445.76 117.096C446.186 118.205 446.784 119.187 447.552 120.04C448.362 120.893 449.322 121.576 450.432 122.088C451.541 122.6 452.8 122.856 454.208 122.856C455.616 122.856 456.874 122.6 457.984 122.088C459.093 121.576 460.032 120.893 460.8 120.04C461.61 119.187 462.208 118.205 462.592 117.096C463.018 115.987 463.232 114.835 463.232 113.64C463.232 112.445 463.018 111.293 462.592 110.184C462.208 109.075 461.61 108.093 460.8 107.24C460.032 106.387 459.093 105.704 457.984 105.192C456.874 104.68 455.616 104.424 454.208 104.424C452.8 104.424 451.541 104.68 450.432 105.192C449.322 105.704 448.362 106.387 447.552 107.24C446.784 108.093 446.186 109.075 445.76 110.184C445.376 111.293 445.184 112.445 445.184 113.64ZM478.102 98.28H485.782V103.144H485.91C486.763 101.352 487.979 99.9653 489.558 98.984C491.137 98.0027 492.95 97.512 494.998 97.512C495.467 97.512 495.915 97.5547 496.342 97.64C496.811 97.7253 497.281 97.832 497.75 97.96V105.384C497.11 105.213 496.47 105.085 495.83 105C495.233 104.872 494.635 104.808 494.038 104.808C492.246 104.808 490.795 105.149 489.686 105.832C488.619 106.472 487.787 107.219 487.19 108.072C486.635 108.925 486.251 109.779 486.038 110.632C485.867 111.485 485.782 112.125 485.782 112.552V129H478.102V98.28ZM503.105 80.616H510.785V129H503.105V80.616ZM543.922 124.392H543.794C542.685 126.269 541.191 127.635 539.314 128.488C537.437 129.341 535.41 129.768 533.234 129.768C530.845 129.768 528.711 129.363 526.834 128.552C524.999 127.699 523.421 126.547 522.098 125.096C520.775 123.645 519.773 121.939 519.09 119.976C518.407 118.013 518.066 115.901 518.066 113.64C518.066 111.379 518.429 109.267 519.154 107.304C519.879 105.341 520.882 103.635 522.162 102.184C523.485 100.733 525.063 99.6027 526.898 98.792C528.733 97.9387 530.738 97.512 532.914 97.512C534.365 97.512 535.645 97.6613 536.754 97.96C537.863 98.2587 538.845 98.6427 539.698 99.112C540.551 99.5813 541.277 100.093 541.874 100.648C542.471 101.16 542.962 101.672 543.346 102.184H543.538V80.616H551.218V129H543.922V124.392ZM525.746 113.64C525.746 114.835 525.938 115.987 526.322 117.096C526.749 118.205 527.346 119.187 528.114 120.04C528.925 120.893 529.885 121.576 530.994 122.088C532.103 122.6 533.362 122.856 534.77 122.856C536.178 122.856 537.437 122.6 538.546 122.088C539.655 121.576 540.594 120.893 541.362 120.04C542.173 119.187 542.77 118.205 543.154 117.096C543.581 115.987 543.794 114.835 543.794 113.64C543.794 112.445 543.581 111.293 543.154 110.184C542.77 109.075 542.173 108.093 541.362 107.24C540.594 106.387 539.655 105.704 538.546 105.192C537.437 104.68 536.178 104.424 534.77 104.424C533.362 104.424 532.103 104.68 530.994 105.192C529.885 105.704 528.925 106.387 528.114 107.24C527.346 108.093 526.749 109.075 526.322 110.184C525.938 111.293 525.746 112.445 525.746 113.64Z" fill="#252525"/>
</svg>
