<svg width="158" height="54" viewBox="0 0 158 54" fill="none" xmlns="http://www.w3.org/2000/svg">
<rect width="158" height="54" rx="16" fill="#252525"/>
<path d="M49.584 20.256H57.594V21.66H51.096V25.656H57.162V27.06H51.096V31.596H57.918V33H49.584V20.256ZM62.1799 28.464L59.1559 24.576H60.9919L63.2239 27.6L65.3299 24.576H67.0399L64.1419 28.464L67.6159 33H65.7619L63.0979 29.364L60.4699 33H58.7239L62.1799 28.464ZM68.9299 24.576H70.3339V25.8H70.3699C70.7539 25.344 71.1979 24.99 71.7019 24.738C72.2179 24.486 72.7819 24.36 73.3939 24.36C74.0539 24.36 74.6539 24.474 75.1939 24.702C75.7459 24.918 76.2139 25.224 76.5979 25.62C76.9819 26.016 77.2819 26.484 77.4979 27.024C77.7139 27.564 77.8219 28.152 77.8219 28.788C77.8219 29.424 77.7139 30.012 77.4979 30.552C77.2819 31.092 76.9819 31.56 76.5979 31.956C76.2259 32.352 75.7819 32.664 75.2659 32.892C74.7499 33.108 74.1979 33.216 73.6099 33.216C72.8539 33.216 72.1879 33.054 71.6119 32.73C71.0479 32.394 70.6339 31.986 70.3699 31.506H70.3339V37.104H68.9299V24.576ZM70.3339 28.788C70.3339 29.232 70.3999 29.646 70.5319 30.03C70.6759 30.402 70.8799 30.732 71.1439 31.02C71.4079 31.296 71.7199 31.518 72.0799 31.686C72.4519 31.842 72.8659 31.92 73.3219 31.92C73.7779 31.92 74.1859 31.842 74.5459 31.686C74.9179 31.518 75.2359 31.296 75.4999 31.02C75.7639 30.732 75.9619 30.402 76.0939 30.03C76.2379 29.646 76.3099 29.232 76.3099 28.788C76.3099 28.344 76.2379 27.936 76.0939 27.564C75.9619 27.18 75.7639 26.85 75.4999 26.574C75.2359 26.286 74.9179 26.064 74.5459 25.908C74.1859 25.74 73.7779 25.656 73.3219 25.656C72.8659 25.656 72.4519 25.74 72.0799 25.908C71.7199 26.064 71.4079 26.286 71.1439 26.574C70.8799 26.85 70.6759 27.18 70.5319 27.564C70.3999 27.936 70.3339 28.344 70.3339 28.788ZM80.1318 19.392H81.5358V33H80.1318V19.392ZM83.844 28.788C83.844 28.128 83.958 27.528 84.186 26.988C84.414 26.448 84.726 25.986 85.122 25.602C85.518 25.206 85.992 24.9 86.544 24.684C87.096 24.468 87.696 24.36 88.344 24.36C88.992 24.36 89.592 24.468 90.144 24.684C90.696 24.9 91.17 25.206 91.566 25.602C91.962 25.986 92.274 26.448 92.502 26.988C92.73 27.528 92.844 28.128 92.844 28.788C92.844 29.448 92.73 30.048 92.502 30.588C92.274 31.128 91.962 31.596 91.566 31.992C91.17 32.376 90.696 32.676 90.144 32.892C89.592 33.108 88.992 33.216 88.344 33.216C87.696 33.216 87.096 33.108 86.544 32.892C85.992 32.676 85.518 32.376 85.122 31.992C84.726 31.596 84.414 31.128 84.186 30.588C83.958 30.048 83.844 29.448 83.844 28.788ZM85.356 28.788C85.356 29.232 85.422 29.646 85.554 30.03C85.698 30.402 85.902 30.732 86.166 31.02C86.43 31.296 86.742 31.518 87.102 31.686C87.474 31.842 87.888 31.92 88.344 31.92C88.8 31.92 89.208 31.842 89.568 31.686C89.94 31.518 90.258 31.296 90.522 31.02C90.786 30.732 90.984 30.402 91.116 30.03C91.26 29.646 91.332 29.232 91.332 28.788C91.332 28.344 91.26 27.936 91.116 27.564C90.984 27.18 90.786 26.85 90.522 26.574C90.258 26.286 89.94 26.064 89.568 25.908C89.208 25.74 88.8 25.656 88.344 25.656C87.888 25.656 87.474 25.74 87.102 25.908C86.742 26.064 86.43 26.286 86.166 26.574C85.902 26.85 85.698 27.18 85.554 27.564C85.422 27.936 85.356 28.344 85.356 28.788ZM95.0175 26.574C95.0175 26.19 95.0055 25.83 94.9815 25.494C94.9575 25.158 94.9455 24.852 94.9455 24.576H96.2775C96.2775 24.804 96.2835 25.032 96.2955 25.26C96.3075 25.488 96.3135 25.722 96.3135 25.962H96.3495C96.4455 25.758 96.5775 25.56 96.7455 25.368C96.9255 25.176 97.1355 25.008 97.3755 24.864C97.6155 24.708 97.8855 24.588 98.1855 24.504C98.4855 24.408 98.8095 24.36 99.1575 24.36C99.2535 24.36 99.3495 24.366 99.4455 24.378C99.5415 24.39 99.6375 24.414 99.7335 24.45L99.6435 25.872C99.4035 25.8 99.1515 25.764 98.8875 25.764C98.0235 25.764 97.3935 26.046 96.9975 26.61C96.6135 27.162 96.4215 27.924 96.4215 28.896V33H95.0175V26.574ZM108.553 31.47C108.049 32.118 107.497 32.574 106.897 32.838C106.297 33.09 105.601 33.216 104.809 33.216C104.149 33.216 103.555 33.102 103.027 32.874C102.499 32.634 102.049 32.316 101.677 31.92C101.317 31.524 101.035 31.056 100.831 30.516C100.639 29.976 100.543 29.4 100.543 28.788C100.543 28.14 100.651 27.546 100.867 27.006C101.083 26.454 101.383 25.986 101.767 25.602C102.151 25.206 102.607 24.9 103.135 24.684C103.663 24.468 104.239 24.36 104.863 24.36C105.451 24.36 105.991 24.462 106.483 24.666C106.975 24.858 107.395 25.146 107.743 25.53C108.103 25.902 108.379 26.364 108.571 26.916C108.763 27.456 108.859 28.074 108.859 28.77V29.22H102.055C102.079 29.58 102.163 29.928 102.307 30.264C102.463 30.588 102.661 30.876 102.901 31.128C103.141 31.368 103.423 31.56 103.747 31.704C104.071 31.848 104.425 31.92 104.809 31.92C105.421 31.92 105.937 31.812 106.357 31.596C106.777 31.38 107.155 31.062 107.491 30.642L108.553 31.47ZM107.347 28.032C107.323 27.312 107.089 26.736 106.645 26.304C106.201 25.872 105.589 25.656 104.809 25.656C104.029 25.656 103.399 25.872 102.919 26.304C102.439 26.736 102.151 27.312 102.055 28.032H107.347Z" fill="white"/>
</svg>
