<svg width="818" height="161" viewBox="0 0 818 161" fill="none" xmlns="http://www.w3.org/2000/svg">
<path d="M5.688 4.024H25.776C29.136 4.024 32.376 4.552 35.496 5.608C38.616 6.616 41.376 8.176 43.776 10.288C46.176 12.4 48.096 15.064 49.536 18.28C50.976 21.448 51.696 25.192 51.696 29.512C51.696 33.88 50.856 37.672 49.176 40.888C47.544 44.056 45.408 46.696 42.768 48.808C40.176 50.872 37.272 52.432 34.056 53.488C30.888 54.496 27.768 55 24.696 55H5.688V4.024ZM21.528 46.792C24.36 46.792 27.024 46.48 29.52 45.856C32.064 45.184 34.272 44.176 36.144 42.832C38.016 41.44 39.48 39.664 40.536 37.504C41.64 35.296 42.192 32.632 42.192 29.512C42.192 26.44 41.712 23.8 40.752 21.592C39.792 19.384 38.448 17.608 36.72 16.264C35.04 14.872 33.024 13.864 30.672 13.24C28.368 12.568 25.824 12.232 23.04 12.232H14.76V46.792H21.528ZM66.4408 40.744C66.7288 43.336 67.7368 45.352 69.4648 46.792C71.1928 48.232 73.2808 48.952 75.7288 48.952C77.8888 48.952 79.6888 48.52 81.1288 47.656C82.6168 46.744 83.9128 45.616 85.0168 44.272L91.2088 48.952C89.1928 51.448 86.9368 53.224 84.4408 54.28C81.9448 55.336 79.3288 55.864 76.5928 55.864C74.0008 55.864 71.5528 55.432 69.2488 54.568C66.9448 53.704 64.9528 52.48 63.2728 50.896C61.5928 49.312 60.2488 47.416 59.2408 45.208C58.2808 42.952 57.8008 40.456 57.8008 37.72C57.8008 34.984 58.2808 32.512 59.2408 30.304C60.2488 28.048 61.5928 26.128 63.2728 24.544C64.9528 22.96 66.9448 21.736 69.2488 20.872C71.5528 20.008 74.0008 19.576 76.5928 19.576C78.9928 19.576 81.1768 20.008 83.1448 20.872C85.1608 21.688 86.8648 22.888 88.2568 24.472C89.6968 26.056 90.8008 28.024 91.5688 30.376C92.3848 32.68 92.7928 35.344 92.7928 38.368V40.744H66.4408ZM84.1528 34.264C84.1048 31.72 83.3128 29.728 81.7768 28.288C80.2408 26.8 78.1048 26.056 75.3688 26.056C72.7768 26.056 70.7128 26.8 69.1768 28.288C67.6888 29.776 66.7768 31.768 66.4408 34.264H84.1528ZM119.305 30.016C117.625 27.664 115.369 26.488 112.537 26.488C111.385 26.488 110.257 26.776 109.153 27.352C108.049 27.928 107.497 28.864 107.497 30.16C107.497 31.216 107.953 31.984 108.865 32.464C109.777 32.944 110.929 33.352 112.321 33.688C113.713 34.024 115.201 34.384 116.785 34.768C118.417 35.104 119.929 35.656 121.321 36.424C122.713 37.144 123.865 38.152 124.777 39.448C125.689 40.744 126.145 42.52 126.145 44.776C126.145 46.84 125.689 48.592 124.777 50.032C123.913 51.424 122.761 52.552 121.321 53.416C119.929 54.28 118.345 54.904 116.569 55.288C114.793 55.672 113.017 55.864 111.241 55.864C108.553 55.864 106.081 55.48 103.825 54.712C101.569 53.944 99.5526 52.552 97.7766 50.536L103.537 45.136C104.641 46.384 105.817 47.416 107.065 48.232C108.361 49 109.921 49.384 111.745 49.384C112.369 49.384 113.017 49.312 113.689 49.168C114.361 49.024 114.985 48.784 115.561 48.448C116.137 48.112 116.593 47.704 116.929 47.224C117.313 46.696 117.505 46.096 117.505 45.424C117.505 44.224 117.049 43.336 116.137 42.76C115.225 42.184 114.073 41.728 112.681 41.392C111.289 41.008 109.777 40.672 108.145 40.384C106.561 40.048 105.073 39.544 103.681 38.872C102.289 38.152 101.137 37.168 100.225 35.92C99.3126 34.672 98.8566 32.944 98.8566 30.736C98.8566 28.816 99.2406 27.16 100.009 25.768C100.825 24.328 101.881 23.152 103.177 22.24C104.473 21.328 105.961 20.656 107.641 20.224C109.321 19.792 111.025 19.576 112.753 19.576C115.057 19.576 117.337 19.984 119.593 20.8C121.849 21.568 123.673 22.912 125.065 24.832L119.305 30.016ZM133.009 20.44H141.649V55H133.009V20.44ZM131.785 8.704C131.785 7.312 132.289 6.112 133.297 5.104C134.353 4.048 135.673 3.52 137.257 3.52C138.841 3.52 140.161 4.024 141.217 5.032C142.321 5.992 142.873 7.216 142.873 8.704C142.873 10.192 142.321 11.44 141.217 12.448C140.161 13.408 138.841 13.888 137.257 13.888C135.673 13.888 134.353 13.384 133.297 12.376C132.289 11.32 131.785 10.096 131.785 8.704ZM187.136 20.44V51.904C187.136 55.024 186.752 57.832 185.984 60.328C185.216 62.872 184.016 65.008 182.384 66.736C180.8 68.512 178.784 69.88 176.336 70.84C173.888 71.8 170.984 72.28 167.624 72.28C164.408 72.28 161.36 71.872 158.48 71.056C155.6 70.24 152.936 68.752 150.488 66.592L155.672 59.536C157.4 61.12 159.2 62.344 161.072 63.208C162.944 64.072 165.104 64.504 167.552 64.504C169.616 64.504 171.344 64.216 172.736 63.64C174.176 63.064 175.304 62.272 176.12 61.264C176.984 60.256 177.584 59.032 177.92 57.592C178.304 56.2 178.496 54.64 178.496 52.912V50.392H178.352C177.104 52.072 175.448 53.344 173.384 54.208C171.32 55.024 169.208 55.432 167.048 55.432C164.456 55.432 162.104 54.976 159.992 54.064C157.88 53.104 156.056 51.832 154.52 50.248C153.032 48.664 151.88 46.792 151.064 44.632C150.248 42.472 149.84 40.168 149.84 37.72C149.84 35.176 150.224 32.8 150.992 30.592C151.76 28.384 152.888 26.464 154.376 24.832C155.864 23.2 157.64 21.928 159.704 21.016C161.816 20.056 164.216 19.576 166.904 19.576C169.352 19.576 171.632 20.056 173.744 21.016C175.856 21.976 177.536 23.512 178.784 25.624H178.928V20.44H187.136ZM168.704 27.352C167.168 27.352 165.776 27.616 164.528 28.144C163.28 28.624 162.2 29.32 161.288 30.232C160.424 31.096 159.728 32.176 159.2 33.472C158.72 34.72 158.48 36.112 158.48 37.648C158.48 39.04 158.72 40.336 159.2 41.536C159.728 42.736 160.448 43.792 161.36 44.704C162.272 45.616 163.352 46.336 164.6 46.864C165.848 47.392 167.192 47.656 168.632 47.656C170.216 47.656 171.632 47.392 172.88 46.864C174.176 46.336 175.256 45.64 176.12 44.776C177.032 43.864 177.728 42.784 178.208 41.536C178.688 40.288 178.928 38.944 178.928 37.504C178.928 34.48 178.016 32.032 176.192 30.16C174.368 28.288 171.872 27.352 168.704 27.352ZM196.919 20.44H205.127V25.984H205.271C206.087 24.256 207.335 22.768 209.015 21.52C210.695 20.224 212.975 19.576 215.855 19.576C218.159 19.576 220.103 19.96 221.687 20.728C223.319 21.496 224.639 22.504 225.647 23.752C226.655 25 227.375 26.44 227.807 28.072C228.239 29.704 228.455 31.408 228.455 33.184V55H219.815V37.504C219.815 36.544 219.767 35.488 219.671 34.336C219.575 33.136 219.311 32.032 218.879 31.024C218.495 29.968 217.871 29.104 217.007 28.432C216.143 27.712 214.967 27.352 213.479 27.352C212.039 27.352 210.815 27.592 209.807 28.072C208.847 28.552 208.031 29.2 207.359 30.016C206.735 30.832 206.279 31.768 205.991 32.824C205.703 33.88 205.559 34.984 205.559 36.136V55H196.919V20.44ZM259.712 20.44H268.352V55H259.712V20.44ZM258.488 8.704C258.488 7.312 258.992 6.112 260 5.104C261.056 4.048 262.376 3.52 263.96 3.52C265.544 3.52 266.864 4.024 267.92 5.032C269.024 5.992 269.576 7.216 269.576 8.704C269.576 10.192 269.024 11.44 267.92 12.448C266.864 13.408 265.544 13.888 263.96 13.888C262.376 13.888 261.056 13.384 260 12.376C258.992 11.32 258.488 10.096 258.488 8.704ZM296.703 30.016C295.023 27.664 292.767 26.488 289.935 26.488C288.783 26.488 287.655 26.776 286.551 27.352C285.447 27.928 284.895 28.864 284.895 30.16C284.895 31.216 285.351 31.984 286.263 32.464C287.175 32.944 288.327 33.352 289.719 33.688C291.111 34.024 292.599 34.384 294.183 34.768C295.815 35.104 297.327 35.656 298.719 36.424C300.111 37.144 301.263 38.152 302.175 39.448C303.087 40.744 303.543 42.52 303.543 44.776C303.543 46.84 303.087 48.592 302.175 50.032C301.311 51.424 300.159 52.552 298.719 53.416C297.327 54.28 295.743 54.904 293.967 55.288C292.191 55.672 290.415 55.864 288.639 55.864C285.951 55.864 283.479 55.48 281.223 54.712C278.967 53.944 276.951 52.552 275.175 50.536L280.935 45.136C282.039 46.384 283.215 47.416 284.463 48.232C285.759 49 287.319 49.384 289.143 49.384C289.767 49.384 290.415 49.312 291.087 49.168C291.759 49.024 292.383 48.784 292.959 48.448C293.535 48.112 293.991 47.704 294.327 47.224C294.711 46.696 294.903 46.096 294.903 45.424C294.903 44.224 294.447 43.336 293.535 42.76C292.623 42.184 291.471 41.728 290.079 41.392C288.687 41.008 287.175 40.672 285.543 40.384C283.959 40.048 282.471 39.544 281.079 38.872C279.687 38.152 278.535 37.168 277.623 35.92C276.711 34.672 276.255 32.944 276.255 30.736C276.255 28.816 276.639 27.16 277.407 25.768C278.223 24.328 279.279 23.152 280.575 22.24C281.871 21.328 283.359 20.656 285.039 20.224C286.719 19.792 288.423 19.576 290.151 19.576C292.455 19.576 294.735 19.984 296.991 20.8C299.247 21.568 301.071 22.912 302.463 24.832L296.703 30.016ZM327.536 27.784V20.44H334.664V10.432H343.304V20.44H352.808V27.784H343.304V42.904C343.304 44.632 343.616 46 344.24 47.008C344.912 48.016 346.208 48.52 348.128 48.52C348.896 48.52 349.736 48.448 350.648 48.304C351.56 48.112 352.28 47.824 352.808 47.44V54.712C351.896 55.144 350.768 55.432 349.424 55.576C348.128 55.768 346.976 55.864 345.968 55.864C343.664 55.864 341.768 55.6 340.28 55.072C338.84 54.592 337.688 53.848 336.824 52.84C336.008 51.784 335.432 50.488 335.096 48.952C334.808 47.416 334.664 45.64 334.664 43.624V27.784H327.536ZM368.263 25.264H368.407C369.079 23.824 370.255 22.528 371.935 21.376C373.663 20.176 375.871 19.576 378.559 19.576C380.863 19.576 382.807 19.96 384.391 20.728C386.023 21.496 387.343 22.504 388.351 23.752C389.359 25 390.079 26.44 390.511 28.072C390.943 29.704 391.159 31.408 391.159 33.184V55H382.519V37.504C382.519 36.544 382.471 35.488 382.375 34.336C382.279 33.136 382.015 32.032 381.583 31.024C381.199 29.968 380.575 29.104 379.711 28.432C378.847 27.712 377.671 27.352 376.183 27.352C374.743 27.352 373.519 27.592 372.511 28.072C371.551 28.552 370.735 29.2 370.063 30.016C369.439 30.832 368.983 31.768 368.695 32.824C368.407 33.88 368.263 34.984 368.263 36.136V55H359.623V0.567997H368.263V25.264ZM407.878 40.744C408.166 43.336 409.174 45.352 410.902 46.792C412.63 48.232 414.718 48.952 417.166 48.952C419.326 48.952 421.126 48.52 422.566 47.656C424.054 46.744 425.35 45.616 426.454 44.272L432.646 48.952C430.63 51.448 428.374 53.224 425.878 54.28C423.382 55.336 420.766 55.864 418.03 55.864C415.438 55.864 412.99 55.432 410.686 54.568C408.382 53.704 406.39 52.48 404.71 50.896C403.03 49.312 401.686 47.416 400.678 45.208C399.718 42.952 399.238 40.456 399.238 37.72C399.238 34.984 399.718 32.512 400.678 30.304C401.686 28.048 403.03 26.128 404.71 24.544C406.39 22.96 408.382 21.736 410.686 20.872C412.99 20.008 415.438 19.576 418.03 19.576C420.43 19.576 422.614 20.008 424.582 20.872C426.598 21.688 428.302 22.888 429.694 24.472C431.134 26.056 432.238 28.024 433.006 30.376C433.822 32.68 434.23 35.344 434.23 38.368V40.744H407.878ZM425.59 34.264C425.542 31.72 424.75 29.728 423.214 28.288C421.678 26.8 419.542 26.056 416.806 26.056C414.214 26.056 412.15 26.8 410.614 28.288C409.126 29.776 408.214 31.768 407.878 34.264H425.59ZM458.935 20.44H468.295L475.783 44.632H475.927L482.911 20.44H492.271L499.759 44.632H499.903L507.103 20.44H515.815L504.079 55H495.511L487.303 31.384H487.159L479.887 55H470.959L458.935 20.44ZM542.519 50.248H542.303C541.055 52.216 539.471 53.656 537.551 54.568C535.631 55.432 533.519 55.864 531.215 55.864C529.631 55.864 528.071 55.648 526.535 55.216C525.047 54.784 523.703 54.136 522.503 53.272C521.351 52.408 520.415 51.328 519.695 50.032C518.975 48.736 518.615 47.224 518.615 45.496C518.615 43.624 518.951 42.04 519.623 40.744C520.295 39.4 521.183 38.296 522.287 37.432C523.439 36.52 524.759 35.8 526.247 35.272C527.735 34.744 529.271 34.36 530.855 34.12C532.487 33.832 534.119 33.664 535.751 33.616C537.383 33.52 538.919 33.472 540.359 33.472H542.519V32.536C542.519 30.376 541.775 28.768 540.287 27.712C538.799 26.608 536.903 26.056 534.599 26.056C532.775 26.056 531.071 26.392 529.487 27.064C527.903 27.688 526.535 28.552 525.383 29.656L520.847 25.12C522.767 23.152 524.999 21.736 527.543 20.872C530.135 20.008 532.799 19.576 535.535 19.576C537.983 19.576 540.047 19.864 541.727 20.44C543.407 20.968 544.799 21.664 545.903 22.528C547.007 23.392 547.847 24.4 548.423 25.552C549.047 26.656 549.479 27.784 549.719 28.936C550.007 30.088 550.175 31.216 550.223 32.32C550.271 33.376 550.295 34.312 550.295 35.128V55H542.519V50.248ZM542.015 39.52H540.215C539.015 39.52 537.671 39.568 536.183 39.664C534.695 39.76 533.279 40 531.935 40.384C530.639 40.72 529.535 41.248 528.623 41.968C527.711 42.64 527.255 43.6 527.255 44.848C527.255 45.664 527.423 46.36 527.759 46.936C528.143 47.464 528.623 47.92 529.199 48.304C529.775 48.688 530.423 48.976 531.143 49.168C531.863 49.312 532.583 49.384 533.303 49.384C536.279 49.384 538.463 48.688 539.855 47.296C541.295 45.856 542.015 43.912 542.015 41.464V39.52ZM554.911 20.44H564.415L574.063 44.416H574.207L582.847 20.44H591.847L575.503 62.416C574.879 64.048 574.183 65.464 573.415 66.664C572.695 67.912 571.831 68.944 570.823 69.76C569.815 70.624 568.615 71.248 567.223 71.632C565.879 72.064 564.247 72.28 562.327 72.28C560.071 72.28 557.863 71.992 555.703 71.416L556.783 63.64C557.455 63.88 558.151 64.072 558.871 64.216C559.639 64.408 560.407 64.504 561.175 64.504C562.231 64.504 563.119 64.408 563.839 64.216C564.559 64.024 565.159 63.712 565.639 63.28C566.167 62.896 566.599 62.368 566.935 61.696C567.271 61.072 567.631 60.304 568.015 59.392L569.671 55.288L554.911 20.44ZM626.872 25.264H627.016C627.688 23.824 628.864 22.528 630.544 21.376C632.272 20.176 634.48 19.576 637.168 19.576C639.472 19.576 641.416 19.96 643 20.728C644.632 21.496 645.952 22.504 646.96 23.752C647.968 25 648.688 26.44 649.12 28.072C649.552 29.704 649.768 31.408 649.768 33.184V55H641.128V37.504C641.128 36.544 641.08 35.488 640.984 34.336C640.888 33.136 640.624 32.032 640.192 31.024C639.808 29.968 639.184 29.104 638.32 28.432C637.456 27.712 636.28 27.352 634.792 27.352C633.352 27.352 632.128 27.592 631.12 28.072C630.16 28.552 629.344 29.2 628.672 30.016C628.048 30.832 627.592 31.768 627.304 32.824C627.016 33.88 626.872 34.984 626.872 36.136V55H618.232V0.567997H626.872V25.264ZM657.848 37.72C657.848 34.984 658.328 32.512 659.288 30.304C660.296 28.048 661.64 26.128 663.32 24.544C665 22.96 666.992 21.736 669.296 20.872C671.6 20.008 674.048 19.576 676.64 19.576C679.232 19.576 681.68 20.008 683.984 20.872C686.288 21.736 688.28 22.96 689.96 24.544C691.64 26.128 692.96 28.048 693.92 30.304C694.928 32.512 695.432 34.984 695.432 37.72C695.432 40.456 694.928 42.952 693.92 45.208C692.96 47.416 691.64 49.312 689.96 50.896C688.28 52.48 686.288 53.704 683.984 54.568C681.68 55.432 679.232 55.864 676.64 55.864C674.048 55.864 671.6 55.432 669.296 54.568C666.992 53.704 665 52.48 663.32 50.896C661.64 49.312 660.296 47.416 659.288 45.208C658.328 42.952 657.848 40.456 657.848 37.72ZM666.488 37.72C666.488 39.064 666.704 40.36 667.136 41.608C667.616 42.856 668.288 43.96 669.152 44.92C670.064 45.88 671.144 46.648 672.392 47.224C673.64 47.8 675.056 48.088 676.64 48.088C678.224 48.088 679.64 47.8 680.888 47.224C682.136 46.648 683.192 45.88 684.056 44.92C684.968 43.96 685.64 42.856 686.072 41.608C686.552 40.36 686.792 39.064 686.792 37.72C686.792 36.376 686.552 35.08 686.072 33.832C685.64 32.584 684.968 31.48 684.056 30.52C683.192 29.56 682.136 28.792 680.888 28.216C679.64 27.64 678.224 27.352 676.64 27.352C675.056 27.352 673.64 27.64 672.392 28.216C671.144 28.792 670.064 29.56 669.152 30.52C668.288 31.48 667.616 32.584 667.136 33.832C666.704 35.08 666.488 36.376 666.488 37.72ZM698.841 20.44H708.201L715.689 44.632H715.833L722.817 20.44H732.177L739.665 44.632H739.809L747.009 20.44H755.721L743.985 55H735.417L727.209 31.384H727.065L719.793 55H710.865L698.841 20.44ZM0.216 108.44H9.72L19.368 132.416H19.512L28.152 108.44H37.152L20.808 150.416C20.184 152.048 19.488 153.464 18.72 154.664C18 155.912 17.136 156.944 16.128 157.76C15.12 158.624 13.92 159.248 12.528 159.632C11.184 160.064 9.552 160.28 7.632 160.28C5.376 160.28 3.168 159.992 1.008 159.416L2.088 151.64C2.76 151.88 3.456 152.072 4.176 152.216C4.944 152.408 5.712 152.504 6.48 152.504C7.536 152.504 8.424 152.408 9.144 152.216C9.864 152.024 10.464 151.712 10.944 151.28C11.472 150.896 11.904 150.368 12.24 149.696C12.576 149.072 12.936 148.304 13.32 147.392L14.976 143.288L0.216 108.44ZM40.5039 125.72C40.5039 122.984 40.9839 120.512 41.9439 118.304C42.9519 116.048 44.2959 114.128 45.9759 112.544C47.6559 110.96 49.6479 109.736 51.9519 108.872C54.2559 108.008 56.7039 107.576 59.2959 107.576C61.8879 107.576 64.3359 108.008 66.6399 108.872C68.9439 109.736 70.9359 110.96 72.6159 112.544C74.2959 114.128 75.6159 116.048 76.5759 118.304C77.5839 120.512 78.0879 122.984 78.0879 125.72C78.0879 128.456 77.5839 130.952 76.5759 133.208C75.6159 135.416 74.2959 137.312 72.6159 138.896C70.9359 140.48 68.9439 141.704 66.6399 142.568C64.3359 143.432 61.8879 143.864 59.2959 143.864C56.7039 143.864 54.2559 143.432 51.9519 142.568C49.6479 141.704 47.6559 140.48 45.9759 138.896C44.2959 137.312 42.9519 135.416 41.9439 133.208C40.9839 130.952 40.5039 128.456 40.5039 125.72ZM49.1439 125.72C49.1439 127.064 49.3599 128.36 49.7919 129.608C50.2719 130.856 50.9439 131.96 51.8079 132.92C52.7199 133.88 53.7999 134.648 55.0479 135.224C56.2959 135.8 57.7119 136.088 59.2959 136.088C60.8799 136.088 62.2959 135.8 63.5439 135.224C64.7919 134.648 65.8479 133.88 66.7119 132.92C67.6239 131.96 68.2959 130.856 68.7279 129.608C69.2079 128.36 69.4479 127.064 69.4479 125.72C69.4479 124.376 69.2079 123.08 68.7279 121.832C68.2959 120.584 67.6239 119.48 66.7119 118.52C65.8479 117.56 64.7919 116.792 63.5439 116.216C62.2959 115.64 60.8799 115.352 59.2959 115.352C57.7119 115.352 56.2959 115.64 55.0479 116.216C53.7999 116.792 52.7199 117.56 51.8079 118.52C50.9439 119.48 50.2719 120.584 49.7919 121.832C49.3599 123.08 49.1439 124.376 49.1439 125.72ZM117.713 143H109.505V137.456H109.361C108.545 139.184 107.297 140.696 105.617 141.992C103.937 143.24 101.657 143.864 98.7773 143.864C96.4733 143.864 94.5053 143.504 92.8733 142.784C91.2893 142.016 89.9933 141.008 88.9853 139.76C87.9773 138.464 87.2573 137 86.8253 135.368C86.3933 133.736 86.1773 132.032 86.1773 130.256V108.44H94.8173V125.936C94.8173 126.896 94.8653 127.976 94.9613 129.176C95.0573 130.328 95.2973 131.432 95.6813 132.488C96.1133 133.496 96.7373 134.36 97.5533 135.08C98.4173 135.752 99.6173 136.088 101.153 136.088C102.593 136.088 103.793 135.848 104.753 135.368C105.761 134.888 106.577 134.24 107.201 133.424C107.873 132.608 108.353 131.672 108.641 130.616C108.929 129.56 109.073 128.456 109.073 127.304V108.44H117.713V143ZM155.738 128.744C156.026 131.336 157.034 133.352 158.762 134.792C160.49 136.232 162.578 136.952 165.026 136.952C167.186 136.952 168.986 136.52 170.426 135.656C171.914 134.744 173.21 133.616 174.314 132.272L180.506 136.952C178.49 139.448 176.234 141.224 173.738 142.28C171.242 143.336 168.626 143.864 165.89 143.864C163.298 143.864 160.85 143.432 158.546 142.568C156.242 141.704 154.25 140.48 152.57 138.896C150.89 137.312 149.546 135.416 148.538 133.208C147.578 130.952 147.098 128.456 147.098 125.72C147.098 122.984 147.578 120.512 148.538 118.304C149.546 116.048 150.89 114.128 152.57 112.544C154.25 110.96 156.242 109.736 158.546 108.872C160.85 108.008 163.298 107.576 165.89 107.576C168.29 107.576 170.474 108.008 172.442 108.872C174.458 109.688 176.162 110.888 177.554 112.472C178.994 114.056 180.098 116.024 180.866 118.376C181.682 120.68 182.09 123.344 182.09 126.368V128.744H155.738ZM173.45 122.264C173.402 119.72 172.61 117.728 171.074 116.288C169.538 114.8 167.402 114.056 164.666 114.056C162.074 114.056 160.01 114.8 158.474 116.288C156.986 117.776 156.074 119.768 155.738 122.264H173.45ZM199.097 124.424L187.145 108.44H197.657L204.569 118.808L212.057 108.44H221.921L210.113 124.424L224.009 143H213.497L204.497 130.616L195.425 143H185.201L199.097 124.424ZM228.841 108.44H237.049V113.624H237.193C238.441 111.512 240.121 109.976 242.233 109.016C244.345 108.056 246.625 107.576 249.073 107.576C251.713 107.576 254.089 108.056 256.201 109.016C258.313 109.928 260.113 111.2 261.601 112.832C263.089 114.464 264.217 116.384 264.985 118.592C265.753 120.8 266.137 123.176 266.137 125.72C266.137 128.264 265.729 130.64 264.913 132.848C264.097 135.056 262.945 136.976 261.457 138.608C260.017 140.24 258.265 141.536 256.201 142.496C254.137 143.408 251.881 143.864 249.433 143.864C247.801 143.864 246.361 143.696 245.113 143.36C243.865 143.024 242.761 142.592 241.801 142.064C240.841 141.536 240.025 140.984 239.353 140.408C238.681 139.784 238.129 139.184 237.697 138.608H237.481V159.416H228.841V108.44ZM257.497 125.72C257.497 124.376 257.257 123.08 256.777 121.832C256.345 120.584 255.673 119.48 254.761 118.52C253.897 117.56 252.841 116.792 251.593 116.216C250.345 115.64 248.929 115.352 247.345 115.352C245.761 115.352 244.345 115.64 243.097 116.216C241.849 116.792 240.769 117.56 239.857 118.52C238.993 119.48 238.321 120.584 237.841 121.832C237.409 123.08 237.193 124.376 237.193 125.72C237.193 127.064 237.409 128.36 237.841 129.608C238.321 130.856 238.993 131.96 239.857 132.92C240.769 133.88 241.849 134.648 243.097 135.224C244.345 135.8 245.761 136.088 247.345 136.088C248.929 136.088 250.345 135.8 251.593 135.224C252.841 134.648 253.897 133.88 254.761 132.92C255.673 131.96 256.345 130.856 256.777 129.608C257.257 128.36 257.497 127.064 257.497 125.72ZM274.193 108.44H282.833V113.912H282.977C283.937 111.896 285.305 110.336 287.081 109.232C288.857 108.128 290.897 107.576 293.201 107.576C293.729 107.576 294.233 107.624 294.713 107.72C295.241 107.816 295.769 107.936 296.297 108.08V116.432C295.577 116.24 294.857 116.096 294.137 116C293.465 115.856 292.793 115.784 292.121 115.784C290.105 115.784 288.473 116.168 287.225 116.936C286.025 117.656 285.089 118.496 284.417 119.456C283.793 120.416 283.361 121.376 283.121 122.336C282.929 123.296 282.833 124.016 282.833 124.496V143H274.193V108.44ZM307.824 128.744C308.112 131.336 309.12 133.352 310.848 134.792C312.576 136.232 314.664 136.952 317.112 136.952C319.272 136.952 321.072 136.52 322.512 135.656C324 134.744 325.296 133.616 326.4 132.272L332.592 136.952C330.576 139.448 328.32 141.224 325.824 142.28C323.328 143.336 320.712 143.864 317.976 143.864C315.384 143.864 312.936 143.432 310.632 142.568C308.328 141.704 306.336 140.48 304.656 138.896C302.976 137.312 301.632 135.416 300.624 133.208C299.664 130.952 299.184 128.456 299.184 125.72C299.184 122.984 299.664 120.512 300.624 118.304C301.632 116.048 302.976 114.128 304.656 112.544C306.336 110.96 308.328 109.736 310.632 108.872C312.936 108.008 315.384 107.576 317.976 107.576C320.376 107.576 322.56 108.008 324.528 108.872C326.544 109.688 328.248 110.888 329.64 112.472C331.08 114.056 332.184 116.024 332.952 118.376C333.768 120.68 334.176 123.344 334.176 126.368V128.744H307.824ZM325.536 122.264C325.488 119.72 324.696 117.728 323.16 116.288C321.624 114.8 319.488 114.056 316.752 114.056C314.16 114.056 312.096 114.8 310.56 116.288C309.072 117.776 308.16 119.768 307.824 122.264H325.536ZM360.687 118.016C359.007 115.664 356.751 114.488 353.919 114.488C352.767 114.488 351.639 114.776 350.535 115.352C349.431 115.928 348.879 116.864 348.879 118.16C348.879 119.216 349.335 119.984 350.247 120.464C351.159 120.944 352.311 121.352 353.703 121.688C355.095 122.024 356.583 122.384 358.167 122.768C359.799 123.104 361.311 123.656 362.703 124.424C364.095 125.144 365.247 126.152 366.159 127.448C367.071 128.744 367.527 130.52 367.527 132.776C367.527 134.84 367.071 136.592 366.159 138.032C365.295 139.424 364.143 140.552 362.703 141.416C361.311 142.28 359.727 142.904 357.951 143.288C356.175 143.672 354.399 143.864 352.623 143.864C349.935 143.864 347.463 143.48 345.207 142.712C342.951 141.944 340.935 140.552 339.159 138.536L344.919 133.136C346.023 134.384 347.199 135.416 348.447 136.232C349.743 137 351.303 137.384 353.127 137.384C353.751 137.384 354.399 137.312 355.071 137.168C355.743 137.024 356.367 136.784 356.943 136.448C357.519 136.112 357.975 135.704 358.311 135.224C358.695 134.696 358.887 134.096 358.887 133.424C358.887 132.224 358.431 131.336 357.519 130.76C356.607 130.184 355.455 129.728 354.063 129.392C352.671 129.008 351.159 128.672 349.527 128.384C347.943 128.048 346.455 127.544 345.063 126.872C343.671 126.152 342.519 125.168 341.607 123.92C340.695 122.672 340.239 120.944 340.239 118.736C340.239 116.816 340.623 115.16 341.391 113.768C342.207 112.328 343.263 111.152 344.559 110.24C345.855 109.328 347.343 108.656 349.023 108.224C350.703 107.792 352.407 107.576 354.135 107.576C356.439 107.576 358.719 107.984 360.975 108.8C363.231 109.568 365.055 110.912 366.447 112.832L360.687 118.016ZM392.68 118.016C391 115.664 388.744 114.488 385.912 114.488C384.76 114.488 383.632 114.776 382.528 115.352C381.424 115.928 380.872 116.864 380.872 118.16C380.872 119.216 381.328 119.984 382.24 120.464C383.152 120.944 384.304 121.352 385.696 121.688C387.088 122.024 388.576 122.384 390.16 122.768C391.792 123.104 393.304 123.656 394.696 124.424C396.088 125.144 397.24 126.152 398.152 127.448C399.064 128.744 399.52 130.52 399.52 132.776C399.52 134.84 399.064 136.592 398.152 138.032C397.288 139.424 396.136 140.552 394.696 141.416C393.304 142.28 391.72 142.904 389.944 143.288C388.168 143.672 386.392 143.864 384.616 143.864C381.928 143.864 379.456 143.48 377.2 142.712C374.944 141.944 372.928 140.552 371.152 138.536L376.912 133.136C378.016 134.384 379.192 135.416 380.44 136.232C381.736 137 383.296 137.384 385.12 137.384C385.744 137.384 386.392 137.312 387.064 137.168C387.736 137.024 388.36 136.784 388.936 136.448C389.512 136.112 389.968 135.704 390.304 135.224C390.688 134.696 390.88 134.096 390.88 133.424C390.88 132.224 390.424 131.336 389.512 130.76C388.6 130.184 387.448 129.728 386.056 129.392C384.664 129.008 383.152 128.672 381.52 128.384C379.936 128.048 378.448 127.544 377.056 126.872C375.664 126.152 374.512 125.168 373.6 123.92C372.688 122.672 372.232 120.944 372.232 118.736C372.232 116.816 372.616 115.16 373.384 113.768C374.2 112.328 375.256 111.152 376.552 110.24C377.848 109.328 379.336 108.656 381.016 108.224C382.696 107.792 384.4 107.576 386.128 107.576C388.432 107.576 390.712 107.984 392.968 108.8C395.224 109.568 397.048 110.912 398.44 112.832L392.68 118.016ZM423.512 115.784V108.44H430.64V98.432H439.28V108.44H448.784V115.784H439.28V130.904C439.28 132.632 439.592 134 440.216 135.008C440.888 136.016 442.184 136.52 444.104 136.52C444.872 136.52 445.712 136.448 446.624 136.304C447.536 136.112 448.256 135.824 448.784 135.44V142.712C447.872 143.144 446.744 143.432 445.4 143.576C444.104 143.768 442.952 143.864 441.944 143.864C439.64 143.864 437.744 143.6 436.256 143.072C434.816 142.592 433.664 141.848 432.8 140.84C431.984 139.784 431.408 138.488 431.072 136.952C430.784 135.416 430.64 133.64 430.64 131.624V115.784H423.512ZM464.239 113.264H464.383C465.055 111.824 466.231 110.528 467.911 109.376C469.639 108.176 471.847 107.576 474.535 107.576C476.839 107.576 478.783 107.96 480.367 108.728C481.999 109.496 483.319 110.504 484.327 111.752C485.335 113 486.055 114.44 486.487 116.072C486.919 117.704 487.135 119.408 487.135 121.184V143H478.495V125.504C478.495 124.544 478.447 123.488 478.351 122.336C478.255 121.136 477.991 120.032 477.559 119.024C477.175 117.968 476.551 117.104 475.687 116.432C474.823 115.712 473.647 115.352 472.159 115.352C470.719 115.352 469.495 115.592 468.487 116.072C467.527 116.552 466.711 117.2 466.039 118.016C465.415 118.832 464.959 119.768 464.671 120.824C464.383 121.88 464.239 122.984 464.239 124.136V143H455.599V88.568H464.239V113.264ZM503.855 128.744C504.143 131.336 505.151 133.352 506.879 134.792C508.607 136.232 510.695 136.952 513.143 136.952C515.303 136.952 517.103 136.52 518.543 135.656C520.031 134.744 521.327 133.616 522.431 132.272L528.623 136.952C526.607 139.448 524.351 141.224 521.855 142.28C519.359 143.336 516.743 143.864 514.007 143.864C511.415 143.864 508.967 143.432 506.663 142.568C504.359 141.704 502.367 140.48 500.687 138.896C499.007 137.312 497.663 135.416 496.655 133.208C495.695 130.952 495.215 128.456 495.215 125.72C495.215 122.984 495.695 120.512 496.655 118.304C497.663 116.048 499.007 114.128 500.687 112.544C502.367 110.96 504.359 109.736 506.663 108.872C508.967 108.008 511.415 107.576 514.007 107.576C516.407 107.576 518.591 108.008 520.559 108.872C522.575 109.688 524.279 110.888 525.671 112.472C527.111 114.056 528.215 116.024 528.983 118.376C529.799 120.68 530.207 123.344 530.207 126.368V128.744H503.855ZM521.567 122.264C521.519 119.72 520.727 117.728 519.191 116.288C517.655 114.8 515.519 114.056 512.783 114.056C510.191 114.056 508.127 114.8 506.591 116.288C505.103 117.776 504.191 119.768 503.855 122.264H521.567ZM562.687 115.784H555.559V108.44H562.687V103.544C562.687 101.144 562.855 98.984 563.191 97.064C563.527 95.096 564.151 93.416 565.063 92.024C566.023 90.632 567.343 89.576 569.023 88.856C570.703 88.088 572.887 87.704 575.575 87.704C577.543 87.704 579.367 87.872 581.047 88.208L580.471 95.552C579.847 95.408 579.247 95.288 578.671 95.192C578.095 95.096 577.495 95.048 576.871 95.048C575.671 95.048 574.711 95.24 573.991 95.624C573.271 96.008 572.695 96.536 572.263 97.208C571.879 97.832 571.615 98.576 571.471 99.44C571.375 100.304 571.327 101.216 571.327 102.176V108.44H579.319V115.784H571.327V143H562.687V115.784ZM591.816 128.744C592.104 131.336 593.112 133.352 594.84 134.792C596.568 136.232 598.656 136.952 601.104 136.952C603.264 136.952 605.064 136.52 606.504 135.656C607.992 134.744 609.288 133.616 610.392 132.272L616.584 136.952C614.568 139.448 612.312 141.224 609.816 142.28C607.32 143.336 604.704 143.864 601.968 143.864C599.376 143.864 596.928 143.432 594.624 142.568C592.32 141.704 590.328 140.48 588.648 138.896C586.968 137.312 585.624 135.416 584.616 133.208C583.656 130.952 583.176 128.456 583.176 125.72C583.176 122.984 583.656 120.512 584.616 118.304C585.624 116.048 586.968 114.128 588.648 112.544C590.328 110.96 592.32 109.736 594.624 108.872C596.928 108.008 599.376 107.576 601.968 107.576C604.368 107.576 606.552 108.008 608.52 108.872C610.536 109.688 612.24 110.888 613.632 112.472C615.072 114.056 616.176 116.024 616.944 118.376C617.76 120.68 618.168 123.344 618.168 126.368V128.744H591.816ZM609.528 122.264C609.48 119.72 608.688 117.728 607.152 116.288C605.616 114.8 603.48 114.056 600.744 114.056C598.152 114.056 596.088 114.8 594.552 116.288C593.064 117.776 592.152 119.768 591.816 122.264H609.528ZM633.16 128.744C633.448 131.336 634.456 133.352 636.184 134.792C637.912 136.232 640 136.952 642.448 136.952C644.608 136.952 646.408 136.52 647.848 135.656C649.336 134.744 650.632 133.616 651.736 132.272L657.928 136.952C655.912 139.448 653.656 141.224 651.16 142.28C648.664 143.336 646.048 143.864 643.312 143.864C640.72 143.864 638.272 143.432 635.968 142.568C633.664 141.704 631.672 140.48 629.992 138.896C628.312 137.312 626.968 135.416 625.96 133.208C625 130.952 624.52 128.456 624.52 125.72C624.52 122.984 625 120.512 625.96 118.304C626.968 116.048 628.312 114.128 629.992 112.544C631.672 110.96 633.664 109.736 635.968 108.872C638.272 108.008 640.72 107.576 643.312 107.576C645.712 107.576 647.896 108.008 649.864 108.872C651.88 109.688 653.584 110.888 654.976 112.472C656.416 114.056 657.52 116.024 658.288 118.376C659.104 120.68 659.512 123.344 659.512 126.368V128.744H633.16ZM650.872 122.264C650.824 119.72 650.032 117.728 648.496 116.288C646.96 114.8 644.824 114.056 642.088 114.056C639.496 114.056 637.432 114.8 635.896 116.288C634.408 117.776 633.496 119.768 633.16 122.264H650.872ZM667.735 88.568H676.375V143H667.735V88.568ZM686.509 108.44H695.149V143H686.509V108.44ZM685.285 96.704C685.285 95.312 685.789 94.112 686.797 93.104C687.853 92.048 689.173 91.52 690.757 91.52C692.341 91.52 693.661 92.024 694.717 93.032C695.821 93.992 696.373 95.216 696.373 96.704C696.373 98.192 695.821 99.44 694.717 100.448C693.661 101.408 692.341 101.888 690.757 101.888C689.173 101.888 687.853 101.384 686.797 100.376C685.789 99.32 685.285 98.096 685.285 96.704ZM705.068 108.44H713.276V113.984H713.42C714.236 112.256 715.484 110.768 717.164 109.52C718.844 108.224 721.124 107.576 724.004 107.576C726.308 107.576 728.252 107.96 729.836 108.728C731.468 109.496 732.788 110.504 733.796 111.752C734.804 113 735.524 114.44 735.956 116.072C736.388 117.704 736.604 119.408 736.604 121.184V143H727.964V125.504C727.964 124.544 727.916 123.488 727.82 122.336C727.724 121.136 727.46 120.032 727.028 119.024C726.644 117.968 726.02 117.104 725.156 116.432C724.292 115.712 723.116 115.352 721.628 115.352C720.188 115.352 718.964 115.592 717.956 116.072C716.996 116.552 716.18 117.2 715.508 118.016C714.884 118.832 714.428 119.768 714.14 120.824C713.852 121.88 713.708 122.984 713.708 124.136V143H705.068V108.44ZM781.98 108.44V139.904C781.98 143.024 781.596 145.832 780.828 148.328C780.06 150.872 778.86 153.008 777.228 154.736C775.644 156.512 773.628 157.88 771.18 158.84C768.732 159.8 765.828 160.28 762.468 160.28C759.252 160.28 756.204 159.872 753.324 159.056C750.444 158.24 747.78 156.752 745.332 154.592L750.516 147.536C752.244 149.12 754.044 150.344 755.916 151.208C757.788 152.072 759.948 152.504 762.396 152.504C764.46 152.504 766.188 152.216 767.58 151.64C769.02 151.064 770.148 150.272 770.964 149.264C771.828 148.256 772.428 147.032 772.764 145.592C773.148 144.2 773.34 142.64 773.34 140.912V138.392H773.196C771.948 140.072 770.292 141.344 768.228 142.208C766.164 143.024 764.052 143.432 761.892 143.432C759.3 143.432 756.948 142.976 754.836 142.064C752.724 141.104 750.9 139.832 749.364 138.248C747.876 136.664 746.724 134.792 745.908 132.632C745.092 130.472 744.684 128.168 744.684 125.72C744.684 123.176 745.068 120.8 745.836 118.592C746.604 116.384 747.732 114.464 749.22 112.832C750.708 111.2 752.484 109.928 754.548 109.016C756.66 108.056 759.06 107.576 761.748 107.576C764.196 107.576 766.476 108.056 768.588 109.016C770.7 109.976 772.38 111.512 773.628 113.624H773.772V108.44H781.98ZM763.548 115.352C762.012 115.352 760.62 115.616 759.372 116.144C758.124 116.624 757.044 117.32 756.132 118.232C755.268 119.096 754.572 120.176 754.044 121.472C753.564 122.72 753.324 124.112 753.324 125.648C753.324 127.04 753.564 128.336 754.044 129.536C754.572 130.736 755.292 131.792 756.204 132.704C757.116 133.616 758.196 134.336 759.444 134.864C760.692 135.392 762.036 135.656 763.476 135.656C765.06 135.656 766.476 135.392 767.724 134.864C769.02 134.336 770.1 133.64 770.964 132.776C771.876 131.864 772.572 130.784 773.052 129.536C773.532 128.288 773.772 126.944 773.772 125.504C773.772 122.48 772.86 120.032 771.036 118.16C769.212 116.288 766.716 115.352 763.548 115.352ZM810.195 118.016C808.515 115.664 806.259 114.488 803.427 114.488C802.275 114.488 801.147 114.776 800.043 115.352C798.939 115.928 798.387 116.864 798.387 118.16C798.387 119.216 798.843 119.984 799.755 120.464C800.667 120.944 801.819 121.352 803.211 121.688C804.603 122.024 806.091 122.384 807.675 122.768C809.307 123.104 810.819 123.656 812.211 124.424C813.603 125.144 814.755 126.152 815.667 127.448C816.579 128.744 817.035 130.52 817.035 132.776C817.035 134.84 816.579 136.592 815.667 138.032C814.803 139.424 813.651 140.552 812.211 141.416C810.819 142.28 809.235 142.904 807.459 143.288C805.683 143.672 803.907 143.864 802.131 143.864C799.443 143.864 796.971 143.48 794.715 142.712C792.459 141.944 790.443 140.552 788.667 138.536L794.427 133.136C795.531 134.384 796.707 135.416 797.955 136.232C799.251 137 800.811 137.384 802.635 137.384C803.259 137.384 803.907 137.312 804.579 137.168C805.251 137.024 805.875 136.784 806.451 136.448C807.027 136.112 807.483 135.704 807.819 135.224C808.203 134.696 808.395 134.096 808.395 133.424C808.395 132.224 807.939 131.336 807.027 130.76C806.115 130.184 804.963 129.728 803.571 129.392C802.179 129.008 800.667 128.672 799.035 128.384C797.451 128.048 795.963 127.544 794.571 126.872C793.179 126.152 792.027 125.168 791.115 123.92C790.203 122.672 789.747 120.944 789.747 118.736C789.747 116.816 790.131 115.16 790.899 113.768C791.715 112.328 792.771 111.152 794.067 110.24C795.363 109.328 796.851 108.656 798.531 108.224C800.211 107.792 801.915 107.576 803.643 107.576C805.947 107.576 808.227 107.984 810.483 108.8C812.739 109.568 814.563 110.912 815.955 112.832L810.195 118.016Z" fill="#252525"/>
</svg>
