<svg width="316" height="133" viewBox="0 0 316 133" fill="none" xmlns="http://www.w3.org/2000/svg">
<path d="M1.6 25.84C1.6 23.6 1.77333 21.6933 2.12 20.12C2.49333 18.52 2.97333 17.1867 3.56 16.12C4.14667 15.0267 4.8 14.16 5.52 13.52C6.26667 12.8533 7.01333 12.36 7.76 12.04C8.53333 11.6933 9.26667 11.4667 9.96 11.36C10.68 11.2533 11.3067 11.2 11.84 11.2C12.3733 11.2 12.9867 11.2533 13.68 11.36C14.4 11.4667 15.1333 11.6933 15.88 12.04C16.6533 12.36 17.4 12.8533 18.12 13.52C18.8667 14.16 19.5333 15.0267 20.12 16.12C20.7067 17.1867 21.1733 18.52 21.52 20.12C21.8933 21.6933 22.08 23.6 22.08 25.84C22.08 28.08 21.8933 30 21.52 31.6C21.1733 33.1733 20.7067 34.5067 20.12 35.6C19.5333 36.6667 18.8667 37.5333 18.12 38.2C17.4 38.84 16.6533 39.3333 15.88 39.68C15.1333 40 14.4 40.2133 13.68 40.32C12.9867 40.4267 12.3733 40.48 11.84 40.48C11.3067 40.48 10.68 40.4267 9.96 40.32C9.26667 40.2133 8.53333 40 7.76 39.68C7.01333 39.3333 6.26667 38.84 5.52 38.2C4.8 37.5333 4.14667 36.6667 3.56 35.6C2.97333 34.5067 2.49333 33.1733 2.12 31.6C1.77333 30 1.6 28.08 1.6 25.84ZM6.4 25.84C6.4 26.72 6.45333 27.7467 6.56 28.92C6.69333 30.0667 6.94667 31.16 7.32 32.2C7.69333 33.24 8.24 34.12 8.96 34.84C9.68 35.56 10.64 35.92 11.84 35.92C13.04 35.92 14 35.56 14.72 34.84C15.44 34.12 15.9867 33.24 16.36 32.2C16.7333 31.16 16.9733 30.0667 17.08 28.92C17.2133 27.7467 17.28 26.72 17.28 25.84C17.28 24.96 17.2133 23.9467 17.08 22.8C16.9733 21.6267 16.7333 20.52 16.36 19.48C15.9867 18.44 15.44 17.56 14.72 16.84C14 16.12 13.04 15.76 11.84 15.76C10.64 15.76 9.68 16.12 8.96 16.84C8.24 17.56 7.69333 18.44 7.32 19.48C6.94667 20.52 6.69333 21.6267 6.56 22.8C6.45333 23.9467 6.4 24.96 6.4 25.84ZM26.0319 34.92L37.0319 24.28C37.3519 23.96 37.6852 23.6267 38.0319 23.28C38.3785 22.9067 38.6852 22.52 38.9519 22.12C39.2452 21.72 39.4852 21.3067 39.6719 20.88C39.8585 20.4267 39.9519 19.96 39.9519 19.48C39.9519 18.8933 39.8319 18.3733 39.5919 17.92C39.3785 17.4667 39.0852 17.08 38.7119 16.76C38.3385 16.44 37.8985 16.2 37.3919 16.04C36.9119 15.8533 36.3919 15.76 35.8319 15.76C34.6319 15.76 33.6452 16.1067 32.8719 16.8C32.0985 17.4933 31.6319 18.4267 31.4719 19.6L26.4319 19.2C26.5385 17.8933 26.8452 16.7467 27.3519 15.76C27.8852 14.7467 28.5652 13.9067 29.3919 13.24C30.2185 12.5733 31.1785 12.0667 32.2719 11.72C33.3652 11.3733 34.5519 11.2 35.8319 11.2C37.1119 11.2 38.2985 11.3733 39.3919 11.72C40.5119 12.04 41.4852 12.5333 42.3119 13.2C43.1385 13.84 43.7919 14.6667 44.2719 15.68C44.7519 16.6933 44.9919 17.88 44.9919 19.24C44.9919 21.0267 44.5785 22.5733 43.7519 23.88C42.9519 25.16 41.9119 26.3867 40.6319 27.56L31.8719 35.68H44.9919V40H26.0319V34.92Z" fill="#252525" fill-opacity="0.35"/>
<path d="M2.112 74.008H4.128V89.128H11.904V91H2.112V74.008ZM13.128 85.384C13.128 84.504 13.28 83.704 13.584 82.984C13.888 82.264 14.304 81.648 14.832 81.136C15.36 80.608 15.992 80.2 16.728 79.912C17.464 79.624 18.264 79.48 19.128 79.48C19.992 79.48 20.792 79.624 21.528 79.912C22.264 80.2 22.896 80.608 23.424 81.136C23.952 81.648 24.368 82.264 24.672 82.984C24.976 83.704 25.128 84.504 25.128 85.384C25.128 86.264 24.976 87.064 24.672 87.784C24.368 88.504 23.952 89.128 23.424 89.656C22.896 90.168 22.264 90.568 21.528 90.856C20.792 91.144 19.992 91.288 19.128 91.288C18.264 91.288 17.464 91.144 16.728 90.856C15.992 90.568 15.36 90.168 14.832 89.656C14.304 89.128 13.888 88.504 13.584 87.784C13.28 87.064 13.128 86.264 13.128 85.384ZM15.144 85.384C15.144 85.976 15.232 86.528 15.408 87.04C15.6 87.536 15.872 87.976 16.224 88.36C16.576 88.728 16.992 89.024 17.472 89.248C17.968 89.456 18.52 89.56 19.128 89.56C19.736 89.56 20.28 89.456 20.76 89.248C21.256 89.024 21.68 88.728 22.032 88.36C22.384 87.976 22.648 87.536 22.824 87.04C23.016 86.528 23.112 85.976 23.112 85.384C23.112 84.792 23.016 84.248 22.824 83.752C22.648 83.24 22.384 82.8 22.032 82.432C21.68 82.048 21.256 81.752 20.76 81.544C20.28 81.32 19.736 81.208 19.128 81.208C18.52 81.208 17.968 81.32 17.472 81.544C16.992 81.752 16.576 82.048 16.224 82.432C15.872 82.8 15.6 83.24 15.408 83.752C15.232 84.248 15.144 84.792 15.144 85.384ZM28.026 82.432C28.026 81.92 28.01 81.44 27.978 80.992C27.946 80.544 27.93 80.136 27.93 79.768H29.706C29.706 80.072 29.714 80.376 29.73 80.68C29.746 80.984 29.754 81.296 29.754 81.616H29.802C29.93 81.344 30.106 81.08 30.33 80.824C30.57 80.568 30.85 80.344 31.17 80.152C31.49 79.944 31.85 79.784 32.25 79.672C32.65 79.544 33.082 79.48 33.546 79.48C33.674 79.48 33.802 79.488 33.93 79.504C34.058 79.52 34.186 79.552 34.314 79.6L34.194 81.496C33.874 81.4 33.538 81.352 33.186 81.352C32.034 81.352 31.194 81.728 30.666 82.48C30.154 83.216 29.898 84.232 29.898 85.528V91H28.026V82.432ZM46.0736 88.96C45.4016 89.824 44.6656 90.432 43.8656 90.784C43.0656 91.12 42.1376 91.288 41.0816 91.288C40.2016 91.288 39.4096 91.136 38.7056 90.832C38.0016 90.512 37.4016 90.088 36.9056 89.56C36.4256 89.032 36.0496 88.408 35.7776 87.688C35.5216 86.968 35.3936 86.2 35.3936 85.384C35.3936 84.52 35.5376 83.728 35.8256 83.008C36.1136 82.272 36.5136 81.648 37.0256 81.136C37.5376 80.608 38.1456 80.2 38.8496 79.912C39.5536 79.624 40.3216 79.48 41.1536 79.48C41.9376 79.48 42.6576 79.616 43.3136 79.888C43.9696 80.144 44.5296 80.528 44.9936 81.04C45.4736 81.536 45.8416 82.152 46.0976 82.888C46.3536 83.608 46.4816 84.432 46.4816 85.36V85.96H37.4096C37.4416 86.44 37.5536 86.904 37.7456 87.352C37.9536 87.784 38.2176 88.168 38.5376 88.504C38.8576 88.824 39.2336 89.08 39.6656 89.272C40.0976 89.464 40.5696 89.56 41.0816 89.56C41.8976 89.56 42.5856 89.416 43.1456 89.128C43.7056 88.84 44.2096 88.416 44.6576 87.856L46.0736 88.96ZM44.4656 84.376C44.4336 83.416 44.1216 82.648 43.5296 82.072C42.9376 81.496 42.1216 81.208 41.0816 81.208C40.0416 81.208 39.2016 81.496 38.5616 82.072C37.9216 82.648 37.5376 83.416 37.4096 84.376H44.4656ZM49.3776 82.432C49.3776 81.92 49.3616 81.44 49.3296 80.992C49.2976 80.544 49.2816 80.136 49.2816 79.768H51.0576C51.0576 80.072 51.0656 80.376 51.0816 80.68C51.0976 80.984 51.1056 81.296 51.1056 81.616H51.1536C51.2816 81.344 51.4576 81.08 51.6816 80.824C51.9216 80.568 52.2016 80.344 52.5216 80.152C52.8416 79.944 53.2016 79.784 53.6016 79.672C54.0016 79.544 54.4336 79.48 54.8976 79.48C55.5056 79.48 56.0096 79.56 56.4096 79.72C56.8256 79.864 57.1696 80.048 57.4416 80.272C57.7136 80.48 57.9216 80.712 58.0656 80.968C58.2256 81.208 58.3536 81.424 58.4496 81.616C58.8656 80.944 59.3456 80.424 59.8896 80.056C60.4336 79.672 61.1376 79.48 62.0016 79.48C62.8016 79.48 63.4736 79.592 64.0176 79.816C64.5616 80.024 65.0016 80.336 65.3376 80.752C65.6736 81.152 65.9136 81.648 66.0576 82.24C66.2016 82.816 66.2736 83.464 66.2736 84.184V91H64.4016V84.28C64.4016 83.896 64.3616 83.52 64.2816 83.152C64.2016 82.784 64.0576 82.456 63.8496 82.168C63.6416 81.88 63.3616 81.648 63.0096 81.472C62.6576 81.296 62.2096 81.208 61.6656 81.208C61.2656 81.208 60.8896 81.288 60.5376 81.448C60.1856 81.608 59.8736 81.832 59.6016 82.12C59.3456 82.408 59.1376 82.76 58.9776 83.176C58.8336 83.576 58.7616 84.024 58.7616 84.52V91H56.8896V84.64C56.8896 83.392 56.7216 82.512 56.3856 82C56.0496 81.472 55.4976 81.208 54.7296 81.208C54.1216 81.208 53.5936 81.312 53.1456 81.52C52.7136 81.728 52.3536 82.024 52.0656 82.408C51.7936 82.792 51.5856 83.248 51.4416 83.776C51.3136 84.304 51.2496 84.888 51.2496 85.528V91H49.3776V82.432ZM76.6628 79.768H78.5348V91H76.6628V79.768ZM76.2308 75.376C76.2308 75.008 76.3588 74.688 76.6148 74.416C76.8868 74.144 77.2148 74.008 77.5988 74.008C77.9828 74.008 78.3028 74.144 78.5588 74.416C78.8308 74.688 78.9668 75.008 78.9668 75.376C78.9668 75.776 78.8388 76.104 78.5828 76.36C78.3268 76.616 77.9988 76.744 77.5988 76.744C77.1988 76.744 76.8708 76.616 76.6148 76.36C76.3588 76.104 76.2308 75.776 76.2308 75.376ZM82.1644 79.768H84.0364V81.4H84.0844C84.5964 80.792 85.1884 80.32 85.8604 79.984C86.5484 79.648 87.3004 79.48 88.1164 79.48C88.9964 79.48 89.7964 79.632 90.5164 79.936C91.2524 80.224 91.8764 80.632 92.3884 81.16C92.9004 81.688 93.3004 82.312 93.5884 83.032C93.8764 83.752 94.0204 84.536 94.0204 85.384C94.0204 86.232 93.8764 87.016 93.5884 87.736C93.3004 88.456 92.9004 89.08 92.3884 89.608C91.8924 90.136 91.3004 90.552 90.6124 90.856C89.9244 91.144 89.1884 91.288 88.4044 91.288C87.3964 91.288 86.5084 91.072 85.7404 90.64C84.9884 90.192 84.4364 89.648 84.0844 89.008H84.0364V96.472H82.1644V79.768ZM84.0364 85.384C84.0364 85.976 84.1244 86.528 84.3004 87.04C84.4924 87.536 84.7644 87.976 85.1164 88.36C85.4684 88.728 85.8844 89.024 86.3644 89.248C86.8604 89.456 87.4124 89.56 88.0204 89.56C88.6284 89.56 89.1724 89.456 89.6524 89.248C90.1484 89.024 90.5724 88.728 90.9244 88.36C91.2764 87.976 91.5404 87.536 91.7164 87.04C91.9084 86.528 92.0044 85.976 92.0044 85.384C92.0044 84.792 91.9084 84.248 91.7164 83.752C91.5404 83.24 91.2764 82.8 90.9244 82.432C90.5724 82.048 90.1484 81.752 89.6524 81.544C89.1724 81.32 88.6284 81.208 88.0204 81.208C87.4124 81.208 86.8604 81.32 86.3644 81.544C85.8844 81.752 85.4684 82.048 85.1164 82.432C84.7644 82.8 84.4924 83.24 84.3004 83.752C84.1244 84.248 84.0364 84.792 84.0364 85.384ZM97.1723 88.048C97.5403 88.512 97.9403 88.88 98.3723 89.152C98.8203 89.424 99.3803 89.56 100.052 89.56C100.34 89.56 100.628 89.528 100.916 89.464C101.22 89.4 101.492 89.296 101.732 89.152C101.972 89.008 102.164 88.832 102.308 88.624C102.452 88.4 102.524 88.136 102.524 87.832C102.524 87.528 102.452 87.28 102.308 87.088C102.18 86.896 102.004 86.736 101.78 86.608C101.556 86.464 101.3 86.352 101.012 86.272C100.724 86.192 100.428 86.12 100.124 86.056C99.5963 85.944 99.0923 85.816 98.6123 85.672C98.1323 85.528 97.7083 85.344 97.3403 85.12C96.9883 84.88 96.7003 84.576 96.4763 84.208C96.2683 83.84 96.1643 83.368 96.1643 82.792C96.1643 82.248 96.2843 81.768 96.5243 81.352C96.7643 80.936 97.0843 80.592 97.4843 80.32C97.8843 80.048 98.3323 79.84 98.8283 79.696C99.3243 79.552 99.8363 79.48 100.364 79.48C101.164 79.48 101.9 79.64 102.572 79.96C103.26 80.28 103.796 80.8 104.18 81.52L102.62 82.552C102.38 82.152 102.06 81.832 101.66 81.592C101.276 81.336 100.804 81.208 100.244 81.208C99.9883 81.208 99.7243 81.24 99.4523 81.304C99.1963 81.368 98.9643 81.464 98.7563 81.592C98.5483 81.72 98.3723 81.888 98.2283 82.096C98.1003 82.288 98.0363 82.512 98.0363 82.768C98.0363 83.008 98.1083 83.216 98.2523 83.392C98.4123 83.552 98.6203 83.696 98.8763 83.824C99.1483 83.952 99.4523 84.064 99.7883 84.16C100.14 84.256 100.5 84.336 100.868 84.4C101.364 84.496 101.836 84.624 102.284 84.784C102.732 84.928 103.124 85.128 103.46 85.384C103.796 85.64 104.06 85.96 104.252 86.344C104.444 86.728 104.54 87.2 104.54 87.76C104.54 88.4 104.412 88.944 104.156 89.392C103.9 89.84 103.556 90.208 103.124 90.496C102.708 90.768 102.228 90.968 101.684 91.096C101.156 91.224 100.612 91.288 100.052 91.288C99.0923 91.288 98.2603 91.144 97.5563 90.856C96.8683 90.552 96.2443 90 95.6843 89.2L97.1723 88.048ZM116.943 88.336C116.943 88.848 116.959 89.328 116.991 89.776C117.023 90.224 117.039 90.632 117.039 91H115.263C115.263 90.696 115.255 90.392 115.239 90.088C115.223 89.784 115.215 89.472 115.215 89.152H115.167C115.039 89.424 114.855 89.688 114.615 89.944C114.391 90.2 114.119 90.432 113.799 90.64C113.479 90.832 113.119 90.984 112.719 91.096C112.319 91.224 111.887 91.288 111.423 91.288C110.687 91.288 110.047 91.176 109.503 90.952C108.975 90.728 108.535 90.416 108.183 90.016C107.831 89.616 107.567 89.136 107.391 88.576C107.231 88 107.151 87.376 107.151 86.704V79.768H109.023V86.512C109.023 87.456 109.231 88.2 109.647 88.744C110.063 89.288 110.711 89.56 111.591 89.56C112.199 89.56 112.719 89.456 113.151 89.248C113.599 89.04 113.959 88.744 114.231 88.36C114.519 87.976 114.727 87.52 114.855 86.992C114.999 86.464 115.071 85.88 115.071 85.24V79.768H116.943V88.336ZM120.487 82.432C120.487 81.92 120.471 81.44 120.439 80.992C120.407 80.544 120.391 80.136 120.391 79.768H122.167C122.167 80.072 122.175 80.376 122.191 80.68C122.207 80.984 122.215 81.296 122.215 81.616H122.263C122.391 81.344 122.567 81.08 122.791 80.824C123.031 80.568 123.311 80.344 123.631 80.152C123.951 79.944 124.311 79.784 124.711 79.672C125.111 79.544 125.543 79.48 126.007 79.48C126.615 79.48 127.119 79.56 127.519 79.72C127.935 79.864 128.279 80.048 128.551 80.272C128.823 80.48 129.031 80.712 129.175 80.968C129.335 81.208 129.463 81.424 129.559 81.616C129.975 80.944 130.455 80.424 130.999 80.056C131.543 79.672 132.247 79.48 133.111 79.48C133.911 79.48 134.583 79.592 135.127 79.816C135.671 80.024 136.111 80.336 136.447 80.752C136.783 81.152 137.023 81.648 137.167 82.24C137.311 82.816 137.383 83.464 137.383 84.184V91H135.511V84.28C135.511 83.896 135.471 83.52 135.391 83.152C135.311 82.784 135.167 82.456 134.959 82.168C134.751 81.88 134.471 81.648 134.119 81.472C133.767 81.296 133.319 81.208 132.775 81.208C132.375 81.208 131.999 81.288 131.647 81.448C131.295 81.608 130.983 81.832 130.711 82.12C130.455 82.408 130.247 82.76 130.087 83.176C129.943 83.576 129.871 84.024 129.871 84.52V91H127.999V84.64C127.999 83.392 127.831 82.512 127.495 82C127.159 81.472 126.607 81.208 125.839 81.208C125.231 81.208 124.703 81.312 124.255 81.52C123.823 81.728 123.463 82.024 123.175 82.408C122.903 82.792 122.695 83.248 122.551 83.776C122.423 84.304 122.359 84.888 122.359 85.528V91H120.487V82.432ZM156.94 89.008H156.892C156.54 89.648 155.98 90.192 155.212 90.64C154.46 91.072 153.58 91.288 152.572 91.288C151.788 91.288 151.052 91.144 150.364 90.856C149.676 90.552 149.076 90.136 148.564 89.608C148.068 89.08 147.676 88.456 147.388 87.736C147.1 87.016 146.956 86.232 146.956 85.384C146.956 84.536 147.1 83.752 147.388 83.032C147.676 82.312 148.076 81.688 148.588 81.16C149.1 80.632 149.716 80.224 150.436 79.936C151.172 79.632 151.98 79.48 152.86 79.48C153.676 79.48 154.42 79.648 155.092 79.984C155.78 80.32 156.38 80.792 156.892 81.4H156.94V72.856H158.812V91H156.94V89.008ZM156.94 85.384C156.94 84.792 156.844 84.248 156.652 83.752C156.476 83.24 156.212 82.8 155.86 82.432C155.508 82.048 155.084 81.752 154.588 81.544C154.108 81.32 153.564 81.208 152.956 81.208C152.348 81.208 151.796 81.32 151.3 81.544C150.82 81.752 150.404 82.048 150.052 82.432C149.7 82.8 149.428 83.24 149.236 83.752C149.06 84.248 148.972 84.792 148.972 85.384C148.972 85.976 149.06 86.528 149.236 87.04C149.428 87.536 149.7 87.976 150.052 88.36C150.404 88.728 150.82 89.024 151.3 89.248C151.796 89.456 152.348 89.56 152.956 89.56C153.564 89.56 154.108 89.456 154.588 89.248C155.084 89.024 155.508 88.728 155.86 88.36C156.212 87.976 156.476 87.536 156.652 87.04C156.844 86.528 156.94 85.976 156.94 85.384ZM161.628 85.384C161.628 84.504 161.78 83.704 162.084 82.984C162.388 82.264 162.804 81.648 163.332 81.136C163.86 80.608 164.492 80.2 165.228 79.912C165.964 79.624 166.764 79.48 167.628 79.48C168.492 79.48 169.292 79.624 170.028 79.912C170.764 80.2 171.396 80.608 171.924 81.136C172.452 81.648 172.868 82.264 173.172 82.984C173.476 83.704 173.628 84.504 173.628 85.384C173.628 86.264 173.476 87.064 173.172 87.784C172.868 88.504 172.452 89.128 171.924 89.656C171.396 90.168 170.764 90.568 170.028 90.856C169.292 91.144 168.492 91.288 167.628 91.288C166.764 91.288 165.964 91.144 165.228 90.856C164.492 90.568 163.86 90.168 163.332 89.656C162.804 89.128 162.388 88.504 162.084 87.784C161.78 87.064 161.628 86.264 161.628 85.384ZM163.644 85.384C163.644 85.976 163.732 86.528 163.908 87.04C164.1 87.536 164.372 87.976 164.724 88.36C165.076 88.728 165.492 89.024 165.972 89.248C166.468 89.456 167.02 89.56 167.628 89.56C168.236 89.56 168.78 89.456 169.26 89.248C169.756 89.024 170.18 88.728 170.532 88.36C170.884 87.976 171.148 87.536 171.324 87.04C171.516 86.528 171.612 85.976 171.612 85.384C171.612 84.792 171.516 84.248 171.324 83.752C171.148 83.24 170.884 82.8 170.532 82.432C170.18 82.048 169.756 81.752 169.26 81.544C168.78 81.32 168.236 81.208 167.628 81.208C167.02 81.208 166.468 81.32 165.972 81.544C165.492 81.752 165.076 82.048 164.724 82.432C164.372 82.8 164.1 83.24 163.908 83.752C163.732 84.248 163.644 84.792 163.644 85.384ZM176.694 72.856H178.566V91H176.694V72.856ZM181.644 85.384C181.644 84.504 181.796 83.704 182.1 82.984C182.404 82.264 182.82 81.648 183.348 81.136C183.876 80.608 184.508 80.2 185.244 79.912C185.98 79.624 186.78 79.48 187.644 79.48C188.508 79.48 189.308 79.624 190.044 79.912C190.78 80.2 191.412 80.608 191.94 81.136C192.468 81.648 192.884 82.264 193.188 82.984C193.492 83.704 193.644 84.504 193.644 85.384C193.644 86.264 193.492 87.064 193.188 87.784C192.884 88.504 192.468 89.128 191.94 89.656C191.412 90.168 190.78 90.568 190.044 90.856C189.308 91.144 188.508 91.288 187.644 91.288C186.78 91.288 185.98 91.144 185.244 90.856C184.508 90.568 183.876 90.168 183.348 89.656C182.82 89.128 182.404 88.504 182.1 87.784C181.796 87.064 181.644 86.264 181.644 85.384ZM183.66 85.384C183.66 85.976 183.748 86.528 183.924 87.04C184.116 87.536 184.388 87.976 184.74 88.36C185.092 88.728 185.508 89.024 185.988 89.248C186.484 89.456 187.036 89.56 187.644 89.56C188.252 89.56 188.796 89.456 189.276 89.248C189.772 89.024 190.196 88.728 190.548 88.36C190.9 87.976 191.164 87.536 191.34 87.04C191.532 86.528 191.628 85.976 191.628 85.384C191.628 84.792 191.532 84.248 191.34 83.752C191.164 83.24 190.9 82.8 190.548 82.432C190.196 82.048 189.772 81.752 189.276 81.544C188.796 81.32 188.252 81.208 187.644 81.208C187.036 81.208 186.484 81.32 185.988 81.544C185.508 81.752 185.092 82.048 184.74 82.432C184.388 82.8 184.116 83.24 183.924 83.752C183.748 84.248 183.66 84.792 183.66 85.384ZM196.542 82.432C196.542 81.92 196.526 81.44 196.494 80.992C196.462 80.544 196.446 80.136 196.446 79.768H198.222C198.222 80.072 198.23 80.376 198.246 80.68C198.262 80.984 198.27 81.296 198.27 81.616H198.318C198.446 81.344 198.622 81.08 198.846 80.824C199.086 80.568 199.366 80.344 199.686 80.152C200.006 79.944 200.366 79.784 200.766 79.672C201.166 79.544 201.598 79.48 202.062 79.48C202.19 79.48 202.318 79.488 202.446 79.504C202.574 79.52 202.702 79.552 202.83 79.6L202.71 81.496C202.39 81.4 202.054 81.352 201.702 81.352C200.55 81.352 199.71 81.728 199.182 82.48C198.67 83.216 198.414 84.232 198.414 85.528V91H196.542V82.432ZM211.899 88.048C212.267 88.512 212.667 88.88 213.099 89.152C213.547 89.424 214.107 89.56 214.779 89.56C215.067 89.56 215.355 89.528 215.643 89.464C215.947 89.4 216.219 89.296 216.459 89.152C216.699 89.008 216.891 88.832 217.035 88.624C217.179 88.4 217.251 88.136 217.251 87.832C217.251 87.528 217.179 87.28 217.035 87.088C216.907 86.896 216.731 86.736 216.507 86.608C216.283 86.464 216.027 86.352 215.739 86.272C215.451 86.192 215.155 86.12 214.851 86.056C214.323 85.944 213.819 85.816 213.339 85.672C212.859 85.528 212.435 85.344 212.067 85.12C211.715 84.88 211.427 84.576 211.203 84.208C210.995 83.84 210.891 83.368 210.891 82.792C210.891 82.248 211.011 81.768 211.251 81.352C211.491 80.936 211.811 80.592 212.211 80.32C212.611 80.048 213.059 79.84 213.555 79.696C214.051 79.552 214.563 79.48 215.091 79.48C215.891 79.48 216.627 79.64 217.299 79.96C217.987 80.28 218.523 80.8 218.907 81.52L217.347 82.552C217.107 82.152 216.787 81.832 216.387 81.592C216.003 81.336 215.531 81.208 214.971 81.208C214.715 81.208 214.451 81.24 214.179 81.304C213.923 81.368 213.691 81.464 213.483 81.592C213.275 81.72 213.099 81.888 212.955 82.096C212.827 82.288 212.763 82.512 212.763 82.768C212.763 83.008 212.835 83.216 212.979 83.392C213.139 83.552 213.347 83.696 213.603 83.824C213.875 83.952 214.179 84.064 214.515 84.16C214.867 84.256 215.227 84.336 215.595 84.4C216.091 84.496 216.563 84.624 217.011 84.784C217.459 84.928 217.851 85.128 218.187 85.384C218.523 85.64 218.787 85.96 218.979 86.344C219.171 86.728 219.267 87.2 219.267 87.76C219.267 88.4 219.139 88.944 218.883 89.392C218.627 89.84 218.283 90.208 217.851 90.496C217.435 90.768 216.955 90.968 216.411 91.096C215.883 91.224 215.339 91.288 214.779 91.288C213.819 91.288 212.987 91.144 212.283 90.856C211.595 90.552 210.971 90 210.411 89.2L211.899 88.048ZM222.046 79.768H223.918V91H222.046V79.768ZM221.614 75.376C221.614 75.008 221.742 74.688 221.998 74.416C222.27 74.144 222.598 74.008 222.982 74.008C223.366 74.008 223.686 74.144 223.942 74.416C224.214 74.688 224.35 75.008 224.35 75.376C224.35 75.776 224.222 76.104 223.966 76.36C223.71 76.616 223.382 76.744 222.982 76.744C222.582 76.744 222.254 76.616 221.998 76.36C221.742 76.104 221.614 75.776 221.614 75.376ZM233.787 81.352H230.475V86.968C230.475 87.336 230.483 87.68 230.499 88C230.515 88.304 230.579 88.576 230.691 88.816C230.803 89.04 230.971 89.224 231.195 89.368C231.419 89.496 231.739 89.56 232.155 89.56C232.427 89.56 232.707 89.528 232.995 89.464C233.283 89.4 233.555 89.304 233.811 89.176L233.883 90.88C233.563 91.024 233.203 91.128 232.803 91.192C232.419 91.256 232.051 91.288 231.699 91.288C231.027 91.288 230.491 91.2 230.091 91.024C229.691 90.848 229.379 90.6 229.155 90.28C228.931 89.96 228.779 89.568 228.699 89.104C228.635 88.624 228.603 88.096 228.603 87.52V81.352H226.155V79.768H228.603V76.576H230.475V79.768H233.787V81.352ZM242.616 81.208C243.192 80.616 243.872 80.184 244.656 79.912C245.456 79.624 246.264 79.48 247.08 79.48C248.744 79.48 249.944 79.872 250.68 80.656C251.416 81.44 251.784 82.632 251.784 84.232V89.056C251.784 89.376 251.8 89.712 251.832 90.064C251.864 90.4 251.904 90.712 251.952 91H250.152C250.088 90.744 250.048 90.464 250.032 90.16C250.032 89.84 250.032 89.56 250.032 89.32H249.984C249.616 89.896 249.12 90.368 248.496 90.736C247.888 91.104 247.152 91.288 246.288 91.288C245.712 91.288 245.168 91.216 244.656 91.072C244.16 90.928 243.72 90.72 243.336 90.448C242.968 90.16 242.672 89.808 242.448 89.392C242.224 88.976 242.112 88.496 242.112 87.952C242.112 87.024 242.352 86.296 242.832 85.768C243.312 85.24 243.904 84.848 244.608 84.592C245.328 84.336 246.096 84.176 246.912 84.112C247.744 84.048 248.504 84.016 249.192 84.016H249.912V83.68C249.912 82.864 249.664 82.248 249.168 81.832C248.688 81.416 248.008 81.208 247.128 81.208C246.52 81.208 245.92 81.312 245.328 81.52C244.752 81.712 244.24 82.016 243.792 82.432L242.616 81.208ZM248.04 85.6C246.84 85.6 245.888 85.768 245.184 86.104C244.48 86.44 244.128 86.992 244.128 87.76C244.128 88.464 244.36 88.968 244.824 89.272C245.304 89.56 245.896 89.704 246.6 89.704C247.144 89.704 247.616 89.616 248.016 89.44C248.432 89.248 248.776 89 249.048 88.696C249.32 88.392 249.528 88.04 249.672 87.64C249.816 87.224 249.896 86.784 249.912 86.32V85.6H248.04ZM255.206 82.432C255.206 81.92 255.19 81.44 255.158 80.992C255.126 80.544 255.11 80.136 255.11 79.768H256.886C256.886 80.072 256.894 80.376 256.91 80.68C256.926 80.984 256.934 81.296 256.934 81.616H256.982C257.11 81.344 257.286 81.08 257.51 80.824C257.75 80.568 258.03 80.344 258.35 80.152C258.67 79.944 259.03 79.784 259.43 79.672C259.83 79.544 260.262 79.48 260.726 79.48C261.334 79.48 261.838 79.56 262.238 79.72C262.654 79.864 262.998 80.048 263.27 80.272C263.542 80.48 263.75 80.712 263.894 80.968C264.054 81.208 264.182 81.424 264.278 81.616C264.694 80.944 265.174 80.424 265.718 80.056C266.262 79.672 266.966 79.48 267.83 79.48C268.63 79.48 269.302 79.592 269.846 79.816C270.39 80.024 270.83 80.336 271.166 80.752C271.502 81.152 271.742 81.648 271.886 82.24C272.03 82.816 272.102 83.464 272.102 84.184V91H270.23V84.28C270.23 83.896 270.19 83.52 270.11 83.152C270.03 82.784 269.886 82.456 269.678 82.168C269.47 81.88 269.19 81.648 268.838 81.472C268.486 81.296 268.038 81.208 267.494 81.208C267.094 81.208 266.718 81.288 266.366 81.448C266.014 81.608 265.702 81.832 265.43 82.12C265.174 82.408 264.966 82.76 264.806 83.176C264.662 83.576 264.59 84.024 264.59 84.52V91H262.718V84.64C262.718 83.392 262.55 82.512 262.214 82C261.878 81.472 261.326 81.208 260.558 81.208C259.95 81.208 259.422 81.312 258.974 81.52C258.542 81.728 258.182 82.024 257.894 82.408C257.622 82.792 257.414 83.248 257.27 83.776C257.142 84.304 257.078 84.888 257.078 85.528V91H255.206V82.432ZM285.675 88.96C285.003 89.824 284.267 90.432 283.467 90.784C282.667 91.12 281.739 91.288 280.683 91.288C279.803 91.288 279.011 91.136 278.307 90.832C277.603 90.512 277.003 90.088 276.507 89.56C276.027 89.032 275.651 88.408 275.379 87.688C275.123 86.968 274.995 86.2 274.995 85.384C274.995 84.52 275.139 83.728 275.427 83.008C275.715 82.272 276.115 81.648 276.627 81.136C277.139 80.608 277.747 80.2 278.451 79.912C279.155 79.624 279.923 79.48 280.755 79.48C281.539 79.48 282.259 79.616 282.915 79.888C283.571 80.144 284.131 80.528 284.595 81.04C285.075 81.536 285.443 82.152 285.699 82.888C285.955 83.608 286.083 84.432 286.083 85.36V85.96H277.011C277.043 86.44 277.155 86.904 277.347 87.352C277.555 87.784 277.819 88.168 278.139 88.504C278.459 88.824 278.835 89.08 279.267 89.272C279.699 89.464 280.171 89.56 280.683 89.56C281.499 89.56 282.187 89.416 282.747 89.128C283.307 88.84 283.811 88.416 284.259 87.856L285.675 88.96ZM284.067 84.376C284.035 83.416 283.723 82.648 283.131 82.072C282.539 81.496 281.723 81.208 280.683 81.208C279.643 81.208 278.803 81.496 278.163 82.072C277.523 82.648 277.139 83.416 277.011 84.376H284.067ZM295.123 81.352H291.811V86.968C291.811 87.336 291.819 87.68 291.835 88C291.851 88.304 291.915 88.576 292.027 88.816C292.139 89.04 292.307 89.224 292.531 89.368C292.755 89.496 293.075 89.56 293.491 89.56C293.763 89.56 294.043 89.528 294.331 89.464C294.619 89.4 294.891 89.304 295.147 89.176L295.219 90.88C294.899 91.024 294.539 91.128 294.139 91.192C293.755 91.256 293.387 91.288 293.035 91.288C292.363 91.288 291.827 91.2 291.427 91.024C291.027 90.848 290.715 90.6 290.491 90.28C290.267 89.96 290.115 89.568 290.035 89.104C289.971 88.624 289.939 88.096 289.939 87.52V81.352H287.491V79.768H289.939V76.576H291.811V79.768H295.123V81.352ZM298.737 94.312H296.889L298.521 88.552H300.705L298.737 94.312ZM9.768 115.576C9.368 115.096 8.936 114.752 8.472 114.544C8.008 114.32 7.496 114.208 6.936 114.208C6.312 114.208 5.76 114.32 5.28 114.544C4.8 114.752 4.4 115.048 4.08 115.432C3.776 115.816 3.544 116.264 3.384 116.776C3.224 117.272 3.144 117.808 3.144 118.384C3.144 118.96 3.232 119.504 3.408 120.016C3.6 120.512 3.856 120.952 4.176 121.336C4.512 121.72 4.912 122.024 5.376 122.248C5.84 122.456 6.36 122.56 6.936 122.56C8.168 122.56 9.12 122.096 9.792 121.168L11.184 122.488C10.64 123.112 10 123.568 9.264 123.856C8.528 124.144 7.752 124.288 6.936 124.288C6.072 124.288 5.28 124.144 4.56 123.856C3.84 123.568 3.224 123.16 2.712 122.632C2.216 122.104 1.824 121.48 1.536 120.76C1.264 120.04 1.128 119.248 1.128 118.384C1.128 117.536 1.264 116.752 1.536 116.032C1.824 115.312 2.224 114.688 2.736 114.16C3.248 113.632 3.856 113.224 4.56 112.936C5.28 112.632 6.072 112.48 6.936 112.48C7.768 112.48 8.552 112.624 9.288 112.912C10.04 113.2 10.696 113.648 11.256 114.256L9.768 115.576ZM12.7061 118.384C12.7061 117.504 12.8581 116.704 13.1621 115.984C13.4661 115.264 13.8821 114.648 14.4101 114.136C14.9381 113.608 15.5701 113.2 16.3061 112.912C17.0421 112.624 17.8421 112.48 18.7061 112.48C19.5701 112.48 20.3701 112.624 21.1061 112.912C21.8421 113.2 22.4741 113.608 23.0021 114.136C23.5301 114.648 23.9461 115.264 24.2501 115.984C24.5541 116.704 24.7061 117.504 24.7061 118.384C24.7061 119.264 24.5541 120.064 24.2501 120.784C23.9461 121.504 23.5301 122.128 23.0021 122.656C22.4741 123.168 21.8421 123.568 21.1061 123.856C20.3701 124.144 19.5701 124.288 18.7061 124.288C17.8421 124.288 17.0421 124.144 16.3061 123.856C15.5701 123.568 14.9381 123.168 14.4101 122.656C13.8821 122.128 13.4661 121.504 13.1621 120.784C12.8581 120.064 12.7061 119.264 12.7061 118.384ZM14.7221 118.384C14.7221 118.976 14.8101 119.528 14.9861 120.04C15.1781 120.536 15.4501 120.976 15.8021 121.36C16.1541 121.728 16.5701 122.024 17.0501 122.248C17.5461 122.456 18.0981 122.56 18.7061 122.56C19.3141 122.56 19.8581 122.456 20.3381 122.248C20.8341 122.024 21.2581 121.728 21.6101 121.36C21.9621 120.976 22.2261 120.536 22.4021 120.04C22.5941 119.528 22.6901 118.976 22.6901 118.384C22.6901 117.792 22.5941 117.248 22.4021 116.752C22.2261 116.24 21.9621 115.8 21.6101 115.432C21.2581 115.048 20.8341 114.752 20.3381 114.544C19.8581 114.32 19.3141 114.208 18.7061 114.208C18.0981 114.208 17.5461 114.32 17.0501 114.544C16.5701 114.752 16.1541 115.048 15.8021 115.432C15.4501 115.8 15.1781 116.24 14.9861 116.752C14.8101 117.248 14.7221 117.792 14.7221 118.384ZM27.6041 115.432C27.6041 114.92 27.5881 114.44 27.5561 113.992C27.5241 113.544 27.5081 113.136 27.5081 112.768H29.2841C29.2841 113.072 29.2921 113.376 29.3081 113.68C29.3241 113.984 29.3321 114.296 29.3321 114.616H29.3801C29.5081 114.344 29.6841 114.08 29.9081 113.824C30.1481 113.568 30.4281 113.344 30.7481 113.152C31.0681 112.944 31.4281 112.784 31.8281 112.672C32.2281 112.544 32.6601 112.48 33.1241 112.48C33.8601 112.48 34.4921 112.592 35.0201 112.816C35.5641 113.04 36.0121 113.352 36.3641 113.752C36.7161 114.152 36.9721 114.64 37.1321 115.216C37.3081 115.776 37.3961 116.392 37.3961 117.064V124H35.5241V117.256C35.5241 116.312 35.3161 115.568 34.9001 115.024C34.4841 114.48 33.8361 114.208 32.9561 114.208C32.3481 114.208 31.8201 114.312 31.3721 114.52C30.9401 114.728 30.5801 115.024 30.2921 115.408C30.0201 115.792 29.8121 116.248 29.6681 116.776C29.5401 117.304 29.4761 117.888 29.4761 118.528V124H27.6041V115.432ZM41.1801 121.048C41.5481 121.512 41.9481 121.88 42.3801 122.152C42.8281 122.424 43.3881 122.56 44.0601 122.56C44.3481 122.56 44.6361 122.528 44.9241 122.464C45.2281 122.4 45.5001 122.296 45.7401 122.152C45.9801 122.008 46.1721 121.832 46.3161 121.624C46.4601 121.4 46.5321 121.136 46.5321 120.832C46.5321 120.528 46.4601 120.28 46.3161 120.088C46.1881 119.896 46.0121 119.736 45.7881 119.608C45.5641 119.464 45.3081 119.352 45.0201 119.272C44.7321 119.192 44.4361 119.12 44.1321 119.056C43.6041 118.944 43.1001 118.816 42.6201 118.672C42.1401 118.528 41.7161 118.344 41.3481 118.12C40.9961 117.88 40.7081 117.576 40.4841 117.208C40.2761 116.84 40.1721 116.368 40.1721 115.792C40.1721 115.248 40.2921 114.768 40.5321 114.352C40.7721 113.936 41.0921 113.592 41.4921 113.32C41.8921 113.048 42.3401 112.84 42.8361 112.696C43.3321 112.552 43.8441 112.48 44.3721 112.48C45.1721 112.48 45.9081 112.64 46.5801 112.96C47.2681 113.28 47.8041 113.8 48.1881 114.52L46.6281 115.552C46.3881 115.152 46.0681 114.832 45.6681 114.592C45.2841 114.336 44.8121 114.208 44.2521 114.208C43.9961 114.208 43.7321 114.24 43.4601 114.304C43.2041 114.368 42.9721 114.464 42.7641 114.592C42.5561 114.72 42.3801 114.888 42.2361 115.096C42.1081 115.288 42.0441 115.512 42.0441 115.768C42.0441 116.008 42.1161 116.216 42.2601 116.392C42.4201 116.552 42.6281 116.696 42.8841 116.824C43.1561 116.952 43.4601 117.064 43.7961 117.16C44.1481 117.256 44.5081 117.336 44.8761 117.4C45.3721 117.496 45.8441 117.624 46.2921 117.784C46.7401 117.928 47.1321 118.128 47.4681 118.384C47.8041 118.64 48.0681 118.96 48.2601 119.344C48.4521 119.728 48.5481 120.2 48.5481 120.76C48.5481 121.4 48.4201 121.944 48.1641 122.392C47.9081 122.84 47.5641 123.208 47.1321 123.496C46.7161 123.768 46.2361 123.968 45.6921 124.096C45.1641 124.224 44.6201 124.288 44.0601 124.288C43.1001 124.288 42.2681 124.144 41.5641 123.856C40.8761 123.552 40.2521 123 39.6921 122.2L41.1801 121.048ZM61.1908 121.96C60.5188 122.824 59.7828 123.432 58.9828 123.784C58.1828 124.12 57.2548 124.288 56.1988 124.288C55.3188 124.288 54.5268 124.136 53.8228 123.832C53.1188 123.512 52.5188 123.088 52.0228 122.56C51.5428 122.032 51.1668 121.408 50.8948 120.688C50.6388 119.968 50.5108 119.2 50.5108 118.384C50.5108 117.52 50.6548 116.728 50.9428 116.008C51.2308 115.272 51.6308 114.648 52.1428 114.136C52.6548 113.608 53.2628 113.2 53.9668 112.912C54.6708 112.624 55.4388 112.48 56.2708 112.48C57.0548 112.48 57.7748 112.616 58.4308 112.888C59.0868 113.144 59.6468 113.528 60.1108 114.04C60.5908 114.536 60.9588 115.152 61.2148 115.888C61.4708 116.608 61.5988 117.432 61.5988 118.36V118.96H52.5268C52.5588 119.44 52.6708 119.904 52.8628 120.352C53.0708 120.784 53.3348 121.168 53.6548 121.504C53.9748 121.824 54.3508 122.08 54.7828 122.272C55.2148 122.464 55.6868 122.56 56.1988 122.56C57.0148 122.56 57.7028 122.416 58.2628 122.128C58.8228 121.84 59.3268 121.416 59.7748 120.856L61.1908 121.96ZM59.5828 117.376C59.5508 116.416 59.2388 115.648 58.6468 115.072C58.0548 114.496 57.2388 114.208 56.1988 114.208C55.1588 114.208 54.3188 114.496 53.6788 115.072C53.0388 115.648 52.6548 116.416 52.5268 117.376H59.5828ZM72.4868 115.576C72.0868 115.096 71.6548 114.752 71.1908 114.544C70.7268 114.32 70.2148 114.208 69.6548 114.208C69.0308 114.208 68.4788 114.32 67.9988 114.544C67.5188 114.752 67.1188 115.048 66.7988 115.432C66.4948 115.816 66.2628 116.264 66.1028 116.776C65.9428 117.272 65.8628 117.808 65.8628 118.384C65.8628 118.96 65.9508 119.504 66.1268 120.016C66.3188 120.512 66.5748 120.952 66.8948 121.336C67.2308 121.72 67.6308 122.024 68.0948 122.248C68.5588 122.456 69.0788 122.56 69.6548 122.56C70.8868 122.56 71.8388 122.096 72.5108 121.168L73.9028 122.488C73.3588 123.112 72.7188 123.568 71.9828 123.856C71.2468 124.144 70.4708 124.288 69.6548 124.288C68.7908 124.288 67.9988 124.144 67.2788 123.856C66.5588 123.568 65.9428 123.16 65.4308 122.632C64.9348 122.104 64.5428 121.48 64.2548 120.76C63.9828 120.04 63.8468 119.248 63.8468 118.384C63.8468 117.536 63.9828 116.752 64.2548 116.032C64.5428 115.312 64.9428 114.688 65.4548 114.16C65.9668 113.632 66.5748 113.224 67.2788 112.936C67.9988 112.632 68.7908 112.48 69.6548 112.48C70.4868 112.48 71.2708 112.624 72.0068 112.912C72.7588 113.2 73.4148 113.648 73.9748 114.256L72.4868 115.576ZM82.2169 114.352H78.9049V119.968C78.9049 120.336 78.9129 120.68 78.9289 121C78.9449 121.304 79.0089 121.576 79.1209 121.816C79.2329 122.04 79.4009 122.224 79.6249 122.368C79.8489 122.496 80.1689 122.56 80.5849 122.56C80.8569 122.56 81.1369 122.528 81.4249 122.464C81.7129 122.4 81.9849 122.304 82.2409 122.176L82.3129 123.88C81.9929 124.024 81.6329 124.128 81.2329 124.192C80.8489 124.256 80.4809 124.288 80.1289 124.288C79.4569 124.288 78.9209 124.2 78.5209 124.024C78.1209 123.848 77.8089 123.6 77.5849 123.28C77.3609 122.96 77.2089 122.568 77.1289 122.104C77.0649 121.624 77.0329 121.096 77.0329 120.52V114.352H74.5849V112.768H77.0329V109.576H78.9049V112.768H82.2169V114.352ZM94.5424 121.96C93.8704 122.824 93.1344 123.432 92.3344 123.784C91.5344 124.12 90.6064 124.288 89.5504 124.288C88.6704 124.288 87.8784 124.136 87.1744 123.832C86.4704 123.512 85.8704 123.088 85.3744 122.56C84.8944 122.032 84.5184 121.408 84.2464 120.688C83.9904 119.968 83.8624 119.2 83.8624 118.384C83.8624 117.52 84.0064 116.728 84.2944 116.008C84.5824 115.272 84.9824 114.648 85.4944 114.136C86.0064 113.608 86.6144 113.2 87.3184 112.912C88.0224 112.624 88.7904 112.48 89.6224 112.48C90.4064 112.48 91.1264 112.616 91.7824 112.888C92.4384 113.144 92.9984 113.528 93.4624 114.04C93.9424 114.536 94.3104 115.152 94.5664 115.888C94.8224 116.608 94.9504 117.432 94.9504 118.36V118.96H85.8784C85.9104 119.44 86.0224 119.904 86.2144 120.352C86.4224 120.784 86.6864 121.168 87.0064 121.504C87.3264 121.824 87.7024 122.08 88.1344 122.272C88.5664 122.464 89.0384 122.56 89.5504 122.56C90.3664 122.56 91.0544 122.416 91.6144 122.128C92.1744 121.84 92.6784 121.416 93.1264 120.856L94.5424 121.96ZM92.9344 117.376C92.9024 116.416 92.5904 115.648 91.9984 115.072C91.4064 114.496 90.5904 114.208 89.5504 114.208C88.5104 114.208 87.6704 114.496 87.0304 115.072C86.3904 115.648 86.0064 116.416 85.8784 117.376H92.9344ZM103.99 114.352H100.678V119.968C100.678 120.336 100.686 120.68 100.702 121C100.718 121.304 100.782 121.576 100.894 121.816C101.006 122.04 101.174 122.224 101.398 122.368C101.622 122.496 101.942 122.56 102.358 122.56C102.63 122.56 102.91 122.528 103.198 122.464C103.486 122.4 103.758 122.304 104.014 122.176L104.086 123.88C103.766 124.024 103.406 124.128 103.006 124.192C102.622 124.256 102.254 124.288 101.902 124.288C101.23 124.288 100.694 124.2 100.294 124.024C99.8943 123.848 99.5823 123.6 99.3583 123.28C99.1343 122.96 98.9823 122.568 98.9023 122.104C98.8383 121.624 98.8063 121.096 98.8063 120.52V114.352H96.3583V112.768H98.8063V109.576H100.678V112.768H103.99V114.352ZM116.076 121.336C116.076 121.848 116.092 122.328 116.124 122.776C116.156 123.224 116.172 123.632 116.172 124H114.396C114.396 123.696 114.388 123.392 114.372 123.088C114.356 122.784 114.348 122.472 114.348 122.152H114.3C114.172 122.424 113.988 122.688 113.748 122.944C113.524 123.2 113.252 123.432 112.932 123.64C112.612 123.832 112.252 123.984 111.852 124.096C111.452 124.224 111.02 124.288 110.556 124.288C109.82 124.288 109.18 124.176 108.636 123.952C108.108 123.728 107.668 123.416 107.316 123.016C106.964 122.616 106.7 122.136 106.524 121.576C106.364 121 106.284 120.376 106.284 119.704V112.768H108.156V119.512C108.156 120.456 108.364 121.2 108.78 121.744C109.196 122.288 109.844 122.56 110.724 122.56C111.332 122.56 111.852 122.456 112.284 122.248C112.732 122.04 113.092 121.744 113.364 121.36C113.652 120.976 113.86 120.52 113.988 119.992C114.132 119.464 114.204 118.88 114.204 118.24V112.768H116.076V121.336ZM119.62 115.432C119.62 114.92 119.604 114.44 119.572 113.992C119.54 113.544 119.524 113.136 119.524 112.768H121.3C121.3 113.072 121.308 113.376 121.324 113.68C121.34 113.984 121.348 114.296 121.348 114.616H121.396C121.524 114.344 121.7 114.08 121.924 113.824C122.164 113.568 122.444 113.344 122.764 113.152C123.084 112.944 123.444 112.784 123.844 112.672C124.244 112.544 124.676 112.48 125.14 112.48C125.268 112.48 125.396 112.488 125.524 112.504C125.652 112.52 125.78 112.552 125.908 112.6L125.788 114.496C125.468 114.4 125.132 114.352 124.78 114.352C123.628 114.352 122.788 114.728 122.26 115.48C121.748 116.216 121.492 117.232 121.492 118.528V124H119.62V115.432ZM134.593 114.208C135.169 113.616 135.849 113.184 136.633 112.912C137.433 112.624 138.241 112.48 139.057 112.48C140.721 112.48 141.921 112.872 142.657 113.656C143.393 114.44 143.761 115.632 143.761 117.232V122.056C143.761 122.376 143.777 122.712 143.809 123.064C143.841 123.4 143.881 123.712 143.929 124H142.129C142.065 123.744 142.025 123.464 142.009 123.16C142.009 122.84 142.009 122.56 142.009 122.32H141.961C141.593 122.896 141.097 123.368 140.473 123.736C139.865 124.104 139.129 124.288 138.265 124.288C137.689 124.288 137.145 124.216 136.633 124.072C136.137 123.928 135.697 123.72 135.313 123.448C134.945 123.16 134.649 122.808 134.425 122.392C134.201 121.976 134.089 121.496 134.089 120.952C134.089 120.024 134.329 119.296 134.809 118.768C135.289 118.24 135.881 117.848 136.585 117.592C137.305 117.336 138.073 117.176 138.889 117.112C139.721 117.048 140.481 117.016 141.169 117.016H141.889V116.68C141.889 115.864 141.641 115.248 141.145 114.832C140.665 114.416 139.985 114.208 139.105 114.208C138.497 114.208 137.897 114.312 137.305 114.52C136.729 114.712 136.217 115.016 135.769 115.432L134.593 114.208ZM140.017 118.6C138.817 118.6 137.865 118.768 137.161 119.104C136.457 119.44 136.105 119.992 136.105 120.76C136.105 121.464 136.337 121.968 136.801 122.272C137.281 122.56 137.873 122.704 138.577 122.704C139.121 122.704 139.593 122.616 139.993 122.44C140.409 122.248 140.753 122 141.025 121.696C141.297 121.392 141.505 121.04 141.649 120.64C141.793 120.224 141.873 119.784 141.889 119.32V118.6H140.017ZM156.518 122.008H156.47C156.118 122.648 155.558 123.192 154.79 123.64C154.038 124.072 153.158 124.288 152.15 124.288C151.366 124.288 150.63 124.144 149.942 123.856C149.254 123.552 148.654 123.136 148.142 122.608C147.646 122.08 147.254 121.456 146.966 120.736C146.678 120.016 146.534 119.232 146.534 118.384C146.534 117.536 146.678 116.752 146.966 116.032C147.254 115.312 147.654 114.688 148.166 114.16C148.678 113.632 149.294 113.224 150.014 112.936C150.75 112.632 151.558 112.48 152.438 112.48C153.254 112.48 153.998 112.648 154.67 112.984C155.358 113.32 155.958 113.792 156.47 114.4H156.518V105.856H158.39V124H156.518V122.008ZM156.518 118.384C156.518 117.792 156.422 117.248 156.23 116.752C156.054 116.24 155.79 115.8 155.438 115.432C155.086 115.048 154.662 114.752 154.166 114.544C153.686 114.32 153.142 114.208 152.534 114.208C151.926 114.208 151.374 114.32 150.878 114.544C150.398 114.752 149.982 115.048 149.63 115.432C149.278 115.8 149.006 116.24 148.814 116.752C148.638 117.248 148.55 117.792 148.55 118.384C148.55 118.976 148.638 119.528 148.814 120.04C149.006 120.536 149.278 120.976 149.63 121.36C149.982 121.728 150.398 122.024 150.878 122.248C151.374 122.456 151.926 122.56 152.534 122.56C153.142 122.56 153.686 122.456 154.166 122.248C154.662 122.024 155.086 121.728 155.438 121.36C155.79 120.976 156.054 120.536 156.23 120.04C156.422 119.528 156.518 118.976 156.518 118.384ZM162.046 112.768H163.918V124H162.046V112.768ZM161.614 108.376C161.614 108.008 161.742 107.688 161.998 107.416C162.27 107.144 162.598 107.008 162.982 107.008C163.366 107.008 163.686 107.144 163.942 107.416C164.214 107.688 164.35 108.008 164.35 108.376C164.35 108.776 164.222 109.104 163.966 109.36C163.71 109.616 163.382 109.744 162.982 109.744C162.582 109.744 162.254 109.616 161.998 109.36C161.742 109.104 161.614 108.776 161.614 108.376ZM167.547 112.768H169.419V114.4H169.467C169.979 113.792 170.571 113.32 171.243 112.984C171.931 112.648 172.683 112.48 173.499 112.48C174.379 112.48 175.179 112.632 175.899 112.936C176.635 113.224 177.259 113.632 177.771 114.16C178.283 114.688 178.683 115.312 178.971 116.032C179.259 116.752 179.403 117.536 179.403 118.384C179.403 119.232 179.259 120.016 178.971 120.736C178.683 121.456 178.283 122.08 177.771 122.608C177.275 123.136 176.683 123.552 175.995 123.856C175.307 124.144 174.571 124.288 173.787 124.288C172.779 124.288 171.891 124.072 171.123 123.64C170.371 123.192 169.819 122.648 169.467 122.008H169.419V129.472H167.547V112.768ZM169.419 118.384C169.419 118.976 169.507 119.528 169.683 120.04C169.875 120.536 170.147 120.976 170.499 121.36C170.851 121.728 171.267 122.024 171.747 122.248C172.243 122.456 172.795 122.56 173.403 122.56C174.011 122.56 174.555 122.456 175.035 122.248C175.531 122.024 175.955 121.728 176.307 121.36C176.659 120.976 176.923 120.536 177.099 120.04C177.291 119.528 177.387 118.976 177.387 118.384C177.387 117.792 177.291 117.248 177.099 116.752C176.923 116.24 176.659 115.8 176.307 115.432C175.955 115.048 175.531 114.752 175.035 114.544C174.555 114.32 174.011 114.208 173.403 114.208C172.795 114.208 172.243 114.32 171.747 114.544C171.267 114.752 170.851 115.048 170.499 115.432C170.147 115.8 169.875 116.24 169.683 116.752C169.507 117.248 169.419 117.792 169.419 118.384ZM182.483 112.768H184.355V124H182.483V112.768ZM182.051 108.376C182.051 108.008 182.179 107.688 182.435 107.416C182.707 107.144 183.035 107.008 183.419 107.008C183.803 107.008 184.123 107.144 184.379 107.416C184.651 107.688 184.787 108.008 184.787 108.376C184.787 108.776 184.659 109.104 184.403 109.36C184.147 109.616 183.819 109.744 183.419 109.744C183.019 109.744 182.691 109.616 182.435 109.36C182.179 109.104 182.051 108.776 182.051 108.376ZM188.321 121.048C188.689 121.512 189.089 121.88 189.521 122.152C189.969 122.424 190.529 122.56 191.201 122.56C191.489 122.56 191.777 122.528 192.065 122.464C192.369 122.4 192.641 122.296 192.881 122.152C193.121 122.008 193.313 121.832 193.457 121.624C193.601 121.4 193.673 121.136 193.673 120.832C193.673 120.528 193.601 120.28 193.457 120.088C193.329 119.896 193.153 119.736 192.929 119.608C192.705 119.464 192.449 119.352 192.161 119.272C191.873 119.192 191.577 119.12 191.273 119.056C190.745 118.944 190.241 118.816 189.761 118.672C189.281 118.528 188.857 118.344 188.489 118.12C188.137 117.88 187.849 117.576 187.625 117.208C187.417 116.84 187.313 116.368 187.313 115.792C187.313 115.248 187.433 114.768 187.673 114.352C187.913 113.936 188.233 113.592 188.633 113.32C189.033 113.048 189.481 112.84 189.977 112.696C190.473 112.552 190.985 112.48 191.513 112.48C192.313 112.48 193.049 112.64 193.721 112.96C194.409 113.28 194.945 113.8 195.329 114.52L193.769 115.552C193.529 115.152 193.209 114.832 192.809 114.592C192.425 114.336 191.953 114.208 191.393 114.208C191.137 114.208 190.873 114.24 190.601 114.304C190.345 114.368 190.113 114.464 189.905 114.592C189.697 114.72 189.521 114.888 189.377 115.096C189.249 115.288 189.185 115.512 189.185 115.768C189.185 116.008 189.257 116.216 189.401 116.392C189.561 116.552 189.769 116.696 190.025 116.824C190.297 116.952 190.601 117.064 190.937 117.16C191.289 117.256 191.649 117.336 192.017 117.4C192.513 117.496 192.985 117.624 193.433 117.784C193.881 117.928 194.273 118.128 194.609 118.384C194.945 118.64 195.209 118.96 195.401 119.344C195.593 119.728 195.689 120.2 195.689 120.76C195.689 121.4 195.561 121.944 195.305 122.392C195.049 122.84 194.705 123.208 194.273 123.496C193.857 123.768 193.377 123.968 192.833 124.096C192.305 124.224 191.761 124.288 191.201 124.288C190.241 124.288 189.409 124.144 188.705 123.856C188.017 123.552 187.393 123 186.833 122.2L188.321 121.048ZM206.291 115.576C205.891 115.096 205.459 114.752 204.995 114.544C204.531 114.32 204.019 114.208 203.459 114.208C202.835 114.208 202.283 114.32 201.803 114.544C201.323 114.752 200.923 115.048 200.603 115.432C200.299 115.816 200.067 116.264 199.907 116.776C199.747 117.272 199.667 117.808 199.667 118.384C199.667 118.96 199.755 119.504 199.931 120.016C200.123 120.512 200.379 120.952 200.699 121.336C201.035 121.72 201.435 122.024 201.899 122.248C202.363 122.456 202.883 122.56 203.459 122.56C204.691 122.56 205.643 122.096 206.315 121.168L207.707 122.488C207.163 123.112 206.523 123.568 205.787 123.856C205.051 124.144 204.275 124.288 203.459 124.288C202.595 124.288 201.803 124.144 201.083 123.856C200.363 123.568 199.747 123.16 199.235 122.632C198.739 122.104 198.347 121.48 198.059 120.76C197.787 120.04 197.651 119.248 197.651 118.384C197.651 117.536 197.787 116.752 198.059 116.032C198.347 115.312 198.747 114.688 199.259 114.16C199.771 113.632 200.379 113.224 201.083 112.936C201.803 112.632 202.595 112.48 203.459 112.48C204.291 112.48 205.075 112.624 205.811 112.912C206.563 113.2 207.219 113.648 207.779 114.256L206.291 115.576ZM210.046 112.768H211.918V124H210.046V112.768ZM209.614 108.376C209.614 108.008 209.742 107.688 209.998 107.416C210.27 107.144 210.598 107.008 210.982 107.008C211.366 107.008 211.686 107.144 211.942 107.416C212.214 107.688 212.35 108.008 212.35 108.376C212.35 108.776 212.222 109.104 211.966 109.36C211.71 109.616 211.382 109.744 210.982 109.744C210.582 109.744 210.254 109.616 209.998 109.36C209.742 109.104 209.614 108.776 209.614 108.376ZM215.643 115.432C215.643 114.92 215.627 114.44 215.595 113.992C215.563 113.544 215.547 113.136 215.547 112.768H217.323C217.323 113.072 217.331 113.376 217.347 113.68C217.363 113.984 217.371 114.296 217.371 114.616H217.419C217.547 114.344 217.723 114.08 217.947 113.824C218.187 113.568 218.467 113.344 218.787 113.152C219.107 112.944 219.467 112.784 219.867 112.672C220.267 112.544 220.699 112.48 221.163 112.48C221.899 112.48 222.531 112.592 223.059 112.816C223.603 113.04 224.051 113.352 224.403 113.752C224.755 114.152 225.011 114.64 225.171 115.216C225.347 115.776 225.435 116.392 225.435 117.064V124H223.563V117.256C223.563 116.312 223.355 115.568 222.939 115.024C222.523 114.48 221.875 114.208 220.995 114.208C220.387 114.208 219.859 114.312 219.411 114.52C218.979 114.728 218.619 115.024 218.331 115.408C218.059 115.792 217.851 116.248 217.707 116.776C217.579 117.304 217.515 117.888 217.515 118.528V124H215.643V115.432ZM240.187 123.496C240.187 125.544 239.659 127.096 238.603 128.152C237.563 129.224 236.051 129.76 234.067 129.76C232.963 129.76 231.963 129.6 231.067 129.28C230.187 128.96 229.347 128.408 228.547 127.624L229.891 126.088C230.483 126.728 231.107 127.208 231.763 127.528C232.435 127.864 233.203 128.032 234.067 128.032C234.899 128.032 235.587 127.904 236.131 127.648C236.691 127.408 237.131 127.072 237.451 126.64C237.771 126.224 237.995 125.744 238.123 125.2C238.251 124.656 238.315 124.088 238.315 123.496V122.056H238.267C237.819 122.776 237.235 123.304 236.515 123.64C235.795 123.976 235.059 124.144 234.307 124.144C233.427 124.144 232.619 124 231.883 123.712C231.147 123.424 230.515 123.024 229.987 122.512C229.459 122 229.051 121.392 228.763 120.688C228.475 119.984 228.331 119.216 228.331 118.384C228.331 117.472 228.475 116.648 228.763 115.912C229.051 115.176 229.451 114.56 229.963 114.064C230.491 113.552 231.123 113.16 231.859 112.888C232.595 112.616 233.411 112.48 234.307 112.48C234.691 112.48 235.075 112.528 235.459 112.624C235.843 112.704 236.211 112.84 236.563 113.032C236.931 113.208 237.259 113.44 237.547 113.728C237.835 114 238.075 114.32 238.267 114.688H238.315V112.768H240.187V123.496ZM230.347 118.384C230.347 118.96 230.451 119.496 230.659 119.992C230.867 120.472 231.147 120.896 231.499 121.264C231.867 121.616 232.291 121.896 232.771 122.104C233.251 122.312 233.763 122.416 234.307 122.416C234.947 122.416 235.515 122.304 236.011 122.08C236.507 121.856 236.923 121.56 237.259 121.192C237.611 120.808 237.875 120.376 238.051 119.896C238.227 119.4 238.315 118.88 238.315 118.336C238.315 117.728 238.219 117.176 238.027 116.68C237.835 116.168 237.563 115.728 237.211 115.36C236.859 114.992 236.435 114.712 235.939 114.52C235.443 114.312 234.899 114.208 234.307 114.208C233.715 114.208 233.171 114.32 232.675 114.544C232.195 114.752 231.779 115.048 231.427 115.432C231.091 115.8 230.827 116.24 230.635 116.752C230.443 117.248 230.347 117.792 230.347 118.384ZM260.363 121.96C259.691 122.824 258.955 123.432 258.155 123.784C257.355 124.12 256.427 124.288 255.371 124.288C254.491 124.288 253.699 124.136 252.995 123.832C252.291 123.512 251.691 123.088 251.195 122.56C250.715 122.032 250.339 121.408 250.067 120.688C249.811 119.968 249.683 119.2 249.683 118.384C249.683 117.52 249.827 116.728 250.115 116.008C250.403 115.272 250.803 114.648 251.315 114.136C251.827 113.608 252.435 113.2 253.139 112.912C253.843 112.624 254.611 112.48 255.443 112.48C256.227 112.48 256.947 112.616 257.603 112.888C258.259 113.144 258.819 113.528 259.283 114.04C259.763 114.536 260.131 115.152 260.387 115.888C260.643 116.608 260.771 117.432 260.771 118.36V118.96H251.699C251.731 119.44 251.843 119.904 252.035 120.352C252.243 120.784 252.507 121.168 252.827 121.504C253.147 121.824 253.523 122.08 253.955 122.272C254.387 122.464 254.859 122.56 255.371 122.56C256.187 122.56 256.875 122.416 257.435 122.128C257.995 121.84 258.499 121.416 258.947 120.856L260.363 121.96ZM258.755 117.376C258.723 116.416 258.411 115.648 257.819 115.072C257.227 114.496 256.411 114.208 255.371 114.208C254.331 114.208 253.491 114.496 252.851 115.072C252.211 115.648 251.827 116.416 251.699 117.376H258.755ZM263.835 105.856H265.707V124H263.835V105.856ZM269.624 112.768H271.496V124H269.624V112.768ZM269.192 108.376C269.192 108.008 269.32 107.688 269.576 107.416C269.848 107.144 270.176 107.008 270.56 107.008C270.944 107.008 271.264 107.144 271.52 107.416C271.792 107.688 271.928 108.008 271.928 108.376C271.928 108.776 271.8 109.104 271.544 109.36C271.288 109.616 270.96 109.744 270.56 109.744C270.16 109.744 269.832 109.616 269.576 109.36C269.32 109.104 269.192 108.776 269.192 108.376ZM281.365 114.352H278.053V119.968C278.053 120.336 278.061 120.68 278.077 121C278.093 121.304 278.157 121.576 278.269 121.816C278.381 122.04 278.549 122.224 278.773 122.368C278.997 122.496 279.317 122.56 279.733 122.56C280.005 122.56 280.285 122.528 280.573 122.464C280.861 122.4 281.133 122.304 281.389 122.176L281.461 123.88C281.141 124.024 280.781 124.128 280.381 124.192C279.997 124.256 279.629 124.288 279.277 124.288C278.605 124.288 278.069 124.2 277.669 124.024C277.269 123.848 276.957 123.6 276.733 123.28C276.509 122.96 276.357 122.568 276.277 122.104C276.213 121.624 276.181 121.096 276.181 120.52V114.352H273.733V112.768H276.181V109.576H278.053V112.768H281.365V114.352ZM285.219 121.264C285.619 121.264 285.955 121.408 286.227 121.696C286.515 121.968 286.659 122.304 286.659 122.704C286.659 123.104 286.507 123.448 286.203 123.736C285.915 124.008 285.587 124.144 285.219 124.144C284.851 124.144 284.515 124.008 284.211 123.736C283.923 123.448 283.779 123.104 283.779 122.704C283.779 122.304 283.915 121.968 284.187 121.696C284.475 121.408 284.819 121.264 285.219 121.264Z" fill="#252525" fill-opacity="0.8"/>
</svg>
