<svg width="608" height="84" viewBox="0 0 608 84" fill="none" xmlns="http://www.w3.org/2000/svg">
<path d="M3.512 16.2H12.584V18H1.592V2.16H3.512V16.2ZM20.1922 5.76C21.3282 5.76 22.3282 6.008 23.1922 6.504C24.0722 7 24.7602 7.72 25.2562 8.664C25.7522 9.592 26.0002 10.704 26.0002 12C26.0002 13.296 25.7522 14.416 25.2562 15.36C24.7602 16.288 24.0722 17 23.1922 17.496C22.3282 17.992 21.3282 18.24 20.1922 18.24C19.0722 18.24 18.0722 17.992 17.1922 17.496C16.3122 17 15.6242 16.288 15.1282 15.36C14.6322 14.416 14.3842 13.296 14.3842 12C14.3842 10.704 14.6322 9.592 15.1282 8.664C15.6242 7.72 16.3122 7 17.1922 6.504C18.0722 6.008 19.0722 5.76 20.1922 5.76ZM20.1922 7.416C19.3762 7.416 18.6802 7.6 18.1042 7.968C17.5282 8.336 17.0802 8.864 16.7602 9.552C16.4562 10.224 16.3042 11.04 16.3042 12C16.3042 12.944 16.4562 13.76 16.7602 14.448C17.0802 15.136 17.5282 15.664 18.1042 16.032C18.6802 16.4 19.3762 16.584 20.1922 16.584C21.0082 16.584 21.7042 16.4 22.2802 16.032C22.8562 15.664 23.2962 15.136 23.6002 14.448C23.9202 13.76 24.0802 12.944 24.0802 12C24.0802 11.04 23.9202 10.224 23.6002 9.552C23.2962 8.864 22.8562 8.336 22.2802 7.968C21.7042 7.6 21.0082 7.416 20.1922 7.416ZM29.6148 18V6H31.1748L31.4388 7.968C31.7748 7.232 32.2628 6.68 32.9028 6.312C33.5588 5.944 34.3508 5.76 35.2788 5.76C35.4868 5.76 35.7108 5.776 35.9508 5.808C36.2068 5.84 36.4228 5.904 36.5988 6L36.2628 7.752C36.0868 7.688 35.8948 7.64 35.6868 7.608C35.4788 7.576 35.1828 7.56 34.7988 7.56C34.3028 7.56 33.7988 7.704 33.2868 7.992C32.7908 8.28 32.3748 8.72 32.0388 9.312C31.7028 9.888 31.5348 10.624 31.5348 11.52V18H29.6148ZM44.0527 18.24C42.9167 18.24 41.9007 17.992 41.0047 17.496C40.1247 17 39.4367 16.288 38.9407 15.36C38.4447 14.416 38.1967 13.296 38.1967 12C38.1967 10.704 38.4447 9.592 38.9407 8.664C39.4367 7.72 40.1167 7 40.9807 6.504C41.8447 6.008 42.8287 5.76 43.9327 5.76C45.0527 5.76 46.0047 6 46.7887 6.48C47.5887 6.96 48.1967 7.616 48.6127 8.448C49.0287 9.264 49.2367 10.184 49.2367 11.208C49.2367 11.48 49.2287 11.728 49.2127 11.952C49.1967 12.176 49.1727 12.376 49.1407 12.552H39.4447V10.848H48.3007L47.3167 11.04C47.3167 9.888 46.9967 9 46.3567 8.376C45.7327 7.752 44.9087 7.44 43.8847 7.44C43.1007 7.44 42.4207 7.624 41.8447 7.992C41.2847 8.344 40.8447 8.864 40.5247 9.552C40.2207 10.224 40.0687 11.04 40.0687 12C40.0687 12.944 40.2287 13.76 40.5487 14.448C40.8687 15.136 41.3167 15.664 41.8927 16.032C42.4847 16.384 43.1887 16.56 44.0047 16.56C44.8847 16.56 45.5967 16.392 46.1407 16.056C46.7007 15.72 47.1487 15.264 47.4847 14.688L48.9967 15.576C48.6927 16.12 48.3007 16.592 47.8207 16.992C47.3567 17.392 46.8047 17.704 46.1647 17.928C45.5407 18.136 44.8367 18.24 44.0527 18.24ZM52.8883 18V6H54.5683L54.6883 7.872C55.1203 7.136 55.6803 6.6 56.3683 6.264C57.0723 5.928 57.7923 5.76 58.5283 5.76C59.3763 5.76 60.1763 5.952 60.9283 6.336C61.6803 6.72 62.2563 7.312 62.6562 8.112C62.9123 7.568 63.2723 7.128 63.7363 6.792C64.2003 6.44 64.7043 6.184 65.2483 6.024C65.8083 5.848 66.3363 5.76 66.8323 5.76C67.6003 5.76 68.3283 5.92 69.0163 6.24C69.7203 6.56 70.2963 7.056 70.7443 7.728C71.1923 8.4 71.4163 9.264 71.4163 10.32V18H69.4963V10.512C69.4963 9.424 69.2243 8.64 68.6803 8.16C68.1363 7.68 67.4643 7.44 66.6643 7.44C66.0403 7.44 65.4563 7.592 64.9123 7.896C64.3683 8.2 63.9283 8.648 63.5923 9.24C63.2723 9.832 63.1123 10.56 63.1123 11.424V18H61.1923V10.512C61.1923 9.424 60.9203 8.64 60.3763 8.16C59.8323 7.68 59.1603 7.44 58.3603 7.44C57.8323 7.44 57.2883 7.584 56.7283 7.872C56.1843 8.144 55.7283 8.584 55.3603 9.192C54.9923 9.8 54.8083 10.6 54.8083 11.592V18H52.8883ZM84.9029 3.696C84.4709 3.696 84.1189 3.568 83.8469 3.312C83.5909 3.04 83.4629 2.688 83.4629 2.256C83.4629 1.824 83.5909 1.48 83.8469 1.224C84.1189 0.951999 84.4709 0.816 84.9029 0.816C85.3349 0.816 85.6789 0.951999 85.9349 1.224C86.2069 1.48 86.3429 1.824 86.3429 2.256C86.3429 2.688 86.2069 3.04 85.9349 3.312C85.6789 3.568 85.3349 3.696 84.9029 3.696ZM85.8629 6V18H83.9429V6H85.8629ZM90.3179 23.04V6H91.9979L92.1659 8.928L91.9019 8.592C92.1099 8.032 92.4219 7.544 92.8379 7.128C93.2539 6.696 93.7579 6.36 94.3499 6.12C94.9419 5.88 95.5819 5.76 96.2699 5.76C97.2459 5.76 98.1419 6.008 98.9579 6.504C99.7899 7 100.454 7.712 100.95 8.64C101.446 9.568 101.694 10.688 101.694 12C101.694 13.296 101.438 14.416 100.926 15.36C100.43 16.288 99.7659 17 98.9339 17.496C98.1019 17.992 97.1899 18.24 96.1979 18.24C95.2059 18.24 94.3339 18 93.5819 17.52C92.8459 17.024 92.3179 16.4 91.9979 15.648L92.2379 15.288V23.04H90.3179ZM96.0059 16.56C97.1899 16.56 98.1099 16.144 98.7659 15.312C99.4379 14.48 99.7739 13.376 99.7739 12C99.7739 10.624 99.4459 9.52 98.7899 8.688C98.1499 7.856 97.2459 7.44 96.0779 7.44C95.3099 7.44 94.6379 7.632 94.0619 8.016C93.4859 8.384 93.0379 8.912 92.7179 9.6C92.3979 10.272 92.2379 11.072 92.2379 12C92.2379 12.912 92.3899 13.712 92.6939 14.4C93.0139 15.088 93.4539 15.624 94.0139 16.008C94.5899 16.376 95.2539 16.56 96.0059 16.56ZM109.685 18.24C108.517 18.24 107.437 17.992 106.445 17.496C105.469 17 104.717 16.296 104.189 15.384L105.821 14.208C106.173 14.944 106.685 15.52 107.357 15.936C108.045 16.352 108.869 16.56 109.829 16.56C110.677 16.56 111.341 16.4 111.821 16.08C112.301 15.744 112.541 15.312 112.541 14.784C112.541 14.448 112.429 14.144 112.205 13.872C111.997 13.584 111.589 13.376 110.981 13.248L108.101 12.648C106.933 12.408 106.093 12.008 105.581 11.448C105.085 10.888 104.837 10.192 104.837 9.36C104.837 8.704 105.021 8.104 105.389 7.56C105.773 7.016 106.309 6.584 106.997 6.264C107.701 5.928 108.525 5.76 109.469 5.76C110.653 5.76 111.653 5.992 112.469 6.456C113.285 6.92 113.893 7.576 114.293 8.424L112.685 9.48C112.413 8.776 111.973 8.264 111.365 7.944C110.757 7.608 110.125 7.44 109.469 7.44C108.893 7.44 108.397 7.52 107.981 7.68C107.581 7.84 107.269 8.064 107.045 8.352C106.837 8.624 106.733 8.936 106.733 9.288C106.733 9.64 106.853 9.968 107.093 10.272C107.333 10.56 107.781 10.768 108.437 10.896L111.437 11.52C112.557 11.744 113.341 12.112 113.789 12.624C114.237 13.136 114.461 13.76 114.461 14.496C114.461 15.248 114.261 15.912 113.861 16.488C113.461 17.048 112.901 17.48 112.181 17.784C111.461 18.088 110.629 18.24 109.685 18.24ZM122.365 18.24C121.597 18.24 120.869 18.096 120.181 17.808C119.509 17.52 118.957 17.056 118.525 16.416C118.109 15.76 117.901 14.912 117.901 13.872V6H119.821V13.368C119.821 14.584 120.085 15.424 120.613 15.888C121.141 16.336 121.885 16.56 122.845 16.56C123.293 16.56 123.733 16.488 124.165 16.344C124.597 16.184 124.981 15.944 125.317 15.624C125.669 15.288 125.941 14.864 126.133 14.352C126.341 13.84 126.445 13.232 126.445 12.528V6H128.365V18H126.685L126.565 16.176C126.149 16.896 125.581 17.424 124.861 17.76C124.157 18.08 123.325 18.24 122.365 18.24ZM132.834 18V6H134.514L134.634 7.872C135.066 7.136 135.626 6.6 136.314 6.264C137.018 5.928 137.738 5.76 138.474 5.76C139.322 5.76 140.122 5.952 140.874 6.336C141.626 6.72 142.202 7.312 142.602 8.112C142.858 7.568 143.218 7.128 143.682 6.792C144.146 6.44 144.65 6.184 145.194 6.024C145.754 5.848 146.282 5.76 146.778 5.76C147.546 5.76 148.274 5.92 148.962 6.24C149.666 6.56 150.242 7.056 150.69 7.728C151.138 8.4 151.362 9.264 151.362 10.32V18H149.442V10.512C149.442 9.424 149.17 8.64 148.626 8.16C148.082 7.68 147.41 7.44 146.61 7.44C145.986 7.44 145.402 7.592 144.858 7.896C144.314 8.2 143.874 8.648 143.538 9.24C143.218 9.832 143.058 10.56 143.058 11.424V18H141.138V10.512C141.138 9.424 140.866 8.64 140.322 8.16C139.778 7.68 139.106 7.44 138.306 7.44C137.778 7.44 137.234 7.584 136.674 7.872C136.13 8.144 135.674 8.584 135.306 9.192C134.938 9.8 134.754 10.6 134.754 11.592V18H132.834ZM168.568 18.24C167.576 18.24 166.664 17.992 165.832 17.496C165 17 164.336 16.288 163.84 15.36C163.344 14.416 163.096 13.296 163.096 12C163.096 10.672 163.36 9.544 163.888 8.616C164.416 7.688 165.112 6.984 165.976 6.504C166.84 6.008 167.768 5.76 168.76 5.76C169.752 5.76 170.608 6.016 171.328 6.528C172.064 7.04 172.552 7.72 172.792 8.568L172.552 8.736V0.48H174.472V18H172.792L172.624 15.096L172.888 14.952C172.776 15.656 172.504 16.256 172.072 16.752C171.656 17.232 171.136 17.6 170.512 17.856C169.904 18.112 169.256 18.24 168.568 18.24ZM168.76 16.56C169.528 16.56 170.192 16.368 170.752 15.984C171.328 15.6 171.768 15.056 172.072 14.352C172.392 13.632 172.552 12.792 172.552 11.832C172.552 10.92 172.392 10.136 172.072 9.48C171.768 8.824 171.336 8.32 170.776 7.968C170.232 7.616 169.592 7.44 168.856 7.44C167.64 7.44 166.696 7.856 166.024 8.688C165.352 9.52 165.016 10.624 165.016 12C165.016 13.376 165.344 14.48 166 15.312C166.656 16.144 167.576 16.56 168.76 16.56ZM183.903 5.76C185.039 5.76 186.039 6.008 186.903 6.504C187.783 7 188.471 7.72 188.967 8.664C189.463 9.592 189.711 10.704 189.711 12C189.711 13.296 189.463 14.416 188.967 15.36C188.471 16.288 187.783 17 186.903 17.496C186.039 17.992 185.039 18.24 183.903 18.24C182.783 18.24 181.783 17.992 180.903 17.496C180.023 17 179.335 16.288 178.839 15.36C178.343 14.416 178.095 13.296 178.095 12C178.095 10.704 178.343 9.592 178.839 8.664C179.335 7.72 180.023 7 180.903 6.504C181.783 6.008 182.783 5.76 183.903 5.76ZM183.903 7.416C183.087 7.416 182.391 7.6 181.815 7.968C181.239 8.336 180.791 8.864 180.471 9.552C180.167 10.224 180.015 11.04 180.015 12C180.015 12.944 180.167 13.76 180.471 14.448C180.791 15.136 181.239 15.664 181.815 16.032C182.391 16.4 183.087 16.584 183.903 16.584C184.719 16.584 185.415 16.4 185.991 16.032C186.567 15.664 187.007 15.136 187.311 14.448C187.631 13.76 187.791 12.944 187.791 12C187.791 11.04 187.631 10.224 187.311 9.552C187.007 8.864 186.567 8.336 185.991 7.968C185.415 7.6 184.719 7.416 183.903 7.416ZM195.15 0.48V14.952C195.15 15.56 195.262 15.984 195.486 16.224C195.71 16.448 196.07 16.56 196.566 16.56C196.886 16.56 197.15 16.536 197.358 16.488C197.566 16.44 197.846 16.352 198.198 16.224L197.886 17.904C197.63 18.016 197.35 18.096 197.046 18.144C196.742 18.208 196.43 18.24 196.11 18.24C195.134 18.24 194.406 17.976 193.926 17.448C193.462 16.92 193.23 16.112 193.23 15.024V0.48H195.15ZM205.63 5.76C206.766 5.76 207.766 6.008 208.63 6.504C209.51 7 210.198 7.72 210.694 8.664C211.19 9.592 211.438 10.704 211.438 12C211.438 13.296 211.19 14.416 210.694 15.36C210.198 16.288 209.51 17 208.63 17.496C207.766 17.992 206.766 18.24 205.63 18.24C204.51 18.24 203.51 17.992 202.63 17.496C201.75 17 201.062 16.288 200.566 15.36C200.07 14.416 199.822 13.296 199.822 12C199.822 10.704 200.07 9.592 200.566 8.664C201.062 7.72 201.75 7 202.63 6.504C203.51 6.008 204.51 5.76 205.63 5.76ZM205.63 7.416C204.814 7.416 204.118 7.6 203.542 7.968C202.966 8.336 202.518 8.864 202.198 9.552C201.894 10.224 201.742 11.04 201.742 12C201.742 12.944 201.894 13.76 202.198 14.448C202.518 15.136 202.966 15.664 203.542 16.032C204.118 16.4 204.814 16.584 205.63 16.584C206.446 16.584 207.142 16.4 207.718 16.032C208.294 15.664 208.734 15.136 209.038 14.448C209.358 13.76 209.518 12.944 209.518 12C209.518 11.04 209.358 10.224 209.038 9.552C208.734 8.864 208.294 8.336 207.718 7.968C207.142 7.6 206.446 7.416 205.63 7.416ZM215.052 18V6H216.612L216.876 7.968C217.212 7.232 217.7 6.68 218.34 6.312C218.996 5.944 219.788 5.76 220.716 5.76C220.924 5.76 221.148 5.776 221.388 5.808C221.644 5.84 221.86 5.904 222.036 6L221.7 7.752C221.524 7.688 221.332 7.64 221.124 7.608C220.916 7.576 220.62 7.56 220.236 7.56C219.74 7.56 219.236 7.704 218.724 7.992C218.228 8.28 217.812 8.72 217.476 9.312C217.14 9.888 216.972 10.624 216.972 11.52V18H215.052ZM236.786 18.24C235.618 18.24 234.538 17.992 233.546 17.496C232.57 17 231.818 16.296 231.29 15.384L232.922 14.208C233.274 14.944 233.786 15.52 234.458 15.936C235.146 16.352 235.97 16.56 236.93 16.56C237.778 16.56 238.442 16.4 238.922 16.08C239.402 15.744 239.642 15.312 239.642 14.784C239.642 14.448 239.53 14.144 239.306 13.872C239.098 13.584 238.69 13.376 238.082 13.248L235.202 12.648C234.034 12.408 233.194 12.008 232.682 11.448C232.186 10.888 231.938 10.192 231.938 9.36C231.938 8.704 232.122 8.104 232.49 7.56C232.874 7.016 233.41 6.584 234.098 6.264C234.802 5.928 235.626 5.76 236.57 5.76C237.754 5.76 238.754 5.992 239.57 6.456C240.386 6.92 240.994 7.576 241.394 8.424L239.786 9.48C239.514 8.776 239.074 8.264 238.466 7.944C237.858 7.608 237.226 7.44 236.57 7.44C235.994 7.44 235.498 7.52 235.082 7.68C234.682 7.84 234.37 8.064 234.146 8.352C233.938 8.624 233.834 8.936 233.834 9.288C233.834 9.64 233.954 9.968 234.194 10.272C234.434 10.56 234.882 10.768 235.538 10.896L238.538 11.52C239.658 11.744 240.442 12.112 240.89 12.624C241.338 13.136 241.562 13.76 241.562 14.496C241.562 15.248 241.362 15.912 240.962 16.488C240.562 17.048 240.002 17.48 239.282 17.784C238.562 18.088 237.73 18.24 236.786 18.24ZM246.083 3.696C245.651 3.696 245.299 3.568 245.027 3.312C244.771 3.04 244.643 2.688 244.643 2.256C244.643 1.824 244.771 1.48 245.027 1.224C245.299 0.951999 245.651 0.816 246.083 0.816C246.515 0.816 246.859 0.951999 247.115 1.224C247.387 1.48 247.523 1.824 247.523 2.256C247.523 2.688 247.387 3.04 247.115 3.312C246.859 3.568 246.515 3.696 246.083 3.696ZM247.043 6V18H245.123V6H247.043ZM254.33 2.592V14.688C254.33 15.28 254.498 15.72 254.834 16.008C255.17 16.296 255.602 16.44 256.13 16.44C256.594 16.44 256.994 16.36 257.33 16.2C257.666 16.04 257.97 15.824 258.242 15.552L258.914 17.16C258.546 17.496 258.106 17.76 257.594 17.952C257.098 18.144 256.522 18.24 255.866 18.24C255.258 18.24 254.69 18.136 254.162 17.928C253.634 17.704 253.21 17.36 252.89 16.896C252.586 16.416 252.426 15.792 252.41 15.024V3.12L254.33 2.592ZM258.698 6V7.656H250.01V6H258.698ZM276.74 10.248C276.74 9.352 276.5 8.664 276.02 8.184C275.54 7.688 274.86 7.44 273.98 7.44C273.148 7.44 272.444 7.624 271.868 7.992C271.292 8.344 270.868 8.92 270.596 9.72L269.036 8.76C269.356 7.864 269.948 7.144 270.812 6.6C271.676 6.04 272.748 5.76 274.028 5.76C274.892 5.76 275.676 5.912 276.38 6.216C277.084 6.504 277.636 6.952 278.036 7.56C278.452 8.152 278.66 8.92 278.66 9.864V15.672C278.66 16.248 278.964 16.536 279.572 16.536C279.876 16.536 280.172 16.496 280.46 16.416L280.364 17.928C280.044 18.088 279.628 18.168 279.116 18.168C278.652 18.168 278.236 18.08 277.868 17.904C277.5 17.728 277.212 17.464 277.004 17.112C276.796 16.744 276.692 16.288 276.692 15.744V15.504L277.172 15.576C276.98 16.2 276.652 16.712 276.188 17.112C275.724 17.496 275.204 17.784 274.628 17.976C274.052 18.152 273.484 18.24 272.924 18.24C272.22 18.24 271.564 18.12 270.956 17.88C270.348 17.64 269.86 17.28 269.492 16.8C269.14 16.304 268.964 15.696 268.964 14.976C268.964 14.08 269.26 13.344 269.852 12.768C270.46 12.176 271.3 11.776 272.372 11.568L277.124 10.632V12.216L273.26 13.008C272.476 13.168 271.892 13.392 271.508 13.68C271.124 13.968 270.932 14.368 270.932 14.88C270.932 15.376 271.124 15.784 271.508 16.104C271.908 16.408 272.468 16.56 273.188 16.56C273.652 16.56 274.092 16.504 274.508 16.392C274.94 16.264 275.324 16.08 275.66 15.84C275.996 15.584 276.26 15.272 276.452 14.904C276.644 14.52 276.74 14.072 276.74 13.56V10.248ZM283.326 18V6H285.006L285.126 7.872C285.558 7.136 286.118 6.6 286.806 6.264C287.51 5.928 288.23 5.76 288.966 5.76C289.814 5.76 290.614 5.952 291.366 6.336C292.118 6.72 292.694 7.312 293.094 8.112C293.35 7.568 293.71 7.128 294.174 6.792C294.638 6.44 295.142 6.184 295.686 6.024C296.246 5.848 296.774 5.76 297.27 5.76C298.038 5.76 298.766 5.92 299.454 6.24C300.158 6.56 300.734 7.056 301.182 7.728C301.63 8.4 301.854 9.264 301.854 10.32V18H299.934V10.512C299.934 9.424 299.662 8.64 299.118 8.16C298.574 7.68 297.902 7.44 297.102 7.44C296.478 7.44 295.894 7.592 295.35 7.896C294.806 8.2 294.366 8.648 294.03 9.24C293.71 9.832 293.55 10.56 293.55 11.424V18H291.63V10.512C291.63 9.424 291.358 8.64 290.814 8.16C290.27 7.68 289.598 7.44 288.798 7.44C288.27 7.44 287.726 7.584 287.166 7.872C286.622 8.144 286.166 8.584 285.798 9.192C285.43 9.8 285.246 10.6 285.246 11.592V18H283.326ZM311.217 18.24C310.081 18.24 309.065 17.992 308.169 17.496C307.289 17 306.601 16.288 306.105 15.36C305.609 14.416 305.361 13.296 305.361 12C305.361 10.704 305.609 9.592 306.105 8.664C306.601 7.72 307.281 7 308.145 6.504C309.009 6.008 309.993 5.76 311.097 5.76C312.217 5.76 313.169 6 313.953 6.48C314.753 6.96 315.361 7.616 315.777 8.448C316.193 9.264 316.401 10.184 316.401 11.208C316.401 11.48 316.393 11.728 316.377 11.952C316.361 12.176 316.337 12.376 316.305 12.552H306.609V10.848H315.465L314.481 11.04C314.481 9.888 314.161 9 313.521 8.376C312.897 7.752 312.073 7.44 311.049 7.44C310.265 7.44 309.585 7.624 309.009 7.992C308.449 8.344 308.009 8.864 307.689 9.552C307.385 10.224 307.233 11.04 307.233 12C307.233 12.944 307.393 13.76 307.713 14.448C308.033 15.136 308.481 15.664 309.057 16.032C309.649 16.384 310.353 16.56 311.169 16.56C312.049 16.56 312.761 16.392 313.305 16.056C313.865 15.72 314.313 15.264 314.649 14.688L316.161 15.576C315.857 16.12 315.465 16.592 314.985 16.992C314.521 17.392 313.969 17.704 313.329 17.928C312.705 18.136 312.001 18.24 311.217 18.24ZM322.533 2.592V14.688C322.533 15.28 322.701 15.72 323.037 16.008C323.373 16.296 323.805 16.44 324.333 16.44C324.797 16.44 325.197 16.36 325.533 16.2C325.869 16.04 326.173 15.824 326.445 15.552L327.117 17.16C326.749 17.496 326.309 17.76 325.797 17.952C325.301 18.144 324.725 18.24 324.069 18.24C323.461 18.24 322.893 18.136 322.365 17.928C321.837 17.704 321.413 17.36 321.093 16.896C320.789 16.416 320.629 15.792 320.613 15.024V3.12L322.533 2.592ZM326.901 6V7.656H318.213V6H326.901ZM330.715 15.12C331.099 15.12 331.419 15.224 331.675 15.432C331.947 15.624 332.155 15.896 332.299 16.248C332.443 16.584 332.515 16.984 332.515 17.448C332.515 17.976 332.419 18.496 332.227 19.008C332.051 19.52 331.771 19.992 331.387 20.424C331.003 20.856 330.507 21.216 329.899 21.504L328.891 20.568C329.323 20.424 329.699 20.224 330.019 19.968C330.355 19.712 330.627 19.424 330.835 19.104C331.043 18.784 331.179 18.456 331.243 18.12L331.147 18.072C331.083 18.12 331.003 18.16 330.907 18.192C330.811 18.224 330.667 18.24 330.475 18.24C330.283 18.24 330.083 18.184 329.875 18.072C329.683 17.96 329.515 17.8 329.371 17.592C329.227 17.368 329.155 17.08 329.155 16.728C329.155 16.44 329.227 16.176 329.371 15.936C329.515 15.68 329.699 15.48 329.923 15.336C330.163 15.192 330.427 15.12 330.715 15.12ZM349.278 5.76C350.11 5.76 350.838 5.888 351.462 6.144C352.102 6.4 352.654 6.768 353.118 7.248C353.582 7.728 353.958 8.296 354.246 8.952L352.422 9.816C352.166 9.048 351.774 8.464 351.246 8.064C350.734 7.648 350.062 7.44 349.23 7.44C348.43 7.44 347.742 7.624 347.166 7.992C346.59 8.344 346.15 8.864 345.846 9.552C345.542 10.224 345.39 11.04 345.39 12C345.39 12.944 345.542 13.76 345.846 14.448C346.15 15.136 346.59 15.664 347.166 16.032C347.742 16.384 348.43 16.56 349.23 16.56C349.854 16.56 350.39 16.464 350.838 16.272C351.302 16.08 351.678 15.8 351.966 15.432C352.27 15.064 352.478 14.616 352.59 14.088L354.366 14.712C354.094 15.448 353.718 16.08 353.238 16.608C352.774 17.136 352.206 17.544 351.534 17.832C350.878 18.104 350.126 18.24 349.278 18.24C348.158 18.24 347.158 17.992 346.278 17.496C345.398 17 344.71 16.288 344.214 15.36C343.718 14.416 343.47 13.296 343.47 12C343.47 10.704 343.718 9.592 344.214 8.664C344.71 7.72 345.398 7 346.278 6.504C347.158 6.008 348.158 5.76 349.278 5.76ZM362.708 5.76C363.844 5.76 364.844 6.008 365.708 6.504C366.588 7 367.276 7.72 367.772 8.664C368.268 9.592 368.516 10.704 368.516 12C368.516 13.296 368.268 14.416 367.772 15.36C367.276 16.288 366.588 17 365.708 17.496C364.844 17.992 363.844 18.24 362.708 18.24C361.588 18.24 360.588 17.992 359.708 17.496C358.828 17 358.14 16.288 357.644 15.36C357.148 14.416 356.9 13.296 356.9 12C356.9 10.704 357.148 9.592 357.644 8.664C358.14 7.72 358.828 7 359.708 6.504C360.588 6.008 361.588 5.76 362.708 5.76ZM362.708 7.416C361.892 7.416 361.196 7.6 360.62 7.968C360.044 8.336 359.596 8.864 359.276 9.552C358.972 10.224 358.82 11.04 358.82 12C358.82 12.944 358.972 13.76 359.276 14.448C359.596 15.136 360.044 15.664 360.62 16.032C361.196 16.4 361.892 16.584 362.708 16.584C363.524 16.584 364.22 16.4 364.796 16.032C365.372 15.664 365.812 15.136 366.116 14.448C366.436 13.76 366.596 12.944 366.596 12C366.596 11.04 366.436 10.224 366.116 9.552C365.812 8.864 365.372 8.336 364.796 7.968C364.22 7.6 363.524 7.416 362.708 7.416ZM372.13 18V6H373.81L373.978 8.688L373.666 8.424C373.922 7.784 374.266 7.272 374.698 6.888C375.13 6.488 375.626 6.2 376.186 6.024C376.762 5.848 377.354 5.76 377.962 5.76C378.826 5.76 379.61 5.928 380.314 6.264C381.018 6.584 381.578 7.08 381.994 7.752C382.426 8.424 382.642 9.28 382.642 10.32V18H380.722V10.992C380.722 9.664 380.434 8.744 379.858 8.232C379.298 7.704 378.602 7.44 377.77 7.44C377.194 7.44 376.618 7.576 376.042 7.848C375.466 8.12 374.986 8.56 374.602 9.168C374.234 9.776 374.05 10.592 374.05 11.616V18H372.13ZM391.31 18.24C390.142 18.24 389.062 17.992 388.07 17.496C387.094 17 386.342 16.296 385.814 15.384L387.446 14.208C387.798 14.944 388.31 15.52 388.982 15.936C389.67 16.352 390.494 16.56 391.454 16.56C392.302 16.56 392.966 16.4 393.446 16.08C393.926 15.744 394.166 15.312 394.166 14.784C394.166 14.448 394.054 14.144 393.83 13.872C393.622 13.584 393.214 13.376 392.606 13.248L389.726 12.648C388.558 12.408 387.718 12.008 387.206 11.448C386.71 10.888 386.462 10.192 386.462 9.36C386.462 8.704 386.646 8.104 387.014 7.56C387.398 7.016 387.934 6.584 388.622 6.264C389.326 5.928 390.15 5.76 391.094 5.76C392.278 5.76 393.278 5.992 394.094 6.456C394.91 6.92 395.518 7.576 395.918 8.424L394.31 9.48C394.038 8.776 393.598 8.264 392.99 7.944C392.382 7.608 391.75 7.44 391.094 7.44C390.518 7.44 390.022 7.52 389.606 7.68C389.206 7.84 388.894 8.064 388.67 8.352C388.462 8.624 388.358 8.936 388.358 9.288C388.358 9.64 388.478 9.968 388.718 10.272C388.958 10.56 389.406 10.768 390.062 10.896L393.062 11.52C394.182 11.744 394.966 12.112 395.414 12.624C395.862 13.136 396.086 13.76 396.086 14.496C396.086 15.248 395.886 15.912 395.486 16.488C395.086 17.048 394.526 17.48 393.806 17.784C393.086 18.088 392.254 18.24 391.31 18.24ZM404.662 18.24C403.526 18.24 402.51 17.992 401.614 17.496C400.734 17 400.046 16.288 399.55 15.36C399.054 14.416 398.806 13.296 398.806 12C398.806 10.704 399.054 9.592 399.55 8.664C400.046 7.72 400.726 7 401.59 6.504C402.454 6.008 403.438 5.76 404.542 5.76C405.662 5.76 406.614 6 407.398 6.48C408.198 6.96 408.806 7.616 409.222 8.448C409.638 9.264 409.846 10.184 409.846 11.208C409.846 11.48 409.838 11.728 409.822 11.952C409.806 12.176 409.782 12.376 409.75 12.552H400.054V10.848H408.91L407.926 11.04C407.926 9.888 407.606 9 406.966 8.376C406.342 7.752 405.518 7.44 404.494 7.44C403.71 7.44 403.03 7.624 402.454 7.992C401.894 8.344 401.454 8.864 401.134 9.552C400.83 10.224 400.678 11.04 400.678 12C400.678 12.944 400.838 13.76 401.158 14.448C401.478 15.136 401.926 15.664 402.502 16.032C403.094 16.384 403.798 16.56 404.614 16.56C405.494 16.56 406.206 16.392 406.75 16.056C407.31 15.72 407.758 15.264 408.094 14.688L409.606 15.576C409.302 16.12 408.91 16.592 408.43 16.992C407.966 17.392 407.414 17.704 406.774 17.928C406.15 18.136 405.446 18.24 404.662 18.24ZM418.466 5.76C419.298 5.76 420.026 5.888 420.65 6.144C421.29 6.4 421.842 6.768 422.306 7.248C422.77 7.728 423.146 8.296 423.434 8.952L421.61 9.816C421.354 9.048 420.962 8.464 420.434 8.064C419.922 7.648 419.25 7.44 418.418 7.44C417.618 7.44 416.93 7.624 416.354 7.992C415.778 8.344 415.338 8.864 415.034 9.552C414.73 10.224 414.578 11.04 414.578 12C414.578 12.944 414.73 13.76 415.034 14.448C415.338 15.136 415.778 15.664 416.354 16.032C416.93 16.384 417.618 16.56 418.418 16.56C419.042 16.56 419.578 16.464 420.026 16.272C420.49 16.08 420.866 15.8 421.154 15.432C421.458 15.064 421.666 14.616 421.778 14.088L423.554 14.712C423.282 15.448 422.906 16.08 422.426 16.608C421.962 17.136 421.394 17.544 420.722 17.832C420.066 18.104 419.314 18.24 418.466 18.24C417.346 18.24 416.346 17.992 415.466 17.496C414.586 17 413.898 16.288 413.402 15.36C412.906 14.416 412.658 13.296 412.658 12C412.658 10.704 412.906 9.592 413.402 8.664C413.898 7.72 414.586 7 415.466 6.504C416.346 6.008 417.346 5.76 418.466 5.76ZM429.759 2.592V14.688C429.759 15.28 429.927 15.72 430.263 16.008C430.599 16.296 431.031 16.44 431.559 16.44C432.023 16.44 432.423 16.36 432.759 16.2C433.095 16.04 433.399 15.824 433.671 15.552L434.343 17.16C433.975 17.496 433.535 17.76 433.023 17.952C432.527 18.144 431.951 18.24 431.295 18.24C430.687 18.24 430.119 18.136 429.591 17.928C429.063 17.704 428.639 17.36 428.319 16.896C428.015 16.416 427.855 15.792 427.839 15.024V3.12L429.759 2.592ZM434.127 6V7.656H425.439V6H434.127ZM441.998 18.24C440.862 18.24 439.846 17.992 438.95 17.496C438.07 17 437.382 16.288 436.886 15.36C436.39 14.416 436.142 13.296 436.142 12C436.142 10.704 436.39 9.592 436.886 8.664C437.382 7.72 438.062 7 438.926 6.504C439.79 6.008 440.774 5.76 441.878 5.76C442.998 5.76 443.95 6 444.734 6.48C445.534 6.96 446.142 7.616 446.558 8.448C446.974 9.264 447.182 10.184 447.182 11.208C447.182 11.48 447.174 11.728 447.158 11.952C447.142 12.176 447.118 12.376 447.086 12.552H437.39V10.848H446.246L445.262 11.04C445.262 9.888 444.942 9 444.302 8.376C443.678 7.752 442.854 7.44 441.83 7.44C441.046 7.44 440.366 7.624 439.79 7.992C439.23 8.344 438.79 8.864 438.47 9.552C438.166 10.224 438.014 11.04 438.014 12C438.014 12.944 438.174 13.76 438.494 14.448C438.814 15.136 439.262 15.664 439.838 16.032C440.43 16.384 441.134 16.56 441.95 16.56C442.83 16.56 443.542 16.392 444.086 16.056C444.646 15.72 445.094 15.264 445.43 14.688L446.942 15.576C446.638 16.12 446.246 16.592 445.766 16.992C445.302 17.392 444.75 17.704 444.11 17.928C443.486 18.136 442.782 18.24 441.998 18.24ZM453.314 2.592V14.688C453.314 15.28 453.482 15.72 453.818 16.008C454.154 16.296 454.586 16.44 455.114 16.44C455.578 16.44 455.978 16.36 456.314 16.2C456.65 16.04 456.954 15.824 457.226 15.552L457.898 17.16C457.53 17.496 457.09 17.76 456.578 17.952C456.082 18.144 455.506 18.24 454.85 18.24C454.242 18.24 453.674 18.136 453.146 17.928C452.618 17.704 452.194 17.36 451.874 16.896C451.57 16.416 451.41 15.792 451.394 15.024V3.12L453.314 2.592ZM457.682 6V7.656H448.994V6H457.682ZM464.881 18.24C464.113 18.24 463.385 18.096 462.697 17.808C462.025 17.52 461.473 17.056 461.041 16.416C460.625 15.76 460.417 14.912 460.417 13.872V6H462.337V13.368C462.337 14.584 462.601 15.424 463.129 15.888C463.657 16.336 464.401 16.56 465.361 16.56C465.809 16.56 466.249 16.488 466.681 16.344C467.113 16.184 467.497 15.944 467.833 15.624C468.185 15.288 468.457 14.864 468.649 14.352C468.857 13.84 468.961 13.232 468.961 12.528V6H470.881V18H469.201L469.081 16.176C468.665 16.896 468.097 17.424 467.377 17.76C466.673 18.08 465.841 18.24 464.881 18.24ZM475.349 18V6H476.909L477.173 7.968C477.509 7.232 477.997 6.68 478.637 6.312C479.293 5.944 480.085 5.76 481.013 5.76C481.221 5.76 481.445 5.776 481.685 5.808C481.941 5.84 482.157 5.904 482.333 6L481.997 7.752C481.821 7.688 481.629 7.64 481.421 7.608C481.213 7.576 480.917 7.56 480.533 7.56C480.037 7.56 479.533 7.704 479.021 7.992C478.525 8.28 478.109 8.72 477.773 9.312C477.437 9.888 477.269 10.624 477.269 11.52V18H475.349ZM499.771 10.248C499.771 9.352 499.531 8.664 499.051 8.184C498.571 7.688 497.891 7.44 497.011 7.44C496.179 7.44 495.475 7.624 494.899 7.992C494.323 8.344 493.899 8.92 493.627 9.72L492.067 8.76C492.387 7.864 492.979 7.144 493.843 6.6C494.707 6.04 495.779 5.76 497.059 5.76C497.923 5.76 498.707 5.912 499.411 6.216C500.115 6.504 500.667 6.952 501.067 7.56C501.483 8.152 501.691 8.92 501.691 9.864V15.672C501.691 16.248 501.995 16.536 502.603 16.536C502.907 16.536 503.203 16.496 503.491 16.416L503.395 17.928C503.075 18.088 502.659 18.168 502.147 18.168C501.683 18.168 501.267 18.08 500.899 17.904C500.531 17.728 500.243 17.464 500.035 17.112C499.827 16.744 499.723 16.288 499.723 15.744V15.504L500.203 15.576C500.011 16.2 499.683 16.712 499.219 17.112C498.755 17.496 498.235 17.784 497.659 17.976C497.083 18.152 496.515 18.24 495.955 18.24C495.251 18.24 494.595 18.12 493.987 17.88C493.379 17.64 492.891 17.28 492.523 16.8C492.171 16.304 491.995 15.696 491.995 14.976C491.995 14.08 492.291 13.344 492.883 12.768C493.491 12.176 494.331 11.776 495.403 11.568L500.155 10.632V12.216L496.291 13.008C495.507 13.168 494.923 13.392 494.539 13.68C494.155 13.968 493.963 14.368 493.963 14.88C493.963 15.376 494.155 15.784 494.539 16.104C494.939 16.408 495.499 16.56 496.219 16.56C496.683 16.56 497.123 16.504 497.539 16.392C497.971 16.264 498.355 16.08 498.691 15.84C499.027 15.584 499.291 15.272 499.483 14.904C499.675 14.52 499.771 14.072 499.771 13.56V10.248ZM511.037 18.24C510.045 18.24 509.133 17.992 508.301 17.496C507.469 17 506.805 16.288 506.309 15.36C505.813 14.416 505.565 13.296 505.565 12C505.565 10.672 505.829 9.544 506.357 8.616C506.885 7.688 507.581 6.984 508.445 6.504C509.309 6.008 510.237 5.76 511.229 5.76C512.221 5.76 513.077 6.016 513.797 6.528C514.533 7.04 515.021 7.72 515.261 8.568L515.021 8.736V0.48H516.941V18H515.261L515.093 15.096L515.357 14.952C515.245 15.656 514.973 16.256 514.541 16.752C514.125 17.232 513.605 17.6 512.981 17.856C512.373 18.112 511.725 18.24 511.037 18.24ZM511.229 16.56C511.997 16.56 512.661 16.368 513.221 15.984C513.797 15.6 514.237 15.056 514.541 14.352C514.861 13.632 515.021 12.792 515.021 11.832C515.021 10.92 514.861 10.136 514.541 9.48C514.237 8.824 513.805 8.32 513.245 7.968C512.701 7.616 512.061 7.44 511.325 7.44C510.109 7.44 509.165 7.856 508.493 8.688C507.821 9.52 507.485 10.624 507.485 12C507.485 13.376 507.813 14.48 508.469 15.312C509.125 16.144 510.045 16.56 511.229 16.56ZM522.364 3.696C521.932 3.696 521.58 3.568 521.308 3.312C521.052 3.04 520.924 2.688 520.924 2.256C520.924 1.824 521.052 1.48 521.308 1.224C521.58 0.951999 521.932 0.816 522.364 0.816C522.796 0.816 523.14 0.951999 523.396 1.224C523.668 1.48 523.804 1.824 523.804 2.256C523.804 2.688 523.668 3.04 523.396 3.312C523.14 3.568 522.796 3.696 522.364 3.696ZM523.324 6V18H521.404V6H523.324ZM527.779 23.04V6H529.459L529.627 8.928L529.363 8.592C529.571 8.032 529.883 7.544 530.299 7.128C530.715 6.696 531.219 6.36 531.811 6.12C532.403 5.88 533.043 5.76 533.731 5.76C534.707 5.76 535.603 6.008 536.419 6.504C537.251 7 537.915 7.712 538.411 8.64C538.907 9.568 539.155 10.688 539.155 12C539.155 13.296 538.899 14.416 538.387 15.36C537.891 16.288 537.227 17 536.395 17.496C535.563 17.992 534.651 18.24 533.659 18.24C532.667 18.24 531.795 18 531.043 17.52C530.307 17.024 529.779 16.4 529.459 15.648L529.699 15.288V23.04H527.779ZM533.467 16.56C534.651 16.56 535.571 16.144 536.227 15.312C536.899 14.48 537.235 13.376 537.235 12C537.235 10.624 536.907 9.52 536.251 8.688C535.611 7.856 534.707 7.44 533.539 7.44C532.771 7.44 532.099 7.632 531.523 8.016C530.947 8.384 530.499 8.912 530.179 9.6C529.859 10.272 529.699 11.072 529.699 12C529.699 12.912 529.851 13.712 530.155 14.4C530.475 15.088 530.915 15.624 531.475 16.008C532.051 16.376 532.715 16.56 533.467 16.56ZM543.786 3.696C543.354 3.696 543.002 3.568 542.73 3.312C542.474 3.04 542.346 2.688 542.346 2.256C542.346 1.824 542.474 1.48 542.73 1.224C543.002 0.951999 543.354 0.816 543.786 0.816C544.218 0.816 544.562 0.951999 544.818 1.224C545.09 1.48 545.226 1.824 545.226 2.256C545.226 2.688 545.09 3.04 544.818 3.312C544.562 3.568 544.218 3.696 543.786 3.696ZM544.746 6V18H542.826V6H544.746ZM553.521 18.24C552.353 18.24 551.273 17.992 550.281 17.496C549.305 17 548.553 16.296 548.025 15.384L549.657 14.208C550.009 14.944 550.521 15.52 551.193 15.936C551.881 16.352 552.705 16.56 553.665 16.56C554.513 16.56 555.177 16.4 555.657 16.08C556.137 15.744 556.377 15.312 556.377 14.784C556.377 14.448 556.265 14.144 556.041 13.872C555.833 13.584 555.425 13.376 554.817 13.248L551.937 12.648C550.769 12.408 549.929 12.008 549.417 11.448C548.921 10.888 548.673 10.192 548.673 9.36C548.673 8.704 548.857 8.104 549.225 7.56C549.609 7.016 550.145 6.584 550.833 6.264C551.537 5.928 552.361 5.76 553.305 5.76C554.489 5.76 555.489 5.992 556.305 6.456C557.121 6.92 557.729 7.576 558.129 8.424L556.521 9.48C556.249 8.776 555.809 8.264 555.201 7.944C554.593 7.608 553.961 7.44 553.305 7.44C552.729 7.44 552.233 7.52 551.817 7.68C551.417 7.84 551.105 8.064 550.881 8.352C550.673 8.624 550.569 8.936 550.569 9.288C550.569 9.64 550.689 9.968 550.929 10.272C551.169 10.56 551.617 10.768 552.273 10.896L555.273 11.52C556.393 11.744 557.177 12.112 557.625 12.624C558.073 13.136 558.297 13.76 558.297 14.496C558.297 15.248 558.097 15.912 557.697 16.488C557.297 17.048 556.737 17.48 556.017 17.784C555.297 18.088 554.465 18.24 553.521 18.24ZM566.825 5.76C567.657 5.76 568.385 5.888 569.009 6.144C569.649 6.4 570.201 6.768 570.665 7.248C571.129 7.728 571.505 8.296 571.793 8.952L569.969 9.816C569.713 9.048 569.321 8.464 568.793 8.064C568.281 7.648 567.609 7.44 566.777 7.44C565.977 7.44 565.289 7.624 564.713 7.992C564.137 8.344 563.697 8.864 563.393 9.552C563.089 10.224 562.937 11.04 562.937 12C562.937 12.944 563.089 13.76 563.393 14.448C563.697 15.136 564.137 15.664 564.713 16.032C565.289 16.384 565.977 16.56 566.777 16.56C567.401 16.56 567.937 16.464 568.385 16.272C568.849 16.08 569.225 15.8 569.513 15.432C569.817 15.064 570.025 14.616 570.137 14.088L571.913 14.712C571.641 15.448 571.265 16.08 570.785 16.608C570.321 17.136 569.753 17.544 569.081 17.832C568.425 18.104 567.673 18.24 566.825 18.24C565.705 18.24 564.705 17.992 563.825 17.496C562.945 17 562.257 16.288 561.761 15.36C561.265 14.416 561.017 13.296 561.017 12C561.017 10.704 561.265 9.592 561.761 8.664C562.257 7.72 562.945 7 563.825 6.504C564.705 6.008 565.705 5.76 566.825 5.76ZM576.247 3.696C575.815 3.696 575.463 3.568 575.191 3.312C574.935 3.04 574.807 2.688 574.807 2.256C574.807 1.824 574.935 1.48 575.191 1.224C575.463 0.951999 575.815 0.816 576.247 0.816C576.679 0.816 577.023 0.951999 577.279 1.224C577.551 1.48 577.687 1.824 577.687 2.256C577.687 2.688 577.551 3.04 577.279 3.312C577.023 3.568 576.679 3.696 576.247 3.696ZM577.207 6V18H575.287V6H577.207ZM581.662 18V6H583.342L583.51 8.688L583.198 8.424C583.454 7.784 583.798 7.272 584.23 6.888C584.662 6.488 585.158 6.2 585.718 6.024C586.294 5.848 586.886 5.76 587.494 5.76C588.358 5.76 589.142 5.928 589.846 6.264C590.55 6.584 591.11 7.08 591.526 7.752C591.958 8.424 592.174 9.28 592.174 10.32V18H590.254V10.992C590.254 9.664 589.966 8.744 589.39 8.232C588.83 7.704 588.134 7.44 587.302 7.44C586.726 7.44 586.15 7.576 585.574 7.848C584.998 8.12 584.518 8.56 584.134 9.168C583.766 9.776 583.582 10.592 583.582 11.616V18H581.662ZM606.625 3.792L607.057 5.496C607.041 5.496 607.017 5.496 606.985 5.496C606.953 5.496 606.921 5.496 606.889 5.496C606.105 5.496 605.497 5.656 605.065 5.976C604.649 6.28 604.441 6.776 604.441 7.464L603.265 6.864C603.265 6.24 603.409 5.696 603.697 5.232C603.985 4.768 604.377 4.416 604.873 4.176C605.369 3.92 605.913 3.792 606.505 3.792C606.521 3.792 606.537 3.792 606.553 3.792C606.585 3.792 606.609 3.792 606.625 3.792ZM602.977 16.464C604.113 16.464 605.001 16.728 605.641 17.256C606.281 17.768 606.601 18.456 606.601 19.32C606.601 20.104 606.337 20.784 605.809 21.36C605.297 21.936 604.601 22.376 603.721 22.68C602.857 23 601.881 23.16 600.793 23.16C598.905 23.16 597.489 22.84 596.545 22.2C595.617 21.56 595.153 20.792 595.153 19.896C595.153 19.256 595.361 18.68 595.777 18.168C596.209 17.672 596.929 17.392 597.937 17.328L597.769 17.688C597.225 17.544 596.761 17.304 596.377 16.968C596.009 16.616 595.825 16.112 595.825 15.456C595.825 14.8 596.065 14.24 596.545 13.776C597.041 13.296 597.769 13 598.729 12.888L600.001 13.536H599.761C598.977 13.616 598.417 13.816 598.081 14.136C597.761 14.44 597.601 14.776 597.601 15.144C597.601 15.592 597.761 15.928 598.081 16.152C598.417 16.36 598.881 16.464 599.473 16.464H602.977ZM600.769 21.552C601.697 21.552 602.457 21.456 603.049 21.264C603.657 21.072 604.105 20.824 604.393 20.52C604.681 20.216 604.825 19.888 604.825 19.536C604.825 19.104 604.649 18.76 604.297 18.504C603.961 18.248 603.345 18.12 602.449 18.12H598.753C598.241 18.12 597.809 18.248 597.457 18.504C597.105 18.776 596.929 19.144 596.929 19.608C596.929 20.2 597.265 20.672 597.937 21.024C598.625 21.376 599.569 21.552 600.769 21.552ZM600.601 5.76C601.561 5.76 602.409 5.936 603.145 6.288C603.897 6.624 604.481 7.096 604.897 7.704C605.313 8.312 605.521 9.016 605.521 9.816C605.521 10.6 605.313 11.304 604.897 11.928C604.481 12.536 603.897 13.016 603.145 13.368C602.409 13.704 601.561 13.872 600.601 13.872C599.017 13.872 597.801 13.496 596.953 12.744C596.105 11.976 595.681 11 595.681 9.816C595.681 9.016 595.889 8.312 596.305 7.704C596.737 7.096 597.321 6.624 598.057 6.288C598.793 5.936 599.641 5.76 600.601 5.76ZM600.601 7.32C599.769 7.32 599.073 7.552 598.513 8.016C597.953 8.464 597.673 9.064 597.673 9.816C597.673 10.552 597.953 11.152 598.513 11.616C599.073 12.08 599.769 12.312 600.601 12.312C601.433 12.312 602.129 12.08 602.689 11.616C603.249 11.152 603.529 10.552 603.529 9.816C603.529 9.064 603.249 8.464 602.689 8.016C602.129 7.552 601.433 7.32 600.601 7.32ZM6.248 48.24C5.112 48.24 4.096 47.992 3.2 47.496C2.32 47 1.632 46.288 1.136 45.36C0.64 44.416 0.392 43.296 0.392 42C0.392 40.704 0.64 39.592 1.136 38.664C1.632 37.72 2.312 37 3.176 36.504C4.04 36.008 5.024 35.76 6.128 35.76C7.248 35.76 8.2 36 8.984 36.48C9.784 36.96 10.392 37.616 10.808 38.448C11.224 39.264 11.432 40.184 11.432 41.208C11.432 41.48 11.424 41.728 11.408 41.952C11.392 42.176 11.368 42.376 11.336 42.552H1.64V40.848H10.496L9.512 41.04C9.512 39.888 9.192 39 8.552 38.376C7.928 37.752 7.104 37.44 6.08 37.44C5.296 37.44 4.616 37.624 4.04 37.992C3.48 38.344 3.04 38.864 2.72 39.552C2.416 40.224 2.264 41.04 2.264 42C2.264 42.944 2.424 43.76 2.744 44.448C3.064 45.136 3.512 45.664 4.088 46.032C4.68 46.384 5.384 46.56 6.2 46.56C7.08 46.56 7.792 46.392 8.336 46.056C8.896 45.72 9.344 45.264 9.68 44.688L11.192 45.576C10.888 46.12 10.496 46.592 10.016 46.992C9.552 47.392 9 47.704 8.36 47.928C7.736 48.136 7.032 48.24 6.248 48.24ZM16.9076 30.48V44.952C16.9076 45.56 17.0196 45.984 17.2436 46.224C17.4676 46.448 17.8276 46.56 18.3236 46.56C18.6436 46.56 18.9076 46.536 19.1156 46.488C19.3236 46.44 19.6036 46.352 19.9556 46.224L19.6436 47.904C19.3876 48.016 19.1076 48.096 18.8036 48.144C18.4996 48.208 18.1876 48.24 17.8676 48.24C16.8916 48.24 16.1636 47.976 15.6836 47.448C15.2196 46.92 14.9876 46.112 14.9876 45.024V30.48H16.9076ZM23.3795 33.696C22.9475 33.696 22.5955 33.568 22.3235 33.312C22.0675 33.04 21.9395 32.688 21.9395 32.256C21.9395 31.824 22.0675 31.48 22.3235 31.224C22.5955 30.952 22.9475 30.816 23.3795 30.816C23.8115 30.816 24.1555 30.952 24.4115 31.224C24.6835 31.48 24.8195 31.824 24.8195 32.256C24.8195 32.688 24.6835 33.04 24.4115 33.312C24.1555 33.568 23.8115 33.696 23.3795 33.696ZM24.3395 36V48H22.4195V36H24.3395ZM31.6265 32.592V44.688C31.6265 45.28 31.7945 45.72 32.1305 46.008C32.4665 46.296 32.8985 46.44 33.4265 46.44C33.8905 46.44 34.2905 46.36 34.6265 46.2C34.9625 46.04 35.2665 45.824 35.5385 45.552L36.2105 47.16C35.8425 47.496 35.4025 47.76 34.8905 47.952C34.3945 48.144 33.8185 48.24 33.1625 48.24C32.5545 48.24 31.9865 48.136 31.4585 47.928C30.9305 47.704 30.5065 47.36 30.1865 46.896C29.8825 46.416 29.7225 45.792 29.7065 45.024V33.12L31.6265 32.592ZM35.9945 36V37.656H27.3065V36H35.9945ZM39.8092 45.12C40.2732 45.12 40.6492 45.264 40.9372 45.552C41.2252 45.84 41.3692 46.216 41.3692 46.68C41.3692 47.144 41.2252 47.52 40.9372 47.808C40.6492 48.096 40.2732 48.24 39.8092 48.24C39.3452 48.24 38.9692 48.096 38.6812 47.808C38.3932 47.52 38.2492 47.144 38.2492 46.68C38.2492 46.216 38.3932 45.84 38.6812 45.552C38.9692 45.264 39.3452 45.12 39.8092 45.12ZM64.8519 33.96H55.6839V39.072H62.8359V40.872H55.6839V48H53.7639V32.16H64.8519V33.96ZM73.8416 40.248C73.8416 39.352 73.6016 38.664 73.1216 38.184C72.6416 37.688 71.9616 37.44 71.0816 37.44C70.2496 37.44 69.5456 37.624 68.9696 37.992C68.3936 38.344 67.9696 38.92 67.6976 39.72L66.1376 38.76C66.4576 37.864 67.0496 37.144 67.9136 36.6C68.7776 36.04 69.8496 35.76 71.1296 35.76C71.9936 35.76 72.7776 35.912 73.4816 36.216C74.1856 36.504 74.7376 36.952 75.1376 37.56C75.5536 38.152 75.7616 38.92 75.7616 39.864V45.672C75.7616 46.248 76.0656 46.536 76.6736 46.536C76.9776 46.536 77.2736 46.496 77.5616 46.416L77.4656 47.928C77.1456 48.088 76.7296 48.168 76.2176 48.168C75.7536 48.168 75.3376 48.08 74.9696 47.904C74.6016 47.728 74.3136 47.464 74.1056 47.112C73.8976 46.744 73.7936 46.288 73.7936 45.744V45.504L74.2736 45.576C74.0816 46.2 73.7536 46.712 73.2896 47.112C72.8256 47.496 72.3056 47.784 71.7296 47.976C71.1536 48.152 70.5856 48.24 70.0256 48.24C69.3216 48.24 68.6656 48.12 68.0576 47.88C67.4496 47.64 66.9616 47.28 66.5936 46.8C66.2416 46.304 66.0656 45.696 66.0656 44.976C66.0656 44.08 66.3616 43.344 66.9536 42.768C67.5616 42.176 68.4016 41.776 69.4736 41.568L74.2256 40.632V42.216L70.3616 43.008C69.5776 43.168 68.9936 43.392 68.6096 43.68C68.2256 43.968 68.0336 44.368 68.0336 44.88C68.0336 45.376 68.2256 45.784 68.6096 46.104C69.0096 46.408 69.5696 46.56 70.2896 46.56C70.7536 46.56 71.1936 46.504 71.6096 46.392C72.0416 46.264 72.4256 46.08 72.7616 45.84C73.0976 45.584 73.3616 45.272 73.5536 44.904C73.7456 44.52 73.8416 44.072 73.8416 43.56V40.248ZM84.7713 48.24C84.0033 48.24 83.2753 48.096 82.5873 47.808C81.9153 47.52 81.3633 47.056 80.9313 46.416C80.5153 45.76 80.3073 44.912 80.3073 43.872V36H82.2273V43.368C82.2273 44.584 82.4913 45.424 83.0193 45.888C83.5473 46.336 84.2913 46.56 85.2513 46.56C85.6993 46.56 86.1393 46.488 86.5713 46.344C87.0033 46.184 87.3873 45.944 87.7233 45.624C88.0753 45.288 88.3473 44.864 88.5393 44.352C88.7473 43.84 88.8513 43.232 88.8513 42.528V36H90.7713V48H89.0913L88.9713 46.176C88.5553 46.896 87.9873 47.424 87.2673 47.76C86.5633 48.08 85.7313 48.24 84.7713 48.24ZM100.208 35.76C101.04 35.76 101.768 35.888 102.392 36.144C103.032 36.4 103.584 36.768 104.048 37.248C104.512 37.728 104.888 38.296 105.176 38.952L103.352 39.816C103.096 39.048 102.704 38.464 102.176 38.064C101.664 37.648 100.992 37.44 100.16 37.44C99.3598 37.44 98.6718 37.624 98.0958 37.992C97.5198 38.344 97.0798 38.864 96.7758 39.552C96.4718 40.224 96.3198 41.04 96.3198 42C96.3198 42.944 96.4718 43.76 96.7758 44.448C97.0798 45.136 97.5198 45.664 98.0958 46.032C98.6718 46.384 99.3598 46.56 100.16 46.56C100.784 46.56 101.32 46.464 101.768 46.272C102.232 46.08 102.608 45.8 102.896 45.432C103.2 45.064 103.408 44.616 103.52 44.088L105.296 44.712C105.024 45.448 104.648 46.08 104.168 46.608C103.704 47.136 103.136 47.544 102.464 47.832C101.808 48.104 101.056 48.24 100.208 48.24C99.0878 48.24 98.0878 47.992 97.2078 47.496C96.3278 47 95.6398 46.288 95.1438 45.36C94.6478 44.416 94.3998 43.296 94.3998 42C94.3998 40.704 94.6478 39.592 95.1438 38.664C95.6398 37.72 96.3278 37 97.2078 36.504C98.0878 36.008 99.0878 35.76 100.208 35.76ZM109.63 33.696C109.198 33.696 108.846 33.568 108.574 33.312C108.318 33.04 108.19 32.688 108.19 32.256C108.19 31.824 108.318 31.48 108.574 31.224C108.846 30.952 109.198 30.816 109.63 30.816C110.062 30.816 110.406 30.952 110.662 31.224C110.934 31.48 111.07 31.824 111.07 32.256C111.07 32.688 110.934 33.04 110.662 33.312C110.406 33.568 110.062 33.696 109.63 33.696ZM110.59 36V48H108.67V36H110.59ZM120.925 48.24C120.253 48.24 119.629 48.12 119.053 47.88C118.477 47.64 117.981 47.304 117.565 46.872C117.149 46.44 116.837 45.952 116.629 45.408L116.893 45.072L116.725 48H115.045V30.48H116.965V38.712L116.725 38.352C117.045 37.6 117.581 36.984 118.333 36.504C119.101 36.008 119.973 35.76 120.949 35.76C121.941 35.76 122.853 36.008 123.685 36.504C124.516 37 125.181 37.712 125.677 38.64C126.173 39.568 126.421 40.688 126.421 42C126.421 43.296 126.165 44.416 125.653 45.36C125.157 46.288 124.493 47 123.661 47.496C122.829 47.992 121.917 48.24 120.925 48.24ZM120.733 46.56C121.917 46.56 122.837 46.144 123.493 45.312C124.165 44.48 124.501 43.376 124.501 42C124.501 40.624 124.173 39.52 123.517 38.688C122.861 37.856 121.941 37.44 120.757 37.44C120.005 37.44 119.341 37.632 118.765 38.016C118.205 38.4 117.765 38.936 117.445 39.624C117.125 40.312 116.965 41.12 116.965 42.048C116.965 42.96 117.117 43.76 117.421 44.448C117.741 45.12 118.181 45.64 118.741 46.008C119.317 46.376 119.981 46.56 120.733 46.56ZM134.435 48.24C133.667 48.24 132.939 48.096 132.251 47.808C131.579 47.52 131.027 47.056 130.595 46.416C130.179 45.76 129.971 44.912 129.971 43.872V36H131.891V43.368C131.891 44.584 132.155 45.424 132.683 45.888C133.211 46.336 133.955 46.56 134.915 46.56C135.363 46.56 135.803 46.488 136.235 46.344C136.667 46.184 137.051 45.944 137.387 45.624C137.739 45.288 138.011 44.864 138.203 44.352C138.411 43.84 138.515 43.232 138.515 42.528V36H140.435V48H138.755L138.635 46.176C138.219 46.896 137.651 47.424 136.931 47.76C136.227 48.08 135.395 48.24 134.435 48.24ZM149.224 48.24C148.056 48.24 146.976 47.992 145.984 47.496C145.008 47 144.256 46.296 143.728 45.384L145.36 44.208C145.712 44.944 146.224 45.52 146.896 45.936C147.584 46.352 148.408 46.56 149.368 46.56C150.216 46.56 150.88 46.4 151.36 46.08C151.84 45.744 152.08 45.312 152.08 44.784C152.08 44.448 151.968 44.144 151.744 43.872C151.536 43.584 151.128 43.376 150.52 43.248L147.64 42.648C146.472 42.408 145.632 42.008 145.12 41.448C144.624 40.888 144.376 40.192 144.376 39.36C144.376 38.704 144.56 38.104 144.928 37.56C145.312 37.016 145.848 36.584 146.536 36.264C147.24 35.928 148.064 35.76 149.008 35.76C150.192 35.76 151.192 35.992 152.008 36.456C152.824 36.92 153.432 37.576 153.832 38.424L152.224 39.48C151.952 38.776 151.512 38.264 150.904 37.944C150.296 37.608 149.664 37.44 149.008 37.44C148.432 37.44 147.936 37.52 147.52 37.68C147.12 37.84 146.808 38.064 146.584 38.352C146.376 38.624 146.272 38.936 146.272 39.288C146.272 39.64 146.392 39.968 146.632 40.272C146.872 40.56 147.32 40.768 147.976 40.896L150.976 41.52C152.096 41.744 152.88 42.112 153.328 42.624C153.776 43.136 154 43.76 154 44.496C154 45.248 153.8 45.912 153.4 46.488C153 47.048 152.44 47.48 151.72 47.784C151 48.088 150.168 48.24 149.224 48.24ZM166.7 33.696C166.268 33.696 165.916 33.568 165.644 33.312C165.388 33.04 165.26 32.688 165.26 32.256C165.26 31.824 165.388 31.48 165.644 31.224C165.916 30.952 166.268 30.816 166.7 30.816C167.132 30.816 167.476 30.952 167.732 31.224C168.004 31.48 168.14 31.824 168.14 32.256C168.14 32.688 168.004 33.04 167.732 33.312C167.476 33.568 167.132 33.696 166.7 33.696ZM167.66 36V48H165.74V36H167.66ZM172.115 48V36H173.795L173.963 38.688L173.651 38.424C173.907 37.784 174.251 37.272 174.683 36.888C175.115 36.488 175.611 36.2 176.171 36.024C176.747 35.848 177.339 35.76 177.947 35.76C178.811 35.76 179.595 35.928 180.299 36.264C181.003 36.584 181.563 37.08 181.979 37.752C182.411 38.424 182.627 39.28 182.627 40.32V48H180.707V40.992C180.707 39.664 180.419 38.744 179.843 38.232C179.283 37.704 178.587 37.44 177.755 37.44C177.179 37.44 176.603 37.576 176.027 37.848C175.451 38.12 174.971 38.56 174.587 39.168C174.219 39.776 174.035 40.592 174.035 41.616V48H172.115ZM196.978 30.48V44.952C196.978 45.56 197.09 45.984 197.314 46.224C197.538 46.448 197.898 46.56 198.394 46.56C198.714 46.56 198.978 46.536 199.186 46.488C199.394 46.44 199.674 46.352 200.026 46.224L199.714 47.904C199.458 48.016 199.178 48.096 198.874 48.144C198.57 48.208 198.258 48.24 197.938 48.24C196.962 48.24 196.234 47.976 195.754 47.448C195.29 46.92 195.058 46.112 195.058 45.024V30.48H196.978ZM203.45 33.696C203.018 33.696 202.666 33.568 202.394 33.312C202.138 33.04 202.01 32.688 202.01 32.256C202.01 31.824 202.138 31.48 202.394 31.224C202.666 30.952 203.018 30.816 203.45 30.816C203.882 30.816 204.226 30.952 204.482 31.224C204.754 31.48 204.89 31.824 204.89 32.256C204.89 32.688 204.754 33.04 204.482 33.312C204.226 33.568 203.882 33.696 203.45 33.696ZM204.41 36V48H202.49V36H204.41ZM214.745 48.24C214.073 48.24 213.449 48.12 212.873 47.88C212.297 47.64 211.801 47.304 211.385 46.872C210.969 46.44 210.657 45.952 210.449 45.408L210.713 45.072L210.545 48H208.865V30.48H210.785V38.712L210.545 38.352C210.865 37.6 211.401 36.984 212.153 36.504C212.921 36.008 213.793 35.76 214.769 35.76C215.761 35.76 216.673 36.008 217.505 36.504C218.337 37 219.001 37.712 219.497 38.64C219.993 39.568 220.241 40.688 220.241 42C220.241 43.296 219.985 44.416 219.473 45.36C218.977 46.288 218.313 47 217.481 47.496C216.649 47.992 215.737 48.24 214.745 48.24ZM214.553 46.56C215.737 46.56 216.657 46.144 217.313 45.312C217.985 44.48 218.321 43.376 218.321 42C218.321 40.624 217.993 39.52 217.337 38.688C216.681 37.856 215.761 37.44 214.577 37.44C213.825 37.44 213.161 37.632 212.585 38.016C212.025 38.4 211.585 38.936 211.265 39.624C210.945 40.312 210.785 41.12 210.785 42.048C210.785 42.96 210.937 43.76 211.241 44.448C211.561 45.12 212.001 45.64 212.561 46.008C213.137 46.376 213.801 46.56 214.553 46.56ZM228.928 48.24C227.792 48.24 226.776 47.992 225.88 47.496C225 47 224.312 46.288 223.816 45.36C223.32 44.416 223.072 43.296 223.072 42C223.072 40.704 223.32 39.592 223.816 38.664C224.312 37.72 224.992 37 225.856 36.504C226.72 36.008 227.704 35.76 228.808 35.76C229.928 35.76 230.88 36 231.664 36.48C232.464 36.96 233.072 37.616 233.488 38.448C233.904 39.264 234.112 40.184 234.112 41.208C234.112 41.48 234.104 41.728 234.088 41.952C234.072 42.176 234.048 42.376 234.016 42.552H224.32V40.848H233.176L232.192 41.04C232.192 39.888 231.872 39 231.232 38.376C230.608 37.752 229.784 37.44 228.76 37.44C227.976 37.44 227.296 37.624 226.72 37.992C226.16 38.344 225.72 38.864 225.4 39.552C225.096 40.224 224.944 41.04 224.944 42C224.944 42.944 225.104 43.76 225.424 44.448C225.744 45.136 226.192 45.664 226.768 46.032C227.36 46.384 228.064 46.56 228.88 46.56C229.76 46.56 230.472 46.392 231.016 46.056C231.576 45.72 232.024 45.264 232.36 44.688L233.872 45.576C233.568 46.12 233.176 46.592 232.696 46.992C232.232 47.392 231.68 47.704 231.04 47.928C230.416 48.136 229.712 48.24 228.928 48.24ZM237.763 48V36H239.323L239.587 37.968C239.923 37.232 240.411 36.68 241.051 36.312C241.707 35.944 242.499 35.76 243.427 35.76C243.635 35.76 243.859 35.776 244.099 35.808C244.355 35.84 244.571 35.904 244.747 36L244.411 37.752C244.235 37.688 244.043 37.64 243.835 37.608C243.627 37.576 243.331 37.56 242.947 37.56C242.451 37.56 241.947 37.704 241.435 37.992C240.939 38.28 240.523 38.72 240.187 39.312C239.851 39.888 239.683 40.624 239.683 41.52V48H237.763ZM252.153 35.76C253.289 35.76 254.289 36.008 255.153 36.504C256.033 37 256.721 37.72 257.217 38.664C257.713 39.592 257.961 40.704 257.961 42C257.961 43.296 257.713 44.416 257.217 45.36C256.721 46.288 256.033 47 255.153 47.496C254.289 47.992 253.289 48.24 252.153 48.24C251.033 48.24 250.033 47.992 249.153 47.496C248.273 47 247.585 46.288 247.089 45.36C246.593 44.416 246.345 43.296 246.345 42C246.345 40.704 246.593 39.592 247.089 38.664C247.585 37.72 248.273 37 249.153 36.504C250.033 36.008 251.033 35.76 252.153 35.76ZM252.153 37.416C251.337 37.416 250.641 37.6 250.065 37.968C249.489 38.336 249.041 38.864 248.721 39.552C248.417 40.224 248.265 41.04 248.265 42C248.265 42.944 248.417 43.76 248.721 44.448C249.041 45.136 249.489 45.664 250.065 46.032C250.641 46.4 251.337 46.584 252.153 46.584C252.969 46.584 253.665 46.4 254.241 46.032C254.817 45.664 255.257 45.136 255.561 44.448C255.881 43.76 256.041 42.944 256.041 42C256.041 41.04 255.881 40.224 255.561 39.552C255.257 38.864 254.817 38.336 254.241 37.968C253.665 37.6 252.969 37.416 252.153 37.416ZM269.755 48V36H271.315L271.579 37.968C271.915 37.232 272.403 36.68 273.043 36.312C273.699 35.944 274.491 35.76 275.419 35.76C275.627 35.76 275.851 35.776 276.091 35.808C276.347 35.84 276.563 35.904 276.739 36L276.403 37.752C276.227 37.688 276.035 37.64 275.827 37.608C275.619 37.576 275.323 37.56 274.939 37.56C274.443 37.56 273.939 37.704 273.427 37.992C272.931 38.28 272.515 38.72 272.179 39.312C271.843 39.888 271.675 40.624 271.675 41.52V48H269.755ZM280.512 33.696C280.08 33.696 279.728 33.568 279.456 33.312C279.2 33.04 279.072 32.688 279.072 32.256C279.072 31.824 279.2 31.48 279.456 31.224C279.728 30.952 280.08 30.816 280.512 30.816C280.944 30.816 281.288 30.952 281.544 31.224C281.816 31.48 281.952 31.824 281.952 32.256C281.952 32.688 281.816 33.04 281.544 33.312C281.288 33.568 280.944 33.696 280.512 33.696ZM281.472 36V48H279.552V36H281.472ZM290.247 48.24C289.079 48.24 287.999 47.992 287.007 47.496C286.031 47 285.279 46.296 284.751 45.384L286.383 44.208C286.735 44.944 287.247 45.52 287.919 45.936C288.607 46.352 289.431 46.56 290.391 46.56C291.239 46.56 291.903 46.4 292.383 46.08C292.863 45.744 293.103 45.312 293.103 44.784C293.103 44.448 292.991 44.144 292.767 43.872C292.559 43.584 292.151 43.376 291.543 43.248L288.663 42.648C287.495 42.408 286.655 42.008 286.143 41.448C285.647 40.888 285.399 40.192 285.399 39.36C285.399 38.704 285.583 38.104 285.951 37.56C286.335 37.016 286.871 36.584 287.559 36.264C288.263 35.928 289.087 35.76 290.031 35.76C291.215 35.76 292.215 35.992 293.031 36.456C293.847 36.92 294.455 37.576 294.855 38.424L293.247 39.48C292.975 38.776 292.535 38.264 291.927 37.944C291.319 37.608 290.687 37.44 290.031 37.44C289.455 37.44 288.959 37.52 288.543 37.68C288.143 37.84 287.831 38.064 287.607 38.352C287.399 38.624 287.295 38.936 287.295 39.288C287.295 39.64 287.415 39.968 287.655 40.272C287.895 40.56 288.343 40.768 288.999 40.896L291.999 41.52C293.119 41.744 293.903 42.112 294.351 42.624C294.799 43.136 295.023 43.76 295.023 44.496C295.023 45.248 294.823 45.912 294.423 46.488C294.023 47.048 293.463 47.48 292.743 47.784C292.023 48.088 291.191 48.24 290.247 48.24ZM302.928 48.24C302.16 48.24 301.432 48.096 300.744 47.808C300.072 47.52 299.52 47.056 299.088 46.416C298.672 45.76 298.464 44.912 298.464 43.872V36H300.384V43.368C300.384 44.584 300.648 45.424 301.176 45.888C301.704 46.336 302.448 46.56 303.408 46.56C303.856 46.56 304.296 46.488 304.728 46.344C305.16 46.184 305.544 45.944 305.88 45.624C306.232 45.288 306.504 44.864 306.696 44.352C306.904 43.84 307.008 43.232 307.008 42.528V36H308.928V48H307.248L307.128 46.176C306.712 46.896 306.144 47.424 305.424 47.76C304.72 48.08 303.888 48.24 302.928 48.24ZM317.716 48.24C316.548 48.24 315.468 47.992 314.476 47.496C313.5 47 312.748 46.296 312.22 45.384L313.852 44.208C314.204 44.944 314.716 45.52 315.388 45.936C316.076 46.352 316.9 46.56 317.86 46.56C318.708 46.56 319.372 46.4 319.852 46.08C320.332 45.744 320.572 45.312 320.572 44.784C320.572 44.448 320.46 44.144 320.236 43.872C320.028 43.584 319.62 43.376 319.012 43.248L316.132 42.648C314.964 42.408 314.124 42.008 313.612 41.448C313.116 40.888 312.868 40.192 312.868 39.36C312.868 38.704 313.052 38.104 313.42 37.56C313.804 37.016 314.34 36.584 315.028 36.264C315.732 35.928 316.556 35.76 317.5 35.76C318.684 35.76 319.684 35.992 320.5 36.456C321.316 36.92 321.924 37.576 322.324 38.424L320.716 39.48C320.444 38.776 320.004 38.264 319.396 37.944C318.788 37.608 318.156 37.44 317.5 37.44C316.924 37.44 316.428 37.52 316.012 37.68C315.612 37.84 315.3 38.064 315.076 38.352C314.868 38.624 314.764 38.936 314.764 39.288C314.764 39.64 314.884 39.968 315.124 40.272C315.364 40.56 315.812 40.768 316.468 40.896L319.468 41.52C320.588 41.744 321.372 42.112 321.82 42.624C322.268 43.136 322.492 43.76 322.492 44.496C322.492 45.248 322.292 45.912 321.892 46.488C321.492 47.048 320.932 47.48 320.212 47.784C319.492 48.088 318.66 48.24 317.716 48.24ZM338.552 48.24C337.384 48.24 336.304 47.992 335.312 47.496C334.336 47 333.584 46.296 333.056 45.384L334.688 44.208C335.04 44.944 335.552 45.52 336.224 45.936C336.912 46.352 337.736 46.56 338.696 46.56C339.544 46.56 340.208 46.4 340.688 46.08C341.168 45.744 341.408 45.312 341.408 44.784C341.408 44.448 341.296 44.144 341.072 43.872C340.864 43.584 340.456 43.376 339.848 43.248L336.968 42.648C335.8 42.408 334.96 42.008 334.448 41.448C333.952 40.888 333.704 40.192 333.704 39.36C333.704 38.704 333.888 38.104 334.256 37.56C334.64 37.016 335.176 36.584 335.864 36.264C336.568 35.928 337.392 35.76 338.336 35.76C339.52 35.76 340.52 35.992 341.336 36.456C342.152 36.92 342.76 37.576 343.16 38.424L341.552 39.48C341.28 38.776 340.84 38.264 340.232 37.944C339.624 37.608 338.992 37.44 338.336 37.44C337.76 37.44 337.264 37.52 336.848 37.68C336.448 37.84 336.136 38.064 335.912 38.352C335.704 38.624 335.6 38.936 335.6 39.288C335.6 39.64 335.72 39.968 335.96 40.272C336.2 40.56 336.648 40.768 337.304 40.896L340.304 41.52C341.424 41.744 342.208 42.112 342.656 42.624C343.104 43.136 343.328 43.76 343.328 44.496C343.328 45.248 343.128 45.912 342.728 46.488C342.328 47.048 341.768 47.48 341.048 47.784C340.328 48.088 339.496 48.24 338.552 48.24ZM351.904 48.24C350.768 48.24 349.752 47.992 348.856 47.496C347.976 47 347.288 46.288 346.792 45.36C346.296 44.416 346.048 43.296 346.048 42C346.048 40.704 346.296 39.592 346.792 38.664C347.288 37.72 347.968 37 348.832 36.504C349.696 36.008 350.68 35.76 351.784 35.76C352.904 35.76 353.856 36 354.64 36.48C355.44 36.96 356.048 37.616 356.464 38.448C356.88 39.264 357.088 40.184 357.088 41.208C357.088 41.48 357.08 41.728 357.064 41.952C357.048 42.176 357.024 42.376 356.992 42.552H347.296V40.848H356.152L355.168 41.04C355.168 39.888 354.848 39 354.208 38.376C353.584 37.752 352.76 37.44 351.736 37.44C350.952 37.44 350.272 37.624 349.696 37.992C349.136 38.344 348.696 38.864 348.376 39.552C348.072 40.224 347.92 41.04 347.92 42C347.92 42.944 348.08 43.76 348.4 44.448C348.72 45.136 349.168 45.664 349.744 46.032C350.336 46.384 351.04 46.56 351.856 46.56C352.736 46.56 353.448 46.392 353.992 46.056C354.552 45.72 355 45.264 355.336 44.688L356.848 45.576C356.544 46.12 356.152 46.592 355.672 46.992C355.208 47.392 354.656 47.704 354.016 47.928C353.392 48.136 352.688 48.24 351.904 48.24ZM360.74 48V36H362.42L362.54 37.872C362.972 37.136 363.532 36.6 364.22 36.264C364.924 35.928 365.644 35.76 366.38 35.76C367.228 35.76 368.028 35.952 368.78 36.336C369.532 36.72 370.108 37.312 370.508 38.112C370.764 37.568 371.124 37.128 371.588 36.792C372.052 36.44 372.556 36.184 373.1 36.024C373.66 35.848 374.188 35.76 374.684 35.76C375.452 35.76 376.18 35.92 376.868 36.24C377.572 36.56 378.148 37.056 378.596 37.728C379.044 38.4 379.268 39.264 379.268 40.32V48H377.348V40.512C377.348 39.424 377.076 38.64 376.532 38.16C375.988 37.68 375.316 37.44 374.516 37.44C373.892 37.44 373.308 37.592 372.764 37.896C372.22 38.2 371.78 38.648 371.444 39.24C371.124 39.832 370.964 40.56 370.964 41.424V48H369.044V40.512C369.044 39.424 368.772 38.64 368.228 38.16C367.684 37.68 367.012 37.44 366.212 37.44C365.684 37.44 365.14 37.584 364.58 37.872C364.036 38.144 363.58 38.584 363.212 39.192C362.844 39.8 362.66 40.6 362.66 41.592V48H360.74ZM383.615 53.04V36H385.295L385.463 38.928L385.199 38.592C385.407 38.032 385.719 37.544 386.135 37.128C386.551 36.696 387.055 36.36 387.647 36.12C388.239 35.88 388.879 35.76 389.567 35.76C390.543 35.76 391.439 36.008 392.255 36.504C393.087 37 393.751 37.712 394.247 38.64C394.743 39.568 394.991 40.688 394.991 42C394.991 43.296 394.735 44.416 394.223 45.36C393.727 46.288 393.063 47 392.231 47.496C391.399 47.992 390.487 48.24 389.495 48.24C388.503 48.24 387.631 48 386.879 47.52C386.143 47.024 385.615 46.4 385.295 45.648L385.535 45.288V53.04H383.615ZM389.303 46.56C390.487 46.56 391.407 46.144 392.063 45.312C392.735 44.48 393.071 43.376 393.071 42C393.071 40.624 392.743 39.52 392.087 38.688C391.447 37.856 390.543 37.44 389.375 37.44C388.607 37.44 387.935 37.632 387.359 38.016C386.783 38.384 386.335 38.912 386.015 39.6C385.695 40.272 385.535 41.072 385.535 42C385.535 42.912 385.687 43.712 385.991 44.4C386.311 45.088 386.751 45.624 387.311 46.008C387.887 46.376 388.551 46.56 389.303 46.56ZM403.678 48.24C402.542 48.24 401.526 47.992 400.63 47.496C399.75 47 399.062 46.288 398.566 45.36C398.07 44.416 397.822 43.296 397.822 42C397.822 40.704 398.07 39.592 398.566 38.664C399.062 37.72 399.742 37 400.606 36.504C401.47 36.008 402.454 35.76 403.558 35.76C404.678 35.76 405.63 36 406.414 36.48C407.214 36.96 407.822 37.616 408.238 38.448C408.654 39.264 408.862 40.184 408.862 41.208C408.862 41.48 408.854 41.728 408.838 41.952C408.822 42.176 408.798 42.376 408.766 42.552H399.07V40.848H407.926L406.942 41.04C406.942 39.888 406.622 39 405.982 38.376C405.358 37.752 404.534 37.44 403.51 37.44C402.726 37.44 402.046 37.624 401.47 37.992C400.91 38.344 400.47 38.864 400.15 39.552C399.846 40.224 399.694 41.04 399.694 42C399.694 42.944 399.854 43.76 400.174 44.448C400.494 45.136 400.942 45.664 401.518 46.032C402.11 46.384 402.814 46.56 403.63 46.56C404.51 46.56 405.222 46.392 405.766 46.056C406.326 45.72 406.774 45.264 407.11 44.688L408.622 45.576C408.318 46.12 407.926 46.592 407.446 46.992C406.982 47.392 406.43 47.704 405.79 47.928C405.166 48.136 404.462 48.24 403.678 48.24ZM412.513 48V36H414.073L414.337 37.968C414.673 37.232 415.161 36.68 415.801 36.312C416.457 35.944 417.249 35.76 418.177 35.76C418.385 35.76 418.609 35.776 418.849 35.808C419.105 35.84 419.321 35.904 419.497 36L419.161 37.752C418.985 37.688 418.793 37.64 418.585 37.608C418.377 37.576 418.081 37.56 417.697 37.56C417.201 37.56 416.697 37.704 416.185 37.992C415.689 38.28 415.273 38.72 414.937 39.312C414.601 39.888 414.433 40.624 414.433 41.52V48H412.513ZM429.927 48V30.48H431.847V37.8C432.263 37.08 432.815 36.56 433.503 36.24C434.191 35.92 434.943 35.76 435.759 35.76C436.623 35.76 437.407 35.928 438.111 36.264C438.815 36.584 439.375 37.08 439.791 37.752C440.223 38.424 440.439 39.28 440.439 40.32V48H438.519V40.992C438.519 39.664 438.231 38.744 437.655 38.232C437.095 37.704 436.399 37.44 435.567 37.44C434.991 37.44 434.415 37.576 433.839 37.848C433.263 38.12 432.783 38.568 432.399 39.192C432.031 39.8 431.847 40.616 431.847 41.64V48H429.927ZM451.795 40.248C451.795 39.352 451.555 38.664 451.075 38.184C450.595 37.688 449.915 37.44 449.035 37.44C448.203 37.44 447.499 37.624 446.923 37.992C446.347 38.344 445.923 38.92 445.651 39.72L444.091 38.76C444.411 37.864 445.003 37.144 445.867 36.6C446.731 36.04 447.803 35.76 449.083 35.76C449.947 35.76 450.731 35.912 451.435 36.216C452.139 36.504 452.691 36.952 453.091 37.56C453.507 38.152 453.715 38.92 453.715 39.864V45.672C453.715 46.248 454.019 46.536 454.627 46.536C454.931 46.536 455.227 46.496 455.515 46.416L455.419 47.928C455.099 48.088 454.683 48.168 454.171 48.168C453.707 48.168 453.291 48.08 452.923 47.904C452.555 47.728 452.267 47.464 452.059 47.112C451.851 46.744 451.747 46.288 451.747 45.744V45.504L452.227 45.576C452.035 46.2 451.707 46.712 451.243 47.112C450.779 47.496 450.259 47.784 449.683 47.976C449.107 48.152 448.539 48.24 447.979 48.24C447.275 48.24 446.619 48.12 446.011 47.88C445.403 47.64 444.915 47.28 444.547 46.8C444.195 46.304 444.019 45.696 444.019 44.976C444.019 44.08 444.315 43.344 444.907 42.768C445.515 42.176 446.355 41.776 447.427 41.568L452.179 40.632V42.216L448.315 43.008C447.531 43.168 446.947 43.392 446.563 43.68C446.179 43.968 445.987 44.368 445.987 44.88C445.987 45.376 446.179 45.784 446.563 46.104C446.963 46.408 447.523 46.56 448.243 46.56C448.707 46.56 449.147 46.504 449.563 46.392C449.995 46.264 450.379 46.08 450.715 45.84C451.051 45.584 451.315 45.272 451.507 44.904C451.699 44.52 451.795 44.072 451.795 43.56V40.248ZM464.26 48.24C463.588 48.24 462.964 48.12 462.388 47.88C461.812 47.64 461.316 47.304 460.9 46.872C460.484 46.44 460.172 45.952 459.964 45.408L460.228 45.072L460.06 48H458.38V30.48H460.3V38.712L460.06 38.352C460.38 37.6 460.916 36.984 461.668 36.504C462.436 36.008 463.308 35.76 464.284 35.76C465.276 35.76 466.188 36.008 467.02 36.504C467.852 37 468.516 37.712 469.012 38.64C469.508 39.568 469.756 40.688 469.756 42C469.756 43.296 469.5 44.416 468.988 45.36C468.492 46.288 467.828 47 466.996 47.496C466.164 47.992 465.252 48.24 464.26 48.24ZM464.068 46.56C465.252 46.56 466.172 46.144 466.828 45.312C467.5 44.48 467.836 43.376 467.836 42C467.836 40.624 467.508 39.52 466.852 38.688C466.196 37.856 465.276 37.44 464.092 37.44C463.34 37.44 462.676 37.632 462.1 38.016C461.54 38.4 461.1 38.936 460.78 39.624C460.46 40.312 460.3 41.12 460.3 42.048C460.3 42.96 460.452 43.76 460.756 44.448C461.076 45.12 461.516 45.64 462.076 46.008C462.652 46.376 463.316 46.56 464.068 46.56ZM474.387 33.696C473.955 33.696 473.603 33.568 473.331 33.312C473.075 33.04 472.947 32.688 472.947 32.256C472.947 31.824 473.075 31.48 473.331 31.224C473.603 30.952 473.955 30.816 474.387 30.816C474.819 30.816 475.163 30.952 475.419 31.224C475.691 31.48 475.827 31.824 475.827 32.256C475.827 32.688 475.691 33.04 475.419 33.312C475.163 33.568 474.819 33.696 474.387 33.696ZM475.347 36V48H473.427V36H475.347ZM482.634 32.592V44.688C482.634 45.28 482.802 45.72 483.138 46.008C483.474 46.296 483.906 46.44 484.434 46.44C484.898 46.44 485.298 46.36 485.634 46.2C485.97 46.04 486.274 45.824 486.546 45.552L487.218 47.16C486.85 47.496 486.41 47.76 485.898 47.952C485.402 48.144 484.826 48.24 484.17 48.24C483.562 48.24 482.994 48.136 482.466 47.928C481.938 47.704 481.514 47.36 481.194 46.896C480.89 46.416 480.73 45.792 480.714 45.024V33.12L482.634 32.592ZM487.002 36V37.656H478.314V36H487.002ZM496.865 40.248C496.865 39.352 496.625 38.664 496.145 38.184C495.665 37.688 494.985 37.44 494.105 37.44C493.273 37.44 492.569 37.624 491.993 37.992C491.417 38.344 490.993 38.92 490.721 39.72L489.161 38.76C489.481 37.864 490.073 37.144 490.937 36.6C491.801 36.04 492.873 35.76 494.153 35.76C495.017 35.76 495.801 35.912 496.505 36.216C497.209 36.504 497.761 36.952 498.161 37.56C498.577 38.152 498.785 38.92 498.785 39.864V45.672C498.785 46.248 499.089 46.536 499.697 46.536C500.001 46.536 500.297 46.496 500.585 46.416L500.489 47.928C500.169 48.088 499.753 48.168 499.241 48.168C498.777 48.168 498.361 48.08 497.993 47.904C497.625 47.728 497.337 47.464 497.129 47.112C496.921 46.744 496.817 46.288 496.817 45.744V45.504L497.297 45.576C497.105 46.2 496.777 46.712 496.313 47.112C495.849 47.496 495.329 47.784 494.753 47.976C494.177 48.152 493.609 48.24 493.049 48.24C492.345 48.24 491.689 48.12 491.081 47.88C490.473 47.64 489.985 47.28 489.617 46.8C489.265 46.304 489.089 45.696 489.089 44.976C489.089 44.08 489.385 43.344 489.977 42.768C490.585 42.176 491.425 41.776 492.497 41.568L497.249 40.632V42.216L493.385 43.008C492.601 43.168 492.017 43.392 491.633 43.68C491.249 43.968 491.057 44.368 491.057 44.88C491.057 45.376 491.249 45.784 491.633 46.104C492.033 46.408 492.593 46.56 493.313 46.56C493.777 46.56 494.217 46.504 494.633 46.392C495.065 46.264 495.449 46.08 495.785 45.84C496.121 45.584 496.385 45.272 496.577 44.904C496.769 44.52 496.865 44.072 496.865 43.56V40.248ZM503.451 48V36H505.131L505.299 38.688L504.987 38.424C505.243 37.784 505.587 37.272 506.019 36.888C506.451 36.488 506.947 36.2 507.507 36.024C508.083 35.848 508.675 35.76 509.283 35.76C510.147 35.76 510.931 35.928 511.635 36.264C512.339 36.584 512.899 37.08 513.315 37.752C513.747 38.424 513.963 39.28 513.963 40.32V48H512.043V40.992C512.043 39.664 511.755 38.744 511.179 38.232C510.619 37.704 509.923 37.44 509.091 37.44C508.515 37.44 507.939 37.576 507.363 37.848C506.787 38.12 506.307 38.56 505.923 39.168C505.555 39.776 505.371 40.592 505.371 41.616V48H503.451ZM520.978 32.592V44.688C520.978 45.28 521.146 45.72 521.482 46.008C521.818 46.296 522.25 46.44 522.778 46.44C523.242 46.44 523.642 46.36 523.978 46.2C524.314 46.04 524.618 45.824 524.89 45.552L525.562 47.16C525.194 47.496 524.754 47.76 524.242 47.952C523.746 48.144 523.17 48.24 522.514 48.24C521.906 48.24 521.338 48.136 520.81 47.928C520.282 47.704 519.858 47.36 519.538 46.896C519.234 46.416 519.074 45.792 519.058 45.024V33.12L520.978 32.592ZM525.346 36V37.656H516.658V36H525.346ZM543.388 40.248C543.388 39.352 543.148 38.664 542.668 38.184C542.188 37.688 541.508 37.44 540.628 37.44C539.796 37.44 539.092 37.624 538.516 37.992C537.94 38.344 537.516 38.92 537.244 39.72L535.684 38.76C536.004 37.864 536.596 37.144 537.46 36.6C538.324 36.04 539.396 35.76 540.676 35.76C541.54 35.76 542.324 35.912 543.028 36.216C543.732 36.504 544.284 36.952 544.684 37.56C545.1 38.152 545.308 38.92 545.308 39.864V45.672C545.308 46.248 545.612 46.536 546.22 46.536C546.524 46.536 546.82 46.496 547.108 46.416L547.012 47.928C546.692 48.088 546.276 48.168 545.764 48.168C545.3 48.168 544.884 48.08 544.516 47.904C544.148 47.728 543.86 47.464 543.652 47.112C543.444 46.744 543.34 46.288 543.34 45.744V45.504L543.82 45.576C543.628 46.2 543.3 46.712 542.836 47.112C542.372 47.496 541.852 47.784 541.276 47.976C540.7 48.152 540.132 48.24 539.572 48.24C538.868 48.24 538.212 48.12 537.604 47.88C536.996 47.64 536.508 47.28 536.14 46.8C535.788 46.304 535.612 45.696 535.612 44.976C535.612 44.08 535.908 43.344 536.5 42.768C537.108 42.176 537.948 41.776 539.02 41.568L543.772 40.632V42.216L539.908 43.008C539.124 43.168 538.54 43.392 538.156 43.68C537.772 43.968 537.58 44.368 537.58 44.88C537.58 45.376 537.772 45.784 538.156 46.104C538.556 46.408 539.116 46.56 539.836 46.56C540.3 46.56 540.74 46.504 541.156 46.392C541.588 46.264 541.972 46.08 542.308 45.84C542.644 45.584 542.908 45.272 543.1 44.904C543.292 44.52 543.388 44.072 543.388 43.56V40.248ZM549.974 48V36H551.534L551.798 37.968C552.134 37.232 552.622 36.68 553.262 36.312C553.918 35.944 554.71 35.76 555.638 35.76C555.846 35.76 556.07 35.776 556.31 35.808C556.566 35.84 556.782 35.904 556.958 36L556.622 37.752C556.446 37.688 556.254 37.64 556.046 37.608C555.838 37.576 555.542 37.56 555.158 37.56C554.662 37.56 554.158 37.704 553.646 37.992C553.15 38.28 552.734 38.72 552.398 39.312C552.062 39.888 551.894 40.624 551.894 41.52V48H549.974ZM564.364 35.76C565.196 35.76 565.924 35.888 566.548 36.144C567.188 36.4 567.74 36.768 568.204 37.248C568.668 37.728 569.044 38.296 569.332 38.952L567.508 39.816C567.252 39.048 566.86 38.464 566.332 38.064C565.82 37.648 565.148 37.44 564.316 37.44C563.516 37.44 562.828 37.624 562.252 37.992C561.676 38.344 561.236 38.864 560.932 39.552C560.628 40.224 560.476 41.04 560.476 42C560.476 42.944 560.628 43.76 560.932 44.448C561.236 45.136 561.676 45.664 562.252 46.032C562.828 46.384 563.516 46.56 564.316 46.56C564.94 46.56 565.476 46.464 565.924 46.272C566.388 46.08 566.764 45.8 567.052 45.432C567.356 45.064 567.564 44.616 567.676 44.088L569.452 44.712C569.18 45.448 568.804 46.08 568.324 46.608C567.86 47.136 567.292 47.544 566.62 47.832C565.964 48.104 565.212 48.24 564.364 48.24C563.244 48.24 562.244 47.992 561.364 47.496C560.484 47 559.796 46.288 559.3 45.36C558.804 44.416 558.556 43.296 558.556 42C558.556 40.704 558.804 39.592 559.3 38.664C559.796 37.72 560.484 37 561.364 36.504C562.244 36.008 563.244 35.76 564.364 35.76ZM577.17 48.24C576.402 48.24 575.674 48.096 574.986 47.808C574.314 47.52 573.762 47.056 573.33 46.416C572.914 45.76 572.706 44.912 572.706 43.872V36H574.626V43.368C574.626 44.584 574.89 45.424 575.418 45.888C575.946 46.336 576.69 46.56 577.65 46.56C578.098 46.56 578.538 46.488 578.97 46.344C579.402 46.184 579.786 45.944 580.122 45.624C580.474 45.288 580.746 44.864 580.938 44.352C581.146 43.84 581.25 43.232 581.25 42.528V36H583.17V48H581.49L581.37 46.176C580.954 46.896 580.386 47.424 579.666 47.76C578.962 48.08 578.13 48.24 577.17 48.24ZM6.248 78.24C5.112 78.24 4.096 77.992 3.2 77.496C2.32 77 1.632 76.288 1.136 75.36C0.64 74.416 0.392 73.296 0.392 72C0.392 70.704 0.64 69.592 1.136 68.664C1.632 67.72 2.312 67 3.176 66.504C4.04 66.008 5.024 65.76 6.128 65.76C7.248 65.76 8.2 66 8.984 66.48C9.784 66.96 10.392 67.616 10.808 68.448C11.224 69.264 11.432 70.184 11.432 71.208C11.432 71.48 11.424 71.728 11.408 71.952C11.392 72.176 11.368 72.376 11.336 72.552H1.64V70.848H10.496L9.512 71.04C9.512 69.888 9.192 69 8.552 68.376C7.928 67.752 7.104 67.44 6.08 67.44C5.296 67.44 4.616 67.624 4.04 67.992C3.48 68.344 3.04 68.864 2.72 69.552C2.416 70.224 2.264 71.04 2.264 72C2.264 72.944 2.424 73.76 2.744 74.448C3.064 75.136 3.512 75.664 4.088 76.032C4.68 76.384 5.384 76.56 6.2 76.56C7.08 76.56 7.792 76.392 8.336 76.056C8.896 75.72 9.344 75.264 9.68 74.688L11.192 75.576C10.888 76.12 10.496 76.592 10.016 76.992C9.552 77.392 9 77.704 8.36 77.928C7.736 78.136 7.032 78.24 6.248 78.24ZM25.1876 63.792L25.6196 65.496C25.6036 65.496 25.5796 65.496 25.5476 65.496C25.5156 65.496 25.4836 65.496 25.4516 65.496C24.6676 65.496 24.0596 65.656 23.6276 65.976C23.2116 66.28 23.0036 66.776 23.0036 67.464L21.8276 66.864C21.8276 66.24 21.9716 65.696 22.2596 65.232C22.5476 64.768 22.9396 64.416 23.4356 64.176C23.9316 63.92 24.4756 63.792 25.0676 63.792C25.0836 63.792 25.0996 63.792 25.1156 63.792C25.1476 63.792 25.1716 63.792 25.1876 63.792ZM21.5396 76.464C22.6756 76.464 23.5636 76.728 24.2036 77.256C24.8436 77.768 25.1636 78.456 25.1636 79.32C25.1636 80.104 24.8996 80.784 24.3716 81.36C23.8596 81.936 23.1636 82.376 22.2836 82.68C21.4196 83 20.4436 83.16 19.3556 83.16C17.4676 83.16 16.0516 82.84 15.1076 82.2C14.1796 81.56 13.7156 80.792 13.7156 79.896C13.7156 79.256 13.9236 78.68 14.3396 78.168C14.7716 77.672 15.4916 77.392 16.4996 77.328L16.3316 77.688C15.7876 77.544 15.3236 77.304 14.9396 76.968C14.5716 76.616 14.3876 76.112 14.3876 75.456C14.3876 74.8 14.6276 74.24 15.1076 73.776C15.6036 73.296 16.3316 73 17.2916 72.888L18.5636 73.536H18.3236C17.5396 73.616 16.9796 73.816 16.6436 74.136C16.3236 74.44 16.1636 74.776 16.1636 75.144C16.1636 75.592 16.3236 75.928 16.6436 76.152C16.9796 76.36 17.4436 76.464 18.0356 76.464H21.5396ZM19.3316 81.552C20.2596 81.552 21.0196 81.456 21.6116 81.264C22.2196 81.072 22.6676 80.824 22.9556 80.52C23.2436 80.216 23.3876 79.888 23.3876 79.536C23.3876 79.104 23.2116 78.76 22.8596 78.504C22.5236 78.248 21.9076 78.12 21.0116 78.12H17.3156C16.8036 78.12 16.3716 78.248 16.0196 78.504C15.6676 78.776 15.4916 79.144 15.4916 79.608C15.4916 80.2 15.8276 80.672 16.4996 81.024C17.1876 81.376 18.1316 81.552 19.3316 81.552ZM19.1636 65.76C20.1236 65.76 20.9716 65.936 21.7076 66.288C22.4596 66.624 23.0436 67.096 23.4596 67.704C23.8756 68.312 24.0836 69.016 24.0836 69.816C24.0836 70.6 23.8756 71.304 23.4596 71.928C23.0436 72.536 22.4596 73.016 21.7076 73.368C20.9716 73.704 20.1236 73.872 19.1636 73.872C17.5796 73.872 16.3636 73.496 15.5156 72.744C14.6676 71.976 14.2436 71 14.2436 69.816C14.2436 69.016 14.4516 68.312 14.8676 67.704C15.2996 67.096 15.8836 66.624 16.6196 66.288C17.3556 65.936 18.2036 65.76 19.1636 65.76ZM19.1636 67.32C18.3316 67.32 17.6356 67.552 17.0756 68.016C16.5156 68.464 16.2356 69.064 16.2356 69.816C16.2356 70.552 16.5156 71.152 17.0756 71.616C17.6356 72.08 18.3316 72.312 19.1636 72.312C19.9956 72.312 20.6916 72.08 21.2516 71.616C21.8116 71.152 22.0916 70.552 22.0916 69.816C22.0916 69.064 21.8116 68.464 21.2516 68.016C20.6916 67.552 19.9956 67.32 19.1636 67.32ZM32.873 78.24C31.737 78.24 30.721 77.992 29.825 77.496C28.945 77 28.257 76.288 27.761 75.36C27.265 74.416 27.017 73.296 27.017 72C27.017 70.704 27.265 69.592 27.761 68.664C28.257 67.72 28.937 67 29.801 66.504C30.665 66.008 31.649 65.76 32.753 65.76C33.873 65.76 34.825 66 35.609 66.48C36.409 66.96 37.017 67.616 37.433 68.448C37.849 69.264 38.057 70.184 38.057 71.208C38.057 71.48 38.049 71.728 38.033 71.952C38.017 72.176 37.993 72.376 37.961 72.552H28.265V70.848H37.121L36.137 71.04C36.137 69.888 35.817 69 35.177 68.376C34.553 67.752 33.729 67.44 32.705 67.44C31.921 67.44 31.241 67.624 30.665 67.992C30.105 68.344 29.665 68.864 29.345 69.552C29.041 70.224 28.889 71.04 28.889 72C28.889 72.944 29.049 73.76 29.369 74.448C29.689 75.136 30.137 75.664 30.713 76.032C31.305 76.384 32.009 76.56 32.825 76.56C33.705 76.56 34.417 76.392 34.961 76.056C35.521 75.72 35.969 75.264 36.305 74.688L37.817 75.576C37.513 76.12 37.121 76.592 36.641 76.992C36.177 77.392 35.625 77.704 34.985 77.928C34.361 78.136 33.657 78.24 32.873 78.24ZM44.189 62.592V74.688C44.189 75.28 44.357 75.72 44.693 76.008C45.029 76.296 45.461 76.44 45.989 76.44C46.453 76.44 46.853 76.36 47.189 76.2C47.525 76.04 47.829 75.824 48.101 75.552L48.773 77.16C48.405 77.496 47.965 77.76 47.453 77.952C46.957 78.144 46.381 78.24 45.725 78.24C45.117 78.24 44.549 78.136 44.021 77.928C43.493 77.704 43.069 77.36 42.749 76.896C42.445 76.416 42.285 75.792 42.269 75.024V63.12L44.189 62.592ZM48.557 66V67.656H39.869V66H48.557ZM52.3717 75.12C52.8357 75.12 53.2117 75.264 53.4997 75.552C53.7877 75.84 53.9317 76.216 53.9317 76.68C53.9317 77.144 53.7877 77.52 53.4997 77.808C53.2117 78.096 52.8357 78.24 52.3717 78.24C51.9077 78.24 51.5317 78.096 51.2437 77.808C50.9557 77.52 50.8117 77.144 50.8117 76.68C50.8117 76.216 50.9557 75.84 51.2437 75.552C51.5317 75.264 51.9077 75.12 52.3717 75.12ZM66.3264 78V62.16H77.4384V63.96H68.2464V69.072H75.3984V70.872H68.2464V76.2H77.7984V78H66.3264ZM83.6343 62.592V74.688C83.6343 75.28 83.8023 75.72 84.1383 76.008C84.4743 76.296 84.9063 76.44 85.4343 76.44C85.8983 76.44 86.2983 76.36 86.6343 76.2C86.9703 76.04 87.2743 75.824 87.5463 75.552L88.2183 77.16C87.8503 77.496 87.4103 77.76 86.8983 77.952C86.4023 78.144 85.8263 78.24 85.1703 78.24C84.5623 78.24 83.9943 78.136 83.4663 77.928C82.9383 77.704 82.5143 77.36 82.1943 76.896C81.8903 76.416 81.7303 75.792 81.7143 75.024V63.12L83.6343 62.592ZM88.0023 66V67.656H79.3143V66H88.0023ZM99.9967 63.696C99.5647 63.696 99.2127 63.568 98.9407 63.312C98.6847 63.04 98.5567 62.688 98.5567 62.256C98.5567 61.824 98.6847 61.48 98.9407 61.224C99.2127 60.952 99.5647 60.816 99.9967 60.816C100.429 60.816 100.773 60.952 101.029 61.224C101.301 61.48 101.437 61.824 101.437 62.256C101.437 62.688 101.301 63.04 101.029 63.312C100.773 63.568 100.429 63.696 99.9967 63.696ZM100.957 66V78H99.0367V66H100.957ZM105.412 78V66H107.092L107.26 68.688L106.948 68.424C107.204 67.784 107.548 67.272 107.98 66.888C108.412 66.488 108.908 66.2 109.468 66.024C110.044 65.848 110.636 65.76 111.244 65.76C112.108 65.76 112.892 65.928 113.596 66.264C114.3 66.584 114.86 67.08 115.276 67.752C115.708 68.424 115.924 69.28 115.924 70.32V78H114.004V70.992C114.004 69.664 113.716 68.744 113.14 68.232C112.58 67.704 111.884 67.44 111.052 67.44C110.476 67.44 109.9 67.576 109.324 67.848C108.748 68.12 108.268 68.56 107.884 69.168C107.516 69.776 107.332 70.592 107.332 71.616V78H105.412ZM122.939 62.592V74.688C122.939 75.28 123.107 75.72 123.443 76.008C123.779 76.296 124.211 76.44 124.739 76.44C125.203 76.44 125.603 76.36 125.939 76.2C126.275 76.04 126.579 75.824 126.851 75.552L127.523 77.16C127.155 77.496 126.715 77.76 126.203 77.952C125.707 78.144 125.131 78.24 124.475 78.24C123.867 78.24 123.299 78.136 122.771 77.928C122.243 77.704 121.819 77.36 121.499 76.896C121.195 76.416 121.035 75.792 121.019 75.024V63.12L122.939 62.592ZM127.307 66V67.656H118.619V66H127.307ZM135.178 78.24C134.042 78.24 133.026 77.992 132.13 77.496C131.25 77 130.562 76.288 130.066 75.36C129.57 74.416 129.322 73.296 129.322 72C129.322 70.704 129.57 69.592 130.066 68.664C130.562 67.72 131.242 67 132.106 66.504C132.97 66.008 133.954 65.76 135.058 65.76C136.178 65.76 137.13 66 137.914 66.48C138.714 66.96 139.322 67.616 139.738 68.448C140.154 69.264 140.362 70.184 140.362 71.208C140.362 71.48 140.354 71.728 140.338 71.952C140.322 72.176 140.298 72.376 140.266 72.552H130.57V70.848H139.426L138.442 71.04C138.442 69.888 138.122 69 137.482 68.376C136.858 67.752 136.034 67.44 135.01 67.44C134.226 67.44 133.546 67.624 132.97 67.992C132.41 68.344 131.97 68.864 131.65 69.552C131.346 70.224 131.194 71.04 131.194 72C131.194 72.944 131.354 73.76 131.674 74.448C131.994 75.136 132.442 75.664 133.018 76.032C133.61 76.384 134.314 76.56 135.13 76.56C136.01 76.56 136.722 76.392 137.266 76.056C137.826 75.72 138.274 75.264 138.61 74.688L140.122 75.576C139.818 76.12 139.426 76.592 138.946 76.992C138.482 77.392 137.93 77.704 137.29 77.928C136.666 78.136 135.962 78.24 135.178 78.24ZM154.117 63.792L154.549 65.496C154.533 65.496 154.509 65.496 154.477 65.496C154.445 65.496 154.413 65.496 154.381 65.496C153.597 65.496 152.989 65.656 152.557 65.976C152.141 66.28 151.933 66.776 151.933 67.464L150.757 66.864C150.757 66.24 150.901 65.696 151.189 65.232C151.477 64.768 151.869 64.416 152.365 64.176C152.861 63.92 153.405 63.792 153.997 63.792C154.013 63.792 154.029 63.792 154.045 63.792C154.077 63.792 154.101 63.792 154.117 63.792ZM150.469 76.464C151.605 76.464 152.493 76.728 153.133 77.256C153.773 77.768 154.093 78.456 154.093 79.32C154.093 80.104 153.829 80.784 153.301 81.36C152.789 81.936 152.093 82.376 151.213 82.68C150.349 83 149.373 83.16 148.285 83.16C146.397 83.16 144.981 82.84 144.037 82.2C143.109 81.56 142.645 80.792 142.645 79.896C142.645 79.256 142.853 78.68 143.269 78.168C143.701 77.672 144.421 77.392 145.429 77.328L145.261 77.688C144.717 77.544 144.253 77.304 143.869 76.968C143.501 76.616 143.317 76.112 143.317 75.456C143.317 74.8 143.557 74.24 144.037 73.776C144.533 73.296 145.261 73 146.221 72.888L147.493 73.536H147.253C146.469 73.616 145.909 73.816 145.573 74.136C145.253 74.44 145.093 74.776 145.093 75.144C145.093 75.592 145.253 75.928 145.573 76.152C145.909 76.36 146.373 76.464 146.965 76.464H150.469ZM148.261 81.552C149.189 81.552 149.949 81.456 150.541 81.264C151.149 81.072 151.597 80.824 151.885 80.52C152.173 80.216 152.317 79.888 152.317 79.536C152.317 79.104 152.141 78.76 151.789 78.504C151.453 78.248 150.837 78.12 149.941 78.12H146.245C145.733 78.12 145.301 78.248 144.949 78.504C144.597 78.776 144.421 79.144 144.421 79.608C144.421 80.2 144.757 80.672 145.429 81.024C146.117 81.376 147.061 81.552 148.261 81.552ZM148.093 65.76C149.053 65.76 149.901 65.936 150.637 66.288C151.389 66.624 151.973 67.096 152.389 67.704C152.805 68.312 153.013 69.016 153.013 69.816C153.013 70.6 152.805 71.304 152.389 71.928C151.973 72.536 151.389 73.016 150.637 73.368C149.901 73.704 149.053 73.872 148.093 73.872C146.509 73.872 145.293 73.496 144.445 72.744C143.597 71.976 143.173 71 143.173 69.816C143.173 69.016 143.381 68.312 143.797 67.704C144.229 67.096 144.813 66.624 145.549 66.288C146.285 65.936 147.133 65.76 148.093 65.76ZM148.093 67.32C147.261 67.32 146.565 67.552 146.005 68.016C145.445 68.464 145.165 69.064 145.165 69.816C145.165 70.552 145.445 71.152 146.005 71.616C146.565 72.08 147.261 72.312 148.093 72.312C148.925 72.312 149.621 72.08 150.181 71.616C150.741 71.152 151.021 70.552 151.021 69.816C151.021 69.064 150.741 68.464 150.181 68.016C149.621 67.552 148.925 67.32 148.093 67.32ZM161.803 78.24C160.667 78.24 159.651 77.992 158.755 77.496C157.875 77 157.187 76.288 156.691 75.36C156.195 74.416 155.947 73.296 155.947 72C155.947 70.704 156.195 69.592 156.691 68.664C157.187 67.72 157.867 67 158.731 66.504C159.595 66.008 160.579 65.76 161.683 65.76C162.803 65.76 163.755 66 164.539 66.48C165.339 66.96 165.947 67.616 166.363 68.448C166.779 69.264 166.987 70.184 166.987 71.208C166.987 71.48 166.979 71.728 166.963 71.952C166.947 72.176 166.923 72.376 166.891 72.552H157.195V70.848H166.051L165.067 71.04C165.067 69.888 164.747 69 164.107 68.376C163.483 67.752 162.659 67.44 161.635 67.44C160.851 67.44 160.171 67.624 159.595 67.992C159.035 68.344 158.595 68.864 158.275 69.552C157.971 70.224 157.819 71.04 157.819 72C157.819 72.944 157.979 73.76 158.299 74.448C158.619 75.136 159.067 75.664 159.643 76.032C160.235 76.384 160.939 76.56 161.755 76.56C162.635 76.56 163.347 76.392 163.891 76.056C164.451 75.72 164.899 75.264 165.235 74.688L166.747 75.576C166.443 76.12 166.051 76.592 165.571 76.992C165.107 77.392 164.555 77.704 163.915 77.928C163.291 78.136 162.587 78.24 161.803 78.24ZM170.638 78V66H172.198L172.462 67.968C172.798 67.232 173.286 66.68 173.926 66.312C174.582 65.944 175.374 65.76 176.302 65.76C176.51 65.76 176.734 65.776 176.974 65.808C177.23 65.84 177.446 65.904 177.622 66L177.286 67.752C177.11 67.688 176.918 67.64 176.71 67.608C176.502 67.576 176.206 67.56 175.822 67.56C175.326 67.56 174.822 67.704 174.31 67.992C173.814 68.28 173.398 68.72 173.062 69.312C172.726 69.888 172.558 70.624 172.558 71.52V78H170.638ZM192.479 60.36C192.895 60.36 193.287 60.408 193.655 60.504C194.023 60.6 194.311 60.736 194.519 60.912L194.015 62.472C193.823 62.344 193.615 62.256 193.391 62.208C193.167 62.144 192.919 62.112 192.647 62.112C191.959 62.112 191.423 62.28 191.039 62.616C190.655 62.936 190.463 63.456 190.463 64.176V66V66.624V78H188.543V63.984C188.543 63.456 188.623 62.968 188.783 62.52C188.943 62.072 189.183 61.688 189.503 61.368C189.839 61.048 190.255 60.8 190.751 60.624C191.247 60.448 191.823 60.36 192.479 60.36ZM194.471 66V67.656H186.143V66H194.471ZM203.31 70.248C203.31 69.352 203.07 68.664 202.59 68.184C202.11 67.688 201.43 67.44 200.55 67.44C199.718 67.44 199.014 67.624 198.438 67.992C197.862 68.344 197.438 68.92 197.166 69.72L195.606 68.76C195.926 67.864 196.518 67.144 197.382 66.6C198.246 66.04 199.318 65.76 200.598 65.76C201.462 65.76 202.246 65.912 202.95 66.216C203.654 66.504 204.206 66.952 204.606 67.56C205.022 68.152 205.23 68.92 205.23 69.864V75.672C205.23 76.248 205.534 76.536 206.142 76.536C206.446 76.536 206.742 76.496 207.03 76.416L206.934 77.928C206.614 78.088 206.198 78.168 205.686 78.168C205.222 78.168 204.806 78.08 204.438 77.904C204.07 77.728 203.782 77.464 203.574 77.112C203.366 76.744 203.262 76.288 203.262 75.744V75.504L203.742 75.576C203.55 76.2 203.222 76.712 202.758 77.112C202.294 77.496 201.774 77.784 201.198 77.976C200.622 78.152 200.054 78.24 199.494 78.24C198.79 78.24 198.134 78.12 197.526 77.88C196.918 77.64 196.43 77.28 196.062 76.8C195.71 76.304 195.534 75.696 195.534 74.976C195.534 74.08 195.83 73.344 196.422 72.768C197.03 72.176 197.87 71.776 198.942 71.568L203.694 70.632V72.216L199.83 73.008C199.046 73.168 198.462 73.392 198.078 73.68C197.694 73.968 197.502 74.368 197.502 74.88C197.502 75.376 197.694 75.784 198.078 76.104C198.478 76.408 199.038 76.56 199.758 76.56C200.222 76.56 200.662 76.504 201.078 76.392C201.51 76.264 201.894 76.08 202.23 75.84C202.566 75.584 202.83 75.272 203.022 74.904C203.214 74.52 203.31 74.072 203.31 73.56V70.248ZM214.864 65.76C215.696 65.76 216.424 65.888 217.048 66.144C217.688 66.4 218.24 66.768 218.704 67.248C219.168 67.728 219.544 68.296 219.832 68.952L218.008 69.816C217.752 69.048 217.36 68.464 216.832 68.064C216.32 67.648 215.648 67.44 214.816 67.44C214.016 67.44 213.328 67.624 212.752 67.992C212.176 68.344 211.736 68.864 211.432 69.552C211.128 70.224 210.976 71.04 210.976 72C210.976 72.944 211.128 73.76 211.432 74.448C211.736 75.136 212.176 75.664 212.752 76.032C213.328 76.384 214.016 76.56 214.816 76.56C215.44 76.56 215.976 76.464 216.424 76.272C216.888 76.08 217.264 75.8 217.552 75.432C217.856 75.064 218.064 74.616 218.176 74.088L219.952 74.712C219.68 75.448 219.304 76.08 218.824 76.608C218.36 77.136 217.792 77.544 217.12 77.832C216.464 78.104 215.712 78.24 214.864 78.24C213.744 78.24 212.744 77.992 211.864 77.496C210.984 77 210.296 76.288 209.8 75.36C209.304 74.416 209.056 73.296 209.056 72C209.056 70.704 209.304 69.592 209.8 68.664C210.296 67.72 210.984 67 211.864 66.504C212.744 66.008 213.744 65.76 214.864 65.76ZM224.286 63.696C223.854 63.696 223.502 63.568 223.23 63.312C222.974 63.04 222.846 62.688 222.846 62.256C222.846 61.824 222.974 61.48 223.23 61.224C223.502 60.952 223.854 60.816 224.286 60.816C224.718 60.816 225.062 60.952 225.318 61.224C225.59 61.48 225.726 61.824 225.726 62.256C225.726 62.688 225.59 63.04 225.318 63.312C225.062 63.568 224.718 63.696 224.286 63.696ZM225.246 66V78H223.326V66H225.246ZM231.525 60.48V74.952C231.525 75.56 231.637 75.984 231.861 76.224C232.085 76.448 232.445 76.56 232.941 76.56C233.261 76.56 233.525 76.536 233.733 76.488C233.941 76.44 234.221 76.352 234.573 76.224L234.261 77.904C234.005 78.016 233.725 78.096 233.421 78.144C233.117 78.208 232.805 78.24 232.485 78.24C231.509 78.24 230.781 77.976 230.301 77.448C229.837 76.92 229.605 76.112 229.605 75.024V60.48H231.525ZM237.997 63.696C237.565 63.696 237.213 63.568 236.941 63.312C236.685 63.04 236.557 62.688 236.557 62.256C236.557 61.824 236.685 61.48 236.941 61.224C237.213 60.952 237.565 60.816 237.997 60.816C238.429 60.816 238.773 60.952 239.029 61.224C239.301 61.48 239.437 61.824 239.437 62.256C239.437 62.688 239.301 63.04 239.029 63.312C238.773 63.568 238.429 63.696 237.997 63.696ZM238.957 66V78H237.037V66H238.957ZM247.732 78.24C246.564 78.24 245.484 77.992 244.492 77.496C243.516 77 242.764 76.296 242.236 75.384L243.868 74.208C244.22 74.944 244.732 75.52 245.404 75.936C246.092 76.352 246.916 76.56 247.876 76.56C248.724 76.56 249.388 76.4 249.868 76.08C250.348 75.744 250.588 75.312 250.588 74.784C250.588 74.448 250.476 74.144 250.252 73.872C250.044 73.584 249.636 73.376 249.028 73.248L246.148 72.648C244.98 72.408 244.14 72.008 243.628 71.448C243.132 70.888 242.884 70.192 242.884 69.36C242.884 68.704 243.068 68.104 243.436 67.56C243.82 67.016 244.356 66.584 245.044 66.264C245.748 65.928 246.572 65.76 247.516 65.76C248.7 65.76 249.7 65.992 250.516 66.456C251.332 66.92 251.94 67.576 252.34 68.424L250.732 69.48C250.46 68.776 250.02 68.264 249.412 67.944C248.804 67.608 248.172 67.44 247.516 67.44C246.94 67.44 246.444 67.52 246.028 67.68C245.628 67.84 245.316 68.064 245.092 68.352C244.884 68.624 244.78 68.936 244.78 69.288C244.78 69.64 244.9 69.968 245.14 70.272C245.38 70.56 245.828 70.768 246.484 70.896L249.484 71.52C250.604 71.744 251.388 72.112 251.836 72.624C252.284 73.136 252.508 73.76 252.508 74.496C252.508 75.248 252.308 75.912 251.908 76.488C251.508 77.048 250.948 77.48 250.228 77.784C249.508 78.088 248.676 78.24 247.732 78.24ZM257.028 63.696C256.596 63.696 256.244 63.568 255.972 63.312C255.716 63.04 255.588 62.688 255.588 62.256C255.588 61.824 255.716 61.48 255.972 61.224C256.244 60.952 256.596 60.816 257.028 60.816C257.46 60.816 257.804 60.952 258.06 61.224C258.332 61.48 258.468 61.824 258.468 62.256C258.468 62.688 258.332 63.04 258.06 63.312C257.804 63.568 257.46 63.696 257.028 63.696ZM257.988 66V78H256.068V66H257.988ZM275.639 78.24C274.503 78.24 273.487 77.992 272.591 77.496C271.711 77 271.023 76.288 270.527 75.36C270.031 74.416 269.783 73.296 269.783 72C269.783 70.704 270.031 69.592 270.527 68.664C271.023 67.72 271.703 67 272.567 66.504C273.431 66.008 274.415 65.76 275.519 65.76C276.639 65.76 277.591 66 278.375 66.48C279.175 66.96 279.783 67.616 280.199 68.448C280.615 69.264 280.823 70.184 280.823 71.208C280.823 71.48 280.815 71.728 280.799 71.952C280.783 72.176 280.759 72.376 280.727 72.552H271.031V70.848H279.887L278.903 71.04C278.903 69.888 278.583 69 277.943 68.376C277.319 67.752 276.495 67.44 275.471 67.44C274.687 67.44 274.007 67.624 273.431 67.992C272.871 68.344 272.431 68.864 272.111 69.552C271.807 70.224 271.655 71.04 271.655 72C271.655 72.944 271.815 73.76 272.135 74.448C272.455 75.136 272.903 75.664 273.479 76.032C274.071 76.384 274.775 76.56 275.591 76.56C276.471 76.56 277.183 76.392 277.727 76.056C278.287 75.72 278.735 75.264 279.071 74.688L280.583 75.576C280.279 76.12 279.887 76.592 279.407 76.992C278.943 77.392 278.391 77.704 277.751 77.928C277.127 78.136 276.423 78.24 275.639 78.24ZM294.578 63.792L295.01 65.496C294.994 65.496 294.97 65.496 294.938 65.496C294.906 65.496 294.874 65.496 294.842 65.496C294.058 65.496 293.45 65.656 293.018 65.976C292.602 66.28 292.394 66.776 292.394 67.464L291.218 66.864C291.218 66.24 291.362 65.696 291.65 65.232C291.938 64.768 292.33 64.416 292.826 64.176C293.322 63.92 293.866 63.792 294.458 63.792C294.474 63.792 294.49 63.792 294.506 63.792C294.538 63.792 294.562 63.792 294.578 63.792ZM290.93 76.464C292.066 76.464 292.954 76.728 293.594 77.256C294.234 77.768 294.554 78.456 294.554 79.32C294.554 80.104 294.29 80.784 293.762 81.36C293.25 81.936 292.554 82.376 291.674 82.68C290.81 83 289.834 83.16 288.746 83.16C286.858 83.16 285.442 82.84 284.498 82.2C283.57 81.56 283.106 80.792 283.106 79.896C283.106 79.256 283.314 78.68 283.73 78.168C284.162 77.672 284.882 77.392 285.89 77.328L285.722 77.688C285.178 77.544 284.714 77.304 284.33 76.968C283.962 76.616 283.778 76.112 283.778 75.456C283.778 74.8 284.018 74.24 284.498 73.776C284.994 73.296 285.722 73 286.682 72.888L287.954 73.536H287.714C286.93 73.616 286.37 73.816 286.034 74.136C285.714 74.44 285.554 74.776 285.554 75.144C285.554 75.592 285.714 75.928 286.034 76.152C286.37 76.36 286.834 76.464 287.426 76.464H290.93ZM288.722 81.552C289.65 81.552 290.41 81.456 291.002 81.264C291.61 81.072 292.058 80.824 292.346 80.52C292.634 80.216 292.778 79.888 292.778 79.536C292.778 79.104 292.602 78.76 292.25 78.504C291.914 78.248 291.298 78.12 290.402 78.12H286.706C286.194 78.12 285.762 78.248 285.41 78.504C285.058 78.776 284.882 79.144 284.882 79.608C284.882 80.2 285.218 80.672 285.89 81.024C286.578 81.376 287.522 81.552 288.722 81.552ZM288.554 65.76C289.514 65.76 290.362 65.936 291.098 66.288C291.85 66.624 292.434 67.096 292.85 67.704C293.266 68.312 293.474 69.016 293.474 69.816C293.474 70.6 293.266 71.304 292.85 71.928C292.434 72.536 291.85 73.016 291.098 73.368C290.362 73.704 289.514 73.872 288.554 73.872C286.97 73.872 285.754 73.496 284.906 72.744C284.058 71.976 283.634 71 283.634 69.816C283.634 69.016 283.842 68.312 284.258 67.704C284.69 67.096 285.274 66.624 286.01 66.288C286.746 65.936 287.594 65.76 288.554 65.76ZM288.554 67.32C287.722 67.32 287.026 67.552 286.466 68.016C285.906 68.464 285.626 69.064 285.626 69.816C285.626 70.552 285.906 71.152 286.466 71.616C287.026 72.08 287.722 72.312 288.554 72.312C289.386 72.312 290.082 72.08 290.642 71.616C291.202 71.152 291.482 70.552 291.482 69.816C291.482 69.064 291.202 68.464 290.642 68.016C290.082 67.552 289.386 67.32 288.554 67.32ZM302.264 78.24C301.128 78.24 300.112 77.992 299.216 77.496C298.336 77 297.648 76.288 297.152 75.36C296.656 74.416 296.408 73.296 296.408 72C296.408 70.704 296.656 69.592 297.152 68.664C297.648 67.72 298.328 67 299.192 66.504C300.056 66.008 301.04 65.76 302.144 65.76C303.264 65.76 304.216 66 305 66.48C305.8 66.96 306.408 67.616 306.824 68.448C307.24 69.264 307.448 70.184 307.448 71.208C307.448 71.48 307.44 71.728 307.424 71.952C307.408 72.176 307.384 72.376 307.352 72.552H297.656V70.848H306.512L305.528 71.04C305.528 69.888 305.208 69 304.568 68.376C303.944 67.752 303.12 67.44 302.096 67.44C301.312 67.44 300.632 67.624 300.056 67.992C299.496 68.344 299.056 68.864 298.736 69.552C298.432 70.224 298.28 71.04 298.28 72C298.28 72.944 298.44 73.76 298.76 74.448C299.08 75.136 299.528 75.664 300.104 76.032C300.696 76.384 301.4 76.56 302.216 76.56C303.096 76.56 303.808 76.392 304.352 76.056C304.912 75.72 305.36 75.264 305.696 74.688L307.208 75.576C306.904 76.12 306.512 76.592 306.032 76.992C305.568 77.392 305.016 77.704 304.376 77.928C303.752 78.136 303.048 78.24 302.264 78.24ZM313.58 62.592V74.688C313.58 75.28 313.748 75.72 314.084 76.008C314.42 76.296 314.852 76.44 315.38 76.44C315.844 76.44 316.244 76.36 316.58 76.2C316.916 76.04 317.22 75.824 317.492 75.552L318.164 77.16C317.796 77.496 317.356 77.76 316.844 77.952C316.348 78.144 315.772 78.24 315.116 78.24C314.508 78.24 313.94 78.136 313.412 77.928C312.884 77.704 312.46 77.36 312.14 76.896C311.836 76.416 311.676 75.792 311.66 75.024V63.12L313.58 62.592ZM317.948 66V67.656H309.26V66H317.948ZM333.662 78.24C332.67 78.24 331.758 77.992 330.926 77.496C330.094 77 329.43 76.288 328.934 75.36C328.438 74.416 328.19 73.296 328.19 72C328.19 70.672 328.454 69.544 328.982 68.616C329.51 67.688 330.206 66.984 331.07 66.504C331.934 66.008 332.862 65.76 333.854 65.76C334.846 65.76 335.702 66.016 336.422 66.528C337.158 67.04 337.646 67.72 337.886 68.568L337.646 68.736V60.48H339.566V78H337.886L337.718 75.096L337.982 74.952C337.87 75.656 337.598 76.256 337.166 76.752C336.75 77.232 336.23 77.6 335.606 77.856C334.998 78.112 334.35 78.24 333.662 78.24ZM333.854 76.56C334.622 76.56 335.286 76.368 335.846 75.984C336.422 75.6 336.862 75.056 337.166 74.352C337.486 73.632 337.646 72.792 337.646 71.832C337.646 70.92 337.486 70.136 337.166 69.48C336.862 68.824 336.43 68.32 335.87 67.968C335.326 67.616 334.686 67.44 333.95 67.44C332.734 67.44 331.79 67.856 331.118 68.688C330.446 69.52 330.11 70.624 330.11 72C330.11 73.376 330.438 74.48 331.094 75.312C331.75 76.144 332.67 76.56 333.854 76.56ZM344.989 63.696C344.557 63.696 344.205 63.568 343.933 63.312C343.677 63.04 343.549 62.688 343.549 62.256C343.549 61.824 343.677 61.48 343.933 61.224C344.205 60.952 344.557 60.816 344.989 60.816C345.421 60.816 345.765 60.952 346.021 61.224C346.293 61.48 346.429 61.824 346.429 62.256C346.429 62.688 346.293 63.04 346.021 63.312C345.765 63.568 345.421 63.696 344.989 63.696ZM345.949 66V78H344.029V66H345.949ZM357.412 70.248C357.412 69.352 357.172 68.664 356.692 68.184C356.212 67.688 355.532 67.44 354.652 67.44C353.82 67.44 353.116 67.624 352.54 67.992C351.964 68.344 351.54 68.92 351.268 69.72L349.708 68.76C350.028 67.864 350.62 67.144 351.484 66.6C352.348 66.04 353.42 65.76 354.7 65.76C355.564 65.76 356.348 65.912 357.052 66.216C357.756 66.504 358.308 66.952 358.708 67.56C359.124 68.152 359.332 68.92 359.332 69.864V75.672C359.332 76.248 359.636 76.536 360.244 76.536C360.548 76.536 360.844 76.496 361.132 76.416L361.036 77.928C360.716 78.088 360.3 78.168 359.788 78.168C359.324 78.168 358.908 78.08 358.54 77.904C358.172 77.728 357.884 77.464 357.676 77.112C357.468 76.744 357.364 76.288 357.364 75.744V75.504L357.844 75.576C357.652 76.2 357.324 76.712 356.86 77.112C356.396 77.496 355.876 77.784 355.3 77.976C354.724 78.152 354.156 78.24 353.596 78.24C352.892 78.24 352.236 78.12 351.628 77.88C351.02 77.64 350.532 77.28 350.164 76.8C349.812 76.304 349.636 75.696 349.636 74.976C349.636 74.08 349.932 73.344 350.524 72.768C351.132 72.176 351.972 71.776 353.044 71.568L357.796 70.632V72.216L353.932 73.008C353.148 73.168 352.564 73.392 352.18 73.68C351.796 73.968 351.604 74.368 351.604 74.88C351.604 75.376 351.796 75.784 352.18 76.104C352.58 76.408 353.14 76.56 353.86 76.56C354.324 76.56 354.764 76.504 355.18 76.392C355.612 76.264 355.996 76.08 356.332 75.84C356.668 75.584 356.932 75.272 357.124 74.904C357.316 74.52 357.412 74.072 357.412 73.56V70.248ZM363.998 78V66H365.678L365.798 67.872C366.23 67.136 366.79 66.6 367.478 66.264C368.182 65.928 368.902 65.76 369.638 65.76C370.486 65.76 371.286 65.952 372.038 66.336C372.79 66.72 373.366 67.312 373.766 68.112C374.022 67.568 374.382 67.128 374.846 66.792C375.31 66.44 375.814 66.184 376.358 66.024C376.918 65.848 377.446 65.76 377.942 65.76C378.71 65.76 379.438 65.92 380.126 66.24C380.83 66.56 381.406 67.056 381.854 67.728C382.302 68.4 382.526 69.264 382.526 70.32V78H380.606V70.512C380.606 69.424 380.334 68.64 379.79 68.16C379.246 67.68 378.574 67.44 377.774 67.44C377.15 67.44 376.566 67.592 376.022 67.896C375.478 68.2 375.038 68.648 374.702 69.24C374.382 69.832 374.222 70.56 374.222 71.424V78H372.302V70.512C372.302 69.424 372.03 68.64 371.486 68.16C370.942 67.68 370.27 67.44 369.47 67.44C368.942 67.44 368.398 67.584 367.838 67.872C367.294 68.144 366.838 68.584 366.47 69.192C366.102 69.8 365.918 70.6 365.918 71.592V78H363.998ZM387.833 75.12C388.297 75.12 388.673 75.264 388.961 75.552C389.249 75.84 389.393 76.216 389.393 76.68C389.393 77.144 389.249 77.52 388.961 77.808C388.673 78.096 388.297 78.24 387.833 78.24C387.369 78.24 386.993 78.096 386.705 77.808C386.417 77.52 386.273 77.144 386.273 76.68C386.273 76.216 386.417 75.84 386.705 75.552C386.993 75.264 387.369 75.12 387.833 75.12Z" fill="#333333"/>
</svg>
