<svg width="219" height="66" viewBox="0 0 219 66" fill="none" xmlns="http://www.w3.org/2000/svg">
<rect width="219" height="66" rx="16" fill="#050505"/>
<path d="M56.928 24.92C58.464 24.92 59.792 25.248 60.912 25.904C62.032 26.56 62.896 27.496 63.504 28.712C64.112 29.928 64.416 31.384 64.416 33.08C64.416 34.776 64.112 36.232 63.504 37.448C62.896 38.664 62.032 39.6 60.912 40.256C59.792 40.912 58.464 41.24 56.928 41.24C55.408 41.24 54.088 40.912 52.968 40.256C51.848 39.6 50.984 38.664 50.376 37.448C49.768 36.232 49.464 34.776 49.464 33.08C49.464 31.384 49.768 29.928 50.376 28.712C50.984 27.496 51.848 26.56 52.968 25.904C54.088 25.248 55.408 24.92 56.928 24.92ZM56.928 27.152C55.936 27.152 55.08 27.384 54.36 27.848C53.656 28.312 53.112 28.984 52.728 29.864C52.344 30.744 52.152 31.816 52.152 33.08C52.152 34.328 52.344 35.4 52.728 36.296C53.112 37.176 53.656 37.848 54.36 38.312C55.08 38.776 55.936 39.008 56.928 39.008C57.936 39.008 58.792 38.776 59.496 38.312C60.216 37.848 60.768 37.176 61.152 36.296C61.536 35.4 61.728 34.328 61.728 33.08C61.728 31.816 61.536 30.744 61.152 29.864C60.768 28.984 60.216 28.312 59.496 27.848C58.792 27.384 57.936 27.152 56.928 27.152ZM67.7811 41V29H69.9651L70.2051 31.16C70.5251 30.376 70.9971 29.784 71.6211 29.384C72.2611 28.968 73.0451 28.76 73.9731 28.76C74.2131 28.76 74.4531 28.784 74.6931 28.832C74.9331 28.864 75.1331 28.92 75.2931 29L74.9331 31.256C74.7571 31.192 74.5571 31.144 74.3331 31.112C74.1251 31.064 73.8371 31.04 73.4691 31.04C72.9731 31.04 72.4851 31.176 72.0051 31.448C71.5251 31.704 71.1251 32.096 70.8051 32.624C70.5011 33.152 70.3491 33.824 70.3491 34.64V41H67.7811ZM82.0219 41.24C81.0299 41.24 80.1259 40.992 79.3099 40.496C78.5099 40 77.8779 39.288 77.4139 38.36C76.9499 37.432 76.7179 36.32 76.7179 35.024C76.7179 33.68 76.9659 32.544 77.4619 31.616C77.9579 30.688 78.6219 29.984 79.4539 29.504C80.2859 29.008 81.1979 28.76 82.1899 28.76C83.2139 28.76 84.0779 29.04 84.7819 29.6C85.4859 30.16 85.9579 30.888 86.1979 31.784L85.9099 32.048V23.6H88.4779V41H86.1979L86.0059 37.736L86.3419 37.76C86.2299 38.48 85.9659 39.104 85.5499 39.632C85.1339 40.144 84.6139 40.544 83.9899 40.832C83.3819 41.104 82.7259 41.24 82.0219 41.24ZM82.5739 39.176C83.2619 39.176 83.8539 39 84.3499 38.648C84.8459 38.296 85.2299 37.8 85.5019 37.16C85.7739 36.52 85.9099 35.752 85.9099 34.856C85.9099 34.024 85.7739 33.312 85.5019 32.72C85.2299 32.112 84.8459 31.648 84.3499 31.328C83.8699 31.008 83.3099 30.848 82.6699 30.848C81.5979 30.848 80.7659 31.216 80.1739 31.952C79.5819 32.688 79.2859 33.704 79.2859 35C79.2859 36.296 79.5739 37.32 80.1499 38.072C80.7259 38.808 81.5339 39.176 82.5739 39.176ZM97.7408 41.24C96.5408 41.24 95.4848 40.992 94.5728 40.496C93.6608 40 92.9488 39.288 92.4368 38.36C91.9408 37.416 91.6928 36.296 91.6928 35C91.6928 33.704 91.9408 32.592 92.4368 31.664C92.9488 30.72 93.6528 30 94.5488 29.504C95.4448 29.008 96.4608 28.76 97.5968 28.76C98.7648 28.76 99.7568 29 100.573 29.48C101.389 29.96 102.013 30.616 102.445 31.448C102.877 32.28 103.093 33.224 103.093 34.28C103.093 34.568 103.085 34.84 103.069 35.096C103.053 35.352 103.029 35.576 102.997 35.768H93.3488V33.8H101.869L100.597 34.184C100.597 33.096 100.325 32.264 99.7808 31.688C99.2368 31.096 98.4928 30.8 97.5488 30.8C96.8608 30.8 96.2608 30.96 95.7488 31.28C95.2368 31.6 94.8448 32.08 94.5728 32.72C94.3008 33.344 94.1648 34.112 94.1648 35.024C94.1648 35.92 94.3088 36.68 94.5968 37.304C94.8848 37.928 95.2928 38.4 95.8208 38.72C96.3488 39.04 96.9728 39.2 97.6928 39.2C98.4928 39.2 99.1408 39.048 99.6368 38.744C100.133 38.44 100.525 38.016 100.813 37.472L102.853 38.432C102.565 39.008 102.173 39.512 101.677 39.944C101.197 40.36 100.621 40.68 99.9488 40.904C99.2768 41.128 98.5408 41.24 97.7408 41.24ZM106.336 41V29H108.52L108.76 31.16C109.08 30.376 109.552 29.784 110.176 29.384C110.816 28.968 111.6 28.76 112.528 28.76C112.768 28.76 113.008 28.784 113.248 28.832C113.488 28.864 113.688 28.92 113.848 29L113.488 31.256C113.312 31.192 113.112 31.144 112.888 31.112C112.68 31.064 112.392 31.04 112.024 31.04C111.528 31.04 111.04 31.176 110.56 31.448C110.08 31.704 109.68 32.096 109.36 32.624C109.056 33.152 108.904 33.824 108.904 34.64V41H106.336ZM123.562 41V29H125.842L126.01 32.12L125.674 31.784C125.898 31.096 126.218 30.528 126.634 30.08C127.066 29.616 127.57 29.28 128.146 29.072C128.738 28.864 129.362 28.76 130.018 28.76C130.866 28.76 131.626 28.928 132.298 29.264C132.986 29.584 133.53 30.072 133.93 30.728C134.33 31.384 134.53 32.216 134.53 33.224V41H131.962V34.016C131.962 32.832 131.714 32.016 131.218 31.568C130.738 31.104 130.13 30.872 129.394 30.872C128.866 30.872 128.354 31 127.858 31.256C127.362 31.496 126.946 31.888 126.61 32.432C126.29 32.976 126.13 33.704 126.13 34.616V41H123.562ZM143.63 28.76C144.798 28.76 145.83 29.008 146.726 29.504C147.622 30 148.318 30.72 148.814 31.664C149.326 32.592 149.582 33.704 149.582 35C149.582 36.296 149.326 37.416 148.814 38.36C148.318 39.288 147.622 40 146.726 40.496C145.83 40.992 144.798 41.24 143.63 41.24C142.462 41.24 141.43 40.992 140.534 40.496C139.638 40 138.934 39.288 138.422 38.36C137.91 37.416 137.654 36.296 137.654 35C137.654 33.704 137.91 32.592 138.422 31.664C138.934 30.72 139.638 30 140.534 29.504C141.43 29.008 142.462 28.76 143.63 28.76ZM143.63 30.776C142.91 30.776 142.294 30.944 141.782 31.28C141.286 31.6 140.902 32.072 140.63 32.696C140.358 33.32 140.222 34.088 140.222 35C140.222 35.896 140.358 36.664 140.63 37.304C140.902 37.928 141.286 38.408 141.782 38.744C142.294 39.064 142.91 39.224 143.63 39.224C144.35 39.224 144.958 39.064 145.454 38.744C145.95 38.408 146.334 37.928 146.606 37.304C146.878 36.664 147.014 35.896 147.014 35C147.014 34.088 146.878 33.32 146.606 32.696C146.334 32.072 145.95 31.6 145.454 31.28C144.958 30.944 144.35 30.776 143.63 30.776ZM167.725 29H170.509L166.477 41H163.669L160.645 32.096L157.789 41H154.981L150.973 29H153.733L156.469 38.48L159.445 29H162.013L164.989 38.48L167.725 29Z" fill="white"/>
</svg>
