<svg width="254" height="66" viewBox="0 0 254 66" fill="none" xmlns="http://www.w3.org/2000/svg">
<rect x="0.5" y="0.5" width="253" height="65" rx="15.5" stroke="#333333"/>
<path d="M50.352 41V25.16H61.824V27.368H52.92V31.928H59.88V34.088H52.92V38.792H62.16V41H50.352ZM67.1218 29L70.5058 34.136L70.9858 34.208L75.8578 41H72.8098L69.2818 35.72L68.7298 35.528L64.0258 29H67.1218ZM75.7858 29L71.0818 35.432L70.5538 35.408L66.7138 41H63.7858L68.8978 34.16L69.4018 34.208L72.8338 29H75.7858ZM78.4451 46.04V29H80.7251L80.9171 32.36L80.5811 31.952C80.7731 31.328 81.0691 30.776 81.4691 30.296C81.8691 29.816 82.3651 29.44 82.9571 29.168C83.5651 28.896 84.2291 28.76 84.9491 28.76C85.9251 28.76 86.8131 29.008 87.6131 29.504C88.4131 30 89.0451 30.712 89.5091 31.64C89.9731 32.552 90.2051 33.664 90.2051 34.976C90.2051 36.288 89.9651 37.416 89.4851 38.36C89.0211 39.288 88.3811 40 87.5651 40.496C86.7651 40.992 85.8691 41.24 84.8771 41.24C83.8531 41.24 82.9811 40.976 82.2611 40.448C81.5411 39.904 81.0291 39.216 80.7251 38.384L81.0131 37.976V46.04H78.4451ZM84.3251 39.152C85.3651 39.152 86.1731 38.784 86.7491 38.048C87.3411 37.312 87.6371 36.296 87.6371 35C87.6371 33.704 87.3491 32.688 86.7731 31.952C86.1971 31.2 85.3971 30.824 84.3731 30.824C83.7011 30.824 83.1091 31 82.5971 31.352C82.1011 31.688 81.7091 32.168 81.4211 32.792C81.1491 33.4 81.0131 34.136 81.0131 35C81.0131 35.848 81.1491 36.584 81.4211 37.208C81.6931 37.832 82.0771 38.312 82.5731 38.648C83.0691 38.984 83.6531 39.152 84.3251 39.152ZM95.988 23.6V37.64C95.988 38.232 96.092 38.64 96.3 38.864C96.508 39.088 96.852 39.2 97.332 39.2C97.62 39.2 97.86 39.184 98.052 39.152C98.26 39.104 98.516 39.024 98.82 38.912L98.532 40.832C98.26 40.96 97.948 41.056 97.596 41.12C97.244 41.2 96.892 41.24 96.54 41.24C95.468 41.24 94.676 40.968 94.164 40.424C93.668 39.864 93.42 39.008 93.42 37.856V23.6H95.988ZM106.177 28.76C107.345 28.76 108.377 29.008 109.273 29.504C110.169 30 110.865 30.72 111.361 31.664C111.873 32.592 112.129 33.704 112.129 35C112.129 36.296 111.873 37.416 111.361 38.36C110.865 39.288 110.169 40 109.273 40.496C108.377 40.992 107.345 41.24 106.177 41.24C105.009 41.24 103.977 40.992 103.081 40.496C102.185 40 101.481 39.288 100.969 38.36C100.457 37.416 100.201 36.296 100.201 35C100.201 33.704 100.457 32.592 100.969 31.664C101.481 30.72 102.185 30 103.081 29.504C103.977 29.008 105.009 28.76 106.177 28.76ZM106.177 30.776C105.457 30.776 104.841 30.944 104.329 31.28C103.833 31.6 103.449 32.072 103.177 32.696C102.905 33.32 102.769 34.088 102.769 35C102.769 35.896 102.905 36.664 103.177 37.304C103.449 37.928 103.833 38.408 104.329 38.744C104.841 39.064 105.457 39.224 106.177 39.224C106.897 39.224 107.505 39.064 108.001 38.744C108.497 38.408 108.881 37.928 109.153 37.304C109.425 36.664 109.561 35.896 109.561 35C109.561 34.088 109.425 33.32 109.153 32.696C108.881 32.072 108.497 31.6 108.001 31.28C107.505 30.944 106.897 30.776 106.177 30.776ZM115.359 41V29H117.543L117.783 31.16C118.103 30.376 118.575 29.784 119.199 29.384C119.839 28.968 120.623 28.76 121.551 28.76C121.791 28.76 122.031 28.784 122.271 28.832C122.511 28.864 122.711 28.92 122.871 29L122.511 31.256C122.335 31.192 122.135 31.144 121.911 31.112C121.703 31.064 121.415 31.04 121.047 31.04C120.551 31.04 120.063 31.176 119.583 31.448C119.103 31.704 118.703 32.096 118.383 32.624C118.079 33.152 117.927 33.824 117.927 34.64V41H115.359ZM130.272 41.24C129.072 41.24 128.016 40.992 127.104 40.496C126.192 40 125.48 39.288 124.968 38.36C124.472 37.416 124.224 36.296 124.224 35C124.224 33.704 124.472 32.592 124.968 31.664C125.48 30.72 126.184 30 127.08 29.504C127.976 29.008 128.992 28.76 130.128 28.76C131.296 28.76 132.288 29 133.104 29.48C133.92 29.96 134.544 30.616 134.976 31.448C135.408 32.28 135.624 33.224 135.624 34.28C135.624 34.568 135.616 34.84 135.6 35.096C135.584 35.352 135.56 35.576 135.528 35.768H125.88V33.8H134.4L133.128 34.184C133.128 33.096 132.856 32.264 132.312 31.688C131.768 31.096 131.024 30.8 130.08 30.8C129.392 30.8 128.792 30.96 128.28 31.28C127.768 31.6 127.376 32.08 127.104 32.72C126.832 33.344 126.696 34.112 126.696 35.024C126.696 35.92 126.84 36.68 127.128 37.304C127.416 37.928 127.824 38.4 128.352 38.72C128.88 39.04 129.504 39.2 130.224 39.2C131.024 39.2 131.672 39.048 132.168 38.744C132.664 38.44 133.056 38.016 133.344 37.472L135.384 38.432C135.096 39.008 134.704 39.512 134.208 39.944C133.728 40.36 133.152 40.68 132.48 40.904C131.808 41.128 131.072 41.24 130.272 41.24ZM146.672 41V29H148.952L149.072 31.016C149.488 30.248 150.04 29.68 150.728 29.312C151.432 28.944 152.176 28.76 152.96 28.76C153.824 28.76 154.616 28.96 155.336 29.36C156.072 29.744 156.624 30.328 156.992 31.112C157.248 30.584 157.6 30.144 158.048 29.792C158.496 29.44 158.992 29.184 159.536 29.024C160.08 28.848 160.616 28.76 161.144 28.76C161.912 28.76 162.632 28.92 163.304 29.24C163.976 29.56 164.52 30.048 164.936 30.704C165.352 31.36 165.56 32.2 165.56 33.224V41H162.992V33.632C162.992 32.656 162.76 31.952 162.296 31.52C161.832 31.088 161.24 30.872 160.52 30.872C159.96 30.872 159.44 31.008 158.96 31.28C158.496 31.552 158.12 31.96 157.832 32.504C157.544 33.032 157.4 33.688 157.4 34.472V41H154.832V33.632C154.832 32.656 154.6 31.952 154.136 31.52C153.672 31.088 153.08 30.872 152.36 30.872C151.88 30.872 151.4 31 150.92 31.256C150.44 31.512 150.04 31.912 149.72 32.456C149.4 33 149.24 33.72 149.24 34.616V41H146.672ZM174.661 28.76C175.829 28.76 176.861 29.008 177.757 29.504C178.653 30 179.349 30.72 179.845 31.664C180.357 32.592 180.613 33.704 180.613 35C180.613 36.296 180.357 37.416 179.845 38.36C179.349 39.288 178.653 40 177.757 40.496C176.861 40.992 175.829 41.24 174.661 41.24C173.493 41.24 172.461 40.992 171.565 40.496C170.669 40 169.965 39.288 169.453 38.36C168.941 37.416 168.685 36.296 168.685 35C168.685 33.704 168.941 32.592 169.453 31.664C169.965 30.72 170.669 30 171.565 29.504C172.461 29.008 173.493 28.76 174.661 28.76ZM174.661 30.776C173.941 30.776 173.325 30.944 172.813 31.28C172.317 31.6 171.933 32.072 171.661 32.696C171.389 33.32 171.253 34.088 171.253 35C171.253 35.896 171.389 36.664 171.661 37.304C171.933 37.928 172.317 38.408 172.813 38.744C173.325 39.064 173.941 39.224 174.661 39.224C175.381 39.224 175.989 39.064 176.485 38.744C176.981 38.408 177.365 37.928 177.637 37.304C177.909 36.664 178.045 35.896 178.045 35C178.045 34.088 177.909 33.32 177.637 32.696C177.365 32.072 176.981 31.6 176.485 31.28C175.989 30.944 175.381 30.776 174.661 30.776ZM183.844 41V29H186.028L186.268 31.16C186.588 30.376 187.06 29.784 187.684 29.384C188.324 28.968 189.108 28.76 190.036 28.76C190.276 28.76 190.516 28.784 190.756 28.832C190.996 28.864 191.196 28.92 191.356 29L190.996 31.256C190.82 31.192 190.62 31.144 190.396 31.112C190.188 31.064 189.9 31.04 189.532 31.04C189.036 31.04 188.548 31.176 188.068 31.448C187.588 31.704 187.188 32.096 186.868 32.624C186.564 33.152 186.412 33.824 186.412 34.64V41H183.844ZM198.756 41.24C197.556 41.24 196.5 40.992 195.588 40.496C194.676 40 193.964 39.288 193.452 38.36C192.956 37.416 192.708 36.296 192.708 35C192.708 33.704 192.956 32.592 193.452 31.664C193.964 30.72 194.668 30 195.564 29.504C196.46 29.008 197.476 28.76 198.612 28.76C199.78 28.76 200.772 29 201.588 29.48C202.404 29.96 203.028 30.616 203.46 31.448C203.892 32.28 204.108 33.224 204.108 34.28C204.108 34.568 204.1 34.84 204.084 35.096C204.068 35.352 204.044 35.576 204.012 35.768H194.364V33.8H202.884L201.612 34.184C201.612 33.096 201.34 32.264 200.796 31.688C200.252 31.096 199.508 30.8 198.564 30.8C197.876 30.8 197.276 30.96 196.764 31.28C196.252 31.6 195.86 32.08 195.588 32.72C195.316 33.344 195.18 34.112 195.18 35.024C195.18 35.92 195.324 36.68 195.612 37.304C195.9 37.928 196.308 38.4 196.836 38.72C197.364 39.04 197.988 39.2 198.708 39.2C199.508 39.2 200.156 39.048 200.652 38.744C201.148 38.44 201.54 38.016 201.828 37.472L203.868 38.432C203.58 39.008 203.188 39.512 202.692 39.944C202.212 40.36 201.636 40.68 200.964 40.904C200.292 41.128 199.556 41.24 198.756 41.24Z" fill="#333333"/>
</svg>
