<svg width="615" height="224" viewBox="0 0 615 224" fill="none" xmlns="http://www.w3.org/2000/svg">
<path d="M42.088 5.688C41.9173 7.864 41.7893 9.95467 41.704 11.96C41.6613 13.9653 41.64 15.5013 41.64 16.568C41.64 17.5067 41.6613 18.4027 41.704 19.256C41.7467 20.1093 41.7893 20.8347 41.832 21.432H40.36C39.6773 17.848 38.8027 15.0107 37.736 12.92C36.712 10.8293 35.4747 9.35733 34.024 8.504C32.5733 7.608 30.8667 7.16 28.904 7.16H27.432V43.704C27.432 45.4107 27.6027 46.6907 27.944 47.544C28.328 48.3973 29.0107 48.9733 29.992 49.272C30.9733 49.528 32.4027 49.6773 34.28 49.72V51C32.9573 50.9573 31.1867 50.9147 28.968 50.872C26.792 50.8293 24.5093 50.808 22.12 50.808C19.7733 50.808 17.5547 50.8293 15.464 50.872C13.3733 50.9147 11.688 50.9573 10.408 51V49.72C12.328 49.6773 13.7787 49.528 14.76 49.272C15.7413 48.9733 16.4027 48.3973 16.744 47.544C17.0853 46.6907 17.256 45.4107 17.256 43.704V7.16H15.848C13.8853 7.16 12.1787 7.608 10.728 8.504C9.27733 9.35733 8.04 10.8293 7.016 12.92C5.992 14.968 5.096 17.8053 4.328 21.432H2.856C2.94133 20.8347 2.984 20.1093 2.984 19.256C3.02667 18.4027 3.048 17.5067 3.048 16.568C3.048 15.5013 3.00533 13.9653 2.92 11.96C2.87733 9.95467 2.77067 7.864 2.6 5.688C4.56267 5.73067 6.696 5.77333 9 5.816C11.3467 5.85866 13.6933 5.88 16.04 5.88C18.3867 5.88 20.4987 5.88 22.376 5.88C24.296 5.88 26.408 5.88 28.712 5.88C31.0587 5.88 33.4053 5.85866 35.752 5.816C38.0987 5.77333 40.2107 5.73067 42.088 5.688ZM73.062 51V49.72C74.4273 49.6347 75.4513 49.464 76.134 49.208C76.8167 48.952 77.2647 48.44 77.478 47.672C77.734 46.904 77.862 45.752 77.862 44.216V12.472C77.862 10.8933 77.734 9.74133 77.478 9.016C77.2647 8.248 76.7953 7.736 76.07 7.48C75.3873 7.18133 74.3847 7.01066 73.062 6.968V5.688C74.214 5.73067 75.7073 5.77333 77.542 5.816C79.4193 5.85866 81.2753 5.88 83.11 5.88C85.0727 5.88 86.9073 5.85866 88.614 5.816C90.3633 5.77333 91.7713 5.73067 92.838 5.688V6.968C91.4727 7.01066 90.4273 7.18133 89.702 7.48C89.0193 7.736 88.5713 8.248 88.358 9.016C88.1447 9.74133 88.038 10.8933 88.038 12.472V44.216C88.038 45.752 88.1447 46.904 88.358 47.672C88.614 48.44 89.0833 48.952 89.766 49.208C90.4487 49.464 91.4727 49.6347 92.838 49.72V51C91.7713 50.9147 90.3633 50.872 88.614 50.872C86.9073 50.8293 85.0727 50.808 83.11 50.808C81.2753 50.808 79.4193 50.8293 77.542 50.872C75.7073 50.872 74.214 50.9147 73.062 51ZM45.926 51V49.72C47.2913 49.6347 48.3153 49.464 48.998 49.208C49.6807 48.952 50.1287 48.44 50.342 47.672C50.598 46.904 50.726 45.752 50.726 44.216V12.472C50.726 10.8933 50.598 9.74133 50.342 9.016C50.1287 8.248 49.6593 7.736 48.934 7.48C48.2513 7.18133 47.2487 7.01066 45.926 6.968V5.688C47.0353 5.73067 48.4647 5.77333 50.214 5.816C52.006 5.85866 53.9473 5.88 56.038 5.88C57.83 5.88 59.6007 5.85866 61.35 5.816C63.0993 5.77333 64.55 5.73067 65.702 5.688V6.968C64.3367 7.01066 63.2913 7.18133 62.566 7.48C61.8833 7.736 61.4353 8.248 61.222 9.016C61.0087 9.74133 60.902 10.8933 60.902 12.472V44.216C60.902 45.752 61.0087 46.904 61.222 47.672C61.478 48.44 61.9473 48.952 62.63 49.208C63.3127 49.464 64.3367 49.6347 65.702 49.72V51C64.55 50.9147 63.0993 50.872 61.35 50.872C59.6007 50.8293 57.83 50.808 56.038 50.808C53.9473 50.808 52.006 50.8293 50.214 50.872C48.4647 50.872 47.0353 50.9147 45.926 51ZM56.742 28.856V27.576H82.022V28.856H56.742ZM131.354 5.688C131.183 7.56533 131.055 9.37866 130.97 11.128C130.927 12.8773 130.906 14.2213 130.906 15.16C130.906 16.0133 130.927 16.824 130.97 17.592C131.012 18.36 131.055 19 131.097 19.512H129.626C129.199 16.3973 128.538 13.944 127.642 12.152C126.746 10.3173 125.572 9.03733 124.122 8.312C122.714 7.544 121.05 7.16 119.13 7.16H116.506C115.268 7.16 114.33 7.26666 113.69 7.48C113.05 7.69333 112.623 8.12 112.41 8.76C112.196 9.4 112.09 10.3813 112.09 11.704V44.984C112.09 46.3067 112.196 47.288 112.41 47.928C112.623 48.568 113.05 48.9947 113.69 49.208C114.33 49.4213 115.268 49.528 116.506 49.528H119.642C121.562 49.528 123.247 49.1227 124.698 48.312C126.191 47.4587 127.45 46.0293 128.474 44.024C129.54 42.0187 130.351 39.3093 130.906 35.896H132.378C132.25 37.2613 132.186 39.0533 132.186 41.272C132.186 42.2533 132.207 43.64 132.25 45.432C132.292 47.224 132.42 49.08 132.634 51C130.458 50.9147 128.004 50.872 125.274 50.872C122.543 50.8293 120.111 50.808 117.978 50.808C116.911 50.808 115.546 50.808 113.882 50.808C112.218 50.808 110.426 50.8293 108.506 50.872C106.586 50.872 104.644 50.8933 102.682 50.936C100.719 50.936 98.8628 50.9573 97.1135 51V49.72C98.4788 49.6347 99.5028 49.464 100.186 49.208C100.868 48.952 101.316 48.44 101.53 47.672C101.786 46.904 101.914 45.752 101.914 44.216V12.472C101.914 10.8933 101.786 9.74133 101.53 9.016C101.316 8.248 100.847 7.736 100.122 7.48C99.4388 7.18133 98.4362 7.01066 97.1135 6.968V5.688C98.8628 5.73067 100.719 5.77333 102.682 5.816C104.644 5.816 106.586 5.83733 108.506 5.88C110.426 5.88 112.218 5.88 113.882 5.88C115.546 5.88 116.911 5.88 117.978 5.88C119.94 5.88 122.159 5.88 124.634 5.88C127.151 5.83733 129.391 5.77333 131.354 5.688ZM121.37 27.576C121.37 27.576 121.37 27.7893 121.37 28.216C121.37 28.6427 121.37 28.856 121.37 28.856H110.17C110.17 28.856 110.17 28.6427 110.17 28.216C110.17 27.7893 110.17 27.576 110.17 27.576H121.37ZM123.226 19.128C123.055 21.56 122.97 23.416 122.97 24.696C123.012 25.976 123.034 27.1493 123.034 28.216C123.034 29.2827 123.055 30.456 123.098 31.736C123.14 33.016 123.247 34.872 123.418 37.304H121.946C121.732 35.8107 121.327 34.424 120.73 33.144C120.175 31.864 119.364 30.84 118.298 30.072C117.231 29.2613 115.844 28.856 114.138 28.856V27.576C115.418 27.576 116.506 27.32 117.402 26.808C118.298 26.2533 119.023 25.5493 119.578 24.696C120.175 23.8 120.644 22.8613 120.986 21.88C121.327 20.8987 121.583 19.9813 121.754 19.128H123.226ZM168.486 17.016C172.24 17.016 175.184 18.1253 177.318 20.344C179.451 22.5627 180.518 26.1893 180.518 31.224H159.462L159.334 30.008H172.454C172.496 27.9173 172.368 25.9973 172.07 24.248C171.771 22.456 171.302 21.0267 170.662 19.96C170.022 18.8933 169.168 18.36 168.102 18.36C166.608 18.36 165.328 19.2987 164.262 21.176C163.238 23.0533 162.619 26.168 162.406 30.52L162.598 30.904C162.555 31.416 162.512 31.9493 162.47 32.504C162.47 33.0587 162.47 33.6347 162.47 34.232C162.47 37.176 162.875 39.5653 163.686 41.4C164.539 43.2347 165.606 44.5787 166.885 45.432C168.166 46.2427 169.467 46.648 170.79 46.648C171.686 46.648 172.603 46.52 173.542 46.264C174.523 45.9653 175.504 45.4533 176.486 44.728C177.467 43.96 178.384 42.8933 179.238 41.528L180.39 41.912C179.878 43.5333 179.067 45.112 177.958 46.648C176.848 48.184 175.44 49.4427 173.734 50.424C172.027 51.4053 169.979 51.896 167.59 51.896C164.688 51.896 162.128 51.2773 159.91 50.04C157.691 48.8027 155.942 46.9253 154.661 44.408C153.424 41.8907 152.806 38.6907 152.806 34.808C152.806 30.84 153.467 27.5333 154.79 24.888C156.155 22.2427 158.011 20.28 160.358 19C162.747 17.6773 165.456 17.016 168.486 17.016ZM241.899 5.688V6.968C240.96 7.30933 239.979 8.056 238.955 9.208C237.931 10.3173 237.035 12.1093 236.267 14.584L225.003 51.128C224.661 51.0853 224.299 51.064 223.915 51.064C223.531 51.064 223.147 51.064 222.763 51.064C222.379 51.064 221.995 51.064 221.611 51.064C221.227 51.064 220.864 51.0853 220.523 51.128L207.083 10.424C206.656 9.10133 206.123 8.20533 205.483 7.736C204.885 7.26666 204.245 7.01066 203.563 6.968V5.688C204.757 5.73067 206.165 5.77333 207.787 5.816C209.451 5.85866 211.093 5.88 212.715 5.88C214.592 5.88 216.341 5.85866 217.963 5.816C219.627 5.77333 220.949 5.73067 221.931 5.688V6.968C220.651 7.01066 219.627 7.16 218.859 7.416C218.133 7.672 217.707 8.16267 217.579 8.888C217.493 9.61333 217.707 10.7653 218.219 12.344L227.307 40.12L225.835 42.744L233.067 19.768C234.091 16.5253 234.581 13.9867 234.539 12.152C234.496 10.3173 234.005 9.016 233.067 8.248C232.128 7.43733 230.784 7.01066 229.035 6.968V5.688C230.485 5.73067 231.851 5.77333 233.131 5.816C234.411 5.85866 235.691 5.88 236.971 5.88C237.952 5.88 238.848 5.85866 239.659 5.816C240.512 5.77333 241.259 5.73067 241.899 5.688ZM196.203 5.688V6.968C195.349 7.096 194.752 7.416 194.411 7.928C194.069 8.39733 193.92 9.03733 193.963 9.848C194.048 10.616 194.24 11.448 194.539 12.344L204.331 40.76L202.603 43.064L210.795 19.128L211.691 20.856L201.643 51.128C201.301 51.0853 200.939 51.064 200.555 51.064C200.171 51.064 199.787 51.064 199.403 51.064C199.019 51.064 198.635 51.064 198.251 51.064C197.867 51.064 197.504 51.0853 197.163 51.128L182.827 11.064C182.272 9.48533 181.611 8.41867 180.843 7.864C180.117 7.30933 179.434 7.01066 178.794 6.968V5.688C180.075 5.73067 181.589 5.77333 183.339 5.816C185.088 5.85866 186.752 5.88 188.331 5.88C190.037 5.88 191.552 5.85866 192.875 5.816C194.24 5.77333 195.349 5.73067 196.203 5.688ZM247.556 51.448C245.636 51.448 244.036 51.0853 242.756 50.36C241.476 49.6347 240.537 48.6747 239.94 47.48C239.342 46.2427 239.044 44.8987 239.044 43.448C239.044 41.6133 239.449 40.12 240.26 38.968C241.113 37.816 242.201 36.8773 243.524 36.152C244.846 35.4267 246.233 34.8293 247.684 34.36C249.177 33.8907 250.585 33.4427 251.908 33.016C253.273 32.5467 254.361 32.0133 255.172 31.416C256.025 30.776 256.452 29.9653 256.452 28.984V23.992C256.452 22.8827 256.26 21.9013 255.876 21.048C255.534 20.152 254.98 19.4693 254.212 19C253.486 18.5307 252.526 18.296 251.332 18.296C250.478 18.296 249.625 18.424 248.772 18.68C247.918 18.8933 247.214 19.2773 246.66 19.832C247.854 20.2587 248.772 20.92 249.412 21.816C250.094 22.6693 250.436 23.6507 250.436 24.76C250.436 26.2107 249.924 27.3627 248.9 28.216C247.918 29.0693 246.745 29.496 245.38 29.496C243.844 29.496 242.67 29.0267 241.86 28.088C241.092 27.1067 240.708 25.9333 240.708 24.568C240.708 23.3307 241.006 22.3067 241.604 21.496C242.244 20.6853 243.118 19.9173 244.228 19.192C245.422 18.5093 246.852 17.976 248.516 17.592C250.222 17.208 252.057 17.016 254.02 17.016C255.982 17.016 257.753 17.2293 259.332 17.656C260.91 18.04 262.233 18.7653 263.3 19.832C264.281 20.8133 264.921 22.0293 265.22 23.48C265.518 24.888 265.668 26.68 265.668 28.856V46.264C265.668 47.3307 265.774 48.0773 265.988 48.504C266.201 48.888 266.564 49.08 267.076 49.08C267.46 49.08 267.822 48.9733 268.164 48.76C268.548 48.5467 268.953 48.2907 269.38 47.992L270.02 49.08C269.124 49.848 268.078 50.4453 266.884 50.872C265.732 51.256 264.43 51.448 262.98 51.448C261.401 51.448 260.142 51.2347 259.204 50.808C258.265 50.3387 257.582 49.72 257.156 48.952C256.772 48.184 256.58 47.288 256.58 46.264C255.556 47.8853 254.318 49.1653 252.868 50.104C251.417 51 249.646 51.448 247.556 51.448ZM252.1 47.352C252.953 47.352 253.721 47.16 254.404 46.776C255.129 46.3493 255.812 45.6667 256.452 44.728V31.608C256.068 32.248 255.534 32.824 254.852 33.336C254.169 33.848 253.444 34.3813 252.676 34.936C251.908 35.448 251.161 36.024 250.436 36.664C249.753 37.304 249.198 38.0933 248.772 39.032C248.345 39.9707 248.132 41.1013 248.132 42.424C248.132 44.088 248.494 45.3253 249.22 46.136C249.945 46.9467 250.905 47.352 252.1 47.352ZM284.841 7.416V17.912H292.393V19.192H284.841V45.048C284.841 46.328 285.075 47.2453 285.545 47.8C286.014 48.312 286.718 48.568 287.657 48.568C288.425 48.568 289.193 48.2907 289.961 47.736C290.729 47.1387 291.411 46.136 292.009 44.728L293.097 45.304C292.414 47.224 291.369 48.8027 289.961 50.04C288.595 51.2773 286.718 51.896 284.329 51.896C282.921 51.896 281.683 51.704 280.617 51.32C279.55 50.9787 278.654 50.4453 277.929 49.72C276.99 48.7813 276.371 47.6293 276.073 46.264C275.774 44.856 275.625 43.0427 275.625 40.824V19.192H270.248V17.912H275.625V9.464C277.417 9.464 279.059 9.31466 280.553 9.016C282.089 8.67466 283.518 8.14133 284.841 7.416ZM310.739 17.016C312.403 17.016 313.917 17.208 315.283 17.592C316.691 17.9333 317.843 18.3813 318.739 18.936C319.848 19.6187 320.701 20.472 321.299 21.496C321.939 22.4773 322.259 23.6293 322.259 24.952C322.259 26.4453 321.789 27.6827 320.851 28.664C319.912 29.6027 318.696 30.072 317.203 30.072C315.709 30.072 314.515 29.6453 313.619 28.792C312.723 27.9387 312.275 26.7867 312.275 25.336C312.275 23.9707 312.701 22.84 313.555 21.944C314.408 21.0053 315.389 20.3867 316.499 20.088C316.157 19.6613 315.645 19.2987 314.963 19C314.28 18.7013 313.512 18.552 312.659 18.552C311.336 18.552 310.163 18.936 309.139 19.704C308.157 20.472 307.325 21.5387 306.643 22.904C305.96 24.2693 305.427 25.8693 305.043 27.704C304.701 29.5387 304.531 31.544 304.531 33.72C304.531 37.0053 304.936 39.5867 305.747 41.464C306.6 43.3413 307.667 44.664 308.947 45.432C310.269 46.2 311.635 46.584 313.043 46.584C313.853 46.584 314.728 46.456 315.667 46.2C316.648 45.944 317.629 45.432 318.611 44.664C319.635 43.896 320.573 42.808 321.427 41.4L322.515 41.784C322.045 43.3627 321.277 44.9413 320.211 46.52C319.144 48.0987 317.757 49.4 316.051 50.424C314.344 51.4053 312.253 51.896 309.779 51.896C307.005 51.896 304.488 51.2987 302.227 50.104C300.008 48.8667 298.216 46.9893 296.851 44.472C295.528 41.912 294.867 38.6267 294.867 34.616C294.867 30.776 295.549 27.5547 296.915 24.952C298.323 22.3067 300.221 20.3227 302.611 19C305 17.6773 307.709 17.016 310.739 17.016ZM338.841 0.951996V22.968C339.907 20.7493 341.337 19.2133 343.128 18.36C344.963 17.464 347.011 17.016 349.273 17.016C351.107 17.016 352.579 17.2507 353.689 17.72C354.798 18.1467 355.673 18.744 356.312 19.512C357.038 20.3227 357.55 21.368 357.849 22.648C358.19 23.928 358.361 25.656 358.361 27.832V45.048C358.361 46.84 358.659 48.056 359.257 48.696C359.897 49.336 360.963 49.656 362.457 49.656V51C361.646 50.9573 360.409 50.9147 358.745 50.872C357.123 50.7867 355.545 50.744 354.009 50.744C352.345 50.744 350.723 50.7867 349.145 50.872C347.609 50.9147 346.457 50.9573 345.689 51V49.656C346.969 49.656 347.865 49.336 348.377 48.696C348.889 48.056 349.145 46.84 349.145 45.048V25.144C349.145 24.0773 349.038 23.16 348.825 22.392C348.611 21.5813 348.206 20.9627 347.609 20.536C347.054 20.0667 346.243 19.832 345.177 19.832C344.025 19.832 342.958 20.152 341.977 20.792C341.038 21.3893 340.27 22.2427 339.673 23.352C339.118 24.4613 338.841 25.7413 338.841 27.192V45.048C338.841 46.84 339.097 48.056 339.609 48.696C340.121 49.336 341.017 49.656 342.297 49.656V51C341.529 50.9573 340.398 50.9147 338.905 50.872C337.411 50.7867 335.897 50.744 334.361 50.744C332.697 50.744 331.011 50.7867 329.305 50.872C327.641 50.9147 326.382 50.9573 325.529 51V49.656C327.022 49.656 328.067 49.336 328.665 48.696C329.305 48.056 329.625 46.84 329.625 45.048V8.632C329.625 6.712 329.326 5.304 328.729 4.408C328.174 3.46933 327.107 3 325.529 3V1.656C326.894 1.784 328.217 1.848 329.497 1.848C331.246 1.848 332.91 1.784 334.489 1.656C336.067 1.48533 337.518 1.25066 338.841 0.951996ZM393.335 17.912V19.256C392.396 19.256 391.564 19.32 390.839 19.448C390.156 19.5333 389.687 19.832 389.431 20.344C389.218 20.856 389.303 21.688 389.687 22.84L395.767 41.848L394.935 42.744L402.423 17.848L403.703 18.424L393.911 51.128C393.228 51.0853 392.546 51.064 391.863 51.064C391.18 51.064 390.476 51.0853 389.751 51.128L379.639 22.84C379.042 21.1333 378.38 20.1093 377.655 19.768C376.972 19.4267 376.396 19.256 375.927 19.256V17.912C377.292 18.04 378.7 18.1467 380.151 18.232C381.644 18.2747 383.266 18.296 385.015 18.296C386.338 18.296 387.724 18.2533 389.175 18.168C390.668 18.0827 392.055 17.9973 393.335 17.912ZM426.743 17.912V19.192C425.932 19.4053 425.164 19.896 424.439 20.664C423.714 21.432 423.031 22.776 422.391 24.696L413.879 51.128C413.196 51.0853 412.492 51.064 411.767 51.064C411.084 51.064 410.402 51.0853 409.719 51.128L400.695 26.488L402.423 17.848C403.191 17.8907 403.959 17.912 404.727 17.912C405.538 17.8693 406.327 17.848 407.095 17.848L415.863 43.704L415.159 43L419.447 29.432C420.172 27.0853 420.45 25.1867 420.279 23.736C420.108 22.2853 419.596 21.1973 418.743 20.472C417.89 19.7467 416.738 19.32 415.287 19.192V17.912C415.97 17.9547 416.695 17.9973 417.463 18.04C418.274 18.04 419.063 18.0613 419.831 18.104C420.642 18.104 421.324 18.104 421.879 18.104C422.732 18.104 423.607 18.0827 424.503 18.04C425.442 17.9973 426.188 17.9547 426.743 17.912ZM436.606 1.4C438.398 1.4 439.806 1.848 440.83 2.744C441.897 3.59733 442.43 4.792 442.43 6.328C442.43 7.864 441.897 9.08 440.83 9.976C439.806 10.8293 438.398 11.256 436.606 11.256C434.814 11.256 433.385 10.8293 432.318 9.976C431.294 9.08 430.782 7.864 430.782 6.328C430.782 4.792 431.294 3.59733 432.318 2.744C433.385 1.848 434.814 1.4 436.606 1.4ZM441.598 17.208V45.048C441.598 46.84 441.897 48.056 442.494 48.696C443.134 49.336 444.201 49.656 445.694 49.656V51C444.926 50.9573 443.731 50.9147 442.11 50.872C440.489 50.7867 438.846 50.744 437.182 50.744C435.518 50.744 433.833 50.7867 432.126 50.872C430.419 50.9147 429.139 50.9573 428.286 51V49.656C429.779 49.656 430.825 49.336 431.422 48.696C432.062 48.056 432.382 46.84 432.382 45.048V24.888C432.382 22.968 432.083 21.56 431.486 20.664C430.931 19.7253 429.865 19.256 428.286 19.256V17.912C429.651 18.04 430.974 18.104 432.254 18.104C434.046 18.104 435.71 18.04 437.246 17.912C438.825 17.7413 440.275 17.5067 441.598 17.208ZM461.466 7.416V17.912H469.018V19.192H461.466V45.048C461.466 46.328 461.7 47.2453 462.17 47.8C462.639 48.312 463.343 48.568 464.282 48.568C465.05 48.568 465.818 48.2907 466.586 47.736C467.354 47.1387 468.036 46.136 468.634 44.728L469.722 45.304C469.039 47.224 467.994 48.8027 466.586 50.04C465.22 51.2773 463.343 51.896 460.954 51.896C459.546 51.896 458.308 51.704 457.242 51.32C456.175 50.9787 455.279 50.4453 454.554 49.72C453.615 48.7813 452.996 47.6293 452.698 46.264C452.399 44.856 452.25 43.0427 452.25 40.824V19.192H446.873V17.912H452.25V9.464C454.042 9.464 455.684 9.31466 457.178 9.016C458.714 8.67466 460.143 8.14133 461.466 7.416ZM483.966 0.951996V22.968C485.032 20.7493 486.462 19.2133 488.253 18.36C490.088 17.464 492.136 17.016 494.398 17.016C496.232 17.016 497.704 17.2507 498.814 17.72C499.923 18.1467 500.798 18.744 501.438 19.512C502.163 20.3227 502.675 21.368 502.974 22.648C503.315 23.928 503.486 25.656 503.486 27.832V45.048C503.486 46.84 503.784 48.056 504.382 48.696C505.022 49.336 506.088 49.656 507.582 49.656V51C506.771 50.9573 505.534 50.9147 503.87 50.872C502.248 50.7867 500.67 50.744 499.134 50.744C497.47 50.744 495.848 50.7867 494.27 50.872C492.734 50.9147 491.582 50.9573 490.814 51V49.656C492.094 49.656 492.99 49.336 493.502 48.696C494.014 48.056 494.27 46.84 494.27 45.048V25.144C494.27 24.0773 494.163 23.16 493.95 22.392C493.736 21.5813 493.331 20.9627 492.734 20.536C492.179 20.0667 491.368 19.832 490.302 19.832C489.15 19.832 488.083 20.152 487.102 20.792C486.163 21.3893 485.395 22.2427 484.798 23.352C484.243 24.4613 483.966 25.7413 483.966 27.192V45.048C483.966 46.84 484.222 48.056 484.734 48.696C485.246 49.336 486.142 49.656 487.422 49.656V51C486.654 50.9573 485.523 50.9147 484.03 50.872C482.536 50.7867 481.022 50.744 479.486 50.744C477.822 50.744 476.136 50.7867 474.43 50.872C472.766 50.9147 471.507 50.9573 470.654 51V49.656C472.147 49.656 473.192 49.336 473.79 48.696C474.43 48.056 474.75 46.84 474.75 45.048V8.632C474.75 6.712 474.451 5.304 473.854 4.408C473.299 3.46933 472.232 3 470.654 3V1.656C472.019 1.784 473.342 1.848 474.622 1.848C476.371 1.848 478.035 1.784 479.614 1.656C481.192 1.48533 482.643 1.25066 483.966 0.951996ZM537.091 7.416V17.912H544.643V19.192H537.091V45.048C537.091 46.328 537.325 47.2453 537.795 47.8C538.264 48.312 538.968 48.568 539.907 48.568C540.675 48.568 541.443 48.2907 542.211 47.736C542.979 47.1387 543.661 46.136 544.259 44.728L545.347 45.304C544.664 47.224 543.619 48.8027 542.211 50.04C540.845 51.2773 538.968 51.896 536.579 51.896C535.171 51.896 533.933 51.704 532.867 51.32C531.8 50.9787 530.904 50.4453 530.179 49.72C529.24 48.7813 528.621 47.6293 528.323 46.264C528.024 44.856 527.875 43.0427 527.875 40.824V19.192H522.498V17.912H527.875V9.464C529.667 9.464 531.309 9.31466 532.803 9.016C534.339 8.67466 535.768 8.14133 537.091 7.416ZM559.591 0.951996V22.968C560.657 20.7493 562.087 19.2133 563.878 18.36C565.713 17.464 567.761 17.016 570.023 17.016C571.857 17.016 573.329 17.2507 574.439 17.72C575.548 18.1467 576.423 18.744 577.062 19.512C577.788 20.3227 578.3 21.368 578.599 22.648C578.94 23.928 579.111 25.656 579.111 27.832V45.048C579.111 46.84 579.409 48.056 580.007 48.696C580.647 49.336 581.713 49.656 583.207 49.656V51C582.396 50.9573 581.159 50.9147 579.495 50.872C577.873 50.7867 576.295 50.744 574.759 50.744C573.095 50.744 571.473 50.7867 569.895 50.872C568.359 50.9147 567.207 50.9573 566.439 51V49.656C567.719 49.656 568.615 49.336 569.127 48.696C569.639 48.056 569.895 46.84 569.895 45.048V25.144C569.895 24.0773 569.788 23.16 569.575 22.392C569.361 21.5813 568.956 20.9627 568.359 20.536C567.804 20.0667 566.993 19.832 565.927 19.832C564.775 19.832 563.708 20.152 562.727 20.792C561.788 21.3893 561.02 22.2427 560.423 23.352C559.868 24.4613 559.591 25.7413 559.591 27.192V45.048C559.591 46.84 559.847 48.056 560.359 48.696C560.871 49.336 561.767 49.656 563.047 49.656V51C562.279 50.9573 561.148 50.9147 559.655 50.872C558.161 50.7867 556.647 50.744 555.111 50.744C553.447 50.744 551.761 50.7867 550.055 50.872C548.391 50.9147 547.132 50.9573 546.279 51V49.656C547.772 49.656 548.817 49.336 549.415 48.696C550.055 48.056 550.375 46.84 550.375 45.048V8.632C550.375 6.712 550.076 5.304 549.479 4.408C548.924 3.46933 547.857 3 546.279 3V1.656C547.644 1.784 548.967 1.848 550.247 1.848C551.996 1.848 553.66 1.784 555.239 1.656C556.817 1.48533 558.268 1.25066 559.591 0.951996ZM602.048 17.016C605.803 17.016 608.747 18.1253 610.88 20.344C613.013 22.5627 614.08 26.1893 614.08 31.224H593.024L592.896 30.008H606.016C606.059 27.9173 605.931 25.9973 605.632 24.248C605.333 22.456 604.864 21.0267 604.224 19.96C603.584 18.8933 602.731 18.36 601.664 18.36C600.171 18.36 598.891 19.2987 597.824 21.176C596.8 23.0533 596.181 26.168 595.968 30.52L596.16 30.904C596.117 31.416 596.075 31.9493 596.032 32.504C596.032 33.0587 596.032 33.6347 596.032 34.232C596.032 37.176 596.437 39.5653 597.248 41.4C598.101 43.2347 599.168 44.5787 600.448 45.432C601.728 46.2427 603.029 46.648 604.352 46.648C605.248 46.648 606.165 46.52 607.104 46.264C608.085 45.9653 609.067 45.4533 610.048 44.728C611.029 43.96 611.947 42.8933 612.8 41.528L613.952 41.912C613.44 43.5333 612.629 45.112 611.52 46.648C610.411 48.184 609.003 49.4427 607.296 50.424C605.589 51.4053 603.541 51.896 601.152 51.896C598.251 51.896 595.691 51.2773 593.472 50.04C591.253 48.8027 589.504 46.9253 588.224 44.408C586.987 41.8907 586.368 38.6907 586.368 34.808C586.368 30.84 587.029 27.5333 588.352 24.888C589.717 22.2427 591.573 20.28 593.92 19C596.309 17.6773 599.019 17.016 602.048 17.016ZM26.344 97.016C28.136 97.016 29.5867 97.2507 30.696 97.72C31.848 98.1467 32.744 98.744 33.384 99.512C34.0667 100.323 34.5573 101.368 34.856 102.648C35.1973 103.928 35.368 105.656 35.368 107.832V125.048C35.368 126.84 35.6667 128.056 36.264 128.696C36.904 129.336 37.9707 129.656 39.464 129.656V131C38.6533 130.957 37.4373 130.915 35.816 130.872C34.1947 130.787 32.5947 130.744 31.016 130.744C29.3947 130.744 27.7947 130.787 26.216 130.872C24.68 130.915 23.5067 130.957 22.696 131V129.656C23.976 129.656 24.872 129.336 25.384 128.696C25.896 128.056 26.152 126.84 26.152 125.048V105.144C26.152 104.077 26.0453 103.16 25.832 102.392C25.6187 101.581 25.2347 100.963 24.68 100.536C24.1253 100.067 23.2933 99.832 22.184 99.832C21.032 99.832 19.9653 100.152 18.984 100.792C18.0453 101.432 17.2773 102.328 16.68 103.48C16.1253 104.589 15.848 105.848 15.848 107.256V125.048C15.848 126.84 16.104 128.056 16.616 128.696C17.1707 129.336 18.0667 129.656 19.304 129.656V131C18.536 130.957 17.4053 130.915 15.912 130.872C14.4613 130.787 12.9467 130.744 11.368 130.744C9.74667 130.744 8.08267 130.787 6.376 130.872C4.66933 130.915 3.38933 130.957 2.536 131V129.656C4.02933 129.656 5.07467 129.336 5.672 128.696C6.312 128.056 6.632 126.84 6.632 125.048V104.888C6.632 102.968 6.33333 101.56 5.736 100.664C5.18133 99.7253 4.11467 99.256 2.536 99.256V97.912C3.90133 98.04 5.224 98.104 6.504 98.104C8.296 98.104 9.96 98.04 11.496 97.912C13.0747 97.7413 14.5253 97.5067 15.848 97.208V102.968C16.9147 100.792 18.3653 99.256 20.2 98.36C22.0347 97.464 24.0827 97.016 26.344 97.016ZM58.3605 97.016C62.1152 97.016 65.0592 98.1253 67.1925 100.344C69.3258 102.563 70.3925 106.189 70.3925 111.224H49.3365L49.2085 110.008H62.3285C62.3712 107.917 62.2432 105.997 61.9445 104.248C61.6458 102.456 61.1765 101.027 60.5365 99.96C59.8965 98.8933 59.0432 98.36 57.9765 98.36C56.4832 98.36 55.2032 99.2987 54.1365 101.176C53.1125 103.053 52.4938 106.168 52.2805 110.52L52.4725 110.904C52.4298 111.416 52.3872 111.949 52.3445 112.504C52.3445 113.059 52.3445 113.635 52.3445 114.232C52.3445 117.176 52.7498 119.565 53.5605 121.4C54.4138 123.235 55.4805 124.579 56.7605 125.432C58.0405 126.243 59.3418 126.648 60.6645 126.648C61.5605 126.648 62.4778 126.52 63.4165 126.264C64.3978 125.965 65.3792 125.453 66.3605 124.728C67.3418 123.96 68.2592 122.893 69.1125 121.528L70.2645 121.912C69.7525 123.533 68.9418 125.112 67.8325 126.648C66.7232 128.184 65.3152 129.443 63.6085 130.424C61.9018 131.405 59.8538 131.896 57.4645 131.896C54.5632 131.896 52.0032 131.277 49.7845 130.04C47.5658 128.803 45.8165 126.925 44.5365 124.408C43.2992 121.891 42.6805 118.691 42.6805 114.808C42.6805 110.84 43.3418 107.533 44.6645 104.888C46.0298 102.243 47.8858 100.28 50.2325 99C52.6218 97.6773 55.3312 97.016 58.3605 97.016ZM88.8975 97.912V99.256C87.9588 99.256 87.1268 99.32 86.4015 99.448C85.7188 99.5333 85.2495 99.832 84.9935 100.344C84.7802 100.856 84.8655 101.688 85.2495 102.84L91.3295 121.848L90.4975 122.744L97.9855 97.848L99.2655 98.424L89.4735 131.128C88.7908 131.085 88.1082 131.064 87.4255 131.064C86.7428 131.064 86.0388 131.085 85.3135 131.128L75.2015 102.84C74.6042 101.133 73.9428 100.109 73.2175 99.768C72.5348 99.4267 71.9588 99.256 71.4895 99.256V97.912C72.8548 98.04 74.2628 98.1467 75.7135 98.232C77.2068 98.2747 78.8282 98.296 80.5775 98.296C81.9002 98.296 83.2868 98.2533 84.7375 98.168C86.2308 98.0827 87.6175 97.9973 88.8975 97.912ZM122.306 97.912V99.192C121.495 99.4053 120.727 99.896 120.002 100.664C119.276 101.432 118.594 102.776 117.954 104.696L109.442 131.128C108.759 131.085 108.055 131.064 107.33 131.064C106.647 131.064 105.964 131.085 105.282 131.128L96.2575 106.488L97.9855 97.848C98.7535 97.8907 99.5215 97.912 100.29 97.912C101.1 97.8693 101.89 97.848 102.658 97.848L111.426 123.704L110.722 123L115.01 109.432C115.735 107.085 116.012 105.187 115.842 103.736C115.671 102.285 115.159 101.197 114.306 100.472C113.452 99.7467 112.3 99.32 110.85 99.192V97.912C111.532 97.9547 112.258 97.9973 113.026 98.04C113.836 98.04 114.626 98.0613 115.394 98.104C116.204 98.104 116.887 98.104 117.442 98.104C118.295 98.104 119.17 98.0827 120.066 98.04C121.004 97.9973 121.751 97.9547 122.306 97.912ZM139.423 97.016C143.178 97.016 146.122 98.1253 148.255 100.344C150.388 102.563 151.455 106.189 151.455 111.224H130.399L130.271 110.008H143.391C143.434 107.917 143.306 105.997 143.007 104.248C142.708 102.456 142.239 101.027 141.599 99.96C140.959 98.8933 140.106 98.36 139.039 98.36C137.546 98.36 136.266 99.2987 135.199 101.176C134.175 103.053 133.556 106.168 133.343 110.52L133.535 110.904C133.492 111.416 133.45 111.949 133.407 112.504C133.407 113.059 133.407 113.635 133.407 114.232C133.407 117.176 133.812 119.565 134.623 121.4C135.476 123.235 136.543 124.579 137.823 125.432C139.103 126.243 140.404 126.648 141.727 126.648C142.623 126.648 143.54 126.52 144.479 126.264C145.46 125.965 146.442 125.453 147.423 124.728C148.404 123.96 149.322 122.893 150.175 121.528L151.327 121.912C150.815 123.533 150.004 125.112 148.895 126.648C147.786 128.184 146.378 129.443 144.671 130.424C142.964 131.405 140.916 131.896 138.527 131.896C135.626 131.896 133.066 131.277 130.847 130.04C128.628 128.803 126.879 126.925 125.599 124.408C124.362 121.891 123.743 118.691 123.743 114.808C123.743 110.84 124.404 107.533 125.727 104.888C127.092 102.243 128.948 100.28 131.295 99C133.684 97.6773 136.394 97.016 139.423 97.016ZM167.833 97.016C169.625 97.016 171.182 97.2507 172.505 97.72C173.87 98.1467 174.852 98.5733 175.449 99C176.9 99.9813 177.796 99.3413 178.137 97.08H179.481C179.396 98.2747 179.332 99.7467 179.289 101.496C179.246 103.203 179.225 105.485 179.225 108.344H177.881C177.668 106.765 177.262 105.208 176.665 103.672C176.068 102.136 175.193 100.877 174.041 99.896C172.932 98.9147 171.481 98.424 169.689 98.424C168.452 98.424 167.406 98.7867 166.553 99.512C165.7 100.195 165.273 101.197 165.273 102.52C165.273 103.8 165.657 104.931 166.425 105.912C167.193 106.851 168.174 107.768 169.369 108.664C170.606 109.517 171.886 110.435 173.209 111.416C174.617 112.483 175.897 113.549 177.049 114.616C178.201 115.64 179.118 116.771 179.801 118.008C180.484 119.245 180.825 120.717 180.825 122.424C180.825 124.344 180.27 126.029 179.161 127.48C178.052 128.888 176.58 129.976 174.745 130.744C172.953 131.512 170.948 131.896 168.729 131.896C167.449 131.896 166.297 131.768 165.273 131.512C164.292 131.256 163.438 130.936 162.713 130.552C162.158 130.296 161.625 130.061 161.113 129.848C160.644 129.592 160.196 129.379 159.769 129.208C159.342 129.08 158.958 129.229 158.617 129.656C158.318 130.083 158.084 130.68 157.913 131.448H156.569C156.654 130.083 156.718 128.419 156.761 126.456C156.804 124.493 156.825 121.891 156.825 118.648H158.169C158.425 120.952 158.894 123 159.577 124.792C160.26 126.541 161.177 127.928 162.329 128.952C163.524 129.933 165.017 130.424 166.809 130.424C167.534 130.424 168.238 130.275 168.921 129.976C169.604 129.677 170.158 129.187 170.585 128.504C171.054 127.821 171.289 126.947 171.289 125.88C171.289 124.003 170.67 122.445 169.433 121.208C168.238 119.971 166.702 118.627 164.825 117.176C163.46 116.067 162.158 114.979 160.921 113.912C159.726 112.803 158.745 111.608 157.977 110.328C157.209 109.005 156.825 107.512 156.825 105.848C156.825 103.928 157.337 102.307 158.361 100.984C159.385 99.6613 160.729 98.68 162.393 98.04C164.1 97.3573 165.913 97.016 167.833 97.016ZM197.716 87.416V97.912H205.268V99.192H197.716V125.048C197.716 126.328 197.95 127.245 198.42 127.8C198.889 128.312 199.593 128.568 200.532 128.568C201.3 128.568 202.068 128.291 202.836 127.736C203.604 127.139 204.286 126.136 204.884 124.728L205.972 125.304C205.289 127.224 204.244 128.803 202.836 130.04C201.47 131.277 199.593 131.896 197.204 131.896C195.796 131.896 194.558 131.704 193.492 131.32C192.425 130.979 191.529 130.445 190.804 129.72C189.865 128.781 189.246 127.629 188.948 126.264C188.649 124.856 188.5 123.043 188.5 120.824V99.192H183.123V97.912H188.5V89.464C190.292 89.464 191.934 89.3147 193.428 89.016C194.964 88.6747 196.393 88.1413 197.716 87.416ZM244.956 97.016C246.748 97.016 248.198 97.2507 249.308 97.72C250.417 98.1467 251.313 98.744 251.996 99.512C252.678 100.323 253.169 101.389 253.468 102.712C253.766 103.992 253.916 105.699 253.916 107.832V125.048C253.916 126.84 254.193 128.056 254.748 128.696C255.302 129.336 256.262 129.656 257.628 129.656V131C256.86 130.957 255.686 130.915 254.108 130.872C252.572 130.787 251.057 130.744 249.564 130.744C248.028 130.744 246.513 130.787 245.02 130.872C243.526 130.915 242.396 130.957 241.628 131V129.656C242.78 129.656 243.569 129.336 243.996 128.696C244.465 128.056 244.7 126.84 244.7 125.048V105.144C244.7 104.077 244.614 103.16 244.444 102.392C244.273 101.581 243.932 100.963 243.42 100.536C242.95 100.067 242.225 99.832 241.244 99.832C240.134 99.832 239.11 100.152 238.172 100.792C237.233 101.432 236.465 102.328 235.868 103.48C235.313 104.589 235.036 105.848 235.036 107.256V125.048C235.036 126.84 235.27 128.056 235.74 128.696C236.209 129.336 236.998 129.656 238.108 129.656V131C237.425 130.957 236.358 130.915 234.908 130.872C233.5 130.787 232.049 130.744 230.556 130.744C228.934 130.744 227.27 130.787 225.564 130.872C223.857 130.915 222.577 130.957 221.724 131V129.656C223.217 129.656 224.262 129.336 224.86 128.696C225.5 128.056 225.82 126.84 225.82 125.048V104.888C225.82 102.968 225.521 101.56 224.924 100.664C224.369 99.7253 223.302 99.256 221.724 99.256V97.912C223.089 98.04 224.412 98.104 225.692 98.104C227.484 98.104 229.148 98.04 230.684 97.912C232.262 97.7413 233.713 97.5067 235.036 97.208V102.968C236.06 100.835 237.446 99.32 239.196 98.424C240.945 97.4853 242.865 97.016 244.956 97.016ZM264.22 97.016C266.012 97.016 267.462 97.2507 268.572 97.72C269.681 98.1467 270.577 98.744 271.26 99.512C271.942 100.323 272.433 101.389 272.732 102.712C273.03 103.992 273.18 105.699 273.18 107.832V125.048C273.18 126.84 273.478 128.056 274.076 128.696C274.716 129.336 275.782 129.656 277.276 129.656V131C276.465 130.957 275.249 130.915 273.628 130.872C272.006 130.787 270.406 130.744 268.828 130.744C267.292 130.744 265.777 130.787 264.284 130.872C262.79 130.915 261.66 130.957 260.892 131V129.656C262.044 129.656 262.833 129.336 263.26 128.696C263.729 128.056 263.964 126.84 263.964 125.048V105.144C263.964 104.077 263.857 103.16 263.644 102.392C263.473 101.581 263.11 100.963 262.556 100.536C262.044 100.067 261.233 99.832 260.124 99.832C259.014 99.832 257.99 100.173 257.052 100.856C256.113 101.539 255.345 102.456 254.748 103.608C254.193 104.76 253.894 106.04 253.852 107.448L253.532 103.544C254.684 100.984 256.198 99.256 258.076 98.36C259.996 97.464 262.044 97.016 264.22 97.016ZM287.981 81.4C289.773 81.4 291.181 81.848 292.205 82.744C293.272 83.5973 293.805 84.792 293.805 86.328C293.805 87.864 293.272 89.08 292.205 89.976C291.181 90.8293 289.773 91.256 287.981 91.256C286.189 91.256 284.76 90.8293 283.693 89.976C282.669 89.08 282.157 87.864 282.157 86.328C282.157 84.792 282.669 83.5973 283.693 82.744C284.76 81.848 286.189 81.4 287.981 81.4ZM292.973 97.208V125.048C292.973 126.84 293.272 128.056 293.869 128.696C294.509 129.336 295.576 129.656 297.069 129.656V131C296.301 130.957 295.106 130.915 293.485 130.872C291.864 130.787 290.221 130.744 288.557 130.744C286.893 130.744 285.208 130.787 283.501 130.872C281.794 130.915 280.514 130.957 279.661 131V129.656C281.154 129.656 282.2 129.336 282.797 128.696C283.437 128.056 283.757 126.84 283.757 125.048V104.888C283.757 102.968 283.458 101.56 282.861 100.664C282.306 99.7253 281.24 99.256 279.661 99.256V97.912C281.026 98.04 282.349 98.104 283.629 98.104C285.421 98.104 287.085 98.04 288.621 97.912C290.2 97.7413 291.65 97.5067 292.973 97.208ZM316.489 97.016C318.153 97.016 319.667 97.208 321.033 97.592C322.441 97.9333 323.593 98.3813 324.489 98.936C325.598 99.6187 326.451 100.472 327.049 101.496C327.689 102.477 328.009 103.629 328.009 104.952C328.009 106.445 327.539 107.683 326.601 108.664C325.662 109.603 324.446 110.072 322.953 110.072C321.459 110.072 320.265 109.645 319.369 108.792C318.473 107.939 318.025 106.787 318.025 105.336C318.025 103.971 318.451 102.84 319.305 101.944C320.158 101.005 321.139 100.387 322.249 100.088C321.907 99.6613 321.395 99.2987 320.713 99C320.03 98.7013 319.262 98.552 318.409 98.552C317.086 98.552 315.913 98.936 314.889 99.704C313.907 100.472 313.075 101.539 312.393 102.904C311.71 104.269 311.177 105.869 310.793 107.704C310.451 109.539 310.281 111.544 310.281 113.72C310.281 117.005 310.686 119.587 311.497 121.464C312.35 123.341 313.417 124.664 314.697 125.432C316.019 126.2 317.385 126.584 318.793 126.584C319.603 126.584 320.478 126.456 321.417 126.2C322.398 125.944 323.379 125.432 324.361 124.664C325.385 123.896 326.323 122.808 327.177 121.4L328.265 121.784C327.795 123.363 327.027 124.941 325.961 126.52C324.894 128.099 323.507 129.4 321.801 130.424C320.094 131.405 318.003 131.896 315.529 131.896C312.755 131.896 310.238 131.299 307.977 130.104C305.758 128.867 303.966 126.989 302.601 124.472C301.278 121.912 300.617 118.627 300.617 114.616C300.617 110.776 301.299 107.555 302.665 104.952C304.073 102.307 305.971 100.323 308.361 99C310.75 97.6773 313.459 97.016 316.489 97.016ZM353.615 97.016C354.98 97.016 356.089 97.3147 356.943 97.912C357.796 98.4667 358.415 99.192 358.799 100.088C359.225 100.984 359.439 101.923 359.439 102.904C359.439 104.483 358.969 105.784 358.031 106.808C357.135 107.789 355.94 108.28 354.447 108.28C352.953 108.28 351.78 107.917 350.927 107.192C350.116 106.424 349.711 105.421 349.711 104.184C349.711 102.989 349.967 102.008 350.479 101.24C351.033 100.429 351.716 99.7467 352.527 99.192C351.929 99.0213 351.332 99.0427 350.735 99.256C349.924 99.384 349.156 99.7253 348.431 100.28C347.705 100.792 347.087 101.453 346.575 102.264C346.063 103.032 345.657 103.885 345.359 104.824C345.06 105.72 344.911 106.595 344.911 107.448V124.408C344.911 126.456 345.401 127.843 346.383 128.568C347.407 129.293 348.921 129.656 350.927 129.656V131C349.945 130.957 348.516 130.915 346.639 130.872C344.761 130.787 342.799 130.744 340.751 130.744C339.044 130.744 337.316 130.787 335.567 130.872C333.817 130.915 332.495 130.957 331.599 131V129.656C333.092 129.656 334.137 129.336 334.735 128.696C335.375 128.056 335.695 126.84 335.695 125.048V104.888C335.695 102.968 335.396 101.56 334.799 100.664C334.244 99.7253 333.177 99.256 331.599 99.256V97.912C332.964 98.04 334.287 98.104 335.567 98.104C337.359 98.104 339.023 98.04 340.559 97.912C342.137 97.7413 343.588 97.5067 344.911 97.208V103.16C345.423 102.008 346.105 100.963 346.958 100.024C347.812 99.0853 348.793 98.36 349.903 97.848C351.012 97.2933 352.249 97.016 353.615 97.016ZM377.111 97.016C380.225 97.016 382.956 97.592 385.303 98.744C387.649 99.896 389.484 101.752 390.807 104.312C392.129 106.872 392.791 110.264 392.791 114.488C392.791 118.712 392.129 122.104 390.807 124.664C389.484 127.181 387.649 129.016 385.303 130.168C382.956 131.32 380.225 131.896 377.111 131.896C374.081 131.896 371.372 131.32 368.983 130.168C366.636 129.016 364.78 127.181 363.415 124.664C362.092 122.104 361.431 118.712 361.431 114.488C361.431 110.264 362.092 106.872 363.415 104.312C364.78 101.752 366.636 99.896 368.983 98.744C371.372 97.592 374.081 97.016 377.111 97.016ZM377.111 98.296C375.404 98.296 373.975 99.576 372.823 102.136C371.671 104.653 371.095 108.771 371.095 114.488C371.095 120.205 371.671 124.323 372.823 126.84C373.975 129.357 375.404 130.616 377.111 130.616C378.86 130.616 380.289 129.357 381.399 126.84C382.551 124.323 383.127 120.205 383.127 114.488C383.127 108.771 382.551 104.653 381.399 102.136C380.289 99.576 378.86 98.296 377.111 98.296ZM413.426 97.016C415.09 97.016 416.605 97.208 417.97 97.592C419.378 97.9333 420.53 98.3813 421.426 98.936C422.535 99.6187 423.389 100.472 423.986 101.496C424.626 102.477 424.946 103.629 424.946 104.952C424.946 106.445 424.477 107.683 423.538 108.664C422.599 109.603 421.383 110.072 419.89 110.072C418.397 110.072 417.202 109.645 416.306 108.792C415.41 107.939 414.962 106.787 414.962 105.336C414.962 103.971 415.389 102.84 416.242 101.944C417.095 101.005 418.077 100.387 419.186 100.088C418.845 99.6613 418.333 99.2987 417.65 99C416.967 98.7013 416.199 98.552 415.346 98.552C414.023 98.552 412.85 98.936 411.826 99.704C410.845 100.472 410.013 101.539 409.33 102.904C408.647 104.269 408.114 105.869 407.73 107.704C407.389 109.539 407.218 111.544 407.218 113.72C407.218 117.005 407.623 119.587 408.434 121.464C409.287 123.341 410.354 124.664 411.634 125.432C412.957 126.2 414.322 126.584 415.73 126.584C416.541 126.584 417.415 126.456 418.354 126.2C419.335 125.944 420.317 125.432 421.298 124.664C422.322 123.896 423.261 122.808 424.114 121.4L425.202 121.784C424.733 123.363 423.965 124.941 422.898 126.52C421.831 128.099 420.445 129.4 418.738 130.424C417.031 131.405 414.941 131.896 412.466 131.896C409.693 131.896 407.175 131.299 404.914 130.104C402.695 128.867 400.903 126.989 399.538 124.472C398.215 121.912 397.554 118.627 397.554 114.616C397.554 110.776 398.237 107.555 399.602 104.952C401.01 102.307 402.909 100.323 405.298 99C407.687 97.6773 410.397 97.016 413.426 97.016ZM441.528 80.952V102.968C442.595 100.749 444.024 99.2133 445.816 98.36C447.651 97.464 449.699 97.016 451.96 97.016C453.795 97.016 455.267 97.2507 456.376 97.72C457.485 98.1467 458.36 98.744 459 99.512C459.725 100.323 460.237 101.368 460.536 102.648C460.877 103.928 461.048 105.656 461.048 107.832V125.048C461.048 126.84 461.347 128.056 461.944 128.696C462.584 129.336 463.651 129.656 465.144 129.656V131C464.333 130.957 463.096 130.915 461.432 130.872C459.811 130.787 458.232 130.744 456.696 130.744C455.032 130.744 453.411 130.787 451.832 130.872C450.296 130.915 449.144 130.957 448.376 131V129.656C449.656 129.656 450.552 129.336 451.064 128.696C451.576 128.056 451.832 126.84 451.832 125.048V105.144C451.832 104.077 451.725 103.16 451.512 102.392C451.299 101.581 450.893 100.963 450.296 100.536C449.741 100.067 448.931 99.832 447.864 99.832C446.712 99.832 445.645 100.152 444.664 100.792C443.725 101.389 442.957 102.243 442.36 103.352C441.805 104.461 441.528 105.741 441.528 107.192V125.048C441.528 126.84 441.784 128.056 442.296 128.696C442.808 129.336 443.704 129.656 444.984 129.656V131C444.216 130.957 443.085 130.915 441.592 130.872C440.099 130.787 438.584 130.744 437.048 130.744C435.384 130.744 433.699 130.787 431.992 130.872C430.328 130.915 429.069 130.957 428.216 131V129.656C429.709 129.656 430.755 129.336 431.352 128.696C431.992 128.056 432.312 126.84 432.312 125.048V88.632C432.312 86.712 432.013 85.304 431.416 84.408C430.861 83.4693 429.795 83 428.216 83V81.656C429.581 81.784 430.904 81.848 432.184 81.848C433.933 81.848 435.597 81.784 437.176 81.656C438.755 81.4853 440.205 81.2507 441.528 80.952ZM475.794 81.4C477.586 81.4 478.994 81.848 480.018 82.744C481.084 83.5973 481.618 84.792 481.618 86.328C481.618 87.864 481.084 89.08 480.018 89.976C478.994 90.8293 477.586 91.256 475.794 91.256C474.002 91.256 472.572 90.8293 471.506 89.976C470.482 89.08 469.97 87.864 469.97 86.328C469.97 84.792 470.482 83.5973 471.506 82.744C472.572 81.848 474.002 81.4 475.794 81.4ZM480.786 97.208V125.048C480.786 126.84 481.084 128.056 481.682 128.696C482.322 129.336 483.388 129.656 484.882 129.656V131C484.114 130.957 482.919 130.915 481.298 130.872C479.676 130.787 478.034 130.744 476.37 130.744C474.706 130.744 473.02 130.787 471.314 130.872C469.607 130.915 468.327 130.957 467.474 131V129.656C468.967 129.656 470.012 129.336 470.61 128.696C471.25 128.056 471.57 126.84 471.57 125.048V104.888C471.57 102.968 471.271 101.56 470.674 100.664C470.119 99.7253 469.052 99.256 467.474 99.256V97.912C468.839 98.04 470.162 98.104 471.442 98.104C473.234 98.104 474.898 98.04 476.434 97.912C478.012 97.7413 479.463 97.5067 480.786 97.208ZM500.717 97.208V136.248C500.717 138.253 501.229 139.576 502.253 140.216C503.277 140.899 504.685 141.24 506.477 141.24V142.584C505.368 142.541 503.832 142.477 501.869 142.392C499.949 142.349 497.901 142.328 495.725 142.328C494.146 142.328 492.589 142.349 491.053 142.392C489.56 142.477 488.429 142.541 487.661 142.584V141.24C489.069 141.24 490.05 140.941 490.605 140.344C491.202 139.747 491.501 138.595 491.501 136.888V104.888C491.501 102.968 491.202 101.56 490.605 100.664C490.008 99.7253 488.941 99.256 487.405 99.256V97.912C488.77 98.04 490.093 98.104 491.373 98.104C493.122 98.104 494.786 98.04 496.365 97.912C497.944 97.7413 499.394 97.5067 500.717 97.208ZM510.637 97.016C512.813 97.016 514.754 97.6133 516.461 98.808C518.168 99.96 519.533 101.731 520.557 104.12C521.581 106.467 522.093 109.411 522.093 112.952C522.093 116.067 521.73 118.797 521.005 121.144C520.322 123.491 519.32 125.475 517.997 127.096C516.717 128.675 515.16 129.869 513.325 130.68C511.533 131.491 509.506 131.896 507.245 131.896C505.581 131.896 504.066 131.597 502.701 131C501.336 130.445 500.29 129.635 499.565 128.568L500.205 127.736C500.632 128.504 501.229 129.101 501.997 129.528C502.808 129.955 503.725 130.168 504.749 130.168C506.669 130.168 508.184 129.528 509.293 128.248C510.402 126.925 511.192 125.091 511.661 122.744C512.173 120.355 512.429 117.517 512.429 114.232C512.429 110.563 512.194 107.683 511.725 105.592C511.256 103.501 510.616 102.008 509.805 101.112C508.994 100.216 508.013 99.768 506.861 99.768C505.325 99.768 503.917 100.365 502.637 101.56C501.4 102.755 500.696 104.461 500.525 106.68L500.205 104.44C500.973 102.008 502.274 100.173 504.109 98.936C505.986 97.656 508.162 97.016 510.637 97.016ZM15.528 167.416V177.912H23.08V179.192H15.528V205.048C15.528 206.328 15.7627 207.245 16.232 207.8C16.7013 208.312 17.4053 208.568 18.344 208.568C19.112 208.568 19.88 208.291 20.648 207.736C21.416 207.139 22.0987 206.136 22.696 204.728L23.784 205.304C23.1013 207.224 22.056 208.803 20.648 210.04C19.2827 211.277 17.4053 211.896 15.016 211.896C13.608 211.896 12.3707 211.704 11.304 211.32C10.2373 210.979 9.34133 210.445 8.616 209.72C7.67733 208.781 7.05867 207.629 6.76 206.264C6.46133 204.856 6.312 203.043 6.312 200.824V179.192H0.936V177.912H6.312V169.464C8.104 169.464 9.74667 169.315 11.24 169.016C12.776 168.675 14.2053 168.141 15.528 167.416ZM41.298 177.016C45.0527 177.016 47.9967 178.125 50.13 180.344C52.2633 182.563 53.33 186.189 53.33 191.224H32.274L32.146 190.008H45.266C45.3087 187.917 45.1807 185.997 44.882 184.248C44.5833 182.456 44.114 181.027 43.474 179.96C42.834 178.893 41.9807 178.36 40.914 178.36C39.4207 178.36 38.1407 179.299 37.074 181.176C36.05 183.053 35.4313 186.168 35.218 190.52L35.41 190.904C35.3673 191.416 35.3247 191.949 35.282 192.504C35.282 193.059 35.282 193.635 35.282 194.232C35.282 197.176 35.6873 199.565 36.498 201.4C37.3513 203.235 38.418 204.579 39.698 205.432C40.978 206.243 42.2793 206.648 43.602 206.648C44.498 206.648 45.4153 206.52 46.354 206.264C47.3353 205.965 48.3167 205.453 49.298 204.728C50.2793 203.96 51.1967 202.893 52.05 201.528L53.202 201.912C52.69 203.533 51.8793 205.112 50.77 206.648C49.6607 208.184 48.2527 209.443 46.546 210.424C44.8393 211.405 42.7913 211.896 40.402 211.896C37.5007 211.896 34.9407 211.277 32.722 210.04C30.5033 208.803 28.754 206.925 27.474 204.408C26.2367 201.891 25.618 198.691 25.618 194.808C25.618 190.84 26.2793 187.533 27.602 184.888C28.9673 182.243 30.8233 180.28 33.17 179C35.5593 177.677 38.2687 177.016 41.298 177.016ZM73.676 177.016C75.34 177.016 76.8547 177.208 78.22 177.592C79.628 177.933 80.78 178.381 81.676 178.936C82.7853 179.619 83.6387 180.472 84.236 181.496C84.876 182.477 85.196 183.629 85.196 184.952C85.196 186.445 84.7267 187.683 83.788 188.664C82.8493 189.603 81.6333 190.072 80.14 190.072C78.6467 190.072 77.452 189.645 76.556 188.792C75.66 187.939 75.212 186.787 75.212 185.336C75.212 183.971 75.6387 182.84 76.492 181.944C77.3453 181.005 78.3267 180.387 79.436 180.088C79.0947 179.661 78.5827 179.299 77.9 179C77.2173 178.701 76.4493 178.552 75.596 178.552C74.2733 178.552 73.1 178.936 72.076 179.704C71.0947 180.472 70.2627 181.539 69.58 182.904C68.8973 184.269 68.364 185.869 67.98 187.704C67.6387 189.539 67.468 191.544 67.468 193.72C67.468 197.005 67.8733 199.587 68.684 201.464C69.5373 203.341 70.604 204.664 71.884 205.432C73.2067 206.2 74.572 206.584 75.98 206.584C76.7907 206.584 77.6653 206.456 78.604 206.2C79.5853 205.944 80.5667 205.432 81.548 204.664C82.572 203.896 83.5107 202.808 84.364 201.4L85.452 201.784C84.9827 203.363 84.2147 204.941 83.148 206.52C82.0813 208.099 80.6947 209.4 78.988 210.424C77.2813 211.405 75.1907 211.896 72.716 211.896C69.9427 211.896 67.4253 211.299 65.164 210.104C62.9453 208.867 61.1533 206.989 59.788 204.472C58.4653 201.912 57.804 198.627 57.804 194.616C57.804 190.776 58.4867 187.555 59.852 184.952C61.26 182.307 63.1587 180.323 65.548 179C67.9373 177.677 70.6467 177.016 73.676 177.016ZM101.778 160.952V182.968C102.845 180.749 104.274 179.213 106.066 178.36C107.901 177.464 109.949 177.016 112.21 177.016C114.045 177.016 115.517 177.251 116.626 177.72C117.735 178.147 118.61 178.744 119.25 179.512C119.975 180.323 120.487 181.368 120.786 182.648C121.127 183.928 121.298 185.656 121.298 187.832V205.048C121.298 206.84 121.597 208.056 122.194 208.696C122.834 209.336 123.901 209.656 125.394 209.656V211C124.583 210.957 123.346 210.915 121.682 210.872C120.061 210.787 118.482 210.744 116.946 210.744C115.282 210.744 113.661 210.787 112.082 210.872C110.546 210.915 109.394 210.957 108.626 211V209.656C109.906 209.656 110.802 209.336 111.314 208.696C111.826 208.056 112.082 206.84 112.082 205.048V185.144C112.082 184.077 111.975 183.16 111.762 182.392C111.549 181.581 111.143 180.963 110.546 180.536C109.991 180.067 109.181 179.832 108.114 179.832C106.962 179.832 105.895 180.152 104.914 180.792C103.975 181.389 103.207 182.243 102.61 183.352C102.055 184.461 101.778 185.741 101.778 187.192V205.048C101.778 206.84 102.034 208.056 102.546 208.696C103.058 209.336 103.954 209.656 105.234 209.656V211C104.466 210.957 103.335 210.915 101.842 210.872C100.349 210.787 98.834 210.744 97.298 210.744C95.634 210.744 93.9487 210.787 92.242 210.872C90.578 210.915 89.3193 210.957 88.466 211V209.656C89.9593 209.656 91.0047 209.336 91.602 208.696C92.242 208.056 92.562 206.84 92.562 205.048V168.632C92.562 166.712 92.2633 165.304 91.666 164.408C91.1113 163.469 90.0447 163 88.466 163V161.656C89.8313 161.784 91.154 161.848 92.434 161.848C94.1833 161.848 95.8473 161.784 97.426 161.656C99.0047 161.485 100.455 161.251 101.778 160.952ZM151.532 177.016C153.324 177.016 154.774 177.251 155.884 177.72C157.036 178.147 157.932 178.744 158.572 179.512C159.254 180.323 159.745 181.368 160.044 182.648C160.385 183.928 160.556 185.656 160.556 187.832V205.048C160.556 206.84 160.854 208.056 161.451 208.696C162.092 209.336 163.158 209.656 164.652 209.656V211C163.841 210.957 162.625 210.915 161.004 210.872C159.382 210.787 157.782 210.744 156.204 210.744C154.582 210.744 152.982 210.787 151.404 210.872C149.868 210.915 148.694 210.957 147.884 211V209.656C149.164 209.656 150.06 209.336 150.572 208.696C151.084 208.056 151.34 206.84 151.34 205.048V185.144C151.34 184.077 151.233 183.16 151.02 182.392C150.806 181.581 150.422 180.963 149.868 180.536C149.313 180.067 148.481 179.832 147.372 179.832C146.22 179.832 145.153 180.152 144.172 180.792C143.233 181.432 142.465 182.328 141.868 183.48C141.313 184.589 141.036 185.848 141.036 187.256V205.048C141.036 206.84 141.292 208.056 141.804 208.696C142.358 209.336 143.254 209.656 144.492 209.656V211C143.724 210.957 142.593 210.915 141.1 210.872C139.649 210.787 138.134 210.744 136.556 210.744C134.934 210.744 133.27 210.787 131.564 210.872C129.857 210.915 128.577 210.957 127.724 211V209.656C129.217 209.656 130.262 209.336 130.86 208.696C131.5 208.056 131.82 206.84 131.82 205.048V184.888C131.82 182.968 131.521 181.56 130.924 180.664C130.369 179.725 129.302 179.256 127.724 179.256V177.912C129.089 178.04 130.412 178.104 131.692 178.104C133.484 178.104 135.148 178.04 136.684 177.912C138.262 177.741 139.713 177.507 141.036 177.208V182.968C142.102 180.792 143.553 179.256 145.388 178.36C147.222 177.464 149.27 177.016 151.532 177.016ZM183.548 177.016C186.663 177.016 189.393 177.592 191.74 178.744C194.087 179.896 195.921 181.752 197.244 184.312C198.567 186.872 199.228 190.264 199.228 194.488C199.228 198.712 198.567 202.104 197.244 204.664C195.921 207.181 194.087 209.016 191.74 210.168C189.393 211.32 186.663 211.896 183.548 211.896C180.519 211.896 177.809 211.32 175.42 210.168C173.073 209.016 171.217 207.181 169.852 204.664C168.529 202.104 167.868 198.712 167.868 194.488C167.868 190.264 168.529 186.872 169.852 184.312C171.217 181.752 173.073 179.896 175.42 178.744C177.809 177.592 180.519 177.016 183.548 177.016ZM183.548 178.296C181.841 178.296 180.412 179.576 179.26 182.136C178.108 184.653 177.532 188.771 177.532 194.488C177.532 200.205 178.108 204.323 179.26 206.84C180.412 209.357 181.841 210.616 183.548 210.616C185.297 210.616 186.727 209.357 187.836 206.84C188.988 204.323 189.564 200.205 189.564 194.488C189.564 188.771 188.988 184.653 187.836 182.136C186.727 179.576 185.297 178.296 183.548 178.296ZM215.655 160.888V205.048C215.655 206.84 215.953 208.056 216.551 208.696C217.191 209.336 218.257 209.656 219.751 209.656V211C218.94 210.957 217.724 210.915 216.103 210.872C214.481 210.787 212.839 210.744 211.175 210.744C209.511 210.744 207.825 210.787 206.119 210.872C204.455 210.915 203.196 210.957 202.343 211V209.656C203.836 209.656 204.881 209.336 205.479 208.696C206.119 208.056 206.439 206.84 206.439 205.048V168.568C206.439 166.648 206.14 165.24 205.543 164.344C204.988 163.405 203.921 162.936 202.343 162.936V161.592C203.708 161.72 205.031 161.784 206.311 161.784C208.06 161.784 209.724 161.72 211.303 161.592C212.881 161.421 214.332 161.187 215.655 160.888ZM238.361 177.016C241.475 177.016 244.206 177.592 246.553 178.744C248.899 179.896 250.734 181.752 252.057 184.312C253.379 186.872 254.041 190.264 254.041 194.488C254.041 198.712 253.379 202.104 252.057 204.664C250.734 207.181 248.899 209.016 246.553 210.168C244.206 211.32 241.475 211.896 238.361 211.896C235.331 211.896 232.622 211.32 230.233 210.168C227.886 209.016 226.03 207.181 224.665 204.664C223.342 202.104 222.681 198.712 222.681 194.488C222.681 190.264 223.342 186.872 224.665 184.312C226.03 181.752 227.886 179.896 230.233 178.744C232.622 177.592 235.331 177.016 238.361 177.016ZM238.361 178.296C236.654 178.296 235.225 179.576 234.073 182.136C232.921 184.653 232.345 188.771 232.345 194.488C232.345 200.205 232.921 204.323 234.073 206.84C235.225 209.357 236.654 210.616 238.361 210.616C240.11 210.616 241.539 209.357 242.649 206.84C243.801 204.323 244.377 200.205 244.377 194.488C244.377 188.771 243.801 184.653 242.649 182.136C241.539 179.576 240.11 178.296 238.361 178.296ZM270.452 223.032C267.807 223.032 265.439 222.797 263.348 222.328C261.3 221.901 259.679 221.219 258.484 220.28C257.332 219.384 256.756 218.275 256.756 216.952C256.756 215.629 257.353 214.435 258.548 213.368C259.743 212.344 261.513 211.533 263.86 210.936L264.436 211.96C263.625 212.6 263.028 213.283 262.644 214.008C262.303 214.776 262.132 215.565 262.132 216.376C262.132 218.168 262.943 219.533 264.564 220.472C266.228 221.453 268.468 221.944 271.284 221.944C273.204 221.944 274.911 221.688 276.404 221.176C277.94 220.664 279.135 219.896 279.988 218.872C280.884 217.848 281.332 216.589 281.332 215.096C281.332 213.816 280.863 212.728 279.924 211.832C278.985 210.979 277.108 210.552 274.292 210.552H270.324C268.575 210.552 267.039 210.36 265.716 209.976C264.436 209.592 263.433 208.995 262.708 208.184C261.983 207.331 261.62 206.264 261.62 204.984C261.62 203.192 262.324 201.613 263.732 200.248C265.14 198.883 267.231 197.603 270.004 196.408L270.644 196.92C269.833 197.432 269.065 197.987 268.34 198.584C267.657 199.139 267.316 199.864 267.316 200.76C267.316 202.125 268.169 202.808 269.876 202.808H276.852C279.199 202.808 281.289 203.085 283.124 203.64C285.001 204.195 286.473 205.112 287.54 206.392C288.649 207.629 289.204 209.251 289.204 211.256C289.204 213.347 288.521 215.288 287.156 217.08C285.833 218.872 283.785 220.301 281.012 221.368C278.239 222.477 274.719 223.032 270.452 223.032ZM271.092 197.368C268.66 197.368 266.484 197.005 264.564 196.28C262.644 195.555 261.129 194.445 260.02 192.952C258.911 191.459 258.356 189.539 258.356 187.192C258.356 184.845 258.911 182.925 260.02 181.432C261.129 179.896 262.644 178.787 264.564 178.104C266.484 177.379 268.66 177.016 271.092 177.016C273.524 177.016 275.7 177.379 277.62 178.104C279.54 178.787 281.055 179.896 282.164 181.432C283.273 182.925 283.828 184.845 283.828 187.192C283.828 189.539 283.273 191.459 282.164 192.952C281.055 194.445 279.54 195.555 277.62 196.28C275.7 197.005 273.524 197.368 271.092 197.368ZM271.092 196.216C272.244 196.216 273.14 195.576 273.78 194.296C274.42 192.973 274.74 190.605 274.74 187.192C274.74 183.779 274.42 181.432 273.78 180.152C273.14 178.829 272.244 178.168 271.092 178.168C269.983 178.168 269.087 178.829 268.404 180.152C267.764 181.432 267.444 183.779 267.444 187.192C267.444 190.605 267.764 192.973 268.404 194.296C269.087 195.576 269.983 196.216 271.092 196.216ZM281.076 182.52L279.796 182.072C280.436 180.408 281.46 179.021 282.868 177.912C284.319 176.803 285.876 176.248 287.54 176.248C288.905 176.248 289.929 176.632 290.612 177.4C291.337 178.125 291.7 179.085 291.7 180.28C291.7 181.56 291.359 182.52 290.676 183.16C289.993 183.757 289.225 184.056 288.372 184.056C287.647 184.056 286.964 183.8 286.324 183.288C285.727 182.776 285.385 182.008 285.3 180.984C285.215 179.917 285.577 178.552 286.388 176.888L286.836 177.272C285.215 177.869 283.999 178.573 283.188 179.384C282.377 180.152 281.673 181.197 281.076 182.52ZM323.832 177.912V179.192C323.021 179.405 322.253 179.917 321.528 180.728C320.803 181.496 320.099 182.819 319.416 184.696L310.392 210.04L308.024 214.52L294.072 182.84C293.347 181.176 292.621 180.173 291.896 179.832C291.213 179.448 290.616 179.256 290.104 179.256V177.912C291.512 178.04 292.963 178.147 294.456 178.232C295.992 178.275 297.464 178.296 298.872 178.296C300.621 178.296 302.221 178.253 303.672 178.168C305.123 178.083 306.488 177.997 307.768 177.912V179.256C306.915 179.256 306.104 179.32 305.336 179.448C304.611 179.533 304.099 179.832 303.8 180.344C303.544 180.813 303.672 181.645 304.184 182.84L312.248 202.296L311.672 202.68L316.408 189.432C317.219 187.128 317.56 185.251 317.432 183.8C317.304 182.307 316.835 181.197 316.024 180.472C315.213 179.704 314.104 179.277 312.696 179.192V177.912C313.379 177.955 314.083 177.997 314.808 178.04C315.533 178.04 316.259 178.061 316.984 178.104C317.709 178.104 318.349 178.104 318.904 178.104C319.757 178.104 320.653 178.083 321.592 178.04C322.531 177.997 323.277 177.955 323.832 177.912ZM310.392 210.04L307.96 216.888C307.533 217.955 307.085 218.851 306.616 219.576C306.189 220.344 305.699 220.963 305.144 221.432C304.547 221.944 303.779 222.328 302.84 222.584C301.901 222.883 300.813 223.032 299.576 223.032C298.552 223.032 297.485 222.861 296.376 222.52C295.309 222.179 294.413 221.624 293.688 220.856C292.963 220.088 292.6 219.107 292.6 217.912C292.6 216.589 293.069 215.523 294.008 214.712C294.947 213.944 296.184 213.56 297.72 213.56C299.128 213.56 300.28 213.901 301.176 214.584C302.072 215.267 302.52 216.269 302.52 217.592C302.52 218.445 302.243 219.256 301.688 220.024C301.176 220.792 300.387 221.368 299.32 221.752C299.533 221.795 299.789 221.816 300.088 221.816C300.387 221.816 300.621 221.816 300.792 221.816C302.072 221.816 303.203 221.411 304.184 220.6C305.165 219.789 305.976 218.509 306.616 216.76L308.856 210.168L310.392 210.04Z" fill="#050505"/>
</svg>
