<svg width="756" height="310" viewBox="0 0 756 310" fill="none" xmlns="http://www.w3.org/2000/svg">
<path d="M20.504 21.224V83H5.456V21.224H20.504ZM61.3291 33.368C67.0785 33.368 71.6545 35.2453 75.0571 39C78.5185 42.696 80.2491 47.8 80.2491 54.312V83H65.2891V56.336C65.2891 53.0507 64.4385 50.4987 62.7371 48.68C61.0358 46.8613 58.7478 45.952 55.8731 45.952C52.9985 45.952 50.7105 46.8613 49.0091 48.68C47.3078 50.4987 46.4571 53.0507 46.4571 56.336V83H31.4091V33.896H46.4571V40.408C47.9825 38.2373 50.0358 36.536 52.6171 35.304C55.1985 34.0133 58.1025 33.368 61.3291 33.368ZM118.074 70.24V83H110.418C104.962 83 100.709 81.68 97.658 79.04C94.6073 76.3413 93.082 71.9707 93.082 65.928V46.392H87.098V33.896H93.082V21.928H108.13V33.896H117.986V46.392H108.13V66.104C108.13 67.5707 108.482 68.6267 109.186 69.272C109.89 69.9173 111.063 70.24 112.706 70.24H118.074ZM172.744 57.656C172.744 59.064 172.656 60.5307 172.48 62.056H138.424C138.659 65.1067 139.627 67.4533 141.328 69.096C143.088 70.68 145.229 71.472 147.752 71.472C151.507 71.472 154.117 69.888 155.584 66.72H171.6C170.779 69.9467 169.283 72.8507 167.112 75.432C165 78.0133 162.331 80.0373 159.104 81.504C155.877 82.9707 152.269 83.704 148.28 83.704C143.469 83.704 139.187 82.6773 135.432 80.624C131.677 78.5707 128.744 75.6373 126.632 71.824C124.52 68.0107 123.464 63.552 123.464 58.448C123.464 53.344 124.491 48.8853 126.544 45.072C128.656 41.2587 131.589 38.3253 135.344 36.272C139.099 34.2187 143.411 33.192 148.28 33.192C153.032 33.192 157.256 34.1893 160.952 36.184C164.648 38.1787 167.523 41.024 169.576 44.72C171.688 48.416 172.744 52.728 172.744 57.656ZM157.344 53.696C157.344 51.1147 156.464 49.0613 154.704 47.536C152.944 46.0107 150.744 45.248 148.104 45.248C145.581 45.248 143.44 45.9813 141.68 47.448C139.979 48.9147 138.923 50.9973 138.512 53.696H157.344ZM195.731 42.08C197.491 39.3813 199.691 37.2693 202.331 35.744C204.971 34.16 207.904 33.368 211.131 33.368V49.296H206.995C203.24 49.296 200.424 50.1173 198.547 51.76C196.669 53.344 195.731 56.16 195.731 60.208V83H180.683V33.896H195.731V42.08ZM225.891 28.792C223.251 28.792 221.081 28.0293 219.379 26.504C217.737 24.92 216.915 22.984 216.915 20.696C216.915 18.3493 217.737 16.4133 219.379 14.888C221.081 13.304 223.251 12.512 225.891 12.512C228.473 12.512 230.585 13.304 232.227 14.888C233.929 16.4133 234.779 18.3493 234.779 20.696C234.779 22.984 233.929 24.92 232.227 26.504C230.585 28.0293 228.473 28.792 225.891 28.792ZM233.371 33.896V83H218.323V33.896H233.371ZM266.628 83.704C261.818 83.704 257.476 82.6773 253.604 80.624C249.791 78.5707 246.77 75.6373 244.54 71.824C242.37 68.0107 241.284 63.552 241.284 58.448C241.284 53.4027 242.399 48.9733 244.628 45.16C246.858 41.288 249.908 38.3253 253.78 36.272C257.652 34.2187 261.994 33.192 266.804 33.192C271.615 33.192 275.956 34.2187 279.828 36.272C283.7 38.3253 286.751 41.288 288.98 45.16C291.21 48.9733 292.324 53.4027 292.324 58.448C292.324 63.4933 291.18 67.952 288.892 71.824C286.663 75.6373 283.583 78.5707 279.652 80.624C275.78 82.6773 271.439 83.704 266.628 83.704ZM266.628 70.68C269.503 70.68 271.938 69.624 273.932 67.512C275.986 65.4 277.012 62.3787 277.012 58.448C277.012 54.5173 276.015 51.496 274.02 49.384C272.084 47.272 269.679 46.216 266.804 46.216C263.871 46.216 261.436 47.272 259.5 49.384C257.564 51.4373 256.596 54.4587 256.596 58.448C256.596 62.3787 257.535 65.4 259.412 67.512C261.348 69.624 263.754 70.68 266.628 70.68ZM315.356 42.08C317.116 39.3813 319.316 37.2693 321.956 35.744C324.596 34.16 327.529 33.368 330.756 33.368V49.296H326.62C322.865 49.296 320.049 50.1173 318.172 51.76C316.294 53.344 315.356 56.16 315.356 60.208V83H300.308V33.896H315.356V42.08ZM353.605 58.36C353.605 53.3147 354.543 48.8853 356.421 45.072C358.357 41.2587 360.967 38.3253 364.253 36.272C367.538 34.2187 371.205 33.192 375.253 33.192C378.479 33.192 381.413 33.8667 384.053 35.216C386.751 36.5653 388.863 38.384 390.389 40.672V17.88H405.437V83H390.389V75.96C388.981 78.3067 386.957 80.184 384.317 81.592C381.735 83 378.714 83.704 375.253 83.704C371.205 83.704 367.538 82.6773 364.253 80.624C360.967 78.512 358.357 75.5493 356.421 71.736C354.543 67.864 353.605 63.4053 353.605 58.36ZM390.389 58.448C390.389 54.6933 389.333 51.7307 387.221 49.56C385.167 47.3893 382.645 46.304 379.653 46.304C376.661 46.304 374.109 47.3893 371.997 49.56C369.943 51.672 368.917 54.6053 368.917 58.36C368.917 62.1147 369.943 65.1067 371.997 67.336C374.109 69.5067 376.661 70.592 379.653 70.592C382.645 70.592 385.167 69.5067 387.221 67.336C389.333 65.1653 390.389 62.2027 390.389 58.448ZM462.611 57.656C462.611 59.064 462.523 60.5307 462.347 62.056H428.291C428.526 65.1067 429.494 67.4533 431.195 69.096C432.955 70.68 435.097 71.472 437.619 71.472C441.374 71.472 443.985 69.888 445.451 66.72H461.467C460.646 69.9467 459.15 72.8507 456.979 75.432C454.867 78.0133 452.198 80.0373 448.971 81.504C445.745 82.9707 442.137 83.704 438.147 83.704C433.337 83.704 429.054 82.6773 425.299 80.624C421.545 78.5707 418.611 75.6373 416.499 71.824C414.387 68.0107 413.331 63.552 413.331 58.448C413.331 53.344 414.358 48.8853 416.411 45.072C418.523 41.2587 421.457 38.3253 425.211 36.272C428.966 34.2187 433.278 33.192 438.147 33.192C442.899 33.192 447.123 34.1893 450.819 36.184C454.515 38.1787 457.39 41.024 459.443 44.72C461.555 48.416 462.611 52.728 462.611 57.656ZM447.211 53.696C447.211 51.1147 446.331 49.0613 444.571 47.536C442.811 46.0107 440.611 45.248 437.971 45.248C435.449 45.248 433.307 45.9813 431.547 47.448C429.846 48.9147 428.79 50.9973 428.379 53.696H447.211ZM490.526 83.704C486.243 83.704 482.43 82.9707 479.086 81.504C475.742 80.0373 473.102 78.0427 471.166 75.52C469.23 72.9387 468.144 70.064 467.91 66.896H482.782C482.958 68.5973 483.75 69.976 485.158 71.032C486.566 72.088 488.296 72.616 490.35 72.616C492.227 72.616 493.664 72.264 494.662 71.56C495.718 70.7973 496.246 69.8293 496.246 68.656C496.246 67.248 495.512 66.2213 494.046 65.576C492.579 64.872 490.203 64.1093 486.918 63.288C483.398 62.4667 480.464 61.616 478.118 60.736C475.771 59.7973 473.747 58.36 472.046 56.424C470.344 54.4293 469.494 51.76 469.494 48.416C469.494 45.6 470.256 43.048 471.782 40.76C473.366 38.4133 475.654 36.5653 478.646 35.216C481.696 33.8667 485.304 33.192 489.47 33.192C495.63 33.192 500.47 34.7173 503.99 37.768C507.568 40.8187 509.622 44.8667 510.15 49.912H496.246C496.011 48.2107 495.248 46.8613 493.958 45.864C492.726 44.8667 491.083 44.368 489.03 44.368C487.27 44.368 485.92 44.72 484.982 45.424C484.043 46.0693 483.574 46.9787 483.574 48.152C483.574 49.56 484.307 50.616 485.774 51.32C487.299 52.024 489.646 52.728 492.814 53.432C496.451 54.3707 499.414 55.3093 501.702 56.248C503.99 57.128 505.984 58.5947 507.686 60.648C509.446 62.6427 510.355 65.3413 510.414 68.744C510.414 71.6187 509.592 74.2 507.95 76.488C506.366 78.7173 504.048 80.4773 500.998 81.768C498.006 83.0587 494.515 83.704 490.526 83.704ZM527.188 28.792C524.548 28.792 522.377 28.0293 520.676 26.504C519.033 24.92 518.212 22.984 518.212 20.696C518.212 18.3493 519.033 16.4133 520.676 14.888C522.377 13.304 524.548 12.512 527.188 12.512C529.769 12.512 531.881 13.304 533.524 14.888C535.225 16.4133 536.076 18.3493 536.076 20.696C536.076 22.984 535.225 24.92 533.524 26.504C531.881 28.0293 529.769 28.792 527.188 28.792ZM534.668 33.896V83H519.62V33.896H534.668ZM564.229 33.192C567.691 33.192 570.712 33.896 573.293 35.304C575.933 36.712 577.957 38.56 579.365 40.848V33.896H594.413V82.912C594.413 87.4293 593.504 91.5067 591.685 95.144C589.925 98.84 587.197 101.773 583.501 103.944C579.864 106.115 575.317 107.2 569.861 107.2C562.587 107.2 556.691 105.469 552.173 102.008C547.656 98.6053 545.075 93.9707 544.429 88.104H559.301C559.771 89.9813 560.885 91.448 562.645 92.504C564.405 93.6187 566.576 94.176 569.157 94.176C572.267 94.176 574.731 93.2667 576.549 91.448C578.427 89.688 579.365 86.8427 579.365 82.912V75.96C577.899 78.248 575.875 80.1253 573.293 81.592C570.712 83 567.691 83.704 564.229 83.704C560.181 83.704 556.515 82.6773 553.229 80.624C549.944 78.512 547.333 75.5493 545.397 71.736C543.52 67.864 542.581 63.4053 542.581 58.36C542.581 53.3147 543.52 48.8853 545.397 45.072C547.333 41.2587 549.944 38.3253 553.229 36.272C556.515 34.2187 560.181 33.192 564.229 33.192ZM579.365 58.448C579.365 54.6933 578.309 51.7307 576.197 49.56C574.144 47.3893 571.621 46.304 568.629 46.304C565.637 46.304 563.085 47.3893 560.973 49.56C558.92 51.672 557.893 54.6053 557.893 58.36C557.893 62.1147 558.92 65.1067 560.973 67.336C563.085 69.5067 565.637 70.592 568.629 70.592C571.621 70.592 574.144 69.5067 576.197 67.336C578.309 65.1653 579.365 62.2027 579.365 58.448ZM635.22 33.368C640.969 33.368 645.545 35.2453 648.948 39C652.409 42.696 654.14 47.8 654.14 54.312V83H639.18V56.336C639.18 53.0507 638.329 50.4987 636.628 48.68C634.926 46.8613 632.638 45.952 629.764 45.952C626.889 45.952 624.601 46.8613 622.9 48.68C621.198 50.4987 620.348 53.0507 620.348 56.336V83H605.3V33.896H620.348V40.408C621.873 38.2373 623.926 36.536 626.508 35.304C629.089 34.0133 631.993 33.368 635.22 33.368Z" fill="#363830"/>
<path d="M4.032 144.224H9.888V146H1.848V129.272H4.032V144.224ZM17.9434 146.216C16.7114 146.216 15.5914 145.936 14.5834 145.376C13.5914 144.816 12.8074 144.024 12.2314 143C11.6714 141.96 11.3914 140.76 11.3914 139.4C11.3914 138.056 11.6794 136.872 12.2554 135.848C12.8474 134.808 13.6474 134.016 14.6554 133.472C15.6634 132.912 16.7914 132.632 18.0394 132.632C19.2874 132.632 20.4154 132.912 21.4234 133.472C22.4314 134.016 23.2234 134.8 23.7994 135.824C24.3914 136.848 24.6874 138.04 24.6874 139.4C24.6874 140.76 24.3834 141.96 23.7754 143C23.1834 144.024 22.3754 144.816 21.3514 145.376C20.3274 145.936 19.1914 146.216 17.9434 146.216ZM17.9434 144.296C18.7274 144.296 19.4634 144.112 20.1514 143.744C20.8394 143.376 21.3914 142.824 21.8074 142.088C22.2394 141.352 22.4554 140.456 22.4554 139.4C22.4554 138.344 22.2474 137.448 21.8314 136.712C21.4154 135.976 20.8714 135.432 20.1994 135.08C19.5274 134.712 18.7994 134.528 18.0154 134.528C17.2154 134.528 16.4794 134.712 15.8074 135.08C15.1514 135.432 14.6234 135.976 14.2234 136.712C13.8234 137.448 13.6234 138.344 13.6234 139.4C13.6234 140.472 13.8154 141.376 14.1994 142.112C14.5994 142.848 15.1274 143.4 15.7834 143.768C16.4394 144.12 17.1594 144.296 17.9434 144.296ZM29.7429 134.984C30.1269 134.232 30.6709 133.648 31.3749 133.232C32.0949 132.816 32.9669 132.608 33.9909 132.608V134.864H33.4149C30.9669 134.864 29.7429 136.192 29.7429 138.848V146H27.5589V132.848H29.7429V134.984ZM48.5121 138.92C48.5121 139.336 48.4881 139.776 48.4401 140.24H37.9281C38.0081 141.536 38.4481 142.552 39.2481 143.288C40.0641 144.008 41.0481 144.368 42.2001 144.368C43.1441 144.368 43.9281 144.152 44.5521 143.72C45.1921 143.272 45.6401 142.68 45.8961 141.944H48.2481C47.8961 143.208 47.1921 144.24 46.1361 145.04C45.0801 145.824 43.7681 146.216 42.2001 146.216C40.9521 146.216 39.8321 145.936 38.8401 145.376C37.8641 144.816 37.0961 144.024 36.5361 143C35.9761 141.96 35.6961 140.76 35.6961 139.4C35.6961 138.04 35.9681 136.848 36.5121 135.824C37.0561 134.8 37.8161 134.016 38.7921 133.472C39.7841 132.912 40.9201 132.632 42.2001 132.632C43.4481 132.632 44.5521 132.904 45.5121 133.448C46.4721 133.992 47.2081 134.744 47.7201 135.704C48.2481 136.648 48.5121 137.72 48.5121 138.92ZM46.2561 138.464C46.2561 137.632 46.0721 136.92 45.7041 136.328C45.3361 135.72 44.8321 135.264 44.1921 134.96C43.5681 134.64 42.8721 134.48 42.1041 134.48C41.0001 134.48 40.0561 134.832 39.2721 135.536C38.5041 136.24 38.0641 137.216 37.9521 138.464H46.2561ZM67.2109 132.608C68.2349 132.608 69.1469 132.824 69.9469 133.256C70.7469 133.672 71.3789 134.304 71.8429 135.152C72.3069 136 72.5389 137.032 72.5389 138.248V146H70.3789V138.56C70.3789 137.248 70.0509 136.248 69.3949 135.56C68.7549 134.856 67.8829 134.504 66.7789 134.504C65.6429 134.504 64.7389 134.872 64.0669 135.608C63.3949 136.328 63.0589 137.376 63.0589 138.752V146H60.8989V138.56C60.8989 137.248 60.5709 136.248 59.9149 135.56C59.2749 134.856 58.4029 134.504 57.2989 134.504C56.1629 134.504 55.2589 134.872 54.5869 135.608C53.9149 136.328 53.5789 137.376 53.5789 138.752V146H51.3949V132.848H53.5789V134.744C54.0109 134.056 54.5869 133.528 55.3069 133.16C56.0429 132.792 56.8509 132.608 57.7309 132.608C58.8349 132.608 59.8109 132.856 60.6589 133.352C61.5069 133.848 62.1389 134.576 62.5549 135.536C62.9229 134.608 63.5309 133.888 64.3789 133.376C65.2269 132.864 66.1709 132.608 67.2109 132.608ZM83.6479 130.712C83.2319 130.712 82.8799 130.568 82.5919 130.28C82.3039 129.992 82.1599 129.64 82.1599 129.224C82.1599 128.808 82.3039 128.456 82.5919 128.168C82.8799 127.88 83.2319 127.736 83.6479 127.736C84.0479 127.736 84.3839 127.88 84.6559 128.168C84.9439 128.456 85.0879 128.808 85.0879 129.224C85.0879 129.64 84.9439 129.992 84.6559 130.28C84.3839 130.568 84.0479 130.712 83.6479 130.712ZM84.7039 132.848V146H82.5199V132.848H84.7039ZM90.6101 135.272C91.0421 134.52 91.6821 133.896 92.5301 133.4C93.3941 132.888 94.3941 132.632 95.5301 132.632C96.6981 132.632 97.7541 132.912 98.6981 133.472C99.6581 134.032 100.41 134.824 100.954 135.848C101.498 136.856 101.77 138.032 101.77 139.376C101.77 140.704 101.498 141.888 100.954 142.928C100.41 143.968 99.6581 144.776 98.6981 145.352C97.7541 145.928 96.6981 146.216 95.5301 146.216C94.4101 146.216 93.4181 145.968 92.5541 145.472C91.7061 144.96 91.0581 144.328 90.6101 143.576V152.24H88.4261V132.848H90.6101V135.272ZM99.5381 139.376C99.5381 138.384 99.3381 137.52 98.9381 136.784C98.5381 136.048 97.9941 135.488 97.3061 135.104C96.6341 134.72 95.8901 134.528 95.0741 134.528C94.2741 134.528 93.5301 134.728 92.8421 135.128C92.1701 135.512 91.6261 136.08 91.2101 136.832C90.8101 137.568 90.6101 138.424 90.6101 139.4C90.6101 140.392 90.8101 141.264 91.2101 142.016C91.6261 142.752 92.1701 143.32 92.8421 143.72C93.5301 144.104 94.2741 144.296 95.0741 144.296C95.8901 144.296 96.6341 144.104 97.3061 143.72C97.9941 143.32 98.5381 142.752 98.9381 142.016C99.3381 141.264 99.5381 140.384 99.5381 139.376ZM109.301 146.216C108.293 146.216 107.389 146.048 106.589 145.712C105.789 145.36 105.157 144.88 104.693 144.272C104.229 143.648 103.973 142.936 103.925 142.136H106.181C106.245 142.792 106.549 143.328 107.093 143.744C107.653 144.16 108.381 144.368 109.277 144.368C110.109 144.368 110.765 144.184 111.245 143.816C111.725 143.448 111.965 142.984 111.965 142.424C111.965 141.848 111.709 141.424 111.197 141.152C110.685 140.864 109.893 140.584 108.821 140.312C107.845 140.056 107.045 139.8 106.421 139.544C105.813 139.272 105.285 138.88 104.837 138.368C104.405 137.84 104.189 137.152 104.189 136.304C104.189 135.632 104.389 135.016 104.789 134.456C105.189 133.896 105.757 133.456 106.493 133.136C107.229 132.8 108.069 132.632 109.013 132.632C110.469 132.632 111.645 133 112.541 133.736C113.437 134.472 113.917 135.48 113.981 136.76H111.797C111.749 136.072 111.469 135.52 110.957 135.104C110.461 134.688 109.789 134.48 108.941 134.48C108.157 134.48 107.533 134.648 107.069 134.984C106.605 135.32 106.373 135.76 106.373 136.304C106.373 136.736 106.509 137.096 106.781 137.384C107.069 137.656 107.421 137.88 107.837 138.056C108.269 138.216 108.861 138.4 109.613 138.608C110.557 138.864 111.325 139.12 111.917 139.376C112.509 139.616 113.013 139.984 113.429 140.48C113.861 140.976 114.085 141.624 114.101 142.424C114.101 143.144 113.901 143.792 113.501 144.368C113.101 144.944 112.533 145.4 111.797 145.736C111.077 146.056 110.245 146.216 109.301 146.216ZM128.848 132.848V146H126.664V144.056C126.248 144.728 125.664 145.256 124.912 145.64C124.176 146.008 123.36 146.192 122.464 146.192C121.44 146.192 120.52 145.984 119.704 145.568C118.888 145.136 118.24 144.496 117.76 143.648C117.296 142.8 117.064 141.768 117.064 140.552V132.848H119.224V140.264C119.224 141.56 119.552 142.56 120.208 143.264C120.864 143.952 121.76 144.296 122.896 144.296C124.064 144.296 124.984 143.936 125.656 143.216C126.328 142.496 126.664 141.448 126.664 140.072V132.848H128.848ZM148.352 132.608C149.376 132.608 150.288 132.824 151.088 133.256C151.888 133.672 152.52 134.304 152.984 135.152C153.448 136 153.68 137.032 153.68 138.248V146H151.52V138.56C151.52 137.248 151.192 136.248 150.536 135.56C149.896 134.856 149.024 134.504 147.92 134.504C146.784 134.504 145.88 134.872 145.208 135.608C144.536 136.328 144.2 137.376 144.2 138.752V146H142.04V138.56C142.04 137.248 141.712 136.248 141.056 135.56C140.416 134.856 139.544 134.504 138.44 134.504C137.304 134.504 136.4 134.872 135.728 135.608C135.056 136.328 134.72 137.376 134.72 138.752V146H132.536V132.848H134.72V134.744C135.152 134.056 135.728 133.528 136.448 133.16C137.184 132.792 137.992 132.608 138.872 132.608C139.976 132.608 140.952 132.856 141.8 133.352C142.648 133.848 143.28 134.576 143.696 135.536C144.064 134.608 144.672 133.888 145.52 133.376C146.368 132.864 147.312 132.608 148.352 132.608ZM162.845 139.376C162.845 138.032 163.117 136.856 163.661 135.848C164.205 134.824 164.949 134.032 165.893 133.472C166.853 132.912 167.925 132.632 169.109 132.632C170.133 132.632 171.085 132.872 171.965 133.352C172.845 133.816 173.517 134.432 173.981 135.2V128.24H176.189V146H173.981V143.528C173.549 144.312 172.909 144.96 172.061 145.472C171.213 145.968 170.221 146.216 169.085 146.216C167.917 146.216 166.853 145.928 165.893 145.352C164.949 144.776 164.205 143.968 163.661 142.928C163.117 141.888 162.845 140.704 162.845 139.376ZM173.981 139.4C173.981 138.408 173.781 137.544 173.381 136.808C172.981 136.072 172.437 135.512 171.749 135.128C171.077 134.728 170.333 134.528 169.517 134.528C168.701 134.528 167.957 134.72 167.285 135.104C166.613 135.488 166.077 136.048 165.677 136.784C165.277 137.52 165.077 138.384 165.077 139.376C165.077 140.384 165.277 141.264 165.677 142.016C166.077 142.752 166.613 143.32 167.285 143.72C167.957 144.104 168.701 144.296 169.517 144.296C170.333 144.296 171.077 144.104 171.749 143.72C172.437 143.32 172.981 142.752 173.381 142.016C173.781 141.264 173.981 140.392 173.981 139.4ZM185.615 146.216C184.383 146.216 183.263 145.936 182.255 145.376C181.263 144.816 180.479 144.024 179.903 143C179.343 141.96 179.063 140.76 179.063 139.4C179.063 138.056 179.351 136.872 179.927 135.848C180.519 134.808 181.319 134.016 182.327 133.472C183.335 132.912 184.463 132.632 185.711 132.632C186.959 132.632 188.087 132.912 189.095 133.472C190.103 134.016 190.895 134.8 191.471 135.824C192.063 136.848 192.359 138.04 192.359 139.4C192.359 140.76 192.055 141.96 191.447 143C190.855 144.024 190.047 144.816 189.023 145.376C187.999 145.936 186.863 146.216 185.615 146.216ZM185.615 144.296C186.399 144.296 187.135 144.112 187.823 143.744C188.511 143.376 189.063 142.824 189.479 142.088C189.911 141.352 190.127 140.456 190.127 139.4C190.127 138.344 189.919 137.448 189.503 136.712C189.087 135.976 188.543 135.432 187.871 135.08C187.199 134.712 186.471 134.528 185.687 134.528C184.887 134.528 184.151 134.712 183.479 135.08C182.823 135.432 182.295 135.976 181.895 136.712C181.495 137.448 181.295 138.344 181.295 139.4C181.295 140.472 181.487 141.376 181.871 142.112C182.271 142.848 182.799 143.4 183.455 143.768C184.111 144.12 184.831 144.296 185.615 144.296ZM197.415 128.24V146H195.231V128.24H197.415ZM206.873 146.216C205.641 146.216 204.521 145.936 203.513 145.376C202.521 144.816 201.737 144.024 201.161 143C200.601 141.96 200.321 140.76 200.321 139.4C200.321 138.056 200.609 136.872 201.185 135.848C201.777 134.808 202.577 134.016 203.585 133.472C204.593 132.912 205.721 132.632 206.969 132.632C208.217 132.632 209.345 132.912 210.353 133.472C211.361 134.016 212.153 134.8 212.729 135.824C213.321 136.848 213.617 138.04 213.617 139.4C213.617 140.76 213.313 141.96 212.705 143C212.113 144.024 211.305 144.816 210.281 145.376C209.257 145.936 208.121 146.216 206.873 146.216ZM206.873 144.296C207.657 144.296 208.393 144.112 209.081 143.744C209.769 143.376 210.321 142.824 210.737 142.088C211.169 141.352 211.385 140.456 211.385 139.4C211.385 138.344 211.177 137.448 210.761 136.712C210.345 135.976 209.801 135.432 209.129 135.08C208.457 134.712 207.729 134.528 206.945 134.528C206.145 134.528 205.409 134.712 204.737 135.08C204.081 135.432 203.553 135.976 203.153 136.712C202.753 137.448 202.553 138.344 202.553 139.4C202.553 140.472 202.745 141.376 203.129 142.112C203.529 142.848 204.057 143.4 204.713 143.768C205.369 144.12 206.089 144.296 206.873 144.296ZM218.673 134.984C219.057 134.232 219.601 133.648 220.305 133.232C221.025 132.816 221.897 132.608 222.921 132.608V134.864H222.345C219.897 134.864 218.673 136.192 218.673 138.848V146H216.489V132.848H218.673V134.984ZM236.496 146.216C235.488 146.216 234.584 146.048 233.784 145.712C232.984 145.36 232.352 144.88 231.888 144.272C231.424 143.648 231.168 142.936 231.12 142.136H233.376C233.44 142.792 233.744 143.328 234.288 143.744C234.848 144.16 235.576 144.368 236.472 144.368C237.304 144.368 237.96 144.184 238.44 143.816C238.92 143.448 239.16 142.984 239.16 142.424C239.16 141.848 238.904 141.424 238.392 141.152C237.88 140.864 237.088 140.584 236.016 140.312C235.04 140.056 234.24 139.8 233.616 139.544C233.008 139.272 232.48 138.88 232.032 138.368C231.6 137.84 231.384 137.152 231.384 136.304C231.384 135.632 231.584 135.016 231.984 134.456C232.384 133.896 232.952 133.456 233.688 133.136C234.424 132.8 235.264 132.632 236.208 132.632C237.664 132.632 238.84 133 239.736 133.736C240.632 134.472 241.112 135.48 241.176 136.76H238.992C238.944 136.072 238.664 135.52 238.152 135.104C237.656 134.688 236.984 134.48 236.136 134.48C235.352 134.48 234.728 134.648 234.264 134.984C233.8 135.32 233.568 135.76 233.568 136.304C233.568 136.736 233.704 137.096 233.976 137.384C234.264 137.656 234.616 137.88 235.032 138.056C235.464 138.216 236.056 138.4 236.808 138.608C237.752 138.864 238.52 139.12 239.112 139.376C239.704 139.616 240.208 139.984 240.624 140.48C241.056 140.976 241.28 141.624 241.296 142.424C241.296 143.144 241.096 143.792 240.696 144.368C240.296 144.944 239.728 145.4 238.992 145.736C238.272 146.056 237.44 146.216 236.496 146.216ZM245.507 130.712C245.091 130.712 244.739 130.568 244.451 130.28C244.163 129.992 244.019 129.64 244.019 129.224C244.019 128.808 244.163 128.456 244.451 128.168C244.739 127.88 245.091 127.736 245.507 127.736C245.907 127.736 246.243 127.88 246.515 128.168C246.803 128.456 246.947 128.808 246.947 129.224C246.947 129.64 246.803 129.992 246.515 130.28C246.243 130.568 245.907 130.712 245.507 130.712ZM246.563 132.848V146H244.379V132.848H246.563ZM252.95 134.648V142.4C252.95 143.04 253.086 143.496 253.358 143.768C253.63 144.024 254.102 144.152 254.773 144.152H256.382V146H254.414C253.198 146 252.286 145.72 251.678 145.16C251.07 144.6 250.766 143.68 250.766 142.4V134.648H249.062V132.848H250.766V129.536H252.95V132.848H256.382V134.648H252.95ZM264.61 139.376C264.61 138.032 264.882 136.856 265.426 135.848C265.97 134.824 266.714 134.032 267.658 133.472C268.618 132.912 269.682 132.632 270.85 132.632C272.002 132.632 273.002 132.88 273.85 133.376C274.698 133.872 275.33 134.496 275.746 135.248V132.848H277.954V146H275.746V143.552C275.314 144.32 274.666 144.96 273.802 145.472C272.954 145.968 271.962 146.216 270.826 146.216C269.658 146.216 268.602 145.928 267.658 145.352C266.714 144.776 265.97 143.968 265.426 142.928C264.882 141.888 264.61 140.704 264.61 139.376ZM275.746 139.4C275.746 138.408 275.546 137.544 275.146 136.808C274.746 136.072 274.202 135.512 273.514 135.128C272.842 134.728 272.098 134.528 271.282 134.528C270.466 134.528 269.722 134.72 269.05 135.104C268.378 135.488 267.842 136.048 267.442 136.784C267.042 137.52 266.842 138.384 266.842 139.376C266.842 140.384 267.042 141.264 267.442 142.016C267.842 142.752 268.378 143.32 269.05 143.72C269.722 144.104 270.466 144.296 271.282 144.296C272.098 144.296 272.842 144.104 273.514 143.72C274.202 143.32 274.746 142.752 275.146 142.016C275.546 141.264 275.746 140.392 275.746 139.4ZM297.461 132.608C298.485 132.608 299.397 132.824 300.197 133.256C300.997 133.672 301.629 134.304 302.093 135.152C302.557 136 302.789 137.032 302.789 138.248V146H300.629V138.56C300.629 137.248 300.301 136.248 299.645 135.56C299.005 134.856 298.133 134.504 297.029 134.504C295.893 134.504 294.989 134.872 294.317 135.608C293.645 136.328 293.309 137.376 293.309 138.752V146H291.149V138.56C291.149 137.248 290.821 136.248 290.165 135.56C289.525 134.856 288.653 134.504 287.549 134.504C286.413 134.504 285.509 134.872 284.837 135.608C284.165 136.328 283.829 137.376 283.829 138.752V146H281.645V132.848H283.829V134.744C284.261 134.056 284.837 133.528 285.557 133.16C286.293 132.792 287.101 132.608 287.981 132.608C289.085 132.608 290.061 132.856 290.909 133.352C291.757 133.848 292.389 134.576 292.805 135.536C293.173 134.608 293.781 133.888 294.629 133.376C295.477 132.864 296.421 132.608 297.461 132.608ZM318.371 138.92C318.371 139.336 318.347 139.776 318.299 140.24H307.787C307.867 141.536 308.307 142.552 309.107 143.288C309.923 144.008 310.907 144.368 312.059 144.368C313.003 144.368 313.787 144.152 314.411 143.72C315.051 143.272 315.499 142.68 315.755 141.944H318.107C317.755 143.208 317.051 144.24 315.995 145.04C314.939 145.824 313.627 146.216 312.059 146.216C310.811 146.216 309.691 145.936 308.699 145.376C307.723 144.816 306.955 144.024 306.395 143C305.835 141.96 305.555 140.76 305.555 139.4C305.555 138.04 305.827 136.848 306.371 135.824C306.915 134.8 307.675 134.016 308.651 133.472C309.643 132.912 310.779 132.632 312.059 132.632C313.307 132.632 314.411 132.904 315.371 133.448C316.331 133.992 317.067 134.744 317.579 135.704C318.107 136.648 318.371 137.72 318.371 138.92ZM316.115 138.464C316.115 137.632 315.931 136.92 315.563 136.328C315.195 135.72 314.691 135.264 314.051 134.96C313.427 134.64 312.731 134.48 311.963 134.48C310.859 134.48 309.915 134.832 309.131 135.536C308.363 136.24 307.923 137.216 307.811 138.464H316.115ZM323.918 134.648V142.4C323.918 143.04 324.054 143.496 324.326 143.768C324.598 144.024 325.07 144.152 325.742 144.152H327.35V146H325.382C324.166 146 323.254 145.72 322.646 145.16C322.038 144.6 321.734 143.68 321.734 142.4V134.648H320.03V132.848H321.734V129.536H323.918V132.848H327.35V134.648H323.918ZM332.252 142.976L329.564 149.432H328.1L329.852 142.976H332.252ZM340.337 139.4C340.337 138.04 340.609 136.856 341.153 135.848C341.697 134.824 342.449 134.032 343.409 133.472C344.385 132.912 345.497 132.632 346.745 132.632C348.361 132.632 349.689 133.024 350.729 133.808C351.785 134.592 352.481 135.68 352.817 137.072H350.465C350.241 136.272 349.801 135.64 349.145 135.176C348.505 134.712 347.705 134.48 346.745 134.48C345.497 134.48 344.489 134.912 343.721 135.776C342.953 136.624 342.569 137.832 342.569 139.4C342.569 140.984 342.953 142.208 343.721 143.072C344.489 143.936 345.497 144.368 346.745 144.368C347.705 144.368 348.505 144.144 349.145 143.696C349.785 143.248 350.225 142.608 350.465 141.776H352.817C352.465 143.12 351.761 144.2 350.705 145.016C349.649 145.816 348.329 146.216 346.745 146.216C345.497 146.216 344.385 145.936 343.409 145.376C342.449 144.816 341.697 144.024 341.153 143C340.609 141.976 340.337 140.776 340.337 139.4ZM361.467 146.216C360.235 146.216 359.115 145.936 358.107 145.376C357.115 144.816 356.331 144.024 355.755 143C355.195 141.96 354.915 140.76 354.915 139.4C354.915 138.056 355.203 136.872 355.779 135.848C356.371 134.808 357.171 134.016 358.179 133.472C359.187 132.912 360.315 132.632 361.563 132.632C362.811 132.632 363.939 132.912 364.947 133.472C365.955 134.016 366.747 134.8 367.323 135.824C367.915 136.848 368.211 138.04 368.211 139.4C368.211 140.76 367.907 141.96 367.299 143C366.707 144.024 365.899 144.816 364.875 145.376C363.851 145.936 362.715 146.216 361.467 146.216ZM361.467 144.296C362.251 144.296 362.987 144.112 363.675 143.744C364.363 143.376 364.915 142.824 365.331 142.088C365.763 141.352 365.979 140.456 365.979 139.4C365.979 138.344 365.771 137.448 365.355 136.712C364.939 135.976 364.395 135.432 363.723 135.08C363.051 134.712 362.323 134.528 361.539 134.528C360.739 134.528 360.003 134.712 359.331 135.08C358.675 135.432 358.147 135.976 357.747 136.712C357.347 137.448 357.147 138.344 357.147 139.4C357.147 140.472 357.339 141.376 357.723 142.112C358.123 142.848 358.651 143.4 359.307 143.768C359.963 144.12 360.683 144.296 361.467 144.296ZM377.49 132.608C379.09 132.608 380.386 133.096 381.378 134.072C382.37 135.032 382.866 136.424 382.866 138.248V146H380.706V138.56C380.706 137.248 380.378 136.248 379.722 135.56C379.066 134.856 378.17 134.504 377.034 134.504C375.882 134.504 374.962 134.864 374.274 135.584C373.602 136.304 373.266 137.352 373.266 138.728V146H371.082V132.848H373.266V134.72C373.698 134.048 374.282 133.528 375.018 133.16C375.77 132.792 376.594 132.608 377.49 132.608ZM391.09 146.216C390.082 146.216 389.178 146.048 388.378 145.712C387.578 145.36 386.946 144.88 386.482 144.272C386.018 143.648 385.762 142.936 385.714 142.136H387.97C388.034 142.792 388.338 143.328 388.882 143.744C389.442 144.16 390.17 144.368 391.066 144.368C391.898 144.368 392.554 144.184 393.034 143.816C393.514 143.448 393.754 142.984 393.754 142.424C393.754 141.848 393.498 141.424 392.986 141.152C392.474 140.864 391.682 140.584 390.61 140.312C389.634 140.056 388.834 139.8 388.21 139.544C387.602 139.272 387.074 138.88 386.626 138.368C386.194 137.84 385.978 137.152 385.978 136.304C385.978 135.632 386.178 135.016 386.578 134.456C386.978 133.896 387.546 133.456 388.282 133.136C389.018 132.8 389.858 132.632 390.802 132.632C392.258 132.632 393.434 133 394.33 133.736C395.226 134.472 395.706 135.48 395.77 136.76H393.586C393.538 136.072 393.258 135.52 392.746 135.104C392.25 134.688 391.578 134.48 390.73 134.48C389.946 134.48 389.322 134.648 388.858 134.984C388.394 135.32 388.162 135.76 388.162 136.304C388.162 136.736 388.298 137.096 388.57 137.384C388.858 137.656 389.21 137.88 389.626 138.056C390.058 138.216 390.65 138.4 391.402 138.608C392.346 138.864 393.114 139.12 393.706 139.376C394.298 139.616 394.802 139.984 395.218 140.48C395.65 140.976 395.874 141.624 395.89 142.424C395.89 143.144 395.69 143.792 395.29 144.368C394.89 144.944 394.322 145.4 393.586 145.736C392.866 146.056 392.034 146.216 391.09 146.216ZM410.973 138.92C410.973 139.336 410.949 139.776 410.901 140.24H400.389C400.469 141.536 400.909 142.552 401.709 143.288C402.525 144.008 403.509 144.368 404.661 144.368C405.605 144.368 406.389 144.152 407.013 143.72C407.653 143.272 408.101 142.68 408.357 141.944H410.709C410.357 143.208 409.653 144.24 408.597 145.04C407.541 145.824 406.229 146.216 404.661 146.216C403.413 146.216 402.293 145.936 401.301 145.376C400.325 144.816 399.557 144.024 398.997 143C398.437 141.96 398.157 140.76 398.157 139.4C398.157 138.04 398.429 136.848 398.973 135.824C399.517 134.8 400.277 134.016 401.253 133.472C402.245 132.912 403.381 132.632 404.661 132.632C405.909 132.632 407.013 132.904 407.973 133.448C408.933 133.992 409.669 134.744 410.181 135.704C410.709 136.648 410.973 137.72 410.973 138.92ZM408.717 138.464C408.717 137.632 408.533 136.92 408.165 136.328C407.797 135.72 407.293 135.264 406.653 134.96C406.029 134.64 405.333 134.48 404.565 134.48C403.461 134.48 402.517 134.832 401.733 135.536C400.965 136.24 400.525 137.216 400.413 138.464H408.717ZM413.04 139.4C413.04 138.04 413.312 136.856 413.856 135.848C414.4 134.824 415.152 134.032 416.112 133.472C417.088 132.912 418.2 132.632 419.448 132.632C421.064 132.632 422.392 133.024 423.432 133.808C424.488 134.592 425.184 135.68 425.52 137.072H423.168C422.944 136.272 422.504 135.64 421.848 135.176C421.208 134.712 420.408 134.48 419.448 134.48C418.2 134.48 417.192 134.912 416.424 135.776C415.656 136.624 415.272 137.832 415.272 139.4C415.272 140.984 415.656 142.208 416.424 143.072C417.192 143.936 418.2 144.368 419.448 144.368C420.408 144.368 421.208 144.144 421.848 143.696C422.488 143.248 422.928 142.608 423.168 141.776H425.52C425.168 143.12 424.464 144.2 423.408 145.016C422.352 145.816 421.032 146.216 419.448 146.216C418.2 146.216 417.088 145.936 416.112 145.376C415.152 144.816 414.4 144.024 413.856 143C413.312 141.976 413.04 140.776 413.04 139.4ZM431.098 134.648V142.4C431.098 143.04 431.234 143.496 431.506 143.768C431.778 144.024 432.25 144.152 432.922 144.152H434.53V146H432.562C431.346 146 430.434 145.72 429.826 145.16C429.218 144.6 428.914 143.68 428.914 142.4V134.648H427.21V132.848H428.914V129.536H431.098V132.848H434.53V134.648H431.098ZM449.176 138.92C449.176 139.336 449.152 139.776 449.104 140.24H438.592C438.672 141.536 439.112 142.552 439.912 143.288C440.728 144.008 441.712 144.368 442.864 144.368C443.808 144.368 444.592 144.152 445.216 143.72C445.856 143.272 446.304 142.68 446.56 141.944H448.912C448.56 143.208 447.856 144.24 446.8 145.04C445.744 145.824 444.432 146.216 442.864 146.216C441.616 146.216 440.496 145.936 439.504 145.376C438.528 144.816 437.76 144.024 437.2 143C436.64 141.96 436.36 140.76 436.36 139.4C436.36 138.04 436.632 136.848 437.176 135.824C437.72 134.8 438.48 134.016 439.456 133.472C440.448 132.912 441.584 132.632 442.864 132.632C444.112 132.632 445.216 132.904 446.176 133.448C447.136 133.992 447.872 134.744 448.384 135.704C448.912 136.648 449.176 137.72 449.176 138.92ZM446.92 138.464C446.92 137.632 446.736 136.92 446.368 136.328C446 135.72 445.496 135.264 444.856 134.96C444.232 134.64 443.536 134.48 442.768 134.48C441.664 134.48 440.72 134.832 439.936 135.536C439.168 136.24 438.728 137.216 438.616 138.464H446.92ZM454.723 134.648V142.4C454.723 143.04 454.859 143.496 455.131 143.768C455.403 144.024 455.875 144.152 456.547 144.152H458.155V146H456.187C454.971 146 454.059 145.72 453.451 145.16C452.843 144.6 452.539 143.68 452.539 142.4V134.648H450.835V132.848H452.539V129.536H454.723V132.848H458.155V134.648H454.723ZM472.465 132.848V146H470.281V144.056C469.865 144.728 469.281 145.256 468.529 145.64C467.793 146.008 466.977 146.192 466.081 146.192C465.057 146.192 464.137 145.984 463.321 145.568C462.505 145.136 461.857 144.496 461.377 143.648C460.913 142.8 460.681 141.768 460.681 140.552V132.848H462.841V140.264C462.841 141.56 463.169 142.56 463.825 143.264C464.481 143.952 465.377 144.296 466.513 144.296C467.681 144.296 468.601 143.936 469.273 143.216C469.945 142.496 470.281 141.448 470.281 140.072V132.848H472.465ZM478.337 134.984C478.721 134.232 479.265 133.648 479.969 133.232C480.689 132.816 481.561 132.608 482.585 132.608V134.864H482.009C479.561 134.864 478.337 136.192 478.337 138.848V146H476.153V132.848H478.337V134.984ZM490.688 139.376C490.688 138.032 490.96 136.856 491.504 135.848C492.048 134.824 492.792 134.032 493.736 133.472C494.696 132.912 495.76 132.632 496.928 132.632C498.08 132.632 499.08 132.88 499.928 133.376C500.776 133.872 501.408 134.496 501.824 135.248V132.848H504.032V146H501.824V143.552C501.392 144.32 500.744 144.96 499.88 145.472C499.032 145.968 498.04 146.216 496.904 146.216C495.736 146.216 494.68 145.928 493.736 145.352C492.792 144.776 492.048 143.968 491.504 142.928C490.96 141.888 490.688 140.704 490.688 139.376ZM501.824 139.4C501.824 138.408 501.624 137.544 501.224 136.808C500.824 136.072 500.28 135.512 499.592 135.128C498.92 134.728 498.176 134.528 497.36 134.528C496.544 134.528 495.8 134.72 495.128 135.104C494.456 135.488 493.92 136.048 493.52 136.784C493.12 137.52 492.92 138.384 492.92 139.376C492.92 140.384 493.12 141.264 493.52 142.016C493.92 142.752 494.456 143.32 495.128 143.72C495.8 144.104 496.544 144.296 497.36 144.296C498.176 144.296 498.92 144.104 499.592 143.72C500.28 143.32 500.824 142.752 501.224 142.016C501.624 141.264 501.824 140.392 501.824 139.4ZM506.907 139.376C506.907 138.032 507.179 136.856 507.723 135.848C508.267 134.824 509.011 134.032 509.955 133.472C510.915 132.912 511.987 132.632 513.171 132.632C514.195 132.632 515.147 132.872 516.027 133.352C516.907 133.816 517.579 134.432 518.043 135.2V128.24H520.251V146H518.043V143.528C517.611 144.312 516.971 144.96 516.123 145.472C515.275 145.968 514.283 146.216 513.147 146.216C511.979 146.216 510.915 145.928 509.955 145.352C509.011 144.776 508.267 143.968 507.723 142.928C507.179 141.888 506.907 140.704 506.907 139.376ZM518.043 139.4C518.043 138.408 517.843 137.544 517.443 136.808C517.043 136.072 516.499 135.512 515.811 135.128C515.139 134.728 514.395 134.528 513.579 134.528C512.763 134.528 512.019 134.72 511.347 135.104C510.675 135.488 510.139 136.048 509.739 136.784C509.339 137.52 509.139 138.384 509.139 139.376C509.139 140.384 509.339 141.264 509.739 142.016C510.139 142.752 510.675 143.32 511.347 143.72C512.019 144.104 512.763 144.296 513.579 144.296C514.395 144.296 515.139 144.104 515.811 143.72C516.499 143.32 517.043 142.752 517.443 142.016C517.843 141.264 518.043 140.392 518.043 139.4ZM525.07 130.712C524.654 130.712 524.302 130.568 524.014 130.28C523.726 129.992 523.582 129.64 523.582 129.224C523.582 128.808 523.726 128.456 524.014 128.168C524.302 127.88 524.654 127.736 525.07 127.736C525.47 127.736 525.806 127.88 526.078 128.168C526.366 128.456 526.51 128.808 526.51 129.224C526.51 129.64 526.366 129.992 526.078 130.28C525.806 130.568 525.47 130.712 525.07 130.712ZM526.126 132.848V146H523.942V132.848H526.126ZM532.032 135.272C532.464 134.52 533.104 133.896 533.952 133.4C534.816 132.888 535.816 132.632 536.952 132.632C538.12 132.632 539.176 132.912 540.12 133.472C541.08 134.032 541.832 134.824 542.376 135.848C542.92 136.856 543.192 138.032 543.192 139.376C543.192 140.704 542.92 141.888 542.376 142.928C541.832 143.968 541.08 144.776 540.12 145.352C539.176 145.928 538.12 146.216 536.952 146.216C535.832 146.216 534.84 145.968 533.976 145.472C533.128 144.96 532.48 144.328 532.032 143.576V152.24H529.848V132.848H532.032V135.272ZM540.96 139.376C540.96 138.384 540.76 137.52 540.36 136.784C539.96 136.048 539.416 135.488 538.728 135.104C538.056 134.72 537.312 134.528 536.496 134.528C535.696 134.528 534.952 134.728 534.264 135.128C533.592 135.512 533.048 136.08 532.632 136.832C532.232 137.568 532.032 138.424 532.032 139.4C532.032 140.392 532.232 141.264 532.632 142.016C533.048 142.752 533.592 143.32 534.264 143.72C534.952 144.104 535.696 144.296 536.496 144.296C537.312 144.296 538.056 144.104 538.728 143.72C539.416 143.32 539.96 142.752 540.36 142.016C540.76 141.264 540.96 140.384 540.96 139.376ZM547.195 130.712C546.779 130.712 546.427 130.568 546.139 130.28C545.851 129.992 545.707 129.64 545.707 129.224C545.707 128.808 545.851 128.456 546.139 128.168C546.427 127.88 546.779 127.736 547.195 127.736C547.595 127.736 547.931 127.88 548.203 128.168C548.491 128.456 548.635 128.808 548.635 129.224C548.635 129.64 548.491 129.992 548.203 130.28C547.931 130.568 547.595 130.712 547.195 130.712ZM548.251 132.848V146H546.067V132.848H548.251ZM556.629 146.216C555.621 146.216 554.717 146.048 553.917 145.712C553.117 145.36 552.485 144.88 552.021 144.272C551.557 143.648 551.301 142.936 551.253 142.136H553.509C553.573 142.792 553.877 143.328 554.421 143.744C554.981 144.16 555.709 144.368 556.605 144.368C557.437 144.368 558.093 144.184 558.573 143.816C559.053 143.448 559.293 142.984 559.293 142.424C559.293 141.848 559.037 141.424 558.525 141.152C558.013 140.864 557.221 140.584 556.149 140.312C555.173 140.056 554.373 139.8 553.749 139.544C553.141 139.272 552.613 138.88 552.165 138.368C551.733 137.84 551.517 137.152 551.517 136.304C551.517 135.632 551.717 135.016 552.117 134.456C552.517 133.896 553.085 133.456 553.821 133.136C554.557 132.8 555.397 132.632 556.341 132.632C557.797 132.632 558.973 133 559.869 133.736C560.765 134.472 561.245 135.48 561.309 136.76H559.125C559.077 136.072 558.797 135.52 558.285 135.104C557.789 134.688 557.117 134.48 556.269 134.48C555.485 134.48 554.861 134.648 554.397 134.984C553.933 135.32 553.701 135.76 553.701 136.304C553.701 136.736 553.837 137.096 554.109 137.384C554.397 137.656 554.749 137.88 555.165 138.056C555.597 138.216 556.189 138.4 556.941 138.608C557.885 138.864 558.653 139.12 559.245 139.376C559.837 139.616 560.341 139.984 560.757 140.48C561.189 140.976 561.413 141.624 561.429 142.424C561.429 143.144 561.229 143.792 560.829 144.368C560.429 144.944 559.861 145.4 559.125 145.736C558.405 146.056 557.573 146.216 556.629 146.216ZM563.696 139.4C563.696 138.04 563.968 136.856 564.512 135.848C565.056 134.824 565.808 134.032 566.768 133.472C567.744 132.912 568.856 132.632 570.104 132.632C571.72 132.632 573.048 133.024 574.088 133.808C575.144 134.592 575.84 135.68 576.176 137.072H573.824C573.6 136.272 573.16 135.64 572.504 135.176C571.864 134.712 571.064 134.48 570.104 134.48C568.856 134.48 567.848 134.912 567.08 135.776C566.312 136.624 565.928 137.832 565.928 139.4C565.928 140.984 566.312 142.208 567.08 143.072C567.848 143.936 568.856 144.368 570.104 144.368C571.064 144.368 571.864 144.144 572.504 143.696C573.144 143.248 573.584 142.608 573.824 141.776H576.176C575.824 143.12 575.12 144.2 574.064 145.016C573.008 145.816 571.688 146.216 570.104 146.216C568.856 146.216 567.744 145.936 566.768 145.376C565.808 144.816 565.056 144.024 564.512 143C563.968 141.976 563.696 140.776 563.696 139.4ZM580.218 130.712C579.802 130.712 579.45 130.568 579.162 130.28C578.874 129.992 578.73 129.64 578.73 129.224C578.73 128.808 578.874 128.456 579.162 128.168C579.45 127.88 579.802 127.736 580.218 127.736C580.618 127.736 580.954 127.88 581.226 128.168C581.514 128.456 581.658 128.808 581.658 129.224C581.658 129.64 581.514 129.992 581.226 130.28C580.954 130.568 580.618 130.712 580.218 130.712ZM581.274 132.848V146H579.09V132.848H581.274ZM591.404 132.608C593.004 132.608 594.3 133.096 595.292 134.072C596.284 135.032 596.78 136.424 596.78 138.248V146H594.62V138.56C594.62 137.248 594.292 136.248 593.636 135.56C592.98 134.856 592.084 134.504 590.948 134.504C589.796 134.504 588.876 134.864 588.188 135.584C587.516 136.304 587.18 137.352 587.18 138.728V146H584.996V132.848H587.18V134.72C587.612 134.048 588.196 133.528 588.932 133.16C589.684 132.792 590.508 132.608 591.404 132.608ZM605.772 132.632C606.908 132.632 607.9 132.88 608.748 133.376C609.612 133.872 610.252 134.496 610.668 135.248V132.848H612.876V146.288C612.876 147.488 612.62 148.552 612.108 149.48C611.596 150.424 610.86 151.16 609.9 151.688C608.956 152.216 607.852 152.48 606.588 152.48C604.86 152.48 603.42 152.072 602.268 151.256C601.116 150.44 600.436 149.328 600.228 147.92H602.388C602.628 148.72 603.124 149.36 603.876 149.84C604.628 150.336 605.532 150.584 606.588 150.584C607.788 150.584 608.764 150.208 609.516 149.456C610.284 148.704 610.668 147.648 610.668 146.288V143.528C610.236 144.296 609.596 144.936 608.748 145.448C607.9 145.96 606.908 146.216 605.772 146.216C604.604 146.216 603.54 145.928 602.58 145.352C601.636 144.776 600.892 143.968 600.348 142.928C599.804 141.888 599.532 140.704 599.532 139.376C599.532 138.032 599.804 136.856 600.348 135.848C600.892 134.824 601.636 134.032 602.58 133.472C603.54 132.912 604.604 132.632 605.772 132.632ZM610.668 139.4C610.668 138.408 610.468 137.544 610.068 136.808C609.668 136.072 609.124 135.512 608.436 135.128C607.764 134.728 607.02 134.528 606.204 134.528C605.388 134.528 604.644 134.72 603.972 135.104C603.3 135.488 602.764 136.048 602.364 136.784C601.964 137.52 601.764 138.384 601.764 139.376C601.764 140.384 601.964 141.264 602.364 142.016C602.764 142.752 603.3 143.32 603.972 143.72C604.644 144.104 605.388 144.296 606.204 144.296C607.02 144.296 607.764 144.104 608.436 143.72C609.124 143.32 609.668 142.752 610.068 142.016C610.468 141.264 610.668 140.392 610.668 139.4ZM13.848 174.92C13.848 175.336 13.824 175.776 13.776 176.24H3.264C3.344 177.536 3.784 178.552 4.584 179.288C5.4 180.008 6.384 180.368 7.536 180.368C8.48 180.368 9.264 180.152 9.888 179.72C10.528 179.272 10.976 178.68 11.232 177.944H13.584C13.232 179.208 12.528 180.24 11.472 181.04C10.416 181.824 9.104 182.216 7.536 182.216C6.288 182.216 5.168 181.936 4.176 181.376C3.2 180.816 2.432 180.024 1.872 179C1.312 177.96 1.032 176.76 1.032 175.4C1.032 174.04 1.304 172.848 1.848 171.824C2.392 170.8 3.152 170.016 4.128 169.472C5.12 168.912 6.256 168.632 7.536 168.632C8.784 168.632 9.888 168.904 10.848 169.448C11.808 169.992 12.544 170.744 13.056 171.704C13.584 172.648 13.848 173.72 13.848 174.92ZM11.592 174.464C11.592 173.632 11.408 172.92 11.04 172.328C10.672 171.72 10.168 171.264 9.528 170.96C8.904 170.64 8.208 170.48 7.44 170.48C6.336 170.48 5.392 170.832 4.608 171.536C3.84 172.24 3.4 173.216 3.288 174.464H11.592ZM18.9148 164.24V182H16.7308V164.24H18.9148ZM23.7651 166.712C23.3491 166.712 22.9971 166.568 22.7091 166.28C22.4211 165.992 22.2771 165.64 22.2771 165.224C22.2771 164.808 22.4211 164.456 22.7091 164.168C22.9971 163.88 23.3491 163.736 23.7651 163.736C24.1651 163.736 24.5011 163.88 24.7731 164.168C25.0611 164.456 25.2051 164.808 25.2051 165.224C25.2051 165.64 25.0611 165.992 24.7731 166.28C24.5011 166.568 24.1651 166.712 23.7651 166.712ZM24.8211 168.848V182H22.6371V168.848H24.8211ZM31.2073 170.648V178.4C31.2073 179.04 31.3433 179.496 31.6153 179.768C31.8873 180.024 32.3593 180.152 33.0313 180.152H34.6393V182H32.6713C31.4553 182 30.5433 181.72 29.9353 181.16C29.3273 180.6 29.0233 179.68 29.0233 178.4V170.648H27.3193V168.848H29.0233V165.536H31.2073V168.848H34.6393V170.648H31.2073ZM37.9815 182.144C37.5655 182.144 37.2135 182 36.9255 181.712C36.6375 181.424 36.4935 181.072 36.4935 180.656C36.4935 180.24 36.6375 179.888 36.9255 179.6C37.2135 179.312 37.5655 179.168 37.9815 179.168C38.3815 179.168 38.7175 179.312 38.9895 179.6C39.2775 179.888 39.4215 180.24 39.4215 180.656C39.4215 181.072 39.2775 181.424 38.9895 181.712C38.7175 182 38.3815 182.144 37.9815 182.144ZM58.179 165.272V167.048H50.907V172.688H56.811V174.464H50.907V182H48.723V165.272H58.179ZM60.0008 175.376C60.0008 174.032 60.2728 172.856 60.8168 171.848C61.3608 170.824 62.1048 170.032 63.0488 169.472C64.0088 168.912 65.0728 168.632 66.2408 168.632C67.3928 168.632 68.3928 168.88 69.2408 169.376C70.0888 169.872 70.7208 170.496 71.1368 171.248V168.848H73.3448V182H71.1368V179.552C70.7048 180.32 70.0568 180.96 69.1928 181.472C68.3448 181.968 67.3528 182.216 66.2168 182.216C65.0488 182.216 63.9928 181.928 63.0488 181.352C62.1048 180.776 61.3608 179.968 60.8168 178.928C60.2728 177.888 60.0008 176.704 60.0008 175.376ZM71.1368 175.4C71.1368 174.408 70.9368 173.544 70.5368 172.808C70.1368 172.072 69.5928 171.512 68.9048 171.128C68.2328 170.728 67.4888 170.528 66.6728 170.528C65.8568 170.528 65.1128 170.72 64.4408 171.104C63.7688 171.488 63.2328 172.048 62.8328 172.784C62.4328 173.52 62.2328 174.384 62.2328 175.376C62.2328 176.384 62.4328 177.264 62.8328 178.016C63.2328 178.752 63.7688 179.32 64.4408 179.72C65.1128 180.104 65.8568 180.296 66.6728 180.296C67.4888 180.296 68.2328 180.104 68.9048 179.72C69.5928 179.32 70.1368 178.752 70.5368 178.016C70.9368 177.264 71.1368 176.392 71.1368 175.4ZM88.6995 168.848V182H86.5155V180.056C86.0995 180.728 85.5155 181.256 84.7635 181.64C84.0275 182.008 83.2115 182.192 82.3155 182.192C81.2915 182.192 80.3715 181.984 79.5555 181.568C78.7395 181.136 78.0915 180.496 77.6115 179.648C77.1475 178.8 76.9155 177.768 76.9155 176.552V168.848H79.0755V176.264C79.0755 177.56 79.4035 178.56 80.0595 179.264C80.7155 179.952 81.6115 180.296 82.7475 180.296C83.9155 180.296 84.8355 179.936 85.5075 179.216C86.1795 178.496 86.5155 177.448 86.5155 176.072V168.848H88.6995ZM91.5711 175.4C91.5711 174.04 91.8431 172.856 92.3871 171.848C92.9311 170.824 93.6831 170.032 94.6431 169.472C95.6191 168.912 96.7311 168.632 97.9791 168.632C99.5951 168.632 100.923 169.024 101.963 169.808C103.019 170.592 103.715 171.68 104.051 173.072H101.699C101.475 172.272 101.035 171.64 100.379 171.176C99.7391 170.712 98.9391 170.48 97.9791 170.48C96.7311 170.48 95.7231 170.912 94.9551 171.776C94.1871 172.624 93.8031 173.832 93.8031 175.4C93.8031 176.984 94.1871 178.208 94.9551 179.072C95.7231 179.936 96.7311 180.368 97.9791 180.368C98.9391 180.368 99.7391 180.144 100.379 179.696C101.019 179.248 101.459 178.608 101.699 177.776H104.051C103.699 179.12 102.995 180.2 101.939 181.016C100.883 181.816 99.5631 182.216 97.9791 182.216C96.7311 182.216 95.6191 181.936 94.6431 181.376C93.6831 180.816 92.9311 180.024 92.3871 179C91.8431 177.976 91.5711 176.776 91.5711 175.4ZM108.093 166.712C107.677 166.712 107.325 166.568 107.037 166.28C106.749 165.992 106.605 165.64 106.605 165.224C106.605 164.808 106.749 164.456 107.037 164.168C107.325 163.88 107.677 163.736 108.093 163.736C108.493 163.736 108.829 163.88 109.101 164.168C109.389 164.456 109.533 164.808 109.533 165.224C109.533 165.64 109.389 165.992 109.101 166.28C108.829 166.568 108.493 166.712 108.093 166.712ZM109.149 168.848V182H106.965V168.848H109.149ZM115.055 171.296C115.503 170.512 116.159 169.872 117.023 169.376C117.887 168.88 118.871 168.632 119.975 168.632C121.159 168.632 122.223 168.912 123.167 169.472C124.111 170.032 124.855 170.824 125.399 171.848C125.943 172.856 126.215 174.032 126.215 175.376C126.215 176.704 125.943 177.888 125.399 178.928C124.855 179.968 124.103 180.776 123.143 181.352C122.199 181.928 121.143 182.216 119.975 182.216C118.839 182.216 117.839 181.968 116.975 181.472C116.127 180.976 115.487 180.344 115.055 179.576V182H112.871V164.24H115.055V171.296ZM123.983 175.376C123.983 174.384 123.783 173.52 123.383 172.784C122.983 172.048 122.439 171.488 121.751 171.104C121.079 170.72 120.335 170.528 119.519 170.528C118.719 170.528 117.975 170.728 117.287 171.128C116.615 171.512 116.071 172.08 115.655 172.832C115.255 173.568 115.055 174.424 115.055 175.4C115.055 176.392 115.255 177.264 115.655 178.016C116.071 178.752 116.615 179.32 117.287 179.72C117.975 180.104 118.719 180.296 119.519 180.296C120.335 180.296 121.079 180.104 121.751 179.72C122.439 179.32 122.983 178.752 123.383 178.016C123.783 177.264 123.983 176.384 123.983 175.376ZM140.754 168.848V182H138.57V180.056C138.154 180.728 137.57 181.256 136.818 181.64C136.082 182.008 135.266 182.192 134.37 182.192C133.346 182.192 132.426 181.984 131.61 181.568C130.794 181.136 130.146 180.496 129.666 179.648C129.202 178.8 128.97 177.768 128.97 176.552V168.848H131.13V176.264C131.13 177.56 131.458 178.56 132.114 179.264C132.77 179.952 133.666 180.296 134.802 180.296C135.97 180.296 136.89 179.936 137.562 179.216C138.234 178.496 138.57 177.448 138.57 176.072V168.848H140.754ZM149.098 182.216C148.09 182.216 147.186 182.048 146.386 181.712C145.586 181.36 144.954 180.88 144.49 180.272C144.026 179.648 143.77 178.936 143.722 178.136H145.978C146.042 178.792 146.346 179.328 146.89 179.744C147.45 180.16 148.178 180.368 149.074 180.368C149.906 180.368 150.562 180.184 151.042 179.816C151.522 179.448 151.762 178.984 151.762 178.424C151.762 177.848 151.506 177.424 150.994 177.152C150.482 176.864 149.69 176.584 148.618 176.312C147.642 176.056 146.842 175.8 146.218 175.544C145.61 175.272 145.082 174.88 144.634 174.368C144.202 173.84 143.986 173.152 143.986 172.304C143.986 171.632 144.186 171.016 144.586 170.456C144.986 169.896 145.554 169.456 146.29 169.136C147.026 168.8 147.866 168.632 148.81 168.632C150.266 168.632 151.442 169 152.338 169.736C153.234 170.472 153.714 171.48 153.778 172.76H151.594C151.546 172.072 151.266 171.52 150.754 171.104C150.258 170.688 149.586 170.48 148.738 170.48C147.954 170.48 147.33 170.648 146.866 170.984C146.402 171.32 146.17 171.76 146.17 172.304C146.17 172.736 146.306 173.096 146.578 173.384C146.866 173.656 147.218 173.88 147.634 174.056C148.066 174.216 148.658 174.4 149.41 174.608C150.354 174.864 151.122 175.12 151.714 175.376C152.306 175.616 152.81 175.984 153.226 176.48C153.658 176.976 153.882 177.624 153.898 178.424C153.898 179.144 153.698 179.792 153.298 180.368C152.898 180.944 152.33 181.4 151.594 181.736C150.874 182.056 150.042 182.216 149.098 182.216ZM164.507 166.712C164.091 166.712 163.739 166.568 163.451 166.28C163.163 165.992 163.019 165.64 163.019 165.224C163.019 164.808 163.163 164.456 163.451 164.168C163.739 163.88 164.091 163.736 164.507 163.736C164.907 163.736 165.243 163.88 165.515 164.168C165.803 164.456 165.947 164.808 165.947 165.224C165.947 165.64 165.803 165.992 165.515 166.28C165.243 166.568 164.907 166.712 164.507 166.712ZM165.563 168.848V182H163.379V168.848H165.563ZM175.694 168.608C177.294 168.608 178.59 169.096 179.582 170.072C180.574 171.032 181.07 172.424 181.07 174.248V182H178.91V174.56C178.91 173.248 178.582 172.248 177.926 171.56C177.27 170.856 176.374 170.504 175.238 170.504C174.086 170.504 173.166 170.864 172.478 171.584C171.806 172.304 171.47 173.352 171.47 174.728V182H169.286V168.848H171.47V170.72C171.902 170.048 172.486 169.528 173.222 169.16C173.974 168.792 174.798 168.608 175.694 168.608ZM193.22 164.24V182H191.036V164.24H193.22ZM198.07 166.712C197.654 166.712 197.302 166.568 197.014 166.28C196.726 165.992 196.582 165.64 196.582 165.224C196.582 164.808 196.726 164.456 197.014 164.168C197.302 163.88 197.654 163.736 198.07 163.736C198.47 163.736 198.806 163.88 199.078 164.168C199.366 164.456 199.51 164.808 199.51 165.224C199.51 165.64 199.366 165.992 199.078 166.28C198.806 166.568 198.47 166.712 198.07 166.712ZM199.126 168.848V182H196.942V168.848H199.126ZM205.032 171.296C205.48 170.512 206.136 169.872 207 169.376C207.864 168.88 208.848 168.632 209.952 168.632C211.136 168.632 212.2 168.912 213.144 169.472C214.088 170.032 214.832 170.824 215.376 171.848C215.92 172.856 216.192 174.032 216.192 175.376C216.192 176.704 215.92 177.888 215.376 178.928C214.832 179.968 214.08 180.776 213.12 181.352C212.176 181.928 211.12 182.216 209.952 182.216C208.816 182.216 207.816 181.968 206.952 181.472C206.104 180.976 205.464 180.344 205.032 179.576V182H202.848V164.24H205.032V171.296ZM213.96 175.376C213.96 174.384 213.76 173.52 213.36 172.784C212.96 172.048 212.416 171.488 211.728 171.104C211.056 170.72 210.312 170.528 209.496 170.528C208.696 170.528 207.952 170.728 207.264 171.128C206.592 171.512 206.048 172.08 205.632 172.832C205.232 173.568 205.032 174.424 205.032 175.4C205.032 176.392 205.232 177.264 205.632 178.016C206.048 178.752 206.592 179.32 207.264 179.72C207.952 180.104 208.696 180.296 209.496 180.296C210.312 180.296 211.056 180.104 211.728 179.72C212.416 179.32 212.96 178.752 213.36 178.016C213.76 177.264 213.96 176.384 213.96 175.376ZM231.067 174.92C231.067 175.336 231.043 175.776 230.995 176.24H220.483C220.563 177.536 221.003 178.552 221.803 179.288C222.619 180.008 223.603 180.368 224.755 180.368C225.699 180.368 226.483 180.152 227.107 179.72C227.747 179.272 228.195 178.68 228.451 177.944H230.803C230.451 179.208 229.747 180.24 228.691 181.04C227.635 181.824 226.323 182.216 224.755 182.216C223.507 182.216 222.387 181.936 221.395 181.376C220.419 180.816 219.651 180.024 219.091 179C218.531 177.96 218.251 176.76 218.251 175.4C218.251 174.04 218.523 172.848 219.067 171.824C219.611 170.8 220.371 170.016 221.347 169.472C222.339 168.912 223.475 168.632 224.755 168.632C226.003 168.632 227.107 168.904 228.067 169.448C229.027 169.992 229.763 170.744 230.275 171.704C230.803 172.648 231.067 173.72 231.067 174.92ZM228.811 174.464C228.811 173.632 228.627 172.92 228.259 172.328C227.891 171.72 227.387 171.264 226.747 170.96C226.123 170.64 225.427 170.48 224.659 170.48C223.555 170.48 222.611 170.832 221.827 171.536C221.059 172.24 220.619 173.216 220.507 174.464H228.811ZM236.134 170.984C236.518 170.232 237.062 169.648 237.766 169.232C238.486 168.816 239.358 168.608 240.382 168.608V170.864H239.806C237.358 170.864 236.134 172.192 236.134 174.848V182H233.95V168.848H236.134V170.984ZM248.639 182.216C247.407 182.216 246.287 181.936 245.279 181.376C244.287 180.816 243.503 180.024 242.927 179C242.367 177.96 242.087 176.76 242.087 175.4C242.087 174.056 242.375 172.872 242.951 171.848C243.543 170.808 244.343 170.016 245.351 169.472C246.359 168.912 247.487 168.632 248.735 168.632C249.983 168.632 251.111 168.912 252.119 169.472C253.127 170.016 253.919 170.8 254.495 171.824C255.087 172.848 255.383 174.04 255.383 175.4C255.383 176.76 255.079 177.96 254.471 179C253.879 180.024 253.071 180.816 252.047 181.376C251.023 181.936 249.887 182.216 248.639 182.216ZM248.639 180.296C249.423 180.296 250.159 180.112 250.847 179.744C251.535 179.376 252.087 178.824 252.503 178.088C252.935 177.352 253.151 176.456 253.151 175.4C253.151 174.344 252.943 173.448 252.527 172.712C252.111 171.976 251.567 171.432 250.895 171.08C250.223 170.712 249.495 170.528 248.711 170.528C247.911 170.528 247.175 170.712 246.503 171.08C245.847 171.432 245.319 171.976 244.919 172.712C244.519 173.448 244.319 174.344 244.319 175.4C244.319 176.472 244.511 177.376 244.895 178.112C245.295 178.848 245.823 179.4 246.479 179.768C247.135 180.12 247.855 180.296 248.639 180.296ZM266.837 170.984C267.221 170.232 267.765 169.648 268.469 169.232C269.189 168.816 270.061 168.608 271.085 168.608V170.864H270.509C268.061 170.864 266.837 172.192 266.837 174.848V182H264.653V168.848H266.837V170.984ZM274.734 166.712C274.318 166.712 273.966 166.568 273.678 166.28C273.39 165.992 273.246 165.64 273.246 165.224C273.246 164.808 273.39 164.456 273.678 164.168C273.966 163.88 274.318 163.736 274.734 163.736C275.134 163.736 275.47 163.88 275.742 164.168C276.03 164.456 276.174 164.808 276.174 165.224C276.174 165.64 276.03 165.992 275.742 166.28C275.47 166.568 275.134 166.712 274.734 166.712ZM275.79 168.848V182H273.606V168.848H275.79ZM284.168 182.216C283.16 182.216 282.256 182.048 281.456 181.712C280.656 181.36 280.024 180.88 279.56 180.272C279.096 179.648 278.84 178.936 278.792 178.136H281.048C281.112 178.792 281.416 179.328 281.96 179.744C282.52 180.16 283.248 180.368 284.144 180.368C284.976 180.368 285.632 180.184 286.112 179.816C286.592 179.448 286.832 178.984 286.832 178.424C286.832 177.848 286.576 177.424 286.064 177.152C285.552 176.864 284.76 176.584 283.688 176.312C282.712 176.056 281.912 175.8 281.288 175.544C280.68 175.272 280.152 174.88 279.704 174.368C279.272 173.84 279.056 173.152 279.056 172.304C279.056 171.632 279.256 171.016 279.656 170.456C280.056 169.896 280.624 169.456 281.36 169.136C282.096 168.8 282.936 168.632 283.88 168.632C285.336 168.632 286.512 169 287.408 169.736C288.304 170.472 288.784 171.48 288.848 172.76H286.664C286.616 172.072 286.336 171.52 285.824 171.104C285.328 170.688 284.656 170.48 283.808 170.48C283.024 170.48 282.4 170.648 281.936 170.984C281.472 171.32 281.24 171.76 281.24 172.304C281.24 172.736 281.376 173.096 281.648 173.384C281.936 173.656 282.288 173.88 282.704 174.056C283.136 174.216 283.728 174.4 284.48 174.608C285.424 174.864 286.192 175.12 286.784 175.376C287.376 175.616 287.88 175.984 288.296 176.48C288.728 176.976 288.952 177.624 288.968 178.424C288.968 179.144 288.768 179.792 288.368 180.368C287.968 180.944 287.4 181.4 286.664 181.736C285.944 182.056 285.112 182.216 284.168 182.216ZM303.715 168.848V182H301.531V180.056C301.115 180.728 300.531 181.256 299.779 181.64C299.043 182.008 298.227 182.192 297.331 182.192C296.307 182.192 295.387 181.984 294.571 181.568C293.755 181.136 293.107 180.496 292.627 179.648C292.163 178.8 291.931 177.768 291.931 176.552V168.848H294.091V176.264C294.091 177.56 294.419 178.56 295.075 179.264C295.731 179.952 296.627 180.296 297.763 180.296C298.931 180.296 299.851 179.936 300.523 179.216C301.195 178.496 301.531 177.448 301.531 176.072V168.848H303.715ZM312.059 182.216C311.051 182.216 310.147 182.048 309.347 181.712C308.547 181.36 307.915 180.88 307.451 180.272C306.987 179.648 306.731 178.936 306.683 178.136H308.939C309.003 178.792 309.307 179.328 309.851 179.744C310.411 180.16 311.139 180.368 312.035 180.368C312.867 180.368 313.523 180.184 314.003 179.816C314.483 179.448 314.723 178.984 314.723 178.424C314.723 177.848 314.467 177.424 313.955 177.152C313.443 176.864 312.651 176.584 311.579 176.312C310.603 176.056 309.803 175.8 309.179 175.544C308.571 175.272 308.043 174.88 307.595 174.368C307.163 173.84 306.947 173.152 306.947 172.304C306.947 171.632 307.147 171.016 307.547 170.456C307.947 169.896 308.515 169.456 309.251 169.136C309.987 168.8 310.827 168.632 311.771 168.632C313.227 168.632 314.403 169 315.299 169.736C316.195 170.472 316.675 171.48 316.739 172.76H314.555C314.507 172.072 314.227 171.52 313.715 171.104C313.219 170.688 312.547 170.48 311.699 170.48C310.915 170.48 310.291 170.648 309.827 170.984C309.363 171.32 309.131 171.76 309.131 172.304C309.131 172.736 309.267 173.096 309.539 173.384C309.827 173.656 310.179 173.88 310.595 174.056C311.027 174.216 311.619 174.4 312.371 174.608C313.315 174.864 314.083 175.12 314.675 175.376C315.267 175.616 315.771 175.984 316.187 176.48C316.619 176.976 316.843 177.624 316.859 178.424C316.859 179.144 316.659 179.792 316.259 180.368C315.859 180.944 315.291 181.4 314.555 181.736C313.835 182.056 313.003 182.216 312.059 182.216ZM330.996 182.216C329.988 182.216 329.084 182.048 328.284 181.712C327.484 181.36 326.852 180.88 326.388 180.272C325.924 179.648 325.668 178.936 325.62 178.136H327.876C327.94 178.792 328.244 179.328 328.788 179.744C329.348 180.16 330.076 180.368 330.972 180.368C331.804 180.368 332.46 180.184 332.94 179.816C333.42 179.448 333.66 178.984 333.66 178.424C333.66 177.848 333.404 177.424 332.892 177.152C332.38 176.864 331.588 176.584 330.516 176.312C329.54 176.056 328.74 175.8 328.116 175.544C327.508 175.272 326.98 174.88 326.532 174.368C326.1 173.84 325.884 173.152 325.884 172.304C325.884 171.632 326.084 171.016 326.484 170.456C326.884 169.896 327.452 169.456 328.188 169.136C328.924 168.8 329.764 168.632 330.708 168.632C332.164 168.632 333.34 169 334.236 169.736C335.132 170.472 335.612 171.48 335.676 172.76H333.492C333.444 172.072 333.164 171.52 332.652 171.104C332.156 170.688 331.484 170.48 330.636 170.48C329.852 170.48 329.228 170.648 328.764 170.984C328.3 171.32 328.068 171.76 328.068 172.304C328.068 172.736 328.204 173.096 328.476 173.384C328.764 173.656 329.116 173.88 329.532 174.056C329.964 174.216 330.556 174.4 331.308 174.608C332.252 174.864 333.02 175.12 333.612 175.376C334.204 175.616 334.708 175.984 335.124 176.48C335.556 176.976 335.78 177.624 335.796 178.424C335.796 179.144 335.596 179.792 335.196 180.368C334.796 180.944 334.228 181.4 333.492 181.736C332.772 182.056 331.94 182.216 330.996 182.216ZM350.879 174.92C350.879 175.336 350.855 175.776 350.807 176.24H340.295C340.375 177.536 340.815 178.552 341.615 179.288C342.431 180.008 343.415 180.368 344.567 180.368C345.511 180.368 346.295 180.152 346.919 179.72C347.559 179.272 348.007 178.68 348.263 177.944H350.615C350.263 179.208 349.559 180.24 348.503 181.04C347.447 181.824 346.135 182.216 344.567 182.216C343.319 182.216 342.199 181.936 341.207 181.376C340.231 180.816 339.463 180.024 338.903 179C338.343 177.96 338.063 176.76 338.063 175.4C338.063 174.04 338.335 172.848 338.879 171.824C339.423 170.8 340.183 170.016 341.159 169.472C342.151 168.912 343.287 168.632 344.567 168.632C345.815 168.632 346.919 168.904 347.879 169.448C348.839 169.992 349.575 170.744 350.087 171.704C350.615 172.648 350.879 173.72 350.879 174.92ZM348.623 174.464C348.623 173.632 348.439 172.92 348.071 172.328C347.703 171.72 347.199 171.264 346.559 170.96C345.935 170.64 345.239 170.48 344.471 170.48C343.367 170.48 342.423 170.832 341.639 171.536C340.871 172.24 340.431 173.216 340.319 174.464H348.623ZM369.578 168.608C370.602 168.608 371.514 168.824 372.314 169.256C373.114 169.672 373.746 170.304 374.21 171.152C374.674 172 374.906 173.032 374.906 174.248V182H372.746V174.56C372.746 173.248 372.418 172.248 371.762 171.56C371.122 170.856 370.25 170.504 369.146 170.504C368.01 170.504 367.106 170.872 366.434 171.608C365.762 172.328 365.426 173.376 365.426 174.752V182H363.266V174.56C363.266 173.248 362.938 172.248 362.282 171.56C361.642 170.856 360.77 170.504 359.666 170.504C358.53 170.504 357.626 170.872 356.954 171.608C356.282 172.328 355.946 173.376 355.946 174.752V182H353.762V168.848H355.946V170.744C356.378 170.056 356.954 169.528 357.674 169.16C358.41 168.792 359.218 168.608 360.098 168.608C361.202 168.608 362.178 168.856 363.026 169.352C363.874 169.848 364.506 170.576 364.922 171.536C365.29 170.608 365.898 169.888 366.746 169.376C367.594 168.864 368.538 168.608 369.578 168.608ZM380.673 171.272C381.105 170.52 381.745 169.896 382.593 169.4C383.457 168.888 384.457 168.632 385.593 168.632C386.761 168.632 387.817 168.912 388.761 169.472C389.721 170.032 390.473 170.824 391.017 171.848C391.561 172.856 391.833 174.032 391.833 175.376C391.833 176.704 391.561 177.888 391.017 178.928C390.473 179.968 389.721 180.776 388.761 181.352C387.817 181.928 386.761 182.216 385.593 182.216C384.473 182.216 383.481 181.968 382.617 181.472C381.769 180.96 381.121 180.328 380.673 179.576V188.24H378.489V168.848H380.673V171.272ZM389.601 175.376C389.601 174.384 389.401 173.52 389.001 172.784C388.601 172.048 388.057 171.488 387.369 171.104C386.697 170.72 385.953 170.528 385.137 170.528C384.337 170.528 383.593 170.728 382.905 171.128C382.233 171.512 381.689 172.08 381.273 172.832C380.873 173.568 380.673 174.424 380.673 175.4C380.673 176.392 380.873 177.264 381.273 178.016C381.689 178.752 382.233 179.32 382.905 179.72C383.593 180.104 384.337 180.296 385.137 180.296C385.953 180.296 386.697 180.104 387.369 179.72C388.057 179.32 388.601 178.752 389.001 178.016C389.401 177.264 389.601 176.384 389.601 175.376ZM406.707 174.92C406.707 175.336 406.683 175.776 406.635 176.24H396.123C396.203 177.536 396.643 178.552 397.443 179.288C398.259 180.008 399.243 180.368 400.395 180.368C401.339 180.368 402.123 180.152 402.747 179.72C403.387 179.272 403.835 178.68 404.091 177.944H406.443C406.091 179.208 405.387 180.24 404.331 181.04C403.275 181.824 401.963 182.216 400.395 182.216C399.147 182.216 398.027 181.936 397.035 181.376C396.059 180.816 395.291 180.024 394.731 179C394.171 177.96 393.891 176.76 393.891 175.4C393.891 174.04 394.163 172.848 394.707 171.824C395.251 170.8 396.011 170.016 396.987 169.472C397.979 168.912 399.115 168.632 400.395 168.632C401.643 168.632 402.747 168.904 403.707 169.448C404.667 169.992 405.403 170.744 405.915 171.704C406.443 172.648 406.707 173.72 406.707 174.92ZM404.451 174.464C404.451 173.632 404.267 172.92 403.899 172.328C403.531 171.72 403.027 171.264 402.387 170.96C401.763 170.64 401.067 170.48 400.299 170.48C399.195 170.48 398.251 170.832 397.467 171.536C396.699 172.24 396.259 173.216 396.147 174.464H404.451ZM411.774 170.984C412.158 170.232 412.702 169.648 413.406 169.232C414.126 168.816 414.998 168.608 416.022 168.608V170.864H415.446C412.998 170.864 411.774 172.192 411.774 174.848V182H409.59V168.848H411.774V170.984ZM431.47 168.608C432.462 168.608 433.358 168.824 434.158 169.256C434.958 169.672 435.582 170.304 436.03 171.152C436.494 172 436.726 173.032 436.726 174.248V182H434.566V174.56C434.566 173.248 434.238 172.248 433.582 171.56C432.926 170.856 432.03 170.504 430.894 170.504C429.742 170.504 428.822 170.864 428.134 171.584C427.462 172.304 427.126 173.352 427.126 174.728V182H424.942V164.24H427.126V170.72C427.558 170.048 428.15 169.528 428.902 169.16C429.67 168.792 430.526 168.608 431.47 168.608ZM439.477 175.376C439.477 174.032 439.749 172.856 440.293 171.848C440.837 170.824 441.581 170.032 442.525 169.472C443.485 168.912 444.549 168.632 445.717 168.632C446.869 168.632 447.869 168.88 448.717 169.376C449.565 169.872 450.197 170.496 450.613 171.248V168.848H452.821V182H450.613V179.552C450.181 180.32 449.533 180.96 448.669 181.472C447.821 181.968 446.829 182.216 445.693 182.216C444.525 182.216 443.469 181.928 442.525 181.352C441.581 180.776 440.837 179.968 440.293 178.928C439.749 177.888 439.477 176.704 439.477 175.376ZM450.613 175.4C450.613 174.408 450.413 173.544 450.013 172.808C449.613 172.072 449.069 171.512 448.381 171.128C447.709 170.728 446.965 170.528 446.149 170.528C445.333 170.528 444.589 170.72 443.917 171.104C443.245 171.488 442.709 172.048 442.309 172.784C441.909 173.52 441.709 174.384 441.709 175.376C441.709 176.384 441.909 177.264 442.309 178.016C442.709 178.752 443.245 179.32 443.917 179.72C444.589 180.104 445.333 180.296 446.149 180.296C446.965 180.296 447.709 180.104 448.381 179.72C449.069 179.32 449.613 178.752 450.013 178.016C450.413 177.264 450.613 176.392 450.613 175.4ZM458.696 171.296C459.144 170.512 459.8 169.872 460.664 169.376C461.528 168.88 462.512 168.632 463.616 168.632C464.8 168.632 465.864 168.912 466.808 169.472C467.752 170.032 468.496 170.824 469.04 171.848C469.584 172.856 469.856 174.032 469.856 175.376C469.856 176.704 469.584 177.888 469.04 178.928C468.496 179.968 467.744 180.776 466.784 181.352C465.84 181.928 464.784 182.216 463.616 182.216C462.48 182.216 461.48 181.968 460.616 181.472C459.768 180.976 459.128 180.344 458.696 179.576V182H456.512V164.24H458.696V171.296ZM467.624 175.376C467.624 174.384 467.424 173.52 467.024 172.784C466.624 172.048 466.08 171.488 465.392 171.104C464.72 170.72 463.976 170.528 463.16 170.528C462.36 170.528 461.616 170.728 460.928 171.128C460.256 171.512 459.712 172.08 459.296 172.832C458.896 173.568 458.696 174.424 458.696 175.4C458.696 176.392 458.896 177.264 459.296 178.016C459.712 178.752 460.256 179.32 460.928 179.72C461.616 180.104 462.36 180.296 463.16 180.296C463.976 180.296 464.72 180.104 465.392 179.72C466.08 179.32 466.624 178.752 467.024 178.016C467.424 177.264 467.624 176.384 467.624 175.376ZM473.859 166.712C473.443 166.712 473.091 166.568 472.803 166.28C472.515 165.992 472.371 165.64 472.371 165.224C472.371 164.808 472.515 164.456 472.803 164.168C473.091 163.88 473.443 163.736 473.859 163.736C474.259 163.736 474.595 163.88 474.867 164.168C475.155 164.456 475.299 164.808 475.299 165.224C475.299 165.64 475.155 165.992 474.867 166.28C474.595 166.568 474.259 166.712 473.859 166.712ZM474.915 168.848V182H472.731V168.848H474.915ZM481.301 170.648V178.4C481.301 179.04 481.437 179.496 481.709 179.768C481.981 180.024 482.453 180.152 483.125 180.152H484.733V182H482.765C481.549 182 480.637 181.72 480.029 181.16C479.421 180.6 479.117 179.68 479.117 178.4V170.648H477.413V168.848H479.117V165.536H481.301V168.848H484.733V170.648H481.301ZM486.563 175.376C486.563 174.032 486.835 172.856 487.379 171.848C487.923 170.824 488.667 170.032 489.611 169.472C490.571 168.912 491.635 168.632 492.803 168.632C493.955 168.632 494.955 168.88 495.803 169.376C496.651 169.872 497.283 170.496 497.699 171.248V168.848H499.907V182H497.699V179.552C497.267 180.32 496.619 180.96 495.755 181.472C494.907 181.968 493.915 182.216 492.779 182.216C491.611 182.216 490.555 181.928 489.611 181.352C488.667 180.776 487.923 179.968 487.379 178.928C486.835 177.888 486.563 176.704 486.563 175.376ZM497.699 175.4C497.699 174.408 497.499 173.544 497.099 172.808C496.699 172.072 496.155 171.512 495.467 171.128C494.795 170.728 494.051 170.528 493.235 170.528C492.419 170.528 491.675 170.72 491.003 171.104C490.331 171.488 489.795 172.048 489.395 172.784C488.995 173.52 488.795 174.384 488.795 175.376C488.795 176.384 488.995 177.264 489.395 178.016C489.795 178.752 490.331 179.32 491.003 179.72C491.675 180.104 492.419 180.296 493.235 180.296C494.051 180.296 494.795 180.104 495.467 179.72C496.155 179.32 496.699 178.752 497.099 178.016C497.499 177.264 497.699 176.392 497.699 175.4ZM510.006 168.608C511.606 168.608 512.902 169.096 513.894 170.072C514.886 171.032 515.382 172.424 515.382 174.248V182H513.222V174.56C513.222 173.248 512.894 172.248 512.238 171.56C511.582 170.856 510.686 170.504 509.55 170.504C508.398 170.504 507.478 170.864 506.79 171.584C506.118 172.304 505.782 173.352 505.782 174.728V182H503.598V168.848H505.782V170.72C506.214 170.048 506.798 169.528 507.534 169.16C508.286 168.792 509.11 168.608 510.006 168.608ZM521.614 170.648V178.4C521.614 179.04 521.75 179.496 522.022 179.768C522.294 180.024 522.766 180.152 523.438 180.152H525.046V182H523.078C521.862 182 520.95 181.72 520.342 181.16C519.734 180.6 519.43 179.68 519.43 178.4V170.648H517.726V168.848H519.43V165.536H521.614V168.848H525.046V170.648H521.614ZM533.274 175.376C533.274 174.032 533.546 172.856 534.09 171.848C534.634 170.824 535.378 170.032 536.322 169.472C537.282 168.912 538.346 168.632 539.514 168.632C540.666 168.632 541.666 168.88 542.514 169.376C543.362 169.872 543.994 170.496 544.41 171.248V168.848H546.618V182H544.41V179.552C543.978 180.32 543.33 180.96 542.466 181.472C541.618 181.968 540.626 182.216 539.49 182.216C538.322 182.216 537.266 181.928 536.322 181.352C535.378 180.776 534.634 179.968 534.09 178.928C533.546 177.888 533.274 176.704 533.274 175.376ZM544.41 175.4C544.41 174.408 544.21 173.544 543.81 172.808C543.41 172.072 542.866 171.512 542.178 171.128C541.506 170.728 540.762 170.528 539.946 170.528C539.13 170.528 538.386 170.72 537.714 171.104C537.042 171.488 536.506 172.048 536.106 172.784C535.706 173.52 535.506 174.384 535.506 175.376C535.506 176.384 535.706 177.264 536.106 178.016C536.506 178.752 537.042 179.32 537.714 179.72C538.386 180.104 539.13 180.296 539.946 180.296C540.762 180.296 541.506 180.104 542.178 179.72C542.866 179.32 543.41 178.752 543.81 178.016C544.21 177.264 544.41 176.392 544.41 175.4ZM552.493 170.984C552.877 170.232 553.421 169.648 554.125 169.232C554.845 168.816 555.717 168.608 556.741 168.608V170.864H556.165C553.717 170.864 552.493 172.192 552.493 174.848V182H550.309V168.848H552.493V170.984ZM558.446 175.4C558.446 174.04 558.718 172.856 559.262 171.848C559.806 170.824 560.558 170.032 561.518 169.472C562.494 168.912 563.606 168.632 564.854 168.632C566.47 168.632 567.798 169.024 568.838 169.808C569.894 170.592 570.59 171.68 570.926 173.072H568.574C568.35 172.272 567.91 171.64 567.254 171.176C566.614 170.712 565.814 170.48 564.854 170.48C563.606 170.48 562.598 170.912 561.83 171.776C561.062 172.624 560.678 173.832 560.678 175.4C560.678 176.984 561.062 178.208 561.83 179.072C562.598 179.936 563.606 180.368 564.854 180.368C565.814 180.368 566.614 180.144 567.254 179.696C567.894 179.248 568.334 178.608 568.574 177.776H570.926C570.574 179.12 569.87 180.2 568.814 181.016C567.758 181.816 566.438 182.216 564.854 182.216C563.606 182.216 562.494 181.936 561.518 181.376C560.558 180.816 559.806 180.024 559.262 179C558.718 177.976 558.446 176.776 558.446 175.4ZM585.504 168.848V182H583.32V180.056C582.904 180.728 582.32 181.256 581.568 181.64C580.832 182.008 580.016 182.192 579.12 182.192C578.096 182.192 577.176 181.984 576.36 181.568C575.544 181.136 574.896 180.496 574.416 179.648C573.952 178.8 573.72 177.768 573.72 176.552V168.848H575.88V176.264C575.88 177.56 576.208 178.56 576.864 179.264C577.52 179.952 578.416 180.296 579.552 180.296C580.72 180.296 581.64 179.936 582.312 179.216C582.984 178.496 583.32 177.448 583.32 176.072V168.848H585.504ZM607.59 174.92C607.59 175.336 607.566 175.776 607.518 176.24H597.006C597.086 177.536 597.526 178.552 598.326 179.288C599.142 180.008 600.126 180.368 601.278 180.368C602.222 180.368 603.006 180.152 603.63 179.72C604.27 179.272 604.718 178.68 604.974 177.944H607.326C606.974 179.208 606.27 180.24 605.214 181.04C604.158 181.824 602.846 182.216 601.278 182.216C600.03 182.216 598.91 181.936 597.918 181.376C596.942 180.816 596.174 180.024 595.614 179C595.054 177.96 594.774 176.76 594.774 175.4C594.774 174.04 595.046 172.848 595.59 171.824C596.134 170.8 596.894 170.016 597.87 169.472C598.862 168.912 599.998 168.632 601.278 168.632C602.526 168.632 603.63 168.904 604.59 169.448C605.55 169.992 606.286 170.744 606.798 171.704C607.326 172.648 607.59 173.72 607.59 174.92ZM605.334 174.464C605.334 173.632 605.15 172.92 604.782 172.328C604.414 171.72 603.91 171.264 603.27 170.96C602.646 170.64 601.95 170.48 601.182 170.48C600.078 170.48 599.134 170.832 598.35 171.536C597.582 172.24 597.142 173.216 597.03 174.464H605.334ZM615.897 168.632C617.033 168.632 618.025 168.88 618.873 169.376C619.737 169.872 620.377 170.496 620.793 171.248V168.848H623.001V182.288C623.001 183.488 622.745 184.552 622.233 185.48C621.721 186.424 620.985 187.16 620.025 187.688C619.081 188.216 617.977 188.48 616.713 188.48C614.985 188.48 613.545 188.072 612.393 187.256C611.241 186.44 610.561 185.328 610.353 183.92H612.513C612.753 184.72 613.249 185.36 614.001 185.84C614.753 186.336 615.657 186.584 616.713 186.584C617.913 186.584 618.889 186.208 619.641 185.456C620.409 184.704 620.793 183.648 620.793 182.288V179.528C620.361 180.296 619.721 180.936 618.873 181.448C618.025 181.96 617.033 182.216 615.897 182.216C614.729 182.216 613.665 181.928 612.705 181.352C611.761 180.776 611.017 179.968 610.473 178.928C609.929 177.888 609.657 176.704 609.657 175.376C609.657 174.032 609.929 172.856 610.473 171.848C611.017 170.824 611.761 170.032 612.705 169.472C613.665 168.912 614.729 168.632 615.897 168.632ZM620.793 175.4C620.793 174.408 620.593 173.544 620.193 172.808C619.793 172.072 619.249 171.512 618.561 171.128C617.889 170.728 617.145 170.528 616.329 170.528C615.513 170.528 614.769 170.72 614.097 171.104C613.425 171.488 612.889 172.048 612.489 172.784C612.089 173.52 611.889 174.384 611.889 175.376C611.889 176.384 612.089 177.264 612.489 178.016C612.889 178.752 613.425 179.32 614.097 179.72C614.769 180.104 615.513 180.296 616.329 180.296C617.145 180.296 617.889 180.104 618.561 179.72C619.249 179.32 619.793 178.752 620.193 178.016C620.593 177.264 620.793 176.392 620.793 175.4ZM638.692 174.92C638.692 175.336 638.668 175.776 638.62 176.24H628.108C628.188 177.536 628.628 178.552 629.428 179.288C630.244 180.008 631.228 180.368 632.38 180.368C633.324 180.368 634.108 180.152 634.732 179.72C635.372 179.272 635.82 178.68 636.076 177.944H638.428C638.076 179.208 637.372 180.24 636.316 181.04C635.26 181.824 633.948 182.216 632.38 182.216C631.132 182.216 630.012 181.936 629.02 181.376C628.044 180.816 627.276 180.024 626.716 179C626.156 177.96 625.876 176.76 625.876 175.4C625.876 174.04 626.148 172.848 626.692 171.824C627.236 170.8 627.996 170.016 628.972 169.472C629.964 168.912 631.1 168.632 632.38 168.632C633.628 168.632 634.732 168.904 635.692 169.448C636.652 169.992 637.388 170.744 637.9 171.704C638.428 172.648 638.692 173.72 638.692 174.92ZM636.436 174.464C636.436 173.632 636.252 172.92 635.884 172.328C635.516 171.72 635.012 171.264 634.372 170.96C633.748 170.64 633.052 170.48 632.284 170.48C631.18 170.48 630.236 170.832 629.452 171.536C628.684 172.24 628.244 173.216 628.132 174.464H636.436ZM644.239 170.648V178.4C644.239 179.04 644.375 179.496 644.647 179.768C644.919 180.024 645.391 180.152 646.063 180.152H647.671V182H645.703C644.487 182 643.575 181.72 642.967 181.16C642.359 180.6 642.055 179.68 642.055 178.4V170.648H640.351V168.848H642.055V165.536H644.239V168.848H647.671V170.648H644.239ZM651.013 182.144C650.597 182.144 650.245 182 649.957 181.712C649.669 181.424 649.525 181.072 649.525 180.656C649.525 180.24 649.669 179.888 649.957 179.6C650.245 179.312 650.597 179.168 651.013 179.168C651.413 179.168 651.749 179.312 652.021 179.6C652.309 179.888 652.453 180.24 652.453 180.656C652.453 181.072 652.309 181.424 652.021 181.712C651.749 182 651.413 182.144 651.013 182.144ZM4.032 203.048V208.64H10.128V210.44H4.032V216.2H10.848V218H1.848V201.248H10.848V203.048H4.032ZM16.8167 206.648V214.4C16.8167 215.04 16.9527 215.496 17.2247 215.768C17.4967 216.024 17.9687 216.152 18.6407 216.152H20.2487V218H18.2807C17.0647 218 16.1527 217.72 15.5447 217.16C14.9367 216.6 14.6327 215.68 14.6327 214.4V206.648H12.9287V204.848H14.6327V201.536H16.8167V204.848H20.2487V206.648H16.8167ZM30.4213 202.712C30.0053 202.712 29.6533 202.568 29.3653 202.28C29.0773 201.992 28.9333 201.64 28.9333 201.224C28.9333 200.808 29.0773 200.456 29.3653 200.168C29.6533 199.88 30.0053 199.736 30.4213 199.736C30.8213 199.736 31.1573 199.88 31.4293 200.168C31.7173 200.456 31.8613 200.808 31.8613 201.224C31.8613 201.64 31.7173 201.992 31.4293 202.28C31.1573 202.568 30.8213 202.712 30.4213 202.712ZM31.4773 204.848V218H29.2933V204.848H31.4773ZM41.6076 204.608C43.2076 204.608 44.5036 205.096 45.4956 206.072C46.4876 207.032 46.9836 208.424 46.9836 210.248V218H44.8236V210.56C44.8236 209.248 44.4956 208.248 43.8396 207.56C43.1836 206.856 42.2876 206.504 41.1516 206.504C39.9996 206.504 39.0796 206.864 38.3916 207.584C37.7196 208.304 37.3836 209.352 37.3836 210.728V218H35.1996V204.848H37.3836V206.72C37.8156 206.048 38.3996 205.528 39.1356 205.16C39.8876 204.792 40.7116 204.608 41.6076 204.608ZM53.2151 206.648V214.4C53.2151 215.04 53.3511 215.496 53.6231 215.768C53.8951 216.024 54.3671 216.152 55.0391 216.152H56.6471V218H54.6791C53.4631 218 52.5511 217.72 51.9431 217.16C51.3351 216.6 51.0311 215.68 51.0311 214.4V206.648H49.3271V204.848H51.0311V201.536H53.2151V204.848H56.6471V206.648H53.2151ZM71.2933 210.92C71.2933 211.336 71.2693 211.776 71.2213 212.24H60.7093C60.7893 213.536 61.2293 214.552 62.0293 215.288C62.8453 216.008 63.8293 216.368 64.9813 216.368C65.9253 216.368 66.7093 216.152 67.3333 215.72C67.9733 215.272 68.4213 214.68 68.6773 213.944H71.0293C70.6773 215.208 69.9733 216.24 68.9173 217.04C67.8613 217.824 66.5493 218.216 64.9813 218.216C63.7333 218.216 62.6133 217.936 61.6213 217.376C60.6453 216.816 59.8773 216.024 59.3173 215C58.7573 213.96 58.4773 212.76 58.4773 211.4C58.4773 210.04 58.7493 208.848 59.2933 207.824C59.8373 206.8 60.5973 206.016 61.5733 205.472C62.5653 204.912 63.7013 204.632 64.9813 204.632C66.2293 204.632 67.3333 204.904 68.2933 205.448C69.2533 205.992 69.9893 206.744 70.5013 207.704C71.0293 208.648 71.2933 209.72 71.2933 210.92ZM69.0373 210.464C69.0373 209.632 68.8533 208.92 68.4853 208.328C68.1173 207.72 67.6133 207.264 66.9733 206.96C66.3493 206.64 65.6533 206.48 64.8853 206.48C63.7813 206.48 62.8373 206.832 62.0533 207.536C61.2853 208.24 60.8453 209.216 60.7333 210.464H69.0373ZM79.6001 204.632C80.7361 204.632 81.7281 204.88 82.5761 205.376C83.4401 205.872 84.0801 206.496 84.4961 207.248V204.848H86.7041V218.288C86.7041 219.488 86.4481 220.552 85.9361 221.48C85.4241 222.424 84.6881 223.16 83.7281 223.688C82.7841 224.216 81.6801 224.48 80.4161 224.48C78.6881 224.48 77.2481 224.072 76.0961 223.256C74.9441 222.44 74.2641 221.328 74.0561 219.92H76.2161C76.4561 220.72 76.9521 221.36 77.7041 221.84C78.4561 222.336 79.3601 222.584 80.4161 222.584C81.6161 222.584 82.5921 222.208 83.3441 221.456C84.1121 220.704 84.4961 219.648 84.4961 218.288V215.528C84.0641 216.296 83.4241 216.936 82.5761 217.448C81.7281 217.96 80.7361 218.216 79.6001 218.216C78.4321 218.216 77.3681 217.928 76.4081 217.352C75.4641 216.776 74.7201 215.968 74.1761 214.928C73.6321 213.888 73.3601 212.704 73.3601 211.376C73.3601 210.032 73.6321 208.856 74.1761 207.848C74.7201 206.824 75.4641 206.032 76.4081 205.472C77.3681 204.912 78.4321 204.632 79.6001 204.632ZM84.4961 211.4C84.4961 210.408 84.2961 209.544 83.8961 208.808C83.4961 208.072 82.9521 207.512 82.2641 207.128C81.5921 206.728 80.8481 206.528 80.0321 206.528C79.2161 206.528 78.4721 206.72 77.8001 207.104C77.1281 207.488 76.5921 208.048 76.1921 208.784C75.7921 209.52 75.5921 210.384 75.5921 211.376C75.5921 212.384 75.7921 213.264 76.1921 214.016C76.5921 214.752 77.1281 215.32 77.8001 215.72C78.4721 216.104 79.2161 216.296 80.0321 216.296C80.8481 216.296 81.5921 216.104 82.2641 215.72C82.9521 215.32 83.4961 214.752 83.8961 214.016C84.2961 213.264 84.4961 212.392 84.4961 211.4ZM102.395 210.92C102.395 211.336 102.371 211.776 102.323 212.24H91.8109C91.8909 213.536 92.3309 214.552 93.1309 215.288C93.9469 216.008 94.9309 216.368 96.0829 216.368C97.0269 216.368 97.8109 216.152 98.4349 215.72C99.0749 215.272 99.5229 214.68 99.7789 213.944H102.131C101.779 215.208 101.075 216.24 100.019 217.04C98.9629 217.824 97.6509 218.216 96.0829 218.216C94.8349 218.216 93.7149 217.936 92.7229 217.376C91.7469 216.816 90.9789 216.024 90.4189 215C89.8589 213.96 89.5789 212.76 89.5789 211.4C89.5789 210.04 89.8509 208.848 90.3949 207.824C90.9389 206.8 91.6989 206.016 92.6749 205.472C93.6669 204.912 94.8029 204.632 96.0829 204.632C97.3309 204.632 98.4349 204.904 99.3949 205.448C100.355 205.992 101.091 206.744 101.603 207.704C102.131 208.648 102.395 209.72 102.395 210.92ZM100.139 210.464C100.139 209.632 99.9549 208.92 99.5869 208.328C99.2189 207.72 98.7149 207.264 98.0749 206.96C97.4509 206.64 96.7549 206.48 95.9869 206.48C94.8829 206.48 93.9389 206.832 93.1549 207.536C92.3869 208.24 91.9469 209.216 91.8349 210.464H100.139ZM107.462 206.984C107.846 206.232 108.39 205.648 109.094 205.232C109.814 204.816 110.686 204.608 111.71 204.608V206.864H111.134C108.686 206.864 107.462 208.192 107.462 210.848V218H105.278V204.848H107.462V206.984ZM125.981 206.648H123.221V218H121.037V206.648H119.333V204.848H121.037V203.912C121.037 202.44 121.413 201.368 122.165 200.696C122.933 200.008 124.157 199.664 125.837 199.664V201.488C124.877 201.488 124.197 201.68 123.797 202.064C123.413 202.432 123.221 203.048 123.221 203.912V204.848H125.981V206.648ZM127.712 211.376C127.712 210.032 127.984 208.856 128.528 207.848C129.072 206.824 129.816 206.032 130.76 205.472C131.72 204.912 132.784 204.632 133.952 204.632C135.104 204.632 136.104 204.88 136.952 205.376C137.8 205.872 138.432 206.496 138.848 207.248V204.848H141.056V218H138.848V215.552C138.416 216.32 137.768 216.96 136.904 217.472C136.056 217.968 135.064 218.216 133.928 218.216C132.76 218.216 131.704 217.928 130.76 217.352C129.816 216.776 129.072 215.968 128.528 214.928C127.984 213.888 127.712 212.704 127.712 211.376ZM138.848 211.4C138.848 210.408 138.648 209.544 138.248 208.808C137.848 208.072 137.304 207.512 136.616 207.128C135.944 206.728 135.2 206.528 134.384 206.528C133.568 206.528 132.824 206.72 132.152 207.104C131.48 207.488 130.944 208.048 130.544 208.784C130.144 209.52 129.944 210.384 129.944 211.376C129.944 212.384 130.144 213.264 130.544 214.016C130.944 214.752 131.48 215.32 132.152 215.72C132.824 216.104 133.568 216.296 134.384 216.296C135.2 216.296 135.944 216.104 136.616 215.72C137.304 215.32 137.848 214.752 138.248 214.016C138.648 213.264 138.848 212.392 138.848 211.4ZM143.93 211.4C143.93 210.04 144.202 208.856 144.746 207.848C145.29 206.824 146.042 206.032 147.002 205.472C147.978 204.912 149.09 204.632 150.338 204.632C151.954 204.632 153.282 205.024 154.322 205.808C155.378 206.592 156.074 207.68 156.41 209.072H154.058C153.834 208.272 153.394 207.64 152.738 207.176C152.098 206.712 151.298 206.48 150.338 206.48C149.09 206.48 148.082 206.912 147.314 207.776C146.546 208.624 146.162 209.832 146.162 211.4C146.162 212.984 146.546 214.208 147.314 215.072C148.082 215.936 149.09 216.368 150.338 216.368C151.298 216.368 152.098 216.144 152.738 215.696C153.378 215.248 153.818 214.608 154.058 213.776H156.41C156.058 215.12 155.354 216.2 154.298 217.016C153.242 217.816 151.922 218.216 150.338 218.216C149.09 218.216 147.978 217.936 147.002 217.376C146.042 216.816 145.29 216.024 144.746 215C144.202 213.976 143.93 212.776 143.93 211.4ZM160.453 202.712C160.037 202.712 159.685 202.568 159.397 202.28C159.109 201.992 158.965 201.64 158.965 201.224C158.965 200.808 159.109 200.456 159.397 200.168C159.685 199.88 160.037 199.736 160.453 199.736C160.853 199.736 161.189 199.88 161.461 200.168C161.749 200.456 161.893 200.808 161.893 201.224C161.893 201.64 161.749 201.992 161.461 202.28C161.189 202.568 160.853 202.712 160.453 202.712ZM161.509 204.848V218H159.325V204.848H161.509ZM167.415 200.24V218H165.231V200.24H167.415ZM172.265 202.712C171.849 202.712 171.497 202.568 171.209 202.28C170.921 201.992 170.777 201.64 170.777 201.224C170.777 200.808 170.921 200.456 171.209 200.168C171.497 199.88 171.849 199.736 172.265 199.736C172.665 199.736 173.001 199.88 173.273 200.168C173.561 200.456 173.705 200.808 173.705 201.224C173.705 201.64 173.561 201.992 173.273 202.28C173.001 202.568 172.665 202.712 172.265 202.712ZM173.321 204.848V218H171.137V204.848H173.321ZM181.699 218.216C180.691 218.216 179.787 218.048 178.987 217.712C178.187 217.36 177.555 216.88 177.091 216.272C176.627 215.648 176.371 214.936 176.323 214.136H178.579C178.643 214.792 178.947 215.328 179.491 215.744C180.051 216.16 180.779 216.368 181.675 216.368C182.507 216.368 183.163 216.184 183.643 215.816C184.123 215.448 184.363 214.984 184.363 214.424C184.363 213.848 184.107 213.424 183.595 213.152C183.083 212.864 182.291 212.584 181.219 212.312C180.243 212.056 179.443 211.8 178.819 211.544C178.211 211.272 177.683 210.88 177.235 210.368C176.803 209.84 176.587 209.152 176.587 208.304C176.587 207.632 176.787 207.016 177.187 206.456C177.587 205.896 178.155 205.456 178.891 205.136C179.627 204.8 180.467 204.632 181.411 204.632C182.867 204.632 184.043 205 184.939 205.736C185.835 206.472 186.315 207.48 186.379 208.76H184.195C184.147 208.072 183.867 207.52 183.355 207.104C182.859 206.688 182.187 206.48 181.339 206.48C180.555 206.48 179.931 206.648 179.467 206.984C179.003 207.32 178.771 207.76 178.771 208.304C178.771 208.736 178.907 209.096 179.179 209.384C179.467 209.656 179.819 209.88 180.235 210.056C180.667 210.216 181.259 210.4 182.011 210.608C182.955 210.864 183.723 211.12 184.315 211.376C184.907 211.616 185.411 211.984 185.827 212.48C186.259 212.976 186.483 213.624 186.499 214.424C186.499 215.144 186.299 215.792 185.899 216.368C185.499 216.944 184.931 217.4 184.195 217.736C183.475 218.056 182.643 218.216 181.699 218.216ZM190.71 202.712C190.294 202.712 189.942 202.568 189.654 202.28C189.366 201.992 189.222 201.64 189.222 201.224C189.222 200.808 189.366 200.456 189.654 200.168C189.942 199.88 190.294 199.736 190.71 199.736C191.11 199.736 191.446 199.88 191.718 200.168C192.006 200.456 192.15 200.808 192.15 201.224C192.15 201.64 192.006 201.992 191.718 202.28C191.446 202.568 191.11 202.712 190.71 202.712ZM191.766 204.848V218H189.582V204.848H191.766ZM213.887 210.92C213.887 211.336 213.863 211.776 213.815 212.24H203.303C203.383 213.536 203.823 214.552 204.623 215.288C205.439 216.008 206.423 216.368 207.575 216.368C208.519 216.368 209.303 216.152 209.927 215.72C210.567 215.272 211.015 214.68 211.271 213.944H213.623C213.271 215.208 212.567 216.24 211.511 217.04C210.455 217.824 209.143 218.216 207.575 218.216C206.327 218.216 205.207 217.936 204.215 217.376C203.239 216.816 202.471 216.024 201.911 215C201.351 213.96 201.071 212.76 201.071 211.4C201.071 210.04 201.343 208.848 201.887 207.824C202.431 206.8 203.191 206.016 204.167 205.472C205.159 204.912 206.295 204.632 207.575 204.632C208.823 204.632 209.927 204.904 210.887 205.448C211.847 205.992 212.583 206.744 213.095 207.704C213.623 208.648 213.887 209.72 213.887 210.92ZM211.631 210.464C211.631 209.632 211.447 208.92 211.079 208.328C210.711 207.72 210.207 207.264 209.567 206.96C208.943 206.64 208.247 206.48 207.479 206.48C206.375 206.48 205.431 206.832 204.647 207.536C203.879 208.24 203.439 209.216 203.327 210.464H211.631ZM222.194 204.632C223.33 204.632 224.322 204.88 225.17 205.376C226.034 205.872 226.674 206.496 227.09 207.248V204.848H229.298V218.288C229.298 219.488 229.042 220.552 228.53 221.48C228.018 222.424 227.282 223.16 226.322 223.688C225.378 224.216 224.274 224.48 223.01 224.48C221.282 224.48 219.842 224.072 218.69 223.256C217.538 222.44 216.858 221.328 216.65 219.92H218.81C219.05 220.72 219.546 221.36 220.298 221.84C221.05 222.336 221.954 222.584 223.01 222.584C224.21 222.584 225.186 222.208 225.938 221.456C226.706 220.704 227.09 219.648 227.09 218.288V215.528C226.658 216.296 226.018 216.936 225.17 217.448C224.322 217.96 223.33 218.216 222.194 218.216C221.026 218.216 219.962 217.928 219.002 217.352C218.058 216.776 217.314 215.968 216.77 214.928C216.226 213.888 215.954 212.704 215.954 211.376C215.954 210.032 216.226 208.856 216.77 207.848C217.314 206.824 218.058 206.032 219.002 205.472C219.962 204.912 221.026 204.632 222.194 204.632ZM227.09 211.4C227.09 210.408 226.89 209.544 226.49 208.808C226.09 208.072 225.546 207.512 224.858 207.128C224.186 206.728 223.442 206.528 222.626 206.528C221.81 206.528 221.066 206.72 220.394 207.104C219.722 207.488 219.186 208.048 218.786 208.784C218.386 209.52 218.186 210.384 218.186 211.376C218.186 212.384 218.386 213.264 218.786 214.016C219.186 214.752 219.722 215.32 220.394 215.72C221.066 216.104 221.81 216.296 222.626 216.296C223.442 216.296 224.186 216.104 224.858 215.72C225.546 215.32 226.09 214.752 226.49 214.016C226.89 213.264 227.09 212.392 227.09 211.4ZM244.989 210.92C244.989 211.336 244.965 211.776 244.917 212.24H234.405C234.485 213.536 234.925 214.552 235.725 215.288C236.541 216.008 237.525 216.368 238.677 216.368C239.621 216.368 240.405 216.152 241.029 215.72C241.669 215.272 242.117 214.68 242.373 213.944H244.725C244.373 215.208 243.669 216.24 242.613 217.04C241.557 217.824 240.245 218.216 238.677 218.216C237.429 218.216 236.309 217.936 235.317 217.376C234.341 216.816 233.573 216.024 233.013 215C232.453 213.96 232.173 212.76 232.173 211.4C232.173 210.04 232.445 208.848 232.989 207.824C233.533 206.8 234.293 206.016 235.269 205.472C236.261 204.912 237.397 204.632 238.677 204.632C239.925 204.632 241.029 204.904 241.989 205.448C242.949 205.992 243.685 206.744 244.197 207.704C244.725 208.648 244.989 209.72 244.989 210.92ZM242.733 210.464C242.733 209.632 242.549 208.92 242.181 208.328C241.813 207.72 241.309 207.264 240.669 206.96C240.045 206.64 239.349 206.48 238.581 206.48C237.477 206.48 236.533 206.832 235.749 207.536C234.981 208.24 234.541 209.216 234.429 210.464H242.733ZM250.535 206.648V214.4C250.535 215.04 250.671 215.496 250.943 215.768C251.215 216.024 251.687 216.152 252.359 216.152H253.967V218H251.999C250.783 218 249.871 217.72 249.263 217.16C248.655 216.6 248.351 215.68 248.351 214.4V206.648H246.647V204.848H248.351V201.536H250.535V204.848H253.967V206.648H250.535ZM257.31 218.144C256.894 218.144 256.542 218 256.254 217.712C255.966 217.424 255.822 217.072 255.822 216.656C255.822 216.24 255.966 215.888 256.254 215.6C256.542 215.312 256.894 215.168 257.31 215.168C257.71 215.168 258.046 215.312 258.318 215.6C258.606 215.888 258.75 216.24 258.75 216.656C258.75 217.072 258.606 217.424 258.318 217.712C258.046 218 257.71 218.144 257.31 218.144Z" fill="#363830"/>
<rect y="244" width="182" height="66" rx="33" fill="#363830"/>
<path d="M52.032 270.048V275.64H58.128V277.44H52.032V283.2H58.848V285H49.848V268.248H58.848V270.048H52.032ZM69.0167 285L65.8967 280.104L62.8967 285H60.6167L64.8647 278.472L60.6167 271.848H63.0887L66.2087 276.72L69.1847 271.848H71.4647L67.2407 278.352L71.4887 285H69.0167ZM75.8211 274.272C76.2531 273.52 76.8931 272.896 77.7411 272.4C78.6051 271.888 79.6051 271.632 80.7411 271.632C81.9091 271.632 82.9651 271.912 83.9091 272.472C84.8691 273.032 85.6211 273.824 86.1651 274.848C86.7091 275.856 86.9811 277.032 86.9811 278.376C86.9811 279.704 86.7091 280.888 86.1651 281.928C85.6211 282.968 84.8691 283.776 83.9091 284.352C82.9651 284.928 81.9091 285.216 80.7411 285.216C79.6211 285.216 78.6291 284.968 77.7651 284.472C76.9171 283.96 76.2691 283.328 75.8211 282.576V291.24H73.6371V271.848H75.8211V274.272ZM84.7491 278.376C84.7491 277.384 84.5491 276.52 84.1491 275.784C83.7491 275.048 83.2051 274.488 82.5171 274.104C81.8451 273.72 81.1011 273.528 80.2851 273.528C79.4851 273.528 78.7411 273.728 78.0531 274.128C77.3811 274.512 76.8371 275.08 76.4211 275.832C76.0211 276.568 75.8211 277.424 75.8211 278.4C75.8211 279.392 76.0211 280.264 76.4211 281.016C76.8371 281.752 77.3811 282.32 78.0531 282.72C78.7411 283.104 79.4851 283.296 80.2851 283.296C81.1011 283.296 81.8451 283.104 82.5171 282.72C83.2051 282.32 83.7491 281.752 84.1491 281.016C84.5491 280.264 84.7491 279.384 84.7491 278.376ZM92.0398 267.24V285H89.8558V267.24H92.0398ZM101.498 285.216C100.266 285.216 99.1461 284.936 98.1381 284.376C97.1461 283.816 96.3621 283.024 95.7861 282C95.2261 280.96 94.9461 279.76 94.9461 278.4C94.9461 277.056 95.2341 275.872 95.8101 274.848C96.4021 273.808 97.2021 273.016 98.2101 272.472C99.2181 271.912 100.346 271.632 101.594 271.632C102.842 271.632 103.97 271.912 104.978 272.472C105.986 273.016 106.778 273.8 107.354 274.824C107.946 275.848 108.242 277.04 108.242 278.4C108.242 279.76 107.938 280.96 107.33 282C106.738 283.024 105.93 283.816 104.906 284.376C103.882 284.936 102.746 285.216 101.498 285.216ZM101.498 283.296C102.282 283.296 103.018 283.112 103.706 282.744C104.394 282.376 104.946 281.824 105.362 281.088C105.794 280.352 106.01 279.456 106.01 278.4C106.01 277.344 105.802 276.448 105.386 275.712C104.97 274.976 104.426 274.432 103.754 274.08C103.082 273.712 102.354 273.528 101.57 273.528C100.77 273.528 100.034 273.712 99.3621 274.08C98.7061 274.432 98.1781 274.976 97.7781 275.712C97.3781 276.448 97.1781 277.344 97.1781 278.4C97.1781 279.472 97.3701 280.376 97.7541 281.112C98.1541 281.848 98.6821 282.4 99.3381 282.768C99.9941 283.12 100.714 283.296 101.498 283.296ZM113.298 273.984C113.682 273.232 114.226 272.648 114.93 272.232C115.65 271.816 116.522 271.608 117.546 271.608V273.864H116.97C114.522 273.864 113.298 275.192 113.298 277.848V285H111.114V271.848H113.298V273.984ZM132.067 277.92C132.067 278.336 132.043 278.776 131.995 279.24H121.483C121.563 280.536 122.003 281.552 122.803 282.288C123.619 283.008 124.603 283.368 125.755 283.368C126.699 283.368 127.483 283.152 128.107 282.72C128.747 282.272 129.195 281.68 129.451 280.944H131.803C131.451 282.208 130.747 283.24 129.691 284.04C128.635 284.824 127.323 285.216 125.755 285.216C124.507 285.216 123.387 284.936 122.395 284.376C121.419 283.816 120.651 283.024 120.091 282C119.531 280.96 119.251 279.76 119.251 278.4C119.251 277.04 119.523 275.848 120.067 274.824C120.611 273.8 121.371 273.016 122.347 272.472C123.339 271.912 124.475 271.632 125.755 271.632C127.003 271.632 128.107 271.904 129.067 272.448C130.027 272.992 130.763 273.744 131.275 274.704C131.803 275.648 132.067 276.72 132.067 277.92ZM129.811 277.464C129.811 276.632 129.627 275.92 129.259 275.328C128.891 274.72 128.387 274.264 127.747 273.96C127.123 273.64 126.427 273.48 125.659 273.48C124.555 273.48 123.611 273.832 122.827 274.536C122.059 275.24 121.619 276.216 121.507 277.464H129.811Z" fill="white"/>
</svg>
