<svg width="498" height="192" viewBox="0 0 498 192" fill="none" xmlns="http://www.w3.org/2000/svg">
<path d="M1.952 4.696H22.896C25.888 4.696 28.7627 4.98933 31.52 5.576C34.336 6.16266 36.8 7.16 38.912 8.568C41.024 9.91733 42.696 11.7653 43.928 14.112C45.2187 16.4 45.864 19.2747 45.864 22.736C45.864 26.6667 45.1893 29.8347 43.84 32.24C42.4907 34.6453 40.672 36.5227 38.384 37.872C36.096 39.1627 33.4267 40.0427 30.376 40.512C27.384 40.9813 24.2453 41.216 20.96 41.216H13.04V67H1.952V4.696ZM19.728 31.712C21.312 31.712 22.9547 31.6533 24.656 31.536C26.3573 31.4187 27.912 31.0667 29.32 30.48C30.7867 29.8933 31.96 29.0133 32.84 27.84C33.7787 26.6667 34.248 25.024 34.248 22.912C34.248 20.976 33.8373 19.4507 33.016 18.336C32.1947 17.1627 31.1387 16.2827 29.848 15.696C28.5573 15.0507 27.12 14.64 25.536 14.464C23.952 14.288 22.4267 14.2 20.96 14.2H13.04V31.712H19.728ZM54.7809 24.76H65.3409V31.448H65.5169C66.6902 28.984 68.3622 27.0773 70.5329 25.728C72.7035 24.3787 75.1969 23.704 78.0129 23.704C78.6582 23.704 79.2742 23.7627 79.8609 23.88C80.5062 23.9973 81.1515 24.144 81.7969 24.32V34.528C80.9169 34.2933 80.0369 34.1173 79.1569 34C78.3355 33.824 77.5142 33.736 76.6929 33.736C74.2289 33.736 72.2342 34.2053 70.7089 35.144C69.2422 36.024 68.0982 37.0507 67.2769 38.224C66.5142 39.3973 65.9862 40.5707 65.6929 41.744C65.4582 42.9173 65.3409 43.7973 65.3409 44.384V67H54.7809V24.76ZM85.3251 45.88C85.3251 42.536 85.9118 39.5147 87.0851 36.816C88.3171 34.0587 89.9598 31.712 92.0131 29.776C94.0665 27.84 96.5011 26.344 99.3171 25.288C102.133 24.232 105.125 23.704 108.293 23.704C111.461 23.704 114.453 24.232 117.269 25.288C120.085 26.344 122.52 27.84 124.573 29.776C126.626 31.712 128.24 34.0587 129.413 36.816C130.645 39.5147 131.261 42.536 131.261 45.88C131.261 49.224 130.645 52.2747 129.413 55.032C128.24 57.7307 126.626 60.048 124.573 61.984C122.52 63.92 120.085 65.416 117.269 66.472C114.453 67.528 111.461 68.056 108.293 68.056C105.125 68.056 102.133 67.528 99.3171 66.472C96.5011 65.416 94.0665 63.92 92.0131 61.984C89.9598 60.048 88.3171 57.7307 87.0851 55.032C85.9118 52.2747 85.3251 49.224 85.3251 45.88ZM95.8851 45.88C95.8851 47.5227 96.1491 49.1067 96.6771 50.632C97.2638 52.1573 98.0851 53.5067 99.1411 54.68C100.256 55.8533 101.576 56.792 103.101 57.496C104.626 58.2 106.357 58.552 108.293 58.552C110.229 58.552 111.96 58.2 113.485 57.496C115.01 56.792 116.301 55.8533 117.357 54.68C118.472 53.5067 119.293 52.1573 119.821 50.632C120.408 49.1067 120.701 47.5227 120.701 45.88C120.701 44.2373 120.408 42.6533 119.821 41.128C119.293 39.6027 118.472 38.2533 117.357 37.08C116.301 35.9067 115.01 34.968 113.485 34.264C111.96 33.56 110.229 33.208 108.293 33.208C106.357 33.208 104.626 33.56 103.101 34.264C101.576 34.968 100.256 35.9067 99.1411 37.08C98.0851 38.2533 97.2638 39.6027 96.6771 41.128C96.1491 42.6533 95.8851 44.2373 95.8851 45.88ZM151.884 24.76V69.552C151.884 72.192 151.708 74.6267 151.356 76.856C151.004 79.144 150.3 81.1093 149.244 82.752C148.247 84.4533 146.809 85.7733 144.932 86.712C143.055 87.6507 140.62 88.12 137.628 88.12C136.631 88.12 135.663 88.0613 134.724 87.944C133.785 87.8267 132.847 87.6213 131.908 87.328L132.7 78.176C133.287 78.2933 133.844 78.3813 134.372 78.44C134.9 78.5573 135.457 78.616 136.044 78.616C137.335 78.616 138.332 78.3227 139.036 77.736C139.799 77.208 140.327 76.504 140.62 75.624C140.972 74.744 141.177 73.776 141.236 72.72C141.295 71.664 141.324 70.6373 141.324 69.64V24.76H151.884ZM139.828 10.416C139.828 8.71466 140.444 7.248 141.676 6.016C142.967 4.72533 144.58 4.08 146.516 4.08C148.452 4.08 150.065 4.696 151.356 5.928C152.705 7.10133 153.38 8.59733 153.38 10.416C153.38 12.2347 152.705 13.76 151.356 14.992C150.065 16.1653 148.452 16.752 146.516 16.752C144.58 16.752 142.967 16.136 141.676 14.904C140.444 13.6133 139.828 12.1173 139.828 10.416ZM172.455 49.576C172.807 52.744 174.039 55.208 176.151 56.968C178.263 58.728 180.815 59.608 183.807 59.608C186.447 59.608 188.647 59.08 190.407 58.024C192.226 56.9093 193.81 55.5307 195.159 53.888L202.727 59.608C200.263 62.6587 197.506 64.8293 194.455 66.12C191.405 67.4107 188.207 68.056 184.863 68.056C181.695 68.056 178.703 67.528 175.887 66.472C173.071 65.416 170.637 63.92 168.583 61.984C166.53 60.048 164.887 57.7307 163.655 55.032C162.482 52.2747 161.895 49.224 161.895 45.88C161.895 42.536 162.482 39.5147 163.655 36.816C164.887 34.0587 166.53 31.712 168.583 29.776C170.637 27.84 173.071 26.344 175.887 25.288C178.703 24.232 181.695 23.704 184.863 23.704C187.797 23.704 190.466 24.232 192.871 25.288C195.335 26.2853 197.418 27.752 199.119 29.688C200.879 31.624 202.229 34.0293 203.167 36.904C204.165 39.72 204.663 42.976 204.663 46.672V49.576H172.455ZM194.103 41.656C194.045 38.5467 193.077 36.112 191.199 34.352C189.322 32.5333 186.711 31.624 183.367 31.624C180.199 31.624 177.677 32.5333 175.799 34.352C173.981 36.1707 172.866 38.6053 172.455 41.656H194.103ZM243.403 37.432C242.171 36.1413 240.88 35.1147 239.531 34.352C238.181 33.5893 236.803 33.208 235.395 33.208C233.459 33.208 231.728 33.56 230.203 34.264C228.677 34.968 227.357 35.9067 226.243 37.08C225.187 38.2533 224.365 39.6027 223.779 41.128C223.251 42.6533 222.987 44.2373 222.987 45.88C222.987 47.5227 223.251 49.1067 223.779 50.632C224.365 52.1573 225.187 53.5067 226.243 54.68C227.357 55.8533 228.677 56.792 230.203 57.496C231.728 58.2 233.459 58.552 235.395 58.552C237.037 58.552 238.563 58.2293 239.971 57.584C241.379 56.88 242.581 55.8827 243.579 54.592L250.619 62.16C249.563 63.216 248.331 64.1253 246.923 64.888C245.573 65.6507 244.195 66.2667 242.787 66.736C241.379 67.2053 240.029 67.528 238.739 67.704C237.448 67.9387 236.333 68.056 235.395 68.056C232.227 68.056 229.235 67.528 226.419 66.472C223.603 65.416 221.168 63.92 219.115 61.984C217.061 60.048 215.419 57.7307 214.187 55.032C213.013 52.2747 212.427 49.224 212.427 45.88C212.427 42.536 213.013 39.5147 214.187 36.816C215.419 34.0587 217.061 31.712 219.115 29.776C221.168 27.84 223.603 26.344 226.419 25.288C229.235 24.232 232.227 23.704 235.395 23.704C238.093 23.704 240.792 24.232 243.491 25.288C246.248 26.2853 248.653 27.8987 250.707 30.128L243.403 37.432ZM252.064 33.736V24.76H260.776V12.528H271.336V24.76H282.952V33.736H271.336V52.216C271.336 54.328 271.717 56 272.48 57.232C273.301 58.464 274.885 59.08 277.232 59.08C278.17 59.08 279.197 58.992 280.312 58.816C281.426 58.5813 282.306 58.2293 282.952 57.76V66.648C281.837 67.176 280.458 67.528 278.816 67.704C277.232 67.9387 275.824 68.056 274.592 68.056C271.776 68.056 269.458 67.7333 267.64 67.088C265.88 66.5013 264.472 65.592 263.416 64.36C262.418 63.0693 261.714 61.4853 261.304 59.608C260.952 57.7307 260.776 55.56 260.776 53.096V33.736H252.064ZM313.723 36.464C311.67 33.5893 308.912 32.152 305.451 32.152C304.043 32.152 302.664 32.504 301.315 33.208C299.966 33.912 299.291 35.056 299.291 36.64C299.291 37.9307 299.848 38.8693 300.963 39.456C302.078 40.0427 303.486 40.5413 305.187 40.952C306.888 41.3627 308.707 41.8027 310.643 42.272C312.638 42.6827 314.486 43.3573 316.187 44.296C317.888 45.176 319.296 46.408 320.411 47.992C321.526 49.576 322.083 51.7467 322.083 54.504C322.083 57.0267 321.526 59.168 320.411 60.928C319.355 62.6293 317.947 64.008 316.187 65.064C314.486 66.12 312.55 66.8827 310.379 67.352C308.208 67.8213 306.038 68.056 303.867 68.056C300.582 68.056 297.56 67.5867 294.803 66.648C292.046 65.7093 289.582 64.008 287.411 61.544L294.451 54.944C295.8 56.4693 297.238 57.7307 298.763 58.728C300.347 59.6667 302.254 60.136 304.483 60.136C305.246 60.136 306.038 60.048 306.859 59.872C307.68 59.696 308.443 59.4027 309.147 58.992C309.851 58.5813 310.408 58.0827 310.819 57.496C311.288 56.8507 311.523 56.1173 311.523 55.296C311.523 53.8293 310.966 52.744 309.851 52.04C308.736 51.336 307.328 50.7787 305.627 50.368C303.926 49.8987 302.078 49.488 300.083 49.136C298.147 48.7253 296.328 48.1093 294.627 47.288C292.926 46.408 291.518 45.2053 290.403 43.68C289.288 42.1547 288.731 40.0427 288.731 37.344C288.731 34.9973 289.2 32.9733 290.139 31.272C291.136 29.512 292.427 28.0747 294.011 26.96C295.595 25.8453 297.414 25.024 299.467 24.496C301.52 23.968 303.603 23.704 305.715 23.704C308.531 23.704 311.318 24.2027 314.075 25.2C316.832 26.1387 319.062 27.7813 320.763 30.128L313.723 36.464ZM382.736 61.192H382.472C380.946 63.5973 379.01 65.3573 376.664 66.472C374.317 67.528 371.736 68.056 368.92 68.056C366.984 68.056 365.077 67.792 363.2 67.264C361.381 66.736 359.738 65.944 358.272 64.888C356.864 63.832 355.72 62.512 354.84 60.928C353.96 59.344 353.52 57.496 353.52 55.384C353.52 53.096 353.93 51.16 354.752 49.576C355.573 47.9333 356.658 46.584 358.008 45.528C359.416 44.4133 361.029 43.5333 362.848 42.888C364.666 42.2427 366.544 41.7733 368.48 41.48C370.474 41.128 372.469 40.9227 374.464 40.864C376.458 40.7467 378.336 40.688 380.096 40.688H382.736V39.544C382.736 36.904 381.826 34.9387 380.008 33.648C378.189 32.2987 375.872 31.624 373.056 31.624C370.826 31.624 368.744 32.0347 366.808 32.856C364.872 33.6187 363.2 34.6747 361.792 36.024L356.248 30.48C358.594 28.0747 361.322 26.344 364.432 25.288C367.6 24.232 370.856 23.704 374.2 23.704C377.192 23.704 379.714 24.056 381.768 24.76C383.821 25.4053 385.522 26.256 386.872 27.312C388.221 28.368 389.248 29.6 389.952 31.008C390.714 32.3573 391.242 33.736 391.536 35.144C391.888 36.552 392.093 37.9307 392.152 39.28C392.21 40.5707 392.24 41.7147 392.24 42.712V67H382.736V61.192ZM382.12 48.08H379.92C378.453 48.08 376.81 48.1387 374.992 48.256C373.173 48.3733 371.442 48.6667 369.8 49.136C368.216 49.5467 366.866 50.192 365.752 51.072C364.637 51.8933 364.08 53.0667 364.08 54.592C364.08 55.5893 364.285 56.44 364.696 57.144C365.165 57.7893 365.752 58.3467 366.456 58.816C367.16 59.2853 367.952 59.6373 368.832 59.872C369.712 60.048 370.592 60.136 371.472 60.136C375.109 60.136 377.778 59.2853 379.48 57.584C381.24 55.824 382.12 53.448 382.12 50.456V48.08ZM403.601 24.76H413.633V31.536H413.809C414.807 29.424 416.332 27.6053 418.385 26.08C420.439 24.496 423.225 23.704 426.745 23.704C429.561 23.704 431.937 24.1733 433.873 25.112C435.868 26.0507 437.481 27.2827 438.713 28.808C439.945 30.3333 440.825 32.0933 441.353 34.088C441.881 36.0827 442.145 38.1653 442.145 40.336V67H431.585V45.616C431.585 44.4427 431.527 43.152 431.409 41.744C431.292 40.2773 430.969 38.928 430.441 37.696C429.972 36.4053 429.209 35.3493 428.153 34.528C427.097 33.648 425.66 33.208 423.841 33.208C422.081 33.208 420.585 33.5013 419.353 34.088C418.18 34.6747 417.183 35.4667 416.361 36.464C415.599 37.4613 415.041 38.6053 414.689 39.896C414.337 41.1867 414.161 42.536 414.161 43.944V67H403.601V24.76ZM487.572 60.664H487.396C485.871 63.2453 483.818 65.1227 481.236 66.296C478.655 67.4693 475.868 68.056 472.876 68.056C469.591 68.056 466.658 67.4987 464.076 66.384C461.554 65.2107 459.383 63.6267 457.564 61.632C455.746 59.6373 454.367 57.2907 453.428 54.592C452.49 51.8933 452.02 48.9893 452.02 45.88C452.02 42.7707 452.519 39.8667 453.516 37.168C454.514 34.4693 455.892 32.1227 457.652 30.128C459.471 28.1333 461.642 26.5787 464.164 25.464C466.687 24.2907 469.444 23.704 472.436 23.704C474.431 23.704 476.191 23.9093 477.716 24.32C479.242 24.7307 480.591 25.2587 481.764 25.904C482.938 26.5493 483.935 27.2533 484.756 28.016C485.578 28.72 486.252 29.424 486.78 30.128H487.044V0.471996H497.604V67H487.572V60.664ZM462.58 45.88C462.58 47.5227 462.844 49.1067 463.372 50.632C463.959 52.1573 464.78 53.5067 465.836 54.68C466.951 55.8533 468.271 56.792 469.796 57.496C471.322 58.2 473.052 58.552 474.988 58.552C476.924 58.552 478.655 58.2 480.18 57.496C481.706 56.792 482.996 55.8533 484.052 54.68C485.167 53.5067 485.988 52.1573 486.516 50.632C487.103 49.1067 487.396 47.5227 487.396 45.88C487.396 44.2373 487.103 42.6533 486.516 41.128C485.988 39.6027 485.167 38.2533 484.052 37.08C482.996 35.9067 481.706 34.968 480.18 34.264C478.655 33.56 476.924 33.208 474.988 33.208C473.052 33.208 471.322 33.56 469.796 34.264C468.271 34.968 466.951 35.9067 465.836 37.08C464.78 38.2533 463.959 39.6027 463.372 41.128C462.844 42.6533 462.58 44.2373 462.58 45.88ZM0.984 128.76H11.016V135.096H11.192C12.7173 132.515 14.7707 130.637 17.352 129.464C19.9333 128.291 22.72 127.704 25.712 127.704C28.9387 127.704 31.8427 128.291 34.424 129.464C37.0053 130.579 39.2053 132.133 41.024 134.128C42.8427 136.123 44.2213 138.469 45.16 141.168C46.0987 143.867 46.568 146.771 46.568 149.88C46.568 152.989 46.0693 155.893 45.072 158.592C44.0747 161.291 42.6667 163.637 40.848 165.632C39.088 167.627 36.9467 169.211 34.424 170.384C31.9013 171.499 29.144 172.056 26.152 172.056C24.1573 172.056 22.3973 171.851 20.872 171.44C19.3467 171.029 17.9973 170.501 16.824 169.856C15.6507 169.211 14.6533 168.536 13.832 167.832C13.0107 167.069 12.336 166.336 11.808 165.632H11.544V191.064H0.984V128.76ZM36.008 149.88C36.008 148.237 35.7147 146.653 35.128 145.128C34.6 143.603 33.7787 142.253 32.664 141.08C31.608 139.907 30.3173 138.968 28.792 138.264C27.2667 137.56 25.536 137.208 23.6 137.208C21.664 137.208 19.9333 137.56 18.408 138.264C16.8827 138.968 15.5627 139.907 14.448 141.08C13.392 142.253 12.5707 143.603 11.984 145.128C11.456 146.653 11.192 148.237 11.192 149.88C11.192 151.523 11.456 153.107 11.984 154.632C12.5707 156.157 13.392 157.507 14.448 158.68C15.5627 159.853 16.8827 160.792 18.408 161.496C19.9333 162.2 21.664 162.552 23.6 162.552C25.536 162.552 27.2667 162.2 28.792 161.496C30.3173 160.792 31.608 159.853 32.664 158.68C33.7787 157.507 34.6 156.157 35.128 154.632C35.7147 153.107 36.008 151.523 36.008 149.88ZM56.4137 128.76H66.9737V135.448H67.1497C68.323 132.984 69.995 131.077 72.1657 129.728C74.3364 128.379 76.8297 127.704 79.6457 127.704C80.291 127.704 80.907 127.763 81.4937 127.88C82.139 127.997 82.7844 128.144 83.4297 128.32V138.528C82.5497 138.293 81.6697 138.117 80.7897 138C79.9684 137.824 79.147 137.736 78.3257 137.736C75.8617 137.736 73.867 138.205 72.3417 139.144C70.875 140.024 69.731 141.051 68.9097 142.224C68.147 143.397 67.619 144.571 67.3257 145.744C67.091 146.917 66.9737 147.797 66.9737 148.384V171H56.4137V128.76ZM117.017 165.192H116.753C115.227 167.597 113.291 169.357 110.945 170.472C108.598 171.528 106.017 172.056 103.201 172.056C101.265 172.056 99.3581 171.792 97.4808 171.264C95.6621 170.736 94.0195 169.944 92.5528 168.888C91.1448 167.832 90.0008 166.512 89.1208 164.928C88.2408 163.344 87.8008 161.496 87.8008 159.384C87.8008 157.096 88.2115 155.16 89.0328 153.576C89.8541 151.933 90.9395 150.584 92.2888 149.528C93.6968 148.413 95.3101 147.533 97.1288 146.888C98.9475 146.243 100.825 145.773 102.761 145.48C104.755 145.128 106.75 144.923 108.745 144.864C110.739 144.747 112.617 144.688 114.377 144.688H117.017V143.544C117.017 140.904 116.107 138.939 114.289 137.648C112.47 136.299 110.153 135.624 107.337 135.624C105.107 135.624 103.025 136.035 101.089 136.856C99.1528 137.619 97.4808 138.675 96.0728 140.024L90.5288 134.48C92.8755 132.075 95.6035 130.344 98.7128 129.288C101.881 128.232 105.137 127.704 108.481 127.704C111.473 127.704 113.995 128.056 116.049 128.76C118.102 129.405 119.803 130.256 121.153 131.312C122.502 132.368 123.529 133.6 124.233 135.008C124.995 136.357 125.523 137.736 125.817 139.144C126.169 140.552 126.374 141.931 126.433 143.28C126.491 144.571 126.521 145.715 126.521 146.712V171H117.017V165.192ZM116.401 152.08H114.201C112.734 152.08 111.091 152.139 109.273 152.256C107.454 152.373 105.723 152.667 104.081 153.136C102.497 153.547 101.147 154.192 100.033 155.072C98.9181 155.893 98.3608 157.067 98.3608 158.592C98.3608 159.589 98.5661 160.44 98.9768 161.144C99.4461 161.789 100.033 162.347 100.737 162.816C101.441 163.285 102.233 163.637 103.113 163.872C103.993 164.048 104.873 164.136 105.753 164.136C109.39 164.136 112.059 163.285 113.761 161.584C115.521 159.824 116.401 157.448 116.401 154.456V152.08ZM166.746 141.432C165.514 140.141 164.224 139.115 162.874 138.352C161.525 137.589 160.146 137.208 158.738 137.208C156.802 137.208 155.072 137.56 153.546 138.264C152.021 138.968 150.701 139.907 149.586 141.08C148.53 142.253 147.709 143.603 147.122 145.128C146.594 146.653 146.33 148.237 146.33 149.88C146.33 151.523 146.594 153.107 147.122 154.632C147.709 156.157 148.53 157.507 149.586 158.68C150.701 159.853 152.021 160.792 153.546 161.496C155.072 162.2 156.802 162.552 158.738 162.552C160.381 162.552 161.906 162.229 163.314 161.584C164.722 160.88 165.925 159.883 166.922 158.592L173.962 166.16C172.906 167.216 171.674 168.125 170.266 168.888C168.917 169.651 167.538 170.267 166.13 170.736C164.722 171.205 163.373 171.528 162.082 171.704C160.792 171.939 159.677 172.056 158.738 172.056C155.57 172.056 152.578 171.528 149.762 170.472C146.946 169.416 144.512 167.92 142.458 165.984C140.405 164.048 138.762 161.731 137.53 159.032C136.357 156.275 135.77 153.224 135.77 149.88C135.77 146.536 136.357 143.515 137.53 140.816C138.762 138.059 140.405 135.712 142.458 133.776C144.512 131.84 146.946 130.344 149.762 129.288C152.578 128.232 155.57 127.704 158.738 127.704C161.437 127.704 164.136 128.232 166.834 129.288C169.592 130.285 171.997 131.899 174.05 134.128L166.746 141.432ZM175.408 137.736V128.76H184.12V116.528H194.68V128.76H206.296V137.736H194.68V156.216C194.68 158.328 195.061 160 195.824 161.232C196.645 162.464 198.229 163.08 200.576 163.08C201.514 163.08 202.541 162.992 203.656 162.816C204.77 162.581 205.65 162.229 206.296 161.76V170.648C205.181 171.176 203.802 171.528 202.16 171.704C200.576 171.939 199.168 172.056 197.936 172.056C195.12 172.056 192.802 171.733 190.984 171.088C189.224 170.501 187.816 169.592 186.76 168.36C185.762 167.069 185.058 165.485 184.648 163.608C184.296 161.731 184.12 159.56 184.12 157.096V137.736H175.408ZM214.801 128.76H225.361V171H214.801V128.76ZM213.305 114.416C213.305 112.715 213.921 111.248 215.153 110.016C216.443 108.725 218.057 108.08 219.993 108.08C221.929 108.08 223.542 108.696 224.833 109.928C226.182 111.101 226.857 112.597 226.857 114.416C226.857 116.235 226.182 117.76 224.833 118.992C223.542 120.165 221.929 120.752 219.993 120.752C218.057 120.752 216.443 120.136 215.153 118.904C213.921 117.613 213.305 116.117 213.305 114.416ZM266.348 141.432C265.116 140.141 263.825 139.115 262.476 138.352C261.127 137.589 259.748 137.208 258.34 137.208C256.404 137.208 254.673 137.56 253.148 138.264C251.623 138.968 250.303 139.907 249.188 141.08C248.132 142.253 247.311 143.603 246.724 145.128C246.196 146.653 245.932 148.237 245.932 149.88C245.932 151.523 246.196 153.107 246.724 154.632C247.311 156.157 248.132 157.507 249.188 158.68C250.303 159.853 251.623 160.792 253.148 161.496C254.673 162.2 256.404 162.552 258.34 162.552C259.983 162.552 261.508 162.229 262.916 161.584C264.324 160.88 265.527 159.883 266.524 158.592L273.564 166.16C272.508 167.216 271.276 168.125 269.868 168.888C268.519 169.651 267.14 170.267 265.732 170.736C264.324 171.205 262.975 171.528 261.684 171.704C260.393 171.939 259.279 172.056 258.34 172.056C255.172 172.056 252.18 171.528 249.364 170.472C246.548 169.416 244.113 167.92 242.06 165.984C240.007 164.048 238.364 161.731 237.132 159.032C235.959 156.275 235.372 153.224 235.372 149.88C235.372 146.536 235.959 143.515 237.132 140.816C238.364 138.059 240.007 135.712 242.06 133.776C244.113 131.84 246.548 130.344 249.364 129.288C252.18 128.232 255.172 127.704 258.34 127.704C261.039 127.704 263.737 128.232 266.436 129.288C269.193 130.285 271.599 131.899 273.652 134.128L266.348 141.432ZM288.385 153.576C288.737 156.744 289.969 159.208 292.081 160.968C294.193 162.728 296.745 163.608 299.737 163.608C302.377 163.608 304.577 163.08 306.337 162.024C308.156 160.909 309.74 159.531 311.089 157.888L318.657 163.608C316.193 166.659 313.436 168.829 310.385 170.12C307.334 171.411 304.137 172.056 300.793 172.056C297.625 172.056 294.633 171.528 291.817 170.472C289.001 169.416 286.566 167.92 284.513 165.984C282.46 164.048 280.817 161.731 279.585 159.032C278.412 156.275 277.825 153.224 277.825 149.88C277.825 146.536 278.412 143.515 279.585 140.816C280.817 138.059 282.46 135.712 284.513 133.776C286.566 131.84 289.001 130.344 291.817 129.288C294.633 128.232 297.625 127.704 300.793 127.704C303.726 127.704 306.396 128.232 308.801 129.288C311.265 130.285 313.348 131.752 315.049 133.688C316.809 135.624 318.158 138.029 319.097 140.904C320.094 143.72 320.593 146.976 320.593 150.672V153.576H288.385ZM310.033 145.656C309.974 142.547 309.006 140.112 307.129 138.352C305.252 136.533 302.641 135.624 299.297 135.624C296.129 135.624 293.606 136.533 291.729 138.352C289.91 140.171 288.796 142.605 288.385 145.656H310.033Z" fill="#252525"/>
</svg>
