<svg width="470" height="144" viewBox="0 0 470 144" fill="none" xmlns="http://www.w3.org/2000/svg">
<path d="M2.056 3.688H32.072V10.984H10.12V22.12H30.92V29.416H10.12V41.704H33.224V49H2.056V3.688ZM48.413 32.488L37.789 18.28H47.133L53.277 27.496L59.933 18.28H68.701L58.205 32.488L70.557 49H61.213L53.213 37.992L45.149 49H36.061L48.413 32.488ZM74.852 18.28H82.148V22.888H82.276C83.3853 21.0107 84.8787 19.6453 86.756 18.792C88.6333 17.9387 90.66 17.512 92.836 17.512C95.1827 17.512 97.2947 17.9387 99.172 18.792C101.049 19.6027 102.649 20.7333 103.972 22.184C105.295 23.6347 106.297 25.3413 106.98 27.304C107.663 29.2667 108.004 31.3787 108.004 33.64C108.004 35.9013 107.641 38.0133 106.916 39.976C106.191 41.9387 105.167 43.6453 103.844 45.096C102.564 46.5467 101.007 47.6987 99.172 48.552C97.3373 49.3627 95.332 49.768 93.156 49.768C91.7053 49.768 90.4253 49.6187 89.316 49.32C88.2067 49.0213 87.2253 48.6373 86.372 48.168C85.5187 47.6987 84.7933 47.208 84.196 46.696C83.5987 46.1413 83.108 45.608 82.724 45.096H82.532V63.592H74.852V18.28ZM100.324 33.64C100.324 32.4453 100.111 31.2933 99.684 30.184C99.3 29.0747 98.7027 28.0933 97.892 27.24C97.124 26.3867 96.1853 25.704 95.076 25.192C93.9667 24.68 92.708 24.424 91.3 24.424C89.892 24.424 88.6333 24.68 87.524 25.192C86.4147 25.704 85.4547 26.3867 84.644 27.24C83.876 28.0933 83.2787 29.0747 82.852 30.184C82.468 31.2933 82.276 32.4453 82.276 33.64C82.276 34.8347 82.468 35.9867 82.852 37.096C83.2787 38.2053 83.876 39.1867 84.644 40.04C85.4547 40.8933 86.4147 41.576 87.524 42.088C88.6333 42.6 89.892 42.856 91.3 42.856C92.708 42.856 93.9667 42.6 95.076 42.088C96.1853 41.576 97.124 40.8933 97.892 40.04C98.7027 39.1867 99.3 38.2053 99.684 37.096C100.111 35.9867 100.324 34.8347 100.324 33.64ZM115.293 0.615997H122.973V49H115.293V0.615997ZM130.254 33.64C130.254 31.208 130.68 29.0107 131.534 27.048C132.43 25.0427 133.624 23.336 135.118 21.928C136.611 20.52 138.382 19.432 140.43 18.664C142.478 17.896 144.654 17.512 146.958 17.512C149.262 17.512 151.438 17.896 153.486 18.664C155.534 19.432 157.304 20.52 158.798 21.928C160.291 23.336 161.464 25.0427 162.318 27.048C163.214 29.0107 163.662 31.208 163.662 33.64C163.662 36.072 163.214 38.2907 162.318 40.296C161.464 42.2587 160.291 43.944 158.798 45.352C157.304 46.76 155.534 47.848 153.486 48.616C151.438 49.384 149.262 49.768 146.958 49.768C144.654 49.768 142.478 49.384 140.43 48.616C138.382 47.848 136.611 46.76 135.118 45.352C133.624 43.944 132.43 42.2587 131.534 40.296C130.68 38.2907 130.254 36.072 130.254 33.64ZM137.934 33.64C137.934 34.8347 138.126 35.9867 138.51 37.096C138.936 38.2053 139.534 39.1867 140.302 40.04C141.112 40.8933 142.072 41.576 143.182 42.088C144.291 42.6 145.55 42.856 146.958 42.856C148.366 42.856 149.624 42.6 150.734 42.088C151.843 41.576 152.782 40.8933 153.55 40.04C154.36 39.1867 154.958 38.2053 155.342 37.096C155.768 35.9867 155.982 34.8347 155.982 33.64C155.982 32.4453 155.768 31.2933 155.342 30.184C154.958 29.0747 154.36 28.0933 153.55 27.24C152.782 26.3867 151.843 25.704 150.734 25.192C149.624 24.68 148.366 24.424 146.958 24.424C145.55 24.424 144.291 24.68 143.182 25.192C142.072 25.704 141.112 26.3867 140.302 27.24C139.534 28.0933 138.936 29.0747 138.51 30.184C138.126 31.2933 137.934 32.4453 137.934 33.64ZM170.852 18.28H178.532V23.144H178.66C179.513 21.352 180.729 19.9653 182.308 18.984C183.887 18.0027 185.7 17.512 187.748 17.512C188.217 17.512 188.665 17.5547 189.092 17.64C189.561 17.7253 190.031 17.832 190.5 17.96V25.384C189.86 25.2133 189.22 25.0853 188.58 25C187.983 24.872 187.385 24.808 186.788 24.808C184.996 24.808 183.545 25.1493 182.436 25.832C181.369 26.472 180.537 27.2187 179.94 28.072C179.385 28.9253 179.001 29.7787 178.788 30.632C178.617 31.4853 178.532 32.1253 178.532 32.552V49H170.852V18.28ZM214.927 44.776H214.735C213.626 46.5253 212.218 47.8053 210.511 48.616C208.804 49.384 206.927 49.768 204.879 49.768C203.471 49.768 202.084 49.576 200.719 49.192C199.396 48.808 198.202 48.232 197.135 47.464C196.111 46.696 195.279 45.736 194.639 44.584C193.999 43.432 193.679 42.088 193.679 40.552C193.679 38.888 193.978 37.48 194.575 36.328C195.172 35.1333 195.962 34.152 196.943 33.384C197.967 32.5733 199.14 31.9333 200.463 31.464C201.786 30.9947 203.151 30.6533 204.559 30.44C206.01 30.184 207.46 30.0347 208.911 29.992C210.362 29.9067 211.727 29.864 213.007 29.864H214.927V29.032C214.927 27.112 214.266 25.6827 212.943 24.744C211.62 23.7627 209.935 23.272 207.887 23.272C206.266 23.272 204.751 23.5707 203.343 24.168C201.935 24.7227 200.719 25.4907 199.695 26.472L195.663 22.44C197.37 20.6907 199.354 19.432 201.615 18.664C203.919 17.896 206.287 17.512 208.719 17.512C210.895 17.512 212.73 17.768 214.223 18.28C215.716 18.7493 216.954 19.368 217.935 20.136C218.916 20.904 219.663 21.8 220.175 22.824C220.73 23.8053 221.114 24.808 221.327 25.832C221.583 26.856 221.732 27.8587 221.775 28.84C221.818 29.7787 221.839 30.6107 221.839 31.336V49H214.927V44.776ZM214.479 35.24H212.879C211.812 35.24 210.618 35.2827 209.295 35.368C207.972 35.4533 206.714 35.6667 205.519 36.008C204.367 36.3067 203.386 36.776 202.575 37.416C201.764 38.0133 201.359 38.8667 201.359 39.976C201.359 40.7013 201.508 41.32 201.807 41.832C202.148 42.3013 202.575 42.7067 203.087 43.048C203.599 43.3893 204.175 43.6453 204.815 43.816C205.455 43.944 206.095 44.008 206.735 44.008C209.38 44.008 211.322 43.3893 212.559 42.152C213.839 40.872 214.479 39.144 214.479 36.968V35.24ZM226.518 24.808V18.28H232.854V9.384H240.534V18.28H248.982V24.808H240.534V38.248C240.534 39.784 240.811 41 241.366 41.896C241.963 42.792 243.115 43.24 244.822 43.24C245.505 43.24 246.251 43.176 247.062 43.048C247.873 42.8773 248.513 42.6213 248.982 42.28V48.744C248.171 49.128 247.169 49.384 245.974 49.512C244.822 49.6827 243.798 49.768 242.902 49.768C240.854 49.768 239.169 49.5333 237.846 49.064C236.566 48.6373 235.542 47.976 234.774 47.08C234.049 46.1413 233.537 44.9893 233.238 43.624C232.982 42.2587 232.854 40.68 232.854 38.888V24.808H226.518ZM255.168 18.28H262.848V49H255.168V18.28ZM254.08 7.848C254.08 6.61066 254.528 5.544 255.424 4.648C256.362 3.70933 257.536 3.24 258.944 3.24C260.352 3.24 261.525 3.688 262.464 4.584C263.445 5.43733 263.936 6.52533 263.936 7.848C263.936 9.17066 263.445 10.28 262.464 11.176C261.525 12.0293 260.352 12.456 258.944 12.456C257.536 12.456 256.362 12.008 255.424 11.112C254.528 10.1733 254.08 9.08533 254.08 7.848ZM270.129 33.64C270.129 31.208 270.555 29.0107 271.409 27.048C272.305 25.0427 273.499 23.336 274.993 21.928C276.486 20.52 278.257 19.432 280.305 18.664C282.353 17.896 284.529 17.512 286.833 17.512C289.137 17.512 291.313 17.896 293.361 18.664C295.409 19.432 297.179 20.52 298.673 21.928C300.166 23.336 301.339 25.0427 302.193 27.048C303.089 29.0107 303.537 31.208 303.537 33.64C303.537 36.072 303.089 38.2907 302.193 40.296C301.339 42.2587 300.166 43.944 298.673 45.352C297.179 46.76 295.409 47.848 293.361 48.616C291.313 49.384 289.137 49.768 286.833 49.768C284.529 49.768 282.353 49.384 280.305 48.616C278.257 47.848 276.486 46.76 274.993 45.352C273.499 43.944 272.305 42.2587 271.409 40.296C270.555 38.2907 270.129 36.072 270.129 33.64ZM277.809 33.64C277.809 34.8347 278.001 35.9867 278.385 37.096C278.811 38.2053 279.409 39.1867 280.177 40.04C280.987 40.8933 281.947 41.576 283.057 42.088C284.166 42.6 285.425 42.856 286.833 42.856C288.241 42.856 289.499 42.6 290.609 42.088C291.718 41.576 292.657 40.8933 293.425 40.04C294.235 39.1867 294.833 38.2053 295.217 37.096C295.643 35.9867 295.857 34.8347 295.857 33.64C295.857 32.4453 295.643 31.2933 295.217 30.184C294.833 29.0747 294.235 28.0933 293.425 27.24C292.657 26.3867 291.718 25.704 290.609 25.192C289.499 24.68 288.241 24.424 286.833 24.424C285.425 24.424 284.166 24.68 283.057 25.192C281.947 25.704 280.987 26.3867 280.177 27.24C279.409 28.0933 278.811 29.0747 278.385 30.184C278.001 31.2933 277.809 32.4453 277.809 33.64ZM310.727 18.28H318.023V23.208H318.151C318.876 21.672 319.986 20.3493 321.479 19.24C322.972 18.088 324.999 17.512 327.559 17.512C329.607 17.512 331.335 17.8533 332.743 18.536C334.194 19.2187 335.367 20.1147 336.263 21.224C337.159 22.3333 337.799 23.6133 338.183 25.064C338.567 26.5147 338.759 28.0293 338.759 29.608V49H331.079V33.448C331.079 32.5947 331.036 31.656 330.951 30.632C330.866 29.5653 330.631 28.584 330.247 27.688C329.906 26.7493 329.351 25.9813 328.583 25.384C327.815 24.744 326.77 24.424 325.447 24.424C324.167 24.424 323.079 24.6373 322.183 25.064C321.33 25.4907 320.604 26.0667 320.007 26.792C319.452 27.5173 319.047 28.3493 318.791 29.288C318.535 30.2267 318.407 31.208 318.407 32.232V49H310.727V18.28ZM385.615 44.776H385.423C384.313 46.5253 382.905 47.8053 381.199 48.616C379.492 49.384 377.615 49.768 375.567 49.768C374.159 49.768 372.772 49.576 371.407 49.192C370.084 48.808 368.889 48.232 367.823 47.464C366.799 46.696 365.967 45.736 365.327 44.584C364.687 43.432 364.367 42.088 364.367 40.552C364.367 38.888 364.665 37.48 365.263 36.328C365.86 35.1333 366.649 34.152 367.631 33.384C368.655 32.5733 369.828 31.9333 371.151 31.464C372.473 30.9947 373.839 30.6533 375.247 30.44C376.697 30.184 378.148 30.0347 379.599 29.992C381.049 29.9067 382.415 29.864 383.695 29.864H385.615V29.032C385.615 27.112 384.953 25.6827 383.631 24.744C382.308 23.7627 380.623 23.272 378.575 23.272C376.953 23.272 375.439 23.5707 374.031 24.168C372.623 24.7227 371.407 25.4907 370.383 26.472L366.351 22.44C368.057 20.6907 370.041 19.432 372.303 18.664C374.607 17.896 376.975 17.512 379.407 17.512C381.583 17.512 383.417 17.768 384.911 18.28C386.404 18.7493 387.641 19.368 388.623 20.136C389.604 20.904 390.351 21.8 390.863 22.824C391.417 23.8053 391.801 24.808 392.015 25.832C392.271 26.856 392.42 27.8587 392.463 28.84C392.505 29.7787 392.527 30.6107 392.527 31.336V49H385.615V44.776ZM385.167 35.24H383.567C382.5 35.24 381.305 35.2827 379.983 35.368C378.66 35.4533 377.401 35.6667 376.207 36.008C375.055 36.3067 374.073 36.776 373.263 37.416C372.452 38.0133 372.047 38.8667 372.047 39.976C372.047 40.7013 372.196 41.32 372.495 41.832C372.836 42.3013 373.263 42.7067 373.775 43.048C374.287 43.3893 374.863 43.6453 375.503 43.816C376.143 43.944 376.783 44.008 377.423 44.008C380.068 44.008 382.009 43.3893 383.247 42.152C384.527 40.872 385.167 39.144 385.167 36.968V35.24ZM400.79 18.28H408.086V23.208H408.214C408.939 21.672 410.048 20.3493 411.542 19.24C413.035 18.088 415.062 17.512 417.622 17.512C419.67 17.512 421.398 17.8533 422.806 18.536C424.256 19.2187 425.43 20.1147 426.326 21.224C427.222 22.3333 427.862 23.6133 428.246 25.064C428.63 26.5147 428.822 28.0293 428.822 29.608V49H421.142V33.448C421.142 32.5947 421.099 31.656 421.014 30.632C420.928 29.5653 420.694 28.584 420.31 27.688C419.968 26.7493 419.414 25.9813 418.646 25.384C417.878 24.744 416.832 24.424 415.51 24.424C414.23 24.424 413.142 24.6373 412.246 25.064C411.392 25.4907 410.667 26.0667 410.07 26.792C409.515 27.5173 409.11 28.3493 408.854 29.288C408.598 30.2267 408.47 31.208 408.47 32.232V49H400.79V18.28ZM461.86 44.392H461.732C460.622 46.2693 459.129 47.6347 457.252 48.488C455.374 49.3413 453.348 49.768 451.172 49.768C448.782 49.768 446.649 49.3627 444.772 48.552C442.937 47.6987 441.358 46.5467 440.036 45.096C438.713 43.6453 437.71 41.9387 437.028 39.976C436.345 38.0133 436.004 35.9013 436.004 33.64C436.004 31.3787 436.366 29.2667 437.092 27.304C437.817 25.3413 438.82 23.6347 440.1 22.184C441.422 20.7333 443.001 19.6027 444.836 18.792C446.67 17.9387 448.676 17.512 450.852 17.512C452.302 17.512 453.582 17.6613 454.692 17.96C455.801 18.2587 456.782 18.6427 457.636 19.112C458.489 19.5813 459.214 20.0933 459.812 20.648C460.409 21.16 460.9 21.672 461.284 22.184H461.476V0.615997H469.156V49H461.86V44.392ZM443.684 33.64C443.684 34.8347 443.876 35.9867 444.26 37.096C444.686 38.2053 445.284 39.1867 446.052 40.04C446.862 40.8933 447.822 41.576 448.932 42.088C450.041 42.6 451.3 42.856 452.708 42.856C454.116 42.856 455.374 42.6 456.484 42.088C457.593 41.576 458.532 40.8933 459.3 40.04C460.11 39.1867 460.708 38.2053 461.092 37.096C461.518 35.9867 461.732 34.8347 461.732 33.64C461.732 32.4453 461.518 31.2933 461.092 30.184C460.708 29.0747 460.11 28.0933 459.3 27.24C458.532 26.3867 457.593 25.704 456.484 25.192C455.374 24.68 454.116 24.424 452.708 24.424C451.3 24.424 450.041 24.68 448.932 25.192C447.822 25.704 446.862 26.3867 446.052 27.24C445.284 28.0933 444.686 29.0747 444.26 30.184C443.876 31.2933 443.684 32.4453 443.684 33.64ZM1.48 98.28H9.16V129H1.48V98.28ZM0.392 87.848C0.392 86.6107 0.84 85.544 1.736 84.648C2.67467 83.7093 3.848 83.24 5.256 83.24C6.664 83.24 7.83733 83.688 8.776 84.584C9.75733 85.4373 10.248 86.5253 10.248 87.848C10.248 89.1707 9.75733 90.28 8.776 91.176C7.83733 92.0293 6.664 92.456 5.256 92.456C3.848 92.456 2.67467 92.008 1.736 91.112C0.84 90.1733 0.392 89.0853 0.392 87.848ZM17.977 98.28H25.273V103.208H25.401C26.1263 101.672 27.2357 100.349 28.729 99.24C30.2223 98.088 32.249 97.512 34.809 97.512C36.857 97.512 38.585 97.8533 39.993 98.536C41.4437 99.2187 42.617 100.115 43.513 101.224C44.409 102.333 45.049 103.613 45.433 105.064C45.817 106.515 46.009 108.029 46.009 109.608V129H38.329V113.448C38.329 112.595 38.2863 111.656 38.201 110.632C38.1157 109.565 37.881 108.584 37.497 107.688C37.1557 106.749 36.601 105.981 35.833 105.384C35.065 104.744 34.0197 104.424 32.697 104.424C31.417 104.424 30.329 104.637 29.433 105.064C28.5797 105.491 27.8543 106.067 27.257 106.792C26.7023 107.517 26.297 108.349 26.041 109.288C25.785 110.227 25.657 111.208 25.657 112.232V129H17.977V98.28ZM71.111 106.792C69.6177 104.701 67.6123 103.656 65.095 103.656C64.071 103.656 63.0683 103.912 62.087 104.424C61.1057 104.936 60.615 105.768 60.615 106.92C60.615 107.859 61.0203 108.541 61.831 108.968C62.6417 109.395 63.6657 109.757 64.903 110.056C66.1403 110.355 67.463 110.675 68.871 111.016C70.3217 111.315 71.6657 111.805 72.903 112.488C74.1403 113.128 75.1643 114.024 75.975 115.176C76.7857 116.328 77.191 117.907 77.191 119.912C77.191 121.747 76.7857 123.304 75.975 124.584C75.207 125.821 74.183 126.824 72.903 127.592C71.6657 128.36 70.2577 128.915 68.679 129.256C67.1003 129.597 65.5217 129.768 63.943 129.768C61.5537 129.768 59.3563 129.427 57.351 128.744C55.3457 128.061 53.5537 126.824 51.975 125.032L57.095 120.232C58.0763 121.341 59.1217 122.259 60.231 122.984C61.383 123.667 62.7697 124.008 64.391 124.008C64.9457 124.008 65.5217 123.944 66.119 123.816C66.7163 123.688 67.271 123.475 67.783 123.176C68.295 122.877 68.7003 122.515 68.999 122.088C69.3403 121.619 69.511 121.085 69.511 120.488C69.511 119.421 69.1057 118.632 68.295 118.12C67.4843 117.608 66.4603 117.203 65.223 116.904C63.9857 116.563 62.6417 116.264 61.191 116.008C59.783 115.709 58.4603 115.261 57.223 114.664C55.9857 114.024 54.9617 113.149 54.151 112.04C53.3403 110.931 52.935 109.395 52.935 107.432C52.935 105.725 53.2763 104.253 53.959 103.016C54.6843 101.736 55.623 100.691 56.775 99.88C57.927 99.0693 59.2497 98.472 60.743 98.088C62.2363 97.704 63.751 97.512 65.287 97.512C67.335 97.512 69.3617 97.8747 71.367 98.6C73.3723 99.2827 74.9937 100.477 76.231 102.184L71.111 106.792ZM83.1645 98.28H90.4605V102.888H90.5885C91.6978 101.011 93.1912 99.6453 95.0685 98.792C96.9458 97.9387 98.9725 97.512 101.149 97.512C103.495 97.512 105.607 97.9387 107.485 98.792C109.362 99.6027 110.962 100.733 112.285 102.184C113.607 103.635 114.61 105.341 115.293 107.304C115.975 109.267 116.317 111.379 116.317 113.64C116.317 115.901 115.954 118.013 115.229 119.976C114.503 121.939 113.479 123.645 112.157 125.096C110.877 126.547 109.319 127.699 107.485 128.552C105.65 129.363 103.645 129.768 101.469 129.768C100.018 129.768 98.7378 129.619 97.6285 129.32C96.5192 129.021 95.5378 128.637 94.6845 128.168C93.8312 127.699 93.1058 127.208 92.5085 126.696C91.9112 126.141 91.4205 125.608 91.0365 125.096H90.8445V143.592H83.1645V98.28ZM108.637 113.64C108.637 112.445 108.423 111.293 107.997 110.184C107.613 109.075 107.015 108.093 106.205 107.24C105.437 106.387 104.498 105.704 103.389 105.192C102.279 104.68 101.021 104.424 99.6125 104.424C98.2045 104.424 96.9458 104.68 95.8365 105.192C94.7272 105.704 93.7672 106.387 92.9565 107.24C92.1885 108.093 91.5912 109.075 91.1645 110.184C90.7805 111.293 90.5885 112.445 90.5885 113.64C90.5885 114.835 90.7805 115.987 91.1645 117.096C91.5912 118.205 92.1885 119.187 92.9565 120.04C93.7672 120.893 94.7272 121.576 95.8365 122.088C96.9458 122.6 98.2045 122.856 99.6125 122.856C101.021 122.856 102.279 122.6 103.389 122.088C104.498 121.576 105.437 120.893 106.205 120.04C107.015 119.187 107.613 118.205 107.997 117.096C108.423 115.987 108.637 114.835 108.637 113.64ZM123.605 98.28H131.285V129H123.605V98.28ZM122.517 87.848C122.517 86.6107 122.965 85.544 123.861 84.648C124.8 83.7093 125.973 83.24 127.381 83.24C128.789 83.24 129.962 83.688 130.901 84.584C131.882 85.4373 132.373 86.5253 132.373 87.848C132.373 89.1707 131.882 90.28 130.901 91.176C129.962 92.0293 128.789 92.456 127.381 92.456C125.973 92.456 124.8 92.008 123.861 91.112C122.965 90.1733 122.517 89.0853 122.517 87.848ZM140.102 98.28H147.782V103.144H147.91C148.763 101.352 149.979 99.9653 151.558 98.984C153.137 98.0027 154.95 97.512 156.998 97.512C157.467 97.512 157.915 97.5547 158.342 97.64C158.811 97.7253 159.281 97.832 159.75 97.96V105.384C159.11 105.213 158.47 105.085 157.83 105C157.233 104.872 156.635 104.808 156.038 104.808C154.246 104.808 152.795 105.149 151.686 105.832C150.619 106.472 149.787 107.219 149.19 108.072C148.635 108.925 148.251 109.779 148.038 110.632C147.867 111.485 147.782 112.125 147.782 112.552V129H140.102V98.28ZM184.177 124.776H183.985C182.876 126.525 181.468 127.805 179.761 128.616C178.054 129.384 176.177 129.768 174.129 129.768C172.721 129.768 171.334 129.576 169.969 129.192C168.646 128.808 167.452 128.232 166.385 127.464C165.361 126.696 164.529 125.736 163.889 124.584C163.249 123.432 162.929 122.088 162.929 120.552C162.929 118.888 163.228 117.48 163.825 116.328C164.422 115.133 165.212 114.152 166.193 113.384C167.217 112.573 168.39 111.933 169.713 111.464C171.036 110.995 172.401 110.653 173.809 110.44C175.26 110.184 176.71 110.035 178.161 109.992C179.612 109.907 180.977 109.864 182.257 109.864H184.177V109.032C184.177 107.112 183.516 105.683 182.193 104.744C180.87 103.763 179.185 103.272 177.137 103.272C175.516 103.272 174.001 103.571 172.593 104.168C171.185 104.723 169.969 105.491 168.945 106.472L164.913 102.44C166.62 100.691 168.604 99.432 170.865 98.664C173.169 97.896 175.537 97.512 177.969 97.512C180.145 97.512 181.98 97.768 183.473 98.28C184.966 98.7493 186.204 99.368 187.185 100.136C188.166 100.904 188.913 101.8 189.425 102.824C189.98 103.805 190.364 104.808 190.577 105.832C190.833 106.856 190.982 107.859 191.025 108.84C191.068 109.779 191.089 110.611 191.089 111.336V129H184.177V124.776ZM183.729 115.24H182.129C181.062 115.24 179.868 115.283 178.545 115.368C177.222 115.453 175.964 115.667 174.769 116.008C173.617 116.307 172.636 116.776 171.825 117.416C171.014 118.013 170.609 118.867 170.609 119.976C170.609 120.701 170.758 121.32 171.057 121.832C171.398 122.301 171.825 122.707 172.337 123.048C172.849 123.389 173.425 123.645 174.065 123.816C174.705 123.944 175.345 124.008 175.985 124.008C178.63 124.008 180.572 123.389 181.809 122.152C183.089 120.872 183.729 119.144 183.729 116.968V115.24ZM195.768 104.808V98.28H202.104V89.384H209.784V98.28H218.232V104.808H209.784V118.248C209.784 119.784 210.061 121 210.616 121.896C211.213 122.792 212.365 123.24 214.072 123.24C214.755 123.24 215.501 123.176 216.312 123.048C217.123 122.877 217.763 122.621 218.232 122.28V128.744C217.421 129.128 216.419 129.384 215.224 129.512C214.072 129.683 213.048 129.768 212.152 129.768C210.104 129.768 208.419 129.533 207.096 129.064C205.816 128.637 204.792 127.976 204.024 127.08C203.299 126.141 202.787 124.989 202.488 123.624C202.232 122.259 202.104 120.68 202.104 118.888V104.808H195.768ZM224.418 98.28H232.098V129H224.418V98.28ZM223.33 87.848C223.33 86.6107 223.778 85.544 224.674 84.648C225.612 83.7093 226.786 83.24 228.194 83.24C229.602 83.24 230.775 83.688 231.714 84.584C232.695 85.4373 233.186 86.5253 233.186 87.848C233.186 89.1707 232.695 90.28 231.714 91.176C230.775 92.0293 229.602 92.456 228.194 92.456C226.786 92.456 225.612 92.008 224.674 91.112C223.778 90.1733 223.33 89.0853 223.33 87.848ZM239.379 113.64C239.379 111.208 239.805 109.011 240.659 107.048C241.555 105.043 242.749 103.336 244.243 101.928C245.736 100.52 247.507 99.432 249.555 98.664C251.603 97.896 253.779 97.512 256.083 97.512C258.387 97.512 260.563 97.896 262.611 98.664C264.659 99.432 266.429 100.52 267.923 101.928C269.416 103.336 270.589 105.043 271.443 107.048C272.339 109.011 272.787 111.208 272.787 113.64C272.787 116.072 272.339 118.291 271.443 120.296C270.589 122.259 269.416 123.944 267.923 125.352C266.429 126.76 264.659 127.848 262.611 128.616C260.563 129.384 258.387 129.768 256.083 129.768C253.779 129.768 251.603 129.384 249.555 128.616C247.507 127.848 245.736 126.76 244.243 125.352C242.749 123.944 241.555 122.259 240.659 120.296C239.805 118.291 239.379 116.072 239.379 113.64ZM247.059 113.64C247.059 114.835 247.251 115.987 247.635 117.096C248.061 118.205 248.659 119.187 249.427 120.04C250.237 120.893 251.197 121.576 252.307 122.088C253.416 122.6 254.675 122.856 256.083 122.856C257.491 122.856 258.749 122.6 259.859 122.088C260.968 121.576 261.907 120.893 262.675 120.04C263.485 119.187 264.083 118.205 264.467 117.096C264.893 115.987 265.107 114.835 265.107 113.64C265.107 112.445 264.893 111.293 264.467 110.184C264.083 109.075 263.485 108.093 262.675 107.24C261.907 106.387 260.968 105.704 259.859 105.192C258.749 104.68 257.491 104.424 256.083 104.424C254.675 104.424 253.416 104.68 252.307 105.192C251.197 105.704 250.237 106.387 249.427 107.24C248.659 108.093 248.061 109.075 247.635 110.184C247.251 111.293 247.059 112.445 247.059 113.64ZM279.977 98.28H287.273V103.208H287.401C288.126 101.672 289.236 100.349 290.729 99.24C292.222 98.088 294.249 97.512 296.809 97.512C298.857 97.512 300.585 97.8533 301.993 98.536C303.444 99.2187 304.617 100.115 305.513 101.224C306.409 102.333 307.049 103.613 307.433 105.064C307.817 106.515 308.009 108.029 308.009 109.608V129H300.329V113.448C300.329 112.595 300.286 111.656 300.201 110.632C300.116 109.565 299.881 108.584 299.497 107.688C299.156 106.749 298.601 105.981 297.833 105.384C297.065 104.744 296.02 104.424 294.697 104.424C293.417 104.424 292.329 104.637 291.433 105.064C290.58 105.491 289.854 106.067 289.257 106.792C288.702 107.517 288.297 108.349 288.041 109.288C287.785 110.227 287.657 111.208 287.657 112.232V129H279.977V98.28Z" fill="#252525"/>
</svg>
