<svg width="178" height="174" viewBox="0 0 178 174" fill="none" xmlns="http://www.w3.org/2000/svg">
<path d="M10.0645 15.459L7.94531 22.7871H9.68164C10.9212 22.7871 11.819 22.6003 12.375 22.2266C12.931 21.8438 13.4095 21.1419 13.8105 20.1211H14.3164L12.416 26.8477H11.8691C12.0332 26.2826 12.1152 25.7995 12.1152 25.3984C12.1152 25.0065 12.0332 24.6921 11.8691 24.4551C11.7142 24.2181 11.4954 24.0449 11.2129 23.9355C10.9395 23.8171 10.3561 23.7578 9.46289 23.7578H7.69922L5.9082 29.8965C5.73503 30.4889 5.64844 30.9401 5.64844 31.25C5.64844 31.487 5.76237 31.6966 5.99023 31.8789C6.14518 32.0065 6.53255 32.0703 7.15234 32.0703H8.79297C10.5703 32.0703 11.9922 31.7559 13.0586 31.127C14.1341 30.498 15.0957 29.4043 15.9434 27.8457H16.4492L14.6992 33H0.371094L0.548828 32.4941C1.25977 32.4759 1.73828 32.4121 1.98438 32.3027C2.34896 32.1387 2.61328 31.929 2.77734 31.6738C3.02344 31.3001 3.3151 30.5163 3.65234 29.3223L6.90625 18.1387C7.16146 17.2363 7.28906 16.5482 7.28906 16.0742C7.28906 15.7279 7.16602 15.459 6.91992 15.2676C6.68294 15.0671 6.21354 14.9668 5.51172 14.9668H5.22461L5.38867 14.4609H18.7051L17.5566 18.9316H17.0508C17.1146 18.5124 17.1465 18.1615 17.1465 17.8789C17.1465 17.3958 17.028 16.9902 16.791 16.6621C16.4811 16.2428 16.0299 15.9238 15.4375 15.7051C15 15.541 13.9928 15.459 12.416 15.459H10.0645ZM22.9707 20.627C23.4173 21.1009 23.7546 21.5749 23.9824 22.0488C24.1465 22.377 24.4154 23.2383 24.7891 24.6328L25.9922 22.8281C26.3112 22.3906 26.6986 21.9759 27.1543 21.584C27.61 21.1829 28.0111 20.9095 28.3574 20.7637C28.5762 20.6725 28.8177 20.627 29.082 20.627C29.474 20.627 29.7839 20.7318 30.0117 20.9414C30.2487 21.151 30.3672 21.4062 30.3672 21.707C30.3672 22.0534 30.2988 22.2904 30.1621 22.418C29.9069 22.6458 29.6152 22.7598 29.2871 22.7598C29.0957 22.7598 28.8906 22.7188 28.6719 22.6367C28.2435 22.4909 27.9564 22.418 27.8105 22.418C27.5918 22.418 27.332 22.5456 27.0312 22.8008C26.4661 23.2747 25.7917 24.1908 25.0078 25.5488L26.1289 30.252C26.3021 30.972 26.4479 31.4049 26.5664 31.5508C26.6849 31.6875 26.8034 31.7559 26.9219 31.7559C27.1133 31.7559 27.3366 31.651 27.5918 31.4414C28.0931 31.0221 28.5215 30.4753 28.877 29.8008L29.3555 30.0469C28.7812 31.1224 28.0521 32.0156 27.168 32.7266C26.6667 33.1276 26.2428 33.3281 25.8965 33.3281C25.3861 33.3281 24.9805 33.041 24.6797 32.4668C24.4883 32.1113 24.0918 30.5801 23.4902 27.873C22.0684 30.3431 20.929 31.9336 20.0723 32.6445C19.5163 33.1003 18.9785 33.3281 18.459 33.3281C18.0944 33.3281 17.7617 33.196 17.4609 32.9316C17.2422 32.7311 17.1328 32.4622 17.1328 32.125C17.1328 31.8242 17.2331 31.5736 17.4336 31.373C17.6341 31.1725 17.8802 31.0723 18.1719 31.0723C18.4635 31.0723 18.7734 31.2181 19.1016 31.5098C19.3385 31.7194 19.5208 31.8242 19.6484 31.8242C19.7578 31.8242 19.8991 31.7513 20.0723 31.6055C20.5007 31.2591 21.084 30.5117 21.8223 29.3633C22.5605 28.2148 23.0436 27.3854 23.2715 26.875C22.7064 24.6602 22.401 23.4889 22.3555 23.3613C22.1458 22.7689 21.8724 22.3496 21.5352 22.1035C21.1979 21.8574 20.7012 21.7344 20.0449 21.7344C19.8353 21.7344 19.5938 21.7435 19.3203 21.7617V21.2695L22.9707 20.627ZM41.373 30.0195C40.4251 31.1589 39.4681 31.9974 38.502 32.5352C37.5358 33.0638 36.515 33.3281 35.4395 33.3281C34.1452 33.3281 33.1335 32.9635 32.4043 32.2344C31.6842 31.5052 31.3242 30.5254 31.3242 29.2949C31.3242 27.9004 31.7116 26.5286 32.4863 25.1797C33.2702 23.8307 34.3184 22.737 35.6309 21.8984C36.9525 21.0508 38.2467 20.627 39.5137 20.627C40.5072 20.627 41.25 20.8366 41.7422 21.2559C42.2344 21.666 42.4805 22.1719 42.4805 22.7734C42.4805 23.3385 42.3073 23.8216 41.9609 24.2227C41.7057 24.5326 41.3913 24.6875 41.0176 24.6875C40.735 24.6875 40.498 24.5964 40.3066 24.4141C40.1243 24.2318 40.0332 24.0039 40.0332 23.7305C40.0332 23.5573 40.0651 23.3978 40.1289 23.252C40.2018 23.1061 40.3431 22.9329 40.5527 22.7324C40.7715 22.5228 40.9036 22.3724 40.9492 22.2812C40.9948 22.1901 41.0176 22.0944 41.0176 21.9941C41.0176 21.8027 40.931 21.6432 40.7578 21.5156C40.4935 21.3333 40.1198 21.2422 39.6367 21.2422C38.7435 21.2422 37.8594 21.5566 36.9844 22.1855C36.1094 22.8145 35.362 23.7077 34.7422 24.8652C33.9948 26.2689 33.6211 27.6725 33.6211 29.0762C33.6211 30.0059 33.8854 30.7441 34.4141 31.291C34.9427 31.8288 35.6628 32.0977 36.5742 32.0977C37.276 32.0977 37.9688 31.9245 38.6523 31.5781C39.3451 31.2227 40.1198 30.5846 40.9766 29.6641L41.373 30.0195ZM51.3262 13.5586L46.6504 29.8281C46.4225 30.6393 46.3086 31.1361 46.3086 31.3184C46.3086 31.4551 46.3496 31.569 46.4316 31.6602C46.5228 31.7513 46.6322 31.7969 46.7598 31.7969C46.9329 31.7969 47.1198 31.7194 47.3203 31.5645C47.7943 31.1908 48.291 30.612 48.8105 29.8281L49.2207 30.252C48.3548 31.4733 47.5573 32.3255 46.8281 32.8086C46.2904 33.1549 45.7799 33.3281 45.2969 33.3281C44.9505 33.3281 44.6589 33.2096 44.4219 32.9727C44.194 32.7357 44.0801 32.4622 44.0801 32.1523C44.0801 31.8242 44.2259 31.1497 44.5176 30.1289L48.2227 17.3047C48.5234 16.2565 48.6738 15.6549 48.6738 15.5C48.6738 15.2812 48.5872 15.1035 48.4141 14.9668C48.2409 14.821 47.972 14.748 47.6074 14.748C47.3978 14.748 47.0788 14.7799 46.6504 14.8438V14.3379L51.3262 13.5586ZM63.9727 20.9551L61.5938 29.1035C61.2383 30.3158 61.0605 31.0814 61.0605 31.4004C61.0605 31.5645 61.0879 31.6875 61.1426 31.7695C61.2064 31.8424 61.2884 31.8789 61.3887 31.8789C61.5436 31.8789 61.7122 31.8105 61.8945 31.6738C62.0859 31.528 62.5599 30.9629 63.3164 29.9785L63.7266 30.293C63.0065 31.4323 62.2682 32.2708 61.5117 32.8086C61.0104 33.1549 60.5273 33.3281 60.0625 33.3281C59.707 33.3281 59.429 33.2279 59.2285 33.0273C59.028 32.8268 58.9277 32.5671 58.9277 32.248C58.9277 31.9382 58.987 31.528 59.1055 31.0176C59.2513 30.3431 59.666 28.8757 60.3496 26.6152C58.8001 29.1582 57.5013 30.9128 56.4531 31.8789C55.4141 32.8451 54.4479 33.3281 53.5547 33.3281C53.1354 33.3281 52.7799 33.1823 52.4883 32.8906C52.1966 32.599 52.0508 32.2298 52.0508 31.7832C52.0508 31.0996 52.2513 30.0514 52.6523 28.6387L53.8418 24.4141C54.1335 23.4023 54.2793 22.7734 54.2793 22.5273C54.2793 22.418 54.2383 22.3268 54.1562 22.2539C54.0833 22.1719 54.0013 22.1309 53.9102 22.1309C53.7188 22.1309 53.5273 22.1992 53.3359 22.3359C53.1445 22.4727 52.7116 22.9785 52.0371 23.8535L51.6133 23.5527C52.2969 22.4954 53.0215 21.7161 53.7871 21.2148C54.3704 20.8229 54.9082 20.627 55.4004 20.627C55.7376 20.627 56.0111 20.7363 56.2207 20.9551C56.4395 21.1647 56.5488 21.4382 56.5488 21.7754C56.5488 22.2676 56.3665 23.1471 56.002 24.4141L54.7168 28.8301C54.3613 30.0332 54.1836 30.7943 54.1836 31.1133C54.1836 31.2865 54.2383 31.4277 54.3477 31.5371C54.4661 31.6374 54.6211 31.6875 54.8125 31.6875C55.1133 31.6875 55.5052 31.5371 55.9883 31.2363C56.4714 30.9355 57.1139 30.2702 57.916 29.2402C58.7272 28.2012 59.3926 27.2305 59.9121 26.3281C60.4408 25.4167 61.0013 23.972 61.5938 21.9941L61.8945 20.9551H63.9727ZM74.9512 20.627L74.1172 24.8242H73.6113C73.5658 23.6029 73.306 22.7142 72.832 22.1582C72.3581 21.6022 71.7702 21.3242 71.0684 21.3242C70.5033 21.3242 70.0521 21.4792 69.7148 21.7891C69.3867 22.099 69.2227 22.4727 69.2227 22.9102C69.2227 23.2109 69.2865 23.498 69.4141 23.7715C69.5508 24.0449 69.8424 24.4277 70.2891 24.9199C71.474 26.2142 72.2396 27.1895 72.5859 27.8457C72.9323 28.502 73.1055 29.1217 73.1055 29.7051C73.1055 30.653 72.709 31.4961 71.916 32.2344C71.1322 32.9635 70.1387 33.3281 68.9355 33.3281C68.2793 33.3281 67.5228 33.1732 66.666 32.8633C66.3652 32.7539 66.1328 32.6992 65.9688 32.6992C65.5586 32.6992 65.2487 32.9089 65.0391 33.3281H64.5332L65.3672 28.8984H65.873C65.9277 30.2839 66.2148 31.2637 66.7344 31.8379C67.2539 32.4121 67.9648 32.6992 68.8672 32.6992C69.5599 32.6992 70.1068 32.5078 70.5078 32.125C70.918 31.7331 71.123 31.2546 71.123 30.6895C71.123 30.3249 71.0501 29.9876 70.9043 29.6777C70.6491 29.1309 70.1113 28.3743 69.291 27.4082C68.4798 26.4421 67.9557 25.7174 67.7188 25.2344C67.4909 24.7513 67.377 24.2682 67.377 23.7852C67.377 22.901 67.696 22.1536 68.334 21.543C68.9811 20.9323 69.8105 20.627 70.8223 20.627C71.1139 20.627 71.3783 20.6497 71.6152 20.6953C71.7428 20.7227 72.0391 20.8275 72.5039 21.0098C72.9779 21.1829 73.2923 21.2695 73.4473 21.2695C73.8392 21.2695 74.1673 21.0553 74.4316 20.627H74.9512ZM81.9648 15.1992C82.3477 15.1992 82.6712 15.3314 82.9355 15.5957C83.1999 15.86 83.332 16.1836 83.332 16.5664C83.332 16.9401 83.1953 17.2637 82.9219 17.5371C82.6576 17.8014 82.3385 17.9336 81.9648 17.9336C81.5911 17.9336 81.2676 17.8014 80.9941 17.5371C80.7298 17.2637 80.5977 16.9401 80.5977 16.5664C80.5977 16.1836 80.7298 15.86 80.9941 15.5957C81.2585 15.3314 81.582 15.1992 81.9648 15.1992ZM82.1426 20.627L79.4355 30.2109C79.2533 30.8581 79.1621 31.2454 79.1621 31.373C79.1621 31.5189 79.2031 31.6374 79.2852 31.7285C79.3763 31.8197 79.4811 31.8652 79.5996 31.8652C79.7363 31.8652 79.9004 31.7923 80.0918 31.6465C80.6113 31.2363 81.1354 30.653 81.6641 29.8965L82.1426 30.2109C81.5228 31.1589 80.7936 31.9564 79.9551 32.6035C79.3353 33.0866 78.7428 33.3281 78.1777 33.3281C77.804 33.3281 77.4987 33.2188 77.2617 33C77.0247 32.7721 76.9062 32.4896 76.9062 32.1523C76.9062 31.8151 77.0202 31.2546 77.248 30.4707L79.0254 24.3457C79.3171 23.3431 79.4629 22.7142 79.4629 22.459C79.4629 22.2585 79.39 22.0944 79.2441 21.9668C79.1074 21.8392 78.916 21.7754 78.6699 21.7754C78.4694 21.7754 78.0547 21.8255 77.4258 21.9258V21.3926L82.1426 20.627ZM84.0977 21.4746L88.0488 20.627C88.3314 21.3014 88.5592 21.9896 88.7324 22.6914C88.9785 23.7214 89.179 24.9427 89.334 26.3555C89.4069 27.0664 89.5072 28.5703 89.6348 30.8672C90.7741 29.6094 91.4531 28.8301 91.6719 28.5293C92.875 26.8978 93.5677 25.9408 93.75 25.6582C94.0508 25.1751 94.2604 24.7513 94.3789 24.3867C94.4792 24.1133 94.5293 23.8535 94.5293 23.6074C94.5293 23.3704 94.3151 23.097 93.8867 22.7871C93.4674 22.4772 93.2578 22.1309 93.2578 21.748C93.2578 21.4564 93.3717 21.1966 93.5996 20.9688C93.8366 20.7409 94.1146 20.627 94.4336 20.627C94.8164 20.627 95.1536 20.7865 95.4453 21.1055C95.737 21.4154 95.8828 21.8027 95.8828 22.2676C95.8828 22.7324 95.8099 23.179 95.6641 23.6074C95.4271 24.3001 94.985 25.1478 94.3379 26.1504C93.6908 27.1439 92.6471 28.4792 91.207 30.1562C91.0247 30.3659 90.013 31.4232 88.1719 33.3281H87.666C87.4473 27.5586 86.9915 23.9583 86.2988 22.5273C86.071 22.0625 85.6927 21.8301 85.1641 21.8301C84.9362 21.8301 84.6126 21.8711 84.1934 21.9531L84.0977 21.4746ZM99.2734 27.8457C99.2096 28.3014 99.1777 28.6797 99.1777 28.9805C99.1777 29.7917 99.4648 30.4844 100.039 31.0586C100.613 31.6237 101.311 31.9062 102.131 31.9062C102.787 31.9062 103.416 31.7741 104.018 31.5098C104.628 31.2363 105.531 30.6393 106.725 29.7188L107.012 30.1152C104.852 32.2572 102.792 33.3281 100.832 33.3281C99.5013 33.3281 98.4987 32.9089 97.8242 32.0703C97.1497 31.2318 96.8125 30.3066 96.8125 29.2949C96.8125 27.9368 97.2318 26.5469 98.0703 25.125C98.9089 23.7031 99.9616 22.6003 101.229 21.8164C102.495 21.0234 103.799 20.627 105.139 20.627C106.105 20.627 106.82 20.8229 107.285 21.2148C107.75 21.6068 107.982 22.0716 107.982 22.6094C107.982 23.3659 107.682 24.0905 107.08 24.7832C106.287 25.6855 105.12 26.4147 103.58 26.9707C102.559 27.3444 101.124 27.6361 99.2734 27.8457ZM99.3691 27.1758C100.718 27.0208 101.816 26.7565 102.664 26.3828C103.785 25.8815 104.624 25.2845 105.18 24.5918C105.745 23.89 106.027 23.2246 106.027 22.5957C106.027 22.2129 105.904 21.903 105.658 21.666C105.421 21.429 105.079 21.3105 104.633 21.3105C103.703 21.3105 102.714 21.8073 101.666 22.8008C100.627 23.7852 99.8613 25.2435 99.3691 27.1758ZM129.967 21.4746L129.57 22.8965H127.287C127.46 23.3887 127.547 23.849 127.547 24.2773C127.547 25.4805 127.036 26.5514 126.016 27.4902C124.986 28.429 123.573 28.9486 121.777 29.0488C120.811 29.3405 120.087 29.6868 119.604 30.0879C119.421 30.2337 119.33 30.3841 119.33 30.5391C119.33 30.7214 119.412 30.89 119.576 31.0449C119.74 31.1908 120.155 31.3411 120.82 31.4961L123.473 32.1113C124.94 32.4577 125.911 32.8678 126.385 33.3418C126.85 33.8249 127.082 34.3809 127.082 35.0098C127.082 35.7572 126.804 36.4408 126.248 37.0605C125.701 37.6803 124.895 38.1634 123.828 38.5098C122.771 38.8652 121.6 39.043 120.314 39.043C119.184 39.043 118.154 38.9062 117.225 38.6328C116.295 38.3685 115.63 38.0085 115.229 37.5527C114.827 37.097 114.627 36.6276 114.627 36.1445C114.627 35.7526 114.759 35.3424 115.023 34.9141C115.279 34.4948 115.602 34.1484 115.994 33.875C116.24 33.7018 116.938 33.2917 118.086 32.6445C117.667 32.3164 117.457 31.9564 117.457 31.5645C117.457 31.1999 117.639 30.8125 118.004 30.4023C118.378 29.9922 119.161 29.541 120.355 29.0488C119.353 28.8574 118.555 28.4382 117.963 27.791C117.38 27.1439 117.088 26.4238 117.088 25.6309C117.088 24.3366 117.653 23.179 118.783 22.1582C119.923 21.1374 121.436 20.627 123.322 20.627C124.006 20.627 124.566 20.6953 125.004 20.832C125.441 20.9688 125.865 21.1829 126.275 21.4746H129.967ZM125.223 23.6211C125.223 22.8919 125.018 22.3177 124.607 21.8984C124.206 21.4792 123.678 21.2695 123.021 21.2695C121.992 21.2695 121.139 21.7891 120.465 22.8281C119.799 23.8581 119.467 24.9336 119.467 26.0547C119.467 26.7565 119.681 27.3307 120.109 27.7773C120.538 28.224 121.057 28.4473 121.668 28.4473C122.151 28.4473 122.616 28.3151 123.062 28.0508C123.518 27.7865 123.901 27.4219 124.211 26.957C124.521 26.4922 124.767 25.8997 124.949 25.1797C125.132 24.4596 125.223 23.9401 125.223 23.6211ZM118.674 33C117.936 33.3372 117.375 33.7702 116.992 34.2988C116.618 34.8275 116.432 35.347 116.432 35.8574C116.432 36.459 116.705 36.9557 117.252 37.3477C118.036 37.9128 119.184 38.1953 120.697 38.1953C122.001 38.1953 123.113 37.972 124.033 37.5254C124.963 37.0879 125.428 36.5182 125.428 35.8164C125.428 35.4609 125.255 35.1237 124.908 34.8047C124.571 34.4857 123.91 34.2259 122.926 34.0254C122.388 33.916 120.971 33.5742 118.674 33ZM135.641 15.1992C136.023 15.1992 136.347 15.3314 136.611 15.5957C136.876 15.86 137.008 16.1836 137.008 16.5664C137.008 16.9401 136.871 17.2637 136.598 17.5371C136.333 17.8014 136.014 17.9336 135.641 17.9336C135.267 17.9336 134.943 17.8014 134.67 17.5371C134.406 17.2637 134.273 16.9401 134.273 16.5664C134.273 16.1836 134.406 15.86 134.67 15.5957C134.934 15.3314 135.258 15.1992 135.641 15.1992ZM135.818 20.627L133.111 30.2109C132.929 30.8581 132.838 31.2454 132.838 31.373C132.838 31.5189 132.879 31.6374 132.961 31.7285C133.052 31.8197 133.157 31.8652 133.275 31.8652C133.412 31.8652 133.576 31.7923 133.768 31.6465C134.287 31.2363 134.811 30.653 135.34 29.8965L135.818 30.2109C135.199 31.1589 134.469 31.9564 133.631 32.6035C133.011 33.0866 132.419 33.3281 131.854 33.3281C131.48 33.3281 131.174 33.2188 130.938 33C130.701 32.7721 130.582 32.4896 130.582 32.1523C130.582 31.8151 130.696 31.2546 130.924 30.4707L132.701 24.3457C132.993 23.3431 133.139 22.7142 133.139 22.459C133.139 22.2585 133.066 22.0944 132.92 21.9668C132.783 21.8392 132.592 21.7754 132.346 21.7754C132.145 21.7754 131.73 21.8255 131.102 21.9258V21.3926L135.818 20.627ZM145.471 20.9551L145.225 21.8574H143.229L141.725 27.832C141.059 30.4661 140.389 32.5033 139.715 33.9434C138.758 35.9759 137.728 37.3796 136.625 38.1543C135.786 38.7467 134.948 39.043 134.109 39.043C133.562 39.043 133.098 38.8789 132.715 38.5508C132.432 38.3229 132.291 38.0267 132.291 37.6621C132.291 37.3704 132.41 37.1152 132.646 36.8965C132.874 36.6868 133.157 36.582 133.494 36.582C133.74 36.582 133.95 36.6595 134.123 36.8145C134.287 36.9694 134.369 37.1471 134.369 37.3477C134.369 37.5482 134.273 37.735 134.082 37.9082C133.936 38.0358 133.863 38.1315 133.863 38.1953C133.863 38.2773 133.895 38.3411 133.959 38.3867C134.041 38.4505 134.169 38.4824 134.342 38.4824C134.734 38.4824 135.148 38.3594 135.586 38.1133C136.014 37.8672 136.397 37.498 136.734 37.0059C137.072 36.5228 137.391 35.821 137.691 34.9004C137.819 34.5176 138.161 33.2552 138.717 31.1133L141.096 21.8574H138.717L138.908 20.9551C139.665 20.9551 140.193 20.9049 140.494 20.8047C140.795 20.6953 141.068 20.4948 141.314 20.2031C141.57 19.9023 141.898 19.3464 142.299 18.5352C142.837 17.4414 143.352 16.5938 143.844 15.9922C144.518 15.181 145.225 14.5749 145.963 14.1738C146.71 13.7637 147.412 13.5586 148.068 13.5586C148.761 13.5586 149.317 13.7363 149.736 14.0918C150.156 14.4382 150.365 14.8164 150.365 15.2266C150.365 15.5456 150.26 15.8145 150.051 16.0332C149.841 16.252 149.572 16.3613 149.244 16.3613C148.962 16.3613 148.729 16.2793 148.547 16.1152C148.374 15.9512 148.287 15.7552 148.287 15.5273C148.287 15.3815 148.346 15.2038 148.465 14.9941C148.583 14.7754 148.643 14.6296 148.643 14.5566C148.643 14.429 148.602 14.3333 148.52 14.2695C148.401 14.1784 148.228 14.1328 148 14.1328C147.426 14.1328 146.911 14.3151 146.455 14.6797C145.844 15.1628 145.298 15.9193 144.814 16.9492C144.568 17.487 144.117 18.8223 143.461 20.9551H145.471ZM152.238 17.2363L151.172 20.9551H153.318L153.086 21.8164H150.953L148.602 29.8828C148.346 30.7487 148.219 31.3092 148.219 31.5645C148.219 31.7194 148.255 31.8379 148.328 31.9199C148.401 32.002 148.488 32.043 148.588 32.043C148.816 32.043 149.117 31.8835 149.49 31.5645C149.709 31.3822 150.197 30.8216 150.953 29.8828L151.404 30.2246C150.566 31.446 149.773 32.3073 149.025 32.8086C148.515 33.1549 148 33.3281 147.48 33.3281C147.079 33.3281 146.751 33.2051 146.496 32.959C146.241 32.7038 146.113 32.3802 146.113 31.9883C146.113 31.4961 146.259 30.7441 146.551 29.7324L148.834 21.8164H146.77L146.906 21.2832C147.909 21.0098 148.743 20.6042 149.408 20.0664C150.074 19.5195 150.816 18.5762 151.637 17.2363H152.238ZM162.916 20.627L162.082 24.8242H161.576C161.531 23.6029 161.271 22.7142 160.797 22.1582C160.323 21.6022 159.735 21.3242 159.033 21.3242C158.468 21.3242 158.017 21.4792 157.68 21.7891C157.352 22.099 157.188 22.4727 157.188 22.9102C157.188 23.2109 157.251 23.498 157.379 23.7715C157.516 24.0449 157.807 24.4277 158.254 24.9199C159.439 26.2142 160.204 27.1895 160.551 27.8457C160.897 28.502 161.07 29.1217 161.07 29.7051C161.07 30.653 160.674 31.4961 159.881 32.2344C159.097 32.9635 158.104 33.3281 156.9 33.3281C156.244 33.3281 155.488 33.1732 154.631 32.8633C154.33 32.7539 154.098 32.6992 153.934 32.6992C153.523 32.6992 153.214 32.9089 153.004 33.3281H152.498L153.332 28.8984H153.838C153.893 30.2839 154.18 31.2637 154.699 31.8379C155.219 32.4121 155.93 32.6992 156.832 32.6992C157.525 32.6992 158.072 32.5078 158.473 32.125C158.883 31.7331 159.088 31.2546 159.088 30.6895C159.088 30.3249 159.015 29.9876 158.869 29.6777C158.614 29.1309 158.076 28.3743 157.256 27.4082C156.445 26.4421 155.921 25.7174 155.684 25.2344C155.456 24.7513 155.342 24.2682 155.342 23.7852C155.342 22.901 155.661 22.1536 156.299 21.543C156.946 20.9323 157.775 20.627 158.787 20.627C159.079 20.627 159.343 20.6497 159.58 20.6953C159.708 20.7227 160.004 20.8275 160.469 21.0098C160.943 21.1829 161.257 21.2695 161.412 21.2695C161.804 21.2695 162.132 21.0553 162.396 20.627H162.916ZM165.992 30.5527C166.384 30.5527 166.712 30.6895 166.977 30.9629C167.25 31.2272 167.387 31.5508 167.387 31.9336C167.387 32.3164 167.25 32.6445 166.977 32.918C166.703 33.1823 166.375 33.3145 165.992 33.3145C165.609 33.3145 165.281 33.1823 165.008 32.918C164.743 32.6445 164.611 32.3164 164.611 31.9336C164.611 31.5508 164.743 31.2272 165.008 30.9629C165.281 30.6895 165.609 30.5527 165.992 30.5527ZM7.9043 80.4941L7.75391 81H0.125L0.316406 80.4941C1.08203 80.4759 1.58789 80.4121 1.83398 80.3027C2.23503 80.1478 2.53125 79.9336 2.72266 79.6602C3.02344 79.2318 3.33333 78.4661 3.65234 77.3633L6.87891 66.1797C7.15234 65.25 7.28906 64.5482 7.28906 64.0742C7.28906 63.8372 7.22982 63.6367 7.11133 63.4727C6.99284 63.3086 6.81055 63.1855 6.56445 63.1035C6.32747 63.0124 5.85807 62.9668 5.15625 62.9668L5.32031 62.4609H12.4844L12.334 62.9668C11.7507 62.9577 11.3177 63.0215 11.0352 63.1582C10.625 63.3405 10.3105 63.6003 10.0918 63.9375C9.88216 64.2747 9.60872 65.0221 9.27148 66.1797L6.05859 77.3633C5.76693 78.3932 5.62109 79.0495 5.62109 79.332C5.62109 79.5599 5.67578 79.7559 5.78516 79.9199C5.90365 80.0749 6.08594 80.1979 6.33203 80.2891C6.58724 80.3711 7.11133 80.4395 7.9043 80.4941ZM16.5039 68.627L14.6855 74.8477C16.39 72.3047 17.6934 70.6322 18.5957 69.8301C19.5072 69.028 20.3822 68.627 21.2207 68.627C21.6764 68.627 22.0501 68.7773 22.3418 69.0781C22.6426 69.3789 22.793 69.7708 22.793 70.2539C22.793 70.8008 22.6608 71.5299 22.3965 72.4414L20.7285 78.1973C20.5371 78.8626 20.4414 79.2682 20.4414 79.4141C20.4414 79.5417 20.4779 79.651 20.5508 79.7422C20.6237 79.8242 20.7012 79.8652 20.7832 79.8652C20.8926 79.8652 21.0247 79.806 21.1797 79.6875C21.6628 79.3047 22.1914 78.7214 22.7656 77.9375L23.1895 78.1973C22.3418 79.4095 21.5397 80.2754 20.7832 80.7949C20.2546 81.1504 19.7806 81.3281 19.3613 81.3281C19.0241 81.3281 18.7552 81.2233 18.5547 81.0137C18.3542 80.8132 18.2539 80.5397 18.2539 80.1934C18.2539 79.7559 18.4089 79.0039 18.7188 77.9375L20.3047 72.4414C20.5052 71.7578 20.6055 71.2246 20.6055 70.8418C20.6055 70.6595 20.5462 70.5137 20.4277 70.4043C20.3092 70.2858 20.1634 70.2266 19.9902 70.2266C19.735 70.2266 19.4297 70.3359 19.0742 70.5547C18.3997 70.9648 17.6979 71.6439 16.9688 72.5918C16.2396 73.5306 15.4694 74.7337 14.6582 76.2012C14.2298 76.9759 13.8743 77.8236 13.5918 78.7441L12.9082 81H10.8574L13.3457 72.4414C13.6374 71.4115 13.7832 70.7917 13.7832 70.582C13.7832 70.3815 13.7012 70.2083 13.5371 70.0625C13.3822 69.9076 13.1862 69.8301 12.9492 69.8301C12.8398 69.8301 12.6484 69.8483 12.375 69.8848L11.8555 69.9668L11.7734 69.4746L16.5039 68.627ZM34.4824 68.627L33.6484 72.8242H33.1426C33.097 71.6029 32.8372 70.7142 32.3633 70.1582C31.8893 69.6022 31.3014 69.3242 30.5996 69.3242C30.0345 69.3242 29.5833 69.4792 29.2461 69.7891C28.918 70.099 28.7539 70.4727 28.7539 70.9102C28.7539 71.2109 28.8177 71.498 28.9453 71.7715C29.082 72.0449 29.3737 72.4277 29.8203 72.9199C31.0052 74.2142 31.7708 75.1895 32.1172 75.8457C32.4635 76.502 32.6367 77.1217 32.6367 77.7051C32.6367 78.653 32.2402 79.4961 31.4473 80.2344C30.6634 80.9635 29.6699 81.3281 28.4668 81.3281C27.8105 81.3281 27.054 81.1732 26.1973 80.8633C25.8965 80.7539 25.6641 80.6992 25.5 80.6992C25.0898 80.6992 24.7799 80.9089 24.5703 81.3281H24.0645L24.8984 76.8984H25.4043C25.459 78.2839 25.7461 79.2637 26.2656 79.8379C26.7852 80.4121 27.4961 80.6992 28.3984 80.6992C29.0911 80.6992 29.638 80.5078 30.0391 80.125C30.4492 79.7331 30.6543 79.2546 30.6543 78.6895C30.6543 78.3249 30.5814 77.9876 30.4355 77.6777C30.1803 77.1309 29.6426 76.3743 28.8223 75.4082C28.0111 74.4421 27.487 73.7174 27.25 73.2344C27.0221 72.7513 26.9082 72.2682 26.9082 71.7852C26.9082 70.901 27.2272 70.1536 27.8652 69.543C28.5124 68.9323 29.3418 68.627 30.3535 68.627C30.6452 68.627 30.9095 68.6497 31.1465 68.6953C31.2741 68.7227 31.5703 68.8275 32.0352 69.0098C32.5091 69.1829 32.8236 69.2695 32.9785 69.2695C33.3704 69.2695 33.6986 69.0553 33.9629 68.627H34.4824ZM41.4961 63.1992C41.8789 63.1992 42.2025 63.3314 42.4668 63.5957C42.7311 63.86 42.8633 64.1836 42.8633 64.5664C42.8633 64.9401 42.7266 65.2637 42.4531 65.5371C42.1888 65.8014 41.8698 65.9336 41.4961 65.9336C41.1224 65.9336 40.7988 65.8014 40.5254 65.5371C40.2611 65.2637 40.1289 64.9401 40.1289 64.5664C40.1289 64.1836 40.2611 63.86 40.5254 63.5957C40.7897 63.3314 41.1133 63.1992 41.4961 63.1992ZM41.6738 68.627L38.9668 78.2109C38.7845 78.8581 38.6934 79.2454 38.6934 79.373C38.6934 79.5189 38.7344 79.6374 38.8164 79.7285C38.9076 79.8197 39.0124 79.8652 39.1309 79.8652C39.2676 79.8652 39.4316 79.7923 39.623 79.6465C40.1426 79.2363 40.6667 78.653 41.1953 77.8965L41.6738 78.2109C41.054 79.1589 40.3249 79.9564 39.4863 80.6035C38.8665 81.0866 38.2741 81.3281 37.709 81.3281C37.3353 81.3281 37.0299 81.2188 36.793 81C36.556 80.7721 36.4375 80.4896 36.4375 80.1523C36.4375 79.8151 36.5514 79.2546 36.7793 78.4707L38.5566 72.3457C38.8483 71.3431 38.9941 70.7142 38.9941 70.459C38.9941 70.2585 38.9212 70.0944 38.7754 69.9668C38.6387 69.8392 38.4473 69.7754 38.2012 69.7754C38.0007 69.7754 37.5859 69.8255 36.957 69.9258V69.3926L41.6738 68.627ZM58.1758 61.5586L53.4727 77.6914C53.2174 78.5664 53.0898 79.1406 53.0898 79.4141C53.0898 79.5052 53.1263 79.5918 53.1992 79.6738C53.2812 79.7559 53.3633 79.7969 53.4453 79.7969C53.5638 79.7969 53.7051 79.7376 53.8691 79.6191C54.179 79.4004 54.6986 78.8535 55.4277 77.9785L55.8926 78.2656C55.2363 79.1771 54.571 79.9154 53.8965 80.4805C53.2311 81.0456 52.6068 81.3281 52.0234 81.3281C51.7135 81.3281 51.4583 81.2188 51.2578 81C51.0573 80.7812 50.957 80.4714 50.957 80.0703C50.957 79.5508 51.0938 78.8535 51.3672 77.9785L51.9004 76.2832C50.5788 78.3249 49.3757 79.7376 48.291 80.5215C47.5436 81.0592 46.8281 81.3281 46.1445 81.3281C45.4518 81.3281 44.8457 81.0228 44.3262 80.4121C43.8158 79.7923 43.5605 78.9538 43.5605 77.8965C43.5605 76.5384 43.9935 75.0892 44.8594 73.5488C45.7253 72.0085 46.8691 70.7552 48.291 69.7891C49.4121 69.0143 50.4421 68.627 51.3809 68.627C51.873 68.627 52.2969 68.7272 52.6523 68.9277C53.0078 69.1283 53.3587 69.4609 53.7051 69.9258L55.0449 65.168C55.1452 64.8307 55.2272 64.5618 55.291 64.3613C55.4004 63.9967 55.4551 63.696 55.4551 63.459C55.4551 63.2676 55.3867 63.1081 55.25 62.9805C55.0586 62.8255 54.8125 62.748 54.5117 62.748C54.3021 62.748 53.9557 62.7799 53.4727 62.8438V62.3379L58.1758 61.5586ZM53.1035 71.2656C53.1035 70.6823 52.9349 70.2129 52.5977 69.8574C52.2604 69.502 51.832 69.3242 51.3125 69.3242C50.1641 69.3242 48.9655 70.2721 47.7168 72.168C46.4772 74.0638 45.8574 75.8776 45.8574 77.6094C45.8574 78.293 46.0078 78.8171 46.3086 79.1816C46.6094 79.5371 46.9694 79.7148 47.3887 79.7148C48.3366 79.7148 49.526 78.6895 50.957 76.6387C52.388 74.5879 53.1035 72.7969 53.1035 71.2656ZM60.3633 75.8457C60.2995 76.3014 60.2676 76.6797 60.2676 76.9805C60.2676 77.7917 60.5547 78.4844 61.1289 79.0586C61.7031 79.6237 62.4004 79.9062 63.2207 79.9062C63.877 79.9062 64.5059 79.7741 65.1074 79.5098C65.7181 79.2363 66.6204 78.6393 67.8145 77.7188L68.1016 78.1152C65.9414 80.2572 63.8815 81.3281 61.9219 81.3281C60.5911 81.3281 59.5885 80.9089 58.9141 80.0703C58.2396 79.2318 57.9023 78.3066 57.9023 77.2949C57.9023 75.9368 58.3216 74.5469 59.1602 73.125C59.9987 71.7031 61.0514 70.6003 62.3184 69.8164C63.5853 69.0234 64.8887 68.627 66.2285 68.627C67.1947 68.627 67.9102 68.8229 68.375 69.2148C68.8398 69.6068 69.0723 70.0716 69.0723 70.6094C69.0723 71.3659 68.7715 72.0905 68.1699 72.7832C67.377 73.6855 66.2103 74.4147 64.6699 74.9707C63.6491 75.3444 62.2135 75.6361 60.3633 75.8457ZM60.459 75.1758C61.8079 75.0208 62.9062 74.7565 63.7539 74.3828C64.875 73.8815 65.7135 73.2845 66.2695 72.5918C66.8346 71.89 67.1172 71.2246 67.1172 70.5957C67.1172 70.2129 66.9941 69.903 66.748 69.666C66.5111 69.429 66.1693 69.3105 65.7227 69.3105C64.793 69.3105 63.804 69.8073 62.7559 70.8008C61.7168 71.7852 60.9512 73.2435 60.459 75.1758ZM70.9316 69.3926L75.6484 68.627L73.6797 75.2715C75.2747 72.5462 76.724 70.6413 78.0273 69.5566C78.7656 68.9368 79.3672 68.627 79.832 68.627C80.1328 68.627 80.3698 68.7181 80.543 68.9004C80.7161 69.0736 80.8027 69.3288 80.8027 69.666C80.8027 70.2676 80.6478 70.8418 80.3379 71.3887C80.1191 71.7988 79.8047 72.0039 79.3945 72.0039C79.1849 72.0039 79.0026 71.9355 78.8477 71.7988C78.7018 71.6621 78.6107 71.4525 78.5742 71.1699C78.556 70.9967 78.515 70.8828 78.4512 70.8281C78.3783 70.7552 78.2917 70.7188 78.1914 70.7188C78.0365 70.7188 77.8906 70.7552 77.7539 70.8281C77.5169 70.9557 77.1569 71.3112 76.6738 71.8945C75.9173 72.7878 75.097 73.9453 74.2129 75.3672C73.8301 75.9688 73.502 76.6478 73.2285 77.4043C72.8457 78.4434 72.627 79.0677 72.5723 79.2773L72.1348 81H70.043L72.5723 72.5098C72.8639 71.5254 73.0098 70.8236 73.0098 70.4043C73.0098 70.2402 72.9414 70.1035 72.8047 69.9941C72.6224 69.8483 72.3809 69.7754 72.0801 69.7754C71.8887 69.7754 71.5378 69.8164 71.0273 69.8984L70.9316 69.3926ZM100.518 68.627L97.8516 77.8965L97.5508 79.1406C97.5234 79.2591 97.5098 79.3594 97.5098 79.4414C97.5098 79.5872 97.5553 79.7148 97.6465 79.8242C97.7194 79.9062 97.8105 79.9473 97.9199 79.9473C98.0384 79.9473 98.1934 79.8743 98.3848 79.7285C98.7402 79.4642 99.2142 78.9173 99.8066 78.0879L100.271 78.416C99.6426 79.3639 98.9954 80.0885 98.3301 80.5898C97.6647 81.082 97.0495 81.3281 96.4844 81.3281C96.0924 81.3281 95.7962 81.2279 95.5957 81.0273C95.4043 80.8359 95.3086 80.5534 95.3086 80.1797C95.3086 79.7331 95.4089 79.1452 95.6094 78.416L95.8965 77.3906C94.7025 78.9492 93.6042 80.0384 92.6016 80.6582C91.8815 81.1048 91.1751 81.3281 90.4824 81.3281C89.8171 81.3281 89.2428 81.0547 88.7598 80.5078C88.2767 79.9518 88.0352 79.1908 88.0352 78.2246C88.0352 76.7754 88.4681 75.2487 89.334 73.6445C90.209 72.0312 91.3164 70.7415 92.6562 69.7754C93.7044 69.0098 94.6934 68.627 95.623 68.627C96.179 68.627 96.6393 68.7728 97.0039 69.0645C97.3776 69.3561 97.6602 69.8392 97.8516 70.5137L98.3438 68.9551L100.518 68.627ZM95.6504 69.3379C95.0671 69.3379 94.4473 69.6113 93.791 70.1582C92.8613 70.9329 92.0319 72.0814 91.3027 73.6035C90.5827 75.1257 90.2227 76.502 90.2227 77.7324C90.2227 78.3522 90.3776 78.8444 90.6875 79.209C90.9974 79.5645 91.3529 79.7422 91.7539 79.7422C92.7474 79.7422 93.8275 79.0085 94.9941 77.541C96.5527 75.5905 97.332 73.5898 97.332 71.5391C97.332 70.7643 97.1816 70.2038 96.8809 69.8574C96.5801 69.5111 96.1699 69.3379 95.6504 69.3379ZM112.193 78.0195C111.245 79.1589 110.288 79.9974 109.322 80.5352C108.356 81.0638 107.335 81.3281 106.26 81.3281C104.965 81.3281 103.954 80.9635 103.225 80.2344C102.505 79.5052 102.145 78.5254 102.145 77.2949C102.145 75.9004 102.532 74.5286 103.307 73.1797C104.09 71.8307 105.139 70.737 106.451 69.8984C107.773 69.0508 109.067 68.627 110.334 68.627C111.327 68.627 112.07 68.8366 112.562 69.2559C113.055 69.666 113.301 70.1719 113.301 70.7734C113.301 71.3385 113.128 71.8216 112.781 72.2227C112.526 72.5326 112.212 72.6875 111.838 72.6875C111.555 72.6875 111.318 72.5964 111.127 72.4141C110.945 72.2318 110.854 72.0039 110.854 71.7305C110.854 71.5573 110.885 71.3978 110.949 71.252C111.022 71.1061 111.163 70.9329 111.373 70.7324C111.592 70.5228 111.724 70.3724 111.77 70.2812C111.815 70.1901 111.838 70.0944 111.838 69.9941C111.838 69.8027 111.751 69.6432 111.578 69.5156C111.314 69.3333 110.94 69.2422 110.457 69.2422C109.564 69.2422 108.68 69.5566 107.805 70.1855C106.93 70.8145 106.182 71.7077 105.562 72.8652C104.815 74.2689 104.441 75.6725 104.441 77.0762C104.441 78.0059 104.706 78.7441 105.234 79.291C105.763 79.8288 106.483 80.0977 107.395 80.0977C108.096 80.0977 108.789 79.9245 109.473 79.5781C110.165 79.2227 110.94 78.5846 111.797 77.6641L112.193 78.0195ZM124.635 78.0195C123.687 79.1589 122.73 79.9974 121.764 80.5352C120.798 81.0638 119.777 81.3281 118.701 81.3281C117.407 81.3281 116.395 80.9635 115.666 80.2344C114.946 79.5052 114.586 78.5254 114.586 77.2949C114.586 75.9004 114.973 74.5286 115.748 73.1797C116.532 71.8307 117.58 70.737 118.893 69.8984C120.214 69.0508 121.508 68.627 122.775 68.627C123.769 68.627 124.512 68.8366 125.004 69.2559C125.496 69.666 125.742 70.1719 125.742 70.7734C125.742 71.3385 125.569 71.8216 125.223 72.2227C124.967 72.5326 124.653 72.6875 124.279 72.6875C123.997 72.6875 123.76 72.5964 123.568 72.4141C123.386 72.2318 123.295 72.0039 123.295 71.7305C123.295 71.5573 123.327 71.3978 123.391 71.252C123.464 71.1061 123.605 70.9329 123.814 70.7324C124.033 70.5228 124.165 70.3724 124.211 70.2812C124.257 70.1901 124.279 70.0944 124.279 69.9941C124.279 69.8027 124.193 69.6432 124.02 69.5156C123.755 69.3333 123.382 69.2422 122.898 69.2422C122.005 69.2422 121.121 69.5566 120.246 70.1855C119.371 70.8145 118.624 71.7077 118.004 72.8652C117.257 74.2689 116.883 75.6725 116.883 77.0762C116.883 78.0059 117.147 78.7441 117.676 79.291C118.204 79.8288 118.924 80.0977 119.836 80.0977C120.538 80.0977 121.23 79.9245 121.914 79.5781C122.607 79.2227 123.382 78.5846 124.238 77.6641L124.635 78.0195ZM129.598 75.8457C129.534 76.3014 129.502 76.6797 129.502 76.9805C129.502 77.7917 129.789 78.4844 130.363 79.0586C130.938 79.6237 131.635 79.9062 132.455 79.9062C133.111 79.9062 133.74 79.7741 134.342 79.5098C134.952 79.2363 135.855 78.6393 137.049 77.7188L137.336 78.1152C135.176 80.2572 133.116 81.3281 131.156 81.3281C129.826 81.3281 128.823 80.9089 128.148 80.0703C127.474 79.2318 127.137 78.3066 127.137 77.2949C127.137 75.9368 127.556 74.5469 128.395 73.125C129.233 71.7031 130.286 70.6003 131.553 69.8164C132.82 69.0234 134.123 68.627 135.463 68.627C136.429 68.627 137.145 68.8229 137.609 69.2148C138.074 69.6068 138.307 70.0716 138.307 70.6094C138.307 71.3659 138.006 72.0905 137.404 72.7832C136.611 73.6855 135.445 74.4147 133.904 74.9707C132.883 75.3444 131.448 75.6361 129.598 75.8457ZM129.693 75.1758C131.042 75.0208 132.141 74.7565 132.988 74.3828C134.109 73.8815 134.948 73.2845 135.504 72.5918C136.069 71.89 136.352 71.2246 136.352 70.5957C136.352 70.2129 136.229 69.903 135.982 69.666C135.745 69.429 135.404 69.3105 134.957 69.3105C134.027 69.3105 133.038 69.8073 131.99 70.8008C130.951 71.7852 130.186 73.2435 129.693 75.1758ZM148.861 68.627L148.027 72.8242H147.521C147.476 71.6029 147.216 70.7142 146.742 70.1582C146.268 69.6022 145.68 69.3242 144.979 69.3242C144.413 69.3242 143.962 69.4792 143.625 69.7891C143.297 70.099 143.133 70.4727 143.133 70.9102C143.133 71.2109 143.197 71.498 143.324 71.7715C143.461 72.0449 143.753 72.4277 144.199 72.9199C145.384 74.2142 146.15 75.1895 146.496 75.8457C146.842 76.502 147.016 77.1217 147.016 77.7051C147.016 78.653 146.619 79.4961 145.826 80.2344C145.042 80.9635 144.049 81.3281 142.846 81.3281C142.189 81.3281 141.433 81.1732 140.576 80.8633C140.275 80.7539 140.043 80.6992 139.879 80.6992C139.469 80.6992 139.159 80.9089 138.949 81.3281H138.443L139.277 76.8984H139.783C139.838 78.2839 140.125 79.2637 140.645 79.8379C141.164 80.4121 141.875 80.6992 142.777 80.6992C143.47 80.6992 144.017 80.5078 144.418 80.125C144.828 79.7331 145.033 79.2546 145.033 78.6895C145.033 78.3249 144.96 77.9876 144.814 77.6777C144.559 77.1309 144.021 76.3743 143.201 75.4082C142.39 74.4421 141.866 73.7174 141.629 73.2344C141.401 72.7513 141.287 72.2682 141.287 71.7852C141.287 70.901 141.606 70.1536 142.244 69.543C142.891 68.9323 143.721 68.627 144.732 68.627C145.024 68.627 145.288 68.6497 145.525 68.6953C145.653 68.7227 145.949 68.8275 146.414 69.0098C146.888 69.1829 147.202 69.2695 147.357 69.2695C147.749 69.2695 148.077 69.0553 148.342 68.627H148.861ZM159.771 68.627L158.938 72.8242H158.432C158.386 71.6029 158.126 70.7142 157.652 70.1582C157.178 69.6022 156.59 69.3242 155.889 69.3242C155.324 69.3242 154.872 69.4792 154.535 69.7891C154.207 70.099 154.043 70.4727 154.043 70.9102C154.043 71.2109 154.107 71.498 154.234 71.7715C154.371 72.0449 154.663 72.4277 155.109 72.9199C156.294 74.2142 157.06 75.1895 157.406 75.8457C157.753 76.502 157.926 77.1217 157.926 77.7051C157.926 78.653 157.529 79.4961 156.736 80.2344C155.952 80.9635 154.959 81.3281 153.756 81.3281C153.1 81.3281 152.343 81.1732 151.486 80.8633C151.186 80.7539 150.953 80.6992 150.789 80.6992C150.379 80.6992 150.069 80.9089 149.859 81.3281H149.354L150.188 76.8984H150.693C150.748 78.2839 151.035 79.2637 151.555 79.8379C152.074 80.4121 152.785 80.6992 153.688 80.6992C154.38 80.6992 154.927 80.5078 155.328 80.125C155.738 79.7331 155.943 79.2546 155.943 78.6895C155.943 78.3249 155.87 77.9876 155.725 77.6777C155.469 77.1309 154.932 76.3743 154.111 75.4082C153.3 74.4421 152.776 73.7174 152.539 73.2344C152.311 72.7513 152.197 72.2682 152.197 71.7852C152.197 70.901 152.516 70.1536 153.154 69.543C153.801 68.9323 154.631 68.627 155.643 68.627C155.934 68.627 156.199 68.6497 156.436 68.6953C156.563 68.7227 156.859 68.8275 157.324 69.0098C157.798 69.1829 158.113 69.2695 158.268 69.2695C158.66 69.2695 158.988 69.0553 159.252 68.627H159.771ZM162.848 78.5527C163.24 78.5527 163.568 78.6895 163.832 78.9629C164.105 79.2272 164.242 79.5508 164.242 79.9336C164.242 80.3164 164.105 80.6445 163.832 80.918C163.559 81.1823 163.23 81.3145 162.848 81.3145C162.465 81.3145 162.137 81.1823 161.863 80.918C161.599 80.6445 161.467 80.3164 161.467 79.9336C161.467 79.5508 161.599 79.2272 161.863 78.9629C162.137 78.6895 162.465 78.5527 162.848 78.5527ZM1.19141 129.424L2.72266 122.547H3.1875C3.1237 123.212 3.0918 123.764 3.0918 124.201C3.0918 125.45 3.48828 126.466 4.28125 127.25C5.08333 128.034 6.12695 128.426 7.41211 128.426C8.60612 128.426 9.51302 128.061 10.1328 127.332C10.7526 126.594 11.0625 125.746 11.0625 124.789C11.0625 124.169 10.9212 123.604 10.6387 123.094C10.2103 122.337 9.06641 121.007 7.20703 119.102C6.30469 118.19 5.72591 117.511 5.4707 117.064C5.05143 116.326 4.8418 115.551 4.8418 114.74C4.8418 113.446 5.32487 112.339 6.29102 111.418C7.25716 110.497 8.49674 110.037 10.0098 110.037C10.5202 110.037 11.0033 110.087 11.459 110.188C11.7415 110.242 12.2565 110.424 13.0039 110.734C13.5326 110.944 13.8242 111.058 13.8789 111.076C14.0065 111.104 14.1478 111.117 14.3027 111.117C14.5671 111.117 14.7949 111.049 14.9863 110.912C15.1777 110.775 15.401 110.484 15.6562 110.037H16.1758L14.7539 116.189H14.2891C14.3255 115.643 14.3438 115.201 14.3438 114.863C14.3438 113.76 13.9792 112.858 13.25 112.156C12.5208 111.454 11.5592 111.104 10.3652 111.104C9.41732 111.104 8.64714 111.382 8.05469 111.938C7.46224 112.493 7.16602 113.136 7.16602 113.865C7.16602 114.503 7.35286 115.114 7.72656 115.697C8.10938 116.271 8.97982 117.215 10.3379 118.527C11.7051 119.831 12.5892 120.852 12.9902 121.59C13.3913 122.319 13.5918 123.098 13.5918 123.928C13.5918 124.867 13.3411 125.778 12.8398 126.662C12.3477 127.537 11.6367 128.216 10.707 128.699C9.77734 129.182 8.76107 129.424 7.6582 129.424C7.11133 129.424 6.60091 129.374 6.12695 129.273C5.65299 129.173 4.89648 128.927 3.85742 128.535C3.50195 128.398 3.20573 128.33 2.96875 128.33C2.43099 128.33 2.01172 128.695 1.71094 129.424H1.19141ZM21.1934 116.627L20.25 119.771C21.2435 118.605 22.1276 117.789 22.9023 117.324C23.6862 116.859 24.4837 116.627 25.2949 116.627C26.1061 116.627 26.7988 116.951 27.373 117.598C27.9473 118.236 28.2344 119.07 28.2344 120.1C28.2344 122.105 27.4186 124.146 25.7871 126.225C24.1556 128.294 22.2552 129.328 20.0859 129.328C19.6302 129.328 19.2246 129.278 18.8691 129.178C18.5228 129.077 18.1309 128.9 17.6934 128.645L16.6953 132.172C16.4948 132.865 16.3945 133.316 16.3945 133.525C16.3945 133.726 16.4447 133.895 16.5449 134.031C16.6543 134.177 16.8275 134.286 17.0645 134.359C17.3014 134.441 17.7708 134.482 18.4727 134.482L18.3496 134.988H11.9102L12.0469 134.482C12.8945 134.446 13.4688 134.3 13.7695 134.045C14.0612 133.79 14.3711 133.083 14.6992 131.926L18.1582 119.949C18.3678 119.193 18.4727 118.723 18.4727 118.541C18.4727 118.295 18.3997 118.104 18.2539 117.967C18.1172 117.83 17.903 117.762 17.6113 117.762C17.347 117.762 16.9779 117.794 16.5039 117.857V117.324L21.1934 116.627ZM18.0078 127.564C18.5729 128.239 19.334 128.576 20.291 128.576C20.765 128.576 21.248 128.444 21.7402 128.18C22.2324 127.915 22.7109 127.523 23.1758 127.004C23.6497 126.484 24.0736 125.887 24.4473 125.213C24.821 124.529 25.1536 123.727 25.4453 122.807C25.7461 121.886 25.8965 120.975 25.8965 120.072C25.8965 119.343 25.7279 118.787 25.3906 118.404C25.0625 118.012 24.6751 117.816 24.2285 117.816C23.2441 117.816 22.2689 118.382 21.3027 119.512C20.3457 120.642 19.6439 121.964 19.1973 123.477L18.0078 127.564ZM32.3359 123.846C32.2721 124.301 32.2402 124.68 32.2402 124.98C32.2402 125.792 32.5273 126.484 33.1016 127.059C33.6758 127.624 34.373 127.906 35.1934 127.906C35.8496 127.906 36.4785 127.774 37.0801 127.51C37.6908 127.236 38.5931 126.639 39.7871 125.719L40.0742 126.115C37.9141 128.257 35.8542 129.328 33.8945 129.328C32.5638 129.328 31.5612 128.909 30.8867 128.07C30.2122 127.232 29.875 126.307 29.875 125.295C29.875 123.937 30.2943 122.547 31.1328 121.125C31.9714 119.703 33.0241 118.6 34.291 117.816C35.5579 117.023 36.8613 116.627 38.2012 116.627C39.1673 116.627 39.8828 116.823 40.3477 117.215C40.8125 117.607 41.0449 118.072 41.0449 118.609C41.0449 119.366 40.7441 120.09 40.1426 120.783C39.3496 121.686 38.1829 122.415 36.6426 122.971C35.6217 123.344 34.1862 123.636 32.3359 123.846ZM32.4316 123.176C33.7806 123.021 34.8789 122.757 35.7266 122.383C36.8477 121.882 37.6862 121.285 38.2422 120.592C38.8073 119.89 39.0898 119.225 39.0898 118.596C39.0898 118.213 38.9668 117.903 38.7207 117.666C38.4837 117.429 38.1419 117.311 37.6953 117.311C36.7656 117.311 35.7767 117.807 34.7285 118.801C33.6895 119.785 32.9238 121.243 32.4316 123.176ZM52.2559 126.02C51.3079 127.159 50.3509 127.997 49.3848 128.535C48.4186 129.064 47.3978 129.328 46.3223 129.328C45.028 129.328 44.0163 128.964 43.2871 128.234C42.5671 127.505 42.207 126.525 42.207 125.295C42.207 123.9 42.5944 122.529 43.3691 121.18C44.153 119.831 45.2012 118.737 46.5137 117.898C47.8353 117.051 49.1296 116.627 50.3965 116.627C51.39 116.627 52.1328 116.837 52.625 117.256C53.1172 117.666 53.3633 118.172 53.3633 118.773C53.3633 119.339 53.1901 119.822 52.8438 120.223C52.5885 120.533 52.2741 120.688 51.9004 120.688C51.6178 120.688 51.3809 120.596 51.1895 120.414C51.0072 120.232 50.916 120.004 50.916 119.73C50.916 119.557 50.9479 119.398 51.0117 119.252C51.0846 119.106 51.2259 118.933 51.4355 118.732C51.6543 118.523 51.7865 118.372 51.832 118.281C51.8776 118.19 51.9004 118.094 51.9004 117.994C51.9004 117.803 51.8138 117.643 51.6406 117.516C51.3763 117.333 51.0026 117.242 50.5195 117.242C49.6263 117.242 48.7422 117.557 47.8672 118.186C46.9922 118.814 46.2448 119.708 45.625 120.865C44.8776 122.269 44.5039 123.673 44.5039 125.076C44.5039 126.006 44.7682 126.744 45.2969 127.291C45.8255 127.829 46.5456 128.098 47.457 128.098C48.1589 128.098 48.8516 127.924 49.5352 127.578C50.2279 127.223 51.0026 126.585 51.8594 125.664L52.2559 126.02ZM60.1445 111.199C60.5273 111.199 60.8509 111.331 61.1152 111.596C61.3796 111.86 61.5117 112.184 61.5117 112.566C61.5117 112.94 61.375 113.264 61.1016 113.537C60.8372 113.801 60.5182 113.934 60.1445 113.934C59.7708 113.934 59.4473 113.801 59.1738 113.537C58.9095 113.264 58.7773 112.94 58.7773 112.566C58.7773 112.184 58.9095 111.86 59.1738 111.596C59.4382 111.331 59.7617 111.199 60.1445 111.199ZM60.3223 116.627L57.6152 126.211C57.4329 126.858 57.3418 127.245 57.3418 127.373C57.3418 127.519 57.3828 127.637 57.4648 127.729C57.556 127.82 57.6608 127.865 57.7793 127.865C57.916 127.865 58.0801 127.792 58.2715 127.646C58.791 127.236 59.3151 126.653 59.8438 125.896L60.3223 126.211C59.7025 127.159 58.9733 127.956 58.1348 128.604C57.515 129.087 56.9225 129.328 56.3574 129.328C55.9837 129.328 55.6784 129.219 55.4414 129C55.2044 128.772 55.0859 128.49 55.0859 128.152C55.0859 127.815 55.1999 127.255 55.4277 126.471L57.2051 120.346C57.4967 119.343 57.6426 118.714 57.6426 118.459C57.6426 118.258 57.5697 118.094 57.4238 117.967C57.2871 117.839 57.0957 117.775 56.8496 117.775C56.6491 117.775 56.2344 117.826 55.6055 117.926V117.393L60.3223 116.627ZM74.8145 116.627L72.1484 125.896L71.8477 127.141C71.8203 127.259 71.8066 127.359 71.8066 127.441C71.8066 127.587 71.8522 127.715 71.9434 127.824C72.0163 127.906 72.1074 127.947 72.2168 127.947C72.3353 127.947 72.4902 127.874 72.6816 127.729C73.0371 127.464 73.5111 126.917 74.1035 126.088L74.5684 126.416C73.9395 127.364 73.2923 128.089 72.627 128.59C71.9616 129.082 71.3464 129.328 70.7812 129.328C70.3893 129.328 70.0931 129.228 69.8926 129.027C69.7012 128.836 69.6055 128.553 69.6055 128.18C69.6055 127.733 69.7057 127.145 69.9062 126.416L70.1934 125.391C68.9993 126.949 67.901 128.038 66.8984 128.658C66.1784 129.105 65.472 129.328 64.7793 129.328C64.1139 129.328 63.5397 129.055 63.0566 128.508C62.5736 127.952 62.332 127.191 62.332 126.225C62.332 124.775 62.765 123.249 63.6309 121.645C64.5059 120.031 65.6133 118.742 66.9531 117.775C68.0013 117.01 68.9902 116.627 69.9199 116.627C70.4759 116.627 70.9362 116.773 71.3008 117.064C71.6745 117.356 71.957 117.839 72.1484 118.514L72.6406 116.955L74.8145 116.627ZM69.9473 117.338C69.3639 117.338 68.7441 117.611 68.0879 118.158C67.1582 118.933 66.3288 120.081 65.5996 121.604C64.8796 123.126 64.5195 124.502 64.5195 125.732C64.5195 126.352 64.6745 126.844 64.9844 127.209C65.2943 127.564 65.6497 127.742 66.0508 127.742C67.0443 127.742 68.1243 127.008 69.291 125.541C70.8496 123.59 71.6289 121.59 71.6289 119.539C71.6289 118.764 71.4785 118.204 71.1777 117.857C70.877 117.511 70.4668 117.338 69.9473 117.338ZM84.002 109.559L79.3262 125.828C79.0983 126.639 78.9844 127.136 78.9844 127.318C78.9844 127.455 79.0254 127.569 79.1074 127.66C79.1986 127.751 79.3079 127.797 79.4355 127.797C79.6087 127.797 79.7956 127.719 79.9961 127.564C80.4701 127.191 80.9668 126.612 81.4863 125.828L81.8965 126.252C81.0306 127.473 80.2331 128.326 79.5039 128.809C78.9661 129.155 78.4557 129.328 77.9727 129.328C77.6263 129.328 77.3346 129.21 77.0977 128.973C76.8698 128.736 76.7559 128.462 76.7559 128.152C76.7559 127.824 76.9017 127.15 77.1934 126.129L80.8984 113.305C81.1992 112.257 81.3496 111.655 81.3496 111.5C81.3496 111.281 81.263 111.104 81.0898 110.967C80.9167 110.821 80.6478 110.748 80.2832 110.748C80.0736 110.748 79.7546 110.78 79.3262 110.844V110.338L84.002 109.559ZM93.8047 123.846C93.7409 124.301 93.709 124.68 93.709 124.98C93.709 125.792 93.9961 126.484 94.5703 127.059C95.1445 127.624 95.8418 127.906 96.6621 127.906C97.3184 127.906 97.9473 127.774 98.5488 127.51C99.1595 127.236 100.062 126.639 101.256 125.719L101.543 126.115C99.3828 128.257 97.3229 129.328 95.3633 129.328C94.0326 129.328 93.0299 128.909 92.3555 128.07C91.681 127.232 91.3438 126.307 91.3438 125.295C91.3438 123.937 91.763 122.547 92.6016 121.125C93.4401 119.703 94.4928 118.6 95.7598 117.816C97.0267 117.023 98.3301 116.627 99.6699 116.627C100.636 116.627 101.352 116.823 101.816 117.215C102.281 117.607 102.514 118.072 102.514 118.609C102.514 119.366 102.213 120.09 101.611 120.783C100.818 121.686 99.6517 122.415 98.1113 122.971C97.0905 123.344 95.6549 123.636 93.8047 123.846ZM93.9004 123.176C95.2493 123.021 96.3477 122.757 97.1953 122.383C98.3164 121.882 99.1549 121.285 99.7109 120.592C100.276 119.89 100.559 119.225 100.559 118.596C100.559 118.213 100.436 117.903 100.189 117.666C99.9525 117.429 99.6107 117.311 99.1641 117.311C98.2344 117.311 97.2454 117.807 96.1973 118.801C95.1582 119.785 94.3926 121.243 93.9004 123.176ZM103.512 117.475L107.463 116.627C107.745 117.301 107.973 117.99 108.146 118.691C108.393 119.721 108.593 120.943 108.748 122.355C108.821 123.066 108.921 124.57 109.049 126.867C110.188 125.609 110.867 124.83 111.086 124.529C112.289 122.898 112.982 121.941 113.164 121.658C113.465 121.175 113.674 120.751 113.793 120.387C113.893 120.113 113.943 119.854 113.943 119.607C113.943 119.37 113.729 119.097 113.301 118.787C112.882 118.477 112.672 118.131 112.672 117.748C112.672 117.456 112.786 117.197 113.014 116.969C113.251 116.741 113.529 116.627 113.848 116.627C114.23 116.627 114.568 116.786 114.859 117.105C115.151 117.415 115.297 117.803 115.297 118.268C115.297 118.732 115.224 119.179 115.078 119.607C114.841 120.3 114.399 121.148 113.752 122.15C113.105 123.144 112.061 124.479 110.621 126.156C110.439 126.366 109.427 127.423 107.586 129.328H107.08C106.861 123.559 106.406 119.958 105.713 118.527C105.485 118.062 105.107 117.83 104.578 117.83C104.35 117.83 104.027 117.871 103.607 117.953L103.512 117.475ZM118.688 123.846C118.624 124.301 118.592 124.68 118.592 124.98C118.592 125.792 118.879 126.484 119.453 127.059C120.027 127.624 120.725 127.906 121.545 127.906C122.201 127.906 122.83 127.774 123.432 127.51C124.042 127.236 124.945 126.639 126.139 125.719L126.426 126.115C124.266 128.257 122.206 129.328 120.246 129.328C118.915 129.328 117.913 128.909 117.238 128.07C116.564 127.232 116.227 126.307 116.227 125.295C116.227 123.937 116.646 122.547 117.484 121.125C118.323 119.703 119.376 118.6 120.643 117.816C121.91 117.023 123.213 116.627 124.553 116.627C125.519 116.627 126.234 116.823 126.699 117.215C127.164 117.607 127.396 118.072 127.396 118.609C127.396 119.366 127.096 120.09 126.494 120.783C125.701 121.686 124.535 122.415 122.994 122.971C121.973 123.344 120.538 123.636 118.688 123.846ZM118.783 123.176C120.132 123.021 121.23 122.757 122.078 122.383C123.199 121.882 124.038 121.285 124.594 120.592C125.159 119.89 125.441 119.225 125.441 118.596C125.441 118.213 125.318 117.903 125.072 117.666C124.835 117.429 124.493 117.311 124.047 117.311C123.117 117.311 122.128 117.807 121.08 118.801C120.041 119.785 119.275 121.243 118.783 123.176ZM133.973 116.627L132.154 122.848C133.859 120.305 135.162 118.632 136.064 117.83C136.976 117.028 137.851 116.627 138.689 116.627C139.145 116.627 139.519 116.777 139.811 117.078C140.111 117.379 140.262 117.771 140.262 118.254C140.262 118.801 140.13 119.53 139.865 120.441L138.197 126.197C138.006 126.863 137.91 127.268 137.91 127.414C137.91 127.542 137.947 127.651 138.02 127.742C138.092 127.824 138.17 127.865 138.252 127.865C138.361 127.865 138.493 127.806 138.648 127.688C139.132 127.305 139.66 126.721 140.234 125.938L140.658 126.197C139.811 127.41 139.008 128.275 138.252 128.795C137.723 129.15 137.249 129.328 136.83 129.328C136.493 129.328 136.224 129.223 136.023 129.014C135.823 128.813 135.723 128.54 135.723 128.193C135.723 127.756 135.878 127.004 136.188 125.938L137.773 120.441C137.974 119.758 138.074 119.225 138.074 118.842C138.074 118.66 138.015 118.514 137.896 118.404C137.778 118.286 137.632 118.227 137.459 118.227C137.204 118.227 136.898 118.336 136.543 118.555C135.868 118.965 135.167 119.644 134.438 120.592C133.708 121.531 132.938 122.734 132.127 124.201C131.699 124.976 131.343 125.824 131.061 126.744L130.377 129H128.326L130.814 120.441C131.106 119.411 131.252 118.792 131.252 118.582C131.252 118.382 131.17 118.208 131.006 118.062C130.851 117.908 130.655 117.83 130.418 117.83C130.309 117.83 130.117 117.848 129.844 117.885L129.324 117.967L129.242 117.475L133.973 116.627ZM149.066 113.236L148 116.955H150.146L149.914 117.816H147.781L145.43 125.883C145.174 126.749 145.047 127.309 145.047 127.564C145.047 127.719 145.083 127.838 145.156 127.92C145.229 128.002 145.316 128.043 145.416 128.043C145.644 128.043 145.945 127.883 146.318 127.564C146.537 127.382 147.025 126.822 147.781 125.883L148.232 126.225C147.394 127.446 146.601 128.307 145.854 128.809C145.343 129.155 144.828 129.328 144.309 129.328C143.908 129.328 143.579 129.205 143.324 128.959C143.069 128.704 142.941 128.38 142.941 127.988C142.941 127.496 143.087 126.744 143.379 125.732L145.662 117.816H143.598L143.734 117.283C144.737 117.01 145.571 116.604 146.236 116.066C146.902 115.52 147.645 114.576 148.465 113.236H149.066ZM159.744 116.627L158.91 120.824H158.404C158.359 119.603 158.099 118.714 157.625 118.158C157.151 117.602 156.563 117.324 155.861 117.324C155.296 117.324 154.845 117.479 154.508 117.789C154.18 118.099 154.016 118.473 154.016 118.91C154.016 119.211 154.079 119.498 154.207 119.771C154.344 120.045 154.635 120.428 155.082 120.92C156.267 122.214 157.033 123.189 157.379 123.846C157.725 124.502 157.898 125.122 157.898 125.705C157.898 126.653 157.502 127.496 156.709 128.234C155.925 128.964 154.932 129.328 153.729 129.328C153.072 129.328 152.316 129.173 151.459 128.863C151.158 128.754 150.926 128.699 150.762 128.699C150.352 128.699 150.042 128.909 149.832 129.328H149.326L150.16 124.898H150.666C150.721 126.284 151.008 127.264 151.527 127.838C152.047 128.412 152.758 128.699 153.66 128.699C154.353 128.699 154.9 128.508 155.301 128.125C155.711 127.733 155.916 127.255 155.916 126.689C155.916 126.325 155.843 125.988 155.697 125.678C155.442 125.131 154.904 124.374 154.084 123.408C153.273 122.442 152.749 121.717 152.512 121.234C152.284 120.751 152.17 120.268 152.17 119.785C152.17 118.901 152.489 118.154 153.127 117.543C153.774 116.932 154.604 116.627 155.615 116.627C155.907 116.627 156.171 116.65 156.408 116.695C156.536 116.723 156.832 116.827 157.297 117.01C157.771 117.183 158.085 117.27 158.24 117.27C158.632 117.27 158.96 117.055 159.225 116.627H159.744ZM162.82 126.553C163.212 126.553 163.54 126.689 163.805 126.963C164.078 127.227 164.215 127.551 164.215 127.934C164.215 128.316 164.078 128.645 163.805 128.918C163.531 129.182 163.203 129.314 162.82 129.314C162.438 129.314 162.109 129.182 161.836 128.918C161.572 128.645 161.439 128.316 161.439 127.934C161.439 127.551 161.572 127.227 161.836 126.963C162.109 126.689 162.438 126.553 162.82 126.553Z" fill="#252525"/>
<rect x="1" y="168" width="162" height="6" fill="#252525"/>
</svg>
