<svg width="106" height="174" viewBox="0 0 106 174" fill="none" xmlns="http://www.w3.org/2000/svg">
<path d="M5.73438 14.3906L5.95312 13.8125H13.5156C14.7865 13.8125 15.9167 14.0104 16.9062 14.4062C17.9062 14.8021 18.651 15.3542 19.1406 16.0625C19.6406 16.7708 19.8906 17.5208 19.8906 18.3125C19.8906 19.5312 19.4479 20.6354 18.5625 21.625C17.6875 22.6042 16.2552 23.3281 14.2656 23.7969C15.5469 24.276 16.4896 24.9115 17.0938 25.7031C17.6979 26.4948 18 27.3646 18 28.3125C18 29.3646 17.7292 30.3698 17.1875 31.3281C16.6458 32.2865 15.9479 33.0312 15.0938 33.5625C14.25 34.0938 13.2292 34.4844 12.0312 34.7344C11.1771 34.9115 9.84375 35 8.03125 35H0.265625L0.46875 34.4219C1.28125 34.401 1.83333 34.3229 2.125 34.1875C2.54167 34.0104 2.83854 33.776 3.01562 33.4844C3.26562 33.0885 3.59896 32.1823 4.01562 30.7656L7.8125 17.9375C8.13542 16.8542 8.29688 16.0938 8.29688 15.6562C8.29688 15.2708 8.15104 14.9688 7.85938 14.75C7.57812 14.5208 7.03646 14.4062 6.23438 14.4062C6.05729 14.4062 5.89062 14.401 5.73438 14.3906ZM8.90625 23.1875C9.58333 23.2083 10.0729 23.2188 10.375 23.2188C12.5417 23.2188 14.151 22.75 15.2031 21.8125C16.2656 20.8646 16.7969 19.6823 16.7969 18.2656C16.7969 17.1927 16.474 16.3594 15.8281 15.7656C15.1823 15.1615 14.151 14.8594 12.7344 14.8594C12.3594 14.8594 11.8802 14.9219 11.2969 15.0469L8.90625 23.1875ZM5.82812 33.625C6.95312 33.7708 7.83333 33.8438 8.46875 33.8438C10.0938 33.8438 11.5312 33.3542 12.7812 32.375C14.0417 31.3958 14.6719 30.0677 14.6719 28.3906C14.6719 27.1094 14.2812 26.1094 13.5 25.3906C12.7292 24.6719 11.4792 24.3125 9.75 24.3125C9.41667 24.3125 9.01042 24.3281 8.53125 24.3594L5.82812 33.625ZM24.375 29.1094C24.3021 29.6302 24.2656 30.0625 24.2656 30.4062C24.2656 31.3333 24.5938 32.125 25.25 32.7812C25.9062 33.4271 26.7031 33.75 27.6406 33.75C28.3906 33.75 29.1094 33.599 29.7969 33.2969C30.4948 32.9844 31.526 32.3021 32.8906 31.25L33.2188 31.7031C30.75 34.151 28.3958 35.375 26.1562 35.375C24.6354 35.375 23.4896 34.8958 22.7188 33.9375C21.9479 32.9792 21.5625 31.9219 21.5625 30.7656C21.5625 29.2135 22.0417 27.625 23 26C23.9583 24.375 25.1615 23.1146 26.6094 22.2188C28.0573 21.3125 29.5469 20.8594 31.0781 20.8594C32.1823 20.8594 33 21.0833 33.5312 21.5312C34.0625 21.9792 34.3281 22.5104 34.3281 23.125C34.3281 23.9896 33.9844 24.8177 33.2969 25.6094C32.3906 26.6406 31.0573 27.474 29.2969 28.1094C28.1302 28.5365 26.4896 28.8698 24.375 29.1094ZM24.4844 28.3438C26.026 28.1667 27.2812 27.8646 28.25 27.4375C29.5312 26.8646 30.4896 26.1823 31.125 25.3906C31.7708 24.5885 32.0938 23.8281 32.0938 23.1094C32.0938 22.6719 31.9531 22.3177 31.6719 22.0469C31.401 21.776 31.0104 21.6406 30.5 21.6406C29.4375 21.6406 28.3073 22.2083 27.1094 23.3438C25.9219 24.4688 25.0469 26.1354 24.4844 28.3438ZM49.7969 20.8594L46.75 31.4531L46.4062 32.875C46.375 33.0104 46.3594 33.125 46.3594 33.2188C46.3594 33.3854 46.4115 33.5312 46.5156 33.6562C46.599 33.75 46.7031 33.7969 46.8281 33.7969C46.9635 33.7969 47.1406 33.7135 47.3594 33.5469C47.7656 33.2448 48.3073 32.6198 48.9844 31.6719L49.5156 32.0469C48.7969 33.1302 48.0573 33.9583 47.2969 34.5312C46.5365 35.0938 45.8333 35.375 45.1875 35.375C44.7396 35.375 44.401 35.2604 44.1719 35.0312C43.9531 34.8125 43.8438 34.4896 43.8438 34.0625C43.8438 33.5521 43.9583 32.8802 44.1875 32.0469L44.5156 30.875C43.151 32.6562 41.8958 33.901 40.75 34.6094C39.9271 35.1198 39.1198 35.375 38.3281 35.375C37.5677 35.375 36.9115 35.0625 36.3594 34.4375C35.8073 33.8021 35.5312 32.9323 35.5312 31.8281C35.5312 30.1719 36.026 28.4271 37.0156 26.5938C38.0156 24.75 39.2812 23.276 40.8125 22.1719C42.0104 21.2969 43.1406 20.8594 44.2031 20.8594C44.8385 20.8594 45.3646 21.026 45.7812 21.3594C46.2083 21.6927 46.5312 22.2448 46.75 23.0156L47.3125 21.2344L49.7969 20.8594ZM44.2344 21.6719C43.5677 21.6719 42.8594 21.9844 42.1094 22.6094C41.0469 23.4948 40.099 24.8073 39.2656 26.5469C38.4427 28.2865 38.0312 29.8594 38.0312 31.2656C38.0312 31.974 38.2083 32.5365 38.5625 32.9531C38.9167 33.3594 39.3229 33.5625 39.7812 33.5625C40.9167 33.5625 42.151 32.724 43.4844 31.0469C45.2656 28.8177 46.1562 26.5312 46.1562 24.1875C46.1562 23.3021 45.9844 22.6615 45.6406 22.2656C45.2969 21.8698 44.8281 21.6719 44.2344 21.6719ZM65.8438 21.2344L63.125 30.5469C62.7188 31.9323 62.5156 32.8073 62.5156 33.1719C62.5156 33.3594 62.5469 33.5 62.6094 33.5938C62.6823 33.6771 62.776 33.7188 62.8906 33.7188C63.0677 33.7188 63.2604 33.6406 63.4688 33.4844C63.6875 33.3177 64.2292 32.6719 65.0938 31.5469L65.5625 31.9062C64.7396 33.2083 63.8958 34.1667 63.0312 34.7812C62.4583 35.1771 61.9062 35.375 61.375 35.375C60.9688 35.375 60.651 35.2604 60.4219 35.0312C60.1927 34.8021 60.0781 34.5052 60.0781 34.1406C60.0781 33.7865 60.1458 33.3177 60.2812 32.7344C60.4479 31.9635 60.9219 30.2865 61.7031 27.7031C59.9323 30.6094 58.4479 32.6146 57.25 33.7188C56.0625 34.8229 54.9583 35.375 53.9375 35.375C53.4583 35.375 53.0521 35.2083 52.7188 34.875C52.3854 34.5417 52.2188 34.1198 52.2188 33.6094C52.2188 32.8281 52.4479 31.6302 52.9062 30.0156L54.2656 25.1875C54.599 24.0312 54.7656 23.3125 54.7656 23.0312C54.7656 22.9062 54.7188 22.8021 54.625 22.7188C54.5417 22.625 54.4479 22.5781 54.3438 22.5781C54.125 22.5781 53.9062 22.6562 53.6875 22.8125C53.4688 22.9688 52.974 23.5469 52.2031 24.5469L51.7188 24.2031C52.5 22.9948 53.3281 22.1042 54.2031 21.5312C54.8698 21.0833 55.4844 20.8594 56.0469 20.8594C56.4323 20.8594 56.7448 20.9844 56.9844 21.2344C57.2344 21.474 57.3594 21.7865 57.3594 22.1719C57.3594 22.7344 57.151 23.7396 56.7344 25.1875L55.2656 30.2344C54.8594 31.6094 54.6562 32.4792 54.6562 32.8438C54.6562 33.0417 54.7188 33.2031 54.8438 33.3281C54.9792 33.4427 55.1562 33.5 55.375 33.5C55.7188 33.5 56.1667 33.3281 56.7188 32.9844C57.2708 32.6406 58.0052 31.8802 58.9219 30.7031C59.849 29.5156 60.6094 28.4062 61.2031 27.375C61.8073 26.3333 62.4479 24.6823 63.125 22.4219L63.4688 21.2344H65.8438ZM75.0938 16.9844L73.875 21.2344H76.3281L76.0625 22.2188H73.625L70.9375 31.4375C70.6458 32.4271 70.5 33.0677 70.5 33.3594C70.5 33.5365 70.5417 33.6719 70.625 33.7656C70.7083 33.8594 70.8073 33.9062 70.9219 33.9062C71.1823 33.9062 71.526 33.724 71.9531 33.3594C72.2031 33.151 72.7604 32.5104 73.625 31.4375L74.1406 31.8281C73.1823 33.224 72.276 34.2083 71.4219 34.7812C70.8385 35.1771 70.25 35.375 69.6562 35.375C69.1979 35.375 68.8229 35.2344 68.5312 34.9531C68.2396 34.6615 68.0938 34.2917 68.0938 33.8438C68.0938 33.2812 68.2604 32.4219 68.5938 31.2656L71.2031 22.2188H68.8438L69 21.6094C70.1458 21.2969 71.099 20.8333 71.8594 20.2188C72.6198 19.5938 73.4688 18.5156 74.4062 16.9844H75.0938ZM80.7969 20.8594C81.151 21.4635 81.3958 22.0312 81.5312 22.5625C81.6667 23.0833 81.8021 24.1146 81.9375 25.6562L82.625 33.3438C83.25 32.5938 84.1562 31.4062 85.3438 29.7812C85.9167 28.9896 86.625 27.9115 87.4688 26.5469C87.9792 25.7135 88.2917 25.1302 88.4062 24.7969C88.4688 24.6302 88.5 24.4583 88.5 24.2812C88.5 24.1667 88.4635 24.0729 88.3906 24C88.3177 23.9271 88.125 23.8438 87.8125 23.75C87.5104 23.6458 87.2552 23.4635 87.0469 23.2031C86.849 22.9323 86.75 22.625 86.75 22.2812C86.75 21.8542 86.875 21.5104 87.125 21.25C87.375 20.9896 87.6875 20.8594 88.0625 20.8594C88.5208 20.8594 88.9115 21.0521 89.2344 21.4375C89.5573 21.8125 89.7188 22.3333 89.7188 23C89.7188 23.8229 89.4375 24.7656 88.875 25.8281C88.3125 26.8802 87.2292 28.5 85.625 30.6875C84.0208 32.875 82.0781 35.2604 79.7969 37.8438C78.224 39.625 77.0573 40.7448 76.2969 41.2031C75.5365 41.6719 74.8854 41.9062 74.3438 41.9062C74.0208 41.9062 73.7396 41.7812 73.5 41.5312C73.25 41.2917 73.125 41.0104 73.125 40.6875C73.125 40.2812 73.2969 39.9115 73.6406 39.5781C73.974 39.2448 74.3385 39.0781 74.7344 39.0781C74.9427 39.0781 75.1146 39.125 75.25 39.2188C75.3333 39.2708 75.4271 39.4167 75.5312 39.6562C75.625 39.9062 75.7135 40.0729 75.7969 40.1562C75.849 40.2083 75.9115 40.2344 75.9844 40.2344C76.0469 40.2344 76.1562 40.1823 76.3125 40.0781C76.8854 39.724 77.5521 39.1615 78.3125 38.3906C79.3125 37.3698 80.0521 36.5365 80.5312 35.8906L79.6562 25.9844C79.5104 24.349 79.2917 23.3542 79 23C78.7083 22.6458 78.2188 22.4688 77.5312 22.4688C77.3125 22.4688 76.9219 22.5 76.3594 22.5625L76.2188 21.9844L80.7969 20.8594ZM11.4062 62.9375L8.90625 71.3281H11.6875C12.9375 71.3281 13.8698 71.1354 14.4844 70.75C15.1094 70.3646 15.75 69.5417 16.4062 68.2812H17L14.7969 76H14.1719C14.3281 75.375 14.4062 74.8594 14.4062 74.4531C14.4062 73.8177 14.1927 73.3281 13.7656 72.9844C13.349 72.6302 12.5625 72.4531 11.4062 72.4531H8.59375L6.75 78.8438C6.41667 79.9792 6.25 80.7344 6.25 81.1094C6.25 81.4948 6.39062 81.7917 6.67188 82C6.96354 82.2083 7.66667 82.349 8.78125 82.4219L8.59375 83H0.21875L0.421875 82.4219C1.23438 82.401 1.77604 82.3281 2.04688 82.2031C2.46354 82.026 2.77083 81.7865 2.96875 81.4844C3.25 81.0573 3.58333 80.1771 3.96875 78.8438L7.70312 66.0781C8.00521 65.0469 8.15625 64.2396 8.15625 63.6562C8.15625 63.3854 8.08854 63.1562 7.95312 62.9688C7.81771 62.7708 7.61458 62.625 7.34375 62.5312C7.08333 62.4375 6.55729 62.3906 5.76562 62.3906L5.95312 61.8125H22.3906L20.8281 67.1719H20.2344C20.349 66.526 20.4062 65.9948 20.4062 65.5781C20.4062 64.8906 20.2135 64.349 19.8281 63.9531C19.4531 63.5469 18.9688 63.2604 18.375 63.0938C17.9583 62.9896 17.026 62.9375 15.5781 62.9375H11.4062ZM35.5781 68.8594L32.5312 79.4531L32.1875 80.875C32.1562 81.0104 32.1406 81.125 32.1406 81.2188C32.1406 81.3854 32.1927 81.5312 32.2969 81.6562C32.3802 81.75 32.4844 81.7969 32.6094 81.7969C32.7448 81.7969 32.9219 81.7135 33.1406 81.5469C33.5469 81.2448 34.0885 80.6198 34.7656 79.6719L35.2969 80.0469C34.5781 81.1302 33.8385 81.9583 33.0781 82.5312C32.3177 83.0938 31.6146 83.375 30.9688 83.375C30.5208 83.375 30.1823 83.2604 29.9531 83.0312C29.7344 82.8125 29.625 82.4896 29.625 82.0625C29.625 81.5521 29.7396 80.8802 29.9688 80.0469L30.2969 78.875C28.9323 80.6562 27.6771 81.901 26.5312 82.6094C25.7083 83.1198 24.901 83.375 24.1094 83.375C23.349 83.375 22.6927 83.0625 22.1406 82.4375C21.5885 81.8021 21.3125 80.9323 21.3125 79.8281C21.3125 78.1719 21.8073 76.4271 22.7969 74.5938C23.7969 72.75 25.0625 71.276 26.5938 70.1719C27.7917 69.2969 28.9219 68.8594 29.9844 68.8594C30.6198 68.8594 31.1458 69.026 31.5625 69.3594C31.9896 69.6927 32.3125 70.2448 32.5312 71.0156L33.0938 69.2344L35.5781 68.8594ZM30.0156 69.6719C29.349 69.6719 28.6406 69.9844 27.8906 70.6094C26.8281 71.4948 25.8802 72.8073 25.0469 74.5469C24.224 76.2865 23.8125 77.8594 23.8125 79.2656C23.8125 79.974 23.9896 80.5365 24.3438 80.9531C24.6979 81.3594 25.1042 81.5625 25.5625 81.5625C26.6979 81.5625 27.9323 80.724 29.2656 79.0469C31.0469 76.8177 31.9375 74.5312 31.9375 72.1875C31.9375 71.3021 31.7656 70.6615 31.4219 70.2656C31.0781 69.8698 30.6094 69.6719 30.0156 69.6719ZM48.1719 68.8594L47.2188 73.6562H46.6406C46.5885 72.2604 46.2917 71.2448 45.75 70.6094C45.2083 69.974 44.5365 69.6562 43.7344 69.6562C43.0885 69.6562 42.5729 69.8333 42.1875 70.1875C41.8125 70.5417 41.625 70.9688 41.625 71.4688C41.625 71.8125 41.6979 72.1406 41.8438 72.4531C42 72.7656 42.3333 73.2031 42.8438 73.7656C44.1979 75.2448 45.0729 76.3594 45.4688 77.1094C45.8646 77.8594 46.0625 78.5677 46.0625 79.2344C46.0625 80.3177 45.6094 81.2812 44.7031 82.125C43.8073 82.9583 42.6719 83.375 41.2969 83.375C40.5469 83.375 39.6823 83.1979 38.7031 82.8438C38.3594 82.7188 38.0938 82.6562 37.9062 82.6562C37.4375 82.6562 37.0833 82.8958 36.8438 83.375H36.2656L37.2188 78.3125H37.7969C37.8594 79.8958 38.1875 81.0156 38.7812 81.6719C39.375 82.3281 40.1875 82.6562 41.2188 82.6562C42.0104 82.6562 42.6354 82.4375 43.0938 82C43.5625 81.5521 43.7969 81.0052 43.7969 80.3594C43.7969 79.9427 43.7135 79.5573 43.5469 79.2031C43.2552 78.5781 42.6406 77.7135 41.7031 76.6094C40.776 75.5052 40.1771 74.6771 39.9062 74.125C39.6458 73.5729 39.5156 73.0208 39.5156 72.4688C39.5156 71.4583 39.8802 70.6042 40.6094 69.9062C41.349 69.2083 42.2969 68.8594 43.4531 68.8594C43.7865 68.8594 44.0885 68.8854 44.3594 68.9375C44.5052 68.9688 44.8438 69.0885 45.375 69.2969C45.9167 69.4948 46.276 69.5938 46.4531 69.5938C46.901 69.5938 47.276 69.349 47.5781 68.8594H48.1719ZM58.4219 60.7812L54.0312 75.9531C55.9271 73.099 57.4062 71.2031 58.4688 70.2656C59.5312 69.3281 60.5469 68.8594 61.5156 68.8594C62.0156 68.8594 62.4323 69.0312 62.7656 69.375C63.099 69.7188 63.2656 70.1771 63.2656 70.75C63.2656 71.4375 63.1198 72.2708 62.8281 73.25L60.9219 79.7969C60.6823 80.5885 60.5625 81.026 60.5625 81.1094C60.5625 81.2552 60.6042 81.375 60.6875 81.4688C60.7812 81.5625 60.8854 81.6094 61 81.6094C61.1354 81.6094 61.2917 81.5417 61.4688 81.4062C62.0625 80.9479 62.651 80.3125 63.2344 79.5L63.7188 79.7969C63.3646 80.349 62.8698 80.9583 62.2344 81.625C61.6094 82.2812 61.0677 82.7396 60.6094 83C60.1615 83.25 59.7604 83.375 59.4062 83.375C59.0208 83.375 58.7031 83.25 58.4531 83C58.2135 82.7604 58.0938 82.4479 58.0938 82.0625C58.0938 81.6042 58.276 80.75 58.6406 79.5L60.4375 73.25C60.6667 72.4688 60.7812 71.8542 60.7812 71.4062C60.7812 71.1979 60.7135 71.0312 60.5781 70.9062C60.4531 70.7812 60.2865 70.7188 60.0781 70.7188C59.776 70.7188 59.4323 70.8333 59.0469 71.0625C58.3385 71.5 57.5208 72.3125 56.5938 73.5C56.3438 73.8229 55.5104 75.125 54.0938 77.4062C53.6562 78.1354 53.2969 78.9323 53.0156 79.7969L52.0156 83H49.6719L54.8125 65.125L55.3594 63.1875C55.3594 62.9167 55.2448 62.6771 55.0156 62.4688C54.7969 62.2604 54.526 62.1562 54.2031 62.1562C54.0156 62.1562 53.7292 62.1875 53.3438 62.25L53.0156 62.2969V61.6875L58.4219 60.7812ZM72.1875 62.6562C72.625 62.6562 72.9948 62.8073 73.2969 63.1094C73.599 63.4115 73.75 63.7812 73.75 64.2188C73.75 64.6458 73.5938 65.0156 73.2812 65.3281C72.9792 65.6302 72.6146 65.7812 72.1875 65.7812C71.7604 65.7812 71.3906 65.6302 71.0781 65.3281C70.776 65.0156 70.625 64.6458 70.625 64.2188C70.625 63.7812 70.776 63.4115 71.0781 63.1094C71.3802 62.8073 71.75 62.6562 72.1875 62.6562ZM72.3906 68.8594L69.2969 79.8125C69.0885 80.5521 68.9844 80.9948 68.9844 81.1406C68.9844 81.3073 69.0312 81.4427 69.125 81.5469C69.2292 81.651 69.349 81.7031 69.4844 81.7031C69.6406 81.7031 69.8281 81.6198 70.0469 81.4531C70.6406 80.9844 71.2396 80.3177 71.8438 79.4531L72.3906 79.8125C71.6823 80.8958 70.849 81.8073 69.8906 82.5469C69.1823 83.099 68.5052 83.375 67.8594 83.375C67.4323 83.375 67.0833 83.25 66.8125 83C66.5417 82.7396 66.4062 82.4167 66.4062 82.0312C66.4062 81.6458 66.5365 81.0052 66.7969 80.1094L68.8281 73.1094C69.1615 71.9635 69.3281 71.2448 69.3281 70.9531C69.3281 70.724 69.2448 70.5365 69.0781 70.3906C68.9219 70.2448 68.7031 70.1719 68.4219 70.1719C68.1927 70.1719 67.7188 70.2292 67 70.3438V69.7344L72.3906 68.8594ZM88.7344 73.75C88.7344 75.3125 88.3177 76.8594 87.4844 78.3906C86.6615 79.9219 85.5104 81.1354 84.0312 82.0312C82.5521 82.9271 81.1146 83.375 79.7188 83.375C78.2917 83.375 77.125 82.9219 76.2188 82.0156C75.3229 81.099 74.875 79.9167 74.875 78.4688C74.875 76.9375 75.3125 75.401 76.1875 73.8594C77.0729 72.3177 78.25 71.099 79.7188 70.2031C81.1979 69.3073 82.625 68.8594 84 68.8594C85.375 68.8594 86.5052 69.3125 87.3906 70.2188C88.2865 71.125 88.7344 72.3021 88.7344 73.75ZM86.1406 72.6719C86.1406 71.7031 85.901 70.9635 85.4219 70.4531C84.9531 69.9323 84.3438 69.6719 83.5938 69.6719C82.0625 69.6719 80.651 70.7708 79.3594 72.9688C78.0781 75.1562 77.4375 77.3333 77.4375 79.5C77.4375 80.4896 77.6875 81.2552 78.1875 81.7969C78.6875 82.3281 79.3177 82.5938 80.0781 82.5938C81.5469 82.5938 82.9219 81.5052 84.2031 79.3281C85.4948 77.1406 86.1406 74.9219 86.1406 72.6719ZM97 68.8594L94.9219 75.9688C96.8698 73.0625 98.3594 71.151 99.3906 70.2344C100.432 69.3177 101.432 68.8594 102.391 68.8594C102.911 68.8594 103.339 69.0312 103.672 69.375C104.016 69.7188 104.188 70.1667 104.188 70.7188C104.188 71.3438 104.036 72.1771 103.734 73.2188L101.828 79.7969C101.609 80.5573 101.5 81.0208 101.5 81.1875C101.5 81.3333 101.542 81.4583 101.625 81.5625C101.708 81.6562 101.797 81.7031 101.891 81.7031C102.016 81.7031 102.167 81.6354 102.344 81.5C102.896 81.0625 103.5 80.3958 104.156 79.5L104.641 79.7969C103.672 81.1823 102.755 82.1719 101.891 82.7656C101.286 83.1719 100.745 83.375 100.266 83.375C99.8802 83.375 99.5729 83.2552 99.3438 83.0156C99.1146 82.7865 99 82.474 99 82.0781C99 81.5781 99.1771 80.7188 99.5312 79.5L101.344 73.2188C101.573 72.4375 101.688 71.8281 101.688 71.3906C101.688 71.1823 101.62 71.0156 101.484 70.8906C101.349 70.7552 101.182 70.6875 100.984 70.6875C100.693 70.6875 100.344 70.8125 99.9375 71.0625C99.1667 71.5312 98.3646 72.3073 97.5312 73.3906C96.6979 74.4635 95.8177 75.8385 94.8906 77.5156C94.401 78.401 93.9948 79.3698 93.6719 80.4219L92.8906 83H90.5469L93.3906 73.2188C93.724 72.0417 93.8906 71.3333 93.8906 71.0938C93.8906 70.8646 93.7969 70.6667 93.6094 70.5C93.4323 70.3229 93.2083 70.2344 92.9375 70.2344C92.8125 70.2344 92.5938 70.2552 92.2812 70.2969L91.6875 70.3906L91.5938 69.8281L97 68.8594ZM23.5156 109.328L21.9375 116.188H21.375L21.3125 114.469C21.2604 113.844 21.1406 113.286 20.9531 112.797C20.7656 112.307 20.4844 111.885 20.1094 111.531C19.7344 111.167 19.2604 110.885 18.6875 110.688C18.1146 110.479 17.4792 110.375 16.7812 110.375C14.9167 110.375 13.2865 110.885 11.8906 111.906C10.1094 113.208 8.71354 115.047 7.70312 117.422C6.86979 119.38 6.45312 121.365 6.45312 123.375C6.45312 125.427 7.05208 127.068 8.25 128.297C9.44792 129.516 11.0052 130.125 12.9219 130.125C14.3698 130.125 15.6562 129.802 16.7812 129.156C17.9167 128.51 18.9688 127.516 19.9375 126.172H20.6719C19.526 127.995 18.2552 129.339 16.8594 130.203C15.4635 131.057 13.7917 131.484 11.8438 131.484C10.1146 131.484 8.58333 131.125 7.25 130.406C5.91667 129.677 4.90104 128.656 4.20312 127.344C3.50521 126.031 3.15625 124.62 3.15625 123.109C3.15625 120.797 3.77604 118.547 5.01562 116.359C6.25521 114.172 7.95312 112.453 10.1094 111.203C12.276 109.953 14.4583 109.328 16.6562 109.328C17.6875 109.328 18.8438 109.573 20.125 110.062C20.6875 110.271 21.0938 110.375 21.3438 110.375C21.5938 110.375 21.8125 110.323 22 110.219C22.1875 110.115 22.5 109.818 22.9375 109.328H23.5156ZM37.4062 117.234L34.6875 126.547C34.2812 127.932 34.0781 128.807 34.0781 129.172C34.0781 129.359 34.1094 129.5 34.1719 129.594C34.2448 129.677 34.3385 129.719 34.4531 129.719C34.6302 129.719 34.8229 129.641 35.0312 129.484C35.25 129.318 35.7917 128.672 36.6562 127.547L37.125 127.906C36.3021 129.208 35.4583 130.167 34.5938 130.781C34.0208 131.177 33.4688 131.375 32.9375 131.375C32.5312 131.375 32.2135 131.26 31.9844 131.031C31.7552 130.802 31.6406 130.505 31.6406 130.141C31.6406 129.786 31.7083 129.318 31.8438 128.734C32.0104 127.964 32.4844 126.286 33.2656 123.703C31.4948 126.609 30.0104 128.615 28.8125 129.719C27.625 130.823 26.5208 131.375 25.5 131.375C25.0208 131.375 24.6146 131.208 24.2812 130.875C23.9479 130.542 23.7812 130.12 23.7812 129.609C23.7812 128.828 24.0104 127.63 24.4688 126.016L25.8281 121.188C26.1615 120.031 26.3281 119.312 26.3281 119.031C26.3281 118.906 26.2812 118.802 26.1875 118.719C26.1042 118.625 26.0104 118.578 25.9062 118.578C25.6875 118.578 25.4688 118.656 25.25 118.812C25.0312 118.969 24.5365 119.547 23.7656 120.547L23.2812 120.203C24.0625 118.995 24.8906 118.104 25.7656 117.531C26.4323 117.083 27.0469 116.859 27.6094 116.859C27.9948 116.859 28.3073 116.984 28.5469 117.234C28.7969 117.474 28.9219 117.786 28.9219 118.172C28.9219 118.734 28.7135 119.74 28.2969 121.188L26.8281 126.234C26.4219 127.609 26.2188 128.479 26.2188 128.844C26.2188 129.042 26.2812 129.203 26.4062 129.328C26.5417 129.443 26.7188 129.5 26.9375 129.5C27.2812 129.5 27.7292 129.328 28.2812 128.984C28.8333 128.641 29.5677 127.88 30.4844 126.703C31.4115 125.516 32.1719 124.406 32.7656 123.375C33.3698 122.333 34.0104 120.682 34.6875 118.422L35.0312 117.234H37.4062ZM47.8594 108.781L42.5156 127.375C42.2552 128.302 42.125 128.87 42.125 129.078C42.125 129.234 42.1719 129.365 42.2656 129.469C42.3698 129.573 42.4948 129.625 42.6406 129.625C42.8385 129.625 43.0521 129.536 43.2812 129.359C43.8229 128.932 44.3906 128.271 44.9844 127.375L45.4531 127.859C44.4635 129.255 43.5521 130.229 42.7188 130.781C42.1042 131.177 41.5208 131.375 40.9688 131.375C40.5729 131.375 40.2396 131.24 39.9688 130.969C39.7083 130.698 39.5781 130.385 39.5781 130.031C39.5781 129.656 39.7448 128.885 40.0781 127.719L44.3125 113.062C44.6562 111.865 44.8281 111.177 44.8281 111C44.8281 110.75 44.7292 110.547 44.5312 110.391C44.3333 110.224 44.026 110.141 43.6094 110.141C43.3698 110.141 43.0052 110.177 42.5156 110.25V109.672L47.8594 108.781ZM55.5625 112.984L54.3438 117.234H56.7969L56.5312 118.219H54.0938L51.4062 127.438C51.1146 128.427 50.9688 129.068 50.9688 129.359C50.9688 129.536 51.0104 129.672 51.0938 129.766C51.1771 129.859 51.276 129.906 51.3906 129.906C51.651 129.906 51.9948 129.724 52.4219 129.359C52.6719 129.151 53.2292 128.51 54.0938 127.438L54.6094 127.828C53.651 129.224 52.7448 130.208 51.8906 130.781C51.3073 131.177 50.7188 131.375 50.125 131.375C49.6667 131.375 49.2917 131.234 49 130.953C48.7083 130.661 48.5625 130.292 48.5625 129.844C48.5625 129.281 48.7292 128.422 49.0625 127.266L51.6719 118.219H49.3125L49.4688 117.609C50.6146 117.297 51.5677 116.833 52.3281 116.219C53.0885 115.594 53.9375 114.516 54.875 112.984H55.5625ZM71.2188 117.234L68.5 126.547C68.0938 127.932 67.8906 128.807 67.8906 129.172C67.8906 129.359 67.9219 129.5 67.9844 129.594C68.0573 129.677 68.151 129.719 68.2656 129.719C68.4427 129.719 68.6354 129.641 68.8438 129.484C69.0625 129.318 69.6042 128.672 70.4688 127.547L70.9375 127.906C70.1146 129.208 69.2708 130.167 68.4062 130.781C67.8333 131.177 67.2812 131.375 66.75 131.375C66.3438 131.375 66.026 131.26 65.7969 131.031C65.5677 130.802 65.4531 130.505 65.4531 130.141C65.4531 129.786 65.5208 129.318 65.6562 128.734C65.8229 127.964 66.2969 126.286 67.0781 123.703C65.3073 126.609 63.8229 128.615 62.625 129.719C61.4375 130.823 60.3333 131.375 59.3125 131.375C58.8333 131.375 58.4271 131.208 58.0938 130.875C57.7604 130.542 57.5938 130.12 57.5938 129.609C57.5938 128.828 57.8229 127.63 58.2812 126.016L59.6406 121.188C59.974 120.031 60.1406 119.312 60.1406 119.031C60.1406 118.906 60.0938 118.802 60 118.719C59.9167 118.625 59.8229 118.578 59.7188 118.578C59.5 118.578 59.2812 118.656 59.0625 118.812C58.8438 118.969 58.349 119.547 57.5781 120.547L57.0938 120.203C57.875 118.995 58.7031 118.104 59.5781 117.531C60.2448 117.083 60.8594 116.859 61.4219 116.859C61.8073 116.859 62.1198 116.984 62.3594 117.234C62.6094 117.474 62.7344 117.786 62.7344 118.172C62.7344 118.734 62.526 119.74 62.1094 121.188L60.6406 126.234C60.2344 127.609 60.0312 128.479 60.0312 128.844C60.0312 129.042 60.0938 129.203 60.2188 129.328C60.3542 129.443 60.5312 129.5 60.75 129.5C61.0938 129.5 61.5417 129.328 62.0938 128.984C62.6458 128.641 63.3802 127.88 64.2969 126.703C65.224 125.516 65.9844 124.406 66.5781 123.375C67.1823 122.333 67.8229 120.682 68.5 118.422L68.8438 117.234H71.2188ZM73.8281 117.734L79.2188 116.859L76.9688 124.453C78.7917 121.339 80.4479 119.161 81.9375 117.922C82.7812 117.214 83.4688 116.859 84 116.859C84.3438 116.859 84.6146 116.964 84.8125 117.172C85.0104 117.37 85.1094 117.661 85.1094 118.047C85.1094 118.734 84.9323 119.391 84.5781 120.016C84.3281 120.484 83.9688 120.719 83.5 120.719C83.2604 120.719 83.0521 120.641 82.875 120.484C82.7083 120.328 82.6042 120.089 82.5625 119.766C82.5417 119.568 82.4948 119.438 82.4219 119.375C82.3385 119.292 82.2396 119.25 82.125 119.25C81.9479 119.25 81.7812 119.292 81.625 119.375C81.3542 119.521 80.9427 119.927 80.3906 120.594C79.526 121.615 78.5885 122.938 77.5781 124.562C77.1406 125.25 76.7656 126.026 76.4531 126.891C76.0156 128.078 75.7656 128.792 75.7031 129.031L75.2031 131H72.8125L75.7031 121.297C76.0365 120.172 76.2031 119.37 76.2031 118.891C76.2031 118.703 76.125 118.547 75.9688 118.422C75.7604 118.255 75.4844 118.172 75.1406 118.172C74.9219 118.172 74.5208 118.219 73.9375 118.312L73.8281 117.734ZM87.25 125.109C87.1771 125.63 87.1406 126.062 87.1406 126.406C87.1406 127.333 87.4688 128.125 88.125 128.781C88.7812 129.427 89.5781 129.75 90.5156 129.75C91.2656 129.75 91.9844 129.599 92.6719 129.297C93.3698 128.984 94.401 128.302 95.7656 127.25L96.0938 127.703C93.625 130.151 91.2708 131.375 89.0312 131.375C87.5104 131.375 86.3646 130.896 85.5938 129.938C84.8229 128.979 84.4375 127.922 84.4375 126.766C84.4375 125.214 84.9167 123.625 85.875 122C86.8333 120.375 88.0365 119.115 89.4844 118.219C90.9323 117.312 92.4219 116.859 93.9531 116.859C95.0573 116.859 95.875 117.083 96.4062 117.531C96.9375 117.979 97.2031 118.51 97.2031 119.125C97.2031 119.99 96.8594 120.818 96.1719 121.609C95.2656 122.641 93.9323 123.474 92.1719 124.109C91.0052 124.536 89.3646 124.87 87.25 125.109ZM87.3594 124.344C88.901 124.167 90.1562 123.865 91.125 123.438C92.4062 122.865 93.3646 122.182 94 121.391C94.6458 120.589 94.9688 119.828 94.9688 119.109C94.9688 118.672 94.8281 118.318 94.5469 118.047C94.276 117.776 93.8854 117.641 93.375 117.641C92.3125 117.641 91.1823 118.208 89.9844 119.344C88.7969 120.469 87.9219 122.135 87.3594 124.344Z" fill="#252525"/>
<rect x="1" y="168" width="98" height="6" fill="#252525"/>
</svg>
